<svg width="243" height="214" viewBox="0 0 243 214" fill="none" xmlns="http://www.w3.org/2000/svg">
<path d="M59.2587 11.6513C50.9623 21.2655 60.3485 37.0466 48.1236 44.2173C36.2239 51.2061 21.8722 39.4611 10.6668 45.4608C-5.95228 54.3696 -3.46513 95.8151 20.3342 121.756C27.4969 129.559 33.5171 132.621 36.0921 141.399C41.6201 160.242 21.2131 171.245 24.9482 180.575C33.3677 201.578 166.699 220.305 221.091 157.871C246.49 128.708 250.779 86.3246 228.825 53.9114C189.171 -4.64619 77.8728 -9.91143 59.2587 11.6513Z" fill="#F4F7FA"/>
<path d="M50.1445 177.253L45.8826 174.349L30.4595 15.1179L34.2426 13.1714L46.7538 87.6261L50.1445 177.253Z" fill="url(#paint0_linear)"/>
<path d="M147.636 169.788L50.1446 177.253L34.2427 13.1714L133.013 18.8775L147.636 169.788Z" fill="url(#paint1_linear)"/>
<path d="M93.3136 94.7529L45.0271 24.9918L34.2427 13.1714L50.1446 177.253L58.6135 165.26L93.3136 94.7529Z" fill="url(#paint2_linear)"/>
<path d="M125.713 28.9083L93.313 94.7528L138.405 159.907L147.635 169.788L133.013 18.8774L125.713 28.9083Z" fill="url(#paint3_linear)"/>
<path opacity="0.3" d="M54.3984 171.233L39.6582 19.1052L129.379 23.8774L143.036 164.867L54.3984 171.233Z" fill="url(#paint4_linear)"/>
<path d="M58.6133 165.26L45.0269 24.9917L125.714 28.9083L138.405 159.907L58.6133 165.26Z" fill="url(#paint5_linear)"/>
<path d="M62.3968 101.401C62.6244 85.2087 69.7355 82.7991 68.7701 69.5266C67.3965 50.5871 52.1069 44.0568 55.4897 36.5847C59.5712 27.5741 87.0502 25.5884 104.899 38.7117C120.322 50.0456 122.912 68.514 124.026 76.4336C125.141 84.3689 128.241 106.479 113.399 122.122C103.917 132.114 85.8807 140.787 74.0838 133.809C62.0357 126.682 62.3183 106.66 62.3968 101.401Z" fill="url(#paint6_linear)"/>
<path d="M121.899 46.1446C114.702 42.8245 97.6856 62.5488 87.898 78.5527C76.4857 97.2096 56.8242 140.347 73.5502 155.59C86.9483 167.803 120.911 159.577 126.146 144.962C130.604 132.522 110.785 125.073 112.332 104.054C113.517 88.0107 125.847 81.6609 125.612 59.9587C125.565 54.6999 125.486 47.8007 121.899 46.1446Z" fill="url(#paint7_linear)"/>
<path d="M162.479 100.487L153.603 97.5803L142.01 132.984L150.887 135.89L162.479 100.487Z" fill="#97A6B7"/>
<path d="M169.904 69.2126L166.097 67.9646L153.602 97.5628C155.854 100.679 158.813 101.644 162.479 100.467L169.904 69.2126Z" fill="url(#paint8_linear)"/>
<path d="M161.662 66.1281C157.259 61.4815 157.855 54.7314 158.005 52.9968C159.355 37.5737 175.829 34.3164 180.374 15.4006C181.567 10.4244 181.222 7.33975 182.368 7.15923C185.099 6.74323 192.579 23.4379 190.986 40.8624C190.656 44.4572 188.231 66.7246 175.814 70.0525C171.206 71.3005 165.249 69.9112 161.662 66.1281Z" fill="url(#paint9_linear)"/>
<path opacity="0.3" d="M163.986 66.1829C163.554 65.3823 161.215 61.0419 161.537 55.7909C162.385 41.9847 180.94 34.5675 183.263 16.3423C183.804 12.0804 183.396 8.01463 183.797 7.99108C184.432 7.95184 187.949 17.8964 185.955 28.3198C182.816 44.7004 167.306 55.7909 170.799 63.6163C171.215 64.5425 172.635 67.0855 171.599 68.671C170.862 69.8091 169.001 70.0995 167.628 69.7541C166.466 69.4716 165.297 68.6161 163.986 66.1829Z" fill="url(#paint10_linear)"/>
<path d="M165.1 88.3875C164.605 85.8209 165.791 82.9403 168.192 77.2734C172.266 67.6428 174.307 62.8314 178.474 60.72C182.038 58.9148 185.931 59.5427 193.701 60.7985C202.649 62.2427 207.123 62.957 208.41 65.8375C209.556 68.3963 207.641 70.9158 193.505 88.827C188.121 95.6555 185.366 99.0777 182.242 99.6977C175.28 101.095 166.434 95.318 165.1 88.3875Z" fill="url(#paint11_linear)"/>
<path opacity="0.3" d="M185.122 59.6448C180.271 67.5015 173.482 79.0159 166.701 92.3041C167.933 94.2663 169.73 95.9931 171.787 97.3038C179.549 81.92 187.422 68.7417 192.516 60.6023C189.517 60.1314 187.131 59.7704 185.122 59.6448Z" fill="url(#paint12_linear)"/>
<path opacity="0.3" d="M208.41 65.8376C208.01 64.935 207.295 64.2522 206.228 63.6792C200.867 71.2298 190.051 85.1695 174.667 98.7952C177.156 99.7999 179.816 100.192 182.242 99.7057C185.366 99.0856 188.12 95.6557 193.505 88.835C207.641 70.908 209.556 68.3885 208.41 65.8376Z" fill="url(#paint13_linear)"/>
<path d="M145.226 142.529L140.415 139.358L170.453 95.2944L174.157 97.7354L145.226 142.529Z" fill="url(#paint14_linear)"/>
<path d="M163.671 87.94L162.556 90.5851C162.227 91.37 162.494 92.2805 163.208 92.7592L178.914 103.277C179.612 103.74 180.53 103.661 181.135 103.081L183.254 101.048C184.078 100.255 183.96 98.9128 183.011 98.277L166.308 87.1473C165.374 86.5272 164.111 86.9039 163.671 87.94Z" fill="url(#paint15_linear)"/>
<path d="M144.693 134.869L138.971 134.131L150.399 59.5742L154.794 60.1472L144.693 134.869Z" fill="url(#paint16_linear)"/>
<path d="M142.479 54.8725C141.655 43.8291 140.313 17.2919 147.887 14.7881C148.931 14.4428 153.161 13.5558 154.504 15.3768C155.54 16.7817 154.488 19.2934 154.927 19.4347C155.5 19.6152 157.015 15.3611 157.965 15.5573C158.766 15.7221 158.585 18.9559 159.158 19.0108C159.676 19.0579 159.723 16.4128 161.199 15.4396C163.404 13.9797 167.721 16.9623 167.949 17.1192C175.225 22.2367 166.395 50.5163 164.017 57.8629C156.835 56.8661 149.661 55.8693 142.479 54.8725Z" fill="url(#paint17_linear)"/>
<g opacity="0.3">
<path opacity="0.3" d="M155.712 18.5557C155.391 19.1052 155.108 19.4976 154.927 19.4427C154.488 19.3014 155.54 16.7897 154.504 15.3848C153.789 14.4194 152.259 14.2153 150.83 14.2859C149.771 23.1238 148.107 38.3742 148.468 55.7046C149.708 55.8773 150.948 56.05 152.18 56.2226C152.447 40.2894 154.182 27.0483 155.712 18.5557Z" fill="url(#paint18_linear)"/>
<path opacity="0.3" d="M165.587 15.8008C164.346 15.2435 162.863 14.8118 161.717 15.1964C162.345 24.5288 161.89 39.1827 156.403 56.8113C157.275 56.9291 158.146 57.0547 159.017 57.1724C165.296 42.9816 165.955 26.2242 165.587 15.8008Z" fill="url(#paint19_linear)"/>
</g>
<path d="M141.082 55.9401L141.239 58.8128C141.286 59.6684 141.93 60.3669 142.777 60.4846L161.505 63.0355C162.337 63.1454 163.13 62.6666 163.42 61.8817L164.433 59.1268C164.825 58.0593 164.126 56.8977 162.996 56.7407L143.091 54.0721C141.985 53.9308 141.019 54.8256 141.082 55.9401Z" fill="url(#paint20_linear)"/>
<path d="M191.519 144.625C186.362 118.912 167.58 98.285 145.697 89.6434C129.623 83.2936 103.87 80.2482 96.6887 91.637C93.086 97.351 94.0043 106.935 97.089 113.551C101.092 122.13 108.203 124.563 107.238 127.687C105.723 132.6 88.1255 126.353 80.3315 134.155C70.1829 144.327 83.3141 171.743 84.0284 173.195C85.6924 176.586 102.662 209.779 138.131 212.801C143.814 213.287 163.475 214.959 178.372 201.608C199.203 182.935 192.783 150.959 191.519 144.625ZM131.153 153.934C128.155 156.328 122.198 153.863 117.849 148.416C113.501 142.977 112.41 136.619 115.408 134.217C118.407 131.823 124.364 134.288 128.712 139.735C133.061 145.182 134.152 151.54 131.153 153.934Z" fill="url(#paint21_linear)"/>
<path d="M192.579 143.385C187.422 117.672 168.64 97.045 146.757 88.4034C130.682 82.0536 104.93 79.0082 97.7482 90.397C94.1456 96.111 95.0639 105.695 98.1485 112.311C102.151 120.89 109.263 123.323 108.297 126.447C106.782 131.36 89.1851 125.113 81.3911 132.915C71.2425 143.087 84.3737 170.503 85.088 171.955C86.7519 175.346 103.721 208.539 139.19 211.561C144.873 212.047 164.535 213.719 179.432 200.368C200.263 181.696 193.85 149.719 192.579 143.385ZM132.213 152.694C129.215 155.088 123.257 152.623 118.909 147.176C114.561 141.737 113.47 135.379 116.468 132.977C119.466 130.583 125.423 133.048 129.772 138.495C134.12 143.942 135.211 150.3 132.213 152.694Z" fill="url(#paint22_linear)"/>
<path d="M134.52 92.3434C132.974 90.8992 126.467 93.4266 123.453 98.3008C120.682 102.782 119.945 110.726 125.219 114.925C129.073 117.994 135.438 118.504 139.567 114.791C142.871 111.817 144.245 106.589 142.487 103.371C140.595 99.9098 135.799 100.067 134.787 96.1972C134.253 94.1801 135.273 93.0498 134.52 92.3434Z" fill="url(#paint23_linear)"/>
<path d="M156.034 108.685C154.614 107.539 148.358 110.678 145.933 115.835C142.872 122.365 145.36 133.44 152.84 135.512C157.769 136.878 163.538 133.974 166.253 129.406C168.773 125.175 169.071 118.857 166.12 116.259C163.137 113.63 158.044 115.874 156.427 113.072C155.398 111.275 156.913 109.383 156.034 108.685Z" fill="url(#paint24_linear)"/>
<path d="M172.501 153.173C175.711 154.264 181.245 149.586 182.862 144.272C184.84 137.773 181.449 128.739 176.088 127.938C171.253 127.216 165.555 133.299 165.194 138.833C165.013 141.611 166.622 144.405 169.84 149.986C171.261 152.443 171.803 152.937 172.501 153.173Z" fill="url(#paint25_linear)"/>
<path d="M183.663 158.353C183.247 157.419 176.913 157.772 172.635 161.539C169.448 164.349 166.34 169.993 168.514 175.62C169.998 179.435 173.828 183.038 177.941 182.928C185.57 182.724 190.554 169.883 187.634 165.393C186.237 163.243 182.532 162.261 182.721 160.213C182.831 159.177 183.843 158.761 183.663 158.353Z" fill="url(#paint26_linear)"/>
<path d="M139.434 180.4C139.237 178.65 145.626 175.33 152.314 175.487C154.103 175.526 163.373 175.746 167.721 183.32C170.484 188.132 171.073 195.596 166.661 200.188C162.823 204.183 157.298 203.837 156.301 203.775C150.555 203.413 144.535 199.489 143.546 194.607C142.612 189.96 146.686 186.672 144.739 183.579C143.178 181.107 139.575 181.696 139.434 180.4Z" fill="url(#paint27_linear)"/>
<path d="M121.232 177.214C123.658 176.97 124.176 173.352 125.879 173.36C127.849 173.376 129.717 178.234 130.258 182.394C130.415 183.587 131.742 193.767 126.805 196.742C121.279 200.07 109.247 193.571 106.351 184.254C103.745 175.879 108.949 166.563 111.264 166.72C112.606 166.814 112.708 170.048 116.845 174.42C119.521 177.253 120.769 177.261 121.232 177.214Z" fill="url(#paint28_linear)"/>
<path d="M46.6753 204.292C46.6753 204.292 46.4869 205.815 46.6125 206.317C46.7381 206.828 51.157 207.197 52.6562 207.016C54.1553 206.836 51.7614 205.305 50.8038 205.022C49.8541 204.74 46.6753 204.292 46.6753 204.292Z" fill="url(#paint29_linear)"/>
<path d="M48.8963 201.757L48.4332 204.803C48.4332 204.803 47.2481 205.336 46.6751 204.81L46.6123 201.616L48.8963 201.757Z" fill="url(#paint30_linear)"/>
<path d="M23.9922 201.624C23.9922 201.624 24.9262 202.322 24.6829 203.154C24.4317 203.986 22.2419 207.33 20.6878 208.272C19.1259 209.221 19.6204 207.244 20.0677 206.019C20.523 204.787 21.6846 202.079 22.132 201.624C22.5794 201.168 23.9922 201.624 23.9922 201.624Z" fill="url(#paint31_linear)"/>
<path d="M25.6796 198.272C25.2244 199.536 24.7927 200.572 24.4473 201.341C23.6938 203.036 23.2778 203.672 22.8148 204.222C22.4066 204.7 21.4412 205.729 21.1822 205.556C20.9153 205.383 21.6217 204.135 22.9874 200.486C23.1837 199.96 23.8116 198.272 23.8116 198.272H25.6796Z" fill="url(#paint32_linear)"/>
<path d="M58.1507 145.488C58.4725 148.667 58.7865 153.589 58.3234 159.577C57.719 167.371 56.1571 172.3 54.2027 180.612C53.0097 185.691 51.4006 193.163 49.9407 202.511C49.6032 202.707 48.6064 203.209 47.3271 203.021C46.6128 202.911 46.0712 202.628 45.7573 202.424C41.9349 190.745 43.0651 183.516 44.9096 179.003C45.6945 177.08 46.6521 175.565 47.1544 172.614C47.8294 168.706 46.9974 166.524 45.8044 157.474C44.9567 151.022 45.1058 150.025 45.6709 149.06C47.9314 145.182 54.8228 145.253 58.1507 145.488Z" fill="url(#paint33_linear)"/>
<path d="M45.0034 146.846C42.6645 158.934 40.3647 165.283 38.6301 168.87C38.1984 169.757 36.7699 172.614 35.4199 176.711C34.219 180.337 33.7246 183.006 33.4656 184.176C32.6571 187.88 30.6635 193.288 25.2948 200.384C25.2242 200.423 24.3137 200.941 23.4347 200.478C22.9951 200.242 22.7675 199.873 22.6812 199.701C23.3797 192.919 24.1881 187.213 24.8867 182.818C25.0358 181.892 25.6794 177.857 26.6919 172.52C27.0844 170.432 27.6731 167.371 28.3638 164.232C29.2271 160.323 30.5615 154.993 32.61 148.62C36.7385 148.031 40.8749 147.435 45.0034 146.846Z" fill="url(#paint34_linear)"/>
<path d="M82.1996 117.295C81.6737 116.675 81.1399 116.055 80.6141 115.435C80.3629 115.631 76.7132 118.323 72.3413 116.746C69.3352 115.662 67.8988 112.868 66.9805 111.087C64.2177 105.734 66.7686 102.445 63.527 98.6146C62.6244 97.555 60.7642 96.1579 59.3985 96.3149C56.149 96.6916 53.033 105.883 55.0423 113.732C55.4505 115.317 57.6796 124.037 65.2224 125.992C71.3131 127.577 78.4792 124.124 82.1996 117.295Z" fill="url(#paint35_linear)"/>
<path d="M46.9974 99.0307C48.3239 97.8062 50.8669 96.3856 52.1385 93.1047C52.5231 92.1158 53.8809 88.6073 51.8794 85.923C50.6864 84.3297 48.4809 83.2465 46.5343 83.6311C44.8704 83.9608 44.6114 85.1146 41.7858 87.4457C40.6869 88.3561 38.9131 89.816 36.9508 90.6245C33.5758 92.0137 31.5508 90.703 28.1679 90.8521C24.008 91.0326 19.173 93.3559 16.8498 96.7309C12.7134 102.72 18.7021 108.803 14.1733 115.819C12.6898 118.119 11.9599 117.601 8.44359 122.059C4.92728 126.518 3.16912 128.747 3.48308 131.478C3.91477 135.269 8.00405 138.887 11.8422 139.139C15.6018 139.382 17.9879 136.423 19.8951 137.718C21.253 138.636 20.476 140.426 21.9202 142.576C23.7804 145.347 27.4458 145.904 28.0345 145.991C33.5209 146.823 40.9302 140.379 44.0698 132.757C49.7367 119.006 39.7764 105.702 46.9974 99.0307Z" fill="url(#paint36_linear)"/>
<path opacity="0.3" d="M44.9175 179.003C45.7024 177.08 46.6599 175.565 47.1623 172.614C47.8373 168.705 47.0053 166.523 45.8123 157.474C44.9646 151.022 45.1137 150.025 45.6788 149.06C46.9033 146.956 49.5013 146.022 52.1463 145.645C52.1071 145.779 52.0757 145.92 52.0443 146.046C50.655 152.387 55.9609 156.265 53.567 163.235C52.3897 166.672 50.5059 167.457 50.0664 171.452C49.6582 175.189 51.1417 175.966 50.8277 179.364C50.3489 184.442 46.7463 185.667 45.8044 189.56C45.1922 192.087 45.7102 195.776 50.1606 201.129C50.0899 201.592 50.0114 202.055 49.9408 202.518C49.6033 202.715 48.6065 203.217 47.3271 203.029C46.6129 202.919 46.0713 202.636 45.7573 202.432C41.9427 190.745 43.073 183.508 44.9175 179.003Z" fill="url(#paint37_linear)"/>
<path d="M58.8569 105.459C63.8959 110.718 62.0828 119.21 65.4971 120.128C66.541 120.411 66.5959 119.587 69.2489 119.116C73.1262 118.425 74.696 119.885 77.4353 119.328C78.5655 119.1 80.0882 118.48 81.7365 116.761C81.8935 116.942 82.0426 117.122 82.1996 117.303C78.4792 124.139 71.3131 127.585 65.2224 126.007C57.6874 124.053 55.4505 115.325 55.0423 113.747C54.1005 110.066 54.2888 106.087 55.0816 102.861C56.3452 103.41 57.6796 104.227 58.8569 105.459Z" fill="url(#paint38_linear)"/>
<path d="M63.0404 98.12C62.6872 97.5784 61.5726 96.0714 56.8476 94.9569C55.1522 94.5566 52.4286 93.9601 48.9516 94.0856C48.3708 94.1092 46.487 94.2034 44.462 94.6429C40.1451 95.5769 31.5427 98.8656 31.2444 103.34C31.0325 106.534 35.2945 106.738 37.7041 112.397C39.4622 116.518 39.4465 121.667 37.5314 125.678C35.993 128.896 33.2695 131.305 31.2052 133.142C28.1049 135.889 26.5037 136.313 25.4598 138.777C24.3295 141.462 25.4676 142.765 24.0627 144.601C22.5557 146.571 20.7818 145.653 18.2309 147.654C15.6094 149.695 16.5434 151.375 14.1574 153.635C10.696 156.916 6.09653 155.849 5.88461 157.324C5.70408 158.596 8.96923 160.315 11.7399 161.013C17.2341 162.395 22.022 160.071 23.4505 159.357C27.3985 157.379 26.7156 156.092 29.7217 154.585C34.7607 152.058 38.1986 154.868 49.6658 155.158C55.8743 155.315 59.0217 155.354 60.7406 153.251C62.3104 151.328 61.4863 149.224 60.5444 140.151C60.2383 137.121 59.6104 130.779 59.6025 127.161C59.6025 125.026 60.3403 121.533 61.8238 114.548C61.9101 114.14 62.7107 110.364 63.3622 105.325C63.943 100.781 63.8566 99.3915 63.0404 98.12Z" fill="url(#paint39_linear)"/>
<path d="M14.1575 153.628C16.5436 151.367 15.6095 149.687 18.2311 147.647C20.7898 145.653 22.5558 146.571 24.0628 144.593C25.4678 142.757 24.3297 141.446 25.4599 138.77C26.496 136.305 28.105 135.881 31.2053 133.134C33.2696 131.297 35.9931 128.888 37.5315 125.67C40.2002 120.089 38.3321 114.132 37.7042 112.389C35.6713 106.785 31.5742 103.834 30.0908 102.869C30.232 102.712 37.1783 108.897 37.3589 108.708C47.1464 110.05 46.0868 109.352 46.7854 111.032C48.418 114.901 45.8357 116.33 45.765 127.491C45.7336 132.828 46.3066 134.939 44.5798 137.161C42.6019 139.711 40.3179 138.919 37.453 142.254C35.2553 144.813 35.6085 146.438 33.5521 147.513C31.3387 148.675 29.9338 147.325 27.4457 147.851C23.2858 148.738 22.391 153.541 19.636 156.163C17.5561 158.149 13.7101 159.538 6.1202 158.046C5.94753 157.787 5.86119 157.544 5.89259 157.309C6.09666 155.849 10.6961 156.908 14.1575 153.628Z" fill="url(#paint40_linear)"/>
<path d="M47.6406 88.5837C47.6406 88.5837 47.1462 92.5317 45.6941 93.4344C44.2342 94.337 41.8796 95.5222 41.6205 95.844C41.3615 96.1658 50.6468 97.1626 55.2462 94.8393C53.7314 94.5254 53.3154 94.4076 53.3154 94.4076C52.9073 94.2899 52.1381 94.078 51.3689 93.6384C50.843 93.3402 50.0032 92.7594 49.2261 91.6605L49.2418 89.4785L47.6406 88.5837Z" fill="url(#paint41_linear)"/>
<path d="M47.4215 89.9808C47.4215 89.9808 48.3712 91.2837 49.8625 90.7421C51.1968 90.2555 50.4041 86.8098 49.3445 86.4174C48.9913 86.2839 48.3398 86.3467 47.9081 86.6136C47.602 86.802 46.7936 87.8145 47.2567 88.9447C46.9192 88.8505 46.6209 88.9369 46.5503 89.1017C46.4561 89.3136 46.7386 89.604 46.8093 89.6668C47.0291 89.9023 47.2959 89.9651 47.4215 89.9808Z" fill="url(#paint42_linear)"/>
<path d="M15.4922 143.793C15.5393 146.124 16.4341 148.055 18.1922 149.578L98.3374 112.162L95.6374 106.377L15.4922 143.793Z" fill="url(#paint43_linear)"/>
<path d="M16.8109 148.055C16.3478 147.388 16.0025 146.666 15.7827 145.881L96.4852 108.198L97.5055 110.372L16.8109 148.055Z" fill="url(#paint44_linear)"/>
<path d="M95.6376 106.369C95.41 108.795 96.3048 110.733 98.3377 112.154L115.221 100.977C115.409 100.844 115.268 100.545 115.048 100.6L95.6376 106.369Z" fill="url(#paint45_linear)"/>
<path d="M115.22 100.977L108.659 105.325C108.062 104.588 107.678 103.764 107.497 102.845L115.048 100.6C115.268 100.545 115.409 100.844 115.22 100.977Z" fill="url(#paint46_linear)"/>
<path d="M79.539 120.678C79.539 120.678 82.0742 118.41 82.9768 117.052C83.8873 115.694 83.4321 118.637 82.9768 119.548C82.5216 120.45 79.2721 122.719 79.539 120.678Z" fill="url(#paint47_linear)"/>
<path d="M37.7123 96.9663C34.769 98.4262 25.4994 102.806 23.4823 115.443C21.4572 128.079 32.2416 134.649 32.2416 134.649L34.769 132.961C34.769 132.961 32.0768 113.253 41.676 107.696C51.2752 102.131 37.7123 96.9663 37.7123 96.9663Z" fill="url(#paint48_linear)"/>
<path d="M34.164 133.354C34.7605 133.464 35.0981 133.966 36.4481 133.291C37.7981 132.616 41.1653 133.456 41.1653 133.456C41.1653 133.456 39.4777 134.971 37.6254 134.633C35.7731 134.296 34.0541 135.214 33.5675 135.34C33.0809 135.473 32.9082 134.178 32.9082 134.178L34.164 133.354Z" fill="url(#paint49_linear)"/>
<defs>
<linearGradient id="paint0_linear" x1="69.5448" y1="85.5006" x2="39.2931" y2="96.2422" gradientUnits="userSpaceOnUse">
<stop stop-color="#311944"/>
<stop offset="1" stop-color="#893976"/>
</linearGradient>
<linearGradient id="paint1_linear" x1="102.74" y1="203.616" x2="104.423" y2="-11.443" gradientUnits="userSpaceOnUse">
<stop stop-color="#FF9085"/>
<stop offset="1" stop-color="#FB6FBB"/>
</linearGradient>
<linearGradient id="paint2_linear" x1="63.1593" y1="31.3818" x2="52.831" y2="153.29" gradientUnits="userSpaceOnUse">
<stop stop-color="#FF9085"/>
<stop offset="1" stop-color="#FB6FBB"/>
</linearGradient>
<linearGradient id="paint3_linear" x1="116.485" y1="37.8886" x2="106.648" y2="177.861" gradientUnits="userSpaceOnUse">
<stop stop-color="#FF9085"/>
<stop offset="1" stop-color="#FB6FBB"/>
</linearGradient>
<linearGradient id="paint4_linear" x1="45.7521" y1="95.1687" x2="136.308" y2="84.8786" gradientUnits="userSpaceOnUse">
<stop stop-color="#FF9085"/>
<stop offset="1" stop-color="#FB6FBB"/>
</linearGradient>
<linearGradient id="paint5_linear" x1="50.6451" y1="95.1256" x2="132.183" y2="85.8603" gradientUnits="userSpaceOnUse">
<stop offset="0.494" stop-color="#EBEFF2"/>
<stop offset="1" stop-color="white"/>
</linearGradient>
<linearGradient id="paint6_linear" x1="94.6336" y1="43.0803" x2="63.2882" y2="205.12" gradientUnits="userSpaceOnUse">
<stop offset="0.00359712" stop-color="#E38DDD"/>
<stop offset="1" stop-color="#9571F6"/>
</linearGradient>
<linearGradient id="paint7_linear" x1="112.548" y1="56.6964" x2="76.6986" y2="242.02" gradientUnits="userSpaceOnUse">
<stop stop-color="#AA80F9"/>
<stop offset="0.9964" stop-color="#6165D7"/>
</linearGradient>
<linearGradient id="paint8_linear" x1="178.248" y1="87.7114" x2="145.376" y2="80.9251" gradientUnits="userSpaceOnUse">
<stop stop-color="#FF9085"/>
<stop offset="1" stop-color="#FB6FBB"/>
</linearGradient>
<linearGradient id="paint9_linear" x1="179.225" y1="35.9054" x2="158.505" y2="93.4604" gradientUnits="userSpaceOnUse">
<stop stop-color="#FFC444"/>
<stop offset="0.9248" stop-color="#F47555"/>
<stop offset="0.9964" stop-color="#F36F56"/>
</linearGradient>
<linearGradient id="paint10_linear" x1="173.902" y1="36.6461" x2="177.798" y2="102.17" gradientUnits="userSpaceOnUse">
<stop stop-color="#FFC444"/>
<stop offset="0.9964" stop-color="#F36F56"/>
</linearGradient>
<linearGradient id="paint11_linear" x1="204.081" y1="60.2637" x2="148.949" y2="107.48" gradientUnits="userSpaceOnUse">
<stop offset="0.00359712" stop-color="#E38DDD"/>
<stop offset="1" stop-color="#9571F6"/>
</linearGradient>
<linearGradient id="paint12_linear" x1="175.341" y1="74.4649" x2="183.363" y2="79.7585" gradientUnits="userSpaceOnUse">
<stop offset="0.00359712" stop-color="#E38DDD"/>
<stop offset="1" stop-color="#9571F6"/>
</linearGradient>
<linearGradient id="paint13_linear" x1="187.533" y1="79.2949" x2="197.327" y2="85.7581" gradientUnits="userSpaceOnUse">
<stop offset="0.00359712" stop-color="#E38DDD"/>
<stop offset="1" stop-color="#9571F6"/>
</linearGradient>
<linearGradient id="paint14_linear" x1="140.418" y1="118.912" x2="174.154" y2="118.912" gradientUnits="userSpaceOnUse">
<stop stop-color="#444B8C"/>
<stop offset="0.9964" stop-color="#26264F"/>
</linearGradient>
<linearGradient id="paint15_linear" x1="175.309" y1="86.527" x2="164.152" y2="132.217" gradientUnits="userSpaceOnUse">
<stop stop-color="#444B8C"/>
<stop offset="0.9964" stop-color="#26264F"/>
</linearGradient>
<linearGradient id="paint16_linear" x1="138.973" y1="97.2221" x2="154.797" y2="97.2221" gradientUnits="userSpaceOnUse">
<stop stop-color="#444B8C"/>
<stop offset="0.9964" stop-color="#26264F"/>
</linearGradient>
<linearGradient id="paint17_linear" x1="158.509" y1="23.2424" x2="144.554" y2="72.0603" gradientUnits="userSpaceOnUse">
<stop offset="0.00359712" stop-color="#E38DDD"/>
<stop offset="1" stop-color="#9571F6"/>
</linearGradient>
<linearGradient id="paint18_linear" x1="155.214" y1="22.3008" x2="141.26" y2="71.1189" gradientUnits="userSpaceOnUse">
<stop offset="0.00359712" stop-color="#E38DDD"/>
<stop offset="1" stop-color="#9571F6"/>
</linearGradient>
<linearGradient id="paint19_linear" x1="163.939" y1="24.795" x2="149.985" y2="73.6129" gradientUnits="userSpaceOnUse">
<stop offset="0.00359712" stop-color="#E38DDD"/>
<stop offset="1" stop-color="#9571F6"/>
</linearGradient>
<linearGradient id="paint20_linear" x1="153.34" y1="49.9189" x2="151.48" y2="75.4203" gradientUnits="userSpaceOnUse">
<stop stop-color="#444B8C"/>
<stop offset="0.9964" stop-color="#26264F"/>
</linearGradient>
<linearGradient id="paint21_linear" x1="135.718" y1="153.584" x2="170.251" y2="274.184" gradientUnits="userSpaceOnUse">
<stop stop-color="#311944"/>
<stop offset="1" stop-color="#893976"/>
</linearGradient>
<linearGradient id="paint22_linear" x1="136.78" y1="152.345" x2="171.313" y2="272.945" gradientUnits="userSpaceOnUse">
<stop stop-color="#FFC444"/>
<stop offset="0.9964" stop-color="#F36F56"/>
</linearGradient>
<linearGradient id="paint23_linear" x1="132.809" y1="90.5617" x2="131.038" y2="143.335" gradientUnits="userSpaceOnUse">
<stop offset="0.00359712" stop-color="#E38DDD"/>
<stop offset="1" stop-color="#9571F6"/>
</linearGradient>
<linearGradient id="paint24_linear" x1="161.866" y1="79.637" x2="156.022" y2="125.327" gradientUnits="userSpaceOnUse">
<stop stop-color="#FFC444"/>
<stop offset="0.9964" stop-color="#F36F56"/>
</linearGradient>
<linearGradient id="paint25_linear" x1="196.253" y1="109.941" x2="149.501" y2="174.757" gradientUnits="userSpaceOnUse">
<stop stop-color="#FF9085"/>
<stop offset="1" stop-color="#FB6FBB"/>
</linearGradient>
<linearGradient id="paint26_linear" x1="167.791" y1="170.424" x2="188.488" y2="170.424" gradientUnits="userSpaceOnUse">
<stop stop-color="#AA80F9"/>
<stop offset="0.9964" stop-color="#6165D7"/>
</linearGradient>
<linearGradient id="paint27_linear" x1="154.484" y1="188.387" x2="158.203" y2="141.635" gradientUnits="userSpaceOnUse">
<stop offset="0.00359712" stop-color="#E38DDD"/>
<stop offset="1" stop-color="#9571F6"/>
</linearGradient>
<linearGradient id="paint28_linear" x1="118.083" y1="182.159" x2="119.146" y2="250.693" gradientUnits="userSpaceOnUse">
<stop stop-color="#AA80F9"/>
<stop offset="0.9964" stop-color="#6165D7"/>
</linearGradient>
<linearGradient id="paint29_linear" x1="50.5007" y1="194.517" x2="48.9734" y2="222.009" gradientUnits="userSpaceOnUse">
<stop stop-color="#444B8C"/>
<stop offset="0.9964" stop-color="#26264F"/>
</linearGradient>
<linearGradient id="paint30_linear" x1="47.6159" y1="208.065" x2="48.4273" y2="170.948" gradientUnits="userSpaceOnUse">
<stop stop-color="#FFC444"/>
<stop offset="0.9964" stop-color="#F36F56"/>
</linearGradient>
<linearGradient id="paint31_linear" x1="22.8575" y1="192.982" x2="21.3302" y2="220.472" gradientUnits="userSpaceOnUse">
<stop stop-color="#444B8C"/>
<stop offset="0.9964" stop-color="#26264F"/>
</linearGradient>
<linearGradient id="paint32_linear" x1="23.2784" y1="207.533" x2="24.0897" y2="170.416" gradientUnits="userSpaceOnUse">
<stop stop-color="#FFC444"/>
<stop offset="0.9964" stop-color="#F36F56"/>
</linearGradient>
<linearGradient id="paint33_linear" x1="59.4011" y1="183.941" x2="43.9859" y2="163.252" gradientUnits="userSpaceOnUse">
<stop stop-color="#311944"/>
<stop offset="1" stop-color="#6B3976"/>
</linearGradient>
<linearGradient id="paint34_linear" x1="47.9496" y1="186.508" x2="11.8455" y2="152.838" gradientUnits="userSpaceOnUse">
<stop stop-color="#311944"/>
<stop offset="1" stop-color="#6B3976"/>
</linearGradient>
<linearGradient id="paint35_linear" x1="78.3082" y1="112.656" x2="38.4403" y2="109.063" gradientUnits="userSpaceOnUse">
<stop stop-color="#FFC444"/>
<stop offset="0.9964" stop-color="#F36F56"/>
</linearGradient>
<linearGradient id="paint36_linear" x1="2.69364" y1="140.325" x2="38.0675" y2="109.751" gradientUnits="userSpaceOnUse">
<stop stop-color="#311944"/>
<stop offset="1" stop-color="#6B3976"/>
</linearGradient>
<linearGradient id="paint37_linear" x1="57.4348" y1="185.406" x2="42.0196" y2="164.717" gradientUnits="userSpaceOnUse">
<stop stop-color="#311944"/>
<stop offset="1" stop-color="#6B3976"/>
</linearGradient>
<linearGradient id="paint38_linear" x1="82.1689" y1="117.512" x2="53.4847" y2="113.536" gradientUnits="userSpaceOnUse">
<stop stop-color="#FFC444"/>
<stop offset="0.9964" stop-color="#F36F56"/>
</linearGradient>
<linearGradient id="paint39_linear" x1="76.5917" y1="131.698" x2="36.7239" y2="128.105" gradientUnits="userSpaceOnUse">
<stop stop-color="#FFC444"/>
<stop offset="0.9964" stop-color="#F36F56"/>
</linearGradient>
<linearGradient id="paint40_linear" x1="34.1538" y1="94.8175" x2="25.4183" y2="148.238" gradientUnits="userSpaceOnUse">
<stop stop-color="#FFC444"/>
<stop offset="0.9964" stop-color="#F36F56"/>
</linearGradient>
<linearGradient id="paint41_linear" x1="48.9305" y1="96.0792" x2="39.499" y2="82.3882" gradientUnits="userSpaceOnUse">
<stop stop-color="#FFC444"/>
<stop offset="0.9964" stop-color="#F36F56"/>
</linearGradient>
<linearGradient id="paint42_linear" x1="49.7861" y1="89.1347" x2="34.8781" y2="80.1595" gradientUnits="userSpaceOnUse">
<stop stop-color="#FFC444"/>
<stop offset="0.9964" stop-color="#F36F56"/>
</linearGradient>
<linearGradient id="paint43_linear" x1="60.0208" y1="129.972" x2="44.6999" y2="120.133" gradientUnits="userSpaceOnUse">
<stop stop-color="#AB316D"/>
<stop offset="1" stop-color="#792D3D"/>
</linearGradient>
<linearGradient id="paint44_linear" x1="54.0607" y1="119.574" x2="57.1573" y2="129.82" gradientUnits="userSpaceOnUse">
<stop stop-color="#AB316D"/>
<stop offset="1" stop-color="#792D3D"/>
</linearGradient>
<linearGradient id="paint45_linear" x1="114.408" y1="98.8983" x2="69.377" y2="125.694" gradientUnits="userSpaceOnUse">
<stop offset="0.494" stop-color="#EBEFF2"/>
<stop offset="1" stop-color="white"/>
</linearGradient>
<linearGradient id="paint46_linear" x1="119.27" y1="98.5388" x2="102.436" y2="106.882" gradientUnits="userSpaceOnUse">
<stop stop-color="#AB316D"/>
<stop offset="1" stop-color="#792D3D"/>
</linearGradient>
<linearGradient id="paint47_linear" x1="81.6937" y1="118.008" x2="76.9946" y2="146.745" gradientUnits="userSpaceOnUse">
<stop stop-color="#FFC444"/>
<stop offset="0.9964" stop-color="#F36F56"/>
</linearGradient>
<linearGradient id="paint48_linear" x1="33.6846" y1="130.609" x2="34.4707" y2="98.6026" gradientUnits="userSpaceOnUse">
<stop stop-color="#FFC444"/>
<stop offset="0.9964" stop-color="#F36F56"/>
</linearGradient>
<linearGradient id="paint49_linear" x1="38.1388" y1="133.032" x2="29.9688" y2="139.013" gradientUnits="userSpaceOnUse">
<stop stop-color="#FFC444"/>
<stop offset="0.9964" stop-color="#F36F56"/>
</linearGradient>
</defs>
</svg>
