<svg width="292" height="223" viewBox="0 0 292 223" fill="none" xmlns="http://www.w3.org/2000/svg">
<path d="M285.801 140.654C281.279 152.54 273.938 163.754 263.978 173.681C205.119 232.309 67.2832 233.248 29.1254 200.683C15.1827 188.789 10.6288 169.065 5.43015 140.654C4.95188 138.039 4.46321 135.343 3.96415 132.582C1.12571 116.801 0.709819 104.073 0.470683 95.3448C-0.361094 65.6541 -0.776982 50.8047 5.36777 40.7081C22.9495 11.7947 84.0227 0.540262 123.491 0.0220714C126.246 -0.0184122 129.022 -0.0022188 131.829 0.062555C178.055 1.13132 230.208 16.1184 262.377 48.1328C265.704 51.4362 268.802 54.9259 271.672 58.5937C291.915 84.5356 295.845 114.226 285.801 140.654Z" fill="#F4F7FA"/>
<path d="M285.598 140.594C281.08 152.489 273.747 163.711 263.797 173.645C204.998 232.316 67.3035 233.256 29.1847 200.667C15.2563 188.764 10.707 169.026 5.51367 140.594H285.598Z" fill="#EAEDF3"/>
<path d="M34.0811 21.1002V119.932L34.8044 120.461L146.137 118.838V20.9944L34.8044 20.4739L34.0811 21.1002ZM85.0803 106.725L44.5967 106.408V30.3456H85.0803V106.725ZM136.882 106.399L95.9401 106.664V30.3544H136.882V106.399Z" fill="#97A6B7"/>
<path d="M34.8047 20.4732V120.46L147.134 119.825V20.2527L34.8047 20.4732ZM85.9187 106.151L45.3468 105.86V29.7186L85.9187 29.6833V106.151ZM137.853 105.781L96.8137 106.081V29.6745L137.853 29.6392V105.781Z" fill="#D8DEE8"/>
<path d="M229.895 147.897H234.006H234.817V153.446L234.138 163.688C234.059 164.844 233.106 165.744 231.941 165.744C230.786 165.744 229.824 164.844 229.745 163.688L229.065 153.446V147.897H229.895Z" fill="url(#paint0_linear)"/>
<path d="M193.354 147.897H197.465H198.277V153.446L197.597 163.688C197.518 164.844 196.565 165.744 195.401 165.744C194.245 165.744 193.284 164.844 193.204 163.688L192.525 153.446V147.897H193.354Z" fill="url(#paint1_linear)"/>
<path d="M221.019 156.825H225.13H225.942V162.374L225.263 172.616C225.183 173.772 224.23 174.672 223.066 174.672C221.901 174.672 220.949 173.772 220.869 172.616L220.19 162.374V156.825H221.019Z" fill="url(#paint2_linear)"/>
<path d="M165.389 152.882H169.5H170.311V158.431L169.632 168.673C169.553 169.828 168.6 170.728 167.436 170.728C166.28 170.728 165.318 169.828 165.239 168.673L164.56 158.431V152.882H165.389Z" fill="url(#paint3_linear)"/>
<path d="M236.846 148.224L236.202 153.155L228.589 159.683L226.771 152.643L236.846 148.224Z" fill="url(#paint4_linear)"/>
<path d="M228.897 150.023L228.589 159.683C228.589 159.683 162.68 157.998 162.724 157.584C162.76 157.169 162.248 151.347 162.248 151.347L228.897 150.023Z" fill="url(#paint5_linear)"/>
<path d="M161.216 136.129C161.242 133.482 163.095 131.206 165.679 130.633L190.01 125.278C190.01 125.278 190.098 103.391 187.452 90.9873C186.676 87.3527 189.851 84.071 193.495 84.7767C195.489 85.1649 197.756 86.0735 200.138 87.8997C200.138 87.8997 219.828 82.7036 233.176 87.8997C233.176 87.8997 234.72 83.4093 241.354 84.0004C244.803 84.3092 247.079 87.7321 246.064 91.0403C242.756 101.856 235.972 126.892 237.931 144.889C238.248 147.827 236.978 150.72 234.631 152.52L230.441 155.731C229.241 156.649 227.759 157.116 226.251 157.046L165.724 154.187C163.104 154.064 161.048 151.885 161.074 149.265L161.216 136.129Z" fill="url(#paint6_linear)"/>
<path d="M233.759 86.8586L233.176 87.9084C233.176 87.8996 233.335 87.4497 233.759 86.8586Z" fill="url(#paint7_linear)"/>
<path opacity="0.6" d="M161.772 133.747C162.505 132.203 163.925 131.021 165.689 130.633L190.02 125.278C190.02 125.278 190.038 121.652 189.879 116.518C191.917 116.456 195.366 114.727 195.587 103.85C195.763 94.8248 194.819 88.5525 193.999 84.8826C195.869 85.3148 197.969 86.2235 200.156 87.8997C200.156 87.8997 219.847 82.7036 233.194 87.8997L228.228 136.279C228.219 136.279 197.325 128.03 161.772 133.747Z" fill="url(#paint8_linear)"/>
<path d="M234.914 134.956L236.758 116.483C236.758 116.483 235.258 114.26 229.894 114.312C224.531 114.357 223.481 117.241 223.401 136.288L229.083 137.117L234.914 134.956Z" fill="url(#paint9_linear)"/>
<path opacity="0.6" d="M236.757 116.483C236.757 116.483 240.269 95.0191 242.174 89.2231C243.003 86.7001 244.362 86.3736 245.632 86.8059C246.312 88.0498 246.523 89.5583 246.065 91.0404C242.756 101.856 235.972 126.893 237.931 144.889C238.248 147.827 236.978 150.72 234.631 152.52L231.605 154.831C231.888 142.992 232.567 118.688 233.467 116.659C234.667 113.96 236.757 116.483 236.757 116.483Z" fill="url(#paint10_linear)"/>
<path d="M194.149 127.051L193.866 120.047C193.866 120.047 193.513 118.679 189.191 117.506C185.785 116.58 175.94 114.621 171.909 113.836C170.797 113.615 169.65 113.545 168.521 113.642C168.247 113.66 167.965 113.686 167.718 113.695C166.386 113.774 165.354 114.895 165.38 116.236L165.68 130.633L171.194 131.647L194.149 127.051Z" fill="url(#paint11_linear)"/>
<path opacity="0.6" d="M171.008 128.11C173.178 125.49 170.523 120.541 172.949 118.838C174.219 117.947 175.71 118.776 180.007 119.861C183.279 120.682 190.946 122.596 191.881 120.99C192.101 120.62 192.084 119.826 190.478 117.912C193.575 118.979 193.857 120.055 193.857 120.055L194.139 127.06L171.185 131.656L165.671 130.642L165.653 129.636C168.617 129.804 170.179 129.107 171.008 128.11Z" fill="url(#paint12_linear)"/>
<path d="M49.1231 93.386C49.1231 93.386 47.4029 95.1328 48.1704 96.9853C48.6114 98.0528 49.1496 98.8468 49.4936 99.182C57.2657 106.584 61.1562 110.289 63.0088 110.915C69.1664 112.997 77.7854 112.424 82.8844 107.598C82.8844 107.598 84.887 105.71 90.1625 91.2952L87.4718 87.6694C80.8731 97.0383 75.624 98.9614 71.9365 98.8291C63.9968 98.5468 58.0332 88.5781 52.0608 90.9247C50.5787 91.4981 49.6436 92.6273 49.1231 93.386Z" fill="url(#paint13_linear)"/>
<path d="M139.812 94.3564L127.956 86.3902L117.661 55.7166C116.328 51.7555 112.112 49.7706 108.151 51.0939L86.3782 58.4072L84.3756 57.0487L71.3457 63.374C71.0017 63.5151 70.6664 63.6827 70.3224 63.7974H70.3136L70.243 63.8239C67.3141 65.8529 65.6468 69.364 66.7936 72.7957L78.9855 109.098C80.3176 113.059 84.8608 115.167 88.8219 113.835L102.011 109.407L125.115 101.652C125.909 101.387 126.615 100.964 127.241 100.488L127.232 100.47L139.812 94.3564Z" fill="url(#paint14_linear)"/>
<path d="M131.953 48.6679L144.144 84.97C145.477 88.931 143.245 93.1302 139.284 94.4535L102.982 106.636C99.0205 107.969 94.6096 105.993 93.2863 102.04L81.0945 65.7383C79.7623 61.7772 82.0472 57.4192 86.0082 56.096L122.31 43.9129C126.262 42.5808 130.62 44.7069 131.953 48.6679Z" fill="url(#paint15_linear)"/>
<path d="M111.493 57.9575L103.059 60.7893L103.006 61.8039L102.468 97.0914L109.905 94.5948L109.543 85.6935L121.408 81.706L126.49 89.0282L133.927 86.5316L111.493 57.9575ZM109.49 79.8093C109.402 75.6718 109.252 72.1078 109.164 69.5142C109.075 66.9735 108.978 65.1385 108.908 64.1152C109.208 64.6092 109.675 65.3679 110.257 66.1883C110.84 67.0176 113.38 70.511 117.977 76.951L109.49 79.8093Z" fill="white"/>
<path opacity="0.2" d="M93.277 102.049L81.0852 65.747C79.7531 61.786 82.0379 57.428 85.999 56.1047L92.8271 53.811C96.2941 55.7695 99.7876 58.4337 102.911 61.5566C105.195 63.8415 107.304 66.444 109.112 69.3905C110.744 72.0547 112.147 75.01 113.214 78.2741C113.823 80.1443 114.335 82.1204 114.714 84.2112C115.076 86.152 115.305 88.137 115.438 90.2807C115.685 94.2505 115.852 98.1586 116.161 102.225L102.972 106.654C99.0201 107.977 94.6091 106.001 93.277 102.049Z" fill="url(#paint16_linear)"/>
<path d="M70.296 203.554C70.8077 206.527 71.3194 209.491 71.8222 212.464C71.5929 212.799 71.0283 213.505 70.1461 213.593C69.158 213.699 68.364 212.975 68.0729 212.676C67.8259 208.556 67.129 205.653 66.3174 203.554H70.296Z" fill="url(#paint17_linear)"/>
<path d="M56.5604 127.236C60.6714 135.872 62.7975 148.408 65.6999 162.638C68.3112 175.421 69.6168 195.535 70.5166 204.418C69.6962 204.992 66.6615 206.853 66.3439 205.68C55.0784 164.305 48.5325 151.796 46.1418 149.308C44.6685 147.782 41.228 144.518 40.9545 139.93C40.9457 139.727 40.9457 139.533 40.9633 139.357C41.4574 133.014 53.6668 128.285 56.5604 127.236Z" fill="url(#paint18_linear)"/>
<path d="M52.8287 128.744C54.452 128.021 55.8105 127.509 56.5604 127.236C60.6714 135.872 62.7975 148.408 65.6998 162.638C68.3111 175.421 69.6168 195.535 70.5078 204.418C70.3225 204.551 70.0137 204.753 69.652 204.965C64.4824 186.042 65.6822 166.661 54.2402 148.929C50.1292 142.577 51.179 135.749 52.8287 128.744Z" fill="url(#paint19_linear)"/>
<path d="M7.54581 182.037C6.74302 181.702 5.7638 181.737 5.11098 182.496C3.8318 183.978 5.35799 187.119 6.01963 188.486C6.76949 190.039 8.2251 194.335 10.3335 193.435C11.2686 193.038 10.5541 190.206 10.0689 189.351C9.46016 188.274 9.32783 187.048 9.22197 185.795C9.17786 185.293 8.9926 184.604 8.79852 184.119C8.51622 183.396 8.3486 182.372 7.54581 182.037Z" fill="url(#paint20_linear)"/>
<path d="M6.91966 185.187C7.61659 186.404 9.98968 184.569 11.1983 184.093C12.4069 183.608 12.5921 184.058 12.054 183.069C11.5159 182.09 10.8013 181.129 9.48683 181.711C8.16354 182.293 6.22273 183.969 6.91966 185.187Z" fill="url(#paint21_linear)"/>
<path d="M51.5669 140.098C51.6374 140.213 52.0344 140.045 51.9286 140.813C51.2581 145.982 35.0611 177.185 32.1499 178.059C31.8147 178.156 15.3354 183.184 10.4834 185.557C8.10149 183.493 9.38066 181.614 10.007 180.829C11.7714 179.541 27.1567 170.825 28.1889 170.701C29.7592 165.258 28.9299 139.913 36.0668 137.328C37.496 136.799 49.2555 136.322 51.5669 140.098Z" fill="url(#paint22_linear)"/>
<path d="M56.9662 94.18C58.563 95.6357 59.3305 97.0736 60.3185 98.9439C61.8888 101.908 62.7798 103.602 62.9827 105.825C63.3797 110.095 60.989 113.553 59.8157 115.017C58.1307 124.818 57.7514 127.112 57.7514 127.139L57.7602 127.2C57.9984 128.268 58.4395 129.944 59.2599 131.894C61.4125 136.975 63.5738 137.69 63.3092 139.657C62.8416 143.106 55.59 145.462 49.847 145.612C46.8034 145.691 46.4417 145.091 43.8481 144.985C32.9178 144.527 29.2567 154.663 21.9522 153.154C16.7561 152.087 15.918 146.344 9.31926 146.062C7.01675 145.964 4.55545 146.547 4.22904 145.717C3.91145 144.906 5.83462 143.291 7.51078 142.356C11.1277 140.336 14.7888 140.848 16.3768 140.883C23.5137 141.06 29.6625 132.846 33.3501 127.924C43.7775 113.994 41.1662 96.8884 40.5487 93.3332C41.4397 92.6892 44.7038 90.5102 52.67 91.56C53.3493 91.7981 55.1577 92.5304 56.9662 94.18Z" fill="url(#paint23_linear)"/>
<path d="M29.8296 141.192C36.3754 136.428 45.9031 137.619 50.0758 132.264C53.5075 128.515 55.9688 123.954 58.9771 119.94C58.0067 125.621 57.7509 127.112 57.7597 127.13L57.7685 127.192C58.0067 128.259 58.4478 129.935 59.2682 131.885C61.4207 136.966 63.5821 137.681 63.3175 139.648C62.8499 143.097 55.5983 145.453 49.8553 145.603C46.8117 145.682 46.45 145.082 43.8564 144.976C32.9261 144.518 29.265 154.654 21.9605 153.145C16.7644 152.078 15.9263 146.335 9.32756 146.053C7.02505 145.956 4.56375 146.538 4.23734 145.709C3.91975 144.897 5.84292 143.283 7.51908 142.348C9.29227 141.359 11.0655 140.98 12.6093 140.848C18.4053 143.988 24.113 145.638 29.8296 141.192Z" fill="url(#paint24_linear)"/>
<path d="M74.9536 104.519C74.9536 104.519 78.7647 101.493 80.9878 101.687C83.2021 101.89 84.3224 106.389 81.8788 106.981C79.4351 107.572 75.1124 107.201 75.1124 107.201L74.9536 104.519Z" fill="url(#paint25_linear)"/>
<path d="M38.2285 93.3068C38.2285 93.3068 35.9612 94.2331 35.9348 96.2445C35.9171 97.4001 36.1024 98.3441 36.2876 98.7851C40.5133 108.657 42.6217 113.588 44.0774 114.894C48.9117 119.234 57.0543 122.11 63.6443 119.693C63.6443 119.693 66.2291 118.749 76.7712 107.581L75.7303 103.187C65.9733 109.195 60.389 108.886 57.0543 107.307C49.8733 103.911 48.3295 92.4069 41.916 92.1952C40.3104 92.1511 39.0048 92.8127 38.2285 93.3068Z" fill="url(#paint26_linear)"/>
<path d="M56.0393 84.9084C56.3216 84.8731 56.7803 84.7672 57.2567 84.4761C58.1565 83.9027 58.4653 83.0205 58.5623 82.7029C58.8093 81.9442 58.7211 81.3267 58.5976 80.4004C58.4829 79.5976 58.43 79.2006 58.1389 78.8036C57.6801 78.1684 57.2567 78.3625 56.4804 77.7273C55.457 76.8804 55.6776 76.1129 54.9012 75.8571C54.3631 75.6807 54.2043 76.0335 53.0575 75.9806C52.3253 75.9453 52.3253 75.7954 51.7518 75.7954C50.9314 75.7865 50.7109 76.0953 49.5728 76.4217C48.0819 76.8452 47.7908 76.5099 47.3938 76.9157C46.7498 77.5862 47.4115 78.5919 46.7057 79.28C46.2382 79.7387 45.8059 79.4211 45.3383 79.9063C44.8619 80.3915 45.1795 80.8238 44.7737 82.006C44.412 83.0558 44.0327 83.091 44.0239 83.7703C44.015 84.1497 44.1386 84.2114 44.6767 85.5171C45.2413 86.8756 45.1531 86.8933 45.3913 87.202C45.9294 87.8813 46.2911 87.6696 47.1645 88.4459C48.0025 89.1958 47.9849 89.6722 48.5054 89.7516C49.0876 89.8398 49.2552 89.2664 50.1286 89.187C50.8873 89.1164 51.1255 89.531 51.6195 89.3722C52.2547 89.1693 52.4135 88.3136 52.6781 87.6872C53.0398 86.8315 53.8779 85.7729 56.0393 84.9084Z" fill="#26264F"/>
<path d="M50.473 84.4143C51.2228 86.5316 51.1787 88.5429 49.8996 90.0868C48.7704 91.4542 47.1383 91.2777 47.0942 91.9217C46.9972 93.1921 54.3634 95.0182 54.7781 94.0654C54.981 93.5979 52.652 92.9009 52.4844 91.313C52.4138 90.6514 52.652 90.1573 54.037 87.5902L54.6281 87.7137L50.473 84.4143Z" fill="url(#paint27_linear)"/>
<path d="M51.4173 87.6605C51.4173 87.6605 51.5937 89.7601 53.6757 89.8042C56.234 89.8572 56.6222 83.0996 56.0047 82.7026C55.2901 82.2439 54.6373 83.329 52.9699 82.9232C52.2642 82.7555 51.6643 81.8292 51.2938 82.8085C50.8703 83.92 51.1879 85.8961 51.1879 85.8961C51.1879 85.8961 50.588 85.3845 50.4822 85.9843C50.341 86.7871 50.9321 87.29 51.4173 87.6605Z" fill="url(#paint28_linear)"/>
<path d="M77.6096 209.676C77.3097 209.173 75.0513 209.244 73.8691 209.773C71.893 210.673 70.6403 212.446 70.1375 212.658C68.9818 213.152 67.9761 212.578 67.8791 212.596C67.8791 212.596 67.0233 214.034 68.2937 214.854C69.564 215.675 79.4887 212.773 77.6096 209.676Z" fill="#444B8C"/>
<path d="M179.839 169.696L164.365 160.601C164.207 160.504 163.995 160.407 163.836 160.318H163.81L163.801 160.38C162.663 159.763 161.331 159.489 159.91 159.516L136.709 160.019L120.441 160.371C116.021 160.468 112.475 163.794 112.475 167.923V205.769C112.475 208.442 113.86 210.744 116.154 211.979L132.783 221.181L141.181 211.882L145.231 211.688L160.051 211C164.277 210.797 167.956 207.374 167.956 203.36V182.973L179.839 169.696Z" fill="url(#paint29_linear)"/>
<path d="M183.245 175.792V212.332C183.245 216.32 179.945 219.804 175.781 220.016L136.524 222.045C132.175 222.274 128.364 219.054 128.364 214.961V177.424C128.364 173.331 132.148 169.775 136.498 169.661L175.675 168.637C179.839 168.523 183.245 171.805 183.245 175.792Z" fill="url(#paint30_linear)"/>
<path d="M159.496 206.174C153.647 206.439 150.709 202.857 150.709 195.438C150.709 191.874 151.477 189.06 153.012 187.013C154.37 185.196 156.223 184.155 158.57 183.873C158.87 183.837 159.178 183.811 159.496 183.802C160.766 183.758 162.054 183.934 163.378 184.331C164.692 184.728 165.989 185.196 167.286 185.734L169.65 179.973C166.262 178.527 162.875 177.856 159.496 177.962C158.428 177.997 157.396 178.103 156.408 178.271C154.335 178.632 152.447 179.312 150.762 180.309C148.266 181.782 146.351 183.837 145.01 186.502C143.669 189.157 142.999 192.227 142.999 195.703C142.999 201.216 144.366 205.389 147.084 208.212C149.801 211.026 153.709 212.314 158.799 212.067C160.396 211.988 162.187 211.794 163.642 211.494C165.398 211.132 166.456 210.629 168.856 209.906V204.039C166.456 204.719 165.301 205.195 163.836 205.557C162.345 205.91 160.722 206.121 159.496 206.174Z" fill="white"/>
<path opacity="0.2" d="M128.372 214.961V177.424C128.372 173.331 132.157 169.775 136.506 169.661L152.782 169.237C153.929 172.396 155.182 175.236 156.355 178.2C157.096 180.071 157.846 181.976 158.543 183.838C161.181 190.983 163.307 198.173 163.571 205.539C163.651 207.507 163.598 209.492 163.386 211.485C163.095 214.211 162.522 217.017 161.586 219.822C161.489 220.122 161.384 220.254 161.269 220.775L136.506 222.054C132.148 222.274 128.372 219.054 128.372 214.961Z" fill="url(#paint31_linear)"/>
<path d="M198.065 115.353L184.02 113.077C183.385 112.927 182.626 112.91 181.947 112.91H155.737H140.855C136.276 112.91 132.897 116.077 132.897 120.364V159.657C132.897 163.397 135.376 166.855 139.179 167.173H139.17V167.147C139.346 167.173 139.514 167.182 139.69 167.208L155.199 169.334L157.158 166.891L157.563 166.873L182.071 166.247C186.455 166.132 190.275 162.568 190.275 158.395V125.454L198.065 115.353Z" fill="url(#paint32_linear)"/>
<path d="M196.124 115.089L155.446 115.133C150.929 115.142 146.924 118.494 146.924 122.755V161.774C146.924 166.035 150.938 169.379 155.455 169.255L196.045 168.17C200.367 168.055 203.993 164.606 203.993 160.46V122.482C203.993 118.344 200.447 115.08 196.124 115.089Z" fill="url(#paint33_linear)"/>
<path d="M187.99 143.601C186.984 142.287 185.591 141.396 183.103 140.946V140.716C185.282 140.416 186.076 139.614 187.081 138.29C188.087 136.958 188.572 135.273 188.572 133.227C188.572 130.21 187.408 128.066 185.105 126.698C182.794 125.322 179.239 124.696 174.087 124.731L162.83 124.793V159.754L176.354 159.445C180.456 159.357 183.606 158.237 185.979 156.437C188.352 154.637 189.516 152.088 189.516 148.965C189.516 146.751 188.996 144.916 187.99 143.601ZM170.311 130.377L174.387 130.342C176.592 130.324 178.18 130.739 179.203 131.303C180.218 131.868 180.721 132.874 180.721 134.197C180.721 135.609 180.253 136.658 179.318 137.285C178.383 137.902 176.901 138.264 174.81 138.29L170.311 138.343V130.377ZM180.015 151.717C179.009 152.502 177.474 152.802 175.357 152.838L170.311 152.935V143.98L175.101 143.91C179.406 143.848 181.532 145.268 181.532 148.127C181.541 149.715 181.021 150.932 180.015 151.717Z" fill="white"/>
<path opacity="0.2" d="M146.925 161.775V122.756C146.925 118.495 150.939 115.143 155.456 115.134L170.215 115.116C169.359 117.772 168.6 121.468 167.939 124.706C166.377 132.266 165.565 139.888 166.377 147.616C166.783 151.542 167.665 155.415 168.803 159.287C169.747 162.481 170.876 165.533 172.085 168.815L155.456 169.256C150.939 169.38 146.925 166.036 146.925 161.775Z" fill="url(#paint34_linear)"/>
<path d="M212.391 216.311C212.391 216.311 214.782 216.999 216.608 217.758C218.434 218.516 218.363 217.343 218.09 215.949C217.817 214.555 215.293 215.367 215.293 215.367C215.293 215.367 211.244 215.014 212.391 216.311Z" fill="url(#paint35_linear)"/>
<path d="M221.963 177.115C221.857 180.847 221.399 184.041 220.843 186.643C220.252 189.448 219.908 189.934 219.722 191.866C219.317 196.083 220.675 196.691 220.931 201.455C221.204 206.722 219.811 210.903 219.255 212.5C218.77 213.894 218.267 215.023 217.887 215.808C217.561 216.091 217.129 216.108 216.635 216.046C216.202 215.985 215.867 215.623 215.841 215.191C215.558 210.683 215.223 206.404 214.95 201.87C214.023 194.689 213.097 187.499 212.18 180.318C215.444 179.25 218.708 178.183 221.963 177.115Z" fill="url(#paint36_linear)"/>
<path opacity="0.2" d="M215.841 215.147C215.558 210.656 215.232 206.386 214.959 201.87C214.032 194.689 213.106 187.499 212.188 180.318C215.444 179.25 218.708 178.183 221.963 177.115C221.954 177.362 221.945 177.601 221.937 177.839C217.367 181.809 216.467 184.958 216.511 187.102C216.564 189.704 217.984 190.992 217.711 194.768C217.508 197.468 216.705 197.944 216.705 200.379C216.705 203.511 218.055 205.275 218.708 207.083C219.343 208.83 219.564 211.318 218.346 214.838C218.187 215.2 218.037 215.526 217.896 215.808C217.579 216.082 217.155 216.108 216.688 216.055C216.22 215.993 215.876 215.605 215.841 215.147Z" fill="url(#paint37_linear)"/>
<path d="M205.643 217.705C205.643 217.705 208.033 218.393 209.859 219.152C211.686 219.91 211.615 218.737 211.341 217.343C211.068 215.949 208.545 216.761 208.545 216.761C208.545 216.761 204.496 216.408 205.643 217.705Z" fill="url(#paint38_linear)"/>
<path d="M215.214 178.509C215.108 182.241 214.65 185.434 214.094 188.037C213.503 190.842 213.159 191.327 212.973 193.259C212.568 197.476 213.926 198.085 214.182 202.849C214.455 208.116 213.062 212.297 212.506 213.894C212.021 215.288 211.518 216.417 211.138 217.202C210.812 217.484 210.38 217.502 209.886 217.44C209.453 217.378 209.118 217.017 209.092 216.585C208.809 212.077 208.474 207.798 208.201 203.263C207.274 196.082 206.348 188.893 205.431 181.712C208.695 180.644 211.95 179.577 215.214 178.509Z" fill="url(#paint39_linear)"/>
<path opacity="0.2" d="M209.092 216.54C208.809 212.05 208.483 207.78 208.21 203.263C207.283 196.082 206.357 188.893 205.439 181.712C208.695 180.644 211.959 179.577 215.214 178.509C215.205 178.756 215.196 178.994 215.188 179.233C210.618 183.203 209.718 186.352 209.762 188.496C209.815 191.098 211.235 192.386 210.962 196.162C210.759 198.861 209.956 199.338 209.956 201.773C209.956 204.904 211.306 206.669 211.959 208.477C212.594 210.224 212.815 212.712 211.597 216.232C211.438 216.593 211.288 216.92 211.147 217.202C210.83 217.476 210.406 217.502 209.939 217.449C209.471 217.396 209.127 217.008 209.092 216.54Z" fill="url(#paint40_linear)"/>
<path d="M209.622 147.924C205.793 148.568 202.873 149.256 201.611 151.435C200.279 153.738 202.502 155.537 203.199 160.663C204.267 168.505 200.209 171.346 201.55 179.25C201.77 180.538 202.079 181.694 202.414 182.673C203.005 184.402 204.108 185.876 205.537 186.872C206.605 187.622 207.91 188.381 209.428 188.99C213.353 190.569 215.268 189.74 220.517 190.181C229.109 190.904 230.45 193.657 234.297 192.06C238.187 190.445 240.931 185.929 240.066 183.961C239.546 182.779 237.993 183.476 235.708 181.994C232.929 180.185 233.132 178.104 230.812 175.342C227.433 171.32 224.592 173.199 221.69 169.652C219.652 167.164 219.396 164.2 218.938 159.039C218.452 153.543 219.255 149.521 217.067 148.312C216.538 148.021 215.912 147.871 215.153 147.889C212.171 147.968 209.939 147.871 209.622 147.924Z" fill="url(#paint41_linear)"/>
<path d="M209.86 145.33L208.201 149.115C208.201 149.115 210.654 150.35 212.903 149.115V145.33H209.86Z" fill="url(#paint42_linear)"/>
<path opacity="0.3" d="M233.784 189.078C232.576 188.187 233.176 185.743 231.394 184.402C229.735 183.159 228.491 184.711 226.065 183.855C222.96 182.753 223.057 179.497 220.075 178.404C217.931 177.61 217.323 179.083 214.253 179.083C211.191 179.083 207.142 177.61 204.531 174.001C203.419 172.466 202.784 170.843 202.431 169.344C201.664 172.228 200.835 175.007 201.549 179.25C201.84 180.971 202.299 182.435 202.749 183.6C203.172 184.685 203.86 185.62 204.743 186.299C205.942 187.225 207.504 188.231 209.427 188.999C213.353 190.578 215.267 189.749 220.516 190.19C229.109 190.904 230.45 193.665 234.296 192.069C236.784 191.037 238.795 188.822 239.704 186.846C236.36 189.457 234.666 189.722 233.784 189.078Z" fill="url(#paint43_linear)"/>
<path d="M209.525 137.832C209.525 137.832 207.54 141.554 207.416 144.157C207.293 146.768 210.239 146.574 210.239 146.574L213.9 146.442C213.892 146.451 215.206 138.317 209.525 137.832Z" fill="url(#paint44_linear)"/>
<path d="M210.495 144.369C209.878 146.459 210.874 148.488 211.73 150.226C213.389 153.605 217.72 157.795 222.061 157.319C226.904 156.781 227.46 150.897 231.923 150.694C235.673 150.517 236.449 154.611 241.328 155.625C247.512 156.913 253.149 151.779 253.819 151.153C258.089 147.147 260.859 140.24 258.601 134.197C258.371 133.579 256.104 127.722 251.817 127.104C248.2 126.584 246.859 130.333 241.178 130.801C237.464 131.109 236.811 129.618 234.244 130.492C230.15 131.886 230.6 136.085 227.31 136.967C223.896 137.884 222.378 133.65 216.053 133.112C215.18 133.041 210.08 132.609 208.651 135.273C208.078 136.341 208.007 138.087 208.722 139.349C209.463 140.655 210.663 140.769 210.963 142.057C211.166 142.948 210.742 143.539 210.495 144.369Z" fill="url(#paint45_linear)"/>
<path d="M184.902 153.887C190.76 158.148 192.277 157.046 194.227 156.172C195.797 155.466 196.935 153.931 201.575 150.914C202.405 150.376 203.11 149.944 203.587 149.653C205.625 152.89 208.289 153.596 210.327 156.834C210.327 156.834 192.798 172.228 183.834 156.066L184.902 153.887Z" fill="url(#paint46_linear)"/>
<path d="M184.814 154.364C184.814 154.364 184.876 153.129 184.152 152.317C183.429 151.505 181.321 152.643 181.135 153.34C180.941 154.046 184.152 155.705 184.152 155.705L184.814 154.364Z" fill="url(#paint47_linear)"/>
<defs>
<linearGradient id="paint0_linear" x1="231.769" y1="147.272" x2="233.082" y2="171.841" gradientUnits="userSpaceOnUse">
<stop stop-color="#311944"/>
<stop offset="1" stop-color="#A03976"/>
</linearGradient>
<linearGradient id="paint1_linear" x1="195.332" y1="149.219" x2="196.645" y2="173.788" gradientUnits="userSpaceOnUse">
<stop stop-color="#311944"/>
<stop offset="1" stop-color="#A03976"/>
</linearGradient>
<linearGradient id="paint2_linear" x1="222.443" y1="147.77" x2="223.756" y2="172.34" gradientUnits="userSpaceOnUse">
<stop stop-color="#311944"/>
<stop offset="1" stop-color="#A03976"/>
</linearGradient>
<linearGradient id="paint3_linear" x1="167.179" y1="150.723" x2="168.492" y2="175.293" gradientUnits="userSpaceOnUse">
<stop stop-color="#311944"/>
<stop offset="1" stop-color="#A03976"/>
</linearGradient>
<linearGradient id="paint4_linear" x1="232.249" y1="168.201" x2="231.874" y2="153.01" gradientUnits="userSpaceOnUse">
<stop stop-color="#311944"/>
<stop offset="1" stop-color="#A03976"/>
</linearGradient>
<linearGradient id="paint5_linear" x1="194.816" y1="144.486" x2="197.816" y2="172.618" gradientUnits="userSpaceOnUse">
<stop stop-color="#311944"/>
<stop offset="1" stop-color="#A03976"/>
</linearGradient>
<linearGradient id="paint6_linear" x1="236.257" y1="115.17" x2="158.985" y2="131.675" gradientUnits="userSpaceOnUse">
<stop offset="0.00359712" stop-color="#E38DDD"/>
<stop offset="1" stop-color="#9571F6"/>
</linearGradient>
<linearGradient id="paint7_linear" x1="233.759" y1="87.3789" x2="233.181" y2="87.3789" gradientUnits="userSpaceOnUse">
<stop offset="0.00359712" stop-color="#E38DDD"/>
<stop offset="1" stop-color="#9571F6"/>
</linearGradient>
<linearGradient id="paint8_linear" x1="233.181" y1="110.582" x2="161.769" y2="110.582" gradientUnits="userSpaceOnUse">
<stop offset="0.00359712" stop-color="#E38DDD"/>
<stop offset="1" stop-color="#9571F6"/>
</linearGradient>
<linearGradient id="paint9_linear" x1="238.093" y1="123.765" x2="160.821" y2="140.27" gradientUnits="userSpaceOnUse">
<stop offset="0.00359712" stop-color="#E38DDD"/>
<stop offset="1" stop-color="#9571F6"/>
</linearGradient>
<linearGradient id="paint10_linear" x1="246.309" y1="120.738" x2="231.606" y2="120.738" gradientUnits="userSpaceOnUse">
<stop offset="0.00359712" stop-color="#E38DDD"/>
<stop offset="1" stop-color="#9571F6"/>
</linearGradient>
<linearGradient id="paint11_linear" x1="172.612" y1="108.896" x2="189.117" y2="146.782" gradientUnits="userSpaceOnUse">
<stop offset="0.00359712" stop-color="#E38DDD"/>
<stop offset="1" stop-color="#9571F6"/>
</linearGradient>
<linearGradient id="paint12_linear" x1="175.16" y1="116.9" x2="184.912" y2="134.718" gradientUnits="userSpaceOnUse">
<stop offset="0.00359712" stop-color="#E38DDD"/>
<stop offset="1" stop-color="#9571F6"/>
</linearGradient>
<linearGradient id="paint13_linear" x1="59.8409" y1="91.6924" x2="86.9012" y2="105.054" gradientUnits="userSpaceOnUse">
<stop stop-color="#AA80F9"/>
<stop offset="0.9964" stop-color="#6165D7"/>
</linearGradient>
<linearGradient id="paint14_linear" x1="72.6142" y1="90.1337" x2="131.726" y2="70.2863" gradientUnits="userSpaceOnUse">
<stop stop-color="#AB316D"/>
<stop offset="1" stop-color="#792D3D"/>
</linearGradient>
<linearGradient id="paint15_linear" x1="85.1683" y1="42.4615" x2="182.18" y2="158.68" gradientUnits="userSpaceOnUse">
<stop stop-color="#FF9085"/>
<stop offset="1" stop-color="#FB6FBB"/>
</linearGradient>
<linearGradient id="paint16_linear" x1="87.164" y1="83.8323" x2="112.262" y2="75.4056" gradientUnits="userSpaceOnUse">
<stop stop-color="#FF9085"/>
<stop offset="1" stop-color="#FB6FBB"/>
</linearGradient>
<linearGradient id="paint17_linear" x1="70.7692" y1="214.737" x2="66.4743" y2="196.802" gradientUnits="userSpaceOnUse">
<stop stop-color="#FFC045"/>
<stop offset="1" stop-color="#F78552"/>
</linearGradient>
<linearGradient id="paint18_linear" x1="69.5042" y1="191.283" x2="34.0089" y2="93.095" gradientUnits="userSpaceOnUse">
<stop stop-color="#444B8C"/>
<stop offset="0.9964" stop-color="#3E4177"/>
</linearGradient>
<linearGradient id="paint19_linear" x1="59.7643" y1="158.923" x2="76.1291" y2="260.799" gradientUnits="userSpaceOnUse">
<stop stop-color="#444B8C"/>
<stop offset="0.9964" stop-color="#3E4177"/>
</linearGradient>
<linearGradient id="paint20_linear" x1="10.1839" y1="187.429" x2="5.11731" y2="188.102" gradientUnits="userSpaceOnUse">
<stop stop-color="#40447E"/>
<stop offset="0.9964" stop-color="#3C3B6B"/>
</linearGradient>
<linearGradient id="paint21_linear" x1="12.2639" y1="183.128" x2="6.65969" y2="183.872" gradientUnits="userSpaceOnUse">
<stop stop-color="#FDB149"/>
<stop offset="1" stop-color="#FFBE46"/>
</linearGradient>
<linearGradient id="paint22_linear" x1="52.3827" y1="160.671" x2="8.63189" y2="161.62" gradientUnits="userSpaceOnUse">
<stop stop-color="#40447E"/>
<stop offset="0.9964" stop-color="#3C3B6B"/>
</linearGradient>
<linearGradient id="paint23_linear" x1="52.8669" y1="116.26" x2="-8.48046" y2="167.606" gradientUnits="userSpaceOnUse">
<stop stop-color="#AA80F9"/>
<stop offset="0.9964" stop-color="#6165D7"/>
</linearGradient>
<linearGradient id="paint24_linear" x1="69.2182" y1="120.32" x2="14.1197" y2="155.234" gradientUnits="userSpaceOnUse">
<stop stop-color="#AA80F9"/>
<stop offset="0.9964" stop-color="#6165D7"/>
</linearGradient>
<linearGradient id="paint25_linear" x1="73.3601" y1="98.5434" x2="76.8303" y2="102.609" gradientUnits="userSpaceOnUse">
<stop stop-color="#FDB049"/>
<stop offset="1" stop-color="#F78552"/>
</linearGradient>
<linearGradient id="paint26_linear" x1="48.7418" y1="95.9851" x2="68.334" y2="118.941" gradientUnits="userSpaceOnUse">
<stop stop-color="#AA80F9"/>
<stop offset="0.9964" stop-color="#6165D7"/>
</linearGradient>
<linearGradient id="paint27_linear" x1="49.3796" y1="104.115" x2="51.7311" y2="87.2815" gradientUnits="userSpaceOnUse">
<stop stop-color="#FDB149"/>
<stop offset="1" stop-color="#FFC245"/>
</linearGradient>
<linearGradient id="paint28_linear" x1="51.132" y1="91.3208" x2="54.951" y2="81.5243" gradientUnits="userSpaceOnUse">
<stop stop-color="#FDB049"/>
<stop offset="1" stop-color="#FFBF46"/>
</linearGradient>
<linearGradient id="paint29_linear" x1="198.858" y1="56.4977" x2="139.637" y2="186.861" gradientUnits="userSpaceOnUse">
<stop stop-color="#FFC444"/>
<stop offset="0.9964" stop-color="#F36F56"/>
</linearGradient>
<linearGradient id="paint30_linear" x1="147.767" y1="179.305" x2="216.816" y2="316.881" gradientUnits="userSpaceOnUse">
<stop stop-color="#FFC444"/>
<stop offset="0.9964" stop-color="#F36F56"/>
</linearGradient>
<linearGradient id="paint31_linear" x1="128.369" y1="195.646" x2="163.602" y2="195.646" gradientUnits="userSpaceOnUse">
<stop stop-color="#FFC444"/>
<stop offset="0.9964" stop-color="#F36F56"/>
</linearGradient>
<linearGradient id="paint32_linear" x1="179.984" y1="119.101" x2="68.4814" y2="241.638" gradientUnits="userSpaceOnUse">
<stop stop-color="#444B8C"/>
<stop offset="0.9964" stop-color="#26264F"/>
</linearGradient>
<linearGradient id="paint33_linear" x1="152.672" y1="80.2378" x2="254.463" y2="356.527" gradientUnits="userSpaceOnUse">
<stop stop-color="#AA80F9"/>
<stop offset="0.9964" stop-color="#6165D7"/>
</linearGradient>
<linearGradient id="paint34_linear" x1="146.926" y1="142.187" x2="172.083" y2="142.187" gradientUnits="userSpaceOnUse">
<stop stop-color="#AA80F9"/>
<stop offset="0.9964" stop-color="#6165D7"/>
</linearGradient>
<linearGradient id="paint35_linear" x1="215.294" y1="221.633" x2="214.848" y2="193.402" gradientUnits="userSpaceOnUse">
<stop stop-color="#311944"/>
<stop offset="1" stop-color="#893976"/>
</linearGradient>
<linearGradient id="paint36_linear" x1="217.269" y1="181.142" x2="220.261" y2="218.644" gradientUnits="userSpaceOnUse">
<stop stop-color="#444B8C"/>
<stop offset="0.9964" stop-color="#26264F"/>
</linearGradient>
<linearGradient id="paint37_linear" x1="217.269" y1="181.142" x2="220.261" y2="218.644" gradientUnits="userSpaceOnUse">
<stop stop-color="#444B8C"/>
<stop offset="0.9964" stop-color="#26264F"/>
</linearGradient>
<linearGradient id="paint38_linear" x1="208.544" y1="223.029" x2="208.098" y2="194.797" gradientUnits="userSpaceOnUse">
<stop stop-color="#311944"/>
<stop offset="1" stop-color="#893976"/>
</linearGradient>
<linearGradient id="paint39_linear" x1="210.518" y1="182.537" x2="213.51" y2="220.039" gradientUnits="userSpaceOnUse">
<stop stop-color="#444B8C"/>
<stop offset="0.9964" stop-color="#26264F"/>
</linearGradient>
<linearGradient id="paint40_linear" x1="210.518" y1="182.537" x2="213.51" y2="220.039" gradientUnits="userSpaceOnUse">
<stop stop-color="#444B8C"/>
<stop offset="0.9964" stop-color="#26264F"/>
</linearGradient>
<linearGradient id="paint41_linear" x1="-96.7143" y1="-283.408" x2="-192.032" y2="-402.849" gradientUnits="userSpaceOnUse">
<stop stop-color="#FF9085"/>
<stop offset="1" stop-color="#FB6FBB"/>
</linearGradient>
<linearGradient id="paint42_linear" x1="211.969" y1="146.265" x2="209.146" y2="150.831" gradientUnits="userSpaceOnUse">
<stop stop-color="#FFC444"/>
<stop offset="0.9964" stop-color="#F36F56"/>
</linearGradient>
<linearGradient id="paint43_linear" x1="197.965" y1="153.136" x2="226.168" y2="186.426" gradientUnits="userSpaceOnUse">
<stop stop-color="#FF9085"/>
<stop offset="1" stop-color="#FB6FBB"/>
</linearGradient>
<linearGradient id="paint44_linear" x1="209.045" y1="140.759" x2="214.072" y2="148.286" gradientUnits="userSpaceOnUse">
<stop stop-color="#FFC444"/>
<stop offset="0.9964" stop-color="#F36F56"/>
</linearGradient>
<linearGradient id="paint45_linear" x1="224.312" y1="159.488" x2="241.782" y2="122.159" gradientUnits="userSpaceOnUse">
<stop stop-color="#444B8C"/>
<stop offset="0.9964" stop-color="#26264F"/>
</linearGradient>
<linearGradient id="paint46_linear" x1="-730.3" y1="-354.711" x2="-849.015" y2="-420.109" gradientUnits="userSpaceOnUse">
<stop stop-color="#FF9085"/>
<stop offset="1" stop-color="#FB6FBB"/>
</linearGradient>
<linearGradient id="paint47_linear" x1="182.768" y1="152.37" x2="183.615" y2="157.936" gradientUnits="userSpaceOnUse">
<stop stop-color="#FFC444"/>
<stop offset="0.9964" stop-color="#F36F56"/>
</linearGradient>
</defs>
</svg>
