<svg width="52" height="52" viewBox="0 0 52 52" fill="none" xmlns="http://www.w3.org/2000/svg">
<path d="M16.8076 3.80761L16.2336 2.42179L16.2336 2.42179L16.8076 3.80761ZM35.1924 3.80761L35.7664 2.42179L35.7664 2.42179L35.1924 3.80761ZM3.80761 16.8076L5.19342 17.3816L3.80761 16.8076ZM3.80761 35.1924L5.19342 34.6184L5.19342 34.6184L3.80761 35.1924ZM35.1924 48.1924L34.6184 46.8066L34.6184 46.8066L35.1924 48.1924ZM48.1924 35.1924L49.5782 35.7664L49.5782 35.7664L48.1924 35.1924ZM48.1924 16.8076L49.5782 16.2336L49.5782 16.2336L48.1924 16.8076ZM20.8293 13.5167L21.4033 14.9025L21.4033 14.9025L20.8293 13.5167ZM31.1707 13.5167L31.7447 12.1309L31.7447 12.1309L31.1707 13.5167ZM13.5168 31.1706L12.1309 31.7447L12.1309 31.7447L13.5168 31.1706ZM20.8293 38.4831L20.2552 39.869L20.2552 39.869L20.8293 38.4831ZM31.1707 38.4831L31.7447 39.869L31.7447 39.869L31.1707 38.4831ZM38.4832 31.1706L39.869 31.7447L39.869 31.7447L38.4832 31.1706ZM38.4832 20.8292L39.869 20.2552L39.869 20.2552L38.4832 20.8292ZM17.3816 5.19342C22.8999 2.90769 29.1001 2.90769 34.6184 5.19342L35.7664 2.42179C29.5131 -0.168427 22.4869 -0.168428 16.2336 2.42179L17.3816 5.19342ZM5.19342 17.3816C7.47916 11.8634 11.8634 7.47916 17.3816 5.19342L16.2336 2.42179C9.98025 5.012 5.012 9.98025 2.42179 16.2336L5.19342 17.3816ZM5.19342 34.6184C2.90769 29.1001 2.90769 22.8999 5.19342 17.3816L2.42179 16.2336C-0.168427 22.4869 -0.168428 29.5131 2.42179 35.7664L5.19342 34.6184ZM17.3816 46.8066C11.8634 44.5208 7.47916 40.1366 5.19342 34.6184L2.42179 35.7664C5.012 42.0197 9.98025 46.988 16.2336 49.5782L17.3816 46.8066ZM34.6184 46.8066C29.1001 49.0923 22.8999 49.0923 17.3816 46.8066L16.2336 49.5782C22.4869 52.1684 29.5131 52.1684 35.7664 49.5782L34.6184 46.8066ZM46.8066 34.6184C44.5208 40.1366 40.1366 44.5208 34.6184 46.8066L35.7664 49.5782C42.0197 46.988 46.988 42.0197 49.5782 35.7664L46.8066 34.6184ZM46.8066 17.3816C49.0923 22.8999 49.0923 29.1001 46.8066 34.6184L49.5782 35.7664C52.1684 29.5131 52.1684 22.4869 49.5782 16.2336L46.8066 17.3816ZM34.6184 5.19342C40.1366 7.47916 44.5208 11.8634 46.8066 17.3816L49.5782 16.2336C46.988 9.98025 42.0197 5.012 35.7664 2.42179L34.6184 5.19342ZM21.4033 14.9025C24.3465 13.6834 27.6535 13.6834 30.5967 14.9025L31.7447 12.1309C28.0664 10.6073 23.9335 10.6073 20.2552 12.1309L21.4033 14.9025ZM14.9026 21.4032C16.1217 18.46 18.4601 16.1216 21.4033 14.9025L20.2552 12.1309C16.5769 13.6545 13.6545 16.5769 12.1309 20.2552L14.9026 21.4032ZM14.9026 30.5966C13.6835 27.6534 13.6835 24.3464 14.9026 21.4032L12.1309 20.2552C10.6073 23.9335 10.6073 28.0664 12.1309 31.7447L14.9026 30.5966ZM21.4033 37.0973C18.4601 35.8782 16.1217 33.5398 14.9026 30.5966L12.1309 31.7447C13.6545 35.423 16.5769 38.3454 20.2552 39.869L21.4033 37.0973ZM30.5967 37.0973C27.6535 38.3164 24.3465 38.3164 21.4033 37.0973L20.2552 39.869C23.9335 41.3926 28.0664 41.3926 31.7447 39.869L30.5967 37.0973ZM37.0974 30.5966C35.8783 33.5398 33.5399 35.8782 30.5967 37.0973L31.7447 39.869C35.423 38.3454 38.3454 35.423 39.869 31.7447L37.0974 30.5966ZM37.0974 21.4032C38.3165 24.3464 38.3165 27.6534 37.0974 30.5966L39.869 31.7447C41.3926 28.0664 41.3926 23.9335 39.869 20.2552L37.0974 21.4032ZM30.5967 14.9025C33.5399 16.1216 35.8783 18.46 37.0974 21.4032L39.869 20.2552C38.3454 16.5769 35.423 13.6545 31.7447 12.1309L30.5967 14.9025Z" fill="#736DE8"/>
<path d="M2.74263 19.9916L2.7405 18.4916C2.05738 18.4925 1.4612 18.955 1.29032 19.6164L2.74263 19.9916ZM2.74263 32.0085L1.29032 32.3837C1.4612 33.0452 2.05738 33.5076 2.7405 33.5085L2.74263 32.0085ZM13.9055 19.9758L15.2482 20.6445C15.4799 20.1792 15.4542 19.627 15.1803 19.1853C14.9064 18.7435 14.4232 18.475 13.9034 18.4758L13.9055 19.9758ZM13.5168 20.8293L14.9026 21.4033L14.9026 21.4033L13.5168 20.8293ZM13.5168 31.1707L12.1309 31.7447L12.1309 31.7447L13.5168 31.1707ZM13.9056 32.0243L13.9034 33.5243C14.4233 33.5251 14.9064 33.2566 15.1804 32.8148C15.4543 32.3731 15.48 31.8209 15.2483 31.3556L13.9056 32.0243ZM19.9915 49.2574L18.4915 49.2595C18.4925 49.9427 18.9549 50.5388 19.6163 50.7097L19.9915 49.2574ZM32.0085 49.2574L32.3837 50.7097C33.0451 50.5388 33.5075 49.9427 33.5085 49.2595L32.0085 49.2574ZM19.9757 38.0944L20.6444 36.7518C20.1791 36.52 19.627 36.5457 19.1852 36.8196C18.7434 37.0936 18.475 37.5767 18.4757 38.0966L19.9757 38.0944ZM20.8293 38.4832L20.2552 39.869L20.2552 39.869L20.8293 38.4832ZM31.1707 38.4832L31.7447 39.869L31.7447 39.869L31.1707 38.4832ZM32.0243 38.0944L33.5243 38.0966C33.525 37.5767 33.2566 37.0936 32.8148 36.8196C32.373 36.5457 31.8209 36.52 31.3556 36.7517L32.0243 38.0944ZM49.2574 32.0085L49.2595 33.5085C49.9426 33.5076 50.5388 33.0452 50.7097 32.3838L49.2574 32.0085ZM49.2574 19.9916L50.7097 19.6164C50.5388 18.955 49.9426 18.4925 49.2595 18.4916L49.2574 19.9916ZM38.0944 32.0243L36.7517 31.3556C36.52 31.8209 36.5456 32.3731 36.8196 32.8148C37.0935 33.2566 37.5767 33.5251 38.0965 33.5243L38.0944 32.0243ZM38.4832 31.1707L39.869 31.7447L39.869 31.7447L38.4832 31.1707ZM38.4832 20.8293L39.869 20.2552L39.869 20.2552L38.4832 20.8293ZM38.0945 19.9758L38.0966 18.4758C37.5768 18.475 37.0936 18.7435 36.8197 19.1853C36.5457 19.627 36.52 20.1792 36.7518 20.6445L38.0945 19.9758ZM32.0085 2.74269L33.5085 2.74056C33.5075 2.05744 33.0451 1.46126 32.3837 1.29038L32.0085 2.74269ZM19.9915 2.74269L19.6163 1.29038C18.9549 1.46126 18.4925 2.05745 18.4915 2.74057L19.9915 2.74269ZM19.9757 13.9055L18.4757 13.9034C18.475 14.4232 18.7434 14.9064 19.1852 15.1803C19.627 15.4543 20.1791 15.48 20.6444 15.2482L19.9757 13.9055ZM20.8293 13.5168L20.2552 12.1309L20.2552 12.1309L20.8293 13.5168ZM31.1707 13.5168L31.7447 12.1309L31.7447 12.1309L31.1707 13.5168ZM32.0243 13.9055L31.3556 15.2482C31.8209 15.48 32.373 15.4543 32.8148 15.1803C33.2566 14.9064 33.525 14.4232 33.5243 13.9034L32.0243 13.9055ZM1.29032 19.6164C0.208729 23.8027 0.208728 28.1974 1.29032 32.3837L4.19494 31.6333C3.24052 27.9392 3.24052 24.0609 4.19494 20.3668L1.29032 19.6164ZM2.74476 21.4916L13.9076 21.4758L13.9034 18.4758L2.7405 18.4916L2.74476 21.4916ZM12.5628 19.307C12.4084 19.617 12.2643 19.9333 12.1309 20.2552L14.9026 21.4033C15.0093 21.1456 15.1246 20.8925 15.2482 20.6445L12.5628 19.307ZM12.1309 20.2552C10.6073 23.9335 10.6073 28.0664 12.1309 31.7447L14.9026 30.5967C13.6835 27.6535 13.6835 24.3465 14.9026 21.4033L12.1309 20.2552ZM12.1309 31.7447C12.2643 32.0668 12.4085 32.383 12.5629 32.6931L15.2483 31.3556C15.1247 31.1075 15.0094 30.8544 14.9026 30.5967L12.1309 31.7447ZM13.9077 30.5244L2.74475 30.5085L2.7405 33.5085L13.9034 33.5243L13.9077 30.5244ZM19.6163 50.7097C23.8026 51.7913 28.1974 51.7913 32.3837 50.7097L31.6332 47.8051C27.9391 48.7595 24.0609 48.7595 20.3667 47.8051L19.6163 50.7097ZM21.4915 49.2553L21.4757 38.0923L18.4757 38.0966L18.4915 49.2595L21.4915 49.2553ZM19.307 39.4371C19.617 39.5915 19.9332 39.7356 20.2552 39.869L21.4033 37.0974C21.1456 36.9906 20.8925 36.8753 20.6444 36.7518L19.307 39.4371ZM20.2552 39.869C23.9335 41.3926 28.0664 41.3926 31.7447 39.869L30.5967 37.0974C27.6535 38.3165 24.3465 38.3165 21.4033 37.0974L20.2552 39.869ZM31.7447 39.869C32.0667 39.7356 32.383 39.5915 32.693 39.4371L31.3556 36.7517C31.1075 36.8753 30.8544 36.9906 30.5967 37.0974L31.7447 39.869ZM30.5243 38.0923L30.5085 49.2553L33.5085 49.2595L33.5243 38.0966L30.5243 38.0923ZM50.7097 32.3838C51.7913 28.1974 51.7913 23.8027 50.7097 19.6164L47.805 20.3668C48.7595 24.0609 48.7595 27.9392 47.805 31.6333L50.7097 32.3838ZM49.2552 30.5085L38.0923 30.5244L38.0965 33.5243L49.2595 33.5085L49.2552 30.5085ZM39.4371 32.6931C39.5915 32.383 39.7356 32.0668 39.869 31.7447L37.0974 30.5967C36.9906 30.8544 36.8753 31.1075 36.7517 31.3556L39.4371 32.6931ZM39.869 31.7447C41.3926 28.0664 41.3926 23.9335 39.869 20.2552L37.0974 21.4033C38.3165 24.3465 38.3165 27.6535 37.0974 30.5967L39.869 31.7447ZM39.869 20.2552C39.7357 19.9333 39.5916 19.617 39.4372 19.307L36.7518 20.6445C36.8753 20.8925 36.9906 21.1456 37.0974 21.4033L39.869 20.2552ZM38.0923 21.4758L49.2552 21.4916L49.2595 18.4916L38.0966 18.4758L38.0923 21.4758ZM32.3837 1.29038C28.1974 0.208789 23.8026 0.20879 19.6163 1.29038L20.3667 4.195C24.0609 3.24058 27.9391 3.24058 31.6332 4.195L32.3837 1.29038ZM21.4757 13.9077L21.4915 2.74482L18.4915 2.74057L18.4757 13.9034L21.4757 13.9077ZM20.2552 12.1309C19.9332 12.2643 19.617 12.4084 19.307 12.5628L20.6444 15.2482C20.8925 15.1247 21.1456 15.0093 21.4033 14.9026L20.2552 12.1309ZM31.7447 12.1309C28.0664 10.6073 23.9335 10.6073 20.2552 12.1309L21.4033 14.9026C24.3465 13.6835 27.6535 13.6835 30.5967 14.9026L31.7447 12.1309ZM32.693 12.5629C32.383 12.4084 32.0667 12.2643 31.7447 12.1309L30.5967 14.9026C30.8544 15.0093 31.1075 15.1247 31.3556 15.2482L32.693 12.5629ZM30.5085 2.74482L30.5243 13.9077L33.5243 13.9034L33.5085 2.74056L30.5085 2.74482Z" fill="#736DE8"/>
</svg>
