<svg width="62" height="48" viewBox="0 0 62 48" fill="none" xmlns="http://www.w3.org/2000/svg">
<path d="M34.939 18.9713L36.0743 17.9908L36.0743 17.9908L34.939 18.9713ZM26.9326 18.9713L25.7974 17.9908L25.7974 17.9908L26.9326 18.9713ZM26.8361 19.0831L27.9713 20.0635L27.9713 20.0635L26.8361 19.0831ZM25.7443 21.0222L27.1713 21.4843V21.4843L25.7443 21.0222ZM21.3821 34.4916L22.8091 34.9538L22.8091 34.9538L21.3821 34.4916ZM27.0156 34.8921H28.5156C28.5156 34.0637 27.8441 33.3921 27.0156 33.3921V34.8921ZM35.0852 34.8921V33.3921C34.2568 33.3921 33.5852 34.0637 33.5852 34.8921H35.0852ZM40.1983 34.8921V33.3921V34.8921ZM40.4896 34.4916L41.9166 34.0294L41.9166 34.0294L40.4896 34.4916ZM36.1273 21.0222L37.5543 20.56V20.56L36.1273 21.0222ZM35.0356 19.0831L33.9003 20.0635L33.9003 20.0635L35.0356 19.0831ZM30.9358 18.6391C32.0371 18.6391 33.0839 19.1182 33.8038 19.9517L36.0743 17.9908C34.7845 16.4975 32.909 15.6391 30.9358 15.6391V18.6391ZM28.0679 19.9517C28.7877 19.1182 29.8345 18.6391 30.9358 18.6391V15.6391C28.9627 15.6391 27.0871 16.4975 25.7974 17.9908L28.0679 19.9517ZM27.9713 20.0635L28.0679 19.9517L25.7974 17.9908L25.7008 18.1026L27.9713 20.0635ZM27.1713 21.4843C27.3405 20.9621 27.6125 20.479 27.9713 20.0635L25.7008 18.1026C25.0803 18.8212 24.6098 19.6568 24.3173 20.56L27.1713 21.4843ZM22.8091 34.9538L27.1713 21.4843L24.3173 20.56L19.955 34.0294L22.8091 34.9538ZM21.6734 33.3921C22.4839 33.3921 23.0588 34.1826 22.8091 34.9538L19.955 34.0294C19.5772 35.1961 20.447 36.3921 21.6734 36.3921V33.3921ZM27.0156 33.3921H21.6734V36.3921H27.0156V33.3921ZM28.5156 44.1895V34.8921H25.5156V44.1895H28.5156ZM29.0156 44.6895C28.7395 44.6895 28.5156 44.4657 28.5156 44.1895H25.5156C25.5156 46.1225 27.0826 47.6895 29.0156 47.6895L29.0156 44.6895ZM33.0852 44.6895H29.0156L29.0156 47.6895H33.0852L33.0852 44.6895ZM33.5852 44.1895C33.5852 44.4657 33.3613 44.6895 33.0852 44.6895L33.0852 47.6895C35.0182 47.6895 36.5852 46.1225 36.5852 44.1895H33.5852ZM33.5852 34.8921V44.1895H36.5852V34.8921H33.5852ZM40.1983 33.3921H35.0852V36.3921H40.1983V33.3921ZM39.0625 34.9538C38.8128 34.1826 39.3877 33.3921 40.1983 33.3921V36.3921C41.4246 36.3921 42.2944 35.1961 41.9166 34.0294L39.0625 34.9538ZM34.7003 21.4843L39.0625 34.9538L41.9166 34.0294L37.5543 20.56L34.7003 21.4843ZM33.9003 20.0635C34.2592 20.479 34.5312 20.9621 34.7003 21.4843L37.5543 20.56C37.2618 19.6568 36.7914 18.8212 36.1708 18.1026L33.9003 20.0635ZM33.8038 19.9517L33.9003 20.0635L36.1708 18.1026L36.0743 17.9908L33.8038 19.9517Z" fill="#736DE8"/>
<path d="M28.5268 12.696C30.1215 13.464 31.9792 13.464 33.574 12.696V12.696C35.1688 11.928 36.327 10.4756 36.7209 8.74992V8.74992C37.1148 7.02425 36.7014 5.21312 35.5978 3.82924V3.82924C34.4942 2.44535 32.8204 1.63933 31.0504 1.63933V1.63933C29.2803 1.63933 27.6066 2.44535 26.503 3.82924V3.82924C25.3994 5.21312 24.986 7.02425 25.3799 8.74992V8.74992C25.7737 10.4756 26.932 11.928 28.5268 12.696V12.696Z" stroke="#736DE8" stroke-width="3" stroke-linecap="square" stroke-linejoin="round"/>
<path d="M56.0769 21.9062L57.2121 20.9258L57.2121 20.9258L56.0769 21.9062ZM50.3581 21.9062L49.2228 20.9258V20.9258L50.3581 21.9062ZM50.2891 21.9861L51.4243 22.9665L50.2891 21.9861ZM49.5093 23.3712L50.9363 23.8333V23.8333L49.5093 23.3712ZM46.3934 32.9922L47.8204 33.4543L47.8204 33.4543L46.3934 32.9922ZM50.4174 33.2783H51.9174C51.9174 32.4498 51.2458 31.7783 50.4174 31.7783V33.2783ZM56.1813 33.2783V31.7783C55.3529 31.7783 54.6813 32.4498 54.6813 33.2783H56.1813ZM60.0416 32.9922L61.4686 32.53L61.4686 32.53L60.0416 32.9922ZM56.9257 23.3712L55.4987 23.8333L55.4987 23.8333L56.9257 23.3712ZM56.1459 21.9861L55.0106 22.9665L55.0106 22.9665L56.1459 21.9861ZM53.2175 22.0975C53.8796 22.0975 54.5089 22.3856 54.9417 22.8867L57.2121 20.9258C56.2095 19.7649 54.7514 19.0975 53.2175 19.0975V22.0975ZM51.4933 22.8867C51.926 22.3856 52.5554 22.0975 53.2175 22.0975V19.0975C51.6835 19.0975 50.2254 19.7649 49.2228 20.9258L51.4933 22.8867ZM51.4243 22.9665L51.4933 22.8867L49.2228 20.9258L49.1538 21.0057L51.4243 22.9665ZM50.9363 23.8333C51.0395 23.5147 51.2054 23.22 51.4243 22.9665L49.1538 21.0057C48.6732 21.5622 48.3088 22.2094 48.0822 22.909L50.9363 23.8333ZM47.8204 33.4543L50.9363 23.8333L48.0822 22.909L44.9663 32.53L47.8204 33.4543ZM46.6014 31.7783C47.4714 31.7783 48.0884 32.6267 47.8204 33.4543L44.9663 32.53C44.6068 33.6402 45.4345 34.7783 46.6014 34.7783V31.7783ZM50.4174 31.7783H46.6014V34.7783H50.4174V31.7783ZM51.9174 39.9193V33.2783H48.9174V39.9193H51.9174ZM51.8459 39.8478C51.8854 39.8478 51.9174 39.8798 51.9174 39.9193H48.9174C48.9174 41.5367 50.2285 42.8478 51.8459 42.8478V39.8478ZM54.7528 39.8478H51.8459V42.8478H54.7528V39.8478ZM54.6813 39.9193C54.6813 39.8798 54.7133 39.8478 54.7528 39.8478V42.8478C56.3702 42.8478 57.6813 41.5367 57.6813 39.9193H54.6813ZM54.6813 33.2783V39.9193H57.6813V33.2783H54.6813ZM59.8335 31.7783H56.1813V34.7783H59.8335V31.7783ZM58.6146 33.4543C58.3465 32.6267 58.9636 31.7783 59.8335 31.7783V34.7783C61.0005 34.7783 61.8282 33.6402 61.4686 32.53L58.6146 33.4543ZM55.4987 23.8333L58.6146 33.4543L61.4686 32.53L58.3527 22.909L55.4987 23.8333ZM55.0106 22.9665C55.2295 23.22 55.3955 23.5147 55.4987 23.8333L58.3527 22.909C58.1261 22.2094 57.7618 21.5622 57.2811 21.0057L55.0106 22.9665ZM54.9417 22.8866L55.0106 22.9665L57.2811 21.0057L57.2121 20.9258L54.9417 22.8866Z" fill="#736DE8"/>
<path d="M51.4967 17.4239C52.6358 17.9724 53.9628 17.9724 55.1019 17.4239V17.4239C56.241 16.8753 57.0683 15.8378 57.3497 14.6052V14.6052C57.631 13.3726 57.3357 12.0789 56.5474 11.0904V11.0904C55.7591 10.102 54.5636 9.52622 53.2993 9.52622V9.52622C52.035 9.52622 50.8394 10.102 50.0511 11.0904V11.0904C49.2629 12.0789 48.9676 13.3726 49.2489 14.6052V14.6052C49.5303 15.8378 50.3576 16.8753 51.4967 17.4239V17.4239Z" stroke="#736DE8" stroke-width="3" stroke-linecap="square" stroke-linejoin="round"/>
<path d="M11.6943 21.9062L12.8296 20.9258L12.8296 20.9258L11.6943 21.9062ZM5.97549 21.9062L4.84025 20.9258V20.9258L5.97549 21.9062ZM5.90652 21.9861L7.04175 22.9665L5.90652 21.9861ZM5.1267 23.3712L6.55373 23.8333V23.8333L5.1267 23.3712ZM2.0108 32.9922L3.43783 33.4543L3.43783 33.4543L2.0108 32.9922ZM6.03479 33.2783H7.53479C7.53479 32.4498 6.86322 31.7783 6.03479 31.7783V33.2783ZM11.7988 33.2783V31.7783C10.9703 31.7783 10.2988 32.4498 10.2988 33.2783H11.7988ZM15.659 32.9922L17.0861 32.53L17.0861 32.53L15.659 32.9922ZM12.5431 23.3712L11.1161 23.8333L11.1161 23.8333L12.5431 23.3712ZM11.7633 21.9861L10.6281 22.9665L10.6281 22.9665L11.7633 21.9861ZM8.83491 22.0975C9.497 22.0975 10.1263 22.3856 10.5591 22.8867L12.8296 20.9258C11.8269 19.7649 10.3689 19.0975 8.83491 19.0975V22.0975ZM7.11072 22.8867C7.54348 22.3856 8.17282 22.0975 8.83491 22.0975V19.0975C7.30095 19.0975 5.84288 19.7649 4.84025 20.9258L7.11072 22.8867ZM7.04175 22.9665L7.11072 22.8867L4.84025 20.9258L4.77128 21.0057L7.04175 22.9665ZM6.55373 23.8333C6.65691 23.5147 6.82285 23.22 7.04175 22.9665L4.77128 21.0057C4.29062 21.5622 3.92625 22.2094 3.69967 22.909L6.55373 23.8333ZM3.43783 33.4543L6.55373 23.8333L3.69967 22.909L0.583774 32.53L3.43783 33.4543ZM2.21887 31.7783C3.08882 31.7783 3.70587 32.6267 3.43783 33.4543L0.583774 32.53C0.224226 33.6402 1.05193 34.7783 2.21887 34.7783L2.21887 31.7783ZM6.03479 31.7783H2.21887L2.21887 34.7783H6.03479L6.03479 31.7783ZM7.53479 39.9193L7.53479 33.2783H4.53479L4.53479 39.9193H7.53479ZM7.46336 39.8478C7.50281 39.8478 7.53479 39.8798 7.53479 39.9193H4.53479C4.53479 41.5367 5.84595 42.8478 7.46336 42.8478L7.46336 39.8478ZM10.3702 39.8478H7.46336L7.46336 42.8478H10.3702V39.8478ZM10.2988 39.9193C10.2988 39.8798 10.3307 39.8478 10.3702 39.8478V42.8478C11.9876 42.8478 13.2988 41.5367 13.2988 39.9193H10.2988ZM10.2988 33.2783L10.2988 39.9193H13.2988L13.2988 33.2783H10.2988ZM15.451 31.7783H11.7988V34.7783H15.451V31.7783ZM14.232 33.4543C13.964 32.6267 14.581 31.7783 15.451 31.7783V34.7783C16.6179 34.7783 17.4456 33.6402 17.0861 32.53L14.232 33.4543ZM11.1161 23.8333L14.232 33.4543L17.0861 32.53L13.9702 22.909L11.1161 23.8333ZM10.6281 22.9665C10.847 23.22 11.0129 23.5147 11.1161 23.8333L13.9702 22.909C13.7436 22.2094 13.3792 21.5622 12.8985 21.0057L10.6281 22.9665ZM10.5591 22.8866L10.6281 22.9665L12.8985 21.0057L12.8296 20.9258L10.5591 22.8866Z" fill="#736DE8"/>
<path d="M7.11414 17.4239C8.25326 17.9724 9.58018 17.9724 10.7193 17.4239V17.4239C11.8584 16.8753 12.6857 15.8378 12.9671 14.6052V14.6052C13.2484 13.3726 12.9532 12.0789 12.1649 11.0904V11.0904C11.3766 10.102 10.181 9.52622 8.91672 9.52622V9.52622C7.6524 9.52622 6.45687 10.102 5.66858 11.0904V11.0904C4.88029 12.0789 4.58502 13.3726 4.86636 14.6052V14.6052C5.14769 15.8378 5.97502 16.8753 7.11414 17.4239V17.4239Z" stroke="#736DE8" stroke-width="3" stroke-linecap="square" stroke-linejoin="round"/>
</svg>
