<svg width="50" height="50" viewBox="0 0 50 50" fill="none" xmlns="http://www.w3.org/2000/svg">
<g clip-path="url(#clip0)">
<path d="M39.5833 0H10.4167C7.65501 0.00330804 5.00741 1.10184 3.05462 3.05462C1.10184 5.00741 0.00330804 7.65501 0 10.4167L0 39.5833C0.00330804 42.345 1.10184 44.9926 3.05462 46.9454C5.00741 48.8982 7.65501 49.9967 10.4167 50H39.5833C42.345 49.9967 44.9926 48.8982 46.9454 46.9454C48.8982 44.9926 49.9967 42.345 50 39.5833V10.4167C49.9967 7.65501 48.8982 5.00741 46.9454 3.05462C44.9926 1.10184 42.345 0.00330804 39.5833 0V0ZM10.4167 4.16667H39.5833C41.2409 4.16667 42.8306 4.82515 44.0028 5.99725C45.1749 7.16935 45.8333 8.75906 45.8333 10.4167V39.5833C45.8297 40.5114 45.6161 41.4267 45.2083 42.2604L26.1187 23.1708C25.1514 22.2033 24.003 21.4357 22.739 20.9121C21.475 20.3884 20.1203 20.1189 18.7521 20.1189C17.3839 20.1189 16.0292 20.3884 14.7652 20.9121C13.5012 21.4357 12.3527 22.2033 11.3854 23.1708L4.16667 30.3875V10.4167C4.16667 8.75906 4.82515 7.16935 5.99725 5.99725C7.16935 4.82515 8.75906 4.16667 10.4167 4.16667ZM10.4167 45.8333C8.75906 45.8333 7.16935 45.1749 5.99725 44.0028C4.82515 42.8306 4.16667 41.2409 4.16667 39.5833V36.2792L14.3292 26.1167C14.9096 25.5359 15.5988 25.0751 16.3573 24.7608C17.1158 24.4465 17.9289 24.2847 18.75 24.2847C19.5711 24.2847 20.3842 24.4465 21.1427 24.7608C21.9012 25.0751 22.5904 25.5359 23.1708 26.1167L42.2604 45.2083C41.4267 45.6161 40.5114 45.8297 39.5833 45.8333H10.4167Z" fill="#F2994A"/>
<path d="M33.3332 21.8753C34.7753 21.8753 36.1851 21.4477 37.3842 20.6465C38.5833 19.8452 39.5179 18.7064 40.0698 17.3741C40.6217 16.0417 40.7661 14.5756 40.4847 13.1611C40.2034 11.7467 39.5089 10.4474 38.4892 9.42768C37.4694 8.40792 36.1701 7.71345 34.7557 7.4321C33.3413 7.15075 31.8751 7.29515 30.5428 7.84704C29.2104 8.39893 28.0716 9.33352 27.2704 10.5326C26.4692 11.7317 26.0415 13.1415 26.0415 14.5837C26.0415 16.5175 26.8097 18.3722 28.1772 19.7396C29.5446 21.1071 31.3993 21.8753 33.3332 21.8753ZM33.3332 11.4587C33.9512 11.4587 34.5554 11.6419 35.0693 11.9853C35.5832 12.3287 35.9838 12.8168 36.2203 13.3878C36.4568 13.9588 36.5187 14.5871 36.3981 15.1933C36.2775 15.7995 35.9799 16.3563 35.5429 16.7934C35.1058 17.2304 34.549 17.528 33.9428 17.6486C33.3366 17.7692 32.7083 17.7073 32.1373 17.4708C31.5663 17.2343 31.0782 16.8337 30.7348 16.3198C30.3914 15.8059 30.2082 15.2017 30.2082 14.5837C30.2082 13.7549 30.5374 12.96 31.1235 12.374C31.7095 11.7879 32.5044 11.4587 33.3332 11.4587Z" fill="#F2994A"/>
</g>
<defs>
<clipPath id="clip0">
<rect width="50" height="50" fill="white"/>
</clipPath>
</defs>
</svg>
