<svg width="30" height="50" viewBox="0 0 30 50" fill="none" xmlns="http://www.w3.org/2000/svg">
<path d="M18.6083 8.33333C20.303 8.33499 21.9278 9.00892 23.1261 10.2072C24.3244 11.4055 24.9983 13.0303 25 14.725C25 15.2775 25.2195 15.8074 25.6102 16.1981C26.0009 16.5888 26.5308 16.8083 27.0833 16.8083C27.6359 16.8083 28.1658 16.5888 28.5565 16.1981C28.9472 15.8074 29.1667 15.2775 29.1667 14.725V14.5833C29.1667 14.5437 29.1667 14.5083 29.1667 14.4688C29.0971 11.714 27.9545 9.09538 25.9822 7.17095C24.0099 5.24652 21.3639 4.16851 18.6083 4.16667H16.6667V2.08333C16.6667 1.5308 16.4472 1.0009 16.0565 0.610194C15.6658 0.219493 15.1359 0 14.5833 0C14.0308 0 13.5009 0.219493 13.1102 0.610194C12.7195 1.0009 12.5 1.5308 12.5 2.08333V4.16667H10.5583C8.05275 4.16934 5.62977 5.06299 3.72249 6.68787C1.81521 8.31275 0.547936 10.563 0.147194 13.0363C-0.253549 15.5096 0.238356 18.0449 1.53498 20.1889C2.83161 22.3329 4.84845 23.9459 7.225 24.7396L12.5 26.5V41.6667H10.5583C8.86367 41.665 7.23888 40.9911 6.04057 39.7928C4.84226 38.5945 4.16832 36.9697 4.16667 35.275C4.16667 34.7225 3.94717 34.1926 3.55647 33.8019C3.16577 33.4112 2.63587 33.1917 2.08333 33.1917C1.5308 33.1917 1.0009 33.4112 0.610195 33.8019C0.219494 34.1926 0 34.7225 0 35.275V35.4167C0 35.4562 0 35.4917 0 35.5312C0.0695278 38.286 1.21221 40.9046 3.18451 42.8291C5.15681 44.7535 7.80273 45.8315 10.5583 45.8333H12.5V47.9167C12.5 48.4692 12.7195 48.9991 13.1102 49.3898C13.5009 49.7805 14.0308 50 14.5833 50C15.1359 50 15.6658 49.7805 16.0565 49.3898C16.4472 48.9991 16.6667 48.4692 16.6667 47.9167V45.8333H18.6083C21.1139 45.8307 23.5369 44.937 25.4442 43.3121C27.3515 41.6872 28.6187 39.437 29.0195 36.9637C29.4202 34.4904 28.9283 31.9551 27.6317 29.8111C26.3351 27.6671 24.3182 26.0541 21.9417 25.2604L16.6667 23.5V8.33333H18.6083ZM20.6292 29.2104C22.0696 29.6898 23.2924 30.6663 24.0786 31.9651C24.8648 33.2638 25.163 34.8 24.9199 36.2986C24.6768 37.7971 23.9082 39.1602 22.7517 40.1438C21.5953 41.1274 20.1265 41.6672 18.6083 41.6667H16.6667V27.8896L20.6292 29.2104ZM12.5 22.1104L8.54167 20.7896C7.10154 20.3103 5.87898 19.3341 5.09278 18.0358C4.30658 16.7375 4.00806 15.2018 4.25063 13.7035C4.4932 12.2052 5.26104 10.8421 6.41673 9.85822C7.57242 8.8743 9.04054 8.33376 10.5583 8.33333H12.5V22.1104Z" fill="#F2994A"/>
</svg>
