<svg width="50" height="50" viewBox="0 0 50 50" fill="none" xmlns="http://www.w3.org/2000/svg">
<g clip-path="url(#clip0)">
<path d="M47.9168 22.917H43.7502V18.7503C43.7502 18.1978 43.5307 17.6679 43.14 17.2772C42.7493 16.8865 42.2194 16.667 41.6668 16.667C41.1143 16.667 40.5844 16.8865 40.1937 17.2772C39.803 17.6679 39.5835 18.1978 39.5835 18.7503V22.917H35.4168C34.8643 22.917 34.3344 23.1365 33.9437 23.5272C33.553 23.9179 33.3335 24.4478 33.3335 25.0003C33.3335 25.5529 33.553 26.0828 33.9437 26.4735C34.3344 26.8642 34.8643 27.0837 35.4168 27.0837H39.5835V31.2503C39.5835 31.8028 39.803 32.3328 40.1937 32.7235C40.5844 33.1142 41.1143 33.3336 41.6668 33.3336C42.2194 33.3336 42.7493 33.1142 43.14 32.7235C43.5307 32.3328 43.7502 31.8028 43.7502 31.2503V27.0837H47.9168C48.4694 27.0837 48.9993 26.8642 49.39 26.4735C49.7807 26.0828 50.0001 25.5529 50.0001 25.0003C50.0001 24.4478 49.7807 23.9179 49.39 23.5272C48.9993 23.1365 48.4694 22.917 47.9168 22.917Z" fill="#B5C7D9"/>
<path d="M18.75 25C21.2223 25 23.639 24.2669 25.6946 22.8934C27.7502 21.5199 29.3524 19.5676 30.2985 17.2835C31.2446 14.9995 31.4921 12.4861 31.0098 10.0614C30.5275 7.63661 29.337 5.40933 27.5888 3.66117C25.8407 1.91301 23.6134 0.722505 21.1886 0.24019C18.7639 -0.242126 16.2505 0.00541608 13.9665 0.951511C11.6824 1.89761 9.73015 3.49976 8.35663 5.55538C6.98311 7.61099 6.25 10.0277 6.25 12.5C6.25331 15.8142 7.57133 18.9917 9.91482 21.3352C12.2583 23.6787 15.4358 24.9967 18.75 25ZM18.75 4.16667C20.3982 4.16667 22.0093 4.65541 23.3798 5.57109C24.7502 6.48677 25.8183 7.78826 26.449 9.31098C27.0797 10.8337 27.2448 12.5092 26.9232 14.1258C26.6017 15.7423 25.808 17.2271 24.6426 18.3926C23.4771 19.558 21.9923 20.3517 20.3758 20.6732C18.7592 20.9948 17.0837 20.8297 15.561 20.199C14.0383 19.5683 12.7368 18.5002 11.8211 17.1298C10.9054 15.7593 10.4167 14.1482 10.4167 12.5C10.4167 10.2899 11.2946 8.17025 12.8574 6.60745C14.4202 5.04465 16.5399 4.16667 18.75 4.16667Z" fill="#B5C7D9"/>
<path d="M18.75 29.167C13.7789 29.1725 9.01295 31.1497 5.49784 34.6648C1.98273 38.1799 0.00551428 42.9459 0 47.917C0 48.4695 0.219493 48.9994 0.610194 49.3901C1.0009 49.7808 1.5308 50.0003 2.08333 50.0003C2.63587 50.0003 3.16577 49.7808 3.55647 49.3901C3.94717 48.9994 4.16667 48.4695 4.16667 47.917C4.16667 44.0493 5.70312 40.3399 8.43803 37.605C11.1729 34.8701 14.8823 33.3337 18.75 33.3337C22.6177 33.3337 26.3271 34.8701 29.062 37.605C31.7969 40.3399 33.3333 44.0493 33.3333 47.917C33.3333 48.4695 33.5528 48.9994 33.9435 49.3901C34.3342 49.7808 34.8641 50.0003 35.4167 50.0003C35.9692 50.0003 36.4991 49.7808 36.8898 49.3901C37.2805 48.9994 37.5 48.4695 37.5 47.917C37.4945 42.9459 35.5173 38.1799 32.0022 34.6648C28.487 31.1497 23.7211 29.1725 18.75 29.167Z" fill="#B5C7D9"/>
</g>
<defs>
<clipPath id="clip0">
<rect width="50" height="50" fill="white"/>
</clipPath>
</defs>
</svg>
