<svg width="41" height="40" viewBox="0 0 41 40" fill="none" xmlns="http://www.w3.org/2000/svg">
<path d="M34.1666 20V36.6667H6.83331V20" stroke="#C3B6F9" stroke-width="2" stroke-linecap="round" stroke-linejoin="round"/>
<path d="M37.5834 11.6667H3.41669V20.0001H37.5834V11.6667Z" stroke="#C3B6F9" stroke-width="2" stroke-linecap="round" stroke-linejoin="round"/>
<path d="M20.5 36.6667V11.6667" stroke="#C3B6F9" stroke-width="2" stroke-linecap="round" stroke-linejoin="round"/>
<path d="M20.5 11.6666H12.8125C11.6798 11.6666 10.5935 11.2276 9.79259 10.4462C8.99165 9.66479 8.54169 8.60499 8.54169 7.49992C8.54169 6.39485 8.99165 5.33504 9.79259 4.55364C10.5935 3.77224 11.6798 3.33325 12.8125 3.33325C18.7917 3.33325 20.5 11.6666 20.5 11.6666Z" stroke="#C3B6F9" stroke-width="2" stroke-linecap="round" stroke-linejoin="round"/>
<path d="M20.5 11.6666H28.1875C29.3202 11.6666 30.4065 11.2276 31.2074 10.4462C32.0084 9.66479 32.4583 8.60499 32.4583 7.49992C32.4583 6.39485 32.0084 5.33504 31.2074 4.55364C30.4065 3.77224 29.3202 3.33325 28.1875 3.33325C22.2083 3.33325 20.5 11.6666 20.5 11.6666Z" stroke="#C3B6F9" stroke-width="2" stroke-linecap="round" stroke-linejoin="round"/>
</svg>
