<svg width="44" height="44" viewBox="0 0 44 44" fill="none" xmlns="http://www.w3.org/2000/svg">
<rect width="44.0006" height="44.0006" rx="16" fill="#E754B3" fill-opacity="0.08"/>
<path d="M22.1328 13.1599C20.3528 13.1599 18.6127 13.6877 17.1326 14.6766C15.6526 15.6655 14.499 17.071 13.8178 18.7156C13.1365 20.3601 12.9583 22.1697 13.3055 23.9155C13.6527 25.6613 14.5098 27.265 15.7685 28.5237C17.0271 29.7824 18.6307 30.6396 20.3766 30.9869C22.1224 31.3343 23.932 31.1561 25.5765 30.4749C27.2211 29.7938 28.6267 28.6403 29.6157 27.1602C30.6047 25.6802 31.1325 23.9402 31.1326 22.1602C31.1326 20.9783 30.8999 19.8079 30.4476 18.716C29.9953 17.624 29.3324 16.6319 28.4967 15.7961C27.661 14.9604 26.6689 14.2974 25.5769 13.8451C24.485 13.3928 23.3147 13.16 22.1328 13.1599ZM22.1327 15.8599C22.6668 15.8599 23.1888 16.0183 23.6328 16.315C24.0768 16.6117 24.4228 17.0334 24.6272 17.5267C24.8315 18.0201 24.885 18.563 24.7808 19.0867C24.6766 19.6105 24.4194 20.0916 24.0418 20.4692C23.6642 20.8468 23.1831 21.1039 22.6594 21.2081C22.1356 21.3122 21.5927 21.2587 21.0994 21.0544C20.606 20.85 20.1843 20.5039 19.8877 20.0599C19.591 19.6159 19.4327 19.0939 19.4327 18.5599C19.4327 17.8438 19.7172 17.157 20.2235 16.6507C20.7299 16.1444 21.4167 15.8599 22.1327 15.8599ZM27.1905 25.9041C26.6044 26.6933 25.8416 27.3345 24.9633 27.7763C24.085 28.218 23.1156 28.4481 22.1324 28.448C21.1493 28.448 20.1798 28.2179 19.3015 27.7761C18.4233 27.3343 17.6606 26.6931 17.0745 25.9038C16.9857 25.7726 16.9331 25.6203 16.9221 25.4623C16.911 25.3042 16.9419 25.1461 17.0115 25.0038L17.2005 24.6078C17.4187 24.1453 17.7638 23.7542 18.1956 23.4802C18.6274 23.2062 19.1282 23.0604 19.6396 23.0599L24.6256 23.06C25.1301 23.0607 25.6243 23.2027 26.0522 23.4699C26.4801 23.7372 26.8246 24.119 27.0465 24.572L27.2535 24.9951C27.3249 25.1385 27.3566 25.2983 27.3455 25.4581C27.3345 25.6179 27.2809 25.7719 27.1905 25.9041Z" fill="#E754B3"/>
</svg>
