<svg width="125" height="125" viewBox="0 0 125 125" fill="none" xmlns="http://www.w3.org/2000/svg">
<circle cx="62.3064" cy="62.3064" r="62.3064" fill="#D32929"/>
<path d="M27.1192 72.9047C26.0505 70.4902 26.7001 68.1159 29.487 66.7678C28.9212 65.621 28.7746 64.4338 29.2356 63.2065C29.6966 62.0193 30.5976 61.1944 31.792 60.7115C30.87 57.6128 31.4987 55.9831 34.1808 54.5746C33.657 53.4277 33.4893 52.2406 33.9503 51.0333C34.4113 49.8462 35.3124 49.0212 36.5697 48.4981C36.0039 47.3311 35.8572 46.1238 36.3182 44.9166C36.7792 43.7294 37.6803 42.9045 38.9166 42.4015C38.3508 41.2143 38.2041 40.0272 38.6861 38.7998C39.1471 37.6127 40.0691 36.8079 41.2844 36.2847C40.7606 35.2183 40.5929 34.1318 40.9282 33.0251C41.1587 32.2807 41.6197 32.0794 42.1855 32.6026C45.4544 35.6207 49.5615 37.0493 53.7314 38.4578C56.9794 39.5443 60.2064 40.7717 63.4334 41.8984C64.083 42.1198 64.3764 42.4618 64.3764 43.0856C64.3554 43.8502 64.7116 44.2325 65.5079 44.5142C74.2879 47.6128 83.0469 50.7717 91.8268 53.9307C92.9165 54.313 92.9584 54.4136 92.5393 55.48C91.5335 58.0958 90.5277 60.6913 89.4799 63.3875C89.9828 63.5686 90.4648 63.7497 90.9468 63.9308C95.0958 65.4198 99.2238 66.8886 103.373 68.3775C104.337 68.7196 104.421 68.9007 104.064 69.8262C100.649 78.5386 97.2331 87.271 93.8385 95.9834C93.3984 97.1101 93.3356 97.1303 92.204 96.7279C85.5405 94.3536 78.8769 91.9592 72.2134 89.5849C72.0038 89.5045 71.7733 89.424 71.5428 89.3636C71.5219 89.424 71.48 89.4843 71.48 89.5246C71.6686 91.0135 71.5219 91.1141 70.0131 90.5709C57.2937 85.9833 44.5743 81.3957 31.792 76.9289C30.2204 76.3856 28.3974 76.5064 26.6791 76.3454C26.1762 76.3051 25.6733 76.3253 25.1913 76.2649C24.5208 76.1844 24.3322 75.8625 24.6046 75.2589C25.0866 74.1522 25.9457 73.4077 27.1192 72.9047ZM62.7419 43.0453C62.4276 42.9246 62.1552 42.8039 61.9037 42.7033C56.9585 40.9326 52.0132 39.1821 47.0679 37.3712C46.4393 37.1499 45.8525 36.8079 45.3077 36.4256C44.26 35.7012 43.2332 34.9165 42.2064 34.1519C42.1226 34.2123 42.0178 34.2525 41.934 34.3129C42.1855 34.9165 42.3741 35.5402 42.7094 36.0835C43.1913 36.8682 43.1284 37.1499 42.2483 37.3712C39.8805 37.9346 38.9585 40.2686 40.3415 42.2204C40.8653 42.9648 40.7606 43.2264 39.8386 43.4679C37.5126 44.0514 36.6116 46.3854 37.9527 48.2768C38.5184 49.0615 38.4137 49.323 37.4288 49.5645C35.1028 50.1681 34.2437 52.4619 35.6058 54.3734C36.1296 55.1179 36.0039 55.3995 35.1028 55.6209C32.8188 56.1843 31.8758 58.4982 33.175 60.3694C33.8037 61.2748 33.7408 61.4358 32.6302 61.7376C30.43 62.3413 29.5499 64.6753 30.8281 66.4862C31.4148 67.3312 31.331 67.5727 30.3042 67.8343C28.0831 68.3976 27.1611 70.7115 28.4183 72.5425C29.047 73.448 28.9632 73.6291 27.8945 73.9108C27.2239 74.0918 26.5953 74.3534 26.1762 75.118C26.6582 75.118 27.0144 75.0778 27.3706 75.118C28.9212 75.279 30.5767 75.1784 32.0016 75.6814C43.6942 79.7861 55.324 83.9913 66.9957 88.1765C67.2262 88.257 67.4776 88.3173 67.7081 88.3978C67.5824 88.1362 67.3938 87.9551 67.2052 87.7942C60.3531 81.9189 53.5009 76.0235 46.6279 70.1683C45.9992 69.6451 45.9783 69.2427 46.3974 68.5787C50.9864 61.4358 55.5335 54.2728 60.0807 47.1097C61.0027 45.7818 61.8618 44.4337 62.7419 43.0453ZM47.5079 69.2226C55.0935 75.7015 62.5952 82.1402 70.2436 88.6996C67.9177 73.8504 65.6336 59.2426 63.3705 44.655C63.3077 44.655 63.2448 44.655 63.182 44.6349C57.9643 52.8241 52.7466 60.9932 47.5079 69.2226ZM74.5184 58.0153C79.1703 59.6853 83.7384 61.3151 88.3693 62.9851C89.3961 60.309 90.4019 57.7135 91.4497 55.0575C86.8187 53.4076 82.2297 51.7577 77.6197 50.1078C76.551 52.7838 75.5661 55.3392 74.5184 58.0153ZM85.5614 73.609C84.5137 76.3052 83.5079 78.9007 82.4811 81.5366C87.133 83.2066 91.7011 84.8364 96.3111 86.4863C97.3589 83.8102 98.3647 81.2146 99.3914 78.5587C94.7395 76.8887 90.1924 75.2589 85.5614 73.609ZM87.9083 64.1119C83.2564 62.4419 78.6883 60.8121 74.0783 59.1622C73.0306 61.8584 72.0457 64.4539 71.019 67.0898C75.6709 68.7397 80.218 70.3896 84.849 72.0395C85.8548 69.3836 86.8606 66.8081 87.9083 64.1119ZM85.9805 72.4822C90.6324 74.1522 95.2005 75.782 99.8105 77.4319C100.837 74.7558 101.843 72.1401 102.87 69.5043C98.218 67.8343 93.6499 66.2045 89.0608 64.5747C88.0341 67.2105 87.0283 69.786 85.9805 72.4822ZM92.7908 95.5206C93.8175 92.8646 94.8443 90.269 95.8711 87.6131C91.2401 85.9632 86.672 84.3133 82.0411 82.6633C81.0143 85.3193 79.9875 87.9149 78.9607 90.5709C83.5917 92.2409 88.1598 93.8707 92.7908 95.5206ZM84.388 73.1864C79.757 71.5365 75.1889 69.8866 70.558 68.2367C69.8455 70.3292 68.4835 72.1804 69.2588 74.4943C69.4264 75.0174 69.5102 75.5808 69.5312 76.1241C69.5521 76.8082 69.9084 77.0496 70.5161 77.271C72.863 78.0758 75.168 78.9209 77.4939 79.7659C78.7302 80.2086 79.9875 80.6513 81.3077 81.114C82.3344 78.4581 83.3402 75.8826 84.388 73.1864ZM65.9689 53.1058C66.0737 53.7496 66.1156 54.2325 66.2413 54.6953C66.2832 54.8764 66.4509 55.1179 66.6185 55.1782C68.8397 55.9831 71.0609 56.7678 73.324 57.5726C74.3507 54.8965 75.3566 52.3009 76.3833 49.645C72.5067 48.2768 68.714 46.9287 64.7745 45.5202C65.0888 47.6128 65.3822 49.5243 65.6965 51.4156C65.7175 51.5565 65.8851 51.7376 66.0318 51.7778C67.771 52.4217 69.5312 53.0655 71.3542 53.7094C71.7524 52.6832 72.1296 51.7174 72.5067 50.7717C72.6534 50.3895 72.8839 50.0675 73.3868 50.2486C73.8478 50.4297 73.8478 50.7919 73.6802 51.1943C73.303 52.0997 72.9677 53.0253 72.6115 53.9508C72.1086 55.2587 72.1086 55.2587 70.7675 54.7758C69.2169 54.2527 67.6453 53.7094 65.9689 53.1058ZM77.8082 90.1684C78.856 87.4722 79.8618 84.8767 80.8676 82.2408C77.1587 80.9128 73.5754 79.6452 69.8874 78.3172C70.1598 80.0275 70.5161 81.5768 70.6208 83.1463C70.7046 84.3535 71.1866 84.937 72.402 85.2388C73.5545 85.5205 74.6441 86.0034 75.7756 86.4058C76.1528 85.4199 76.5091 84.5145 76.8653 83.6292C77.0329 83.2066 77.2425 82.7841 77.8082 83.0054C78.3321 83.2066 78.2064 83.6292 78.0597 84.0316C77.6825 85.0175 77.2844 86.0034 76.9072 86.9893C76.5719 87.8545 76.4043 87.9149 75.5032 87.593C74.0783 87.0899 72.6744 86.5869 71.2495 86.0839C71.1656 86.1241 71.1028 86.1644 71.019 86.2247C71.2495 86.8083 71.3123 87.7338 71.7314 87.9149C73.6802 88.7801 75.7128 89.424 77.8082 90.1684ZM69.8455 66.627C70.8723 64.0113 71.8781 61.3956 72.9049 58.7396C70.7675 57.975 68.714 57.2507 66.5137 56.4458C66.87 58.7597 67.2052 60.9529 67.5405 63.1461C68.0853 62.1199 68.5254 61.0736 68.9026 60.0274C69.0702 59.6048 69.2588 59.2426 69.7826 59.4036C70.3694 59.5847 70.2227 60.0475 70.0551 60.47C69.6779 61.4358 69.3007 62.4016 68.9445 63.3674C68.7349 63.971 68.4835 64.4338 67.6872 64.1119C68.0853 66.3654 67.4776 65.8825 69.8455 66.627ZM68.1901 67.4318C68.3158 68.1964 68.4206 68.8805 68.5463 69.5445C68.6092 69.5445 68.6511 69.5647 68.714 69.5647C68.9235 69.0013 69.154 68.4379 69.3845 67.8343C68.9235 67.6934 68.6092 67.5727 68.1901 67.4318Z" fill="white" stroke="white"/>
<path d="M70.3669 31.1941C70.325 30.4899 70.8488 30.4296 71.2889 30.329C74.3482 29.665 77.4076 29.001 80.467 28.3571C82.29 27.9547 84.0921 27.5523 85.8942 27.17C86.921 26.9487 87.1096 27.0493 87.3191 27.995C87.9687 30.832 88.6392 33.669 89.2888 36.5261C89.4984 37.4115 89.3936 37.5724 88.4507 37.7736C83.5473 38.84 78.623 39.8863 73.6986 40.9527C73.1329 41.0734 72.6719 41.0734 72.5042 40.3692C71.8127 37.3511 71.0793 34.3531 70.3669 31.335C70.3669 31.2746 70.3669 31.1941 70.3669 31.1941ZM88.0316 36.6268C87.361 33.7897 86.7324 31.0935 86.1037 28.3571C81.2423 29.4034 76.5275 30.4296 71.7289 31.4557C72.3785 34.2525 73.0071 36.9487 73.6567 39.7052C78.4972 38.6791 83.233 37.673 88.0316 36.6268Z" fill="white" stroke="white"/>
<path d="M63.4557 30.2288C63.1832 29.8061 62.8897 29.5444 62.9106 29.3028C62.9106 29.1216 63.288 28.9405 63.4976 28.7593C63.6863 28.9807 64.0217 29.1619 64.0427 29.4035C64.0846 29.6249 63.7492 29.8463 63.4557 30.2288Z" fill="white" stroke="white"/>
<path d="M98.2195 37.8947C97.8002 38.1565 97.5486 38.4383 97.339 38.4182C97.1084 38.398 96.9197 38.0961 96.7101 37.9149C96.9197 37.7136 97.1084 37.3915 97.36 37.3311C97.5277 37.2908 97.8002 37.6129 98.2195 37.8947Z" fill="white" stroke="white"/>
<path d="M89.0404 46.2048C88.6211 46.4664 88.3696 46.7483 88.1599 46.7281C87.9293 46.708 87.7407 46.4061 87.531 46.2249C87.7407 46.0236 87.9293 45.7015 88.1809 45.6411C88.3486 45.6009 88.6211 45.9229 89.0404 46.2048Z" fill="white" stroke="white"/>
<path d="M100.586 58.9014C100.314 58.4988 100.02 58.2371 100.062 58.0559C100.125 57.8345 100.461 57.6735 100.691 57.4722C100.859 57.6735 101.173 57.8949 101.173 58.0962C101.194 58.2975 100.88 58.5189 100.586 58.9014Z" fill="white" stroke="white"/>
<path d="M97.86 48.1366C97.5665 47.7541 97.252 47.5528 97.252 47.3515C97.252 47.1301 97.5665 46.9288 97.7551 46.7275C97.9857 46.9087 98.3212 47.0697 98.405 47.3113C98.447 47.4522 98.1325 47.734 97.86 48.1366Z" fill="white" stroke="white"/>
<path d="M43.5265 48.7406C43.3378 48.4588 43.0024 48.177 43.0653 47.9959C43.233 47.3517 43.5055 46.7076 43.799 46.1037C43.8619 45.9628 44.2812 45.8823 44.4698 45.9426C44.6585 46.0232 44.8891 46.3452 44.8472 46.5063C44.6585 47.1504 44.386 47.7744 44.1134 48.3984C44.0506 48.5192 43.82 48.5595 43.5265 48.7406Z" fill="white" stroke="white"/>
<path d="M37.9952 62.9464C37.8275 62.6847 37.513 62.423 37.555 62.2418C37.7227 61.5976 37.9742 60.9535 38.2677 60.3496C38.3306 60.2086 38.7289 60.1483 38.9386 60.1885C39.1063 60.2288 39.3579 60.5509 39.3369 60.6716C39.1273 61.3359 38.8757 62.0002 38.5822 62.6243C38.5193 62.7652 38.2887 62.8055 37.9952 62.9464Z" fill="white" stroke="white"/>
<path d="M35.7731 70.149C35.4796 70.8334 35.2909 71.4373 34.9764 71.9607C34.8716 72.1419 34.4104 72.2828 34.2007 72.2023C34.0121 72.1218 33.8444 71.699 33.9072 71.4977C34.054 70.9542 34.2636 70.4107 34.5571 69.9074C34.662 69.7262 35.0603 69.5853 35.3119 69.6054C35.4796 69.6457 35.6263 69.9678 35.7731 70.149Z" fill="white" stroke="white"/>
<path d="M44.8036 43.3078C45.0762 42.6234 45.2858 42.0195 45.6003 41.4358C45.6841 41.2948 46.1034 41.1539 46.2501 41.2345C46.4598 41.3351 46.6904 41.6773 46.6485 41.8384C46.4807 42.4624 46.2501 43.0663 45.9567 43.6501C45.8728 43.8111 45.4535 43.8916 45.2229 43.8312C45.0342 43.791 44.9294 43.489 44.8036 43.3078Z" fill="white" stroke="white"/>
<path d="M39.2939 57.4935C39.5664 56.8091 39.7551 56.2454 40.0276 55.7221C40.1324 55.5409 40.5517 55.3396 40.6984 55.4201C40.9081 55.5208 41.1596 55.8831 41.1177 56.0844C40.9919 56.6682 40.7823 57.2318 40.4888 57.7552C40.384 57.9363 39.9647 58.0571 39.7131 58.0169C39.5454 57.9967 39.4196 57.6545 39.2939 57.4935Z" fill="white" stroke="white"/>
<path d="M35.6497 66.9704C35.9222 66.286 36.0899 65.7223 36.3624 65.2191C36.4672 65.0379 36.9075 64.8567 37.0962 64.9171C37.2848 64.9976 37.5155 65.4002 37.4735 65.6015C37.3477 66.145 37.1171 66.7087 36.8446 67.1918C36.7398 67.373 36.3415 67.534 36.1528 67.4736C35.9222 67.4334 35.7754 67.1314 35.6497 66.9704Z" fill="white" stroke="white"/>
<path d="M41.7041 53.3889C41.5574 53.1675 41.2429 52.9058 41.2848 52.7246C41.4316 52.1006 41.6832 51.4967 41.9557 50.9129C42.0186 50.772 42.4169 50.6714 42.6266 50.7317C42.7943 50.772 43.0458 51.0941 43.0039 51.2149C42.7943 51.8792 42.5217 52.5233 42.2282 53.1474C42.2073 53.2279 41.9976 53.2681 41.7041 53.3889Z" fill="white" stroke="white"/>
<path d="M52.3268 68.619C54.4013 70.3896 56.413 72.0999 58.4456 73.8102C58.5922 73.9511 58.8228 74.0517 58.8856 74.2327C58.9694 74.4541 59.0113 74.8163 58.8856 74.9571C58.7599 75.098 58.3827 75.1181 58.1312 75.0979C57.9846 75.0778 57.8379 74.8967 57.7122 74.7961C55.6167 73.0054 53.5422 71.2146 51.4258 69.4439C50.9229 69.0214 50.7971 68.6793 51.1953 68.0958C52.1802 66.6471 53.0812 65.138 54.0242 63.6692C54.2547 63.2869 54.5061 62.8644 55.0509 63.1662C55.6167 63.4881 55.3443 63.9308 55.0928 64.3332C54.1708 65.7216 53.2698 67.13 52.3268 68.619Z" fill="white" stroke="white"/>
<path d="M64.4797 80.4514C64.2491 80.3307 64.0813 80.2703 63.9556 80.1696C63.3686 79.6664 62.7816 79.1631 62.1946 78.6599C61.8591 78.378 61.6705 77.9956 62.0688 77.7138C62.2575 77.5728 62.7816 77.6332 62.9912 77.7943C63.6411 78.2573 64.2491 78.7806 64.8151 79.3242C64.9828 79.4852 65.0247 79.8274 64.9828 80.0488C64.9409 80.2099 64.6683 80.3307 64.4797 80.4514Z" fill="white" stroke="white"/>
<path d="M86.339 59.1019C86.7372 58.0757 87.1143 57.1501 87.4706 56.2045C87.6173 55.8021 87.8478 55.5002 88.3297 55.6411C88.8536 55.8222 88.8117 56.2045 88.6231 56.627C88.204 57.6733 87.7849 58.7397 87.4077 59.8061C87.1772 60.4097 86.821 60.5505 86.1923 60.3091C83.8454 59.4439 81.4985 58.619 79.1516 57.7739C78.7116 57.6129 78.2296 57.452 78.4601 56.8886C78.6697 56.3453 79.1307 56.4862 79.5917 56.6471C81.8128 57.4721 84.034 58.2769 86.339 59.1019Z" fill="white" stroke="white"/>
<path d="M94.2779 82.6839C94.676 81.6779 95.0323 80.7523 95.3885 79.8469C95.5561 79.4445 95.7657 79.0622 96.2895 79.2634C96.7925 79.4646 96.7505 79.867 96.5829 80.2895C96.1638 81.356 95.7447 82.4023 95.3466 83.4687C95.137 84.0522 94.7599 84.1729 94.1941 83.9516C91.8053 83.0864 89.3955 82.2212 86.9857 81.3761C86.5457 81.2151 86.2104 80.9737 86.42 80.4908C86.6295 80.0481 87.0277 80.1085 87.4258 80.2493C89.7098 81.0541 91.952 81.859 94.2779 82.6839Z" fill="white" stroke="white"/>
<path d="M82.8172 68.1962C83.1315 67.3713 83.4458 66.5664 83.7601 65.7817C83.823 65.6006 83.8649 65.3391 83.9906 65.2385C84.2421 65.0574 84.5564 64.9568 84.8498 64.8159C84.9545 65.0775 85.206 65.3994 85.1431 65.6207C84.745 66.7878 84.284 67.9346 83.8439 69.0815C83.6554 69.5443 83.2991 69.665 82.8381 69.5041C80.3655 68.6187 77.8929 67.7536 75.4412 66.828C75.2107 66.7475 75.1059 66.3049 74.9593 66.0433C75.2736 65.9427 75.6298 65.6811 75.8603 65.7616C77.9348 66.4457 79.9883 67.2103 82.0419 67.9346C82.2724 68.0151 82.5029 68.0956 82.8172 68.1962Z" fill="white" stroke="white"/>
<path d="M97.8209 73.5485C98.1981 72.5826 98.5962 71.6571 98.9315 70.7114C99.0991 70.2687 99.3296 69.9669 99.8535 70.1681C100.335 70.3492 100.273 70.7114 100.126 71.1138C99.7068 72.1802 99.2877 73.2668 98.8896 74.3533C98.6801 74.9368 98.3238 75.0575 97.7371 74.8362C95.3692 73.971 93.0013 73.1259 90.6335 72.2808C90.1934 72.1199 89.7324 71.9388 89.9839 71.3754C90.2144 70.8321 90.6963 71.0132 91.1364 71.1742C93.0642 71.8784 94.992 72.5625 96.9199 73.2466C97.1713 73.3472 97.4647 73.4478 97.8209 73.5485Z" fill="white" stroke="white"/>
<path d="M90.7591 91.778C91.1363 90.8122 91.5135 89.9068 91.8488 88.9813C92.0164 88.5587 92.2259 88.1362 92.7917 88.3776C93.3156 88.5788 93.1689 89.0014 93.0222 89.4038C92.6241 90.4299 92.205 91.4762 91.8278 92.5024C91.6183 93.0859 91.283 93.2871 90.6334 93.0456C88.2655 92.1805 85.8977 91.3354 83.5298 90.4903C83.1317 90.3495 82.6916 90.1684 82.8593 89.6452C83.0478 89.0819 83.5088 89.1825 83.9698 89.3434C85.9605 90.0477 87.9303 90.772 89.9209 91.4762C90.1724 91.5768 90.4448 91.6774 90.7591 91.778Z" fill="white" stroke="white"/>
<path d="M79.2765 77.3114C79.6746 76.3254 80.0308 75.42 80.3871 74.4944C80.5547 74.0719 80.7642 73.7298 81.2881 73.9109C81.8329 74.092 81.7282 74.4944 81.5605 74.917C81.1414 75.9633 80.7223 77.0297 80.3242 78.0961C80.1147 78.6594 79.7794 78.8204 79.1717 78.5991C76.8038 77.7339 74.436 76.8888 72.0471 76.0437C71.628 75.9029 71.2089 75.7218 71.3766 75.1987C71.5652 74.6353 72.0262 74.7359 72.4872 74.8969C74.436 75.6011 76.4057 76.3053 78.3545 76.9894C78.6478 77.09 78.9202 77.1705 79.2765 77.3114Z" fill="white" stroke="white"/>
<path d="M84.1374 34.3938C83.9069 33.4078 83.6764 32.4622 83.4879 31.5165C83.425 31.2348 83.4459 30.8927 83.5717 30.6714C83.8441 30.2489 84.5146 30.4099 84.6403 30.933C84.9547 32.1805 85.2271 33.428 85.5204 34.6754C85.6252 35.1382 85.3947 35.3797 84.9337 35.4803C82.3354 36.0437 79.7579 36.6473 77.1386 37.1704C76.9081 37.2107 76.4471 36.9692 76.3633 36.768C76.1957 36.3455 76.51 36.0839 76.95 35.9833C78.9617 35.5406 80.9733 35.098 82.9849 34.6553C83.3412 34.595 83.6764 34.4944 84.1374 34.3938Z" fill="white" stroke="white"/>
</svg>
