<svg width="125" height="125" viewBox="0 0 125 125" fill="none" xmlns="http://www.w3.org/2000/svg">
<circle cx="62.3064" cy="62.3064" r="62.3064" fill="#EB7304" fill-opacity="0.54"/>
<path d="M93.6635 38.0377C88.9929 32.974 80.635 34.9759 74.3666 34.8582C72.2771 32.0319 68.7127 30.3832 64.288 29.9122C60.109 29.7944 56.053 31.7963 53.7177 35.0937C49.2929 35.0937 44.8682 34.7404 40.4434 35.0937C37.9852 35.3292 35.6499 35.8003 34.0521 37.5667C32.4542 39.4509 31.7168 42.0417 31.5939 44.3969C31.348 48.0475 31.348 51.6982 31.2251 55.3488C31.1022 59.4705 31.348 63.4744 31.348 67.4783C31.2251 72.1888 30.8564 76.8993 31.1022 81.6098C31.348 85.4959 31.8397 90.7952 36.5103 91.7373C44.3765 93.386 53.4719 92.4439 61.461 92.3261C69.9418 92.2084 78.5455 92.7972 87.0263 92.2084C93.4177 91.7373 96.1217 90.2064 96.2446 83.7295C96.2446 75.2506 96.2446 66.654 96.3675 58.1751C96.4904 52.0515 98.2112 43.1015 93.6635 38.0377ZM64.288 31.6786C69.9418 32.2674 74.3666 35.0937 74.6124 40.864C74.8582 46.7522 70.5564 52.0515 64.0421 51.9337C58.3883 51.9337 53.2261 47.2232 53.2261 41.6884C53.2261 36.0358 58.5112 31.4431 64.288 31.6786ZM94.7697 55.1133C94.6468 61.5902 94.6468 67.9494 94.6468 74.4263C94.6468 77.3703 94.6468 80.3144 94.6468 83.2584C94.6468 84.5538 94.8926 86.438 94.278 87.7334C92.926 90.7952 89.2387 90.6775 86.4118 90.7952C80.0205 91.1485 73.6291 90.913 67.2378 90.7952C60.8465 90.7952 54.3322 91.0308 47.9409 90.913C44.8682 90.7952 41.6725 90.913 38.7227 90.4419C34.6666 89.8531 33.5604 87.2624 33.0688 83.965C32.0855 77.3703 33.1917 70.5401 33.1917 63.8277C33.0688 57.5863 33.1917 51.2271 33.4375 44.9857C33.6833 39.6864 36.5103 37.0956 42.0412 36.8601C45.6056 36.7424 49.2929 36.8601 52.8573 36.8601C52.2428 38.1555 51.7511 39.5687 51.7511 41.0996C51.2595 47.6943 57.2821 53.8179 64.1651 53.8179C71.1709 53.8179 76.4561 48.0475 76.3332 41.5706C76.3332 39.6864 75.9644 38.0377 75.227 36.6246C77.3164 36.6246 79.4059 36.5068 81.4954 36.5068C84.1994 36.5068 87.8867 36.0358 90.3449 37.4489C96.1217 40.864 94.7697 49.4607 94.7697 55.1133Z" fill="white" stroke="white"/>
<path d="M62.4447 43.1017C63.428 43.8083 64.78 43.926 65.5175 42.8662C66.132 42.0419 66.132 41.0998 65.5175 40.3932C65.5175 40.2754 65.5175 40.1577 65.3946 40.1577C65.8862 38.98 66.2549 37.6847 66.7466 36.507C67.1153 35.5649 65.5175 35.0939 65.1488 36.036C64.78 37.2136 64.2884 38.3912 63.7967 39.5688C61.9531 39.5688 60.4782 41.6886 62.4447 43.1017ZM63.9197 41.0998C64.0426 41.0998 64.0426 41.2175 64.1655 41.2175C64.6571 41.5708 63.7967 42.5129 63.3051 41.6886C63.0593 41.2175 63.5509 41.0998 63.9197 41.0998Z" fill="white" stroke="white"/>
<path d="M89.1157 63.0034C89.2386 60.4127 89.7302 56.762 88.8699 54.289C88.2553 52.5226 86.7804 51.5805 85.0596 51.3449C82.9702 51.1094 78.7912 50.8739 76.8247 51.816C75.8414 52.287 75.1039 53.5824 74.3665 54.289C72.6457 55.8199 70.4333 56.762 68.221 57.3508C62.5671 58.8817 57.1591 56.9975 52.9801 53.4647C50.5219 51.3449 43.6389 51.2272 40.812 52.6403C37.0018 54.4068 38.3538 59.4706 38.3538 62.7679C38.4767 68.8916 37.7393 75.604 38.8454 81.6099C39.3371 84.4362 40.6891 85.9672 43.6389 86.4382C47.3262 87.1448 51.751 87.027 55.5612 87.1448C59.4943 87.2625 63.4275 87.1448 67.3606 86.9093C71.0479 86.6737 74.6123 86.556 78.2996 86.4382C81.2494 86.4382 83.9535 87.027 86.5346 85.4961C90.7135 82.9053 89.2386 77.7238 89.1157 73.6021C88.8699 70.187 88.9928 66.6541 89.1157 63.0034ZM87.1491 82.3165C86.0429 85.1428 83.3389 84.9073 80.512 84.9073C73.5061 85.1428 66.5002 85.6139 59.4943 85.6139C56.0529 85.6139 52.7343 85.2606 49.2928 85.0251C46.2201 84.7895 41.9182 85.8494 40.6891 82.3165C39.8287 79.7257 40.1975 76.3106 40.1975 73.6021C40.1975 70.4225 40.1975 67.3607 40.0745 64.1811C39.9516 61.1192 38.4767 55.5844 42.2869 53.9357C44.2535 53.1114 50.0303 53.2291 51.6281 54.6423C55.4383 57.8219 60.2318 59.9416 65.394 59.4706C67.8522 59.235 70.3104 58.5285 72.3999 57.3508C74.6123 56.1732 76.2101 53.7002 78.6683 52.9936C79.6516 52.6403 81.864 52.7581 82.9702 52.8759C85.1826 52.4048 86.5346 53.4647 87.272 56.0554C87.272 56.762 87.3949 57.5864 87.3949 58.2929C87.5178 61.5903 87.1491 64.7699 87.1491 68.0672C87.1491 71.2468 87.3949 74.3087 87.3949 77.3705C87.5178 79.2547 87.7637 80.7856 87.1491 82.3165Z" fill="white" stroke="white"/>
<path d="M56.7898 40.9818C56.9127 38.9799 58.0189 36.9779 59.8625 35.9181C60.8458 35.4471 59.9854 34.0339 59.0022 34.505C56.6669 35.8003 55.3148 38.3911 55.069 40.9818C54.9461 42.0417 56.6669 42.0417 56.7898 40.9818Z" fill="white" stroke="white"/>
<path d="M55.6855 42.6309C54.5788 42.6309 54.5788 44.2802 55.6855 44.2802C56.7922 44.2802 56.7922 42.6309 55.6855 42.6309Z" fill="white" stroke="white"/>
</svg>
