<svg width="125" height="125" viewBox="0 0 125 125" fill="none" xmlns="http://www.w3.org/2000/svg">
<circle cx="62.3064" cy="62.3064" r="62.3064" fill="#4A2199" fill-opacity="0.5"/>
<path d="M76.8993 90.0769C76.8912 90.0595 76.9747 90.191 76.9829 90.324C77.0251 91.0619 77.0937 91.8093 77.0605 92.5488C77.0108 93.6003 76.0466 93.4243 75.3675 93.6697C71.9378 94.8695 68.379 95.0543 64.7859 94.9809C60.6434 94.8964 56.575 94.2751 52.6282 93.0331C51.5198 92.6893 50.367 92.4596 49.2979 92.0144C48.9405 91.856 48.7801 91.1909 48.6163 90.7269C48.5475 90.5575 48.7658 90.3042 48.7921 90.0825C49.0818 87.9907 49.1064 87.9274 47.198 86.9469C42.6204 84.5948 39.27 81.1264 36.8827 76.7208C35.1443 73.5329 34.1094 70.152 33.5159 66.5985C33.0826 63.9413 32.8346 61.3079 33.1638 58.6524C33.2445 58.0602 33.9401 57.5029 34.4422 57.02C34.7785 56.6938 35.2476 56.488 35.6381 56.2537C35.0436 54.5498 34.2555 53.0358 34.7106 51.2497C35.0639 49.8024 35.7564 48.9838 37.2275 48.7798C38.4002 48.6121 39.4708 49.2456 40.1196 50.4635C40.6898 51.5372 41.1878 52.6425 41.8531 53.664C42.0875 54.0235 42.6761 54.1645 43.1106 54.3941C43.2502 53.9967 43.4996 53.6246 43.5195 53.2272C43.5973 51.7957 43.498 50.3578 43.6725 48.947C43.7944 47.8638 44.7621 47.4919 45.7855 47.4002C46.8712 47.3021 47.8239 47.5461 48.2071 48.6388C48.777 50.2905 49.2616 51.9691 49.8413 53.8266C50.5169 53.7824 51.3451 53.8078 52.1406 53.648C52.4177 53.5894 52.664 53.0717 52.7708 52.7201C53.2586 51.1193 55.1038 50.5305 56.4054 51.609C56.9726 52.0747 57.4742 52.6321 58.2349 53.0234C58.0613 52.7003 57.9007 52.382 57.727 52.0589C57.2388 51.1594 56.6603 50.2995 56.2573 49.3731C55.3383 47.2336 55.7902 45.4174 57.9211 44.2095C57.5869 43.4525 57.2493 43.0123 56.3374 43.2022C56.0733 43.2655 55.6587 42.6384 55.221 42.263C54.9176 42.312 54.4797 42.3991 53.9663 42.4877C53.6469 41.8083 53.3783 41.0751 52.3316 41.7654C52.0725 41.9316 51.3724 41.4612 50.7428 41.2331C50.0717 41.9582 49.0895 41.6747 48.4436 41.0649C48.0797 40.7307 48.1589 39.8345 48.2363 39.2122C48.3779 38.0784 49.3356 38.0785 50.1916 38.1863C52.2791 38.4368 54.3634 38.7728 56.3345 39.0534C55.9038 37.6978 55.3864 36.0652 54.8952 34.442C54.7576 33.9875 54.6349 33.495 54.6089 33.0231C54.5959 32.6716 54.783 32.3058 54.8636 31.9448C55.1899 32.1064 55.6342 32.1951 55.8194 32.4501C56.8126 33.8215 57.7467 35.2294 58.6578 36.6579C58.8872 37.03 58.9263 37.5067 59.0557 37.9437C59.2246 37.9327 59.3935 37.9216 59.5674 37.8979C59.8186 37.2518 59.9485 36.5329 60.3424 35.9819C61.1399 34.8546 62.149 33.8761 62.9285 32.7567C63.4684 31.984 64.2638 31.9398 64.841 32.1489C65.3919 32.3485 65.8573 33.0374 66.1407 33.617C66.4815 34.3185 66.0008 34.8236 65.3381 35.1038C64.7476 35.3523 64.2735 35.5708 64.3125 36.3942C64.3353 36.7204 63.6168 37.0671 63.1066 37.5326C63.1393 37.7179 63.2129 38.1058 63.2963 38.5841C62.7025 38.9181 62.0545 39.2759 62.3722 40.2292C62.4475 40.4588 62.0111 40.8499 61.8306 41.1602C61.4695 41.7809 61.6513 42.237 62.3843 42.3147C65.9559 42.7126 66.4379 43.0896 67.353 46.4705C67.7213 47.8324 68.0847 49.2069 68.4711 50.5609C68.5219 50.7382 68.694 50.8728 68.812 51.0312C70.4547 48.8082 72.5921 47.5449 75.3488 47.8065C77.7479 48.0254 78.9263 49.6518 79.9936 53.5648C82.9 52.8257 85.572 51.7271 87.7804 49.6657C89.9379 47.6581 91.4953 45.3464 92.0906 42.1225C92.5495 42.6356 93.0086 42.9175 93.0576 43.2533C93.7444 47.2596 93.9475 51.2786 92.8304 55.2673C92.7384 55.5808 92.7644 55.9371 92.6856 56.2554C92.4687 57.0439 91.8533 57.9338 92.0727 58.5625C92.284 59.1737 93.3055 59.5872 94.04 59.9689C95.5435 60.7593 95.2771 62.1369 95.1601 63.3229C94.7629 67.3846 94.0345 71.4129 92.3713 75.1894C90.5244 79.3617 88.0298 83.1981 84.1647 85.9022C81.9714 87.4633 79.4518 88.6315 76.8993 90.0769ZM34.1639 59.2748C34.1196 59.3889 33.9883 59.5725 33.9997 59.7356C34.1233 61.8037 34.1404 63.8765 34.4247 65.9161C34.9264 69.5519 36.0563 72.9962 37.7915 76.2696C39.1546 78.8446 40.9181 81.1599 43.1918 83.0097C46.695 85.8542 50.666 87.9577 55.2033 88.8356C58.1386 89.4076 61.0885 90.0573 64.0535 90.2066C66.8988 90.3558 69.8033 90.0063 72.6537 89.6805C76.3504 89.2566 79.7261 87.8493 82.6938 85.7595C86.6868 82.9573 89.429 79.1382 91.3285 74.7538C92.7421 71.465 93.5146 68.0162 93.928 64.3362C92.9751 64.5546 92.1058 64.7888 91.2218 64.9455C88.0908 65.5309 84.9599 66.1164 81.8093 66.6369C81.4255 66.7002 80.9861 66.3676 80.5664 66.2155C80.5894 66.0794 80.6206 65.9606 80.6436 65.8244C80.8995 65.7437 81.1439 65.6155 81.4162 65.5696C85.4049 64.818 89.3855 64.049 93.3857 63.3449C94.2697 63.1882 94.3732 62.8066 94.1194 62.0354C73.8585 67.2249 53.9864 65.3726 34.1639 59.2748ZM55.8745 57.5155C56.0107 57.4347 56.1337 57.3492 56.2649 57.2811C56.5961 57.5456 57.0716 57.7468 57.2354 58.0952C58.0595 59.7089 58.7934 61.3622 59.5683 62.987C59.6584 63.1786 59.8009 63.5048 59.942 63.527C61.1571 63.6349 62.3789 63.6873 63.8171 63.7603C62.1194 61.0064 60.6758 58.4456 58.9911 56.0432C58.0373 54.686 56.7751 53.5061 55.4965 52.407C54.6687 51.688 53.9157 52.1233 53.7594 53.1795C53.6673 53.8398 53.4997 54.5017 53.3813 55.1525C53.225 56.0931 52.4885 56.5633 51.6718 56.5853C50.837 56.6153 49.8515 56.4172 49.4698 55.513C49.003 54.4045 48.6526 53.2659 48.2759 52.1178C47.9582 51.1645 47.8029 50.1399 47.354 49.2547C47.1394 48.8445 46.3606 48.4612 45.8801 48.5039C45.1863 48.556 44.4105 48.8964 44.4707 49.8576C44.5617 51.6248 44.6658 53.3968 44.6994 55.1576C44.7057 55.5646 44.5381 56.2265 44.2773 56.3199C43.8099 56.4829 43.1276 56.467 42.7112 56.2294C42.1341 55.9047 41.6276 55.3599 41.2901 54.804C40.5609 53.6005 39.9941 52.3256 39.3108 51.0809C38.8307 50.1988 38.1619 49.6097 37.0056 49.9278C35.9887 50.1953 35.7538 50.9917 35.655 51.8231C35.5957 52.3219 35.6266 52.8967 35.8264 53.3448C36.5013 54.9189 37.3567 56.4139 37.9643 58.007C38.5851 59.6048 39.9002 59.879 41.4547 60.1531C41.3893 59.8982 41.391 59.7398 41.3107 59.6385C40.3913 58.3082 39.49 56.97 38.5247 55.6809C38.1789 55.2232 37.8757 54.8099 38.499 54.5154C38.6975 54.4284 39.3205 54.8275 39.5302 55.1347C40.638 56.7501 41.6458 58.4303 42.7766 60.0251C43.0962 60.4732 43.6831 60.8882 44.2193 61.0102C45.8541 61.3857 47.5251 61.6298 49.1814 61.9119C49.3519 61.8581 49.5094 61.7995 49.6751 61.7584C49.4226 61.5224 49.0882 61.3434 48.9309 61.0552C48.2885 60.0132 47.6691 58.9505 47.1399 57.8483C47.0335 57.6219 47.3469 57.2007 47.4618 56.8666C47.7061 57.0852 48.1029 57.2578 48.1684 57.5128C48.553 59.1407 49.5314 60.4346 50.6558 61.6223C51.0476 62.0389 51.5967 62.5124 52.1346 62.5917C54.1663 62.9086 56.226 63.0768 58.4202 63.3225C58.2999 61.0534 56.5656 59.4712 55.8745 57.5155ZM92.5564 48.6213C92.4285 48.6038 92.3006 48.5864 92.1678 48.5816C92.015 49.2055 91.9458 49.8452 91.7011 50.4359C90.1791 54.2345 87.4291 56.9957 83.7957 58.9889C83.5874 59.1013 83.1955 58.9159 82.8872 58.8621C83.0317 58.5675 83.0827 58.1669 83.3238 58.0086C84.044 57.5036 84.856 57.1474 85.5762 56.6424C88.6882 54.4892 90.2772 51.3652 91.4153 47.9766C91.4761 47.7819 91.427 47.5618 91.4305 47.245C91.2073 47.3955 91.0892 47.4683 90.9793 47.5585C90.8924 47.6282 90.8005 47.7105 90.7529 47.7944C88.739 51.1259 85.5501 52.8609 81.899 54.0528C80.1161 54.6353 78.3233 55.2431 76.5928 55.9602C73.7354 57.1506 71.8976 59.3752 70.486 61.9276C70.2185 62.4232 69.5768 63.4191 70.7293 64.1113C71.002 63.2562 71.1319 62.4217 71.5094 61.7203C72.1792 60.4599 72.581 60.2731 73.519 60.5551C73.0332 61.304 72.4753 61.969 72.1305 62.7401C71.9565 63.1107 72.1711 63.6364 72.202 64.0956C72.5285 63.7948 72.9107 63.5431 73.1503 63.1963C73.6722 62.4316 74.0859 61.5987 74.634 60.8435C74.7374 60.693 75.226 60.7834 75.5327 60.7644C75.4949 61.0542 75.5259 61.3978 75.3749 61.6321C75.0499 62.1214 74.5774 62.5283 74.2738 63.0397C74.1507 63.2408 74.3489 63.6161 74.4127 63.9138C74.7244 63.7666 75.1 63.6859 75.3084 63.4579C75.6874 63.0605 75.9255 62.5253 76.3045 62.1279C77.1544 61.2508 77.2725 61.2935 77.6901 62.4131C77.2848 62.801 76.8615 63.1969 76.4284 63.618C76.6841 63.7685 76.7432 63.8477 76.8055 63.8413C80.1873 63.419 83.5641 63.0094 86.9427 62.557C87.2723 62.5174 87.6824 62.348 87.8777 62.1153C88.8048 60.9626 89.9779 59.8702 90.5033 58.5575C91.3965 56.3376 91.9274 53.9719 92.4697 51.6537C92.6981 50.6814 92.5395 49.6268 92.5564 48.6213ZM64.5623 52.1074C64.4886 51.9506 64.3969 51.8018 64.3231 51.645C65.0334 51.2809 65.7732 50.9564 66.4245 50.5131C66.7886 50.2693 67.3186 49.7531 67.2531 49.4982C66.8029 47.8465 66.2133 46.2455 65.6091 44.4513C64.1919 44.9784 62.9715 45.4612 61.7283 45.849C61.4543 45.9376 61.074 45.6842 60.7362 45.5907C60.9052 45.3485 61.0219 44.9716 61.2695 44.8735C62.0716 44.5426 62.918 44.329 63.7233 44.0282C64.0022 43.9269 64.2286 43.691 64.6617 43.3854C64.214 43.2666 64.0665 43.1843 63.9287 43.1922C61.6327 43.4009 59.5741 44.2303 57.8334 45.6663C57.3478 46.0685 56.8587 46.9029 56.9585 47.416C57.2203 48.667 57.7855 49.869 58.3294 51.0487C58.39 51.2008 59.0492 51.2373 59.351 51.1154C59.9317 50.8922 60.4599 50.5344 61.0488 50.213C61.6629 52.0975 59.6345 51.5794 59.1699 52.5817C60.2696 54.1796 61.4151 55.852 62.5311 57.4847C63.5628 57.1792 64.2505 56.0265 65.7982 56.8185C64.7828 57.39 64.0348 57.8127 63.1375 58.3114C64.4682 60.1231 65.74 61.9712 67.1577 63.7133C67.3986 64.0174 68.2071 63.9779 68.7319 63.9368C68.9189 63.9178 69.0717 63.4095 69.1899 63.1055C69.4657 62.3961 69.694 61.6551 69.9961 60.9552C70.1767 60.5293 70.4492 60.1366 70.6822 59.7297C70.6101 59.6458 70.538 59.5618 70.4708 59.4652C69.9672 59.7597 69.4914 60.1365 68.9469 60.3438C68.6811 60.4499 68.2942 60.2519 67.9597 60.1885C68.0943 59.9193 68.1535 59.5361 68.3799 59.4158C69.1148 58.9884 69.9087 58.6401 70.9027 58.162C68.114 56.5591 68.5828 53.5062 67.5147 51.096C66.4649 51.6405 65.7281 52.5731 64.5623 52.1074ZM50.1197 88.439C50.1654 88.8602 50.0978 89.5728 50.2945 89.6441C51.098 89.964 51.9933 90.0861 52.8591 90.2842C54.8547 90.7326 56.8471 91.1509 58.823 91.65C59.0296 91.6959 59.1409 92.1409 59.2949 92.399C59.0423 92.5099 58.7405 92.7473 58.5257 92.684C56.1628 92.1025 53.8196 91.4703 51.4517 90.9015C50.9467 90.7764 50.3989 90.838 49.8807 90.8237C50.2889 91.0439 50.6676 91.3401 51.0923 91.4795C52.7517 92.0228 54.3962 92.7198 56.1016 92.9908C59.87 93.5757 63.6793 94.2476 67.5284 93.8935C70.1853 93.642 72.8209 93.1373 75.4582 92.7054C75.6812 92.6705 75.9881 92.3048 76.0144 92.0831C76.0541 91.4038 75.9741 90.7245 75.9383 90.0467C67.1881 92.2671 58.7509 91.4505 50.1197 88.439ZM75.832 49.0655C75.3433 48.9752 74.7858 48.7154 74.3905 48.8468C73.1817 49.2615 71.9236 49.6872 70.877 50.3775C69.9026 51.0361 69.3396 52.0606 69.4127 53.3733C69.5136 54.9996 70.0246 56.3409 71.4395 57.2437C71.9542 57.5747 72.4151 57.5827 73.0582 57.122C74.5592 56.0327 76.1636 55.0243 77.8646 54.2676C78.7537 53.8671 78.931 53.4111 78.7411 52.7064C78.3237 51.1244 77.7488 49.601 75.832 49.0655ZM65.2024 34.1442C64.8731 33.4901 64.7539 32.5653 63.8515 33.4235C61.5856 35.5942 60.0117 38.1022 60.179 41.3278C60.1969 41.6667 60.2771 41.9993 60.3311 42.3223C60.799 41.2345 60.9733 40.1704 61.2051 39.1127C61.2495 38.8831 61.4824 38.7073 61.5973 38.4888C62.1144 37.5055 62.4642 36.4905 63.2453 35.5595C63.7851 34.9025 64.1659 34.3467 65.2024 34.1442ZM59.1532 43.0806C58.4386 42.3015 58.0568 41.6284 57.4698 41.329C56.1402 40.6305 54.7465 39.9811 53.2986 39.5866C52.1492 39.2713 50.893 39.3076 49.6712 39.2551C49.481 39.244 49.1643 39.5195 49.1216 39.7064C49.0723 39.9486 49.1787 40.2907 49.3443 40.4807C49.4295 40.5694 49.833 40.4555 50.0544 40.3478C50.3973 40.1974 53.6312 40.3863 53.9394 40.5558C54.9084 41.0658 55.8691 41.674 56.8988 41.9893C57.4858 42.1731 57.9483 42.2539 58.1907 42.862C58.2267 42.9617 58.5908 42.9491 59.1532 43.0806ZM55.8118 34.5862C56.7619 36.8381 57.7251 39.0947 58.7686 41.5683C59.3974 40.1053 57.3596 35.2626 55.8118 34.5862ZM89.5832 62.0395C91.0528 61.647 92.2092 61.3289 93.3786 61.0155C93.3737 60.9126 93.382 60.8144 93.3771 60.7115C92.6738 60.3266 91.9786 59.9591 91.349 59.6154C90.7402 60.4498 90.2528 61.1259 89.5832 62.0395ZM65.6668 64.0836C65.7505 63.9839 65.8161 63.8921 65.8998 63.7923C64.9558 62.5254 64.0167 61.2458 63.0727 59.9788C62.9858 60.0485 62.8857 60.1134 62.7987 60.1831C63.4099 61.3439 64.003 62.5126 64.6863 63.6417C64.8272 63.8951 65.3307 63.9474 65.6668 64.0836ZM34.5515 58.0857C35.5616 58.4516 36.3617 58.7415 37.3586 59.1027C36.2247 57.1311 36.2247 57.1311 34.5515 58.0857ZM50.5395 54.6866C50.9179 55.5607 51.436 55.8062 52.1086 55.3851C52.2267 55.3123 52.2022 55.0288 52.2449 54.842C51.6792 54.796 51.1003 54.7452 50.5395 54.6866Z" fill="white" stroke="white"/>
<path d="M77.167 43.4241C76.4099 44.7973 75.9315 46.1846 74.2769 46.5543C74.0309 46.6098 73.6603 46.6781 73.5143 46.5531C72.3955 45.6574 70.7946 45.1942 70.5365 43.4684C70.3227 42.0909 70.0155 40.7229 69.6952 39.3502C69.4619 38.3702 69.8519 37.6733 70.6865 37.1805C71.8523 36.4895 73.5268 36.6471 74.5685 37.4716C76.0105 38.6141 77.4886 39.7408 77.4058 41.8057C77.3831 42.4042 77.2324 42.9854 77.167 43.4241ZM74.467 42.0145C74.4408 42.005 74.4063 41.9781 74.3801 41.9686C74.4784 41.7152 74.5717 41.4745 74.67 41.2211C75.3336 39.5107 74.6557 38.211 72.7679 37.8318C72.271 37.7244 71.4822 37.8293 71.1953 38.1445C70.8576 38.5136 70.7988 39.2436 70.863 39.7725C71.0111 41.0106 71.2969 42.2408 71.5926 43.4457C71.6813 43.7956 71.9784 44.2641 72.2851 44.3606C72.5656 44.4475 73.1116 44.1971 73.3214 43.9262C73.782 43.356 74.0966 42.6607 74.467 42.0145ZM73.6271 45.6837C74.2109 45.3747 74.6946 45.2462 74.9766 44.9436C75.9651 43.8997 76.6103 41.6192 76.2656 40.8878C75.4429 42.3529 74.6186 43.8607 73.6271 45.6837Z" fill="white" stroke="white"/>
<path d="M50.0196 45.7153C50.4472 44.613 51.7098 44.0582 52.8432 44.4535C53.8536 44.8188 54.5693 46.4067 54.1514 47.368C53.7566 48.3088 52.2414 48.8589 51.1835 48.462C50.0681 48.0588 49.5592 46.8635 50.0196 45.7153ZM53.4822 47.0105C53.0424 46.3314 52.824 45.6601 52.5239 45.6238C52.0122 45.5544 51.458 45.903 50.9103 46.0806C51.1679 46.535 51.3076 47.1778 51.6947 47.3755C52.0474 47.5464 52.659 47.2041 53.4822 47.0105Z" fill="white" stroke="white"/>
<path d="M83.5318 44.9584C83.1812 45.9007 81.4972 46.5776 80.5098 46.1917C79.6142 45.839 78.8428 44.2021 79.1934 43.3754C79.5195 42.612 81.3887 41.7275 82.1186 42.0059C83.1061 42.3918 83.8824 44.016 83.5318 44.9584ZM80.2889 43.3669C80.2168 43.5142 80.1496 43.6489 80.0644 43.7914C80.4106 44.2489 80.6585 44.8441 81.1227 45.1131C81.3655 45.2587 82.1591 44.9099 82.3443 44.5868C82.5197 44.289 82.3045 43.4167 82.1028 43.3582C81.55 43.2017 80.8973 43.3413 80.2889 43.3669Z" fill="white" stroke="white"/>
<path d="M40.0916 74.8615C39.7867 75.1847 39.2865 75.1627 39.0451 74.512C38.2177 72.2481 37.4525 69.9778 36.7103 67.6869C36.6348 67.4574 36.9544 67.0962 37.0986 66.8016C37.3398 66.9899 37.7154 67.1402 37.791 67.3697C38.5726 69.7904 39.2919 72.2175 40.0916 74.8615Z" fill="white" stroke="white"/>
<path d="M78.8636 66.6323C77.4824 67.2603 75.5922 67.155 74.9979 66.4488C76.0165 65.5596 78.4038 65.6567 78.8636 66.6323Z" fill="white" stroke="white"/>
<path d="M37.8403 65.6988C37.1659 65.5851 36.5621 65.5981 36.5358 65.4729C36.332 64.6476 35.8591 63.7829 36.6644 62.9033C37.9477 63.454 37.0211 64.7234 37.8403 65.6988Z" fill="white" stroke="white"/>
<path d="M88.0585 77.6422C87.8499 77.1766 87.5873 76.8504 87.661 76.6602C87.7529 76.4622 88.2171 76.2687 88.4321 76.332C88.6601 76.4 88.9245 76.7991 88.8934 77.0335C88.9 77.2094 88.4817 77.3616 88.0585 77.6422Z" fill="white" stroke="white"/>
<path d="M63.0214 92.2386C62.3752 93.0167 60.7181 93.1981 60.3094 92.7468C60.2027 92.6359 60.1337 92.3508 60.2042 92.2462C60.3075 92.0957 60.5486 91.9372 60.7258 91.9434C61.4248 91.9938 62.1123 92.1123 63.0214 92.2386Z" fill="white" stroke="white"/>
<path d="M73.7194 40.589C73.1482 39.9778 72.572 39.3793 72.0008 38.7681C72.0861 38.6254 72.1664 38.4955 72.2517 38.3529C72.7768 38.5427 73.4709 38.6058 73.7811 38.9636C74.0782 39.3168 73.9997 39.9822 74.0951 40.5081C73.9655 40.5335 73.849 40.5636 73.7194 40.589Z" fill="white" stroke="white"/>
</svg>
