<svg width="125" height="125" viewBox="0 0 125 125" fill="none" xmlns="http://www.w3.org/2000/svg">
<circle cx="62.3064" cy="62.3064" r="62.3064" fill="#4A2199"/>
<path d="M89.208 60.7796C88.4605 55.0653 86.3248 49.8705 82.5873 45.6108C83.228 44.7796 83.9755 44.1562 84.723 43.429C85.0434 43.7407 85.4705 44.1562 85.8977 44.2601C86.752 44.5718 87.3927 43.7407 87.8198 43.1173C88.3538 42.39 89.1013 41.5588 88.6741 40.6238C88.247 39.5848 86.6452 38.6497 85.7909 37.9225C84.8298 37.1952 83.6552 35.9484 82.3737 35.5328C81.3059 35.1173 80.4516 35.9484 79.8109 36.6757C79.277 37.2991 78.743 37.8186 79.0634 38.6497C79.277 39.0653 79.4905 39.377 79.9177 39.6887C79.277 40.3121 78.743 40.9355 78.2091 41.5588C75.1123 39.4809 71.3748 38.2341 67.6373 37.6108C67.5305 36.9874 67.5305 36.364 67.5305 35.7406C68.0644 35.7406 68.5984 35.7406 69.0255 35.5328C70.2002 35.1173 70.307 34.4939 70.307 33.2471C70.4137 31.6887 70.6273 29.1952 69.2391 28.1562C67.6373 27.0134 63.793 27.5328 61.9777 27.5328C58.2402 27.6367 53.1144 26.5978 52.9009 31.2731C52.9009 32.2082 52.5805 34.39 53.4348 35.1173C53.9687 35.5328 54.9298 35.7406 55.8909 35.8445C55.8909 36.4679 55.8909 37.1952 55.8909 37.8186C55.8909 37.9225 55.8909 37.9225 55.8909 38.0264C47.348 40.2082 40.0866 46.0264 36.6694 54.3381C32.5048 64.5199 35.1744 77.8186 44.2512 84.8836C47.6684 87.481 51.4059 89.8706 55.7841 90.494C62.4048 91.429 69.773 91.1173 75.8598 87.8966C79.9177 85.8186 83.8687 82.0784 86.218 78.2342C89.4216 73.455 89.9555 66.2861 89.208 60.7796ZM82.1602 37.1952C82.9077 37.2991 84.1891 38.6497 84.723 39.0653C85.3638 39.5848 86.218 40.1043 86.752 40.7277C87.2859 41.4549 86.8588 42.1822 86.218 42.7017C85.1502 42.0783 84.1891 41.1432 83.228 40.416C82.3737 39.7926 81.3059 39.0653 80.6652 38.1303C81.0923 37.7147 81.733 37.0913 82.1602 37.1952ZM81.0923 40.7277C81.5195 41.0393 82.0534 41.351 82.4805 41.6627C82.8009 41.9744 83.228 42.1822 83.5484 42.4939C82.9077 43.1173 82.267 43.8445 81.6262 44.4679C81.1991 43.9484 80.6652 43.5329 80.238 43.1173C80.0245 42.9095 79.7041 42.7017 79.4905 42.4939C80.0245 41.9744 80.5584 41.351 81.0923 40.7277ZM54.3959 33.2471C54.2891 32.8315 54.2891 31.7926 54.3959 31.377C54.7162 29.7147 55.6773 29.5069 57.3859 29.2991C58.8809 29.0913 60.4827 29.1952 61.9777 29.0913C63.3659 29.0913 64.7541 28.9874 66.1423 29.1952C67.6373 29.2991 68.278 29.2991 68.7052 30.7536C68.9187 31.2731 69.0255 32.8315 68.8119 33.351C68.278 34.7017 67.1034 34.2861 65.6084 34.2861C63.8998 34.2861 62.298 34.39 60.5894 34.39C58.9877 34.4939 54.9298 35.0134 54.3959 33.2471ZM57.3859 35.9484C58.4537 35.9484 59.5216 35.8445 60.1623 35.8445C61.7641 35.8445 63.4727 35.7406 65.0744 35.7406C65.3948 35.7406 65.7152 35.7406 66.0355 35.7406C66.0355 36.2601 66.0355 36.8835 66.1423 37.403C64.9677 37.2991 63.8998 37.1952 62.8319 37.1952C61.0166 37.1952 59.2012 37.403 57.3859 37.8186C57.3859 37.1952 57.3859 36.5718 57.3859 35.9484ZM86.752 73.9745C85.3638 78.6498 81.4127 82.3901 77.5684 85.2991C72.763 88.7277 66.8898 89.6628 61.0166 89.5589C55.7841 89.455 52.1534 88.416 47.9887 85.7147C38.9119 79.8965 34.5337 68.8835 36.9898 58.7017C39.7662 46.9614 50.5516 38.9614 62.8319 38.6497C74.792 38.8575 84.2959 45.9225 87.1791 57.3511C88.4605 62.6498 88.247 68.7796 86.752 73.9745Z" fill="white" stroke="white"/>
<path d="M76.0735 46.8578C75.9667 46.7539 75.9667 46.7539 75.9667 46.7539C67.6374 41.1435 56.6385 40.9357 48.5228 46.9617C40.8342 52.676 37.5239 62.7539 40.1935 71.7928C42.6496 80.2084 54.1824 87.0656 62.8321 86.5461C65.6085 86.3383 68.8121 85.9227 71.1614 84.4682C75.1124 82.1825 78.9567 78.3383 81.5196 74.7019C88.0335 65.3513 84.8299 53.5071 76.0735 46.8578ZM83.1214 59.9487C84.296 66.3903 82.0535 72.5201 77.4617 77.2993C74.4717 80.4162 71.2682 83.5331 66.8899 84.4682C62.0846 85.5071 57.2792 85.1954 52.901 82.8058C47.8821 80.2084 42.436 75.8448 41.3682 70.1305C40.1935 64.3123 41.1546 57.8708 44.6785 52.8838C51.7264 43.1175 65.2882 41.3513 75.1124 48.0006C79.0635 51.0136 82.2671 55.1695 83.1214 59.9487Z" fill="white" stroke="white"/>
<path d="M72.1234 52.9875C69.2402 55.7927 66.4638 58.5979 63.5806 61.4031C62.5127 60.5719 61.0177 60.3641 59.8431 61.2992C58.5616 62.3382 58.0277 64.8317 59.2023 65.9745C60.377 67.1174 62.6195 67.3252 63.9009 66.2862C65.0756 65.2473 65.1823 63.7927 64.4348 62.546C67.3181 59.7408 70.2013 56.8317 73.0845 54.0265C73.832 53.2992 72.7641 52.3641 72.1234 52.9875ZM60.4838 65.1434C59.8431 64.6239 59.9498 63.3771 60.377 62.7538C61.0177 61.9226 62.1923 61.9226 62.8331 62.7538C62.8331 62.7538 62.8331 62.7538 62.9398 62.8576V62.9615C64.5416 64.6239 62.1923 66.3901 60.4838 65.1434Z" fill="white" stroke="white"/>
<path d="M53.5403 49.2472C48.6281 51.8446 45.9585 56.6239 44.677 61.8187C44.4635 62.7538 45.8517 63.0655 46.0653 62.2343C47.2399 57.3511 49.5892 52.8836 54.181 50.494C55.142 50.0784 54.3945 48.8316 53.5403 49.2472Z" fill="white" stroke="white"/>
<path d="M45.1059 65.2471C44.1444 65.2471 44.1444 66.7023 45.1059 66.7023C46.0674 66.7023 46.0674 65.2471 45.1059 65.2471Z" fill="white" stroke="white"/>
<path d="M62.6179 32.7288C62.6179 32.0012 62.511 31.3775 62.511 30.6499C62.4042 29.7144 60.9085 29.7144 61.0153 30.6499C61.0153 31.3775 61.1222 32.0012 61.1222 32.7288C61.229 33.6643 62.6179 33.6643 62.6179 32.7288Z" fill="white" stroke="white"/>
<path d="M66.4636 32.1055C66.4636 31.5857 66.4636 30.9621 66.3568 30.4423C66.3568 29.5068 64.8611 29.5068 64.8611 30.4423C64.8611 30.9621 64.8611 31.5857 64.9679 32.1055C64.9679 33.041 66.4636 33.041 66.4636 32.1055Z" fill="white" stroke="white"/>
<path d="M58.3476 32.7288C58.2408 32.1051 58.2408 31.4815 58.2408 30.8578C58.3476 29.9224 56.852 29.9224 56.7451 30.8578C56.7451 31.5854 56.7451 32.313 56.852 33.1445C56.9588 33.976 58.4545 33.5603 58.3476 32.7288Z" fill="white" stroke="white"/>
</svg>
