<svg width="126" height="125" viewBox="0 0 126 125" fill="none" xmlns="http://www.w3.org/2000/svg">
<circle cx="63.0576" cy="62.3064" r="62.3064" transform="rotate(-180 63.0576 62.3064)" fill="#4A2199" fill-opacity="0.5"/>
<path d="M79.7994 42.3075C72.9458 41.339 65.565 44.7287 63.2454 50.6364C62.0855 47.8278 59.555 45.4066 56.7081 43.9539C51.8579 41.4359 47.1131 41.4359 41.9466 43.4697C37.9399 45.0192 34.8821 49.0868 33.1951 52.5734C31.0863 57.0284 32.1407 62.4518 33.5114 67.0037C33.7223 67.8753 35.1984 67.4879 34.8821 66.6163C32.7733 59.0622 33.0896 50.7332 40.5759 45.6972C44.0554 43.3728 50.1709 42.5012 54.0721 44.1476C58.1843 45.8909 62.191 49.1837 62.5073 53.6387C62.6127 54.5103 63.878 54.5103 63.9834 53.6387C64.7215 45.6003 75.4764 41.339 82.9626 44.6318C90.976 48.1184 94.35 57.9968 91.7141 65.4541C90.027 70.1997 83.4898 69.0375 79.1667 69.0375C76.7416 69.0375 74.2111 69.0375 71.786 69.0375C71.4697 69.0375 70.0989 69.0375 70.0989 69.0375C69.6772 68.8438 68.7282 66.132 68.5173 65.551C68.201 64.7762 67.1466 64.9699 67.0412 65.7447C66.514 69.2312 65.565 72.6208 64.827 76.1074C64.0889 70.2965 63.7726 64.4856 62.7182 58.7716C62.6127 58.0937 61.4529 58.1905 61.3475 58.7716C60.2931 62.7424 59.3441 66.81 58.2897 70.7807C57.8679 68.9406 57.3408 67.0037 56.919 65.1636C56.8136 64.5825 55.6537 64.4856 55.5483 65.1636C55.4428 66.132 55.1265 68.6501 54.4939 69.0375C54.0721 69.328 52.2797 69.0375 51.647 69.0375C49.011 69.0375 46.2696 69.0375 43.6336 69.0375C40.6813 69.0375 36.1474 68.4564 36.2528 72.524C36.3583 74.6547 38.4671 76.7853 39.8378 78.3349C41.8411 80.5624 44.1608 82.4993 46.5859 84.3394C51.647 88.0196 57.3408 90.8282 62.8236 93.9274C63.0345 94.0242 63.3508 94.0242 63.5617 93.9274C73.473 88.9881 81.4864 82.4993 88.5509 74.3641C89.1835 73.6862 88.1291 72.7177 87.4965 73.3956C82.8571 78.8191 77.6906 83.8552 71.4697 87.826C69.4663 89.085 65.1433 92.6683 62.7182 92.3778C61.5583 92.1841 59.9767 90.9251 58.9223 90.344C57.3407 89.4724 55.8646 88.6976 54.283 87.826C50.9089 85.889 47.6403 83.8552 44.688 81.434C42.8955 79.9813 34.144 72.2335 39.9432 70.587C42.1575 70.006 45.7424 70.587 48.0621 70.6839C50.3817 70.6839 52.596 70.6839 54.9156 70.6839C55.232 70.6839 55.5483 70.4902 55.6537 70.1997C55.8646 69.7154 55.97 69.1343 56.1809 68.6501C56.6027 70.4902 57.1299 72.4272 57.5516 74.2673C57.6571 74.9452 58.8169 74.9452 58.9223 74.2673C59.8713 70.4902 60.8203 66.6163 61.7692 62.8392C62.6127 68.8438 62.929 74.8483 63.9834 80.8529C64.0889 81.6277 65.3542 81.3372 65.4596 80.6592C65.9868 76.5916 67.2521 72.6208 68.0956 68.6501C68.6228 69.6186 69.2554 70.4902 70.6261 70.6839C74.0002 71.1681 77.9015 70.6839 81.1701 70.6839C84.2278 70.6839 88.34 71.265 90.976 69.4249C93.1902 67.7785 93.612 64.7762 93.9283 62.355C94.6664 53.5418 89.7107 43.6634 79.7994 42.3075Z" fill="white" stroke="white"/>
</svg>
