<svg width="125" height="125" viewBox="0 0 125 125" fill="none" xmlns="http://www.w3.org/2000/svg">
<circle cx="62.3059" cy="62.3064" r="62.3064" transform="rotate(-180 62.3059 62.3064)" fill="#FF597B"/>
<path d="M82.7768 62.9872C80.5039 59.4409 77.798 55.7903 76.6074 51.7226C75.0921 46.1945 76.2827 39.7278 79.2051 34.8256C79.638 33.9911 78.3392 33.261 77.9062 34.0954C73.2521 41.9181 73.5768 50.7838 78.1227 58.5022C78.8803 59.7538 79.7462 61.0055 80.5039 62.2571C68.7062 65.1776 57.0168 64.5518 45.1109 62.8829C46.518 60.5883 48.0333 58.1893 48.7909 55.5817C51.1721 48.3849 50.5227 40.7708 47.2756 33.9911C46.9509 33.1567 45.6521 33.9911 45.9768 34.8256C50.198 43.587 49.1156 53.3914 44.1368 61.7356C40.1321 68.4109 36.6685 76.7551 39.9156 84.4735C40.2403 85.308 41.7556 84.995 41.3227 84.0563C39.2662 79.2584 40.1321 73.4175 41.9721 68.7239C42.5133 67.1593 43.2709 65.8034 44.1368 64.3432C49.9815 66.5335 53.878 72.6874 56.8003 77.6939C57.8827 79.5713 58.6403 81.7617 59.9391 83.5348C60.9133 84.995 62.2121 84.7864 64.0521 84.5778C64.2686 84.5778 64.485 84.2649 64.5933 84.0563C65.5674 78.5283 69.2474 73.939 73.2521 70.0798C75.4168 67.9937 78.2309 64.969 81.2615 63.7173C82.1274 65.1776 82.9933 66.7421 83.4262 68.5153C84.8333 73.4175 85.0498 78.9455 83.8592 83.952C83.6427 84.8907 85.0498 85.2036 85.2662 84.3692C86.998 77.381 86.5651 68.9325 82.7768 62.9872ZM73.5768 67.6808C69.5721 71.2271 65.7839 75.5035 63.9439 80.51C63.4027 81.866 63.078 84.0563 61.238 82.3875C60.5886 81.866 60.2639 80.4057 59.9391 79.6756C58.6403 77.1724 57.125 74.7734 55.5015 72.4787C53.445 69.6626 51.1721 66.7421 48.2497 64.6561C58.0991 65.8034 67.7321 66.1163 77.4733 64.3432C75.958 65.4905 74.7674 66.7421 73.5768 67.6808Z" fill="white" stroke="white"/>
<path d="M62.4293 56.6254C63.4038 56.6254 63.4038 55.1646 62.4293 55.1646C61.4547 55.1646 61.4547 56.6254 62.4293 56.6254Z" fill="white" stroke="white"/>
<path d="M44.1364 69.6624C42.7294 71.9571 42.0799 74.5646 42.2964 77.2765C42.4047 78.2152 43.9199 78.2152 43.8117 77.2765C43.5952 74.7732 44.1364 72.4786 45.4352 70.3925C45.8682 69.5581 44.5693 68.828 44.1364 69.6624Z" fill="white" stroke="white"/>
<path d="M42.4044 79.6761C42.4044 80.6153 43.9204 80.6153 43.9204 79.6761C43.8121 78.7369 42.4044 78.7369 42.4044 79.6761Z" fill="white" stroke="white"/>
</svg>
