<svg width="125" height="125" viewBox="0 0 125 125" fill="none" xmlns="http://www.w3.org/2000/svg">
<circle cx="62.5667" cy="62.3064" r="62.3064" transform="rotate(-180 62.5667 62.3064)" fill="#D32929"/>
<path d="M82.2138 47.1235C79.8274 46.2942 77.5494 46.3979 75.2714 46.9162C75.3799 46.8125 75.5968 46.7088 75.7053 46.5015C78.2002 43.599 79.0681 39.2453 77.7663 35.7209C77.7663 35.6172 77.6579 35.6172 77.6579 35.5136C77.6579 35.2026 77.4409 34.8916 76.8985 34.8916C71.0409 35.3062 65.9425 39.349 64.3154 44.532C63.0137 40.8002 60.0848 37.2758 56.9391 35.0989C56.7221 34.8916 56.5052 34.8916 56.2882 34.9953C56.2882 34.9953 56.2882 34.9953 56.1797 34.9953L56.0713 35.0989C56.0713 35.0989 55.9628 35.0989 55.9628 35.2026C54.7696 36.4465 54.1187 38.3124 53.6848 39.9709C53.5763 40.2819 53.6848 40.4892 53.7933 40.5929C53.9017 40.6966 54.0102 40.8002 54.1187 40.8002C58.3492 42.0441 61.495 45.1539 62.5798 49.1967C57.9153 48.4711 53.9017 45.6722 48.9119 46.1905C44.0305 46.8125 40.2338 50.026 38.1728 54.1724C33.2914 65.1603 39.2576 78.0142 46.6339 86.5143C50.539 90.9717 54.1187 90.4534 59.3255 88.7948C63.1222 87.5509 65.7256 88.2765 69.5222 89.2094C71.5832 89.7277 73.8612 90.246 76.0307 89.9351C81.1291 89.2094 84.4918 83.1972 86.3359 79.1544C89.0478 73.1421 91.1088 67.0262 91.0004 60.392C90.7834 54.898 87.8546 49.1967 82.2138 47.1235ZM76.3562 36.5502C77.3325 39.66 76.4646 43.7027 74.0782 46.0869C71.8002 48.2637 68.329 48.9894 65.2917 49.404C65.2917 49.3003 65.2917 49.3003 65.2917 49.1967C64.8578 42.9771 69.9561 37.2758 76.3562 36.5502ZM55.5289 39.8673C55.8543 38.8307 56.1797 37.7941 56.8306 36.8611C59.6509 39.038 62.2544 42.5624 63.2306 46.0869C61.6035 43.1844 58.7831 41.0075 55.5289 39.8673ZM79.3935 86.5143C74.4036 90.9717 68.7629 86.2033 63.1222 86.4106C60.4103 86.5143 58.0238 87.8619 55.5289 88.4838C50.9729 89.6241 48.261 86.4106 45.983 83.0935C42.0779 77.4959 38.6067 71.4836 38.0643 64.642C37.6304 57.9041 40.7762 49.3003 48.6949 47.9528C54.3356 46.9162 58.6747 50.5443 64.0984 50.9589C64.2069 50.9589 64.3154 50.9589 64.4239 50.9589C65.9425 50.9589 67.4612 50.6479 68.9798 50.1296C69.7392 49.9223 70.39 49.715 71.0409 49.5077C74.1867 48.4711 77.4409 47.3308 80.6952 48.2637C89.6987 50.6479 90.241 61.3249 88.5054 68.4774C87.2037 74.5934 84.3834 82.1606 79.3935 86.5143Z" fill="white" stroke="white"/>
<path d="M50.4297 52.0989C45.2228 54.1721 42.7279 60.288 43.5957 65.2637C43.7042 66.1967 45.2228 65.782 45.0059 64.8491C44.2466 60.8063 46.5246 55.2087 50.7551 53.5501C51.6229 53.1355 51.2975 51.7879 50.4297 52.0989Z" fill="white" stroke="white"/>
<path d="M44.5724 68.27C43.5957 68.27 43.5957 69.7219 44.5724 69.7219C45.5492 69.7219 45.5492 68.27 44.5724 68.27Z" fill="white" stroke="white"/>
</svg>
