<svg width="44" height="44" viewBox="0 0 44 44" fill="none" xmlns="http://www.w3.org/2000/svg">
<rect width="44.0006" height="44.0006" rx="16" fill="#6855C8" fill-opacity="0.08"/>
<path fill-rule="evenodd" clip-rule="evenodd" d="M14.9899 31.4845C15.7865 31.5266 16.6313 31.337 17.3916 31.0877C18.164 30.8344 18.9202 30.4954 19.5587 30.1833C19.7565 30.0866 19.9521 29.9878 20.1365 29.8932C20.1693 29.9884 20.2023 30.0783 20.2324 30.1589C20.162 30.2193 20.0768 30.3089 20.0063 30.4325C19.9239 30.5769 19.8434 30.8016 19.8748 31.0768C19.9062 31.3517 20.0349 31.5505 20.1466 31.6706C20.3273 31.865 20.5319 31.9303 20.5745 31.9439L20.5774 31.9448C20.6498 31.968 20.7106 31.9785 20.7417 31.9833C20.8499 32 20.9651 32.0004 21.0267 32.0004C21.2405 32.0004 21.5403 31.9643 21.82 31.7822C22.0797 31.7261 22.3934 31.656 22.7182 31.5737C23.2815 31.4309 23.9412 31.2369 24.5042 30.9795C24.7855 30.8509 25.0775 30.691 25.3303 30.4898L25.3404 30.4817C25.4277 30.7217 25.4981 30.9678 25.5329 31.1603C25.5883 31.4667 25.7755 31.7308 26.0418 31.8782C26.3082 32.0256 26.6251 32.0405 26.9034 31.9187L26.9059 31.9176L26.914 31.9141L26.9464 31.9L27.0709 31.8459C27.1788 31.7991 27.3337 31.7322 27.5214 31.6519C27.8973 31.4912 28.4028 31.2773 28.9239 31.0638C29.4471 30.8495 29.9771 30.6393 30.4048 30.484C30.6197 30.406 30.7975 30.346 30.93 30.3067C31.0037 30.2849 31.045 30.2753 31.0612 30.2715C31.0633 30.271 31.0664 30.2703 31.0664 30.2703C31.5878 30.2366 32.0005 29.7899 32.0005 29.2438C32.0006 28.6757 31.554 28.215 31.003 28.215C30.774 28.215 30.5224 28.287 30.3798 28.3292C30.1929 28.3845 29.9735 28.4595 29.7422 28.5434C29.2775 28.7122 28.7189 28.934 28.1873 29.1518C27.8179 29.3031 27.4571 29.4541 27.1435 29.587C27.0201 29.2722 26.8741 28.9656 26.7152 28.7106C26.6184 28.5553 26.4957 28.3845 26.3446 28.2359C26.2057 28.0993 25.9592 27.8981 25.6107 27.8349C25.1932 27.7591 24.8117 27.912 24.5437 28.1771C24.3397 28.3789 24.2185 28.6253 24.1411 28.836C24.1336 28.8428 24.1237 28.8512 24.1112 28.8611C24.0313 28.9247 23.8963 29.0069 23.6955 29.0986C23.2943 29.282 22.7695 29.4421 22.2421 29.5757L22.1603 29.5962L22.115 29.4739C22.0227 29.2251 21.9585 29.0522 21.9249 28.8955C21.9228 28.8855 21.921 28.8764 21.9194 28.868C21.9363 28.8368 21.9536 28.802 21.9695 28.7641L21.9703 28.7624C21.9981 28.6966 22.1562 28.3225 21.9634 27.8935C21.7249 27.3626 21.2292 27.2963 21.0924 27.2887C20.929 27.2795 20.7976 27.3126 20.7482 27.3257C20.557 27.3762 20.3294 27.4912 20.1851 27.5643C20.0412 27.6371 19.8885 27.7172 19.7226 27.8041C19.4323 27.9564 19.101 28.1302 18.7039 28.3243C18.1037 28.6178 17.4382 28.9135 16.787 29.1271C16.1236 29.3446 15.5426 29.4536 15.0922 29.4298C14.542 29.4007 14.073 29.8371 14.0448 30.4044C14.0165 30.9718 14.4397 31.4554 14.9899 31.4845ZM24.162 28.8151C24.162 28.8151 24.1614 28.8159 24.16 28.8174L24.162 28.8151ZM21.9104 28.7933C21.9104 28.7933 21.9109 28.7978 21.9105 28.8055C21.9099 28.797 21.9104 28.7933 21.9104 28.7933Z" fill="white"/>
<path fill-rule="evenodd" clip-rule="evenodd" d="M14.9899 31.4845C15.7865 31.5266 16.6313 31.337 17.3916 31.0877C18.164 30.8344 18.9202 30.4954 19.5587 30.1833C19.7565 30.0866 19.9521 29.9878 20.1365 29.8932C20.1693 29.9884 20.2023 30.0783 20.2324 30.1589C20.162 30.2193 20.0768 30.3089 20.0063 30.4325C19.9239 30.5769 19.8434 30.8016 19.8748 31.0768C19.9062 31.3517 20.0349 31.5505 20.1466 31.6706C20.3273 31.865 20.5319 31.9303 20.5745 31.9439L20.5774 31.9448C20.6498 31.968 20.7106 31.9785 20.7417 31.9833C20.8499 32 20.9651 32.0004 21.0267 32.0004C21.2405 32.0004 21.5403 31.9643 21.82 31.7822C22.0797 31.7261 22.3934 31.656 22.7182 31.5737C23.2815 31.4309 23.9412 31.2369 24.5042 30.9795C24.7855 30.8509 25.0775 30.691 25.3303 30.4898L25.3404 30.4817C25.4277 30.7217 25.4981 30.9678 25.5329 31.1603C25.5883 31.4667 25.7755 31.7308 26.0418 31.8782C26.3082 32.0256 26.6251 32.0405 26.9034 31.9187L26.9059 31.9176L26.914 31.9141L26.9464 31.9L27.0709 31.8459C27.1788 31.7991 27.3337 31.7322 27.5214 31.6519C27.8973 31.4912 28.4028 31.2773 28.9239 31.0638C29.4471 30.8495 29.9771 30.6393 30.4048 30.484C30.6197 30.406 30.7975 30.346 30.93 30.3067C31.0037 30.2849 31.045 30.2753 31.0612 30.2715C31.0633 30.271 31.0664 30.2703 31.0664 30.2703C31.5878 30.2366 32.0005 29.7899 32.0005 29.2438C32.0006 28.6757 31.554 28.215 31.003 28.215C30.774 28.215 30.5224 28.287 30.3798 28.3292C30.1929 28.3845 29.9735 28.4595 29.7422 28.5434C29.2775 28.7122 28.7189 28.934 28.1873 29.1518C27.8179 29.3031 27.4571 29.4541 27.1435 29.587C27.0201 29.2722 26.8741 28.9656 26.7152 28.7106C26.6184 28.5553 26.4957 28.3845 26.3446 28.2359C26.2057 28.0993 25.9592 27.8981 25.6107 27.8349C25.1932 27.7591 24.8117 27.912 24.5437 28.1771C24.3397 28.3789 24.2185 28.6253 24.1411 28.836C24.1336 28.8428 24.1237 28.8512 24.1112 28.8611C24.0313 28.9247 23.8963 29.0069 23.6955 29.0986C23.2943 29.282 22.7695 29.4421 22.2421 29.5757L22.1603 29.5962L22.115 29.4739C22.0227 29.2251 21.9585 29.0522 21.9249 28.8955C21.9228 28.8855 21.921 28.8764 21.9194 28.868C21.9363 28.8368 21.9536 28.802 21.9695 28.7641L21.9703 28.7624C21.9981 28.6966 22.1562 28.3225 21.9634 27.8935C21.7249 27.3626 21.2292 27.2963 21.0924 27.2887C20.929 27.2795 20.7976 27.3126 20.7482 27.3257C20.557 27.3762 20.3294 27.4912 20.1851 27.5643C20.0412 27.6371 19.8885 27.7172 19.7226 27.8041C19.4323 27.9564 19.101 28.1302 18.7039 28.3243C18.1037 28.6178 17.4382 28.9135 16.787 29.1271C16.1236 29.3446 15.5426 29.4536 15.0922 29.4298C14.542 29.4007 14.073 29.8371 14.0448 30.4044C14.0165 30.9718 14.4397 31.4554 14.9899 31.4845ZM24.162 28.8151C24.162 28.8151 24.1614 28.8159 24.16 28.8174L24.162 28.8151ZM21.9104 28.7933C21.9104 28.7933 21.9109 28.7978 21.9105 28.8055C21.9099 28.797 21.9104 28.7933 21.9104 28.7933Z" fill="#6855C8"/>
<path d="M13.4091 22.0895C13.1767 22.3291 13.0054 22.6242 12.9102 22.9486L12.0861 25.7573C11.8731 26.4833 12.0648 27.2714 12.585 27.8078C13.1052 28.3442 13.8694 28.5419 14.5735 28.3223L17.2975 27.4728C17.612 27.3746 17.8982 27.1979 18.1306 26.9583L25.7343 19.1182L27.138 17.6518C28.2376 16.2993 28.1708 14.2805 26.9377 13.0089C25.6339 11.6644 23.5199 11.6643 22.2161 13.0087L13.4091 22.0895Z" fill="white"/>
<path d="M13.4091 22.0895C13.1767 22.3291 13.0054 22.6242 12.9102 22.9486L12.0861 25.7573C11.8731 26.4833 12.0648 27.2714 12.585 27.8078C13.1052 28.3442 13.8694 28.5419 14.5735 28.3223L17.2975 27.4728C17.612 27.3746 17.8982 27.1979 18.1306 26.9583L25.7343 19.1182L27.138 17.6518C28.2376 16.2993 28.1708 14.2805 26.9377 13.0089C25.6339 11.6644 23.5199 11.6643 22.2161 13.0087L13.4091 22.0895Z" fill="#6855C8"/>
</svg>
