<svg width="44" height="44" viewBox="0 0 44 44" fill="none" xmlns="http://www.w3.org/2000/svg">
<rect width="44" height="44" rx="16" fill="#20C3A3" fill-opacity="0.08"/>
<path d="M31.0004 20.4701C31.0042 20.5373 30.9947 20.6046 30.9724 20.6681C30.95 20.7316 30.9154 20.7901 30.8704 20.8401C30.8225 20.8901 30.765 20.9299 30.7015 20.9574C30.638 20.9849 30.5696 20.9994 30.5004 21.0001H23.0004V13.5201C23.0011 13.4509 23.0156 13.3825 23.0431 13.319C23.0705 13.2554 23.1104 13.198 23.1604 13.1501C23.2084 13.101 23.2661 13.0624 23.3297 13.0366C23.3934 13.0108 23.4617 12.9984 23.5304 13.0001C25.4706 13.1249 27.2989 13.952 28.6737 15.3268C30.0485 16.7015 30.8756 18.5299 31.0004 20.4701ZM28.4804 23.0001H21.0004V15.5201C21.0004 15.4527 20.9869 15.386 20.9605 15.324C20.9341 15.262 20.8955 15.206 20.8469 15.1593C20.7984 15.1126 20.7408 15.0762 20.6779 15.0523C20.6149 15.0284 20.5477 15.0174 20.4804 15.0201C18.9453 15.1195 17.4715 15.6593 16.2354 16.5748C14.9993 17.4904 14.0534 18.7429 13.511 20.1823C12.9685 21.6218 12.8526 23.1871 13.177 24.6907C13.5015 26.1943 14.2525 27.5726 15.3402 28.6603C16.4279 29.748 17.8061 30.499 19.3098 30.8234C20.8134 31.1479 22.3787 31.0319 23.8181 30.4895C25.2576 29.9471 26.5101 29.0012 27.4257 27.7651C28.3412 26.529 28.881 25.0551 28.9804 23.5201C28.9831 23.4528 28.9721 23.3856 28.9482 23.3226C28.9243 23.2596 28.8879 23.2021 28.8412 23.1536C28.7945 23.105 28.7385 23.0664 28.6764 23.04C28.6144 23.0136 28.5477 23.0001 28.4804 23.0001Z" fill="#20C3A3"/>
</svg>
