<svg width="44" height="44" viewBox="0 0 44 44" fill="none" xmlns="http://www.w3.org/2000/svg">
<rect width="44.0006" height="44.0006" rx="16" fill="#FFB233" fill-opacity="0.08"/>
<path d="M22.934 26.0728L29.3605 20.957L29.5187 20.8318C30.1682 20.3175 30.2778 19.3741 29.7635 18.7246C29.6923 18.6347 29.611 18.5532 29.5212 18.4818L22.9344 13.2429C22.3878 12.8082 21.6136 12.8082 21.067 13.2429L14.4754 18.485C13.827 19.0007 13.7194 19.9443 14.2351 20.5927C14.3055 20.6813 14.3858 20.7617 14.4744 20.8322L14.6305 20.9566L21.0663 26.0734C21.6131 26.5081 22.3875 26.5079 22.934 26.0728Z" fill="#FFB233"/>
<path fill-rule="evenodd" clip-rule="evenodd" d="M21.0567 28.671L15.3364 24.1231C14.946 23.8127 14.378 23.8776 14.0676 24.268C14.0652 24.271 14.0628 24.274 14.0605 24.277C13.7531 24.674 13.8256 25.245 14.2226 25.5525C14.224 25.5536 14.2255 25.5547 14.2269 25.5558L21.0876 30.8035C21.6254 31.2148 22.3721 31.2149 22.91 30.8037L29.7682 25.5604C30.1698 25.2534 30.2464 24.679 29.9394 24.2775C29.9381 24.2757 29.9368 24.274 29.9355 24.2723C29.6272 23.8749 29.0551 23.8027 28.6577 24.111C28.6548 24.1132 28.652 24.1155 28.6491 24.1178L22.9239 28.6709C22.3774 29.1055 21.6033 29.1056 21.0567 28.671Z" fill="#FFB233"/>
</svg>
