<svg width="81" height="81" viewBox="0 0 81 81" fill="none" xmlns="http://www.w3.org/2000/svg">
<g clip-path="url(#clip0)">
<path d="M14.3932 3.94048C12.7506 5.09987 11.4383 6.66719 10.5857 8.48803C9.73313 10.3089 9.36959 12.3204 9.53093 14.3245C10.9435 29.8882 16.329 44.8284 25.1714 57.7138C27.0001 60.2635 29.3392 62.405 32.04 64.0022C34.7408 65.5993 37.7444 66.6173 40.8597 66.9912C45.3813 67.538 49.962 66.6872 53.9857 64.5532L64.2664 78.9507C64.4857 79.2699 64.7663 79.5423 65.092 79.7519C65.4176 79.9616 65.7818 80.1042 66.1631 80.1716C66.5445 80.239 66.9355 80.2298 67.3133 80.1445C67.691 80.0592 68.048 79.8994 68.3634 79.6747C68.6788 79.4499 68.9463 79.1646 69.1502 78.8353C69.3542 78.5061 69.4905 78.1395 69.5513 77.7571C69.612 77.3746 69.596 76.9838 69.5041 76.6076C69.4122 76.2313 69.2464 75.8772 69.0162 75.5657L58.7608 61.1755C62.3436 57.8932 64.7221 53.5043 65.516 48.7106C66.0021 45.5319 65.8572 42.2886 65.0897 39.1659C64.3221 36.0433 62.947 33.1024 61.0427 30.5112C50.5097 15.7314 31.4404 5.18875 25.7068 2.71556C23.8775 1.91736 21.8716 1.6105 19.8873 1.82534C17.9031 2.04016 16.0093 2.76925 14.3932 3.94048ZM41.5593 61.1997C39.2478 60.9232 37.0191 60.169 35.0148 58.985C33.0104 57.801 31.2742 56.2131 29.9164 54.3222C28.9004 52.8859 27.9675 51.4133 27.0652 49.9163L45.8169 53.0624L50.5807 59.7469C47.7696 61.0687 44.6432 61.5721 41.5593 61.1997ZM56.3533 33.995C58.8711 37.2341 60.1506 41.2652 59.9618 45.3634C59.773 49.4617 58.1282 53.3581 55.3232 56.3519L49.8676 48.6966L43.385 39.6003L46.1657 23.0261C49.918 26.3344 53.3308 30.0089 56.3533 33.995ZM23.3822 8.05705C29.6497 10.8912 35.5564 14.4636 40.9769 18.6983L38.5973 32.8822L30.7142 21.8208C30.495 21.5015 30.2144 21.2291 29.8887 21.0195C29.5631 20.8099 29.1989 20.6672 28.8175 20.5998C28.4362 20.5324 28.0452 20.5416 27.6674 20.6269C27.2896 20.7123 26.9326 20.872 26.6173 21.0967C26.3019 21.3215 26.0344 21.6068 25.8305 21.9361C25.6265 22.2653 25.4902 22.6319 25.4294 23.0144C25.3687 23.3969 25.3847 23.7876 25.4766 24.1639C25.5684 24.5401 25.7343 24.8943 25.9645 25.2057L37.9339 42.001L41.0292 46.3443L23.5575 43.413C19.1247 34.1193 16.3471 24.1235 15.3496 13.8753C15.3114 13.4008 15.3309 12.9234 15.4077 12.4536C15.5358 11.7 15.8115 10.9792 16.219 10.3324C16.6264 9.6857 17.1576 9.12581 17.782 8.68491C18.5781 8.09821 19.5152 7.73223 20.4982 7.62399C21.4813 7.51576 22.4755 7.66912 23.3803 8.06856L23.3822 8.05705Z" fill="#F0F0F0"/>
</g>
<defs>
<clipPath id="clip0">
<rect width="70" height="70" fill="white" transform="translate(0 69.0352) rotate(-80.476)"/>
</clipPath>
</defs>
</svg>
