<svg width="32" height="33" viewBox="0 0 32 33" fill="none" xmlns="http://www.w3.org/2000/svg">
<path d="M30.5334 26.6734L17.0801 3.66008C16.9904 3.51011 16.8635 3.38587 16.7117 3.29942C16.5598 3.21298 16.3882 3.16728 16.2134 3.16675L15.8134 3.16675C15.6387 3.16728 15.4671 3.21298 15.3152 3.29942C15.1634 3.38587 15.0364 3.51011 14.9468 3.66008L1.46678 26.6734C1.38158 26.8287 1.33691 27.003 1.33691 27.1801C1.33691 27.3572 1.38158 27.5315 1.46678 27.6867L1.65344 27.9934C1.73823 28.1486 1.86372 28.2778 2.01641 28.3671C2.16911 28.4564 2.34325 28.5023 2.52011 28.5001L29.4801 28.5001C29.657 28.5023 29.8311 28.4564 29.9838 28.3671C30.1365 28.2778 30.262 28.1486 30.3468 27.9934L30.5334 27.6867C30.6186 27.5315 30.6633 27.3572 30.6633 27.1801C30.6633 27.003 30.6186 26.8287 30.5334 26.6734ZM17.3334 22.5001C17.3334 22.6769 17.2632 22.8465 17.1382 22.9715C17.0132 23.0965 16.8436 23.1667 16.6668 23.1667L15.3334 23.1667C15.1566 23.1667 14.9871 23.0965 14.862 22.9715C14.737 22.8465 14.6668 22.6769 14.6668 22.5001L14.6668 21.1667C14.6668 20.9899 14.737 20.8204 14.862 20.6953C14.9871 20.5703 15.1566 20.5001 15.3334 20.5001L16.6668 20.5001C16.8436 20.5001 17.0132 20.5703 17.1382 20.6953C17.2632 20.8204 17.3334 20.9899 17.3334 21.1667L17.3334 22.5001ZM17.0401 17.5401C17.0303 17.6214 16.9909 17.6962 16.9294 17.7503C16.8679 17.8044 16.7887 17.834 16.7068 17.8334L15.2934 17.8334C15.2116 17.834 15.1323 17.8044 15.0708 17.7503C15.0093 17.6962 14.9699 17.6214 14.9601 17.5401L14.4268 13.2467C14.4154 13.1527 14.4242 13.0574 14.4526 12.967C14.481 12.8766 14.5283 12.7934 14.5913 12.7227C14.6544 12.6521 14.7318 12.5957 14.8184 12.5573C14.905 12.5189 14.9987 12.4994 15.0934 12.5001L16.9068 12.5001C17.0015 12.4994 17.0952 12.5189 17.1818 12.5573C17.2684 12.5957 17.3458 12.6521 17.4089 12.7227C17.472 12.7934 17.5193 12.8766 17.5476 12.967C17.576 13.0574 17.5848 13.1527 17.5734 13.2467L17.0401 17.5401Z" fill="white"/>
</svg>
