<svg width="1440" height="670" viewBox="0 0 1440 670" fill="none" xmlns="http://www.w3.org/2000/svg">
<g clip-path="url(#clip0)">
<rect width="1440" height="670" fill="#6855C8"/>
<rect width="1440" height="670" fill="url(#paint0_radial)"/>
<rect width="1440" height="670" fill="url(#paint1_radial)"/>
<rect width="1440" height="670" fill="url(#paint2_radial)"/>
<g opacity="0.1">
<path d="M-276.721 961.749L-278.237 961.49C-278.199 961.504 -277.878 961.824 -277.37 961.867C-277.099 961.887 -276.881 961.828 -276.721 961.749ZM2161.87 -63.3212L2161.68 -63.4024C2160.5 -63.9052 2158.76 -64.6339 2156.5 -65.5508C2152.37 -67.2228 2145.63 -69.8719 2137.01 -72.9836C2121.78 -78.4787 2097.6 -86.5052 2068.9 -93.5345C2018.21 -105.946 1943.44 -117.536 1875.05 -102.27C1845.45 -95.6615 1820.35 -76.8662 1793.68 -41.3288C1778.27 -20.7852 1763.69 3.43311 1748.26 29.0734L1748.11 29.3099C1740.47 42.003 1732.57 55.1277 1724.28 68.2753C1672.1 151.022 1606.16 231.532 1478.15 260.108C1419.5 273.201 1372.2 296.383 1333.54 330.979C1298.33 362.482 1274.75 399.005 1253.61 433.714C1250.66 438.563 1247.74 443.398 1244.84 448.208C1205.11 514.134 1167.57 576.402 1075.55 596.945C978.633 618.58 894.921 595.278 810.6 567.322C805.088 565.494 799.603 563.659 794.141 561.831L793.362 561.57C720.393 537.145 651.472 514.075 582.682 529.432C514.793 544.588 461.84 581.764 405.781 621.122C400.583 624.776 395.339 628.459 390.043 632.152C326.313 676.594 255.499 721.902 152.96 744.793C75.7723 762.024 30.4542 797.3 -17.4984 834.641L-18.1797 835.175C-23.0013 838.918 -27.8358 842.684 -32.755 846.468C-88.2927 889.199 -152.727 933.197 -274.849 960.73L-274.849 960.732L-276.543 961.11L-249.207 1083.56L2292.66 516.115L2163.84 -60.94L2160.48 -60.1896L2161.87 -63.3212ZM1874.29 -105.659C1912.4 -114.166 1977.24 -119.553 2069.73 -96.907C2098.58 -89.8429 2122.88 -81.7734 2138.19 -76.2497C2146.86 -73.1192 2153.64 -70.4535 2157.8 -68.7686C2160.09 -67.8414 2161.85 -67.1062 2163.04 -66.5995L2163.27 -66.4977L2163.28 -66.5135L2166.47 -65.1011L2296.81 518.747L-251.84 1087.71L-280 961.563L-279.94 961.194C-279.79 960.271 -279.359 959.495 -278.793 958.999L-278.994 958.099L-277.3 957.721C-154.765 930.366 -90.3407 886.401 -34.864 843.716C-29.9613 839.937 -25.126 836.174 -20.3213 832.435L-19.6393 831.904C28.6483 794.311 74.2531 758.805 152.204 741.404C254.116 718.653 324.601 673.549 388.055 629.302C393.351 625.612 398.596 621.932 403.794 618.278C460.145 578.716 513.358 541.35 581.926 526.043C651.658 510.476 721.023 533.695 794.463 558.276L795.243 558.537C800.703 560.364 806.185 562.198 811.692 564.025C895.534 591.823 978.745 614.997 1074.79 593.556C1165.36 573.336 1202.53 511.686 1241.87 446.417C1244.77 441.603 1247.69 436.762 1250.64 431.907C1271.92 396.977 1295.66 360.21 1331.22 328.39C1370.34 293.389 1418.15 269.944 1477.4 256.719C1604.17 228.419 1669.56 148.534 1721.34 66.4227C1729.62 53.3058 1737.51 40.1956 1745.14 27.5191L1745.27 27.3091C1760.76 1.56429 1775.38 -22.7282 1790.91 -43.4128C1818.11 -79.6596 1843.83 -98.8573 1874.29 -105.659Z" fill="white"/>
<path d="M2195.76 82.0534L2194.03 81.5597C2192.9 81.2433 2191.22 80.781 2189.03 80.2032C2185.06 79.1509 2178.56 77.495 2170.18 75.5749C2155.41 72.1962 2131.94 67.3653 2103.96 63.5393C2054.54 56.7776 1981.26 51.922 1912.88 67.1878C1883.28 73.7959 1857.48 89.4494 1829.24 117.943C1812.91 134.419 1797.21 153.652 1780.59 174.018C1772.33 184.139 1763.79 194.601 1754.83 205.134C1698.87 270.95 1629.44 335.794 1501.43 364.371C1442.78 377.463 1394.8 397.639 1354.76 426.054C1318.29 451.928 1293.05 481.007 1270.32 508.574C1267.32 512.211 1264.35 515.841 1261.4 519.451L1260.86 520.109C1218.11 572.431 1177.73 621.853 1085.7 642.398C988.776 664.034 907.297 650.731 825.465 633.914C819.871 632.764 814.306 631.607 808.765 630.454C737.941 615.723 671.047 601.809 602.266 617.164C534.376 632.319 480.076 663.459 422.59 696.427C417.26 699.487 411.882 702.572 406.436 705.668C341.099 742.915 268.734 781.194 166.195 804.084C89.0239 821.312 42.3678 850.594 -7.01813 881.594C-12.1974 884.851 -17.4255 888.128 -22.7211 891.422C-80.1376 927.091 -146.481 964.213 -269.711 991.722L-249.209 1083.56L2292.66 516.115L2195.76 82.0534ZM1912.12 63.7987C1950.14 55.3108 2014.37 47.7787 2104.43 60.0985C2132.53 63.9426 2156.12 68.7954 2170.95 72.189C2179.39 74.1216 2185.92 75.788 2189.92 76.8452C2192.13 77.4294 2193.82 77.8954 2194.97 78.2173L2198.7 79.3023L2296.8 518.747L-251.842 1087.71L-273.857 989.09L-270.467 988.333C-147.78 960.945 -81.7035 923.982 -24.5538 888.472C-19.2575 885.182 -14.0293 881.905 -8.88202 878.664C40.7851 847.489 87.6742 818.055 165.438 800.695C267.503 777.91 339.613 739.765 404.729 702.647C410.159 699.556 415.521 696.477 420.851 693.418C478.59 660.311 533.111 629.044 601.51 613.775C671.023 598.256 738.271 612.244 809.466 627.053C815.009 628.206 820.573 629.364 826.164 630.513C907.611 647.251 988.688 660.496 1084.94 639.009C1175.8 618.725 1215.81 569.756 1258.17 517.912L1258.71 517.253C1261.67 513.638 1264.64 510.004 1267.64 506.364C1289.52 479.834 1315.94 449.34 1352.75 423.222C1393.18 394.537 1441.56 374.176 1500.67 360.981C1627.68 332.627 1696.61 268.241 1752.18 202.886C1761.12 192.378 1769.65 181.928 1777.9 171.824C1794.57 151.39 1810.32 132.092 1826.77 115.497C1855.51 86.5038 1881.84 70.56 1912.12 63.7987Z" fill="white"/>
<path d="M2210.21 154.043C2209.09 153.814 2207.44 153.487 2205.3 153.078C2201.39 152.335 2195 151.17 2186.76 149.853C2172.23 147.534 2149.12 144.304 2121.49 142.075C2072.7 138.139 2000.18 136.651 1931.79 151.917C1902.19 158.525 1876.05 172.608 1847.01 197.578C1830.23 212.018 1813.97 228.757 1796.76 246.477C1788.22 255.269 1779.39 264.36 1770.11 273.567C1712.25 330.917 1641.07 387.926 1513.06 416.503C1454.42 429.594 1406.11 448.268 1365.37 473.59C1328.28 496.649 1302.2 522.006 1278.67 546.002C1275.38 549.364 1272.12 552.715 1268.88 556.051C1224.61 601.578 1182.81 644.578 1090.77 665.124C993.848 686.761 913.486 678.458 832.899 667.21C827.392 666.442 821.916 665.666 816.467 664.895C746.719 655.01 680.839 645.675 612.058 661.03C544.185 676.182 489.211 704.302 430.994 734.074L429.892 734.64C424.847 737.22 419.786 739.812 414.657 742.42C348.5 776.073 275.335 810.844 172.812 833.731C95.6414 850.959 48.3172 877.248 -1.77646 905.078C-7.03098 907.998 -12.334 910.939 -17.7045 913.897C-75.9306 945.94 -143.082 979.524 -266.294 1007.03L-249.209 1083.56L2292.66 516.115L2212.29 156.091L2209.64 156.683L2210.21 154.043ZM1931.04 148.528C1969.02 140.049 2032.94 131.447 2121.77 138.614C2149.51 140.852 2172.72 144.096 2187.3 146.426C2195.59 147.749 2202.02 148.92 2205.95 149.667C2208.12 150.08 2209.79 150.412 2210.91 150.643L2210.94 150.648L2210.95 150.635L2214.81 151.475L2296.8 518.747L-251.842 1087.71L-270.44 1004.4L-267.051 1003.64C-144.279 976.233 -77.3842 942.776 -19.3799 910.856C-14.0086 907.901 -8.70554 904.959 -3.46722 902.046C46.8636 874.084 94.3934 847.679 172.056 830.342C274.188 807.542 347.128 772.876 413.077 739.325C418.206 736.719 423.266 734.127 428.312 731.547L429.398 730.992C487.822 701.109 543.005 672.887 611.301 657.641C680.701 642.148 746.885 651.527 816.954 661.458C822.4 662.228 827.875 663.003 833.378 663.771C913.638 674.973 993.657 683.245 1090.01 661.735C1181.04 641.415 1222.49 598.774 1266.39 553.632C1269.63 550.291 1272.89 546.937 1276.19 543.57C1298.83 520.483 1326.12 493.902 1363.54 470.641C1404.61 445.109 1453.27 426.292 1512.31 413.113C1639.46 384.728 1710.18 328.084 1767.66 271.099C1776.92 261.917 1785.74 252.838 1794.27 244.058C1811.53 226.279 1827.84 209.486 1844.75 194.945C1874.24 169.583 1900.85 155.267 1931.04 148.528Z" fill="white"/>
<path d="M2177.98 9.12144L2177.86 9.07967C2176.7 8.66669 2174.99 8.07355 2172.77 7.32755C2168.7 5.96162 2162.08 3.80605 2153.6 1.29644C2138.6 -3.14143 2114.78 -9.56999 2086.43 -14.9977C2036.38 -24.5843 1962.35 -32.807 1893.97 -17.5412C1864.36 -10.9327 1838.92 6.29167 1811.46 38.3077C1795.57 56.8408 1780.44 78.5626 1764.41 101.563C1756.45 112.992 1748.21 124.812 1739.56 136.706C1685.48 210.984 1617.8 283.661 1489.79 312.238C1431.15 325.33 1383.51 347.01 1344.15 378.515C1308.31 407.206 1283.9 440.007 1261.96 471.144C1258.9 475.497 1255.87 479.84 1252.85 484.162C1211.61 543.284 1172.65 599.126 1080.62 619.67C983.703 641.307 901.108 623.005 818.035 600.618C812.853 599.22 807.696 597.817 802.559 596.418L801.066 596.011C729.158 576.432 661.256 557.943 592.476 573.298C524.603 588.45 470.96 622.613 414.187 658.775C408.924 662.132 403.612 665.514 398.25 668.907C333.716 709.752 262.118 751.547 159.579 774.438C82.4083 791.665 36.4207 823.942 -12.2408 858.107C-17.3621 861.703 -22.515 865.317 -27.7361 868.945C-84.3257 908.239 -149.895 948.907 -273.125 976.417L-249.206 1083.56L2292.66 516.115L2179.99 11.4047L2176.88 12.0999L2177.98 9.12144ZM1893.21 -20.9303C1931.28 -29.428 1995.81 -35.8878 2087.09 -18.4081C2115.57 -12.9527 2139.51 -6.49359 2154.58 -2.03335C2163.11 0.490097 2169.78 2.66065 2173.87 4.03511C2176.12 4.78964 2177.85 5.39098 2179.02 5.80757L2179.18 5.86522L2179.19 5.84604L2182.59 7.11154L2296.81 518.747L-251.839 1087.71L-277.271 973.784L-273.881 973.028C-151.262 945.654 -86.0207 905.189 -29.7246 866.094C-24.5032 862.468 -19.3492 858.859 -14.2592 855.282C34.7257 820.892 80.9739 788.427 158.823 771.049C260.82 748.279 332.117 706.654 396.385 665.975C401.748 662.582 407.06 659.201 412.324 655.847C469.361 619.515 523.237 585.197 591.72 569.909C661.34 554.367 729.643 572.965 801.957 592.656L803.472 593.067C808.606 594.465 813.758 595.87 818.939 597.264C901.577 619.534 983.716 637.746 1079.87 616.281C1170.58 596.031 1209.16 540.728 1250.01 482.176C1253.02 477.85 1256.06 473.502 1259.13 469.145C1280.24 439.175 1305.79 404.779 1341.98 375.805C1381.76 343.961 1429.86 322.059 1489.03 308.849C1615.92 280.523 1683.08 208.39 1736.75 134.662C1745.39 122.797 1753.61 110.993 1761.56 99.5764C1777.64 76.5043 1792.82 54.7112 1808.83 36.0462C1836.8 3.42493 1862.83 -14.1479 1893.21 -20.9303Z" fill="white"/>
<path d="M2226.34 226.518C2225.25 226.382 2223.65 226.19 2221.57 225.954C2217.72 225.517 2211.43 224.845 2203.34 224.132C2189.05 222.873 2166.29 221.239 2139.03 220.611C2090.86 219.499 2019.09 221.379 1950.71 236.646C1895.52 248.966 1857.25 281.39 1812.93 318.935C1804.05 326.461 1794.91 334.198 1785.38 341.996C1725.64 390.881 1652.71 440.058 1524.7 468.635C1397.71 496.985 1339.81 539.114 1287.03 583.434C1283.69 586.24 1280.38 589.039 1277.09 591.825L1276.89 591.99C1231.12 630.722 1187.88 667.307 1095.84 687.854C998.923 709.49 919.677 706.185 840.331 700.507C834.996 700.125 829.69 699.737 824.405 699.35L824.166 699.332C755.493 694.298 690.63 689.541 621.852 704.895C553.979 720.047 498.331 745.149 439.4 771.727C433.921 774.2 428.41 776.684 422.864 779.175C355.92 809.227 281.971 840.485 179.432 863.376C102.26 880.604 54.2679 903.899 3.44986 928.563C-1.86261 931.144 -7.22327 933.748 -12.6856 936.374C-71.722 964.787 -139.664 994.829 -262.876 1022.33L-249.209 1083.56L2292.66 516.115L2228.44 228.434L2226 228.978L2226.34 226.518ZM1949.95 233.256C2018.68 217.914 2090.75 216.023 2139.11 217.139C2166.46 217.769 2189.3 219.408 2203.64 220.673C2211.77 221.388 2218.09 222.064 2221.96 222.504C2224.07 222.743 2225.7 222.94 2226.8 223.078L2226.81 223.063L2230.92 223.624L2296.8 518.747L-251.842 1087.71L-267.022 1019.7L-263.633 1018.95C-140.776 991.519 -73.045 961.571 -14.2021 933.247C-8.73941 930.622 -3.37875 928.018 1.93372 925.438C52.9279 900.686 101.097 877.305 178.675 859.987C280.892 837.168 354.663 805.985 421.445 776.006C426.991 773.516 432.503 771.031 437.965 768.566C497.056 741.911 552.866 716.737 621.095 701.506C690.371 686.041 755.484 690.815 824.418 695.869L824.658 695.886C829.941 696.273 835.246 696.663 840.579 697.043C919.656 702.702 998.626 705.998 1095.09 684.464C1186.29 664.104 1229.21 627.788 1274.65 589.34L1274.84 589.174C1278.14 586.385 1281.45 583.584 1284.8 580.772C1337.92 536.167 1396.19 493.766 1523.95 465.245C1651.25 436.826 1723.77 387.923 1783.19 339.309C1792.69 331.53 1801.81 323.802 1810.64 316.328C1855.35 278.445 1893.93 245.763 1949.95 233.256Z" fill="white"/>
<path d="M2258.63 371.499C2257.57 371.543 2256.06 371.611 2254.11 371.705C2250.39 371.886 2244.31 372.204 2236.5 372.691C2222.69 373.549 2200.65 375.113 2174.09 377.684C2127.19 382.223 2056.92 390.838 1988.54 406.104C1933.37 418.42 1892.57 439.463 1845.33 463.829C1835.88 468.699 1826.12 473.735 1815.94 478.857C1752.42 510.811 1675.99 544.32 1547.98 572.897C1420.99 601.246 1359.99 629.467 1303.74 658.29C1300.32 660.043 1296.94 661.789 1293.57 663.526L1292.93 663.855C1244.13 689.004 1198.04 712.759 1105.99 733.307C1009.07 754.943 932.059 761.64 855.198 767.103L839.562 768.202C773.046 772.868 710.214 777.275 641.438 792.629C573.565 807.781 516.551 826.847 456.178 847.039L439.275 852.688C370.726 875.544 295.208 899.779 192.669 922.669C115.497 939.897 66.1499 957.202 13.9329 975.52C8.47211 977.436 2.96204 979.371 -2.65012 981.327C-63.3064 1002.48 -132.812 1025.44 -256.042 1052.95L-249.207 1083.56L2292.66 516.115L2260.74 373.123L2258.7 373.578L2258.63 371.499ZM1987.78 402.715C2056.34 387.41 2126.76 378.776 2173.76 374.227C2200.36 371.653 2222.44 370.085 2236.29 369.225C2244.11 368.736 2250.21 368.418 2253.94 368.238C2255.91 368.141 2257.44 368.073 2258.5 368.028L2258.5 368.021L2263.12 367.852L2296.81 518.747L-251.84 1087.71L-260.188 1050.32L-256.799 1049.56C-133.755 1022.09 -64.3485 999.17 -3.80856 978.05C1.80359 976.095 7.31403 974.162 12.7748 972.245C65.1078 953.889 114.538 936.553 191.912 919.28C294.298 896.424 369.717 872.222 438.183 849.393L455.086 843.744C515.526 823.529 572.639 804.43 640.681 789.24C709.711 773.83 772.668 769.414 839.321 764.739L854.954 763.638C931.676 758.185 1008.55 751.502 1105.23 729.918C1196.84 709.468 1242.74 685.813 1291.34 660.768L1291.97 660.438C1295.35 658.7 1298.74 656.954 1302.16 655.201C1358.61 626.271 1419.83 597.946 1547.22 569.508C1674.86 541.013 1751.06 507.609 1814.38 475.755C1824.55 470.641 1834.3 465.61 1843.73 460.745C1891.19 436.267 1932.17 415.128 1987.78 402.715Z" fill="white"/>
<path d="M2274.79 443.996L2270.38 444.581C2266.38 445.118 2260.53 445.916 2253.09 446.969C2239.51 448.887 2217.82 452.051 2191.63 456.219C2145.35 463.586 2075.83 475.569 2007.46 490.832C1952.29 503.147 1910.23 518.503 1861.53 536.282C1851.75 539.852 1841.7 543.522 1831.22 547.287C1765.8 570.778 1687.62 596.454 1559.62 625.029C1432.63 653.378 1370.07 674.644 1312.1 695.72L1300.95 699.784C1250.63 718.144 1203.11 735.485 1111.07 756.033C1014.14 777.67 938.246 789.365 862.632 800.397L847.265 802.634C781.803 812.156 719.994 821.144 651.231 836.495C583.358 851.647 525.688 867.691 464.634 884.676L447.482 889.444C378.112 908.707 301.793 929.431 199.288 952.314C122.117 969.542 72.1174 983.849 19.1922 998.994L2.36877 1003.8C-59.0974 1021.33 -129.411 1040.75 -252.624 1068.25L-249.206 1083.56L2292.66 516.115L2276.89 445.466L2275.03 445.881L2274.79 443.996ZM2006.7 487.443C2075.16 472.16 2144.75 460.163 2191.08 452.79C2217.3 448.618 2239.01 445.451 2252.6 443.53C2260.05 442.477 2265.92 441.677 2269.92 441.139L2274.35 440.551V440.547L2279.21 439.926L2296.81 518.747L-251.839 1087.71L-256.77 1065.62L-253.381 1064.86C-130.253 1037.38 -59.9889 1017.98 1.40994 1000.46L18.2169 995.661C71.2261 980.494 121.275 966.172 198.531 948.925C300.968 926.057 377.22 905.35 446.557 886.098L463.659 881.343C524.797 864.334 582.517 848.276 650.475 833.105C719.365 817.727 781.237 808.728 846.742 799.202L862.131 796.962C937.677 785.94 1013.5 774.255 1110.31 752.644C1202.13 732.146 1249.55 714.842 1299.76 696.522L1310.91 692.457C1369 671.34 1431.67 650.034 1558.86 621.64C1686.68 593.106 1764.73 567.471 1830.04 544.019C1840.52 540.254 1850.57 536.589 1860.33 533.023C1909.15 515.198 1951.31 499.807 2006.7 487.443Z" fill="white"/>
<path d="M2242.48 299.005C2241.41 298.96 2239.85 298.897 2237.84 298.83C2234.06 298.701 2227.88 298.524 2219.92 298.411C2205.87 298.211 2183.48 298.176 2156.56 299.147C2109.03 300.861 2038.01 306.108 1969.62 321.375C1914.44 333.694 1874.9 360.426 1829.12 391.383L1828.92 391.516C1819.84 397.657 1810.45 404.009 1800.66 410.426C1739.03 450.847 1664.35 492.19 1536.34 520.767C1409.35 549.117 1349.9 584.291 1295.39 620.862C1291.89 623.206 1288.44 625.539 1285 627.864C1237.62 659.865 1192.96 690.033 1100.92 710.58C1004 732.216 925.868 733.912 847.764 733.805C842.439 733.796 837.14 733.782 831.867 733.769C764.271 733.582 700.422 733.408 631.645 748.762C563.755 763.917 507.434 786.001 447.79 809.385L431.07 815.932C363.307 842.39 288.573 870.136 186.051 893.023C108.897 910.247 60.2346 930.543 8.72498 952.029L6.3327 953.027C1.71039 954.954 -2.94431 956.895 -7.66718 958.85C-67.4962 983.633 -136.228 1010.13 -259.458 1037.64L-249.207 1083.56L2292.66 516.115L2244.59 300.778L2242.36 301.276L2242.48 299.005ZM1968.87 317.986C2037.52 302.661 2108.76 297.395 2156.44 295.677C2183.43 294.703 2205.88 294.738 2219.97 294.939C2227.96 295.054 2234.16 295.231 2237.96 295.359C2240 295.429 2241.57 295.491 2242.65 295.537L2242.66 295.528L2244.15 295.604L2244.62 295.499L2244.84 295.64L2247.02 295.751L2296.81 518.747L-251.84 1087.71L-263.604 1035.01L-260.215 1034.25C-137.256 1006.8 -68.6878 980.367 -8.98865 955.64C-4.28275 953.689 0.372437 951.75 4.99475 949.823L7.35431 948.838C59.0436 927.279 107.835 906.926 185.294 889.634C287.579 866.8 362.182 839.105 429.814 812.696L446.534 806.15C506.292 782.719 562.745 760.585 630.889 745.372C700.043 729.935 764.081 730.111 831.879 730.297C837.149 730.309 842.445 730.324 847.77 730.332C925.669 730.439 1003.59 728.749 1100.16 707.191C1191.56 686.787 1235.96 656.797 1282.96 625.048C1286.5 622.66 1289.95 620.324 1293.45 617.978C1348.25 581.215 1408.01 545.858 1535.58 517.378C1663.05 488.922 1737.4 447.763 1798.76 407.523C1808.52 401.117 1817.91 394.774 1826.98 388.64L1827.18 388.504C1873.25 357.353 1913.04 330.448 1968.87 317.986Z" fill="white"/>
</g>
</g>
<defs>
<radialGradient id="paint0_radial" cx="0" cy="0" r="1" gradientUnits="userSpaceOnUse" gradientTransform="translate(226 -105.286) rotate(41.0275) scale(1080.34 1017.69)">
<stop stop-color="#A180FF"/>
<stop offset="1" stop-color="#6855C8" stop-opacity="0"/>
</radialGradient>
<radialGradient id="paint1_radial" cx="0" cy="0" r="1" gradientUnits="userSpaceOnUse" gradientTransform="translate(1106.5 670) rotate(-90) scale(581.247 668)">
<stop stop-color="#FD9FFF"/>
<stop offset="1" stop-color="#E754B3" stop-opacity="0"/>
</radialGradient>
<radialGradient id="paint2_radial" cx="0" cy="0" r="1" gradientUnits="userSpaceOnUse" gradientTransform="translate(-2.20077e-05 798.736) rotate(-20.9723) scale(680.586 646.171)">
<stop stop-color="#8CC8FF"/>
<stop offset="1" stop-color="#7760D6" stop-opacity="0"/>
</radialGradient>
<clipPath id="clip0">
<rect width="1440" height="670" fill="white"/>
</clipPath>
</defs>
</svg>
