<svg width="375" height="308" viewBox="0 0 375 308" fill="none" xmlns="http://www.w3.org/2000/svg">
<g opacity="0.1">
<path d="M886.551 -167.297L887.221 -167.182C887.204 -167.189 887.062 -167.33 886.838 -167.349C886.718 -167.358 886.621 -167.331 886.551 -167.297ZM-191.353 286.03L-191.271 286.066C-190.748 286.288 -189.979 286.611 -188.98 287.016C-187.155 287.756 -184.178 288.927 -180.367 290.303C-173.635 292.733 -162.947 296.283 -150.26 299.392C-127.855 304.88 -94.8025 310.006 -64.5751 303.255C-51.4902 300.332 -40.3981 292.02 -28.6092 276.304C-21.7944 267.219 -15.3509 256.509 -8.52954 245.17L-8.46636 245.065C-5.08874 239.452 -1.59649 233.647 2.06812 227.833C25.1351 191.239 54.2797 155.634 110.862 142.997C136.785 137.207 157.695 126.954 174.785 111.655C190.347 97.7229 200.772 81.5711 210.115 66.2211C211.42 64.0768 212.709 61.9385 213.99 59.8115C231.554 30.6563 248.144 3.11918 288.82 -5.96578C331.659 -15.5339 368.662 -5.22853 405.933 7.13469C408.37 7.94295 410.794 8.7546 413.209 9.56304L413.553 9.67815C445.806 20.48 476.271 30.6823 506.677 23.891C536.686 17.1886 560.092 0.747957 584.871 -16.6579C587.169 -18.274 589.487 -19.9027 591.828 -21.5356C619.998 -41.1897 651.299 -61.2269 696.623 -71.3501C730.742 -78.9705 750.773 -94.5709 771.969 -111.084L772.27 -111.321C774.402 -112.976 776.538 -114.641 778.713 -116.315C803.262 -135.212 831.743 -154.67 885.723 -166.846L885.723 -166.847L886.472 -167.014L874.389 -221.167L-249.167 29.7804L-192.225 284.977L-190.739 284.645L-191.353 286.03ZM-64.2407 304.754C-81.0843 308.516 -109.744 310.898 -150.625 300.883C-163.377 297.759 -174.121 294.19 -180.888 291.748C-184.722 290.363 -187.718 289.184 -189.557 288.439C-190.567 288.029 -191.345 287.704 -191.87 287.48L-191.975 287.435L-191.978 287.442L-193.387 286.817L-250.999 28.6162L875.553 -223L888 -167.215L887.974 -167.051C887.907 -166.643 887.717 -166.3 887.467 -166.081L887.556 -165.683L886.806 -165.515C832.644 -153.418 804.167 -133.975 779.645 -115.098C777.478 -113.426 775.341 -111.763 773.217 -110.109L772.915 -109.874C751.571 -93.2488 731.413 -77.5469 696.957 -69.8512C651.91 -59.7899 620.754 -39.8434 592.706 -20.2757C590.366 -18.6435 588.047 -17.0163 585.75 -15.4002C560.841 2.09592 537.32 18.6205 507.012 25.3899C476.189 32.2742 445.528 22.0056 413.066 11.1353L412.721 11.0196C410.308 10.2117 407.885 9.4005 405.451 8.59249C368.391 -3.7007 331.61 -13.9494 289.155 -4.46694C249.12 4.4748 232.695 31.7391 215.305 60.6034C214.022 62.7324 212.732 64.8736 211.426 67.0205C202.022 82.468 191.527 98.7277 175.808 112.8C158.518 128.279 137.383 138.647 111.196 144.496C55.1617 157.011 26.2567 192.339 3.36683 228.652C-0.289788 234.453 -3.77801 240.251 -7.151 245.857L-7.20733 245.95C-14.0561 257.335 -20.5198 268.078 -27.3812 277.226C-39.4053 293.256 -50.7729 301.746 -64.2407 304.754Z" fill="white"/>
<path d="M-206.335 221.74L-205.572 221.958C-205.072 222.098 -204.328 222.302 -203.362 222.558C-201.606 223.023 -198.734 223.756 -195.026 224.605C-188.499 226.099 -178.124 228.235 -165.758 229.927C-143.911 232.918 -111.523 235.065 -81.2959 228.314C-68.2117 225.391 -56.8095 218.469 -44.3248 205.868C-37.1063 198.582 -30.167 190.076 -22.8204 181.069C-19.1694 176.593 -15.3946 171.967 -11.4359 167.308C13.3009 138.202 43.9914 109.526 100.574 96.8878C126.498 91.0977 147.704 82.175 165.404 69.6091C181.523 58.1665 192.681 45.3065 202.729 33.1153C204.054 31.5069 205.366 29.9017 206.671 28.3049L206.909 28.0142C225.805 4.87525 243.655 -16.9812 284.336 -26.0671C327.176 -35.6355 363.191 -29.7523 399.363 -22.3148C401.835 -21.8065 404.295 -21.2946 406.744 -20.785C438.05 -14.2702 467.618 -8.11695 498.021 -14.9074C528.03 -21.6099 552.031 -35.3811 577.441 -49.9609C579.797 -51.3141 582.174 -52.6782 584.582 -54.0475C613.462 -70.5196 645.449 -87.448 690.773 -97.5712C724.884 -105.19 745.507 -118.14 767.337 -131.849C769.626 -133.289 771.937 -134.739 774.278 -136.195C799.657 -151.97 828.982 -168.386 883.452 -180.552L874.39 -221.166L-249.166 29.7804L-206.335 221.74ZM-80.9614 229.813C-97.7676 233.566 -126.158 236.897 -165.967 231.449C-178.388 229.749 -188.812 227.603 -195.369 226.102C-199.098 225.247 -201.987 224.51 -203.755 224.043C-204.729 223.785 -205.479 223.578 -205.987 223.436L-207.636 222.956L-250.999 28.6162L875.553 -223L885.285 -179.388L883.786 -179.053C829.556 -166.941 800.349 -150.595 775.088 -134.891C772.747 -133.436 770.436 -131.986 768.161 -130.553C746.207 -116.766 725.481 -103.75 691.107 -96.0723C645.993 -85.996 614.119 -69.1266 585.336 -52.7116C582.936 -51.3447 580.566 -49.983 578.21 -48.6299C552.688 -33.9888 528.589 -20.1612 498.355 -13.4086C467.629 -6.54584 437.904 -12.7317 406.434 -19.2808C403.984 -19.7909 401.525 -20.3031 399.054 -20.8108C363.053 -28.2132 327.215 -34.0706 284.67 -24.5683C244.507 -15.598 226.821 6.05826 208.097 28.9857L207.859 29.2772C206.553 30.8756 205.24 32.4828 203.912 34.0924C194.243 45.8254 182.563 59.311 166.292 70.8615C148.422 83.5472 127.035 92.5512 100.909 98.3866C44.767 110.926 14.2973 139.4 -10.2657 168.303C-14.2159 172.95 -17.9848 177.571 -21.6304 182.04C-29.0018 191.076 -35.9638 199.61 -43.235 206.949C-55.9386 219.771 -67.5739 226.823 -80.9614 229.813Z" fill="white"/>
<path d="M-212.721 189.903C-212.228 190.004 -211.499 190.149 -210.553 190.33C-208.824 190.659 -205.998 191.174 -202.355 191.756C-195.936 192.781 -185.72 194.21 -173.507 195.196C-151.939 196.936 -119.884 197.595 -89.6562 190.843C-76.5721 187.921 -65.0149 181.693 -52.1818 170.65C-44.7616 164.264 -37.5761 156.862 -29.9692 149.025C-26.1949 145.137 -22.292 141.116 -18.1874 137.045C7.38411 111.682 38.8476 86.4707 95.4306 73.8329C121.353 68.0432 142.707 59.7852 160.714 48.5866C177.11 38.3889 188.635 27.1752 199.035 16.5632C200.493 15.0763 201.933 13.5942 203.366 12.1191C222.931 -8.01495 241.411 -27.0311 282.094 -36.1175C324.934 -45.686 360.456 -42.0142 396.077 -37.0399C398.511 -36.7 400.932 -36.3572 403.34 -36.0162C434.17 -31.6444 463.29 -27.5162 493.693 -34.3067C523.694 -41.0075 547.994 -53.4433 573.727 -66.6099L574.214 -66.8602C576.444 -68.0011 578.681 -69.1475 580.948 -70.3005C610.19 -85.1833 642.531 -100.561 687.848 -110.682C721.959 -118.301 742.877 -129.927 765.02 -142.234C767.342 -143.526 769.686 -144.827 772.06 -146.135C797.797 -160.305 827.479 -175.157 881.942 -187.322L874.39 -221.166L-249.166 29.7804L-213.64 188.997L-212.468 188.735L-212.721 189.903ZM-89.3218 192.342C-106.11 196.092 -134.364 199.896 -173.631 196.726C-185.893 195.736 -196.15 194.302 -202.598 193.272C-206.259 192.687 -209.101 192.169 -210.84 191.838C-211.798 191.656 -212.535 191.509 -213.033 191.407L-213.047 191.404L-213.049 191.41L-214.757 191.039L-250.999 28.6162L875.553 -223L883.774 -186.157L882.276 -185.823C828.009 -173.702 798.44 -158.906 772.801 -144.79C770.427 -143.483 768.083 -142.182 765.767 -140.894C743.52 -128.528 722.511 -116.851 688.182 -109.183C643.038 -99.1002 610.797 -83.7696 581.646 -68.9318C579.379 -67.7795 577.142 -66.6332 574.912 -65.4922L574.432 -65.2466C548.608 -52.0312 524.216 -39.5505 494.027 -32.8079C463.351 -25.9564 434.097 -30.1041 403.125 -34.4962C400.717 -34.8365 398.297 -35.1796 395.865 -35.519C360.388 -40.4729 325.018 -44.1312 282.428 -34.6187C242.193 -25.6321 223.868 -6.77493 204.467 13.1888C203.033 14.6664 201.591 16.1498 200.131 17.6385C190.125 27.8488 178.063 39.6039 161.524 49.8909C143.368 61.1818 121.859 69.5037 95.7651 75.3317C39.5618 87.8847 8.30214 112.935 -17.1072 138.136C-21.2009 142.197 -25.0987 146.212 -28.8687 150.095C-36.4997 157.957 -43.7081 165.384 -51.1812 171.814C-64.2156 183.031 -75.9784 189.362 -89.3218 192.342Z" fill="white"/>
<path d="M-198.475 253.993L-198.424 254.012C-197.91 254.194 -197.154 254.456 -196.172 254.786C-194.375 255.39 -191.447 256.344 -187.698 257.454C-181.07 259.416 -170.54 262.259 -158.01 264.66C-135.884 268.899 -103.163 272.535 -72.9363 265.784C-59.8514 262.862 -48.6042 255.245 -36.4679 241.086C-29.4422 232.89 -22.7532 223.283 -15.6713 213.112C-12.1516 208.058 -8.51098 202.83 -4.6848 197.57C19.217 164.721 49.1337 132.581 105.717 119.943C131.639 114.153 152.697 104.566 170.094 90.6323C185.935 77.9442 196.725 63.4384 206.421 49.6682C207.777 47.743 209.116 45.8226 210.448 43.9113C228.68 17.7653 245.899 -6.93054 286.577 -16.016C329.418 -25.5846 365.927 -17.4907 402.647 -7.59044C404.937 -6.97218 407.217 -6.35157 409.488 -5.73286L410.147 -5.55293C441.932 3.10586 471.946 11.2821 502.348 4.49185C532.349 -2.20892 556.061 -17.3173 581.155 -33.3097C583.482 -34.794 585.83 -36.29 588.2 -37.7903C616.725 -55.8534 648.373 -74.337 693.697 -84.4602C727.808 -92.079 748.136 -106.353 769.645 -121.462C771.909 -123.052 774.187 -124.651 776.494 -126.255C801.508 -143.632 830.491 -161.618 884.961 -173.783L874.389 -221.166L-249.167 29.7804L-199.365 252.983L-197.988 252.676L-198.475 253.993ZM-72.6019 267.283C-89.4275 271.041 -117.953 273.898 -158.299 266.168C-170.89 263.755 -181.473 260.899 -188.133 258.926C-191.904 257.81 -194.853 256.85 -196.661 256.242C-197.654 255.909 -198.418 255.643 -198.935 255.459L-199.008 255.433L-199.011 255.442L-200.514 254.882L-251 28.6162L875.552 -223L886.794 -172.619L885.295 -172.285C831.095 -160.179 802.257 -142.284 777.373 -124.994C775.065 -123.391 772.787 -121.795 770.537 -120.213C748.885 -105.004 728.442 -90.647 694.032 -82.9614C648.947 -72.8917 617.432 -54.4833 589.024 -36.4936C586.654 -34.9933 584.306 -33.4981 581.979 -32.0146C556.767 -15.9473 532.954 -0.770325 502.683 5.99069C471.909 12.8639 441.718 4.63915 409.754 -4.06929L409.084 -4.25096C406.815 -4.86921 404.537 -5.49034 402.247 -6.1071C365.72 -15.9559 329.413 -24.0098 286.912 -14.5172C246.816 -5.56188 229.762 18.8956 211.708 44.7897C210.374 46.7029 209.033 48.6255 207.676 50.5524C198.345 63.8062 187.05 79.0178 171.053 91.8311C153.47 105.914 132.208 115.6 106.052 121.441C49.9655 133.968 20.2805 165.868 -3.44359 198.474C-7.26067 203.721 -10.8959 208.941 -14.4121 213.99C-21.5168 224.194 -28.2271 233.831 -35.3027 242.086C-47.6688 256.512 -59.1724 264.284 -72.6019 267.283Z" fill="white"/>
<path d="M-219.851 157.852C-219.369 157.912 -218.661 157.997 -217.744 158.101C-216.042 158.294 -213.262 158.592 -209.685 158.907C-203.368 159.464 -193.308 160.186 -181.258 160.464C-159.968 160.956 -128.245 160.124 -98.0175 153.373C-73.6236 147.924 -56.7063 133.585 -37.1166 116.981C-33.1898 113.653 -29.1525 110.231 -24.9403 106.783C1.46645 85.1639 33.7029 63.4159 90.2859 50.7781C146.421 38.2403 172.011 19.6093 195.342 0.00936938C196.82 -1.23184 198.282 -2.4696 199.738 -3.70172L199.824 -3.77441C220.056 -20.9036 239.167 -37.0826 279.85 -46.1693C322.691 -55.7377 357.719 -54.276 392.791 -51.7651C395.15 -51.5964 397.495 -51.4247 399.831 -51.2533L399.937 -51.2455C430.292 -49.0193 458.963 -46.9157 489.364 -53.7058C519.365 -60.4066 543.963 -71.5077 570.011 -83.2617C572.433 -84.3549 574.869 -85.4537 577.32 -86.5551C606.911 -99.8453 639.598 -113.669 684.922 -123.792C719.033 -131.411 740.247 -141.713 762.71 -152.62C765.058 -153.762 767.427 -154.913 769.842 -156.075C795.937 -168.64 825.969 -181.926 880.431 -194.09L874.39 -221.166L-249.166 29.7804L-220.779 157.004L-219.703 156.764L-219.851 157.852ZM-97.6831 154.872C-128.062 161.657 -159.918 162.493 -181.293 162C-193.385 161.721 -203.48 160.996 -209.82 160.437C-213.412 160.12 -216.207 159.821 -217.918 159.627C-218.85 159.521 -219.569 159.434 -220.057 159.373L-220.058 159.38L-221.877 159.131L-250.999 28.6162L875.553 -223L882.264 -192.926L880.766 -192.591C826.46 -180.462 796.522 -167.218 770.512 -154.692C768.097 -153.531 765.728 -152.38 763.38 -151.238C740.839 -140.292 719.548 -129.952 685.257 -122.293C640.075 -112.202 607.466 -98.4116 577.948 -85.154C575.496 -84.0525 573.06 -82.9538 570.645 -81.8637C544.526 -70.0757 519.857 -58.9429 489.698 -52.207C459.077 -45.3677 430.296 -47.4789 399.825 -49.714L399.719 -49.7217C397.384 -49.8925 395.039 -50.065 392.682 -50.2332C357.728 -52.7361 322.822 -54.1936 280.185 -44.6705C239.87 -35.6661 220.9 -19.6057 200.816 -2.60263L200.73 -2.52914C199.272 -1.29575 197.809 -0.0570061 196.329 1.18622C172.847 20.9127 147.092 39.6638 90.6203 52.2769C34.3496 64.845 2.29232 86.4719 -23.9689 107.971C-28.1703 111.411 -32.203 114.829 -36.102 118.134C-55.8683 134.887 -72.9199 149.341 -97.6831 154.872Z" fill="white"/>
<path d="M-234.123 93.7353C-233.658 93.7157 -232.988 93.6856 -232.126 93.6443C-230.481 93.564 -227.796 93.4237 -224.345 93.2083C-218.238 92.8286 -208.495 92.1371 -196.757 91.0001C-176.025 88.9927 -144.967 85.183 -114.739 78.4317C-90.3528 72.985 -72.3186 63.6787 -51.4363 52.9031C-47.2615 50.7496 -42.9475 48.5225 -38.446 46.2575C-10.3679 32.1257 23.4145 17.3069 79.9975 4.66903C136.13 -7.86811 163.094 -20.3484 187.955 -33.0952C189.466 -33.8702 190.963 -34.6427 192.453 -35.4106L192.736 -35.5564C214.305 -46.6782 234.679 -57.1837 275.365 -66.2708C318.204 -75.839 352.246 -78.8005 386.22 -81.2164L393.131 -81.7026C422.533 -83.7661 450.306 -85.7152 480.706 -92.5052C510.708 -99.2059 535.909 -107.638 562.595 -116.567L570.066 -119.065C600.366 -129.174 633.747 -139.891 679.071 -150.014C713.182 -157.633 734.995 -165.286 758.076 -173.387C760.49 -174.234 762.925 -175.09 765.406 -175.955C792.217 -185.311 822.94 -195.462 877.41 -207.628L874.389 -221.167L-249.167 29.7804L-235.057 93.0171L-234.156 92.816L-234.123 93.7353ZM-114.405 79.9305C-144.708 86.6989 -175.835 90.5173 -196.61 92.5288C-208.368 93.6674 -218.13 94.3607 -224.249 94.7408C-227.708 94.9572 -230.402 95.0978 -232.052 95.1776C-232.923 95.2203 -233.6 95.2502 -234.067 95.2703L-234.066 95.2734L-236.109 95.3481L-250.999 28.6162L875.553 -223L879.243 -206.464L877.745 -206.13C823.357 -193.982 792.678 -183.846 765.918 -174.506C763.437 -173.641 761.002 -172.786 758.588 -171.939C735.456 -163.821 713.607 -156.154 679.406 -148.515C634.149 -138.407 600.812 -127.704 570.549 -117.608L563.077 -115.11C536.362 -106.17 511.117 -97.7238 481.041 -91.0064C450.528 -84.1913 422.7 -82.2386 393.238 -80.171L386.328 -79.6843C352.415 -77.2726 318.436 -74.3171 275.699 -64.772C235.207 -55.728 214.918 -45.2667 193.438 -34.1909L193.156 -34.0453C191.666 -33.2764 190.168 -32.5044 188.655 -31.729C163.702 -18.9349 136.641 -6.40879 80.3319 6.16784C23.9122 18.7692 -9.76652 33.5421 -37.7564 47.629C-42.2506 49.8908 -46.5613 52.1156 -50.731 54.2671C-71.7091 65.0925 -89.8251 74.4406 -114.405 79.9305Z" fill="white"/>
<path d="M-241.267 61.6743L-239.319 61.4153C-237.552 61.178 -234.963 60.8249 -231.675 60.3594C-225.671 59.5111 -216.085 58.1119 -204.507 56.2687C-184.051 53.0106 -153.323 47.7114 -123.1 40.9612C-98.7177 35.5154 -80.1257 28.724 -58.5973 20.8615C-54.2762 19.2827 -49.8344 17.6597 -45.1991 15.9949C-16.2842 5.60615 18.2728 -5.74861 74.8528 -18.3858C130.984 -30.9228 158.635 -40.3274 184.261 -49.6481L189.19 -51.4452C211.43 -59.5651 232.436 -67.2339 273.122 -76.3211C315.964 -85.8899 349.511 -91.0618 382.934 -95.9407L389.727 -96.9299C418.662 -101.141 445.983 -105.116 476.377 -111.904C506.379 -118.605 531.87 -125.701 558.857 -133.212L566.439 -135.321C597.101 -143.84 630.836 -153.004 676.145 -163.124C710.257 -170.743 732.357 -177.07 755.751 -183.768L763.187 -185.895C790.357 -193.647 821.437 -202.233 875.899 -214.397L874.389 -221.166L-249.167 29.7804L-242.196 61.0241L-241.375 60.8407L-241.267 61.6743ZM-122.766 42.4601C-153.026 49.2188 -183.789 54.5247 -204.266 57.7853C-215.855 59.6301 -225.45 61.0305 -231.46 61.8802C-234.753 62.3459 -237.345 62.6999 -239.114 62.9376L-241.072 63.1979L-241.072 63.1994L-243.222 63.4743L-251 28.6162L875.552 -223L877.732 -213.233L876.234 -212.898C821.809 -200.742 790.751 -192.163 763.611 -184.418L756.182 -182.294C732.751 -175.586 710.628 -169.253 676.48 -161.625C631.201 -151.512 597.496 -142.355 566.848 -133.841L559.288 -131.738C532.264 -124.216 506.75 -117.115 476.712 -110.405C446.261 -103.604 418.912 -99.6248 389.958 -95.4119L383.156 -94.4215C349.763 -89.5468 316.246 -84.3795 273.456 -74.8223C232.869 -65.757 211.908 -58.1046 189.716 -50.0027L184.786 -48.2052C159.11 -38.8663 131.408 -29.4439 75.1872 -16.887C18.6896 -4.2682 -15.8124 7.06877 -44.6801 17.4399C-49.313 19.1049 -53.7521 20.7258 -58.0696 22.303C-79.6493 30.1857 -98.2852 36.9923 -122.766 42.4601Z" fill="white"/>
<path d="M-226.985 125.795C-226.512 125.815 -225.823 125.843 -224.936 125.873C-223.264 125.929 -220.531 126.008 -217.015 126.058C-210.806 126.146 -200.906 126.162 -189.008 125.732C-167.998 124.974 -136.608 122.654 -106.379 115.902C-81.9864 110.454 -64.5105 98.6321 -44.2745 84.942L-44.1863 84.8829C-40.1716 82.1672 -36.0204 79.3581 -31.694 76.5201C-4.45133 58.6443 28.5582 40.3609 85.1412 27.723C141.274 15.1857 167.551 -0.369906 191.648 -16.5431C193.192 -17.5796 194.72 -18.6115 196.241 -19.6396C217.181 -33.7916 236.923 -47.1331 277.607 -56.2198C320.447 -65.7881 354.983 -66.5381 389.506 -66.4907C391.86 -66.4869 394.202 -66.4806 396.533 -66.4747C426.412 -66.3924 454.634 -66.3153 485.035 -73.1053C515.043 -79.8077 539.939 -89.5741 566.302 -99.9154L573.693 -102.811C603.646 -114.512 636.68 -126.782 681.996 -136.903C716.1 -144.52 737.61 -153.496 760.378 -162.998L761.435 -163.44C763.478 -164.292 765.536 -165.15 767.624 -166.015C794.069 -176.975 824.45 -188.694 878.92 -200.86L874.389 -221.167L-249.167 29.7804L-227.918 125.011L-226.932 124.791L-226.985 125.795ZM-106.044 117.401C-136.388 124.178 -167.879 126.507 -188.953 127.267C-200.883 127.698 -210.81 127.682 -217.037 127.593C-220.566 127.542 -223.308 127.464 -224.988 127.407C-225.889 127.376 -226.586 127.349 -227.063 127.329L-227.064 127.333L-227.723 127.299L-227.93 127.345L-228.029 127.283L-228.995 127.234L-250.999 28.6162L875.553 -223L880.753 -199.696L879.255 -199.361C824.904 -187.222 794.596 -175.53 768.208 -164.595C766.128 -163.732 764.07 -162.875 762.027 -162.023L760.984 -161.587C738.136 -152.053 716.569 -143.052 682.331 -135.405C637.119 -125.306 604.143 -113.059 574.248 -101.379L566.857 -98.4848C540.444 -88.1228 515.49 -78.334 485.369 -71.6064C454.802 -64.7792 426.495 -64.8572 396.528 -64.9394C394.198 -64.9447 391.857 -64.9513 389.503 -64.9551C355.071 -65.0022 320.628 -64.255 277.942 -54.721C237.541 -45.6976 217.916 -32.4349 197.14 -18.3943C195.577 -17.338 194.049 -16.3052 192.503 -15.2676C168.28 0.990416 141.868 16.6267 85.4757 29.2219C29.1323 41.8062 -3.73094 60.0082 -30.8523 77.8042C-35.1689 80.6368 -39.3161 83.4419 -43.326 86.1549L-43.4149 86.2149C-63.7802 99.9914 -81.368 111.889 -106.044 117.401Z" fill="white"/>
</g>
</svg>
