<svg width="175" height="144" viewBox="0 0 175 144" fill="none" xmlns="http://www.w3.org/2000/svg">
<path d="M2.30655 79.4015C-9.2886 52.7574 25.7435 52.8808 42.7045 47.3299C67.0666 32.836 78.847 13.6546 135.836 18.342C207.072 24.2013 145.087 68.9166 172.533 117.641C196.779 160.684 34.6867 139.844 18.6509 128.743C2.61511 117.641 16.8005 112.707 2.30655 79.4015Z" fill="#FFE9D0"/>
<g clip-path="url(#clip0)">
<path fill-rule="evenodd" clip-rule="evenodd" d="M87.7226 35.0088C87.7535 34.9732 87.7864 34.9394 87.8213 34.9075C88.9567 33.8767 90.8373 34.1708 92.1316 34.772C93.6515 35.4785 94.7353 37.0348 96.2121 37.7282C96.0342 40.3362 95.2618 41.995 92.8994 41.995C90.6104 41.9947 88.0429 37.91 87.7226 35.0088ZM118.425 64.5428C118.463 65.3695 118.448 66.1978 118.377 67.0224C118.164 69.593 116.358 73.639 113.311 73.639C111.687 73.639 110.468 72.5863 109.197 71.5749C106.468 71.7052 104.944 72.1576 103.574 72.5651C102.415 72.91 101.414 73.2081 99.9404 73.2081C98.1173 73.2081 96.4327 72.3742 95.2401 71.5795C92.1382 71.0186 89.6634 68.0129 89.6634 63.906C89.6634 60.7948 90.4391 57.9233 88.6378 55.903C88.2968 55.5209 87.8778 55.1929 87.4296 54.8932C89.5743 53.6458 92.6117 53.4122 94.6419 53.4122C97.4998 53.4122 101.459 56.3039 105.337 58.2829C105.541 58.3872 110.112 61.0811 112.242 62.2241C114.432 63.3979 116.607 63.9806 118.425 64.5418V64.5428ZM108.965 71.3909C107.86 70.5252 106.696 69.7399 105.178 69.7399C102.35 69.7399 99.7608 71.6749 96.2973 71.6749C96.0996 71.6745 95.902 71.6641 95.7054 71.644C96.8402 72.3459 98.3377 73.012 99.941 73.012C101.385 73.012 102.374 72.7188 103.517 72.3775C104.795 71.9951 106.332 71.5384 108.965 71.3909ZM114.01 38.647C113.039 36.0889 112.396 33.676 109.523 33.676C108.967 33.676 107.298 34.0919 106.823 35.2847C106.896 35.3922 106.933 35.5193 106.929 35.6485C106.909 36.1908 106.506 36.7139 105.92 37.0022C104.518 37.692 104.088 39.5874 104.919 41.0736C105.291 41.7403 104.835 42.3406 104.113 42.6259C103.627 42.8178 100.55 43.0728 99.0391 44.6209C98.4597 45.2144 97.6481 45.9306 99.6783 47.5826C101.842 49.0982 103.884 50.7645 105.832 52.5406C107.362 53.9421 109.116 55.0819 111.022 55.9134C112.095 56.3824 113.135 56.9133 114.167 57.4573C115.03 57.9132 116.859 59.2855 118.72 60.732C120.175 58.0507 125.488 56.5954 125.488 51.3127C125.489 42.9393 115.882 43.5751 114.01 38.6464V38.647ZM90.1353 32.4683C92.6179 32.4683 93.9931 34.3965 95.2065 36.0974C96.1246 37.3843 96.9164 38.4959 98.0151 38.4959C98.0412 38.4959 98.0663 38.4856 98.0848 38.4673C98.1033 38.449 98.1137 38.4241 98.1137 38.3982C98.1137 38.3723 98.1033 38.3474 98.0848 38.3291C98.0663 38.3108 98.0412 38.3005 98.0151 38.3005C97.0204 38.3005 96.2552 37.2276 95.369 35.9853C94.1276 34.2454 92.7209 32.2722 90.1353 32.2722C90.1091 32.2722 90.084 32.2825 90.0655 32.3008C90.047 32.3191 90.0366 32.344 90.0366 32.3699C90.0366 32.3958 90.047 32.4207 90.0655 32.439C90.084 32.4573 90.1091 32.4676 90.1353 32.4676V32.4683Z" fill="#163560"/>
<path fill-rule="evenodd" clip-rule="evenodd" d="M106.922 36.0153C107.871 36.0153 108.548 35.5267 109.553 35.5267C112.133 35.5267 112.319 41.3801 114.321 42.6318C116.992 44.3014 124.561 45.3421 124.561 50.8492C124.561 55.5069 116.226 60.2834 116.226 64.433C116.226 67.6302 116.663 72.5878 111.826 72.5878C114.65 72.5878 114.606 66.9634 114.606 63.6409C114.606 59.1747 121.676 55.5052 121.676 51.3423C121.676 46.0251 113.533 48.2041 111.51 45.215C110.275 43.3911 110.475 41.0081 110.475 38.8594C110.475 36.2361 108.904 36.1059 106.956 36.2482C106.991 36.1208 106.959 36.0394 106.922 36.0153Z" fill="#1F497C"/>
<path fill-rule="evenodd" clip-rule="evenodd" d="M131.994 72.0996C131.915 71.5849 131.648 71.0684 131.691 70.5726C131.751 69.8886 131.555 69.2825 131.454 68.6392C131.366 68.076 131.06 67.7507 130.636 67.5034C129.426 66.7996 124.813 65.4225 123.91 64.7831C122.545 63.8183 116.05 58.4522 114.167 57.4575C113.136 56.9136 112.096 56.3826 111.023 55.9136C109.116 55.0826 107.362 53.9431 105.832 52.5418C103.884 50.7657 101.842 49.0994 99.6782 47.5839C97.648 45.9318 98.4595 45.2156 99.0389 44.6222C100.552 43.074 103.627 42.819 104.113 42.6272C104.836 42.3418 105.291 41.7419 104.918 41.0748C104.088 39.587 104.518 37.6916 105.92 37.0034C106.506 36.7152 106.909 36.1921 106.929 35.6498C106.931 35.5358 106.903 35.4232 106.848 35.3235C106.792 35.2238 106.711 35.1404 106.612 35.082C106.213 34.8415 105.755 34.7122 105.288 34.7078C104.456 34.7078 104.089 35.0873 103.37 35.0873C102.324 35.0873 101.832 33.8408 101.408 33.8408C101.06 33.8408 100.674 34.2906 100.102 34.4042C99.8452 34.4554 99.4743 34.3586 99.2418 34.2616C99.1619 34.229 99.0396 34.2987 98.936 34.3166C98.8673 34.3283 98.7815 34.2515 98.7101 34.274C98.5072 34.3368 98.184 34.5951 97.9959 34.6169C97.6802 34.6537 97.5026 34.6065 97.2764 34.5844C96.5756 34.5111 96.232 34.8251 96.2461 35.442C96.3343 39.33 95.8946 41.9979 92.8983 41.9979C90.5182 41.9979 87.8343 37.5763 87.6945 34.6655C87.4795 30.2032 86.7505 25.0628 86.7738 24.0472C86.7998 22.9724 86.7692 22.6304 86.8274 21.3148C86.9389 18.7984 85.247 13.4775 85.1813 9.46119C85.1014 4.56964 78.7463 0.794964 77.9187 0.373818C76.8033 -0.192922 76.529 -0.0118262 76.4527 0.266332C75.7852 0.0764418 75.462 0.0777452 75.3423 0.186533C75.0194 0.479674 75.6438 1.24086 75.8842 1.48189C76.5885 2.18901 78.4895 3.96642 79.1206 4.60189C79.1296 4.61267 79.1348 4.62604 79.1356 4.64002C79.1363 4.654 79.1325 4.66784 79.1247 4.6795C79.1169 4.69116 79.1055 4.70001 79.0922 4.70475C79.0789 4.70948 79.0644 4.70985 79.0508 4.70579C78.3909 4.43968 77.187 3.671 76.8723 3.54919C76.7408 3.4987 76.4596 3.47492 76.3409 3.56612C76.1085 3.74461 76.2988 4.02473 76.4235 4.15469C76.6629 4.40483 76.967 4.69667 77.2755 4.84292C78.1304 5.24778 79.0538 6.18387 79.627 6.89686C80.4658 7.93914 81.6966 8.22348 82.0718 9.98591C82.6696 12.7942 81.9515 15.7113 82.0459 18.9407C82.0843 20.2651 82.4405 22.632 82.4003 24.7788C82.3829 25.7292 81.8699 32.0184 81.7667 33.4453C81.6657 34.8397 82.083 38.7782 80.6486 40.47C79.7937 41.4797 78.3797 41.5702 77.119 43.218C76.2969 44.2929 76.0943 46.2289 75.5596 47.3647C74.7007 49.1886 72.1579 53.5112 72.1579 58.1193C72.1539 59.6556 72.2449 61.1906 72.4305 62.7158C72.5127 63.3783 72.1786 63.7027 71.516 63.6415C70.9336 63.5877 69.9284 63.5112 68.9928 63.5112C59.4383 63.5112 50.9968 65.6739 50.9968 70.0968C50.9968 72.4057 53.0027 74.5242 53.6433 75.1267C59.6188 80.7638 69.6696 83.7496 74.3268 87.1598C75.5057 87.9653 78.2801 89.7655 78.9413 90.2215C83.498 99.6437 87.4252 112.008 88.224 122.926C88.3097 124.097 88.3112 125.272 88.2286 126.443C88.145 127.619 88.0349 128.819 88.0349 130.393C88.0349 132.105 88.3042 135.973 88.3025 136.288C88.2986 137.053 88.2647 137.088 87.5383 137.306C87.0997 137.436 85.1875 137.711 85.1875 138.615C85.1875 139.288 89.9227 138.882 91.2196 138.882C92.0782 138.882 92.5872 138.179 92.7418 137.339C92.8424 136.794 92.2015 134.936 92.9927 133.516C93.7819 132.101 95.3567 131.417 95.3567 129.922C95.3567 128.474 92.0322 127.293 92.0322 124.604C92.0322 118.346 93.9121 115.089 93.9121 109.986C93.9121 104.766 88.4433 97.9106 88.3325 93.5435C88.5627 93.5722 88.4597 93.0337 88.2687 92.8445C88.5465 92.793 88.9204 92.7188 88.9204 92.4953C88.9204 91.8938 88.1618 91.4511 87.8622 91.1716C88.1911 87.4282 87.7182 77.9246 87.6245 74.9665C87.6118 74.5384 87.6952 74.1129 87.8688 73.7206C88.5183 72.2452 89.0901 70.0108 89.0901 68.774C89.0901 63.2695 84.7775 61.9888 84.7166 58.9958C84.6795 57.1328 85.977 55.9433 86.737 55.3547C88.8724 53.7017 92.3787 53.4135 94.6375 53.4135C97.4954 53.4135 101.454 56.3051 105.332 58.2842C105.537 58.3884 110.108 61.0824 112.238 62.2253C115.675 64.0704 119.078 64.4554 121.114 65.5879C121.972 66.0651 122.654 66.7996 122.905 67.7565C123.424 69.7434 125.07 71.5869 125.432 71.9149C125.662 72.1233 126.046 71.9729 126.071 71.6608C126.098 71.2975 126.082 70.9322 126.022 70.5726C125.98 70.3007 125.726 69.9238 125.656 69.6531C125.35 68.4607 127.842 69.017 128.658 69.504C129.498 70.0046 130.086 70.73 130.529 71.5885C130.68 71.8937 130.866 72.1812 131.081 72.4458C131.248 72.6539 131.62 72.8109 131.824 72.6464C131.954 72.5432 132.021 72.2751 131.994 72.0996ZM66.4575 74.8382C67.8288 75.045 72.4259 75.0512 73.7017 75.1727C73.5791 78.0897 75.5833 82.8354 75.5833 82.8354C72.365 81.7267 68.4259 75.9202 66.4566 74.8382H66.4575Z" fill="#FFB27D"/>
<path fill-rule="evenodd" clip-rule="evenodd" d="M85.6694 56.3791C85.8467 56.2163 86.5924 55.4671 86.7424 55.3515C87.6822 54.6242 88.8874 54.161 90.135 53.8702C89.598 51.486 91.9672 47.7657 94.9053 47.0377C98.3791 48.1432 99.5297 47.4611 99.5297 47.4611C99.2685 47.2451 99.0284 47.0052 98.8125 46.7446C98.8125 46.7446 91.4999 46.6635 92.2921 41.9071C91.8741 41.7853 91.4546 41.5452 91.0478 41.2189C91.0478 41.2189 90.9255 41.483 90.7683 41.6224C88.9719 43.2148 85.3521 39.4118 79.0115 41.6224C78.3453 41.8547 77.7429 42.409 77.1221 43.2204C76.3 44.2952 76.0974 46.2313 75.5627 47.367C75.3819 47.751 75.1264 48.2464 74.8357 48.8304C74.8357 48.8304 76.2898 48.4415 78.2437 49.4434C82.5784 51.6605 85.6694 56.3791 85.6694 56.3791Z" fill="#FD9A22"/>
<path fill-rule="evenodd" clip-rule="evenodd" d="M66.4568 74.8379C67.828 75.0447 72.4251 75.0509 73.701 75.1724C75.5826 75.1073 78.1991 75.8707 82.1849 75.8105C86.0404 75.7525 88.2814 72.6911 88.4577 72.1188C88.8299 70.9092 89.0933 69.6109 89.0933 68.7709C89.0933 63.2663 84.7807 61.9856 84.7199 58.9927C84.7055 58.2722 84.8965 57.5624 85.271 56.9446C85.271 56.9446 81.0225 57.6325 77.3754 57.5788C73.5609 57.5224 72.264 56.4515 72.264 56.4515C72.1948 57.004 72.1597 57.5601 72.1588 58.1168C72.1548 59.6531 72.2459 61.1881 72.4314 62.7133C72.5136 63.3758 72.1795 63.7002 71.5169 63.6389C70.9345 63.5852 69.9293 63.5087 68.9938 63.5087C59.4392 63.5087 50.9977 65.6714 50.9977 70.0942C50.9977 72.4032 53.0036 74.5216 53.6442 75.1242C59.2268 80.3903 68.3654 83.3425 73.3413 86.4886C73.3413 86.4886 73.6043 85.1532 74.0357 84.3203C74.2488 83.9089 75.1242 82.6494 75.1242 82.6494C72.0016 81.1948 68.3344 75.8691 66.4568 74.8379Z" fill="#005247"/>
<path fill-rule="evenodd" clip-rule="evenodd" d="M72.3698 62.1596C72.3895 62.3444 72.4108 62.5289 72.4336 62.7133C72.5158 63.3758 72.1817 63.7002 71.5191 63.639C70.9367 63.5852 73.9304 63.9389 74.8074 64.0783C73.9146 63.5911 72.3698 62.1596 72.3698 62.1596Z" fill="#0B5E50"/>
<path fill-rule="evenodd" clip-rule="evenodd" d="M78.9458 90.2187C83.5024 99.6409 87.4297 112.005 88.2284 122.923C88.2376 123.049 88.2501 123.249 88.2573 123.376C88.2573 123.376 88.9219 123.544 89.9015 123.544C91.5569 123.544 92.0656 123.301 92.0656 123.301C92.298 117.868 93.9169 114.72 93.9169 109.983C93.9169 104.763 88.4481 97.9075 88.3373 93.5403C87.8052 93.5403 85.8269 92.5655 83.6432 92.1137C81.4235 91.6545 78.9458 90.2187 78.9458 90.2187Z" fill="#0B5E50"/>
<path fill-rule="evenodd" clip-rule="evenodd" d="M87.8726 73.7175C88.0974 73.1967 88.2926 72.6639 88.4573 72.1215C88.2755 72.7 86.0358 75.7525 82.1855 75.8105C78.1984 75.8708 75.5818 75.1083 73.7016 75.1725C73.5789 78.0895 75.5832 82.8352 75.5832 82.8352C76.3066 83.1254 77.0547 83.4723 77.7071 83.5374C78.4828 83.6146 80.0175 83.2247 81.0013 83.4289C82.218 83.681 81.8215 86.1496 83.5186 87.6241C85.3271 89.1957 87.0976 89.9223 87.8674 91.1685C88.1962 87.4251 87.7233 77.9215 87.6296 74.9633C87.6165 74.5354 87.6995 74.1098 87.8726 73.7175Z" fill="#0B5E50"/>
<path fill-rule="evenodd" clip-rule="evenodd" d="M95.3612 129.919C95.3612 129.092 94.2761 128.351 93.3448 127.367C92.647 126.628 92.2926 137.303 87.5429 137.303C87.0848 137.303 85.1921 137.707 85.1921 138.612C85.1921 139.285 89.9273 138.878 91.2242 138.878C92.0828 138.878 92.5918 138.176 92.7463 137.336C92.847 136.791 92.2061 134.932 92.9972 133.512C93.7851 132.097 95.3612 131.413 95.3612 129.919Z" fill="#FD9A22"/>
<path fill-rule="evenodd" clip-rule="evenodd" d="M88.3369 93.5394C88.9249 93.5394 88.9249 93.1485 88.9249 92.4912C88.9249 91.0656 85.1002 88.9984 83.5179 87.6232C81.8208 86.1488 82.2167 83.6822 81.0007 83.4281C80.0168 83.2239 78.4821 83.6138 77.7064 83.5366C76.5036 84.3013 86.1574 89.9602 84.2794 92.2597C86.2015 92.7479 87.8572 93.5394 88.3369 93.5394Z" fill="#FD9A22"/>
<path fill-rule="evenodd" clip-rule="evenodd" d="M85.6694 56.3792C85.8466 56.2163 86.5924 55.4672 86.7424 55.3515C87.6822 54.6242 88.8874 54.1611 90.135 53.8702C90.0363 52.8357 89.9896 52.4869 90.5391 51.0622C86.0837 55.0636 81.5172 50.4662 79.7073 48.6435C77.2589 46.1782 77.0672 44.9991 77.1221 43.2155C76.3 44.2904 76.0974 46.2264 75.5627 47.3621C75.3819 47.7462 75.1264 48.2416 74.8357 48.8256C74.8357 48.8256 76.2898 48.4367 78.2437 49.4386C82.5784 51.6606 85.6694 56.3792 85.6694 56.3792Z" fill="#F78C19"/>
</g>
<defs>
<clipPath id="clip0">
<rect width="81" height="139" fill="white" transform="translate(51)"/>
</clipPath>
</defs>
</svg>
