<svg width="177" height="152" viewBox="0 0 177 152" fill="none" xmlns="http://www.w3.org/2000/svg">
<path d="M56.9262 37.9357C47.8159 39.244 38.4749 39.1815 29.3756 40.541C20.2763 41.9005 11.0347 44.9664 5.46518 51.0635C0.675739 56.3058 -0.818126 63.2925 0.408363 69.7817C1.63485 76.2709 5.36951 82.2974 10.1209 87.5632C16.3074 94.422 24.5935 100.745 26.0027 109.214C27.0956 115.766 23.8294 122.85 27.1753 128.861C29.0837 132.29 32.887 134.754 36.9038 136.553C44.2403 139.819 52.5375 141.278 60.8289 140.759C69.0967 140.231 76.9842 137.759 85.122 136.437C93.9969 134.996 103.107 134.933 112.153 134.932C116.357 134.932 120.672 134.958 124.594 136.208C131.756 138.491 137.056 144.656 144.722 144.986C152.136 145.306 157.98 140.01 162.215 134.972C168.166 127.895 173.396 120.225 175.691 111.819C179.077 99.4176 175.691 86.0943 167.875 75.1479C160.058 64.2016 148.04 55.5391 134.562 49.4051C133.07 48.7254 131.515 48.0457 130.458 46.9483C127.796 44.1761 129.3 40.1663 129.158 36.6305C128.856 29.1115 120.466 23.3163 111.728 21.1993C101.707 18.7732 90.5406 20.1132 81.5566 24.4475C76.9904 26.6526 74.925 29.3746 71.5509 32.3904C67.8101 35.7399 62.2136 37.173 56.9262 37.9357Z" fill="#FEE9D0"/>
<path d="M79.5085 8.3168C79.0838 7.73465 78.4742 7.26663 77.6263 6.96955C76.0558 6.41907 74.3681 6.62222 72.8502 7.27701C72.5493 7.35892 72.2572 7.4665 71.9744 7.59921C71.6039 7.5648 71.2261 7.64945 70.9438 7.87008C68.5872 9.7143 67.9333 12.9063 67.8399 15.8739C67.7284 19.4023 68.0737 20.1713 71.273 21.4617C73.5279 22.3715 77.0436 24.1044 78.4779 21.5338C79.0017 20.5956 79.4053 19.5209 79.7294 18.3822C80.4736 18.2211 81.1384 17.6373 81.2839 16.8132C81.4238 16.0252 80.6368 13.7102 80.6166 12.9118C80.5888 11.765 81.4656 9.02402 81.4847 8.88804C81.655 7.68823 80.39 8.30752 79.5085 8.3168Z" fill="#FFC6A8"/>
<path d="M73.2075 20.6759C72.6774 19.7906 71.5864 19.4051 70.9211 18.6116C70.197 17.7482 69.6009 16.7811 68.8376 15.951C68.7906 15.9002 68.7406 15.8642 68.689 15.8402C69.0761 14.2936 69.3723 12.7209 69.6505 11.1432C69.7728 10.4513 68.7587 10.2476 68.6369 10.9389C68.1301 13.812 67.5726 16.6342 66.4769 19.3335C65.5681 21.5709 64.4734 23.7067 63.6621 25.9905C63.5589 26.2815 63.6771 26.5278 63.8624 26.6605C63.7814 27.1596 64.3155 27.4977 64.6577 27.2159C64.6546 27.2252 64.651 27.235 64.6479 27.2448C64.5189 27.6544 64.813 27.9974 65.118 28.0268C65.0298 28.556 65.6713 28.8995 65.9893 28.4943C66.2189 28.7417 66.6297 28.7799 66.7897 28.3633C66.8083 28.3152 66.8279 28.2682 66.8465 28.2202C66.8527 28.3889 66.8759 28.5588 66.9425 28.7319C67.0689 29.0601 67.503 29.1862 67.7533 28.976C67.8658 29.2528 68.1713 29.4177 68.4108 29.3276C68.5032 29.3397 68.594 29.314 68.6786 29.2665C68.6627 29.3069 68.6472 29.3478 68.6317 29.3888C68.385 30.0387 69.2515 30.4892 69.5622 29.8623C69.6257 29.7345 69.684 29.6051 69.7465 29.4773C69.8456 29.433 69.9375 29.3615 69.9999 29.2337C71.2355 26.7135 72.3956 24.1982 73.1662 21.471C73.1781 21.4273 73.1781 21.3869 73.1786 21.3459C73.319 21.163 73.3288 20.8779 73.2075 20.6759Z" fill="#FFC6A8"/>
<path d="M68.3194 143.217C68.8035 142.887 70.7549 142.49 71.0063 142.581C71.9952 142.944 76.2014 144.366 76.0533 145.481C75.9289 146.411 75.2224 146.639 74.1396 146.631C72.486 146.619 70.7611 146.663 69.1447 146.412C67.1587 146.102 68.1548 143.33 68.3194 143.217Z" fill="#3A2A75"/>
<path d="M71.9904 136.872C71.785 138.582 71.3958 141.723 71.0304 143.423C70.9303 143.89 68.2888 143.68 68.3281 143.208C68.485 141.325 68.7719 138.643 69.0888 136.76C69.1167 136.591 72.0275 136.558 71.9904 136.872Z" fill="#FFD1A6"/>
<path d="M56.0618 143.217C56.5459 142.887 58.4974 142.49 58.7487 142.581C59.7376 142.944 63.9438 144.366 63.7957 145.481C63.6713 146.411 62.9648 146.639 61.882 146.631C60.2284 146.619 58.5035 146.663 56.8871 146.412C54.9011 146.102 55.8972 143.33 56.0618 143.217Z" fill="#3A2A75"/>
<path d="M59.7329 136.872C59.5275 138.582 59.1383 141.723 58.7729 143.423C58.6728 143.89 56.0314 143.68 56.0706 143.208C56.2275 141.325 56.5145 138.643 56.8314 136.76C56.8592 136.591 59.77 136.558 59.7329 136.872Z" fill="#FFD1A6"/>
<path d="M97.7659 47.1304C97.6936 43.9674 96.8885 34.9403 96.7492 31.7794C96.7285 31.2399 95.7427 33.3303 95.4692 33.6536C95.1802 33.3282 89.9159 34.0425 89.9726 34.7344C90.2152 37.7953 90.9171 44.4114 90.9171 44.4114C90.9171 44.4114 93.8176 45.3403 95.1182 45.3075C95.144 45.3223 95.1647 45.3424 95.1956 45.3539C95.8614 45.5898 96.7027 44.9329 96.7234 44.834C96.7337 44.7871 97.7762 47.5367 97.7659 47.1304Z" fill="#FFC6A8"/>
<path d="M111.618 28.2001C109.791 27.5851 107.2 28.2705 105.518 23.5778C104.197 19.8932 100.909 18.4417 97.9568 18.2549C95.9491 18.1276 91.299 18.8856 92.419 22.0935C92.6616 22.7887 93.2035 23.1158 93.7609 23.1589C94.1531 25.333 94.5505 27.5071 94.9428 29.6811C95.0873 30.4905 95.6498 30.8312 96.2433 30.817C96.3156 31.1556 96.393 31.4937 96.4911 31.829C95.913 31.9939 96.7852 32.2462 96.7336 33.0506C96.4859 36.8968 95.4072 41.1915 97.6987 44.3567C99.5361 46.9043 102.504 48.6234 105.595 47.9386C108.604 47.2718 109.791 45.2075 110.813 42.4453C111.484 40.6453 113.44 40.3794 114.637 38.8994C115.463 37.8733 116.005 36.5468 116.119 35.2028C116.392 32.1037 114.41 29.1399 111.618 28.2001Z" fill="#163560"/>
<path d="M122.245 136.311C121.744 136.615 120.521 138.269 120.48 138.547C120.335 139.644 119.602 144.251 120.609 144.622C121.445 144.932 121.961 144.372 122.451 143.349C123.194 141.787 124.02 140.185 124.552 138.549C125.202 136.54 122.415 136.207 122.245 136.311Z" fill="#3A2A75"/>
<path d="M107.37 85.4582C106.978 81.9063 97.838 86.6935 98.4005 88.7185C100.542 96.4459 104.578 110.205 105.492 112.314C108.047 118.198 119.86 138.363 120.665 138.28C122.09 138.133 122.301 137.68 122.472 137.252C123.024 135.837 116.96 120.21 115.174 116.565C113.822 113.796 112.263 109.934 112.253 109.828C111.928 105.556 107.484 85.9437 107.37 85.4582Z" fill="#FFC6A8"/>
<path d="M92.8834 94.4325C93.1466 90.8676 86.5405 107.522 86.7263 109.623C87.423 117.642 95.5413 148.891 96.3465 148.973C97.7709 149.119 98.06 148.717 98.3025 148.331C99.1025 147.055 92.9092 94.9328 92.8834 94.4325Z" fill="#FFC6A8"/>
<path d="M96.5633 33.3035C96.8213 32.8475 97.2549 32.4822 97.5749 32.0884C98.318 31.1775 99.1489 29.7287 98.1787 28.6327C97.2548 27.5847 96.7439 28.565 95.8872 27.2363C95.5827 26.7601 95.6601 26.09 95.7375 25.5647C95.7994 25.1136 96.1246 24.6286 96.1349 24.1803C96.1607 22.9679 95.3194 21.6671 94.6382 20.8031C93.7918 19.7306 92.9454 19.6519 92.9092 19.6465C92.0473 20.0724 91.4796 20.8796 90.9171 21.8124C90.4474 22.5966 90.1894 23.8739 89.6784 24.6854C89.3481 25.2064 88.8784 25.6089 88.3778 25.9748C87.7533 26.4313 87.0204 26.6995 86.7418 27.2477C86.556 27.6125 86.6489 28.311 87.3869 28.9696C87.1598 29.6277 86.8501 30.6549 86.6695 31.3026C86.0347 33.5897 85.7973 34.553 88.4036 35.2608C96.0781 37.3447 96.2639 33.8349 96.5633 33.3035Z" fill="#FFC6A8"/>
<path d="M92.8886 23.6763C92.4757 23.4911 92.099 23.2694 91.3558 23.2612C91.0203 23.2574 91.0667 23.8335 91.3919 23.9061C91.7944 23.9952 92.1763 24.1202 92.5531 24.2878C92.7079 24.355 93.3531 24.5652 93.4357 24.4145C93.5234 24.2611 93.0434 23.7451 92.8886 23.6763Z" fill="#163560"/>
<path d="M91.1804 25.9739C90.9997 26.2993 90.6901 26.4598 90.4785 26.3321C90.2669 26.2043 90.2411 25.8364 90.4217 25.511C90.5972 25.185 90.912 25.0246 91.1236 25.1523C91.3301 25.2801 91.3558 25.648 91.1804 25.9739Z" fill="#163560"/>
<path d="M78.4738 11.2493C78.9176 11.335 79.3466 11.4126 79.9757 11.8363C80.2564 12.0253 79.921 12.4812 79.6103 12.3546C79.2299 12.1984 78.8418 12.0335 78.4408 11.9559C78.2792 11.9248 77.649 11.7271 77.6351 11.5518C77.6067 11.2045 78.3091 11.2176 78.4738 11.2493Z" fill="#163560"/>
<path d="M78.1527 13.2571C78.002 13.5977 78.0567 13.9619 78.2755 14.0705C78.4949 14.1786 78.7943 13.9908 78.9455 13.6501C79.0962 13.3095 79.0415 12.9453 78.8226 12.8367C78.6038 12.7286 78.3039 12.9164 78.1527 13.2571Z" fill="#163560"/>
<path d="M119.613 99.6877C117.755 97.903 115.943 96.1396 114.663 93.8269C113.347 91.4578 112.485 88.8556 111.494 86.3288C109.683 81.7174 107.195 77.7084 103.923 74.1046C102.23 72.2348 100.31 70.6363 98.5502 68.8456C98.5296 61.9264 102.287 55.3501 101.291 48.3785C100.398 42.1414 91.5364 39.9493 88.5739 42.6798C84.5535 46.3846 82.55 49.8077 81.9926 55.6046C81.4166 61.5993 82.9948 65.2609 83.7999 71.0775C82.6294 78.9328 79.2944 88.4712 82.2749 95.6689C83.3148 98.1772 84.4244 100.546 84.8889 103.265C85.3379 105.868 85.3638 108.535 85.6683 111.158C86.1637 115.39 86.0811 120.546 92.4757 123.301C94.0291 123.968 96.109 122.37 97.198 121.551C100.228 119.273 101.544 114.955 105.038 113.356C108.95 111.563 113.11 112.871 116.836 114.375C124.851 117.61 126.131 113.106 126.048 111.256C125.832 106.33 122.91 102.855 119.613 99.6877Z" fill="#F99746"/>
<path d="M98.3798 147.661C97.8999 147.326 95.9541 146.907 95.7012 146.997C94.7103 147.348 90.4885 148.724 90.6279 149.84C90.7414 150.771 91.4433 151.008 92.5272 151.011C94.1839 151.017 95.9077 151.08 97.5283 150.846C99.5153 150.559 98.545 147.776 98.3798 147.661Z" fill="#3A2A75"/>
<path d="M89.0332 30.715C89.2035 30.465 89.3841 30.1582 89.0435 29.9628C88.5635 29.6893 87.7378 29.7291 87.1701 29.6216C86.9946 30.0627 86.6075 31.4983 86.5404 31.7729C87.5262 31.8329 88.5326 31.4699 89.0332 30.715Z" fill="white"/>
<path d="M74.1649 74.263C74.699 67.9806 66.9905 70.586 65.1753 71.8454C63.3199 73.132 60.8529 75.2454 58.5196 74.8954C58.4185 74.8801 58.3101 74.8774 58.2007 74.8812C57.7666 73.8409 55.8725 74.0648 55.7027 75.5343C54.5441 85.5336 55.8901 95.4913 56.4557 105.479C57.0436 115.857 55.4287 137.835 55.3977 138.044C55.2501 139.048 55.1964 139.949 56.3809 140.15C57.7785 140.388 57.8028 140.53 60.1041 140.503C60.6625 140.496 61.2081 140.084 61.3484 139.5C62.6243 134.206 65.7699 126.728 67.1427 121.313C66.8909 126.609 67.2893 133.843 67.0375 139.138C67.0039 139.839 67.6563 140.553 68.3277 140.504C70.1186 140.37 69.9653 140.619 71.7598 140.66C72.2718 140.672 72.9174 140.232 73.0036 139.658C75.4778 123.182 77.1635 90.626 74.1649 74.263Z" fill="#016D5F"/>
<path d="M98.3181 67.8799C94.0034 69.3163 89.6681 70.4229 85.1109 70.194C84.4451 70.1607 84.4451 71.2531 85.1109 71.2864C89.761 71.5202 94.1789 70.4016 98.5916 68.9335C99.2264 68.7232 98.9529 67.6685 98.3181 67.8799Z" fill="#ED7D2B"/>
<path d="M111.639 109.322C106.462 105.019 104.052 98.7109 101.879 92.3395C101.657 91.6836 100.661 91.9665 100.888 92.63C103.113 99.1604 105.6 105.683 110.911 110.094C111.427 110.523 112.165 109.755 111.639 109.322Z" fill="#ED7D2B"/>
<path d="M70.3524 78.4989C71.5146 91.7119 69.7774 104.857 67.9783 117.912C67.8828 118.607 68.8969 118.81 68.9934 118.113C70.806 104.962 72.551 91.7157 71.3804 78.4071C71.319 77.7075 70.2904 77.7971 70.3524 78.4989Z" fill="#005247"/>
<path d="M74.1647 49.2332C74.1647 36.9458 72.9653 35.8918 71.7602 34.4883C69.784 32.1875 71.1337 33.3169 70.7244 30.233C71.2219 29.3598 65.0596 23.4755 64.6075 23.6142C60.1767 24.9768 56.6166 31.446 55.5849 33.6773C53.2361 38.7589 51.8132 47.5818 51.2884 53.193C50.7021 59.4602 51.0897 65.7775 51.7379 72.0206C52.3087 77.5172 50.9844 82.3349 54.8825 86.3953C55.2273 86.8764 55.7702 87.1445 56.4602 86.9075C59.4408 85.883 61.2941 83.3491 63.9598 81.7664C65.6944 80.7365 67.5364 80.2472 69.4966 80.0167C70.7843 79.8654 73.9867 78.4964 75.1969 77.9257C76.4015 77.3577 74.1647 50.1173 74.1647 49.2332Z" fill="#CBD7F5"/>
<path d="M99.8819 66.1401C99.1593 65.8059 98.3542 65.9664 97.6058 65.719C97.2188 65.5901 96.9143 65.3613 96.6201 65.1259C92.2642 61.2059 87.6037 57.7196 82.6553 54.6958C80.0051 51.6736 77.3543 48.6514 74.7041 45.6292C73.6007 44.3704 72.5226 42.7004 71.6813 42.2482C70.149 41.4241 65.5732 45.349 66.2111 46.2397C70.5835 52.342 78.4191 59.0177 81.989 61.7941C85.9367 64.8654 91.361 66.1046 96.0317 67.8013C96.8575 68.5987 96.5736 69.6172 97.4303 70.3724C98.3284 71.1638 99.7425 70.9497 100.352 69.8946C101.73 67.5283 101.311 66.8031 99.8819 66.1401Z" fill="#FFC6A8"/>
<path d="M64.5136 20.1039C64.5074 20.3163 70.0288 34.8325 76.2855 41.0647C82.2404 46.9966 86.4631 49.7981 91.8203 51.5997C96.0834 53.0333 97.1775 47.2991 94.726 45.6777C91.0926 43.2688 83.7742 40.2002 80.3555 37.4576C78.0981 35.6451 66.8738 18.7681 66.834 18.7654C66.4408 17.9271 65.7817 17.1336 65.2207 16.6372C64.9116 16.3636 63.6683 14.9988 62.4745 15.7497C61.3097 16.4826 61.6039 16.7737 62.4374 18.0379C62.8405 18.649 63.8107 19.4529 64.5136 20.1039Z" fill="#FFC6A8"/>
<path d="M82.8193 7.28202C82.7109 7.01278 82.2216 6.81564 82.1643 6.07565C82.1457 5.82552 82.8244 4.77805 82.314 3.86329C81.6549 2.68804 80.3569 2.1037 79.1807 1.69848C77.2892 1.0475 75.2702 1.47073 73.4086 0.857433C72.2804 0.485525 71.5868 -0.127745 70.3424 0.023531C62.4878 0.977606 66.6321 11.5478 66.7085 16.3127C66.7147 16.6813 66.7297 17.761 67.1436 17.8795C69.0439 18.4246 69.7365 18.146 70.4596 17.441C71.2089 16.7103 70.7863 14.4166 72.4321 13.9332C73.1304 13.7279 74.1487 14.0649 74.5662 13.7164C76.2843 12.2801 74.3335 9.96785 77.5158 9.31961C79.2984 8.95644 81.8557 12.438 82.9225 9.46816C83.1805 8.74837 83.0928 7.97287 82.8193 7.28202Z" fill="#163560"/>
<path d="M78.8578 20.7388C79.0797 20.273 79.0932 20.3167 79.2707 19.8057C78.7087 19.6353 78.2106 19.3722 77.6677 19.1347C77.3786 19.0091 77.0943 18.895 77.0938 19.2548C77.0938 19.537 78.5848 20.5449 78.8578 20.7388Z" fill="#F99746"/>
<path d="M65.4905 45.4126C63.5189 47.1624 61.3714 41.2431 60.9755 40.2584C60.0321 37.9162 59.0138 35.2419 59.5981 32.6762C59.7534 31.9936 58.7584 31.702 58.6025 32.3862C57.7432 36.1588 59.6688 40.3464 61.3611 43.5996C62.6576 46.092 63.6856 48.4348 66.2202 46.1848C66.7296 45.7327 65.9963 44.9632 65.4905 45.4126Z" fill="#AFBDE0"/>
<path d="M96.6614 47.5116C96.6407 47.1757 96.4033 47.0027 96.1607 46.989C96.1452 46.7356 96.1349 46.4806 96.1298 46.2234C96.1195 45.8745 95.8717 45.7003 95.6188 45.697C95.4949 45.5757 95.3195 45.5403 95.1543 45.5785C95.1543 45.5577 95.1543 45.5375 95.1543 45.5168C95.1543 45.1771 94.9273 45.0078 94.6847 44.9953C94.695 44.7719 94.7002 44.5491 94.7105 44.3258C94.7415 43.7191 93.8073 43.5722 93.6989 44.1811C93.6318 44.1794 93.5647 44.1729 93.4976 44.18L93.4873 43.9135C93.477 43.576 93.2344 43.4045 92.9918 43.3914C92.9712 43.3204 92.9506 43.2467 92.9299 43.1796C92.7699 42.5947 91.9132 42.6985 91.9183 43.3243C91.9183 43.4029 91.9235 43.481 91.9235 43.5596C91.65 43.0305 91.2784 42.5478 90.7674 42.1327C90.2358 41.7073 89.7249 42.6553 90.2462 43.0758C91.81 44.3356 91.5261 46.5183 91.6809 48.3345C91.7842 49.5539 92.0267 49.7363 91.1184 50.7569C90.2565 51.7289 90.1378 51.4619 89.1417 51.8196C88.6978 51.9785 88.6565 52.5409 89.0178 52.8178C90.2203 53.739 91.6706 53.667 92.7028 52.7878C92.7028 52.8566 92.708 52.9259 92.708 52.9942C92.7183 53.3213 93.0331 53.65 93.3634 53.5211C93.8486 53.3295 94.0654 53.0406 94.1686 52.6573C94.437 52.6911 94.7259 52.5251 94.7466 52.1418C94.7569 51.9807 94.7672 51.819 94.7776 51.658C94.9479 51.6705 95.1182 51.5968 95.2163 51.392C95.2834 51.2528 95.3298 51.102 95.3814 50.9519C95.5466 50.9841 95.7169 50.9464 95.8407 50.8268C95.9285 51.4723 96.9039 51.4652 96.8575 50.7799C96.7904 49.6904 96.7284 48.601 96.6614 47.5116Z" fill="#F99746"/>
</svg>
