<svg width="178" height="146" viewBox="0 0 178 146" fill="none" xmlns="http://www.w3.org/2000/svg">
<path d="M0.438522 68.2998C3.44148 91.8685 -7.30646 122.959 25.1582 132.2C25.4567 132.287 25.7587 132.37 26.0643 132.45C37.2159 135.413 45.096 136.011 51.5144 135.909C53.3692 135.879 55.1029 135.792 56.7581 135.686C58.483 135.575 60.1249 135.445 61.7289 135.339C67.5917 134.955 72.9803 134.913 80.3119 137.434C80.7241 137.574 81.1418 137.723 81.5652 137.882C81.9673 138.031 82.3754 138.189 82.7893 138.354C83.4553 138.62 84.1374 138.907 84.8358 139.214C85.6136 139.558 86.4141 139.928 87.2372 140.325L87.3415 140.375C89.5773 141.438 91.9131 142.304 94.3189 142.962C99.076 144.283 104.275 144.945 109.56 145.018H109.939C111.157 145.028 112.377 145.008 113.6 144.956H113.627C120.035 144.685 126.434 143.577 132.194 141.751L132.331 141.708C134.253 141.098 136.138 140.387 137.976 139.579C145.158 136.409 150.724 131.965 153.051 126.556C153.206 126.196 153.347 125.829 153.473 125.46C154.013 123.879 154.27 122.226 154.234 120.566C154.057 112.008 156.205 105.407 159.445 99.0803C163.994 90.1811 170.686 81.8211 176.036 69.3077C185.191 47.8967 160.778 24.6911 135.055 21.0437C109.332 17.3963 117.458 -0.00249228 86.4476 2.67784e-07C68.5527 2.67784e-07 57.6767 9.69516 52.4436 18.9516C50.9915 21.5215 47.8331 23.272 43.7518 24.7742C43.2807 24.947 42.7976 25.1171 42.3024 25.2844C40.3876 25.9333 38.3067 26.5464 36.1278 27.1754C34.651 27.6008 33.131 28.0345 31.5863 28.4898C26.7435 29.918 21.6765 31.5722 17.0546 33.9426C15.9435 34.512 14.8618 35.1252 13.8096 35.7821C4.6983 41.5042 -1.78189 50.857 0.438522 68.2998Z" fill="#FFE9D0"/>
<g clip-path="url(#clip0)">
<path d="M110.705 22.655C110.705 22.655 117.337 20.9141 122.783 25.2492C127.055 28.6517 132.943 36.2505 133.371 43.8615C133.751 50.5972 127.189 52.7431 129.169 55.2466C131.149 57.7502 139.859 59.4731 137.208 66.07C134.305 73.2915 146.918 75.6032 141.005 81.8154C136.45 86.5972 124.016 87.194 106.585 82.9586C89.1549 78.7232 81.7152 72.2153 83.6247 66.6179C85.5342 61.0204 93.5851 60.1565 91.1321 55.4002C88.6791 50.6438 86.5036 45.0463 92.4965 40.1307C96.4477 36.8866 90.3079 21.017 110.705 22.655Z" fill="#163560"/>
<path d="M126.56 128.381C121.664 117.386 118.662 114.23 119.234 110.818C119.66 108.277 117.938 63.4578 117.938 63.4578C117.356 63.2782 116.191 63.1165 115.553 62.9744C113.544 62.5278 111.881 61.116 111.188 59.1758C110.354 56.8389 109.691 53.3882 109.706 49.0637L109.079 49.1879L98.526 51.279C98.526 51.279 98.7708 54.6024 98.7708 57.7297C98.7708 57.7559 98.7708 57.782 98.7708 57.8114C98.779 59.134 98.3557 60.4231 97.5651 61.483C96.7745 62.5429 95.6599 63.3157 94.3904 63.684C93.057 64.0686 91.8974 64.3977 91.8974 64.3977C91.8974 64.3977 88.0221 75.4684 87.282 86.8404C86.5418 98.2125 94.3284 103.153 87.224 125.88C79.9728 149.092 129.267 134.456 126.56 128.381Z" fill="#FFB27D"/>
<path d="M98.5262 51.2823C98.5262 51.2823 98.7441 52.9742 98.7514 56.1048C104.656 55.9415 109.768 52.1789 111.047 49.1911L98.5262 51.2823Z" fill="#ED9670"/>
<path d="M106.309 29.7344C106.309 29.7344 103.69 27.1215 100.434 28.4843C97.178 29.8471 97.7084 33.1868 96.6035 34.6566C95.4986 36.1264 95.3844 40.0393 96.1229 40.7219C96.8614 41.4045 106.309 29.7344 106.309 29.7344Z" fill="#1F497C"/>
<path d="M96.3677 51.3289C96.3677 51.3289 109.324 56.5654 112.46 48.4448C115.596 40.3243 119.381 35.5263 111.242 31.8379C103.102 28.1496 100.289 30.6245 98.5833 33.0807C96.8778 35.5369 93.0783 49.757 96.3677 51.3289Z" fill="#FFB27D"/>
<path d="M105.38 30.4906C105.38 30.4906 105.28 40.2605 110.217 43.7815C115.153 47.3024 118.094 46.7488 118.094 46.7488C118.094 46.7488 115.178 41.7858 116.55 35.6217C116.55 35.6217 109.819 26.9908 105.38 30.4906Z" fill="#163560"/>
<path d="M89.269 108.779L103.131 112.923L107.526 111.845L115.348 109.928L120.026 108.779C120.026 108.779 121.641 108.24 123.074 104.932C123.645 103.612 124.012 96.2185 124.247 92.2378C124.247 92.2101 124.247 92.1815 124.253 92.1562C124.307 91.8246 124.36 91.4961 124.411 91.1706C128.377 65.6045 116.776 63.2063 116.776 63.2063C115.426 64.3197 113.983 65.3154 112.463 66.1826C109.999 67.5708 107.7 68.3367 105.598 68.6698C103.485 69.0157 101.323 68.9324 99.2425 68.4249C97.4533 67.9822 95.7509 67.2428 94.2059 66.2373C92.7093 65.2681 91.899 64.4026 91.899 64.4026C91.899 64.4026 91.5979 64.9374 91.1091 65.9262C89.8426 68.4804 87.3178 74.0615 85.4907 81.2193C82.957 91.1453 89.269 108.779 89.269 108.779Z" fill="#F99746"/>
<path d="M83.2313 137.109C83.6121 137.246 83.9981 137.393 84.3892 137.549C84.7608 137.696 85.1378 137.851 85.5202 138.013C86.1355 138.275 86.7658 138.556 87.411 138.859C88.1296 139.196 88.8692 139.56 89.6298 139.95L89.7261 139.999C91.7918 141.044 93.9499 141.895 96.1727 142.542C100.568 143.839 105.371 144.49 110.254 144.562H110.604C110.354 142.036 110.138 139.589 109.951 137.247C109.155 127.331 108.875 119.278 108.776 114.942C108.74 113.309 108.729 112.206 108.726 111.724C108.726 111.65 108.726 111.592 108.726 111.547C108.726 111.483 108.726 111.45 108.726 111.45H90.1528C90.1528 111.45 89.8901 112.267 89.4641 113.641C87.9602 118.478 84.43 130.18 83.2313 137.109Z" fill="#005247"/>
<path d="M93.3012 135.801C93.645 136.57 93.9823 137.338 94.3131 138.105C94.9534 139.588 95.5741 141.067 96.1752 142.542C100.57 143.839 105.373 144.49 110.257 144.562H110.607C111.732 144.572 112.86 144.552 113.989 144.502H114.014C119.935 144.235 125.847 143.146 131.169 141.351C131.011 138.461 130.852 136.044 130.679 134.375C129.933 127.108 123.641 117.187 120.716 112.913C119.814 111.594 119.233 110.813 119.233 110.813L108.726 111.725L107.611 111.821L101.292 112.369L98.6984 112.594L97.711 112.676L94.9708 112.914C94.9708 112.914 94.8288 113.579 94.6142 114.689C94.6011 114.759 94.5872 114.832 94.5726 114.908C94.5228 115.164 94.4706 115.442 94.4159 115.74C93.4383 121.012 91.661 132.128 93.3012 135.801Z" fill="#005247"/>
<path d="M101.72 47.2779C101.784 47.1783 99.1765 46.3422 97.9761 46.0531C96.7757 45.7641 96.3971 45.7094 96.3971 45.7094C96.5842 46.2303 96.6941 46.7758 96.7235 47.3286C96.7464 47.7671 99.0696 48.4889 99.8465 48.3901C100.636 48.2856 101.72 47.2779 101.72 47.2779Z" fill="white"/>
<path d="M53.1526 88.4107C53.1526 88.4107 50.7355 83.3538 49.0521 82.8369C47.3686 82.3201 45.3081 79.8157 44.896 80.2771C44.4839 80.7384 45.5921 82.2858 45.5921 82.2858L44.5549 87.292C44.5549 87.292 43.9372 88.743 44.7116 89.1162C45.486 89.4893 50.6621 91.329 50.6621 91.329L53.1526 88.4107Z" fill="#FFB27D"/>
<path d="M52.8162 87.7395C52.8162 87.7395 67.5226 98.0165 69.708 96.924C71.8933 95.8315 76.8025 80.5416 80.1531 73.4426C82.1475 69.2153 85.9322 66.8163 88.6684 65.567C90.5281 64.7186 91.9039 64.4001 91.9039 64.4001L87.8156 93.8056C87.9119 95.0549 75.7123 111.396 71.1189 110.315C66.5255 109.235 50.6651 91.3266 50.6651 91.3266L52.8162 87.7395Z" fill="#FFB27D"/>
<path d="M115.348 109.928L120.026 108.779C120.026 108.779 121.641 108.24 123.074 104.932C123.645 103.612 124.012 96.2185 124.247 92.2378C124.247 92.2101 124.247 92.1815 124.253 92.1562C124.307 91.8247 124.36 91.4961 124.411 91.1706L124.231 90.3434C124.231 90.3434 119.466 94.8344 118.739 99.0168C118.012 103.199 111.594 107.823 115.348 109.928Z" fill="#ED7D2B"/>
<path d="M89.0552 108.154C89.0552 108.154 91.8109 110.336 97.2848 110.446C103.824 110.577 120.027 108.778 120.027 108.778C120.027 108.778 120.746 110.791 120.718 112.916C120.718 112.916 100.928 117.911 89.464 113.645C89.4624 113.642 87.9837 110.861 89.0552 108.154Z" fill="#233862"/>
<path d="M98.2202 111.454H97.4156C97.3637 111.352 97.3042 111.254 97.2377 111.16L98.2202 111.454ZM98.2202 111.454H97.4156C97.3637 111.352 97.3042 111.254 97.2377 111.16L98.2202 111.454ZM98.2202 111.454H97.4156C97.3637 111.352 97.3042 111.254 97.2377 111.16L98.2202 111.454ZM98.2202 111.454H97.4156C97.3637 111.352 97.3042 111.254 97.2377 111.16L98.2202 111.454ZM92.9446 111.454C93.1184 110.953 93.4071 110.499 93.7875 110.129C93.8063 110.11 93.8267 110.092 93.8471 110.073C94.3544 109.598 95.0218 109.331 95.7166 109.326C96.5987 109.326 97.3927 109.762 97.9378 110.453C98.1761 110.754 98.362 111.092 98.4878 111.454C98.4993 111.484 98.509 111.514 98.5188 111.544C98.6287 111.885 98.6892 112.24 98.6984 112.598C98.6984 112.633 98.6984 112.669 98.6984 112.705C98.7039 113.176 98.6164 113.643 98.4409 114.079C98.2654 114.516 98.0054 114.913 97.6759 115.249C97.4203 115.51 97.1158 115.718 96.7798 115.862C96.4437 116.005 96.0827 116.081 95.7174 116.084C95.2622 116.084 94.8147 115.967 94.4167 115.746C93.9667 115.493 93.5859 115.132 93.3077 114.697C92.9297 114.102 92.7314 113.41 92.7365 112.705C92.7342 112.28 92.8046 111.856 92.9446 111.454ZM95.1478 114.996C95.3311 115.062 95.5243 115.095 95.7191 115.095C95.7736 115.095 95.8281 115.092 95.8823 115.086C96.9047 114.984 97.7102 113.955 97.7102 112.705C97.7106 112.698 97.7106 112.69 97.7102 112.682C97.7091 112.257 97.6079 111.837 97.4148 111.458C97.3629 111.355 97.3034 111.257 97.2369 111.164C96.9933 110.807 96.6401 110.539 96.2307 110.401C95.9957 110.325 95.7467 110.303 95.502 110.336C95.3234 110.36 95.1497 110.412 94.9871 110.49C94.5693 110.7 94.2312 111.04 94.0242 111.459C93.8282 111.847 93.7272 112.276 93.7296 112.71C93.7296 113.54 94.0838 114.273 94.6215 114.7C94.7808 114.829 94.9607 114.93 95.1536 114.999L95.1478 114.996ZM98.2202 111.454H97.4156C97.3637 111.352 97.3042 111.254 97.2377 111.16L98.2202 111.454ZM98.2202 111.454H97.4156C97.3637 111.352 97.3042 111.254 97.2377 111.16L98.2202 111.454ZM98.2202 111.454H97.4156C97.3637 111.352 97.3042 111.254 97.2377 111.16L98.2202 111.454Z" fill="white"/>
<path d="M74.5806 84.7541C74.5806 84.7541 75.4521 92.6746 81.8637 96.9925C83.1614 97.863 84.5855 98.5279 86.0858 98.9637C86.9302 99.2113 87.7919 99.3958 88.6637 99.5156C101.322 101.293 91.9008 64.4042 91.9008 64.4042C91.9008 64.4042 81.9453 66.893 78.9464 73.7193C75.9475 80.5457 74.5806 84.7541 74.5806 84.7541Z" fill="#F99746"/>
<path d="M116.777 63.2071C116.777 63.2071 121.824 87.2308 122.029 87.3843C122.234 87.5378 123.484 95.2558 128.854 96.844C129.28 96.9697 130.301 95.7653 130.36 95.7996C135.15 98.531 141.433 97.2808 141.433 97.2808L142.204 93.2953L142.427 92.1464C142.427 92.1464 129.648 71.2575 126.009 67.0702C122.37 62.883 116.777 63.2071 116.777 63.2071Z" fill="#F99746"/>
<path d="M130.363 95.7996C135.153 98.5309 141.435 97.2808 141.435 97.2808L142.206 93.2952C138.897 89.7555 133.492 84.0364 133.374 83.9123C133.42 84.0936 135.544 91.9332 130.363 95.7996Z" fill="#ED9670"/>
<path d="M125.658 54.8972C125.658 54.8972 144.71 87.1009 144.709 89.7636C144.708 92.4264 142.866 97.2228 141.434 97.2808C140.002 97.3387 134.416 95.3064 132.784 93.443C131.152 91.5796 122.029 55.5651 122.029 55.5651L125.658 54.8972Z" fill="#FFB27D"/>
<path d="M119.815 44.0657L123.151 47.2682C122.233 46.0695 120.872 44.2894 120.489 43.7676C119.894 42.9601 120.341 41.8504 120.341 41.8504L123.325 45.297C122.519 43.6754 120.455 40.4966 121.417 40.0466C121.417 40.0466 123.131 42.0594 124.55 43.9007C124.281 42.5828 124.107 40.8583 124.938 40.4492L126.216 46.2663C126.336 46.4835 126.409 46.6533 126.418 46.7562C126.447 47.1032 126.418 48.3444 126.361 49.7586C126.637 49.4892 126.941 49.1944 127.119 49.0327C127.223 48.9331 127.353 48.8636 127.493 48.8317C127.634 48.7998 127.781 48.8066 127.918 48.8515C127.535 49.2328 126.025 53.0975 125.809 53.6478C125.792 53.6919 125.778 53.7372 125.768 53.7834C125.493 54.9951 125.812 55.8705 125.812 55.8705L123.262 57.3403C123.262 57.3403 121.11 54.7583 121.333 53.318C121.461 52.4965 122.188 50.536 122.792 48.8498C121.794 47.7703 120.525 46.392 120.138 45.9568C119.472 45.2154 119.815 44.0657 119.815 44.0657Z" fill="#FFB27D"/>
<path d="M129.883 61.4736C129.883 61.4736 126.248 61.9635 123.267 60.3982C123.267 60.3982 122.288 62.1807 124.151 63.8065C124.151 63.8065 127.986 65.1382 131.142 64.2841C131.142 64.2841 132.248 62.384 129.883 61.4736Z" fill="#F9DDBF"/>
<path d="M81.8638 96.9925C83.1614 97.863 84.5856 98.5279 86.0859 98.9637L86.4939 99.0184C86.4939 99.0184 85.5359 95.9237 85.025 93.8048C84.5142 91.6858 85.025 83.9123 85.025 83.9123C83.3767 84.6456 82.2465 93.5124 81.8638 96.9925Z" fill="#ED7D2B"/>
<path d="M116.777 63.2071C115.427 64.3205 113.984 65.3162 112.465 66.1835C112.465 66.1835 114.738 68.0729 116.511 66.6611C118.284 65.2493 116.777 63.2071 116.777 63.2071Z" fill="#F9DDBF"/>
<path d="M112.211 66.1834C109.747 67.5716 107.448 68.3375 105.346 68.6706C105.346 68.6706 106.344 70.7569 109.299 70.2572C112.254 69.7575 112.211 66.1834 112.211 66.1834Z" fill="#F9DDBF"/>
<path d="M98.9904 68.4224C98.9904 68.4224 99.1536 70.2572 102.023 70.5299C104.892 70.8026 105.346 68.6706 105.346 68.6706C103.233 69.0154 101.071 68.931 98.9904 68.4224Z" fill="#F9DDBF"/>
<path d="M99.2443 68.4224C97.4551 67.9798 95.7527 67.2404 94.2077 66.2349C94.2077 66.2349 92.9543 67.6165 95.0703 68.6641C97.1862 69.7118 99.2443 68.4224 99.2443 68.4224Z" fill="#F9DDBF"/>
<path d="M90.2703 64.9325C90.4296 65.349 90.7261 65.6987 91.1108 65.9238C92.3267 66.6497 94.2117 66.2349 94.2117 66.2349C92.7151 65.2657 91.9048 64.4001 91.9048 64.4001L90.2703 64.9325Z" fill="#F9DDBF"/>
<path d="M105.187 30.0104C105.187 30.0104 105.833 29.3335 107.189 29.9614C111.241 31.8395 107.462 36.6718 110.236 38.3098C113.011 39.9478 118.56 43.0605 118.094 46.7488C117.629 50.4372 114.488 53.9222 116.398 56.1048C118.307 58.2874 118.582 61.494 118.582 61.494C118.582 61.494 116.307 59.3097 114.92 58.6271C113.534 57.9445 108.868 54.5648 109.787 51.7379C110.705 48.911 112.701 45.9584 111.046 45.3525C108.354 44.3653 107.393 44.6993 106.583 39.7861C105.892 35.6046 105.187 30.0104 105.187 30.0104Z" fill="#1F497C"/>
<path d="M21.0965 46.4198C21.1707 48.782 21.4181 51.1356 21.8366 53.4617C25.0094 71.2256 36.1546 80.9793 44.6258 80.233C44.9887 80.203 45.3513 80.1557 45.7136 80.0909C55.9751 78.2528 61.8318 63.3174 58.8786 46.8264C55.9213 30.2881 45.2297 18.3657 35.0008 20.198C30.7289 20.9639 27.2118 24.0064 24.7833 28.4974C22.2389 33.2015 20.8827 39.4995 21.0965 46.4198Z" fill="#163560"/>
<path d="M23.6564 46.0793C23.6711 46.6117 23.6956 47.1489 23.7298 47.6911C23.7429 47.8879 23.756 48.0839 23.7706 48.2807C23.8057 48.7526 23.8522 49.227 23.902 49.7031C24.0179 50.7924 24.1754 51.8963 24.3737 53.0077C25.1244 57.2055 26.3917 61.0866 28.0254 64.4793C28.1021 64.6426 28.1807 64.8038 28.2612 64.9627C28.8053 66.0514 29.3838 67.0857 29.9969 68.0656C34.3219 74.9605 40.2789 78.9371 46.0449 77.9058C46.7322 77.7838 47.4053 77.5922 48.054 77.3342C48.6334 77.1009 49.1917 76.8181 49.7228 76.4891C50.8249 75.8042 51.8198 74.96 52.6751 73.9839C52.9945 73.6263 53.3013 73.2482 53.5956 72.8497C54.6124 71.4763 55.4888 69.8702 56.2069 68.0754C56.4852 67.3797 56.7406 66.6538 56.9699 65.9025C58.0062 62.5237 58.5383 58.6279 58.4706 54.4595C58.4272 51.9671 58.1838 49.4823 57.7427 47.0289C54.9886 31.6297 45.2852 20.4822 36.0706 22.1324C34.8945 22.3447 33.7631 22.7559 32.7249 23.3483C31.0447 24.2987 29.5563 25.7113 28.2955 27.4939C26.0106 30.7217 24.4757 35.158 23.8955 40.2483C23.7715 41.3419 23.6918 42.4636 23.6564 43.6133C23.6483 43.8942 23.6425 44.1783 23.6409 44.4633C23.636 44.9984 23.6412 45.5371 23.6564 46.0793Z" fill="#C0D8FB"/>
<path d="M24.3738 53.0076C24.8574 55.735 25.5858 58.4132 26.5501 61.0098C26.5885 61.1151 26.6317 61.2196 26.6684 61.3233C27.0862 62.4159 27.5386 63.4676 28.0255 64.4785C28.1022 64.6418 28.1808 64.8029 28.2613 64.9619L28.2279 64.9357L28.2442 64.9496L28.2613 64.9627C28.2616 64.9646 28.2616 64.9665 28.2613 64.9684C28.8026 66.0544 29.3801 67.0854 29.9937 68.0615C34.3187 74.9564 40.2757 78.933 46.0417 77.9017C46.729 77.7796 47.4021 77.5881 48.0508 77.3301C49.7726 76.6442 51.323 75.501 52.6695 73.988C52.9888 73.6303 53.2956 73.2522 53.59 72.8538C54.6067 71.4803 55.4831 69.8742 56.2012 68.0794C56.4795 67.3837 56.7349 66.6578 56.9642 65.9066C54.4297 62.2942 49.0798 61.2196 51.0325 57.439C53.2652 53.1162 55.2408 48.0291 49.793 43.5634C46.1959 40.6157 51.7768 26.189 33.2374 27.6783C33.2374 27.6783 31.0815 27.1125 28.2915 27.4995C23.4043 34.4124 22.8919 44.7058 24.3738 53.0076Z" fill="#163560"/>
<path d="M28.262 64.9627L28.2285 64.9366L28.2448 64.9505L28.262 64.9635C28.2622 64.9654 28.2622 64.9674 28.262 64.9693C28.8033 66.0553 29.3807 67.0863 29.9944 68.0623C34.3193 74.9573 40.2763 78.9339 46.0424 77.9026C46.7297 77.7805 47.4028 77.589 48.0514 77.331C49.7733 76.6451 51.3237 75.5019 52.6702 73.9888C51.9855 71.0166 51.2748 68.5857 50.8186 67.1249C50.5403 66.2267 50.3559 65.6984 50.329 65.6298C50.3294 65.6274 50.3294 65.6249 50.329 65.6225C50.329 65.6225 49.2747 65.3236 48.0637 64.975C46.9098 64.6401 45.8966 63.9375 45.178 62.974C44.4594 62.0105 44.0747 60.8386 44.0823 59.6364V59.5645C44.0823 59.0746 44.0921 58.5716 44.1019 58.0825C44.1019 58.0637 44.1019 58.0441 44.1019 58.0262C44.1394 56.5564 44.2129 55.196 44.2602 54.408C44.2847 54.0194 44.3018 53.7695 44.3059 53.7132C44.3059 53.7058 44.3059 53.7017 44.3059 53.7017L34.7241 51.7935L34.1529 51.6816C34.1529 51.7861 34.1529 51.8931 34.1529 51.9968C34.1529 52.5357 34.1365 53.0583 34.1121 53.5678C34.1039 53.7515 34.0925 53.9328 34.0811 54.11C33.8999 56.9165 33.4005 59.2036 32.8081 60.8694C32.4927 61.7344 31.9628 62.505 31.2683 63.109C30.5737 63.713 29.7372 64.1306 28.8373 64.3226C28.6178 64.3724 28.3273 64.423 28.0261 64.4769C28.1028 64.6413 28.1815 64.8032 28.262 64.9627Z" fill="#FFB27D"/>
<path d="M44.3132 53.6944C44.3132 53.6944 44.1149 55.2327 44.1084 58.0784C38.7414 57.9265 34.0958 54.5093 32.9288 51.791L44.3132 53.6944Z" fill="#ED9670"/>
<path d="M37.8829 34.7284C37.8829 34.7284 40.4942 32.1081 43.751 33.4587C47.0078 34.8093 46.4929 38.1522 47.6027 39.6179C48.7125 41.0836 48.8414 44.9965 48.107 45.6816C47.3726 46.3666 37.8829 34.7284 37.8829 34.7284Z" fill="#1F497C"/>
<path d="M46.275 53.7368C46.275 53.7368 34.4989 58.4989 31.6485 51.1157C28.7981 43.7325 25.3577 39.3738 32.7559 36.021C40.154 32.6683 42.7114 34.9179 44.2619 37.1511C45.8123 39.3844 49.265 52.3079 46.275 53.7368Z" fill="#FFB27D"/>
<path d="M38.0837 32.5769C38.0837 32.5769 38.1735 42.4938 33.687 45.6939C29.2004 48.8939 26.5271 48.3885 26.5271 48.3885C26.5271 48.3885 29.1751 43.8828 27.9307 38.2747C27.9307 38.2747 34.0485 29.3956 38.0837 32.5769Z" fill="#163560"/>
<path d="M33.833 40.8648C36.2934 39.3999 35.346 34.0646 36.5162 33.4342C37.6863 32.8038 38.1254 33.8988 38.1254 33.8988C38.1254 33.8988 37.6855 38.4453 37.0841 42.1664C36.3782 46.5365 33.9546 47.0909 31.429 47.4494C28.741 47.8307 32.3324 51.4039 33.1566 53.9132C33.9808 56.4224 30.9615 58.3225 29.7292 58.9358C28.7215 59.4363 27.1881 60.8326 26.6659 61.3217C26.6267 61.218 26.5843 61.1135 26.5484 61.009C26.6944 60.1108 27.1441 58.1511 28.4081 56.6968C30.1005 54.7526 27.2983 51.6661 26.874 48.3884C26.4496 45.1108 31.3719 42.3288 33.833 40.8648Z" fill="#1F497C"/>
<path d="M41.4083 50.055C41.3512 49.9644 43.721 49.2042 44.8112 48.9437C45.9014 48.6832 46.2474 48.6318 46.2474 48.6318C46.0779 49.1047 45.9786 49.5999 45.9528 50.1016C45.9316 50.5001 43.8197 51.1566 43.1138 51.0635C42.408 50.9704 41.4083 50.055 41.4083 50.055Z" fill="white"/>
<path d="M28.2669 64.9709C28.8082 66.0569 29.3857 67.0879 29.9994 68.064C34.3243 74.9589 40.2813 78.9354 46.0474 77.9042C46.7347 77.7821 47.4078 77.5906 48.0564 77.3326C49.7782 76.6467 51.3287 75.5035 52.6751 73.9905C52.9945 73.6328 53.3013 73.2547 53.5956 72.8563C54.6124 71.4828 55.4888 69.8767 56.2069 68.0819C54.3642 67.0228 52.3965 66.1983 50.3495 65.6274H50.334C50.3217 65.6417 50.3083 65.6551 50.294 65.6674C50.2891 65.6731 50.2834 65.678 50.2777 65.6837C49.8615 66.0691 47.171 68.353 43.5919 69.2969C43.0685 69.4372 42.5364 69.5427 41.9991 69.6129C41.3339 69.7019 40.6619 69.7293 39.9916 69.6946C39.9166 69.6946 39.8423 69.6864 39.768 69.6799H39.7493C39.4645 69.6579 38.9545 69.6244 38.2804 69.5337H38.2616C38.2135 69.5264 38.1654 69.5207 38.1148 69.5125C37.394 69.4105 36.6794 69.2685 35.9743 69.0871C35.9319 69.0773 35.8927 69.0659 35.8454 69.0536C34.4121 68.6789 33.0284 68.1348 31.7236 67.4328C30.4748 66.7572 29.3139 65.9303 28.2669 64.9709Z" fill="#F99746"/>
<path d="M28.2638 64.9652C28.2641 64.9671 28.2641 64.969 28.2638 64.9709C28.8051 66.0569 29.3826 67.0879 29.9962 68.064C30.5915 67.9119 31.1688 67.6962 31.718 67.4205C31.718 67.4205 30.6776 66.6905 29.7171 66.0324C29.2379 65.7047 28.7534 65.3489 28.2638 64.9652Z" fill="#F9DDBF"/>
<path d="M28.2278 64.9366L28.2444 64.9507L28.2618 64.964L28.2278 64.9366Z" fill="#F9DDBF"/>
<path d="M31.7206 67.4205C33.6023 68.4461 36.2038 69.1965 38.1141 69.4994C38.1141 69.4994 37.2075 71.3954 34.5236 70.9414C31.8397 70.4874 31.7206 67.4205 31.7206 67.4205Z" fill="#F9DDBF"/>
<path d="M43.8505 69.2733C43.8505 69.2733 43.6979 70.9414 41.0939 71.1897C38.49 71.4379 38.0746 69.4994 38.0746 69.4994C39.9956 69.8126 41.9599 69.7357 43.8505 69.2733Z" fill="#F9DDBF"/>
<path d="M43.6604 69.2733C45.5773 68.696 47.0674 67.9594 48.1903 67.2319C48.1903 67.2319 49.3776 68.5384 47.4558 69.4937C45.5341 70.4491 43.6604 69.2733 43.6604 69.2733Z" fill="#F9DDBF"/>
<path d="M51.8167 66.0773C51.673 66.4627 51.404 66.7886 51.0528 67.0024C49.9479 67.663 48.1902 67.2311 48.1902 67.2311C49.5505 66.35 50.3347 65.6176 50.3347 65.6176C50.3347 65.6176 50.7428 65.7213 50.9476 65.7809C51.1524 65.8405 51.8167 66.0773 51.8167 66.0773Z" fill="#F9DDBF"/>
<path opacity="0.4" d="M32.7274 23.3507C40.0871 32.3686 52.175 46.9032 58.4714 54.4611C58.4281 51.9688 58.1847 49.4839 57.7435 47.0305C54.9894 31.6313 45.2861 20.4838 36.0715 22.134C34.8958 22.3468 33.765 22.7582 32.7274 23.3507Z" fill="white"/>
<path d="M46.0473 77.9042C46.4283 78.8122 48.9898 98.7465 48.5769 99.0184C48.164 99.2903 45.6303 99.3834 44.8493 99.0184C44.0684 98.6534 44.3018 79.1764 44.3018 79.1764L46.0473 77.9042Z" fill="#163560"/>
<path d="M43.4727 89.4836C43.4727 89.4836 46.3288 86.9694 46.124 86.3252C45.9192 85.6809 45.4084 86.1006 45.0721 86.3431C44.7359 86.5857 43.1798 87.8007 43.0394 88.0269C42.8346 88.3576 43.0598 89.669 43.4727 89.4836Z" fill="#FFB27D"/>
<path d="M43.2339 87.8987C43.2339 87.8987 46.0899 85.3854 45.8851 84.7411C45.6803 84.0969 45.1695 84.5158 44.8333 84.7591C44.4971 85.0024 42.8928 86.1685 42.8006 86.442C42.4766 87.3933 43.0095 88.1004 43.2339 87.8987Z" fill="#FFB27D"/>
<path d="M42.9776 86.4885C42.9776 86.4885 45.8337 83.9744 45.6281 83.3301C45.4224 82.6859 44.9132 83.1048 44.5762 83.3481C44.2392 83.5914 42.6446 84.7648 42.5435 85.0318C42.2113 85.9096 42.7532 86.6902 42.9776 86.4885Z" fill="#FFB27D"/>
<path d="M44.0271 89.8805C44.0271 89.8805 46.3887 87.9852 46.2091 87.4251C46.0296 86.8649 45.5865 87.2291 45.2936 87.4406C45.0006 87.6521 43.6223 88.6809 43.5252 88.9055C43.3571 89.2893 43.637 90.172 44.0271 89.8805Z" fill="#FFB27D"/>
<path opacity="0.4" d="M24.2619 52.3528C28.5868 59.9712 34.5626 70.2686 38.0813 76.3135C40.6559 77.7833 43.3716 78.3826 46.0474 77.9041C46.7347 77.7821 47.4078 77.5906 48.0564 77.3326C48.635 77.0996 49.1925 76.8174 49.7228 76.4891C42.9106 66.9273 31.3524 50.705 23.898 40.2475C23.4532 44.1718 23.5911 48.2888 24.2619 52.3528Z" fill="white"/>
<path opacity="0.35" d="M24.3793 53.0077C26.0612 62.4175 30.2425 70.0204 35.2325 74.2869C38.6468 77.2085 42.2397 78.5713 46.0546 77.9042C55.266 76.2923 60.5065 62.4445 57.7508 47.0313C54.9967 31.6321 45.2933 20.4846 36.0787 22.1348C26.8641 23.7851 21.6244 37.579 24.3793 53.0077Z" fill="white"/>
<path d="M79.1814 40.4263C79.1814 40.4263 81.7927 38.6405 82.8062 41.1751C83.4174 42.7045 77.1675 44.2551 77.1675 44.2551C77.1675 44.2551 74.6664 39.0121 76.1605 38.7132C78.638 38.2167 79.1814 40.4263 79.1814 40.4263Z" fill="#F99746"/>
<path d="M68.834 26.3254C68.834 26.3254 70.2865 23.9313 71.6901 24.7984C73.8045 26.1049 70.0074 30.4906 70.0074 30.4906C70.0074 30.4906 64.7228 28.49 65.4678 27.1599C66.6217 25.1006 68.834 26.3254 68.834 26.3254Z" fill="#F99746"/>
<path d="M87.1825 13.7685C87.1825 13.7685 89.7505 13.477 89.9317 15.1142C90.1847 17.4087 83.7527 16.4043 83.7527 16.4043C83.7527 16.4043 83.33 10.9335 85.1547 10.949C87.6542 10.9653 87.1825 13.7685 87.1825 13.7685Z" fill="#F99746"/>
</g>
<defs>
<clipPath id="clip0">
<rect width="164.457" height="142.529" fill="white" transform="matrix(-1 0 0 1 173.486 2.03964)"/>
</clipPath>
</defs>
</svg>
