<svg width="280" height="225" viewBox="0 0 280 225" fill="none" xmlns="http://www.w3.org/2000/svg">
<path d="M274.804 101.444C267.245 63.0548 236.247 15.8958 175.013 10.9616C175.013 10.9616 128.52 6.57315 82.6912 13.2212C55.4971 17.1716 31.6415 28.9152 16.5535 45.8006C1.4654 62.6859 -3.57715 83.268 2.53534 102.897C6.50796 115.647 9.1927 128.836 8.4596 141.94C7.18162 164.736 7.91473 186.017 36.4364 199.613C61.8969 211.756 93.9453 222.462 124.528 224.338C145.302 225.613 168.603 223.546 188.634 219.35C290.684 197.968 282.363 139.834 274.804 101.444Z" fill="#F4F7FA"/>
<path d="M153.932 80.5639C156.528 77.7852 149.335 67.3651 145.487 62.7949C142.123 58.8005 138.668 54.7056 134.418 55.2266C130.688 55.6837 127.06 59.614 126.849 63.3799C126.264 73.5167 150.24 84.5126 153.932 80.5639Z" fill="url(#paint0_linear)"/>
<path d="M122.727 187.681C122.233 188.083 122.151 189.07 122.087 189.719C122.06 190.011 122.051 190.158 122.078 190.258C122.316 191.008 123.76 191.081 126.036 191.319C129.628 191.684 130.698 191.968 130.972 191.437C131.237 190.935 130.597 190.121 130.524 190.03C130.14 189.545 129.665 189.372 128.751 189.07C127.06 188.512 125.908 188.211 125.57 188.11C123.413 187.525 123.047 187.416 122.727 187.681Z" fill="url(#paint1_linear)"/>
<path d="M124.866 184.399L125.222 188.494C125.122 188.695 123.906 189.28 122.937 188.778L122.014 184.756L124.866 184.399Z" fill="url(#paint2_linear)"/>
<path d="M151.199 187.15C150.614 187.799 150.477 188.988 150.989 189.582C151.492 190.158 152.241 189.728 154.38 189.792C156.665 189.856 157.268 190.404 158.822 189.975C159.453 189.801 160.559 189.381 160.541 188.933C160.522 188.613 159.965 188.457 158.073 187.818C155.394 186.922 155.404 186.867 154.837 186.776C153.411 186.538 151.976 186.3 151.199 187.15Z" fill="url(#paint3_linear)"/>
<path d="M152.671 183.421L153.822 187.242C153.74 187.443 152.57 188.128 151.565 187.699L149.855 183.988L152.671 183.421Z" fill="url(#paint4_linear)"/>
<path d="M142.461 99.7681C142.626 112.601 143.503 127.034 145.606 142.719C147.68 158.212 150.596 172.215 153.768 184.527C152.305 184.92 150.834 185.313 149.371 185.706C145.651 182.242 140.962 176.785 138.705 169.08C137.297 164.3 137.772 161.841 136.876 155.954C135.46 146.585 132.59 141.677 129.619 134.118C126.95 127.326 123.796 117.363 122.105 104.046C128.897 102.62 135.679 101.194 142.461 99.7681Z" fill="#26264F"/>
<path d="M129.244 98.5431C128.349 114.868 127.608 131.494 127.051 148.422C126.63 161.118 126.319 173.659 126.118 186.035C124.619 186.218 123.129 186.401 121.63 186.593C120.186 183.896 118.267 179.783 116.95 174.509C115.351 168.102 115.726 164.299 115.022 157.654C114.236 150.205 113.093 148.587 111.073 139.191C106.969 120.124 104.912 110.59 109.492 104.658C110.973 102.729 115.634 97.9033 129.244 98.5431Z" fill="#26264F"/>
<path d="M107.435 57.5209C110.936 56.5338 116.073 55.3821 122.361 55.0256C131.328 54.5229 135.816 54.2669 138.997 56.4058C146.337 61.3416 140.651 72.7306 143.658 100.956C144.088 104.987 144.179 109.046 144.49 113.095C145.002 119.786 145.121 120.151 144.655 120.828C141.73 125.078 130.834 118.661 114.866 121.202C105.927 122.619 101.877 125.891 99.4278 123.533C96.576 120.782 99.0257 113.387 101.128 107.026C103.55 99.7223 105.04 99.6218 106.42 94.1192C107.855 88.3699 106.987 85.4084 106.768 76.3319C106.667 71.9811 106.694 65.5279 107.435 57.5209Z" fill="url(#paint5_linear)"/>
<path d="M129.153 110.517C124.976 110.188 122.27 112.546 118.669 110.709C113.724 108.186 112.142 100.344 112.453 94.7865C112.929 86.3499 117.746 84.1288 116.923 78.6719C116.475 75.7196 114.364 71.8075 106.804 67.804C106.704 71.1676 106.722 74.0377 106.777 76.3228C106.996 85.3901 107.865 88.3516 106.43 94.1101C105.059 99.6127 103.56 99.7041 101.137 107.016C99.026 113.378 96.5763 120.782 99.4373 123.524C101.887 125.882 105.936 122.61 114.875 121.193C128.632 119.009 138.622 123.46 142.991 122.016C137.717 113.296 132.928 110.81 129.153 110.517Z" fill="url(#paint6_linear)"/>
<path d="M113.129 58.0966C110.15 55.647 104.154 58.4166 102.554 59.1569C93.6146 63.2884 85.5985 74.4306 87.5819 86.1943C87.8836 87.9584 89.2638 96.2123 96.2562 100.216C102.563 103.826 111.082 102.894 117.91 97.7844C118.842 96.9526 119.775 96.13 120.707 95.2982C121.621 94.3019 122.544 93.3147 123.458 92.3184C122.014 91.121 119.564 89.3843 116.118 88.2784C111.585 86.8159 108.276 89.4392 106.174 87.4466C104.72 86.0664 104.72 83.635 105.077 82.1543C105.799 79.1836 108.422 78.3427 110.607 76.2313C115.753 71.2863 116.694 61.0307 113.129 58.0966Z" fill="url(#paint7_linear)"/>
<path d="M155.431 96.4226L119.336 95.8833L128.933 100.517L155.523 98.7808L155.431 96.4226Z" fill="#444B8C"/>
<path d="M118.065 96.8429C118.065 97.5193 118.486 98.1226 119.126 98.3511L130.661 102.876L130.716 99.7404L119.345 95.8832C118.696 95.7004 118.065 96.1848 118.065 96.8429Z" fill="#26264F"/>
<path d="M120.752 94.6219C120.506 94.5671 121.95 91.697 123.074 92.026C124.208 92.3551 129.728 95.5634 130.231 96.8796C130.734 98.1959 130.734 98.1958 130.734 98.1958C130.734 98.1958 128.321 98.3878 126.831 97.8851C125.341 97.3823 122.745 95.0698 120.752 94.6219Z" fill="url(#paint8_linear)"/>
<path d="M131.666 77.7487L129.125 100.911C129.033 101.706 130.158 102.903 130.962 102.867L168.282 100.572C168.895 100.545 169.407 100.088 169.507 99.4846L174.196 77.1088C174.333 76.2953 172.871 75.4544 172.048 75.4727L132.936 76.5696C132.269 76.6061 131.73 77.0997 131.666 77.7487Z" fill="#26264F"/>
<path d="M132.515 78.425L129.974 101.587C129.883 102.382 130.532 103.077 131.336 103.04L169.132 101.249C169.744 101.221 170.256 100.764 170.357 100.161L174.214 77.6847C174.351 76.8712 173.711 76.1308 172.889 76.1582L133.777 77.2551C133.128 77.2733 132.589 77.7761 132.515 78.425Z" fill="#26264F"/>
<path opacity="0.3" d="M154.709 95.8195C151.409 94.421 152.57 91.752 148.676 88.434C143.539 84.0466 138.292 85.9478 136.464 82.5567C135.898 81.4964 135.623 79.8511 136.62 77.1821L133.786 77.2644C133.137 77.2827 132.598 77.7763 132.525 78.4252L129.984 101.587C129.892 102.382 130.541 103.077 131.346 103.04L169.141 101.249C169.754 101.221 170.266 100.764 170.366 100.161L170.896 97.0626C169.754 96.4227 168.383 95.8469 166.783 95.5178C161.226 94.3936 158.511 97.4373 154.709 95.8195Z" fill="#26264F"/>
<path d="M171.902 97.8027C171.966 97.5925 171.829 97.3823 171.61 97.3731C170.723 97.3274 168.676 97.3092 167.542 98.0038C166.071 98.9087 164.169 100.545 165.769 101.377L167.268 102.154C167.341 102.19 167.414 102.199 167.487 102.181C168.018 102.062 170.257 101.569 170.504 101.441C170.723 101.331 171.573 98.799 171.902 97.8027Z" fill="url(#paint9_linear)"/>
<path d="M123.038 45.2271C123.056 47.8869 122.763 49.9984 122.48 51.4425C122.16 53.097 121.923 53.5266 121.63 53.8739C121.182 54.3949 120.515 54.8337 116.703 55.7751C114.628 56.287 114.363 56.2779 114.318 56.4789C114.098 57.4844 119.747 60.9029 125.588 60.0803C129.162 59.5775 132.416 57.5392 132.215 56.4607C132.014 55.3821 128.44 55.9579 127.379 54.011C126.639 52.6582 127.471 50.7296 128.449 49.13C127.498 47.3568 123.988 47.0003 123.038 45.2271Z" fill="url(#paint10_linear)"/>
<path d="M129.673 46.2781C130.514 45.1538 130.569 43.1978 129.6 41.9638C128.759 40.9035 127.443 40.7481 126.657 40.6567C124.372 40.3916 121.493 41.3422 120.487 43.4445C119.893 44.6876 121.182 47.2835 121.383 47.7406C121.612 48.2707 122.023 48.4444 122.407 48.8466C122.937 49.395 123.769 50.2725 125.121 51.7441C125.231 51.3145 125.387 50.7752 125.642 50.1902C125.743 49.9708 126.136 49.0933 126.73 48.3713C127.9 46.9179 128.869 47.3384 129.673 46.2781Z" fill="#26264F"/>
<path d="M123.184 50.5103C123.184 50.5103 124.683 52.9782 127.672 52.7772C130.351 52.6035 130.744 46.5982 129.034 45.3277C128.468 44.9072 127.325 44.7244 126.393 44.9895C125.844 45.1449 125.661 45.3734 124.757 45.6019C123.925 45.8213 123.687 45.7299 123.44 45.9401C123.13 46.2052 122.892 46.8541 123.422 48.6091C122.91 48.0881 122.298 47.8962 121.868 48.0972C121.795 48.1338 121.612 48.2526 121.512 48.4446C121.128 49.1301 121.749 50.0076 123.184 50.5103Z" fill="url(#paint11_linear)"/>
<path d="M123.313 45.5837C123.441 45.6842 123.048 46.1595 123.02 46.8451C122.965 48.1704 124.3 49.7609 125.671 49.8888C126.475 49.9711 126.704 49.4775 128.038 49.3404C128.861 49.249 129.556 49.3587 129.985 49.4501C130.406 50.9034 130.013 52.3476 129.044 53.024C128.002 53.7461 126.667 53.3074 126.11 53.1246C125.735 53.0057 124.537 52.6127 123.916 51.5158C123.267 50.3733 123.907 49.6877 123.157 48.9108C122.783 48.5178 122.289 48.3532 121.804 47.5946C121.677 47.3935 121.585 47.2107 121.53 47.0827C122.216 46.3515 123.13 45.4374 123.313 45.5837Z" fill="#26264F"/>
<path d="M129.007 49.9893C129.007 49.9893 128.431 50.2909 127.426 50.236C127.38 50.236 127.325 50.2452 127.316 50.2726C127.289 50.364 127.938 50.7936 128.523 50.6291C128.943 50.5103 129.272 50.1172 129.208 50.0167C129.199 49.9618 129.108 49.971 129.007 49.9893Z" fill="url(#paint12_linear)"/>
<path d="M178.146 195.185C177.955 195.185 177.781 195.039 177.763 194.837L170.843 120.041C170.825 119.831 170.98 119.648 171.191 119.63C171.401 119.612 171.584 119.767 171.602 119.977L177.763 186.538V118.359C177.763 118.149 177.936 117.976 178.146 117.976C178.357 117.976 178.53 118.149 178.53 118.359V194.81C178.53 195.011 178.366 195.185 178.165 195.194C178.156 195.185 178.156 195.185 178.146 195.185Z" fill="#B7C0CE"/>
<path d="M255.319 126.531L179.399 118.214L33.5264 124.85L109.922 133.99L255.319 126.531Z" fill="#D8DEE8"/>
<path d="M109.922 133.999L255.319 126.531V130.142L109.922 137.6L33.5259 128.451V124.849L109.922 133.999Z" fill="#B7C0CE"/>
<path d="M110.442 221.272C110.433 221.272 110.433 221.272 110.424 221.272C110.223 221.263 110.059 221.098 110.059 220.888V136.723C110.059 136.513 110.232 136.339 110.442 136.339C110.653 136.339 110.826 136.513 110.826 136.723V211.108L116.649 136.695C116.667 136.485 116.85 136.33 117.06 136.348C117.27 136.366 117.426 136.549 117.407 136.759L110.826 220.924C110.808 221.116 110.644 221.272 110.442 221.272Z" fill="#B7C0CE"/>
<path d="M34.3673 206.318C34.3582 206.318 34.3582 206.318 34.349 206.318C34.1479 206.309 33.9834 206.144 33.9834 205.934V128.25C33.9834 128.039 34.1571 127.866 34.3673 127.866C34.5775 127.866 34.7512 128.039 34.7512 128.25V196.2L40.0892 128.222C40.1075 128.012 40.2903 127.857 40.5005 127.875C40.7108 127.893 40.8662 128.076 40.8479 128.286L34.7512 205.971C34.7329 206.163 34.5592 206.318 34.3673 206.318Z" fill="#B7C0CE"/>
<path d="M254.597 206.318C254.396 206.318 254.231 206.163 254.213 205.971L247.732 128.286C247.714 128.076 247.87 127.893 248.08 127.875C248.29 127.856 248.473 128.012 248.491 128.222L254.204 196.766V130.142C254.204 129.931 254.378 129.758 254.588 129.758C254.798 129.758 254.972 129.931 254.972 130.142V205.943C254.972 206.144 254.807 206.318 254.606 206.327C254.615 206.318 254.606 206.318 254.597 206.318Z" fill="#B7C0CE"/>
<path d="M212.926 127.5L160.762 127.116V128.268C160.762 128.578 160.99 128.843 161.301 128.889L176.054 131.147C176.227 131.174 176.41 131.183 176.584 131.165L212.369 128.588C212.689 128.56 212.935 128.295 212.935 127.975V127.5H212.926Z" fill="#26264F"/>
<path d="M193.995 125.609L161.3 127.712C160.715 127.748 160.24 127.346 160.24 126.816V105.564C160.24 105.034 160.715 104.604 161.3 104.604H193.995C194.48 104.604 194.864 104.998 194.864 105.473V124.686C194.864 125.161 194.48 125.573 193.995 125.609Z" fill="#444B8C"/>
<path d="M194.517 125.608L161.822 127.71C161.237 127.747 160.762 127.344 160.762 126.814V105.563C160.762 105.033 161.237 104.603 161.822 104.603H194.517C195.002 104.603 195.386 104.996 195.386 105.471V124.685C195.386 125.16 195.002 125.571 194.517 125.608Z" fill="#26264F"/>
<path d="M193.502 124.255L163.046 126.083C162.571 126.11 162.187 125.781 162.187 125.352V106.742C162.187 106.312 162.571 105.956 163.046 105.956L193.502 105.837C193.895 105.837 194.224 106.157 194.224 106.55V123.496C194.215 123.889 193.895 124.227 193.502 124.255Z" fill="#EFF2F6"/>
<path d="M179.326 105.179C179.326 105.38 179.161 105.535 178.951 105.535C178.741 105.535 178.576 105.38 178.576 105.179C178.576 104.978 178.741 104.823 178.951 104.823C179.152 104.823 179.326 104.978 179.326 105.179Z" fill="white"/>
<path opacity="0.48" d="M186.775 119.785C184.243 118.551 182.251 120.114 180.331 118.57C179.161 117.637 179.737 116.933 178.302 115.535C176.712 113.99 175.679 114.511 174.079 113.113C172.059 111.349 173.074 109.978 171.328 108.716C169.217 107.181 166.941 108.607 164.939 107.126C164.071 106.495 163.595 105.572 163.348 104.585H161.383C161.036 104.585 160.762 104.841 160.762 105.151V127.198C160.762 127.509 161.045 127.747 161.383 127.719L194.874 125.571C195.038 125.562 195.185 125.471 195.276 125.352C192.826 125.27 191.318 124.529 190.358 123.761C188.475 122.262 188.805 120.772 186.775 119.785Z" fill="white"/>
<path d="M195.824 125.544L160.762 127.756L176.045 130.096C176.218 130.123 176.401 130.132 176.575 130.114L212.926 127.491L196.373 125.553C196.19 125.544 196.007 125.535 195.824 125.544Z" fill="#26264F"/>
<path opacity="0.47" d="M165.88 127.774L195.065 125.909L204.096 126.961L175.157 128.962L165.88 127.774Z" fill="#D8DEE8"/>
<path d="M202.459 194.655C202.459 194.655 194.791 195.185 194.681 195.688C194.571 196.19 199.882 198.128 201.746 198.192C203.602 198.265 205.138 197.717 204.964 196.931C204.799 196.145 204.141 194.161 204.141 194.161L202.459 194.655Z" fill="url(#paint13_linear)"/>
<path d="M202.103 191.245L201.966 194.865C201.966 194.865 203.136 195.523 204.059 195.148L205.092 191.328L202.103 191.245Z" fill="url(#paint14_linear)"/>
<path d="M181.016 193.192C181.016 193.192 173.347 193.722 173.238 194.225C173.128 194.728 178.438 196.666 180.303 196.73C182.159 196.803 183.694 196.254 183.521 195.468C183.356 194.682 182.698 192.699 182.698 192.699L181.016 193.192Z" fill="url(#paint15_linear)"/>
<path d="M180.65 189.783L180.513 193.402C180.513 193.402 181.683 194.06 182.606 193.686L183.639 189.865L180.65 189.783Z" fill="url(#paint16_linear)"/>
<path d="M201.28 191.757C202.715 191.912 204.15 192.077 205.576 192.232C207.514 190.084 210.403 186.346 211.947 181.09C214.927 170.953 210.613 163.641 213.382 161.822C217.304 159.245 225.786 174.07 239.414 173.686C245.008 173.531 252.302 170.789 255.108 164.829C255.529 163.934 257.613 159.217 255.584 154.802C253.491 150.241 243.116 148.258 222.459 144.474C213.593 142.847 209.114 142.042 207.313 142.901C194.562 148.98 199.882 183.403 201.28 191.757Z" fill="url(#paint17_linear)"/>
<path d="M179.407 191.812C180.888 192.068 182.369 192.324 183.85 192.589C185.65 189.938 188.374 185.779 191.418 180.514C197.77 169.528 197.652 167.297 200.586 165.881C206.801 162.883 211.49 170.972 226.855 173.202C231.883 173.933 243.043 175.551 247.549 169.537C249.377 167.096 250.429 162.992 248.984 159.51C246.388 153.258 237.833 154.007 209.662 148.523C198.675 146.384 197.176 146 194.516 146.951C179.654 152.234 179.371 184.6 179.407 191.812Z" fill="url(#paint18_linear)"/>
<path d="M210.192 105.755C211.655 102.181 214.799 100.124 216.426 99.0548C217.24 98.5246 217.998 98.1225 218.757 97.8117C224.652 95.4077 230.539 95.5723 231.59 95.6454C234.14 95.8373 240.429 96.3035 245.081 100.344C247.339 102.3 249.14 105.023 251.772 120.407C255.437 141.85 252.467 139.657 255.355 148.349C256.882 152.947 259.267 158.23 256.745 161.594C255.931 162.681 254.77 162.992 252.394 164.062C243.537 168.047 235.594 167.361 230.767 166.886C225.457 166.356 222.77 166.063 221.362 164.18C219.113 161.182 221.426 157.371 221.828 150.78C222.121 146.046 221.042 142.298 218.885 134.794C213.885 117.354 207.386 112.61 210.192 105.755Z" fill="url(#paint19_linear)"/>
<path d="M185.22 127.116L179.562 126.028C179.16 125.946 178.74 125.946 178.328 126.019L173.429 126.86C173.429 126.86 176.61 128.14 179.316 127.737C182.021 127.335 184.983 128.862 184.983 128.862L185.22 127.116Z" fill="url(#paint20_linear)"/>
<path d="M222.715 91.6877C221.764 90.2526 223.19 87.4831 223.748 86.3862C223.766 86.3497 223.793 86.2948 223.848 86.2034C224.717 84.6038 224.936 84.3845 225.347 84.1103L225.923 83.7538C225.923 83.7538 225.96 83.7446 225.987 83.7264C226.353 83.5984 227.614 83.5527 227.87 83.6075C228.684 83.7812 229.552 87.0901 229.305 91.7791C229.342 91.9619 229.369 92.1356 229.406 92.3184C229.534 93.0588 229.634 93.7809 229.716 94.4938C229.789 95.1702 230.749 95.1519 231.435 95.1154C234.195 94.9417 235.548 95.1702 235.667 95.5815C235.886 96.3493 232.614 98.8721 228.565 99.4388C223.135 99.4754 218.72 98.8995 219.196 98.0494C219.406 97.6655 223.611 96.5687 224.799 95.481C225.887 94.4847 225.795 93.4518 225.887 92.7114C225.302 92.7388 223.437 92.7845 222.715 91.6877Z" fill="url(#paint21_linear)"/>
<path d="M224.232 82.4192C223.784 83.4064 224.872 85.3807 225.265 85.664C225.31 85.7006 225.566 85.8926 225.786 86.2399C225.813 86.2856 225.841 86.3404 225.868 86.4136C226.188 87.3276 224.735 88.4062 225.009 88.8084C225.21 89.11 226.197 88.7078 226.316 88.9637C226.426 89.2014 225.603 89.7041 225.731 89.9966C225.822 90.216 226.334 90.0149 226.654 90.3531C226.901 90.609 226.928 90.9746 226.937 91.1574C226.974 92.4554 224.031 97.1536 223.418 99.265C222.769 101.514 223.93 103.652 228.162 109.557C234.177 117.957 237.193 122.162 238.866 123.359C247.037 129.227 256.653 128.505 260.602 127.893C265.336 127.162 275.126 125.635 278.27 118.103C281.89 109.438 274.76 97.5832 267.448 95.5723C264.102 94.6491 262.32 96.0476 257.978 94.5394C253.18 92.8667 253.765 89.9143 249.313 88.1685C243.39 85.8469 239.56 89.9966 235.529 86.9711C233.336 85.3259 233.692 83.516 230.996 82.1907C228.327 80.911 224.817 81.1304 224.232 82.4192Z" fill="#26264F"/>
<path d="M225.548 88.4702C225.905 87.9858 226.526 88.4428 226.535 89.0735C226.535 89.7042 225.923 90.3623 225.329 90.2344C224.735 90.1155 225.064 89.1284 225.548 88.4702Z" fill="url(#paint22_linear)"/>
<path opacity="0.3" d="M235.347 160.661C233.784 157.554 237.614 153.413 235.109 148.669C232.988 144.638 229.122 145.543 227.349 141.85C225.21 137.39 229.862 134.053 229.698 127.271C229.497 119.164 222.523 111.038 218.409 111.751C215.75 112.208 215.411 116.175 213.538 120.516C215.192 124.145 217.121 128.688 218.876 134.794C221.033 142.298 222.102 146.046 221.819 150.78C221.417 157.371 219.095 161.182 221.353 164.18C222.76 166.054 225.448 166.356 230.758 166.886C235.584 167.361 243.527 168.047 252.384 164.061C253.509 163.559 254.35 163.175 255.026 162.809C241.197 164.893 236.581 163.129 235.347 160.661Z" fill="url(#paint23_linear)"/>
<path d="M183.786 128.77C183.95 128.048 184.106 127.326 184.27 126.604C195.147 128.551 199.9 126.366 202.204 123.807C204.315 121.458 203.41 120.251 206.792 111.285C210.01 102.748 213.657 100.554 215.494 99.7678C216.518 99.329 217.23 99.0274 218.081 99.2376C222.002 100.197 223.291 110.407 222.194 118.049C221.572 122.354 220.357 130.79 213.437 134.803C213.309 134.876 213.108 134.995 212.843 135.132C211.975 135.598 208.511 137.262 201.683 136.037C193.621 134.575 185.769 129.968 183.786 128.77Z" fill="url(#paint24_linear)"/>
<path d="M234.14 219.37C247.265 219.37 257.905 215.028 257.905 209.672C257.905 204.316 247.265 199.974 234.14 199.974C221.015 199.974 210.375 204.316 210.375 209.672C210.375 215.028 221.015 219.37 234.14 219.37Z" fill="url(#paint25_linear)"/>
<path d="M257.905 208.53C257.905 213.585 247.265 217.689 234.14 217.689C221.014 217.689 210.375 213.594 210.375 208.53C210.375 203.475 221.014 195.203 234.14 195.203C247.265 195.203 257.905 203.475 257.905 208.53Z" fill="url(#paint26_linear)"/>
<path opacity="0.3" d="M257.905 208.53C257.905 203.475 247.265 195.203 234.139 195.203C228.079 195.203 222.549 196.967 218.354 199.362C218.061 199.974 217.924 200.587 217.979 201.172C218.253 204.015 222.888 205.769 225.557 206.345C232.266 207.799 235.538 203.786 241.068 203.941C244.486 204.033 249.221 205.751 254.843 213.027C256.789 211.702 257.905 210.166 257.905 208.53Z" fill="url(#paint27_linear)"/>
<path d="M235.446 199.792C234.496 200.029 233.609 200.02 232.777 199.81C232.019 199.618 231.507 198.914 231.507 198.137V171.337H236.79V198.101C236.781 198.914 236.223 199.6 235.446 199.792Z" fill="white"/>
<path opacity="0.65" d="M235.446 199.792C234.496 200.029 233.609 200.02 232.777 199.81C232.019 199.618 231.507 198.914 231.507 198.137V171.337H236.79V198.101C236.781 198.914 236.223 199.6 235.446 199.792Z" fill="url(#paint28_linear)"/>
<path d="M206.224 160.067L214.295 154.967C214.633 153.057 218.436 133.121 233.883 126.851C240.163 124.301 246.927 124.602 250.638 124.776C258.041 125.105 263.325 125.343 265.866 128.88C269.129 133.414 263.654 137.527 264.787 150.506C265.253 155.799 266.423 158.148 264.961 161.658C263.206 165.853 259.138 168.184 255.976 169.491C252.201 171.685 245.62 174.811 236.927 175.579C222.284 176.858 211.361 170.579 207.604 168.175C205.932 167.645 204.68 166.255 204.323 164.546C203.967 162.8 204.716 161.018 206.224 160.067Z" fill="url(#paint29_linear)"/>
<path opacity="0.26" d="M209.935 163.696C210.237 161.905 215.237 163.385 219.962 159.876C227.037 154.62 223.363 145.726 229.514 137.189C235.163 129.356 246.524 125.37 250.053 128.35C254.751 132.326 243.252 147.179 250.053 156.768C253.352 161.429 258.389 161.201 258.407 163.934C258.444 168.248 245.93 173.23 234.048 173.01C221.279 172.782 209.46 166.548 209.935 163.696Z" fill="white"/>
<path opacity="0.75" d="M181.418 19.2589C181.418 8.62857 172.369 0 161.2 0C150.03 0 140.981 8.61943 140.981 19.2589C140.981 25.712 144.317 31.4248 149.436 34.9165C151.611 36.3972 152.928 38.8377 152.928 41.4701V42.9418C152.928 46.1409 155.523 48.7368 158.723 48.7368H163.695C166.894 48.7368 169.49 46.1409 169.49 42.9418V41.4701C169.49 38.8377 170.806 36.3972 172.982 34.9165C178.082 31.4248 181.418 25.7212 181.418 19.2589Z" fill="#F4F7FA"/>
<path d="M161.19 59.7052C163.669 59.7052 165.678 58.6412 165.678 57.3287C165.678 56.0162 163.669 54.9521 161.19 54.9521C158.711 54.9521 156.702 56.0162 156.702 57.3287C156.702 58.6412 158.711 59.7052 161.19 59.7052Z" fill="url(#paint30_linear)"/>
<path d="M155.231 53.0876V55.5098C155.231 56.3325 155.697 57.082 156.438 57.4385C157.461 57.9321 159.18 58.4713 161.657 58.4074C163.677 58.3525 164.984 58.0235 165.825 57.6853C166.629 57.3471 167.15 56.5519 167.15 55.6835V54.3399L155.231 53.0876Z" fill="url(#paint31_linear)"/>
<path opacity="0.3" d="M155.231 55.2173C155.414 55.3909 155.624 55.5463 155.862 55.656C157.013 56.2044 164.572 57.4384 166.391 56.7529C166.629 56.6614 166.839 56.5426 167.031 56.4055C167.114 56.177 167.159 55.9302 167.159 55.6834V54.3398L155.24 53.0967V55.2173H155.231Z" fill="url(#paint32_linear)"/>
<path d="M155.762 51.4423C155.094 51.3692 154.509 51.8993 154.509 52.5757V52.6488C154.509 53.572 155.03 54.413 155.862 54.806C157.014 55.3544 164.573 56.5884 166.392 55.9029C167.306 55.5555 167.882 54.7694 167.882 53.7914V53.7366C167.882 53.1516 167.443 52.6671 166.858 52.6031L155.762 51.4423Z" fill="url(#paint33_linear)"/>
<path opacity="0.3" d="M166.857 52.594L155.761 51.4423C155.322 51.3965 154.92 51.6068 154.701 51.945C154.92 52.466 155.331 52.9139 155.862 53.1607C157.013 53.7091 164.892 55.0984 166.391 54.3946C166.976 54.1204 167.433 53.6542 167.68 53.0875C167.497 52.8133 167.205 52.6305 166.857 52.594Z" fill="url(#paint34_linear)"/>
<path d="M155.332 47.512C154.875 47.512 154.509 47.8776 154.509 48.3346V50.2358C154.509 51.159 155.03 51.9999 155.862 52.393C157.014 52.9414 164.893 54.3307 166.392 53.6269C167.278 53.2065 167.882 52.3564 167.882 51.3784V48.3346C167.882 47.8776 167.516 47.512 167.059 47.512H155.332Z" fill="url(#paint35_linear)"/>
<path d="M167.716 48.097C167.716 48.947 164.801 49.6417 161.199 49.6417C157.598 49.6417 154.682 48.947 154.682 48.097C154.682 47.2469 157.598 46.5522 161.199 46.5522C164.791 46.5614 167.716 47.2469 167.716 48.097Z" fill="url(#paint36_linear)"/>
<path d="M181.418 19.2589C181.418 8.62857 172.369 0 161.2 0C150.03 0 140.981 8.61943 140.981 19.2589C140.981 25.712 144.317 31.4248 149.436 34.9165C151.611 36.3972 152.928 38.8377 152.928 41.4701V42.9418C152.928 46.1409 155.523 48.7368 158.723 48.7368H163.695C166.894 48.7368 169.49 46.1409 169.49 42.9418V41.4701C169.49 38.8377 170.806 36.3972 172.982 34.9165C178.082 31.4248 181.418 25.7212 181.418 19.2589Z" fill="url(#paint37_linear)"/>
<path opacity="0.5" d="M161.19 48.0054C163.825 48.0054 165.962 47.502 165.962 46.8811C165.962 46.2602 163.825 45.7568 161.19 45.7568C158.555 45.7568 156.419 46.2602 156.419 46.8811C156.419 47.502 158.555 48.0054 161.19 48.0054Z" fill="#F4F7FA"/>
<path d="M159.947 47.5761C159.81 47.5761 159.691 47.4755 159.673 47.3384L156.163 20.0359C156.145 19.8805 156.255 19.7434 156.401 19.7251C156.556 19.7069 156.693 19.8165 156.712 19.9628L160.221 47.2653C160.24 47.4207 160.13 47.5578 159.984 47.5761C159.975 47.5761 159.966 47.5761 159.947 47.5761Z" fill="url(#paint38_linear)"/>
<path d="M162.132 47.5759C162.123 47.5759 162.104 47.5759 162.095 47.5759C161.94 47.5577 161.839 47.4206 161.858 47.2652L165.368 19.9627C165.386 19.8073 165.523 19.7068 165.678 19.725C165.834 19.7433 165.934 19.8804 165.916 20.0358L162.406 47.3383C162.388 47.4754 162.269 47.5759 162.132 47.5759Z" fill="url(#paint39_linear)"/>
<path d="M164.993 20.0174C164.902 20.0174 164.82 19.9717 164.765 19.8894L163.796 18.4178C163.787 18.3996 163.768 18.3904 163.759 18.3996C163.732 18.3996 163.723 18.4178 163.723 18.427L163.083 19.4964C162.973 19.6701 162.79 19.7798 162.589 19.7889C162.388 19.798 162.196 19.6975 162.077 19.5238L161.2 18.2076C161.191 18.1893 161.182 18.1893 161.163 18.1893C161.145 18.1893 161.136 18.1985 161.127 18.2076L160.359 19.3227C160.249 19.4873 160.067 19.5787 159.875 19.5787C159.683 19.5787 159.5 19.4873 159.381 19.3227L158.266 17.7323C158.257 17.714 158.238 17.714 158.229 17.714C158.211 17.714 158.202 17.7232 158.193 17.7415L157.178 19.4964C157.105 19.6244 156.931 19.6701 156.803 19.597C156.675 19.5238 156.63 19.3502 156.703 19.2222L157.717 17.4672C157.818 17.2936 158.001 17.1748 158.211 17.1656C158.412 17.1565 158.604 17.257 158.723 17.4215L159.838 19.012C159.847 19.0303 159.856 19.0302 159.875 19.0302C159.893 19.0302 159.902 19.0211 159.911 19.012L160.679 17.8968C160.789 17.7323 160.981 17.6409 161.173 17.6409C161.374 17.6409 161.556 17.7415 161.666 17.906L162.544 19.2222C162.553 19.2405 162.571 19.2496 162.58 19.2405C162.608 19.2405 162.617 19.2222 162.617 19.2131L163.257 18.1436C163.366 17.97 163.549 17.8603 163.759 17.8511C163.96 17.8511 164.152 17.9517 164.271 18.1254L165.24 19.597C165.322 19.7249 165.286 19.8986 165.158 19.9809C165.094 19.9991 165.039 20.0174 164.993 20.0174Z" fill="url(#paint40_linear)"/>
<path opacity="0.3" d="M161.565 34.4504C161.995 27.0283 174.508 25.2917 174.453 18.6648C174.417 14.5791 169.444 11.5536 168.384 10.9412C160.56 6.47151 150.935 11.6359 148.942 7.97968C148.449 7.06564 148.677 6.07847 148.814 5.51177C149.015 4.66171 149.463 3.86649 150.14 3.13525C144.619 6.57206 140.972 12.5133 140.972 19.259C140.972 25.7121 144.308 31.4249 149.427 34.9165C151.602 36.3973 152.918 38.8378 152.918 41.4702V42.9418C152.918 46.141 155.514 48.7369 158.713 48.7369H163.686C166.885 48.7369 169.481 46.141 169.481 42.9418V41.7627C168.795 42.2837 168.009 42.6493 167.15 42.6493C164.161 42.6311 161.346 38.1431 161.565 34.4504Z" fill="url(#paint41_linear)"/>
<path opacity="0.44" d="M161.519 36.7995C171.131 36.7995 178.923 29.286 178.923 20.0177C178.923 10.7493 171.131 3.23584 161.519 3.23584C151.907 3.23584 144.116 10.7493 144.116 20.0177C144.116 29.286 151.907 36.7995 161.519 36.7995Z" fill="#F4F7FA"/>
<path d="M87.7374 195.359L85.4523 195.468C86.2383 194.033 85.2969 190.121 85.2969 190.121L87.7557 190.194C87.7557 190.194 87.6917 191.328 87.5454 193.009C87.4997 193.594 87.5911 194.463 87.7374 195.359Z" fill="url(#paint42_linear)"/>
<path d="M89.2272 190.441C87.8196 190.596 86.412 190.752 85.0043 190.907C83.1031 188.805 80.2696 185.13 78.7523 179.966C75.8456 170.076 80.3975 163.577 77.3446 161.054C73.8256 158.139 66.8788 166.018 51.5503 168.248C46.6145 168.961 35.6642 170.551 31.2311 164.656C29.4305 162.261 28.3976 158.23 29.8235 154.812C32.3737 148.678 40.7737 149.41 68.4327 144.026C79.0905 141.951 80.7723 141.275 83.3042 142.481C95.8266 148.441 90.6074 182.242 89.2272 190.441Z" fill="url(#paint43_linear)"/>
<path d="M90.141 195.358C90.013 194.682 87.8193 194.061 86.7316 194.975C86.1923 195.432 85.8175 196.346 86.1283 196.757C86.238 196.903 85.7718 197.177 86.2197 197.177C87.7096 197.196 90.2598 196.035 90.141 195.358Z" fill="url(#paint44_linear)"/>
<path d="M88.0389 195.322C88.0389 195.322 85.3151 194.691 85.0226 195.231C84.7301 195.77 84.5016 197.214 86.2291 197.168C87.9475 197.132 88.1943 195.779 88.0389 195.322Z" fill="url(#paint45_linear)"/>
<path d="M104.025 198.128C103.806 197.47 101.548 197.168 100.598 198.229C100.122 198.75 99.8847 199.709 100.25 200.084C100.387 200.221 99.9579 200.541 100.406 200.486C101.877 200.294 104.245 198.777 104.025 198.128Z" fill="url(#paint46_linear)"/>
<path d="M101.357 198.759L99.1175 199.197C99.6934 197.662 98.1943 193.933 98.1943 193.933L100.644 193.649C100.644 193.649 100.745 194.783 100.836 196.474C100.863 197.049 101.083 197.899 101.357 198.759Z" fill="url(#paint47_linear)"/>
<path d="M101.942 198.393C101.942 198.393 99.1539 198.155 98.9437 198.731C98.7243 199.307 98.706 200.77 100.406 200.486C102.106 200.194 102.161 198.823 101.942 198.393Z" fill="url(#paint48_linear)"/>
<path d="M90.0313 130.187L99.6471 107.656C100.132 106.532 99.4825 105.243 98.2943 104.951L80.6807 100.673C79.7301 100.444 78.752 100.938 78.3773 101.852L69.5293 123.506C69.0906 124.584 69.6664 125.809 70.7816 126.147L87.6274 131.302C88.5963 131.595 89.6383 131.111 90.0313 130.187Z" fill="#26264F"/>
<path d="M89.6011 129.1L98.5861 108.058C99.034 107.007 98.4307 105.801 97.3247 105.536L80.872 101.541C79.9853 101.322 79.0713 101.788 78.724 102.638L70.4519 122.857C70.0406 123.862 70.5798 125.005 71.6219 125.325L87.3617 130.142C88.2574 130.416 89.2263 129.968 89.6011 129.1Z" fill="#EFF2F6"/>
<path d="M95.1414 122.911L95.4339 120.261L96.9604 117.345C97.1706 116.952 97.2803 116.504 97.2803 116.056V113.158L95.4339 117.427C95.4339 117.427 94.2182 116.33 93.7612 116.102C93.295 115.873 93.359 116.796 93.7064 117.144C94.0537 117.491 93.5327 120.315 93.88 120.608L93.7612 122.335L95.1414 122.911Z" fill="url(#paint49_linear)"/>
<path d="M80.4888 106.002C79.0537 102.492 75.9734 100.472 74.3738 99.4205C70.5897 96.9434 68.1674 97.3913 59.484 96.0751C47.9122 94.311 46.5229 92.6474 42.6291 94.0002C37.5196 95.7734 34.8506 100.417 33.6257 102.537C27.456 113.259 34.6678 118.707 32.8214 140.05C32.0627 148.77 30.125 156.347 34.7866 160.826C35.7646 161.767 36.8615 162.261 39.0552 163.248C47.7569 167.16 55.5537 166.484 60.2975 166.018C65.5167 165.506 68.1492 165.204 69.5294 163.367C71.7414 160.424 69.4654 156.685 69.0632 150.205C68.7799 145.552 69.831 141.869 71.9516 134.511C76.86 117.391 83.24 112.729 80.4888 106.002Z" fill="url(#paint50_linear)"/>
<path d="M61.1113 89.7591C61.6414 87.8853 60.7183 86.1394 60.5172 85.7647C59.6671 84.1925 59.4477 83.9823 59.0456 83.7081L58.4788 83.3608C58.4788 83.3608 58.4423 83.3516 58.4149 83.3333C58.0493 83.2054 56.8153 83.1688 56.5685 83.2237C55.7733 83.3973 54.9232 86.6422 55.1609 91.2398C55.1243 91.4135 55.0969 91.5871 55.0695 91.77C54.9415 92.4921 54.841 93.205 54.7678 93.8997C54.6947 94.5669 53.7532 94.5487 53.086 94.5029C50.3713 94.3293 49.0459 94.5578 48.9271 94.9691C48.7077 95.7278 51.9252 98.2048 55.9013 98.7624C61.2301 98.799 65.5718 98.2322 65.1057 97.3913C64.8954 97.0166 60.764 95.938 59.6031 94.8686C58.5428 93.8905 58.6251 92.8759 58.5428 92.1539C58.8536 91.9985 60.7183 91.1393 61.1113 89.7591Z" fill="url(#paint51_linear)"/>
<path d="M60.1242 82.0628C60.115 83.4887 59.4478 85.0061 59.1096 85.2528C59.0639 85.2803 58.8171 85.4814 58.5977 85.8196C58.5703 85.8653 58.5429 85.9201 58.5155 85.9841C58.2047 86.8798 59.6306 87.9401 59.3564 88.3423C59.1553 88.6348 58.1864 88.2418 58.0676 88.4977C57.9579 88.7354 58.7623 89.2289 58.6434 89.5123C58.552 89.7225 58.0584 89.5306 57.7385 89.8596C57.5831 90.0242 57.6288 90.1521 57.4643 90.6548C57.3729 90.9382 57.2358 91.249 57.1353 91.4226C56.6417 92.2544 55.2523 92.5652 54.9781 92.227C54.905 92.1356 54.969 92.0533 54.8959 91.7426C54.8959 91.7426 54.8227 91.4501 54.6216 91.121C54.3291 90.6457 53.6345 90.2984 52.9307 89.7956C51.6327 88.8633 51.2762 88.059 51.1666 87.7939C51.13 87.6933 51.1026 87.6294 51.0843 87.5745C50.7461 86.5234 50.7461 84.9786 51.2123 84.0372C51.9983 82.4467 53.7899 83.2054 55.2432 81.6332C56.925 79.8143 55.9287 77.3372 56.8428 77.063C57.8665 76.7248 60.1333 79.4212 60.1242 82.0628Z" fill="#26264F"/>
<path d="M58.8444 88.0041C58.497 87.5288 57.8846 87.9766 57.8755 88.5982C57.8755 89.2198 58.4696 89.8596 59.0546 89.7408C59.6396 89.6128 59.3105 88.6439 58.8444 88.0041Z" fill="url(#paint52_linear)"/>
<path opacity="0.6" d="M55.7826 159.912C57.3182 156.859 53.5614 152.792 56.0111 148.139C58.0951 144.181 61.8884 145.068 63.6251 141.448C65.7274 137.07 61.1571 133.798 61.3125 127.134C61.5045 119.173 68.3598 111.203 72.3907 111.897C74.9958 112.345 75.334 116.239 77.1712 120.508C75.5442 124.072 73.6521 128.533 71.9337 134.529C69.8223 141.896 68.762 145.58 69.0453 150.223C69.4384 156.695 71.7143 160.442 69.5115 163.385C68.1313 165.232 65.4897 165.524 60.2797 166.036C55.5358 166.502 47.739 167.179 39.0373 163.267C37.9404 162.773 37.1087 162.398 36.4414 162.033C50.0424 164.062 54.5669 162.334 55.7826 159.912Z" fill="url(#paint53_linear)"/>
<path d="M95.6622 122.39C94.8121 122.025 93.9712 121.659 93.1212 121.293C91.6861 122.756 89.8672 124.182 88.3316 123.716C86.0465 123.03 86.6132 118.816 83.8253 111.422C80.6719 103.04 77.0888 100.892 75.2882 100.106C74.2827 99.6672 73.5881 99.3839 72.7471 99.585C68.899 100.526 67.6285 110.553 68.7071 118.058C69.3195 122.281 70.5077 130.571 77.3082 134.511C78.2771 135.068 83.5877 138.148 88.8526 135.726C93.3497 133.651 96.1284 128.341 95.6622 122.39Z" fill="url(#paint54_linear)"/>
<path d="M101.786 194.417C100.378 194.572 98.9705 194.728 97.5629 194.883C95.6617 192.781 92.8282 189.106 91.3109 183.942C88.4042 174.052 92.9561 167.553 89.9032 165.031C86.3842 162.115 79.4374 169.994 64.1089 172.224C59.1731 172.937 48.2228 174.527 43.7897 168.632C41.9891 166.237 40.9562 162.206 42.3821 158.788C44.9323 152.654 53.3323 153.386 80.9913 148.002C91.6491 145.927 93.3309 145.251 95.8628 146.457C108.385 152.426 103.166 186.218 101.786 194.417Z" fill="url(#paint55_linear)"/>
<path d="M53.6246 220.915C66.5124 220.915 76.9601 216.651 76.9601 211.391C76.9601 206.131 66.5124 201.866 53.6246 201.866C40.7367 201.866 30.2891 206.131 30.2891 211.391C30.2891 216.651 40.7367 220.915 53.6246 220.915Z" fill="url(#paint56_linear)"/>
<path d="M30.2891 210.276C30.2891 215.239 40.7366 219.261 53.6246 219.261C66.5126 219.261 76.9601 215.239 76.9601 210.276C76.9601 205.312 66.5126 197.187 53.6246 197.187C40.7366 197.187 30.2891 205.312 30.2891 210.276Z" fill="url(#paint57_linear)"/>
<path opacity="0.3" d="M30.2891 210.276C30.2891 205.312 40.7366 197.187 53.6246 197.187C59.575 197.187 65.0044 198.923 69.1268 201.272C69.4193 201.876 69.5472 202.479 69.4924 203.046C69.2273 205.843 64.6662 207.552 62.0521 208.118C55.471 209.544 52.2535 205.605 46.8241 205.76C43.4696 205.852 38.8171 207.543 33.2963 214.681C31.3859 213.383 30.2891 211.884 30.2891 210.276Z" fill="url(#paint58_linear)"/>
<path d="M52.3455 201.702C53.2778 201.931 54.1462 201.921 54.9688 201.72C55.7092 201.528 56.2211 200.843 56.2211 200.075V173.769H51.0293V200.048C51.0293 200.834 51.5777 201.51 52.3455 201.702Z" fill="white"/>
<path opacity="0.65" d="M52.3455 201.702C53.2778 201.931 54.1462 201.921 54.9688 201.72C55.7092 201.528 56.2211 200.843 56.2211 200.075V173.769H51.0293V200.048C51.0293 200.834 51.5777 201.51 52.3455 201.702Z" fill="url(#paint59_linear)"/>
<path d="M81.0376 162.691L73.1128 157.682C72.7838 155.808 69.0453 136.229 53.8814 130.078C47.7116 127.573 41.0756 127.875 37.4286 128.039C30.1528 128.368 24.9702 128.597 22.4748 132.061C19.2665 136.512 24.6411 140.553 23.5351 153.294C23.0781 158.486 21.9264 160.799 23.3615 164.245C25.0799 168.367 29.0742 170.652 32.182 171.941C35.893 174.098 42.3553 177.169 50.8833 177.91C65.2612 179.171 75.9921 173.001 79.6757 170.643C81.321 170.122 82.5458 168.76 82.9023 167.078C83.2587 165.369 82.5184 163.623 81.0376 162.691Z" fill="url(#paint60_linear)"/>
<path opacity="0.26" d="M77.399 166.255C77.1065 164.491 72.1981 165.954 67.5548 162.508C60.608 157.352 64.2185 148.614 58.1767 140.232C52.6376 132.536 41.4771 128.624 38.0129 131.558C33.4061 135.461 44.6854 150.049 38.0129 159.464C34.768 164.034 29.8322 163.815 29.8048 166.502C29.7682 170.743 42.0621 175.624 53.7253 175.414C66.2477 175.167 77.856 169.052 77.399 166.255Z" fill="white"/>
<path d="M104.684 180.853C104.684 180.853 107.471 181.785 107.764 186.401C107.307 186.364 106.247 186.383 106.247 186.383C106.247 186.383 106.448 183.028 104.455 182.352C104.62 181.959 104.684 180.853 104.684 180.853Z" fill="url(#paint61_linear)"/>
<path d="M94.3457 180.414C94.4188 181.264 94.4828 182.114 94.5559 182.964C95.9544 182.598 97.49 182.178 99.1262 182.123C101.256 182.05 103.194 182.306 104.921 182.745C104.994 182.635 105.159 182.388 105.232 181.968C105.351 181.3 105.15 180.743 105.113 180.642C104.236 180.322 103.285 180.048 102.261 179.847C99.3272 179.289 96.6491 179.756 94.3457 180.414Z" fill="url(#paint62_linear)"/>
<path d="M94.2179 181.145C94.2179 180.834 94.2453 180.45 94.3458 180.414C94.4464 180.377 94.5743 180.651 94.6383 180.807C94.6657 180.871 94.7114 181.026 94.748 181.52C94.7937 182.16 94.7389 182.47 94.6932 182.662C94.6657 182.781 94.62 182.955 94.5652 182.955C94.5104 182.955 94.4738 182.845 94.4007 182.626C94.3093 182.342 94.2087 181.858 94.2179 181.145Z" fill="url(#paint63_linear)"/>
<path d="M91.6221 186.483C92.2162 186.602 93.6513 186.94 93.6513 186.94C93.6513 186.94 92.7189 183.942 94.4739 182.589C94.5196 182.361 94.5653 182.004 94.5105 181.575C94.4648 181.246 94.3734 180.971 94.3002 180.789C93.5507 181.2 91.9237 182.598 91.6221 186.483Z" fill="url(#paint64_linear)"/>
<path d="M79.2637 187.15C79.2637 187.15 79.3368 185.569 81.8504 185.596C82.2435 185.889 82.2617 187.187 82.2617 187.187L79.2637 187.15Z" fill="url(#paint65_linear)"/>
<path d="M77.0246 218.356L83.8982 222.414L88.0297 207.095L81.211 186.593L79.264 187.141L76.2934 216.738C76.2294 217.414 76.5219 218.063 77.0246 218.356Z" fill="url(#paint66_linear)"/>
<path opacity="0.3" d="M88.0294 207.095L81.2106 186.593L79.2637 187.141C79.7481 188.96 79.9766 191.922 80.0863 193.567C80.5433 200.568 82.0698 202.515 81.3294 207.396C80.717 211.464 79.3734 212.021 79.483 214.754C79.611 217.734 81.3385 220.193 83.3951 222.112L83.8979 222.414L88.0294 207.095Z" fill="url(#paint67_linear)"/>
<path d="M81.2104 186.593L117.781 186.977L123.339 218.475L83.8977 222.414L81.2104 186.593Z" fill="url(#paint68_linear)"/>
<g opacity="0.2">
<path opacity="0.2" d="M117.782 186.977L105.707 186.849C105.479 187.498 105.141 188.403 104.638 189.426C99.1537 200.578 86.3937 202.022 86.6222 203.877C86.9695 206.656 114.985 202.634 115.689 206.354C116.027 208.155 110.232 212.305 104.108 213.941C96.695 215.915 91.1924 213.603 87.4997 217.917C86.2474 219.379 85.6899 221.089 85.4248 222.24L123.33 218.475L117.782 186.977Z" fill="url(#paint69_linear)"/>
</g>
<path d="M81.8505 185.587C81.43 185.578 80.8359 185.523 80.1869 185.898C80.0498 185.98 79.931 186.063 79.8213 186.154L80.1229 186.054C80.5982 185.916 81.2655 186.108 81.5123 186.593C81.8139 187.187 81.9236 188.558 81.9876 189.234C82.1795 191.163 83.3312 203.164 83.3312 203.164C83.4135 204.179 84.1813 204.938 85.077 204.91L118.951 202.982C119.198 202.973 119.445 202.89 119.655 202.726C120.085 202.378 120.277 201.793 120.176 201.227L118.513 187.361C118.376 186.565 117.763 185.98 117.059 185.971L81.8505 185.587Z" fill="url(#paint70_linear)"/>
<path d="M82.2255 185.596C81.8051 185.587 81.3023 185.523 80.7356 185.67C80.5802 185.706 80.3426 185.779 80.2329 185.871C80.2329 185.871 81.4212 185.596 81.8782 186.602C82.1524 187.214 82.2895 188.567 82.3535 189.244C82.5454 191.172 83.6971 203.164 83.6971 203.164C83.7794 204.179 84.5472 204.938 85.443 204.91L119.665 204.005C119.912 203.996 120.158 203.914 120.369 203.749C120.798 203.402 120.99 202.817 120.89 202.25L118.851 187.361C118.714 186.565 118.102 185.98 117.398 185.971L82.2255 185.596Z" fill="url(#paint71_linear)"/>
<path opacity="0.1" d="M120.889 202.269L118.851 187.379C118.714 186.584 118.102 185.999 117.398 185.99L82.2163 185.596C81.7958 185.587 81.2931 185.523 80.7264 185.67C80.571 185.706 80.3333 185.779 80.2236 185.871C80.2236 185.871 81.4119 185.596 81.8689 186.602C81.9146 186.702 81.9512 186.812 81.9877 186.94C85.4245 187.114 88.8339 187.05 92.225 187.306C98.8793 187.799 105.533 187.863 111.676 190.605C113.632 191.474 114.966 194.563 114.436 195.98C114.052 197.004 112.754 196.921 112.297 198.265C111.822 199.682 112.965 200.642 112.489 201.638C111.987 202.68 110.451 202.186 107.956 202.945C106.575 203.365 105.515 203.969 104.857 204.408L119.655 204.014C119.902 204.005 120.149 203.923 120.359 203.759C120.798 203.42 120.99 202.826 120.889 202.269Z" fill="url(#paint72_linear)"/>
<path d="M104.793 206.886L100.506 207.964L100.049 208.001C99.5922 208.046 99.1992 207.644 99.1809 207.114L98.9889 202.105C98.9707 201.575 99.3363 201.136 99.7933 201.127L100.25 201.118L104.565 201.666C104.976 201.657 105.323 201.438 105.342 201.931L105.515 206.602C105.524 207.105 105.204 206.849 104.793 206.886Z" fill="url(#paint73_linear)"/>
<path d="M105.113 207.57L100.37 208C99.9125 208.045 99.5195 207.643 99.5012 207.113L99.3093 202.104C99.291 201.574 99.6566 201.135 100.114 201.126L104.876 201.044C105.287 201.035 105.634 201.437 105.653 201.93L105.826 206.601C105.845 207.095 105.525 207.534 105.113 207.57Z" fill="url(#paint74_linear)"/>
<defs>
<linearGradient id="paint0_linear" x1="147.263" y1="39.5101" x2="117.393" y2="182.722" gradientUnits="userSpaceOnUse">
<stop stop-color="#AA80F9"/>
<stop offset="0.9964" stop-color="#6165D7"/>
</linearGradient>
<linearGradient id="paint1_linear" x1="130.996" y1="189.51" x2="122.054" y2="189.769" gradientUnits="userSpaceOnUse">
<stop stop-color="#444B8C"/>
<stop offset="0.9964" stop-color="#26264F"/>
</linearGradient>
<linearGradient id="paint2_linear" x1="125.223" y1="186.687" x2="122.016" y2="186.687" gradientUnits="userSpaceOnUse">
<stop stop-color="#FFC444"/>
<stop offset="0.9964" stop-color="#F36F56"/>
</linearGradient>
<linearGradient id="paint3_linear" x1="160.032" y1="187.047" x2="150.868" y2="189.567" gradientUnits="userSpaceOnUse">
<stop stop-color="#444B8C"/>
<stop offset="0.9964" stop-color="#26264F"/>
</linearGradient>
<linearGradient id="paint4_linear" x1="153.815" y1="185.628" x2="149.854" y2="185.628" gradientUnits="userSpaceOnUse">
<stop stop-color="#FFC444"/>
<stop offset="0.9964" stop-color="#F36F56"/>
</linearGradient>
<linearGradient id="paint5_linear" x1="136.92" y1="37.353" x2="107.05" y2="180.565" gradientUnits="userSpaceOnUse">
<stop stop-color="#AA80F9"/>
<stop offset="0.9964" stop-color="#6165D7"/>
</linearGradient>
<linearGradient id="paint6_linear" x1="111.232" y1="159.833" x2="122.569" y2="105.985" gradientUnits="userSpaceOnUse">
<stop stop-color="#AA80F9"/>
<stop offset="0.9964" stop-color="#6165D7"/>
</linearGradient>
<linearGradient id="paint7_linear" x1="116.458" y1="33.0851" x2="86.588" y2="176.297" gradientUnits="userSpaceOnUse">
<stop stop-color="#AA80F9"/>
<stop offset="0.9964" stop-color="#6165D7"/>
</linearGradient>
<linearGradient id="paint8_linear" x1="130.741" y1="95.12" x2="120.725" y2="95.12" gradientUnits="userSpaceOnUse">
<stop stop-color="#FFC444"/>
<stop offset="0.9964" stop-color="#F36F56"/>
</linearGradient>
<linearGradient id="paint9_linear" x1="171.918" y1="99.7716" x2="165.161" y2="99.7716" gradientUnits="userSpaceOnUse">
<stop stop-color="#FFC444"/>
<stop offset="0.9964" stop-color="#F36F56"/>
</linearGradient>
<linearGradient id="paint10_linear" x1="123.199" y1="51.9369" x2="123.554" y2="76.6104" gradientUnits="userSpaceOnUse">
<stop stop-color="#FFC444"/>
<stop offset="0.9964" stop-color="#F36F56"/>
</linearGradient>
<linearGradient id="paint11_linear" x1="130.062" y1="48.8293" x2="121.395" y2="48.8293" gradientUnits="userSpaceOnUse">
<stop stop-color="#FFC444"/>
<stop offset="0.9964" stop-color="#F36F56"/>
</linearGradient>
<linearGradient id="paint12_linear" x1="129.229" y1="50.3186" x2="127.325" y2="50.3186" gradientUnits="userSpaceOnUse">
<stop stop-color="#FFC444"/>
<stop offset="0.9964" stop-color="#F36F56"/>
</linearGradient>
<linearGradient id="paint13_linear" x1="198.838" y1="183.789" x2="200.553" y2="205.612" gradientUnits="userSpaceOnUse">
<stop offset="0.003597" stop-color="#26264F"/>
<stop offset="1" stop-color="#444B8C"/>
</linearGradient>
<linearGradient id="paint14_linear" x1="202.865" y1="195.845" x2="206.974" y2="170.065" gradientUnits="userSpaceOnUse">
<stop stop-color="#FFC444"/>
<stop offset="0.9964" stop-color="#F36F56"/>
</linearGradient>
<linearGradient id="paint15_linear" x1="177.392" y1="182.33" x2="179.106" y2="204.153" gradientUnits="userSpaceOnUse">
<stop offset="0.003597" stop-color="#26264F"/>
<stop offset="1" stop-color="#444B8C"/>
</linearGradient>
<linearGradient id="paint16_linear" x1="181.419" y1="194.385" x2="185.527" y2="168.605" gradientUnits="userSpaceOnUse">
<stop stop-color="#FFC444"/>
<stop offset="0.9964" stop-color="#F36F56"/>
</linearGradient>
<linearGradient id="paint17_linear" x1="241.515" y1="137.448" x2="231.723" y2="152.016" gradientUnits="userSpaceOnUse">
<stop stop-color="#893976"/>
<stop offset="1" stop-color="#311944"/>
</linearGradient>
<linearGradient id="paint18_linear" x1="179.404" y1="169.524" x2="249.675" y2="169.524" gradientUnits="userSpaceOnUse">
<stop stop-color="#893976"/>
<stop offset="1" stop-color="#311944"/>
</linearGradient>
<linearGradient id="paint19_linear" x1="216.98" y1="116.789" x2="248.258" y2="146.656" gradientUnits="userSpaceOnUse">
<stop stop-color="#FF9085"/>
<stop offset="1" stop-color="#FB6FBB"/>
</linearGradient>
<linearGradient id="paint20_linear" x1="179.578" y1="126.179" x2="178.865" y2="129.434" gradientUnits="userSpaceOnUse">
<stop stop-color="#FFC444"/>
<stop offset="0.9964" stop-color="#F36F56"/>
</linearGradient>
<linearGradient id="paint21_linear" x1="221.024" y1="82.2701" x2="233.552" y2="111.01" gradientUnits="userSpaceOnUse">
<stop stop-color="#FFC444"/>
<stop offset="0.9964" stop-color="#F36F56"/>
</linearGradient>
<linearGradient id="paint22_linear" x1="222.244" y1="81.3171" x2="236.231" y2="113.405" gradientUnits="userSpaceOnUse">
<stop stop-color="#FFC444"/>
<stop offset="0.9964" stop-color="#F36F56"/>
</linearGradient>
<linearGradient id="paint23_linear" x1="208.421" y1="125.748" x2="239.691" y2="155.607" gradientUnits="userSpaceOnUse">
<stop stop-color="#FF9085"/>
<stop offset="1" stop-color="#FB6FBB"/>
</linearGradient>
<linearGradient id="paint24_linear" x1="209.827" y1="122.245" x2="245.3" y2="156.118" gradientUnits="userSpaceOnUse">
<stop stop-color="#FF9085"/>
<stop offset="1" stop-color="#FB6FBB"/>
</linearGradient>
<linearGradient id="paint25_linear" x1="210.923" y1="96.9876" x2="220.136" y2="141.694" gradientUnits="userSpaceOnUse">
<stop stop-color="#AA80F9"/>
<stop offset="0.9964" stop-color="#6165D7"/>
</linearGradient>
<linearGradient id="paint26_linear" x1="210.379" y1="206.445" x2="257.907" y2="206.445" gradientUnits="userSpaceOnUse">
<stop stop-color="#AA80F9"/>
<stop offset="0.9964" stop-color="#6165D7"/>
</linearGradient>
<linearGradient id="paint27_linear" x1="217.971" y1="204.114" x2="257.907" y2="204.114" gradientUnits="userSpaceOnUse">
<stop stop-color="#AA80F9"/>
<stop offset="0.9964" stop-color="#6165D7"/>
</linearGradient>
<linearGradient id="paint28_linear" x1="231.5" y1="185.657" x2="236.785" y2="185.657" gradientUnits="userSpaceOnUse">
<stop stop-color="#AA80F9"/>
<stop offset="0.9964" stop-color="#6165D7"/>
</linearGradient>
<linearGradient id="paint29_linear" x1="260.375" y1="180.038" x2="250.686" y2="167.414" gradientUnits="userSpaceOnUse">
<stop stop-color="#311944"/>
<stop offset="1" stop-color="#893976"/>
</linearGradient>
<linearGradient id="paint30_linear" x1="160.773" y1="60.7009" x2="161.132" y2="57.8278" gradientUnits="userSpaceOnUse">
<stop offset="0.003597" stop-color="#26264F"/>
<stop offset="1" stop-color="#444B8C"/>
</linearGradient>
<linearGradient id="paint31_linear" x1="159.296" y1="58.0824" x2="162.888" y2="51.6179" gradientUnits="userSpaceOnUse">
<stop offset="0.003597" stop-color="#26264F"/>
<stop offset="1" stop-color="#444B8C"/>
</linearGradient>
<linearGradient id="paint32_linear" x1="155.235" y1="55.0188" x2="167.154" y2="55.0188" gradientUnits="userSpaceOnUse">
<stop offset="0.003597" stop-color="#26264F"/>
<stop offset="1" stop-color="#444B8C"/>
</linearGradient>
<linearGradient id="paint33_linear" x1="159.639" y1="56.3159" x2="163.185" y2="49.4922" gradientUnits="userSpaceOnUse">
<stop offset="0.003597" stop-color="#26264F"/>
<stop offset="1" stop-color="#444B8C"/>
</linearGradient>
<linearGradient id="paint34_linear" x1="154.7" y1="53.0099" x2="167.682" y2="53.0099" gradientUnits="userSpaceOnUse">
<stop offset="0.003597" stop-color="#26264F"/>
<stop offset="1" stop-color="#444B8C"/>
</linearGradient>
<linearGradient id="paint35_linear" x1="154.509" y1="50.6643" x2="167.881" y2="50.6643" gradientUnits="userSpaceOnUse">
<stop offset="0.003597" stop-color="#26264F"/>
<stop offset="1" stop-color="#444B8C"/>
</linearGradient>
<linearGradient id="paint36_linear" x1="160.862" y1="49.6557" x2="162.179" y2="43.4904" gradientUnits="userSpaceOnUse">
<stop offset="0.003597" stop-color="#26264F"/>
<stop offset="1" stop-color="#444B8C"/>
</linearGradient>
<linearGradient id="paint37_linear" x1="158.333" y1="15.2543" x2="184.46" y2="56.7329" gradientUnits="userSpaceOnUse">
<stop stop-color="#FCB148"/>
<stop offset="0.0520724" stop-color="#FDBA46"/>
<stop offset="0.1424" stop-color="#FFC244"/>
<stop offset="0.3183" stop-color="#FFC444"/>
<stop offset="0.4849" stop-color="#FDB946"/>
<stop offset="0.7754" stop-color="#F99C4D"/>
<stop offset="0.8658" stop-color="#F8924F"/>
<stop offset="1" stop-color="#F8924F"/>
</linearGradient>
<linearGradient id="paint38_linear" x1="153.56" y1="47.1925" x2="158.888" y2="31.6297" gradientUnits="userSpaceOnUse">
<stop offset="0.494" stop-color="#EBEFF2"/>
<stop offset="1" stop-color="white"/>
</linearGradient>
<linearGradient id="paint39_linear" x1="158.653" y1="48.9357" x2="163.981" y2="33.3729" gradientUnits="userSpaceOnUse">
<stop offset="0.494" stop-color="#EBEFF2"/>
<stop offset="1" stop-color="white"/>
</linearGradient>
<linearGradient id="paint40_linear" x1="151.706" y1="46.5571" x2="157.033" y2="30.9944" gradientUnits="userSpaceOnUse">
<stop offset="0.494" stop-color="#EBEFF2"/>
<stop offset="1" stop-color="white"/>
</linearGradient>
<linearGradient id="paint41_linear" x1="159.25" y1="5.90477" x2="154.043" y2="48.8222" gradientUnits="userSpaceOnUse">
<stop stop-color="#FCB148"/>
<stop offset="0.0520724" stop-color="#FDBA46"/>
<stop offset="0.1424" stop-color="#FFC244"/>
<stop offset="0.3183" stop-color="#FFC444"/>
<stop offset="0.4849" stop-color="#FDB946"/>
<stop offset="0.7754" stop-color="#F99C4D"/>
<stop offset="0.8658" stop-color="#F8924F"/>
<stop offset="1" stop-color="#F8924F"/>
</linearGradient>
<linearGradient id="paint42_linear" x1="86.7951" y1="196.594" x2="86.4183" y2="189.037" gradientUnits="userSpaceOnUse">
<stop stop-color="#FFC444"/>
<stop offset="0.9964" stop-color="#F36F56"/>
</linearGradient>
<linearGradient id="paint43_linear" x1="49.7604" y1="148.354" x2="74.9294" y2="166.331" gradientUnits="userSpaceOnUse">
<stop stop-color="#444B8C"/>
<stop offset="0.9964" stop-color="#26264F"/>
</linearGradient>
<linearGradient id="paint44_linear" x1="91.3626" y1="193.39" x2="86.5209" y2="196.608" gradientUnits="userSpaceOnUse">
<stop stop-color="#444B8C"/>
<stop offset="0.9964" stop-color="#26264F"/>
</linearGradient>
<linearGradient id="paint45_linear" x1="90.9991" y1="192.843" x2="86.1576" y2="196.061" gradientUnits="userSpaceOnUse">
<stop stop-color="#444B8C"/>
<stop offset="0.9964" stop-color="#26264F"/>
</linearGradient>
<linearGradient id="paint46_linear" x1="104.964" y1="196.012" x2="100.62" y2="199.876" gradientUnits="userSpaceOnUse">
<stop stop-color="#444B8C"/>
<stop offset="0.9964" stop-color="#26264F"/>
</linearGradient>
<linearGradient id="paint47_linear" x1="100.6" y1="200.119" x2="99.143" y2="192.694" gradientUnits="userSpaceOnUse">
<stop stop-color="#FFC444"/>
<stop offset="0.9964" stop-color="#F36F56"/>
</linearGradient>
<linearGradient id="paint48_linear" x1="104.527" y1="195.521" x2="100.184" y2="199.385" gradientUnits="userSpaceOnUse">
<stop stop-color="#444B8C"/>
<stop offset="0.9964" stop-color="#26264F"/>
</linearGradient>
<linearGradient id="paint49_linear" x1="94.8752" y1="114.801" x2="97.53" y2="126.921" gradientUnits="userSpaceOnUse">
<stop stop-color="#FFC444"/>
<stop offset="0.9964" stop-color="#F36F56"/>
</linearGradient>
<linearGradient id="paint50_linear" x1="-456.098" y1="-507.618" x2="-545.324" y2="-618.903" gradientUnits="userSpaceOnUse">
<stop stop-color="#FCB148"/>
<stop offset="0.0520724" stop-color="#FDBA46"/>
<stop offset="0.1424" stop-color="#FFC244"/>
<stop offset="0.3183" stop-color="#FFC444"/>
<stop offset="0.4849" stop-color="#FDB946"/>
<stop offset="0.7754" stop-color="#F99C4D"/>
<stop offset="0.8658" stop-color="#F8924F"/>
<stop offset="1" stop-color="#F8924F"/>
</linearGradient>
<linearGradient id="paint51_linear" x1="63.2817" y1="81.9101" x2="50.9814" y2="110.129" gradientUnits="userSpaceOnUse">
<stop stop-color="#FFC444"/>
<stop offset="0.9964" stop-color="#F36F56"/>
</linearGradient>
<linearGradient id="paint52_linear" x1="62.0833" y1="80.9741" x2="48.3496" y2="112.481" gradientUnits="userSpaceOnUse">
<stop stop-color="#FFC444"/>
<stop offset="0.9964" stop-color="#F36F56"/>
</linearGradient>
<linearGradient id="paint53_linear" x1="82.2208" y1="125.629" x2="51.5168" y2="154.948" gradientUnits="userSpaceOnUse">
<stop stop-color="#FCB148"/>
<stop offset="0.0520724" stop-color="#FDBA46"/>
<stop offset="0.1424" stop-color="#FFC244"/>
<stop offset="0.3183" stop-color="#FFC444"/>
<stop offset="0.4849" stop-color="#FDB946"/>
<stop offset="0.7754" stop-color="#F99C4D"/>
<stop offset="0.8658" stop-color="#F8924F"/>
<stop offset="1" stop-color="#F8924F"/>
</linearGradient>
<linearGradient id="paint54_linear" x1="-436.623" y1="-523.231" x2="-525.849" y2="-634.516" gradientUnits="userSpaceOnUse">
<stop stop-color="#FCB148"/>
<stop offset="0.0520724" stop-color="#FDBA46"/>
<stop offset="0.1424" stop-color="#FFC244"/>
<stop offset="0.3183" stop-color="#FFC444"/>
<stop offset="0.4849" stop-color="#FDB946"/>
<stop offset="0.7754" stop-color="#F99C4D"/>
<stop offset="0.8658" stop-color="#F8924F"/>
<stop offset="1" stop-color="#F8924F"/>
</linearGradient>
<linearGradient id="paint55_linear" x1="104.043" y1="170.368" x2="41.7138" y2="170.368" gradientUnits="userSpaceOnUse">
<stop stop-color="#444B8C"/>
<stop offset="0.9964" stop-color="#26264F"/>
</linearGradient>
<linearGradient id="paint56_linear" x1="35.9644" y1="125.693" x2="45.3865" y2="171.418" gradientUnits="userSpaceOnUse">
<stop stop-color="#AA80F9"/>
<stop offset="0.9964" stop-color="#6165D7"/>
</linearGradient>
<linearGradient id="paint57_linear" x1="30.2902" y1="208.227" x2="76.9572" y2="208.227" gradientUnits="userSpaceOnUse">
<stop stop-color="#AA80F9"/>
<stop offset="0.9964" stop-color="#6165D7"/>
</linearGradient>
<linearGradient id="paint58_linear" x1="69.5027" y1="205.938" x2="30.2902" y2="205.938" gradientUnits="userSpaceOnUse">
<stop stop-color="#AA80F9"/>
<stop offset="0.9964" stop-color="#6165D7"/>
</linearGradient>
<linearGradient id="paint59_linear" x1="56.2186" y1="187.816" x2="51.03" y2="187.816" gradientUnits="userSpaceOnUse">
<stop stop-color="#AA80F9"/>
<stop offset="0.9964" stop-color="#6165D7"/>
</linearGradient>
<linearGradient id="paint60_linear" x1="27.8675" y1="182.298" x2="37.3802" y2="169.903" gradientUnits="userSpaceOnUse">
<stop stop-color="#311944"/>
<stop offset="1" stop-color="#893976"/>
</linearGradient>
<linearGradient id="paint61_linear" x1="104.462" y1="183.627" x2="107.765" y2="183.627" gradientUnits="userSpaceOnUse">
<stop stop-color="#FFC444"/>
<stop offset="0.9964" stop-color="#F36F56"/>
</linearGradient>
<linearGradient id="paint62_linear" x1="99.1847" y1="190.334" x2="99.9775" y2="178.53" gradientUnits="userSpaceOnUse">
<stop offset="0.0999605" stop-color="#311944"/>
<stop offset="0.267" stop-color="#371B47"/>
<stop offset="0.4803" stop-color="#462150"/>
<stop offset="0.7186" stop-color="#612A5F"/>
<stop offset="0.9736" stop-color="#853774"/>
<stop offset="1" stop-color="#893976"/>
</linearGradient>
<linearGradient id="paint63_linear" x1="94.74" y1="181.831" x2="103.808" y2="186.692" gradientUnits="userSpaceOnUse">
<stop offset="0.0999605" stop-color="#311944"/>
<stop offset="0.267" stop-color="#371B47"/>
<stop offset="0.4803" stop-color="#462150"/>
<stop offset="0.7186" stop-color="#612A5F"/>
<stop offset="0.9736" stop-color="#853774"/>
<stop offset="1" stop-color="#893976"/>
</linearGradient>
<linearGradient id="paint64_linear" x1="91.6211" y1="183.869" x2="94.5355" y2="183.869" gradientUnits="userSpaceOnUse">
<stop stop-color="#FFC444"/>
<stop offset="0.9964" stop-color="#F36F56"/>
</linearGradient>
<linearGradient id="paint65_linear" x1="81.8506" y1="197.009" x2="76.6672" y2="149.628" gradientUnits="userSpaceOnUse">
<stop offset="0.0999605" stop-color="#311944"/>
<stop offset="0.6853" stop-color="#6D2F66"/>
<stop offset="1" stop-color="#893976"/>
</linearGradient>
<linearGradient id="paint66_linear" x1="104.403" y1="216.669" x2="70.0782" y2="197.556" gradientUnits="userSpaceOnUse">
<stop stop-color="#311944"/>
<stop offset="1" stop-color="#893976"/>
</linearGradient>
<linearGradient id="paint67_linear" x1="73.4284" y1="190.076" x2="83.7791" y2="207.434" gradientUnits="userSpaceOnUse">
<stop stop-color="#311944"/>
<stop offset="1" stop-color="#893976"/>
</linearGradient>
<linearGradient id="paint68_linear" x1="99.8021" y1="169.371" x2="103.577" y2="220.037" gradientUnits="userSpaceOnUse">
<stop offset="0.0999605" stop-color="#311944"/>
<stop offset="0.6853" stop-color="#6D2F66"/>
<stop offset="1" stop-color="#893976"/>
</linearGradient>
<linearGradient id="paint69_linear" x1="93.0966" y1="198.052" x2="120.894" y2="219.47" gradientUnits="userSpaceOnUse">
<stop stop-color="#311944"/>
<stop offset="1" stop-color="#893976"/>
</linearGradient>
<linearGradient id="paint70_linear" x1="85.9357" y1="195.146" x2="97.6412" y2="194.691" gradientUnits="userSpaceOnUse">
<stop offset="0.0999605" stop-color="#311944"/>
<stop offset="0.6853" stop-color="#6D2F66"/>
<stop offset="1" stop-color="#893976"/>
</linearGradient>
<linearGradient id="paint71_linear" x1="104.156" y1="234.411" x2="100.091" y2="188.733" gradientUnits="userSpaceOnUse">
<stop offset="0.0999605" stop-color="#311944"/>
<stop offset="0.267" stop-color="#371B47"/>
<stop offset="0.4803" stop-color="#462150"/>
<stop offset="0.7186" stop-color="#612A5F"/>
<stop offset="0.9736" stop-color="#853774"/>
<stop offset="1" stop-color="#893976"/>
</linearGradient>
<linearGradient id="paint72_linear" x1="106.137" y1="245.006" x2="99.2431" y2="181.99" gradientUnits="userSpaceOnUse">
<stop stop-color="#311944"/>
<stop offset="1" stop-color="#893976"/>
</linearGradient>
<linearGradient id="paint73_linear" x1="115.857" y1="211.8" x2="95.0702" y2="200.934" gradientUnits="userSpaceOnUse">
<stop stop-color="#FFC444"/>
<stop offset="0.9964" stop-color="#F36F56"/>
</linearGradient>
<linearGradient id="paint74_linear" x1="97.2222" y1="202.604" x2="118.437" y2="210.196" gradientUnits="userSpaceOnUse">
<stop stop-color="#FFC444"/>
<stop offset="0.9964" stop-color="#F36F56"/>
</linearGradient>
</defs>
</svg>
