<svg width="640" height="529" viewBox="0 0 640 529" fill="none" xmlns="http://www.w3.org/2000/svg">
<path fill-rule="evenodd" clip-rule="evenodd" d="M37.3952 226.018C55.0627 179.594 122.511 168.403 168.656 140.755C206.304 118.198 238.149 90.9399 282.424 79.2088C335.197 65.226 392.116 49.1959 445.189 67.4849C500.978 86.71 540.539 131.489 568.132 177.664C595.908 224.146 609.261 276.201 599.78 326.183C590.358 375.854 561.481 421.903 516.059 452.184C473.076 480.839 415.542 485.68 359.784 486.176C308.743 486.631 259.876 474.281 212.778 454.885C162.566 434.206 111.689 411.493 80.909 371.326C47.7001 327.99 19.3931 273.322 37.3952 226.018Z" fill="#F4F7FA"/>
<path d="M172.607 330.794C172.778 330.77 172.955 330.761 173.126 330.737C183.276 329.698 194.218 326.764 205.693 320.97C207.847 319.677 210.008 318.399 212.162 317.106C211.16 310.908 209.076 305.205 201.284 306.878C189.175 309.481 179.005 291.425 178.347 283.428C177.551 273.527 175.185 250.509 156.398 254.239C140.763 257.356 131.283 262.544 121.046 245.979C110.816 229.429 95.6343 223.914 80.5947 233.451C64.7678 243.492 39.4997 229.173 30.0154 243.779C13.4908 269.222 55.2023 295.226 89.6117 290.55C124.036 285.867 113.244 304.987 120.092 319.369C129.439 339.011 153.177 320.729 164.12 324.469C167.833 325.764 170.566 328.102 172.607 330.794Z" fill="url(#paint0_linear)"/>
<g opacity="0.5">
<path opacity="0.5" d="M191.307 326.705L191.979 326.144C150.612 277.331 85.4631 249.007 21.9719 252.196L22.0098 253.08C85.2428 249.884 150.108 278.102 191.307 326.705Z" fill="#FCFDFE"/>
<path opacity="0.5" d="M166.279 302.329L167.051 301.903C154.923 279.829 164.554 252.105 164.647 251.828L163.807 251.544C163.715 251.821 153.958 279.91 166.279 302.329Z" fill="#FCFDFE"/>
<path opacity="0.5" d="M183.43 318.197L183.909 317.456C162.457 303.738 120.056 323.493 119.627 323.707L120.001 324.489C120.421 324.296 162.387 304.741 183.43 318.197Z" fill="#FCFDFE"/>
<path opacity="0.5" d="M112.627 269.459L113.168 268.76C97.0243 256.393 93.9747 225.367 93.9428 225.056L93.0703 225.147C93.1022 225.458 96.1739 256.854 112.627 269.459Z" fill="#FCFDFE"/>
<path opacity="0.5" d="M73.7506 256.972L73.793 256.111C50.6984 255.127 27.1015 275.677 26.8503 275.882L27.4347 276.528C27.6641 276.316 51.0084 256.006 73.7506 256.972Z" fill="#FCFDFE"/>
</g>
<path d="M225.496 377.132L185.574 395.24C185.574 395.24 168.891 378.311 172.199 359.512C178.97 321.176 144.842 318.191 130.741 314.819C109.496 309.732 95.4448 297.071 109.737 278.231C125.922 256.916 93.1346 234.606 57.5916 231.312C22.814 228.101 8.94984 164.584 84.9275 164.654C130.303 164.695 142.278 207.023 153.419 226.921C164.582 246.828 196.384 234.459 197.179 264.601C197.846 290.34 187.719 313.939 207.572 322.843C227.447 331.754 236.33 347.809 225.496 377.132Z" fill="url(#paint1_linear)"/>
<g opacity="0.5">
<path opacity="0.5" d="M210.02 388.552L209.123 388.782C208.982 388.232 195.232 332.941 164.947 282.386C137.053 235.81 89.03 183.822 18.6262 200.687L18.4183 199.788C49.7611 192.283 79.3522 197.554 106.362 215.457C127.945 229.758 147.93 252.124 165.75 281.91C196.097 332.6 209.879 388.002 210.02 388.552Z" fill="#BEB8F2"/>
<path opacity="0.5" d="M117.01 223.421L116.131 223.696C107.118 194.437 78.7349 159.946 78.4519 159.605L79.173 159.023C79.4341 159.355 107.953 193.983 117.01 223.421Z" fill="#BEB8F2"/>
<path opacity="0.5" d="M98.7101 211.853C62.5636 207.219 39.9259 227.574 39.6897 227.772L39.0763 227.101C39.3058 226.888 62.2494 206.25 98.8356 210.933L98.7101 211.853Z" fill="#BEB8F2"/>
<path opacity="0.5" d="M182.756 316.596C155.625 281.498 97.3086 296.359 96.7554 296.54L96.406 295.692C96.9321 295.451 156.117 280.624 183.495 316.024L182.756 316.596Z" fill="#BEB8F2"/>
<path opacity="0.5" d="M175.306 299.93L174.397 300.13C168.314 272.413 188.135 242.444 188.34 242.134L189.095 242.636C188.913 242.954 169.311 272.606 175.306 299.93Z" fill="#BEB8F2"/>
<path opacity="0.5" d="M206.764 380.415C198.647 365.629 171.109 363.511 170.822 363.48L170.896 362.563C172.044 362.65 199.207 364.742 207.572 379.954L206.764 380.415Z" fill="#BEB8F2"/>
<path opacity="0.5" d="M203.545 367.357L202.65 367.587C199.318 354.652 211.568 333.009 215.59 325.901C216.155 324.903 216.648 324.028 216.714 323.854L217.596 324.116C217.527 324.365 217.187 324.935 216.407 326.338C212.424 333.374 200.302 354.778 203.545 367.357Z" fill="#BEB8F2"/>
</g>
<path d="M459.489 282.381C462.329 294.771 454.942 304.967 448.52 311.515C447.368 311.266 446.634 311.444 445.421 311.481C434.444 311.745 429.823 309.397 419.058 307.872C416.738 307.538 410.311 304.387 407.784 302.904L403.096 300.074C403.096 300.074 399.97 270.734 415.675 266.214C431.38 261.694 431.79 233.251 433.788 218.125C439.181 177.075 482.261 190.237 493.413 138.059C496.389 124.175 497.384 96.7008 511.506 88.2063C527.599 78.5093 534.756 92.995 545.622 84.3199C562.61 70.7728 585.718 69.5962 595.139 89.3647C604.447 108.865 581.716 138.768 537.18 157.099C506.739 173.875 504.904 180.461 503.468 197.187C502.462 208.895 507.059 240.968 488.981 249.467C470.863 257.977 456.237 268.216 459.489 282.381Z" fill="url(#paint2_linear)"/>
<g opacity="0.5">
<path opacity="0.5" d="M424.413 309.156L423.655 308.897C425.201 304.446 426.813 299.953 428.453 295.597C440.592 263.23 455.352 233.212 472.34 206.334C486.719 183.564 502.88 162.734 520.376 144.44C534.451 129.72 549.445 116.548 564.98 105.289C575.894 97.3804 586.955 90.4766 597.834 84.7864C599.726 83.7959 601.732 82.8865 603.655 82.0151C606.229 80.8366 608.883 79.638 611.335 78.2274L611.738 78.9137C609.26 80.3561 606.584 81.5686 603.993 82.7432C602.07 83.6147 600.081 84.5279 598.212 85.5045C587.354 91.1808 576.337 98.0567 565.449 105.933C549.957 117.165 534.988 130.305 520.957 144.997C503.505 163.263 487.374 184.043 473.023 206.764C456.084 233.595 441.349 263.582 429.225 295.878C427.564 300.248 425.959 304.705 424.413 309.156Z" fill="#FCFDFE"/>
<path opacity="0.5" d="M500.848 168.146L500.205 167.669C521.078 140.604 520.29 82.096 520.281 81.513L521.085 81.4995C521.113 82.0864 521.88 140.871 500.848 168.146Z" fill="#FCFDFE"/>
<path opacity="0.5" d="M449.707 249.003L449.022 248.593C460.828 228.637 505.055 220.9 505.488 220.808L505.625 221.584C505.192 221.676 461.334 229.363 449.707 249.003Z" fill="#FCFDFE"/>
<path opacity="0.5" d="M444.108 261.198L443.351 260.921C448.652 246.663 448.128 224.361 441.921 198.089C441.613 196.768 441.613 196.768 441.662 196.629L442.419 196.906L442.049 196.769L442.449 196.763C442.466 196.86 442.571 197.351 442.715 197.925C448.972 224.319 449.457 246.801 444.108 261.198Z" fill="#FCFDFE"/>
<path opacity="0.5" d="M427.372 301.543L426.738 301.069C436.809 287.795 461.739 287.118 462.002 287.12L462.024 287.907C461.761 287.906 437.21 288.572 427.372 301.543Z" fill="#FCFDFE"/>
<path opacity="0.5" d="M423.348 309.598C423.127 296.086 418.973 282.147 410.671 267.005L411.373 266.634C419.742 281.903 423.913 295.94 424.144 309.584L423.348 309.598Z" fill="#FCFDFE"/>
<path opacity="0.5" d="M556.589 112.33L555.981 111.805C568.336 97.4292 577.917 79.4368 581.06 73.5342C581.816 72.1083 582.092 71.6071 582.22 71.4479L582.854 71.9414C582.751 72.0687 582.334 72.8761 581.774 73.9143C578.606 79.8488 568.999 97.873 556.589 112.33Z" fill="#FCFDFE"/>
<path opacity="0.5" d="M533.054 132.815L532.631 132.149C547.641 122.767 582.45 130.738 583.937 131.08L583.757 131.838C583.398 131.76 547.78 123.613 533.054 132.815Z" fill="#FCFDFE"/>
</g>
<path d="M376.705 367.055L418.98 390.981C418.98 390.981 439.213 373.821 437.508 352.663C434.053 309.511 472.108 309.489 488.061 307.103C512.099 303.508 528.988 290.823 515.138 268.557C499.475 243.371 538.087 221.795 577.76 221.577C616.587 221.364 638.589 152.275 554.515 145.022C504.316 140.694 486.627 186.467 472.194 207.459C457.761 228.452 423.859 211.668 419.831 245.019C416.383 273.489 425.117 300.618 402.224 308.583C379.292 316.558 367.794 333.494 376.705 367.055Z" fill="url(#paint3_linear)"/>
<g opacity="0.5">
<path opacity="0.5" d="M395.782 388.41L396.688 388.525C396.754 387.965 403.936 331.341 427.987 277.366C450.143 227.639 491.572 170.043 563.113 178.026L563.212 177.105C531.37 173.549 502.74 182.471 478.13 203.623C458.461 220.511 441.313 245.202 427.146 277.004C403.047 331.11 395.848 387.833 395.782 388.41Z" fill="#BEB8F2"/>
<path opacity="0.5" d="M468.23 212.906L469.136 213.071C474.621 182.931 498.606 145.204 498.837 144.825L498.062 144.331C497.815 144.71 473.748 182.586 468.23 212.906Z" fill="#BEB8F2"/>
<path opacity="0.5" d="M485.016 199.26C520.366 190.108 545.24 207.606 545.487 207.787L546.031 207.046C545.784 206.865 520.581 189.121 484.785 198.388L485.016 199.26Z" fill="#BEB8F2"/>
<path opacity="0.5" d="M414.199 313.514C437.014 275.193 496.547 282.683 497.123 282.815L497.37 281.926C496.81 281.761 436.421 274.387 413.408 313.053L414.199 313.514Z" fill="#BEB8F2"/>
<path opacity="0.5" d="M419.421 295.884L420.343 295.967C423.144 267.654 400.032 240.33 399.802 240.05L399.11 240.643C399.324 240.922 422.188 267.967 419.421 295.884Z" fill="#BEB8F2"/>
<path opacity="0.5" d="M398.023 379.636C404.349 363.916 431.364 358.369 431.644 358.319L431.463 357.414C430.326 357.645 403.673 363.109 397.167 379.29L398.023 379.636Z" fill="#BEB8F2"/>
<path opacity="0.5" d="M399.538 366.204L400.444 366.319C402.24 353.052 387.596 333.052 382.769 326.468C382.094 325.546 381.501 324.74 381.418 324.575L380.578 324.954C380.677 325.184 381.072 325.727 382.011 327.011C386.805 333.53 401.284 353.299 399.538 366.204Z" fill="#BEB8F2"/>
</g>
<path d="M417.227 387.518C417.05 387.554 416.851 387.605 416.674 387.641C405.582 390.086 393.016 390.79 378.872 388.663C376.142 388.053 373.413 387.443 370.683 386.834C369.579 379.915 369.779 373.147 378.594 372.211C392.3 370.744 396.715 348.068 394.618 339.363C392.004 328.58 386.461 303.374 407.592 300.783C425.189 298.624 437.008 300.809 442.028 279.704C447.049 258.6 461.161 247.454 480.387 252.308C500.608 257.435 522.293 233.427 537.401 245.605C563.757 266.804 528.775 308.908 490.8 315.954C452.824 323 470.887 339.504 468.674 357.137C465.675 381.205 434.211 370.126 423.96 377.899C420.523 380.522 418.436 383.962 417.227 387.518Z" fill="url(#paint4_linear)"/>
<g opacity="0.5">
<path opacity="0.5" d="M396.099 389.544L395.177 389.175C421.728 323.087 480.606 270.461 548.831 251.825L549.104 252.762C481.162 271.311 422.535 323.73 396.099 389.544Z" fill="#FCFDFE"/>
<path opacity="0.5" d="M413.969 355.162L413.008 354.971C418.048 327.383 398.136 301.35 397.925 301.098L398.712 300.503C398.92 300.773 419.1 327.145 413.969 355.162Z" fill="#FCFDFE"/>
<path opacity="0.5" d="M401.351 377.794L400.578 377.179C418.405 355.226 470.114 361.473 470.643 361.551L470.534 362.513C470.023 362.439 418.846 356.252 401.351 377.794Z" fill="#FCFDFE"/>
<path opacity="0.5" d="M459.251 301.633L458.418 301.078C471.136 282.391 463.395 248.475 463.318 248.121L464.274 247.917C464.391 248.26 472.212 282.606 459.251 301.633Z" fill="#FCFDFE"/>
<path opacity="0.5" d="M495.931 274.782L495.579 273.874C519.612 264.886 551.754 278.442 552.08 278.587L551.705 279.467C551.379 279.322 519.581 265.915 495.931 274.782Z" fill="#FCFDFE"/>
</g>
<path d="M450.637 141.961L197.598 127.328C191.767 127.048 186.528 133.402 186.528 138.735V464.326C186.528 471.733 194.089 473.215 199.921 472.622L450.637 447.042C455.217 446.582 458.906 442.384 458.906 437.693V150.866C458.906 146.175 455.217 142.175 450.637 141.961Z" fill="url(#paint5_linear)"/>
<path d="M454.788 139.377L201.255 126.916C195.424 126.636 190.68 130.752 190.68 136.134V464.26C190.68 469.643 195.424 473.511 201.255 472.902L454.788 446.828C459.368 446.351 463.058 442.137 463.058 437.396V148.348C463.074 143.624 459.368 139.591 454.788 139.377Z" fill="#D8DEE8"/>
<path opacity="0.3" d="M201.255 468.458C198.109 468.77 195.556 466.68 195.556 463.783V136.348C195.556 133.451 198.125 131.213 201.255 131.361L454.788 143.328C457.259 143.443 459.269 145.632 459.269 148.183V437.775C459.269 440.343 457.259 442.631 454.788 442.878L201.255 468.458Z" fill="url(#paint6_linear)"/>
<path d="M438.447 435.108L221.599 455.997V153.895L438.447 162.06V435.108Z" fill="white"/>
<path opacity="0.3" d="M351.718 163.541L265.054 164.628L266.998 145.105C267.146 142.57 268.975 140.48 271.396 140.118L286.074 137.863C287.803 137.599 289.286 136.463 290.043 134.817L291.641 131.361L330.04 133.731L351.718 163.541Z" fill="#97A6B7"/>
<path d="M398.007 150.866C397.595 148.661 395.816 147.113 393.592 146.998L379.738 146.373C373.446 146.093 368.85 140.99 369.08 134.521L369.608 119.542C369.706 116.776 367.73 114.554 365.012 114.39L360.465 114.126C356.989 113.912 354.683 110.867 355.177 107.328C356.034 101.155 351.8 95.822 345.656 95.4105C339.479 94.9825 333.697 99.7067 332.774 105.962C332.643 106.884 332.33 107.805 331.819 108.628C330.386 110.916 327.882 112.184 325.427 112.036L320.733 111.756C317.883 111.591 315.181 113.583 314.473 116.381L310.569 131.591C308.889 138.159 302.514 142.916 295.76 142.62L280.572 141.945C278.085 141.829 275.647 143.278 274.494 145.55L265.335 163.706C264.577 165.187 265.516 166.8 267.147 166.85L398.88 171.228C400.329 171.277 401.548 169.845 401.285 168.413L398.007 150.866ZM343.778 108.381C341.966 108.266 340.698 106.686 340.961 104.859C341.225 103.032 342.905 101.633 344.734 101.748C346.546 101.863 347.798 103.443 347.534 105.27C347.27 107.114 345.59 108.497 343.778 108.381Z" fill="url(#paint7_linear)"/>
<path d="M398.781 151.278C398.369 149.072 396.59 147.525 394.366 147.41L380.512 146.784C374.22 146.504 369.624 141.402 369.854 134.933L370.381 119.953C370.48 117.188 368.504 114.966 365.786 114.801L361.239 114.538C357.763 114.324 355.457 111.279 355.951 107.74C356.808 101.567 352.574 96.2336 346.43 95.8221C340.253 95.3941 334.471 100.118 333.548 106.373C333.416 107.295 333.104 108.217 332.593 109.04C331.16 111.328 328.656 112.595 326.201 112.447L321.507 112.167C318.657 112.003 315.955 113.995 315.247 116.793L311.343 132.003C309.663 138.57 303.288 143.327 296.534 143.031L281.346 142.356C278.859 142.241 276.421 143.69 275.267 145.961L266.109 164.117C265.351 165.599 266.29 167.212 267.921 167.261L399.654 171.64C401.103 171.689 402.322 170.257 402.059 168.825L398.781 151.278ZM344.552 108.793C342.74 108.678 341.472 107.098 341.735 105.27C341.999 103.443 343.679 102.044 345.508 102.159C347.32 102.275 348.571 103.855 348.308 105.682C348.044 107.509 346.364 108.908 344.552 108.793Z" fill="#97A6B7"/>
<path opacity="0.5" d="M376.229 159.623C364.484 152.381 355.457 157.516 348.143 149.335C340.302 140.578 345.59 129.056 337.485 123.624C332.296 120.151 327.651 123.212 321.622 122.274C319.415 121.929 317.043 121.056 314.605 119.344L311.343 132.019C309.663 138.587 303.288 143.344 296.534 143.048L281.346 142.373C278.859 142.257 276.421 143.706 275.267 145.977L266.109 164.134C265.351 165.615 266.29 167.228 267.921 167.278L387.645 171.245C384.614 166.454 380.858 162.471 376.229 159.623Z" fill="white"/>
<path d="M417.297 201.071L249.357 200.051V190.092L417.297 191.475V201.071Z" fill="#D8DEE8"/>
<path d="M417.297 217.877L249.356 217.499V207.54L417.297 208.281V217.877Z" fill="#D8DEE8"/>
<path d="M417.297 234.684L249.356 234.947V224.988L417.297 225.087V234.684Z" fill="#D8DEE8"/>
<path d="M417.297 251.49L249.356 252.395V242.42L417.297 241.893V251.49Z" fill="#D8DEE8"/>
<path d="M388.898 279.177L246.853 282.601V272.214L388.898 269.448V279.177Z" fill="#D8DEE8"/>
<path d="M388.898 296.214L246.853 300.757V290.387L388.898 286.485V296.214Z" fill="#D8DEE8"/>
<path d="M388.898 313.234L246.853 318.929V308.559L388.898 303.506V313.234Z" fill="#D8DEE8"/>
<path d="M388.898 330.271L246.853 337.102V326.715L388.898 320.542V330.271Z" fill="#D8DEE8"/>
<path d="M417.296 278.485L398.616 278.946V269.251L417.296 268.889V278.485Z" fill="#D8DEE8"/>
<path d="M417.296 295.292L398.616 295.901V286.205L417.296 285.695V295.292Z" fill="#D8DEE8"/>
<path d="M417.296 312.098L398.616 312.855V303.16L417.296 302.501V312.098Z" fill="#D8DEE8"/>
<path d="M417.296 328.904L398.616 329.809V320.114L417.296 319.308V328.904Z" fill="#D8DEE8"/>
<path d="M388.898 357.908L246.853 366.583V356.213L388.898 348.18V357.908Z" fill="#D8DEE8"/>
<path d="M388.898 374.945L246.853 384.755V374.369L388.898 365.217V374.945Z" fill="#D8DEE8"/>
<path d="M388.898 391.981L246.853 402.928V392.541L388.898 382.253V391.981Z" fill="#D8DEE8"/>
<path d="M388.898 409.018L246.853 421.084V410.714L388.898 399.29V409.018Z" fill="#D8DEE8"/>
<path d="M417.296 356.18L398.616 357.315V347.636L417.296 346.583V356.18Z" fill="#D8DEE8"/>
<path d="M417.296 372.986L398.616 374.27V364.591L417.296 363.389V372.986Z" fill="#D8DEE8"/>
<path d="M417.296 389.792L398.616 391.224V381.545L417.296 380.196V389.792Z" fill="#D8DEE8"/>
<path d="M417.296 406.598L398.616 408.195V398.5L417.296 397.002V406.598Z" fill="#D8DEE8"/>
<path d="M510.153 279.128L154.324 270.189C134.589 269.696 118.248 284.56 118.248 303.39V374.797C118.248 393.628 134.606 407.948 154.324 406.78L510.153 385.858C521.947 385.167 531.353 373.134 531.353 358.962V305.3C531.353 291.144 521.947 279.424 510.153 279.128Z" fill="url(#paint8_linear)"/>
<path d="M514.04 279.128L158.211 270.189C138.476 269.696 122.135 284.56 122.135 303.39V374.797C122.135 393.628 138.493 407.948 158.211 406.78L514.04 385.875C525.835 385.183 535.241 373.151 535.241 358.978V305.3C535.241 291.144 525.835 279.424 514.04 279.128Z" fill="#97A6B7"/>
<path d="M158.21 402.335C141.161 403.29 127.027 390.862 127.027 374.616V303.423C127.027 287.177 141.161 274.272 158.21 274.65L514.04 282.617C524.253 282.848 532.456 293.02 532.456 305.3V359.093C532.456 371.373 524.269 381.825 514.04 382.401L158.21 402.335Z" fill="url(#paint9_linear)"/>
<path d="M205.57 302.37L215.717 322.435C216.096 323.176 216.804 323.686 217.645 323.802L239.8 326.781C241.843 327.061 242.65 329.53 241.184 330.979L225.239 346.666C224.645 347.258 224.365 348.081 224.514 348.888L228.302 370.616C228.648 372.64 226.49 374.27 224.629 373.381L204.45 363.735C203.692 363.373 202.786 363.406 202.028 363.817L181.256 375.109C179.296 376.179 176.99 374.665 177.368 372.558L181.404 349.941C181.553 349.102 181.273 348.262 180.63 347.686L163.4 331.966C161.769 330.485 162.675 327.851 164.915 327.522L188.57 324.016C189.427 323.884 190.184 323.357 190.563 322.6L200.892 302.337C201.864 300.461 204.615 300.493 205.57 302.37Z" fill="#D8DEE8"/>
<path d="M286.666 302.814L295.792 321.843C296.121 322.551 296.78 323.028 297.521 323.127L317.486 325.958C319.315 326.221 320.056 328.575 318.722 329.942L304.358 344.822C303.814 345.382 303.567 346.172 303.699 346.929L307.125 367.554C307.438 369.48 305.494 371.027 303.814 370.171L285.645 360.97C284.969 360.624 284.145 360.657 283.47 361.036L264.79 371.719C263.027 372.723 260.952 371.291 261.298 369.282L264.922 347.851C265.053 347.061 264.79 346.254 264.23 345.711L248.762 330.814C247.296 329.415 248.103 326.913 250.129 326.6L271.379 323.291C272.153 323.176 272.829 322.666 273.175 321.958L282.465 302.732C283.322 301.02 285.809 301.037 286.666 302.814Z" fill="url(#paint10_linear)"/>
<path d="M359.854 303.226L368.124 321.332C368.42 322.007 369.013 322.452 369.688 322.567L387.776 325.283C389.439 325.53 390.098 327.769 388.896 329.085L375.866 343.242C375.372 343.768 375.157 344.525 375.273 345.25L378.37 364.887C378.666 366.714 376.887 368.196 375.372 367.373L358.915 358.599C358.306 358.27 357.564 358.287 356.938 358.665L340.054 368.788C338.456 369.743 336.595 368.377 336.891 366.467L340.169 346.089C340.284 345.332 340.054 344.575 339.543 344.065L325.574 329.892C324.256 328.559 324.981 326.188 326.81 325.892L346.017 322.748C346.725 322.633 347.318 322.155 347.631 321.481L356.032 303.209C356.823 301.514 359.08 301.514 359.854 303.226Z" fill="url(#paint11_linear)"/>
<path d="M426.223 303.588L433.735 320.855C434.015 321.497 434.542 321.925 435.168 322.024L451.641 324.625C453.156 324.872 453.766 327.011 452.662 328.246L440.802 341.744C440.357 342.254 440.159 342.962 440.258 343.653L443.075 362.385C443.339 364.13 441.724 365.529 440.357 364.756L425.4 356.361C424.84 356.048 424.164 356.064 423.604 356.427L408.268 366.04C406.818 366.945 405.122 365.644 405.402 363.834L408.367 344.427C408.482 343.702 408.268 342.978 407.807 342.484L395.139 328.987C393.937 327.719 394.612 325.464 396.259 325.184L413.688 322.205C414.33 322.09 414.874 321.645 415.154 320.987L422.797 303.572C423.472 301.958 425.515 301.975 426.223 303.588Z" fill="url(#paint12_linear)"/>
<path d="M486.695 303.917L493.564 320.427C493.811 321.036 494.305 321.448 494.865 321.547L509.922 324.032C511.305 324.263 511.865 326.304 510.861 327.505L500.021 340.394C499.61 340.871 499.428 341.563 499.527 342.221L502.113 360.13C502.361 361.793 500.878 363.143 499.626 362.402L485.954 354.353C485.443 354.056 484.833 354.073 484.323 354.402L470.321 363.571C469.003 364.443 467.455 363.192 467.702 361.447L470.403 342.929C470.502 342.238 470.304 341.546 469.893 341.085L458.345 328.18C457.258 326.962 457.851 324.822 459.366 324.543L475.263 321.711C475.839 321.613 476.35 321.168 476.614 320.559L483.582 303.917C484.191 302.354 486.052 302.37 486.695 303.917Z" fill="#D8DEE8"/>
<g opacity="0.1">
<path opacity="0.1" d="M464.557 338.386C420.393 327.11 390.297 387.142 337.387 375.06C290.637 364.394 289.319 314.255 232.669 278.634C228.748 276.165 224.729 273.877 220.66 271.753L158.228 270.189C138.494 269.696 122.153 284.56 122.153 303.39V374.797C122.153 393.628 138.51 407.948 158.228 406.78L511.801 385.99C495.822 353.513 478.839 342.04 464.557 338.386Z" fill="#97A6B7"/>
</g>
<path d="M205.57 302.37L215.717 322.435C216.096 323.176 216.804 323.686 217.645 323.802L239.8 326.781C241.843 327.061 242.65 329.53 241.184 330.979L225.239 346.666C224.645 347.258 224.365 348.081 224.514 348.888L228.302 370.616C228.648 372.64 226.49 374.27 224.629 373.381L204.45 363.735C203.692 363.373 202.786 363.406 202.028 363.817L181.256 375.109C179.296 376.179 176.99 374.665 177.368 372.558L181.404 349.941C181.553 349.102 181.273 348.262 180.63 347.686L163.4 331.966C161.769 330.485 162.675 327.851 164.915 327.522L188.57 324.016C189.427 323.884 190.184 323.357 190.563 322.6L200.892 302.337C201.864 300.461 204.615 300.493 205.57 302.37Z" fill="url(#paint13_linear)"/>
<path d="M394.91 276.313C395.503 275.391 396.591 273.432 396.656 270.799C396.788 265.679 393 261.696 392.489 261.926C392.209 262.041 392.555 263.556 392.752 264.214C393.164 265.597 393.593 265.729 393.56 266.371C393.477 267.671 391.599 267.72 390.595 269.465C389.87 270.716 389.82 272.494 390.595 273.91C391.896 276.231 394.795 276.313 394.91 276.313Z" fill="url(#paint14_linear)"/>
<path d="M476.006 387.406L474.557 382.385L480.652 377.875L484.44 376.459L482.2 383.471L476.006 387.406Z" fill="url(#paint15_linear)"/>
<path d="M468.478 488.457C468.478 488.457 471.805 496.836 470.932 500.556C474.507 500.49 476.829 500.029 476.829 500.029C476.829 500.029 475.396 496.21 475.116 494.317C474.737 491.766 474.77 487.618 474.77 487.618L468.478 488.457Z" fill="url(#paint16_linear)"/>
<path d="M431.743 508.045C431.957 508.309 432.336 508.852 432.369 509.576C432.386 509.971 432.303 510.3 432.188 510.613C431.628 512.111 430.722 512.309 429.766 513.889C429.173 514.86 429.289 515.156 428.745 515.584C428.037 516.16 427.18 516.193 426.423 516.21C425.171 516.226 423.359 516.177 421.069 515.914C422.271 514.366 423.54 512.803 424.891 511.222C425.484 510.531 426.077 509.856 426.67 509.198L430.178 508.012C430.705 508.012 431.216 508.029 431.743 508.045Z" fill="#26264F"/>
<path d="M428.811 490.992C428.811 490.992 426.801 501.477 429.355 504.407C431.529 507.337 428.3 505.247 428.3 505.247L424.446 508.605L422.123 512.605C422.123 512.605 424.248 502.35 423.688 498.284C423.128 494.218 422.831 491.469 422.831 491.469L428.811 490.992Z" fill="url(#paint17_linear)"/>
<path d="M421.233 376.361C421.233 376.361 415.83 381.184 415.83 401.068C415.83 420.936 418.383 464.096 418.383 464.096L422.469 494.992C422.469 494.992 426.719 495.14 429.552 494.284C432.105 482.647 436.273 462.943 434.28 446.483C433.423 428.59 441.379 406.171 441.379 406.171C441.379 406.171 448.199 428.886 453.026 440.244C457.852 451.602 467.061 487.19 467.901 489.741C473.551 490.252 475.972 488.754 475.972 488.754C475.972 488.754 472.348 450.466 468.938 435.981C465.529 421.496 465.809 386.583 460.125 376.64C447.376 371.538 421.233 376.361 421.233 376.361Z" fill="url(#paint18_linear)"/>
<path d="M421.233 376.361C421.233 376.361 415.83 381.184 415.83 401.068C415.83 420.936 418.383 464.096 418.383 464.096L422.469 494.992C422.469 494.992 426.719 495.14 429.552 494.284C432.105 482.647 436.273 462.943 434.28 446.483C433.423 428.59 441.379 406.171 441.379 406.171C441.379 406.171 448.199 428.886 453.026 440.244C457.852 451.602 467.061 487.19 467.901 489.741C473.551 490.252 475.972 488.754 475.972 488.754C475.972 488.754 472.348 450.466 468.938 435.981C465.529 421.496 465.809 386.583 460.125 376.64C447.376 371.538 421.233 376.361 421.233 376.361Z" fill="url(#paint19_linear)"/>
<path opacity="0.25" d="M449.287 412.788C450.968 423.718 454.345 429.611 462.762 437.182C469.5 442.236 464.443 453.166 466.979 461.577C467.819 464.096 470.34 466.63 471.18 469.149C474.31 475.404 471.394 483.058 472.811 489.692C475.018 489.379 476.023 488.77 476.023 488.77C476.023 488.77 472.399 450.483 468.989 435.997C465.579 421.512 465.859 386.599 460.176 376.657C447.393 371.554 421.251 376.377 421.251 376.377C421.251 376.377 415.848 381.2 415.848 401.084C415.848 402.697 415.864 404.459 415.897 406.352C421.498 411.306 432.963 412.409 440.03 406.911C440.458 406.599 440.919 406.401 441.381 406.302C441.397 406.237 441.414 406.204 441.414 406.204C441.414 406.204 441.43 406.237 441.446 406.302C444.659 405.693 448.563 409.874 449.287 412.788Z" fill="url(#paint20_linear)"/>
<path d="M470.043 503.716C470.043 503.716 469.219 503.716 469.285 504.786C469.351 505.856 468.906 509.543 473.14 509.724C477.357 509.889 478.016 509.428 478.147 509.428C478.279 509.428 477.044 505.905 477.044 505.905L475.693 504.177L472.052 503.798L470.043 503.716Z" fill="#26264F"/>
<path d="M479.416 507.42C479.333 506.531 478.823 505.132 478.328 503.996C477.587 502.317 478.197 501.691 477.488 500.16C477.241 499.634 477.011 499.14 476.483 498.63C476.368 498.514 475.199 497.444 473.502 497.494C473.172 497.51 472.662 497.527 472.102 497.823C471.443 498.169 471.113 498.695 470.833 499.156C470.389 499.881 470.487 500.095 469.812 502.169C469.763 502.333 469.631 502.695 469.548 503.189C469.483 503.568 469.45 503.897 469.433 504.111C470.537 504.111 474.803 504.292 475.693 504.934C476.599 505.592 477.044 506.695 477.044 507.798C477.044 508.901 477.604 509.428 478.147 509.395C478.641 509.395 479.63 508.49 479.416 507.42Z" fill="#444B8C"/>
<path d="M428.284 502.926C429.239 502.942 429.931 503.7 430.458 505.527C430.985 507.354 433.506 508.967 430.557 508.572C427.608 508.193 425.467 512.358 424.413 513.905C423.359 515.452 420.542 516.819 420.608 515.304C420.673 513.79 421.925 513.099 422.271 511.551C422.634 510.004 426.109 502.893 428.284 502.926Z" fill="#444B8C"/>
<path d="M478.246 378.764C478.938 376.821 483.303 364.064 476.253 352.427C470.487 342.896 460.488 339.801 459.072 339.373C450.407 336.822 446.058 340.098 443.324 337.069C438.678 331.933 443.933 314.452 454.113 310.946C465.578 306.995 479.333 322.172 484.917 332.147C492.231 345.233 490.436 358.237 490.008 360.904C488.904 367.867 486.351 373.167 484.456 376.426C482.381 377.216 480.305 377.99 478.246 378.764Z" fill="url(#paint21_linear)"/>
<path d="M448.298 308.493C438.069 308.082 430.178 308.246 425.714 312.691C421.003 317.398 425.764 322.699 424.742 335.011C423.177 353.842 411.169 358.451 410.263 377.546C409.966 383.982 411.053 389.249 411.894 392.409C414.529 395.685 418.845 400.311 425.204 404.195C434.461 409.825 439.848 408.854 453.142 412.491C474.902 418.45 476.846 425.528 487.636 423.734C498.541 421.907 508.111 412.738 506.958 407.701C506.266 404.689 501.868 405.545 496.811 400.936C490.288 395.01 492.808 389.348 487.85 382.978C480.717 373.825 470.8 379.422 464.722 371.488C458.578 363.472 461.016 347.653 466.188 339.028C469.565 333.398 471.015 326.797 473.897 320.905C474.144 320.411 474.408 319.604 474.293 318.6C473.831 314.748 467.407 312.674 462.564 311.143C455.151 308.806 449.139 308.526 448.298 308.493Z" fill="url(#paint22_linear)"/>
<path d="M439.683 308.065L441.709 307.44C441.709 307.44 442.236 310.172 448.727 310.518C452.334 310.518 454.657 308.493 454.657 308.493L456.041 309.497C456.041 309.497 453.01 313.267 448.2 313.184C441.973 313.069 439.683 308.065 439.683 308.065Z" fill="url(#paint23_linear)"/>
<path d="M443.785 299.753C444.18 296.757 446.552 294.831 447.063 294.419C449.237 292.691 449.665 292.526 450.423 292.378L451.444 292.23C451.444 292.23 451.494 292.23 451.56 292.23C452.153 292.263 453.932 292.954 454.261 293.185C455.299 293.909 454.541 299.078 451.395 305.481C451.263 306.024 451.148 306.567 451.016 307.11C453.751 307.588 454.426 308.082 454.459 308.477C454.508 309.333 451.51 310.419 448.726 310.485C445.234 310.567 441.544 309.069 441.61 307.95C441.643 307.505 442.302 306.946 444.822 306.386C445.218 305.826 445.613 305.283 446.008 304.724C445.663 304.329 443.505 301.975 443.785 299.753Z" fill="url(#paint24_linear)"/>
<path d="M448.1 298.633C448.891 298.156 449.5 299.176 449.121 300.065C448.743 300.954 447.491 301.514 446.733 300.987C445.975 300.444 447.029 299.259 448.1 298.633Z" fill="url(#paint25_linear)"/>
<path d="M550.528 298.617C540.134 287.341 515.919 290.436 502.494 299.489C496.25 303.703 493.055 308.674 485.691 309.086C480.091 309.399 471.179 307.292 466.484 301.234C465.891 300.477 463.535 297.267 459.977 293.218C458.412 291.44 456.847 289.761 454.442 289.382C453.833 289.284 451.79 288.954 450.44 290.271C449.352 291.341 449.072 293.185 449.402 294.535C449.599 295.341 449.847 295.423 449.814 295.934C449.715 297.399 447.03 298.041 447.178 298.781C447.277 299.308 448.677 299.111 448.924 299.786C449.188 300.51 447.656 301.135 446.997 302.962C445.761 303.785 444.987 305.843 444.707 308.592C444.312 312.625 444.724 315.917 445.481 318.386C449.171 330.287 451.807 338.797 458.182 343.538C466.632 349.826 474.243 344.015 495.723 343.11C525.16 341.859 532.491 351.818 543.066 345.003C556.277 336.493 561.318 310.32 550.528 298.617Z" fill="url(#paint26_linear)"/>
<path d="M396.162 275.589C395.898 278.041 395.009 288.938 402.52 298.123C409.538 306.716 419.487 308.428 421.332 308.707C430.277 310.057 434.132 306.205 437.245 308.823C442.549 313.267 439.733 331.308 430.129 336.18C419.306 341.662 403.608 328.493 396.722 319.374C387.695 307.407 387.695 294.288 387.744 291.572C387.876 284.527 389.688 278.914 391.121 275.44C391.714 275.259 392.604 275.062 393.708 275.111C394.762 275.144 395.602 275.391 396.162 275.589Z" fill="url(#paint27_linear)"/>
<path opacity="0.25" d="M487.982 416.524C485.362 413.841 488.245 408.442 484.374 404.409C480.783 400.673 476.731 403.685 470.949 400.475C463.536 396.36 465.579 388.821 458.512 384.772C453.422 381.858 451.033 384.986 443.126 383.455C435.236 381.924 425.615 376.492 420.855 366.764C418.829 362.632 418.087 358.534 417.989 354.846C414.43 361.184 410.757 367.258 410.263 377.513C409.966 383.949 411.053 389.216 411.894 392.377C414.529 395.652 418.845 400.294 425.204 404.162C434.461 409.792 439.848 408.821 453.142 412.459C474.902 418.417 476.846 425.495 487.636 423.701C494.604 422.533 501.012 418.368 504.438 414.203C494.406 418.697 489.876 418.467 487.982 416.524Z" fill="url(#paint28_linear)"/>
<path d="M235.04 183.623H237.429L283.783 216.462C276.634 226.059 272.45 237.285 272.45 250.47L211.336 249.564C211.336 224.445 220.149 202.158 235.04 183.623Z" fill="url(#paint29_linear)"/>
<path d="M317.058 193.598C306.104 196.874 297.934 203.54 290.405 211.343C290.34 211.409 290.307 211.573 290.224 211.573C288.346 211.623 289.005 211.672 287.836 211.573L287.737 211.507L239.323 178.817C255.038 161.681 276.189 148.973 300.026 143.591H302.414L317.058 193.598Z" fill="url(#paint30_linear)"/>
<path d="M375.735 147.969L362.227 194.306C356.247 192.314 349.625 190.586 342.937 190.257C336.974 189.96 329.133 191.343 323.565 192.446L306.483 142.109C317.52 140.052 329.034 139.393 340.779 140.332C353.117 141.303 364.846 143.936 375.735 147.969Z" fill="url(#paint31_linear)"/>
<path d="M431.478 189.005L392.652 213.993L393.014 215.326H390.626C384.168 207.557 375.668 200.939 365.801 196.61L381.615 150.307C383.262 150.224 382.505 150.307 384.004 150.307C384.053 150.307 384.086 150.34 384.119 150.356C403.573 159.031 419.519 173.055 431.478 189.005Z" fill="url(#paint32_linear)"/>
<path d="M453.223 253.037L404.052 252.346C404.052 240.116 400.444 229.532 394.217 220.166L434.889 193.862C437.277 193.862 436.948 193.779 437.277 193.862C437.689 193.96 435.893 195.392 436.124 195.755C446.98 212.594 453.223 232.017 453.223 253.037Z" fill="url(#paint33_linear)"/>
<path d="M333.317 233.696L398.418 186.767L352.179 250.009L333.317 233.696Z" fill="url(#paint34_linear)"/>
<path d="M357.828 245.465C357.828 254.157 350.235 261.136 340.779 261.054C331.208 260.971 323.384 253.712 323.384 244.856C323.384 235.984 331.225 229.005 340.779 229.268C350.235 229.532 357.828 236.774 357.828 245.465Z" fill="url(#paint35_linear)"/>
<path d="M340.779 254.815C334.981 254.749 330.253 250.321 330.253 244.972C330.253 239.622 334.997 235.359 340.779 235.507C346.528 235.639 351.19 240.05 351.19 245.35C351.173 250.634 346.528 254.898 340.779 254.815ZM340.779 237.383C336.117 237.285 332.312 240.692 332.312 245.005C332.312 249.317 336.117 252.873 340.779 252.922C345.408 252.988 349.164 249.564 349.164 245.301C349.164 241.054 345.408 237.499 340.779 237.383Z" fill="url(#paint36_linear)"/>
<path d="M237.428 183.771L286.172 216.544C279.022 226.141 274.838 237.317 274.838 250.519L213.724 249.663C213.724 224.544 222.554 202.042 237.428 183.771Z" fill="url(#paint37_linear)"/>
<path d="M319.463 193.549C308.015 196.972 297.933 203.227 290.24 211.556L241.711 178.75C257.426 161.615 278.578 149.22 302.414 143.475L319.463 193.549Z" fill="url(#paint38_linear)"/>
<path d="M378.139 147.969L362.243 194.306C356.263 192.314 349.856 191.08 343.184 190.75C337.221 190.454 331.39 190.898 325.805 192.001L308.888 142.126C319.924 140.068 331.439 139.41 343.184 140.348C355.506 141.303 367.234 143.936 378.139 147.969Z" fill="url(#paint39_linear)"/>
<path d="M433.883 189.006L393.031 215.277C386.573 207.376 378.073 200.907 368.206 196.594L384.02 150.307C404.331 158.948 421.496 172.496 433.883 189.006Z" fill="url(#paint40_linear)"/>
<path d="M455.611 253.037L406.44 252.346C406.44 240.116 402.832 229.531 396.605 220.165L437.277 193.861C448.907 211.129 455.611 231.227 455.611 253.037Z" fill="url(#paint41_linear)"/>
<path d="M335.705 233.696L400.822 186.767L354.583 250.009L335.705 233.696Z" fill="url(#paint42_linear)"/>
<path d="M360.233 245.465C360.233 254.157 352.639 261.136 343.184 261.054C333.613 260.971 325.789 253.712 325.789 244.856C325.789 235.984 333.63 229.005 343.184 229.268C352.639 229.532 360.233 236.774 360.233 245.465Z" fill="url(#paint43_linear)"/>
<path d="M343.167 254.815C337.369 254.749 332.641 250.321 332.641 244.972C332.641 239.622 337.385 235.359 343.167 235.507C348.916 235.638 353.578 240.05 353.578 245.35C353.578 250.634 348.916 254.897 343.167 254.815ZM343.167 237.383C338.505 237.284 334.7 240.692 334.7 245.004C334.7 249.317 338.505 252.873 343.167 252.922C347.796 252.988 351.552 249.564 351.552 245.301C351.552 241.054 347.796 237.498 343.167 237.383Z" fill="#D8DEE8"/>
<defs>
<linearGradient id="paint0_linear" x1="55.1142" y1="239.65" x2="208.228" y2="327.437" gradientUnits="userSpaceOnUse">
<stop stop-color="#FF9085"/>
<stop offset="1" stop-color="#FB6FBB"/>
</linearGradient>
<linearGradient id="paint1_linear" x1="50.8441" y1="178.409" x2="230.842" y2="367.262" gradientUnits="userSpaceOnUse">
<stop stop-color="#FFC444"/>
<stop offset="0.9964" stop-color="#F36F56"/>
</linearGradient>
<linearGradient id="paint2_linear" x1="577.161" y1="69.1187" x2="375.605" y2="340.292" gradientUnits="userSpaceOnUse">
<stop stop-color="#AA80F9"/>
<stop offset="0.9964" stop-color="#6165D7"/>
</linearGradient>
<linearGradient id="paint3_linear" x1="590.783" y1="163.571" x2="371.365" y2="355.074" gradientUnits="userSpaceOnUse">
<stop offset="0.00359712" stop-color="#E38DDD"/>
<stop offset="1" stop-color="#9571F6"/>
</linearGradient>
<linearGradient id="paint4_linear" x1="509.473" y1="249.947" x2="378.003" y2="395.995" gradientUnits="userSpaceOnUse">
<stop stop-color="#FFC444"/>
<stop offset="0.9964" stop-color="#F36F56"/>
</linearGradient>
<linearGradient id="paint5_linear" x1="186.52" y1="300.03" x2="458.908" y2="300.03" gradientUnits="userSpaceOnUse">
<stop stop-color="#444B8C"/>
<stop offset="0.9964" stop-color="#26264F"/>
</linearGradient>
<linearGradient id="paint6_linear" x1="195.549" y1="299.92" x2="459.278" y2="299.92" gradientUnits="userSpaceOnUse">
<stop offset="0.00359712" stop-color="#E38DDD"/>
<stop offset="1" stop-color="#9571F6"/>
</linearGradient>
<linearGradient id="paint7_linear" x1="265.053" y1="133.313" x2="401.298" y2="133.313" gradientUnits="userSpaceOnUse">
<stop stop-color="#444B8C"/>
<stop offset="0.9964" stop-color="#26264F"/>
</linearGradient>
<linearGradient id="paint8_linear" x1="118.239" y1="338.52" x2="531.35" y2="338.52" gradientUnits="userSpaceOnUse">
<stop stop-color="#444B8C"/>
<stop offset="0.9964" stop-color="#26264F"/>
</linearGradient>
<linearGradient id="paint9_linear" x1="218.801" y1="499.37" x2="397.525" y2="227.965" gradientUnits="userSpaceOnUse">
<stop offset="0.00359712" stop-color="#EBEFF2"/>
<stop offset="1" stop-color="white"/>
</linearGradient>
<linearGradient id="paint10_linear" x1="339.976" y1="284.958" x2="237.898" y2="389.18" gradientUnits="userSpaceOnUse">
<stop stop-color="#FFC444"/>
<stop offset="0.9964" stop-color="#F36F56"/>
</linearGradient>
<linearGradient id="paint11_linear" x1="376.904" y1="321.008" x2="277.026" y2="422.983" gradientUnits="userSpaceOnUse">
<stop stop-color="#FFC444"/>
<stop offset="0.9964" stop-color="#F36F56"/>
</linearGradient>
<linearGradient id="paint12_linear" x1="428.617" y1="328.714" x2="325.207" y2="501.59" gradientUnits="userSpaceOnUse">
<stop stop-color="#FFC444"/>
<stop offset="0.9964" stop-color="#F36F56"/>
</linearGradient>
<linearGradient id="paint13_linear" x1="213.837" y1="296.16" x2="148.932" y2="488.553" gradientUnits="userSpaceOnUse">
<stop stop-color="#FFC444"/>
<stop offset="0.9964" stop-color="#F36F56"/>
</linearGradient>
<linearGradient id="paint14_linear" x1="395.224" y1="266.644" x2="389.372" y2="276.118" gradientUnits="userSpaceOnUse">
<stop stop-color="#FFC444"/>
<stop offset="0.9964" stop-color="#F36F56"/>
</linearGradient>
<linearGradient id="paint15_linear" x1="478.667" y1="378.722" x2="481.03" y2="383.584" gradientUnits="userSpaceOnUse">
<stop stop-color="#FFC444"/>
<stop offset="0.9964" stop-color="#F36F56"/>
</linearGradient>
<linearGradient id="paint16_linear" x1="472.644" y1="502.507" x2="472.644" y2="487.258" gradientUnits="userSpaceOnUse">
<stop stop-color="#FFC444"/>
<stop offset="0.9964" stop-color="#F36F56"/>
</linearGradient>
<linearGradient id="paint17_linear" x1="426.129" y1="506.853" x2="426.129" y2="488.475" gradientUnits="userSpaceOnUse">
<stop stop-color="#FFC444"/>
<stop offset="0.9964" stop-color="#F36F56"/>
</linearGradient>
<linearGradient id="paint18_linear" x1="415.839" y1="434.661" x2="476.011" y2="434.661" gradientUnits="userSpaceOnUse">
<stop stop-color="#311944"/>
<stop offset="1" stop-color="#893976"/>
</linearGradient>
<linearGradient id="paint19_linear" x1="413.927" y1="389.84" x2="457.23" y2="462.626" gradientUnits="userSpaceOnUse">
<stop stop-color="#311944"/>
<stop offset="1" stop-color="#893976"/>
</linearGradient>
<linearGradient id="paint20_linear" x1="430.994" y1="379.687" x2="474.297" y2="452.473" gradientUnits="userSpaceOnUse">
<stop stop-color="#311944"/>
<stop offset="1" stop-color="#893976"/>
</linearGradient>
<linearGradient id="paint21_linear" x1="464.393" y1="334.948" x2="431.863" y2="235.213" gradientUnits="userSpaceOnUse">
<stop stop-color="#FF9085"/>
<stop offset="1" stop-color="#FB6FBB"/>
</linearGradient>
<linearGradient id="paint22_linear" x1="421.888" y1="311.688" x2="468.329" y2="407.258" gradientUnits="userSpaceOnUse">
<stop stop-color="#FF9085"/>
<stop offset="1" stop-color="#FB6FBB"/>
</linearGradient>
<linearGradient id="paint23_linear" x1="442.138" y1="299.734" x2="451.014" y2="313.853" gradientUnits="userSpaceOnUse">
<stop offset="0.00359712" stop-color="#E38DDD"/>
<stop offset="1" stop-color="#9571F6"/>
</linearGradient>
<linearGradient id="paint24_linear" x1="452.865" y1="297.569" x2="443.11" y2="313.36" gradientUnits="userSpaceOnUse">
<stop stop-color="#FFC444"/>
<stop offset="0.9964" stop-color="#F36F56"/>
</linearGradient>
<linearGradient id="paint25_linear" x1="449.366" y1="295.431" x2="443.8" y2="312.506" gradientUnits="userSpaceOnUse">
<stop stop-color="#FFC444"/>
<stop offset="0.9964" stop-color="#F36F56"/>
</linearGradient>
<linearGradient id="paint26_linear" x1="446.506" y1="230.146" x2="528.26" y2="360.186" gradientUnits="userSpaceOnUse">
<stop stop-color="#444B8C"/>
<stop offset="0.9964" stop-color="#26264F"/>
</linearGradient>
<linearGradient id="paint27_linear" x1="416.713" y1="313.916" x2="462.39" y2="407.911" gradientUnits="userSpaceOnUse">
<stop stop-color="#FF9085"/>
<stop offset="1" stop-color="#FB6FBB"/>
</linearGradient>
<linearGradient id="paint28_linear" x1="415.173" y1="314.952" x2="461.614" y2="410.521" gradientUnits="userSpaceOnUse">
<stop stop-color="#FF9085"/>
<stop offset="1" stop-color="#FB6FBB"/>
</linearGradient>
<linearGradient id="paint29_linear" x1="246.305" y1="231.292" x2="159.445" y2="568.61" gradientUnits="userSpaceOnUse">
<stop stop-color="#311944"/>
<stop offset="1" stop-color="#893976"/>
</linearGradient>
<linearGradient id="paint30_linear" x1="282.302" y1="76.2234" x2="276.802" y2="223.605" gradientUnits="userSpaceOnUse">
<stop stop-color="#311944"/>
<stop offset="1" stop-color="#893976"/>
</linearGradient>
<linearGradient id="paint31_linear" x1="338.134" y1="193.047" x2="319.121" y2="499.856" gradientUnits="userSpaceOnUse">
<stop stop-color="#311944"/>
<stop offset="1" stop-color="#893976"/>
</linearGradient>
<linearGradient id="paint32_linear" x1="384.134" y1="186.818" x2="640.827" y2="-9.93007" gradientUnits="userSpaceOnUse">
<stop stop-color="#311944"/>
<stop offset="1" stop-color="#893976"/>
</linearGradient>
<linearGradient id="paint33_linear" x1="485.268" y1="4.64103" x2="405.222" y2="306.753" gradientUnits="userSpaceOnUse">
<stop stop-color="#311944"/>
<stop offset="1" stop-color="#893976"/>
</linearGradient>
<linearGradient id="paint34_linear" x1="359.825" y1="204.717" x2="378.217" y2="221.539" gradientUnits="userSpaceOnUse">
<stop stop-color="#311944"/>
<stop offset="1" stop-color="#893976"/>
</linearGradient>
<linearGradient id="paint35_linear" x1="323.374" y1="245.161" x2="357.833" y2="245.161" gradientUnits="userSpaceOnUse">
<stop stop-color="#311944"/>
<stop offset="1" stop-color="#893976"/>
</linearGradient>
<linearGradient id="paint36_linear" x1="330.244" y1="245.163" x2="351.182" y2="245.163" gradientUnits="userSpaceOnUse">
<stop stop-color="#311944"/>
<stop offset="1" stop-color="#893976"/>
</linearGradient>
<linearGradient id="paint37_linear" x1="248.63" y1="231.612" x2="162.569" y2="565.827" gradientUnits="userSpaceOnUse">
<stop stop-color="#AB316D"/>
<stop offset="1" stop-color="#792D3D"/>
</linearGradient>
<linearGradient id="paint38_linear" x1="284.692" y1="76.2899" x2="279.196" y2="223.558" gradientUnits="userSpaceOnUse">
<stop stop-color="#FFC444"/>
<stop offset="0.5407" stop-color="#F8964E"/>
<stop offset="0.9964" stop-color="#F36F56"/>
</linearGradient>
<linearGradient id="paint39_linear" x1="340.551" y1="192.665" x2="321.676" y2="497.255" gradientUnits="userSpaceOnUse">
<stop stop-color="#FFC444"/>
<stop offset="0.9964" stop-color="#F36F56"/>
</linearGradient>
<linearGradient id="paint40_linear" x1="386.531" y1="186.811" x2="643.163" y2="-9.89136" gradientUnits="userSpaceOnUse">
<stop offset="0.00359712" stop-color="#E38DDD"/>
<stop offset="1" stop-color="#9571F6"/>
</linearGradient>
<linearGradient id="paint41_linear" x1="487.033" y1="7.01185" x2="407.741" y2="306.276" gradientUnits="userSpaceOnUse">
<stop offset="0.00359712" stop-color="#E38DDD"/>
<stop offset="1" stop-color="#9571F6"/>
</linearGradient>
<linearGradient id="paint42_linear" x1="362.217" y1="204.717" x2="380.609" y2="221.539" gradientUnits="userSpaceOnUse">
<stop stop-color="#444B8C"/>
<stop offset="0.9964" stop-color="#26264F"/>
</linearGradient>
<linearGradient id="paint43_linear" x1="325.767" y1="245.161" x2="360.227" y2="245.161" gradientUnits="userSpaceOnUse">
<stop stop-color="#444B8C"/>
<stop offset="0.9964" stop-color="#26264F"/>
</linearGradient>
</defs>
</svg>
