<svg width="394" height="345" viewBox="0 0 394 345" fill="none" xmlns="http://www.w3.org/2000/svg">
<path d="M278.102 277.585C281.54 283.144 279.069 288.941 276.584 292.865C275.925 292.89 275.549 293.066 274.904 293.229C268.981 294.726 266.119 294.185 260.034 294.801C258.731 294.94 254.755 294.235 253.156 293.846L250.188 293.078C250.188 293.078 244.008 279.459 251.853 275.347C259.698 271.222 255.574 257.602 254.352 250.132C253.6 245.542 254.822 243.215 254.835 241.493C254.97 223.207 248.791 218.102 252.74 212.178C257.092 205.639 265.864 210.003 270.995 203.124C276.799 195.365 269.504 184.587 276.758 178.387C277.994 177.318 279.311 176.262 281.42 175.57C286.645 173.86 291.118 176.539 294.678 172.263C301.838 163.674 314.21 160.215 322.337 168.465C330.356 176.614 322.578 193.73 301.193 208.054C287.223 219.875 287.236 223.245 288.996 231.407C290.232 237.129 297.62 251.855 289.09 258.168C280.546 264.506 274.166 271.234 278.102 277.585Z" fill="url(#paint0_linear)"/>
<g opacity="0.5">
<path opacity="0.5" d="M263.231 294.902L262.788 294.864C262.949 292.538 263.151 290.199 263.379 287.897C265.058 270.907 268.497 254.697 273.615 239.719C277.954 227.03 283.542 215.046 290.232 204.092C295.618 195.289 301.744 187.102 308.434 179.771C313.135 174.614 318.079 169.924 323.103 165.837C323.976 165.12 324.916 164.441 325.829 163.774C327.038 162.894 328.301 161.976 329.416 160.995L329.739 161.272C328.61 162.265 327.347 163.183 326.125 164.076C325.212 164.73 324.285 165.422 323.412 166.126C318.401 170.2 313.471 174.879 308.783 180.022C302.107 187.341 295.995 195.503 290.621 204.293C283.945 215.222 278.357 227.181 274.032 239.845C268.927 254.798 265.488 270.983 263.822 287.947C263.594 290.249 263.393 292.588 263.231 294.902Z" fill="#FCFDFE"/>
<path opacity="0.5" d="M283.112 217.913L282.696 217.762C289.788 202.256 280.533 174.451 280.439 174.162L280.869 174.061C280.963 174.351 290.258 202.281 283.112 217.913Z" fill="#FCFDFE"/>
<path opacity="0.5" d="M267.703 262.884L267.273 262.771C270.659 251.716 293.495 242.41 293.723 242.322L293.925 242.674C293.683 242.775 271.035 252.006 267.703 262.884Z" fill="#FCFDFE"/>
<path opacity="0.5" d="M266.401 269.31L265.958 269.272C266.656 261.802 263.016 251.213 255.695 239.455C255.332 238.864 255.332 238.864 255.332 238.788L255.775 238.826L255.547 238.813L255.762 238.75C255.775 238.788 255.923 239.015 256.084 239.279C263.446 251.113 267.113 261.777 266.401 269.31Z" fill="#FCFDFE"/>
<path opacity="0.5" d="M263.594 290.664L263.178 290.513C266.63 282.867 280.077 279.396 280.211 279.358L280.345 279.736C280.211 279.773 266.966 283.194 263.594 290.664Z" fill="#FCFDFE"/>
<path opacity="0.5" d="M262.546 294.964C260.383 288.538 256.031 282.401 249.247 276.201L249.569 275.937C256.407 282.175 260.786 288.362 262.976 294.864L262.546 294.964Z" fill="#FCFDFE"/>
<path opacity="0.5" d="M304.914 184.411L304.511 184.235C309.011 175.809 311.469 166.012 312.275 162.806C312.477 162.026 312.544 161.749 312.584 161.661L313 161.812C312.974 161.887 312.853 162.328 312.718 162.894C311.899 166.126 309.441 175.947 304.914 184.411Z" fill="#FCFDFE"/>
<path opacity="0.5" d="M295.256 197.125L294.92 196.861C301.65 190.435 321.813 189.869 322.673 189.844L322.7 190.234C322.485 190.234 301.865 190.812 295.256 197.125Z" fill="#FCFDFE"/>
</g>
<path d="M262.908 337.483C261.39 337.131 264.131 329.912 260.826 319.927C260.007 317.437 256.527 303.528 245.19 301.918C242.987 301.604 240.784 301.29 238.594 300.975C237.264 296.121 236.982 291.317 243.9 290.261C254.66 288.626 256.675 272.365 254.445 266.291C251.678 258.771 245.62 241.152 262.196 238.398C275.992 236.097 285.503 237.14 288.095 221.962C290.688 206.783 301.139 198.281 316.667 200.885C333.015 203.626 348.611 185.693 361.386 193.653C383.645 207.525 358.699 238.876 329.079 245.529C299.46 252.181 314.854 263.084 314.263 275.673C314.142 276.842 313.846 278.641 313.081 280.703C308.325 293.392 293.509 294.058 281.795 303.603C265.823 316.582 265.46 338.061 262.908 337.483Z" fill="url(#paint1_linear)"/>
<g opacity="0.5">
<path opacity="0.5" d="M258.959 301.969L258.207 301.742C274.972 253.678 318.132 213.687 370.83 197.376L371.099 198.03C318.629 214.278 275.657 254.105 258.959 301.969Z" fill="#FCFDFE"/>
<path opacity="0.5" d="M270.646 276.515L269.867 276.427C272.097 256.658 254.728 239.102 254.553 238.926L255.131 238.474C255.305 238.65 272.903 256.432 270.646 276.515Z" fill="#FCFDFE"/>
<path opacity="0.5" d="M262.317 293.203L261.672 292.801C274.393 276.364 315.781 278.465 316.197 278.49L316.17 279.181C315.754 279.156 274.796 277.081 262.317 293.203Z" fill="#FCFDFE"/>
<path opacity="0.5" d="M303.047 236.776L302.362 236.424C311.147 222.628 302.926 198.986 302.845 198.747L303.584 198.558C303.678 198.785 311.993 222.729 303.047 236.776Z" fill="#FCFDFE"/>
<path opacity="0.5" d="M330.436 216.328L330.101 215.699C348.585 208.154 374.981 216.416 375.249 216.504L375.007 217.158C374.725 217.07 348.638 208.896 330.436 216.328Z" fill="#FCFDFE"/>
</g>
<path d="M153.07 315.117L126.445 328.736C126.445 328.736 113.966 318.512 115.229 306.15C117.795 280.936 94.018 280.584 84.0909 279.05C69.113 276.723 58.689 269.165 67.5414 256.262C77.5624 241.662 53.6516 228.696 28.881 228.218C4.63426 227.741 -8.44956 187.134 44.1141 183.65C75.5072 181.575 86.1193 208.5 94.9314 220.912C103.744 233.324 125.075 223.817 127.278 243.347C129.159 260.035 123.45 275.83 137.675 280.685C151.915 285.551 158.94 295.562 153.07 315.117Z" fill="url(#paint2_linear)"/>
<g opacity="0.5">
<path opacity="0.5" d="M142.888 323.329L142.283 323.517C142.162 323.165 129.575 287.903 105.839 256.464C83.9836 227.489 47.9023 195.936 0.188062 210.122L0 209.556C21.2377 203.243 41.9784 205.305 61.6444 215.693C77.3476 223.993 92.4061 237.587 106.39 256.111C130.167 287.639 142.767 322.977 142.888 323.329Z" fill="#BEB8F2"/>
<path opacity="0.5" d="M69.6497 220.371L69.0586 220.597C61.2271 202.036 39.7476 180.971 39.5327 180.757L39.9894 180.342C40.2044 180.543 61.7779 201.696 69.6497 220.371Z" fill="#BEB8F2"/>
<path opacity="0.5" d="M56.3521 213.781C30.9904 212.423 16.4021 226.759 16.2543 226.91L15.7842 226.508C15.9319 226.357 30.7083 211.819 56.3789 213.19L56.3521 213.781Z" fill="#BEB8F2"/>
<path opacity="0.5" d="M120.159 277.805C99.3913 256.212 59.804 268.561 59.4279 268.712L59.1323 268.184C59.4816 268.008 99.6868 255.621 120.629 277.415L120.159 277.805Z" fill="#BEB8F2"/>
<path opacity="0.5" d="M114.208 267.203L113.59 267.379C107.828 249.635 119.891 229.237 120.011 229.036L120.576 229.325C120.455 229.526 108.526 249.71 114.208 267.203Z" fill="#BEB8F2"/>
<path opacity="0.5" d="M140.174 318.008C133.726 308.765 114.544 308.652 114.342 308.652V308.048C115.148 308.048 134.075 308.162 140.711 317.681L140.174 318.008Z" fill="#BEB8F2"/>
<path opacity="0.5" d="M137.313 309.621L136.708 309.81C133.686 301.56 140.967 286.909 143.358 282.105C143.694 281.426 143.989 280.835 144.016 280.722L144.634 280.86C144.594 281.024 144.406 281.413 143.935 282.357C141.571 287.11 134.371 301.598 137.313 309.621Z" fill="#BEB8F2"/>
</g>
<path d="M107.836 235.886C104.397 241.444 106.868 247.242 109.353 251.165C110.012 251.19 110.388 251.366 111.033 251.53C116.957 253.026 119.818 252.486 125.903 253.102C127.206 253.24 131.182 252.536 132.781 252.146L135.749 251.379C135.749 251.379 141.929 237.76 134.084 233.647C126.239 229.522 130.363 215.903 131.585 208.433C132.337 203.843 131.115 201.516 131.102 199.793C130.967 181.508 137.147 176.402 133.197 170.479C128.845 163.94 120.073 168.304 114.942 161.425C109.139 153.665 116.433 142.888 109.179 136.688C107.943 135.619 106.627 134.563 104.518 133.871C99.2921 132.161 94.8189 134.839 91.2591 130.564C84.0993 121.974 71.7274 118.516 63.6004 126.766C55.5809 134.915 63.3586 152.03 84.7441 166.354C98.7145 178.176 98.701 181.546 96.9413 189.707C95.7055 195.429 88.3173 210.156 96.8473 216.469C105.377 222.807 111.758 229.522 107.836 235.886Z" fill="url(#paint3_linear)"/>
<g opacity="0.5">
<path opacity="0.5" d="M122.693 253.203L123.136 253.165C122.975 250.839 122.773 248.5 122.545 246.198C120.866 229.209 117.427 212.998 112.309 198.021C107.97 185.332 102.382 173.347 95.6922 162.393C90.3056 153.59 84.1801 145.403 77.4904 138.072C72.7888 132.916 67.8455 128.225 62.8215 124.138C61.9483 123.421 61.008 122.742 60.0946 122.075C58.8856 121.195 57.6229 120.277 56.5079 119.296L56.1855 119.573C57.3139 120.566 58.5766 121.484 59.799 122.377C60.7125 123.031 61.6394 123.723 62.5125 124.427C67.5231 128.502 72.453 133.18 77.1412 138.323C83.8174 145.642 89.9295 153.804 95.3027 162.595C101.979 173.523 107.567 185.483 111.893 198.146C116.997 213.099 120.436 229.284 122.102 246.249C122.343 248.538 122.532 250.877 122.693 253.203Z" fill="#FCFDFE"/>
<path opacity="0.5" d="M102.812 176.214L103.229 176.063C96.136 160.557 105.391 132.752 105.485 132.463L105.056 132.362C104.962 132.652 95.6658 160.582 102.812 176.214Z" fill="#FCFDFE"/>
<path opacity="0.5" d="M118.22 221.185L118.65 221.072C115.265 210.018 92.4284 200.712 92.2 200.624L91.9985 200.976C92.2538 201.077 114.889 210.307 118.22 221.185Z" fill="#FCFDFE"/>
<path opacity="0.5" d="M119.523 227.611L119.966 227.573C119.268 220.103 122.908 209.514 130.229 197.756C130.592 197.165 130.592 197.165 130.592 197.089L130.148 197.127L130.377 197.115L130.162 197.052C130.148 197.089 130.001 197.316 129.839 197.58C122.478 209.401 118.811 220.065 119.523 227.611Z" fill="#FCFDFE"/>
<path opacity="0.5" d="M122.33 248.965L122.747 248.814C119.294 241.168 105.848 237.697 105.713 237.659L105.579 238.036C105.713 238.074 118.958 241.495 122.33 248.965Z" fill="#FCFDFE"/>
<path opacity="0.5" d="M123.379 253.266C125.541 246.839 129.894 240.702 136.677 234.502L136.355 234.238C129.518 240.476 125.138 246.663 122.949 253.165L123.379 253.266Z" fill="#FCFDFE"/>
<path opacity="0.5" d="M81.0106 142.699L81.4136 142.523C76.9135 134.098 74.4552 124.301 73.6492 121.094C73.4477 120.315 73.3806 120.038 73.3403 119.95L72.9238 120.101C72.9507 120.176 73.0716 120.616 73.2059 121.182C74.0253 124.414 76.497 134.249 81.0106 142.699Z" fill="#FCFDFE"/>
<path opacity="0.5" d="M90.6684 155.414L91.0042 155.15C84.2743 148.724 64.1112 148.158 63.2515 148.133L63.2246 148.522C63.4395 148.535 84.0728 149.113 90.6684 155.414Z" fill="#FCFDFE"/>
</g>
<path d="M123.015 295.772C124.533 295.419 121.793 288.201 125.098 278.216C125.917 275.726 129.396 261.817 140.734 260.207C142.937 259.893 145.14 259.579 147.329 259.264C148.659 254.41 148.941 249.606 142.023 248.55C131.263 246.915 129.248 230.654 131.478 224.58C134.246 217.06 140.304 199.441 123.727 196.687C109.932 194.386 100.421 195.43 97.8285 180.251C95.2359 165.072 84.7849 156.57 69.2563 159.174C52.9083 161.915 37.3124 143.982 24.5376 151.943C2.27899 165.814 27.2242 197.165 56.8441 203.818C86.4641 210.47 71.0698 221.373 71.6608 233.962C71.7817 235.131 72.0772 236.93 72.8429 238.992C77.5982 251.681 92.4149 252.347 104.129 261.892C120.1 274.883 120.477 296.363 123.015 295.772Z" fill="url(#paint4_linear)"/>
<g opacity="0.5">
<path opacity="0.5" d="M126.966 260.271L127.718 260.044C110.953 211.98 67.7928 171.989 15.0948 155.678L14.8262 156.332C67.2958 172.58 110.268 212.395 126.966 260.271Z" fill="#FCFDFE"/>
<path opacity="0.5" d="M115.277 234.817L116.057 234.729C113.827 214.96 131.196 197.404 131.37 197.228L130.793 196.776C130.618 196.952 113.021 214.734 115.277 234.817Z" fill="#FCFDFE"/>
<path opacity="0.5" d="M123.607 251.505L124.252 251.102C111.531 234.666 70.1435 236.766 69.7271 236.791L69.7539 237.483C70.1703 237.458 111.128 235.383 123.607 251.505Z" fill="#FCFDFE"/>
<path opacity="0.5" d="M82.8781 195.065L83.5632 194.713C74.7779 180.918 82.999 157.275 83.0796 157.036L82.3408 156.847C82.2467 157.086 73.9316 181.031 82.8781 195.065Z" fill="#FCFDFE"/>
<path opacity="0.5" d="M55.4876 174.617L55.8234 173.988C37.3395 166.443 10.9435 174.705 10.6748 174.793L10.9166 175.447C11.1987 175.359 37.2857 167.198 55.4876 174.617Z" fill="#FCFDFE"/>
</g>
<path d="M259.885 111.487L261.523 108.104C262.141 106.834 261.779 105.312 260.704 104.696L256.446 102.244C257.601 99.1878 258.407 95.9558 258.81 92.6106L263.552 92.2963C264.774 92.2208 265.768 91.0135 265.768 89.6176V85.9078C265.768 84.5119 264.774 83.4303 263.552 83.4932L258.931 83.7447C258.608 80.3744 257.883 77.1676 256.781 74.162L260.691 71.4457C260.811 71.3576 260.932 71.257 261.04 71.1564L261.537 72.3763L267.958 64.9817L259.576 64.3152C259.213 63.8751 258.716 63.5984 258.192 63.5481C257.722 63.4978 257.238 63.611 256.795 63.9128L252.94 66.5411C251.14 63.8373 248.99 61.4354 246.572 59.3855L246.868 58.8196L252.765 59.9514L253.517 50.8088L244.557 49.4255C243.523 49.0482 242.368 49.5261 241.79 50.6202L239.56 54.9211C236.699 53.5881 239.063 52.1922 235.812 51.7772L239.211 47.0864C239.211 45.6276 229.244 44.6467 227.9 44.6467H224.3C222.93 44.6467 221.829 45.854 221.829 47.3254V52.3431C218.457 52.821 215.22 53.827 212.17 55.2858L218.323 51.0478C218.323 51.0478 207.482 49.1237 206.246 49.8908L202.942 51.9281C201.692 52.6952 201.263 54.3929 201.988 55.7008L204.487 60.2281C201.76 62.5043 200.591 63.8248 198.522 66.8304L192.719 65.6105C191.443 64.8685 189.791 65.3716 189.052 66.7297L187.064 70.3516C186.312 71.7223 186.755 73.42 188.058 74.1494L192.733 76.7778C191.443 80.1481 190.556 83.7322 190.18 87.4546L184.579 87.7564C183.074 87.8319 181.838 89.1649 181.838 90.7243V94.8743C181.838 96.2828 182.846 97.3894 184.162 97.5152L190.53 98.4709C191.053 101.577 191.94 104.52 193.136 107.249L188.058 110.707C186.768 111.587 186.312 113.348 187.064 114.618L189.052 118.001C189.791 119.271 201.612 120.038 201.612 120.038L197.864 115.109C199.919 117.687 202.297 119.925 204.957 121.749L202.001 127.471C201.276 128.867 201.706 130.501 202.955 131.13L206.26 132.778C206.475 132.878 206.69 132.954 206.904 132.979L206.891 133.042L217.181 134.224L218.188 126.955C219.384 127.131 220.606 127.232 221.842 127.269V133.494C221.842 134.601 222.46 135.481 223.347 135.783L223.306 135.959L233.502 137.154L233.703 125.358C235.571 124.691 237.371 123.874 239.09 122.906L241.804 127.835C242.139 128.452 242.69 128.804 243.295 128.904L253.155 130.149L249.783 121.447L248.426 121.837L246.183 117.712C248.547 115.511 250.643 113.009 252.429 110.267L256.822 112.732C257.896 113.31 259.267 112.757 259.885 111.487ZM226.114 108.293C216.469 109.097 208.463 101.175 208.463 90.5734C208.463 79.972 216.469 71.1061 226.114 70.7791C235.53 70.4522 242.986 78.4126 242.986 88.5487C242.986 98.6722 235.53 107.513 226.114 108.293ZM267.326 87.945L274.003 84.9897L267.326 84.2352V87.945ZM259.132 113.197L266.776 114.165L267.891 111.726L261.564 108.129L259.132 113.197Z" fill="#BFC8D6"/>
<path d="M273.411 84.8766L268.817 85.1281C268.495 81.7704 267.769 78.5635 266.681 75.5705L270.563 72.8667C271.624 72.1247 271.987 70.5653 271.383 69.3706L269.744 66.189C269.126 64.9943 267.756 64.6044 266.681 65.3338L262.839 67.9496C261.053 65.2584 258.917 62.8564 256.499 60.8191L258.702 56.493C259.333 55.248 258.957 53.6761 257.855 52.9718L254.914 51.098C253.799 50.3938 252.375 50.8214 251.73 52.079L249.514 56.3673C246.666 55.0343 243.59 54.1414 240.352 53.7264V48.7715C240.352 47.3127 239.264 46.1306 237.934 46.1306H234.348C232.991 46.1306 231.889 47.3253 231.889 48.8093V53.8144C228.545 54.2923 225.321 55.2984 222.285 56.7446L219.894 52.343C219.195 51.0477 217.623 50.6076 216.401 51.3747L213.123 53.412C211.888 54.1791 211.458 55.8643 212.17 57.1721L214.655 61.6743C211.941 63.9505 209.51 66.6291 207.455 69.6222L202.968 67.0315C201.692 66.3022 200.066 66.7926 199.314 68.1508L197.339 71.76C196.601 73.1182 197.031 74.816 198.32 75.5454L202.968 78.1611C201.678 81.5188 200.805 85.1029 200.429 88.8128L194.854 89.1146C193.35 89.1901 192.127 90.5231 192.127 92.0825V96.2199C192.127 97.7793 193.35 98.9489 194.854 98.8483L200.577 98.471C201.06 102.055 202.014 105.438 203.371 108.544L198.32 111.99C197.031 112.87 196.587 114.618 197.339 115.888L199.314 119.259C200.053 120.529 201.692 120.831 202.968 119.938L208.073 116.379C210.114 118.944 212.492 121.183 215.125 122.994L212.183 128.691C211.471 130.086 211.888 131.709 213.137 132.338L216.414 133.985C217.637 134.601 219.209 133.972 219.907 132.589L222.822 126.867C225.697 127.848 228.746 128.401 231.903 128.477V134.677C231.903 136.148 233.004 137.217 234.361 137.053L237.948 136.626C239.291 136.462 240.366 135.155 240.366 133.696V127.559C243.428 126.817 246.33 125.647 249.043 124.113L251.743 129.018C252.388 130.187 253.812 130.451 254.927 129.609L257.869 127.383C258.97 126.553 259.347 124.93 258.715 123.761L256.096 118.932C258.447 116.744 260.529 114.241 262.315 111.499L266.694 113.964C267.769 114.568 269.139 114.027 269.757 112.744L271.396 109.362C272.014 108.091 271.651 106.57 270.577 105.966L266.345 103.526C267.487 100.483 268.293 97.2511 268.696 93.9186L273.411 93.6042C274.633 93.5287 275.614 92.334 275.614 90.9381V87.2282C275.614 85.8826 274.633 84.8011 273.411 84.8766ZM236.175 109.613C226.583 110.418 218.617 102.52 218.617 91.9442C218.617 81.3679 226.57 72.5272 236.175 72.2002C245.537 71.8732 252.952 79.8085 252.952 89.9069C252.952 100.018 245.524 108.821 236.175 109.613Z" fill="#D8DEE8"/>
<path d="M155.913 89.7429L158.116 85.2156C158.936 83.5179 158.452 81.4807 157.028 80.6507L151.332 77.381C152.877 73.2938 153.952 68.9678 154.503 64.4908L160.857 64.0758C162.495 63.9626 163.812 62.3655 163.812 60.4917V55.5243C163.812 53.6505 162.495 52.2168 160.857 52.2923L154.677 52.6193C154.247 48.1046 153.267 43.8162 151.803 39.8046L157.028 36.1702C157.189 36.057 157.35 35.9186 157.485 35.7803L158.156 37.4152L166.74 27.5306L155.524 26.6377C155.027 26.0467 154.368 25.682 153.67 25.6065C153.038 25.5311 152.394 25.6945 151.803 26.0844L146.631 29.593C144.226 25.9838 141.352 22.7644 138.101 20.0229L138.49 19.2683L146.389 20.7774L147.397 8.5412L135.401 6.69257C134.017 6.18953 132.459 6.8309 131.707 8.28969L128.725 14.0494C124.896 12.2636 128.066 10.3898 123.714 9.84909L128.268 3.57378C128.268 1.61196 114.929 0.31665 113.129 0.31665H108.306C106.479 0.31665 105.002 1.92635 105.002 3.90074V10.6162C100.502 11.2576 96.1494 12.6032 92.0657 14.5398L100.3 8.88075C100.3 8.88075 85.7925 6.30272 84.1402 7.33393L79.7341 10.0503C78.0684 11.0815 77.4908 13.3451 78.458 15.0932L81.8028 21.1421C78.149 24.1855 76.5908 25.9461 73.8236 29.9703L66.0727 28.3355C64.3533 27.3546 62.1637 28.0211 61.1696 29.832L58.5099 34.6736C57.5024 36.4971 58.1069 38.7733 59.8397 39.7543L66.0996 43.2629C64.3667 47.7776 63.198 52.569 62.6876 57.549L55.1785 57.9514C53.1635 58.0646 51.5112 59.8378 51.5112 61.9253V67.4712C51.5112 69.3576 52.868 70.8415 54.6277 70.9925L63.1577 72.2752C63.8697 76.4252 65.0518 80.3614 66.6503 84.021L59.8532 88.6488C58.1203 89.831 57.5293 92.1701 58.5233 93.8804L61.183 98.4076C62.1771 100.105 77.9878 101.137 77.9878 101.137L72.9639 94.5469C75.7042 97.9926 78.9013 100.986 82.4476 103.438L78.4849 111.084C77.5177 112.945 78.0953 115.146 79.761 115.976L84.1805 118.177C84.4626 118.315 84.7581 118.403 85.0536 118.453L85.0402 118.529L98.8091 120.113L100.152 110.38C101.751 110.606 103.376 110.757 105.029 110.795V119.12C105.029 120.604 105.861 121.773 107.03 122.176L106.976 122.415L120.624 124.012L120.893 108.229C123.392 107.336 125.796 106.242 128.093 104.947L131.734 111.537C132.19 112.354 132.916 112.845 133.735 112.958L146.926 114.63L142.413 102.998L140.586 103.526L137.577 98.0052C140.734 95.0625 143.555 91.7173 145.946 88.0452L151.829 91.3526C153.24 92.1826 155.08 91.4532 155.913 89.7429ZM110.724 85.4798C97.8151 86.5613 87.1089 75.9473 87.1089 61.7744C87.1089 47.6015 97.8151 35.73 110.724 35.2899C123.311 34.8623 133.292 45.5014 133.292 59.0581C133.292 72.6147 123.324 84.4234 110.724 85.4798ZM165.867 58.2406L174.8 54.2793L165.867 53.2606V58.2406ZM154.906 92.0317L165.128 93.327L166.619 90.0699L158.156 85.2534L154.906 92.0317Z" fill="#BFC8D6"/>
<path d="M174.008 54.1408L167.856 54.4678C167.426 49.9782 166.459 45.6899 165.008 41.6908L170.207 38.069C171.63 37.0755 172.114 34.9879 171.295 33.3908L169.105 29.1402C168.286 27.5305 166.445 27.0274 165.008 28.0083L159.877 31.517C157.485 27.9203 154.638 24.7009 151.4 21.9846L154.356 16.1871C155.202 14.5271 154.705 12.4144 153.227 11.4838L149.291 8.96863C147.8 8.02544 145.893 8.60393 145.033 10.2765L142.064 16.0111C138.263 14.2379 134.139 13.0306 129.8 12.4898V5.86241C129.8 3.91317 128.349 2.32861 126.562 2.32861H121.767C119.953 2.32861 118.476 3.93831 118.476 5.91271V12.6156C114.003 13.257 109.677 14.6026 105.62 16.5392L102.423 10.6412C101.483 8.90575 99.3874 8.32726 97.7485 9.3459L93.3559 12.0748C91.6902 13.1061 91.126 15.3571 92.0798 17.1051L95.3977 23.1415C91.7708 26.1849 88.52 29.769 85.7662 33.7806L79.7616 30.3223C78.0556 29.3414 75.866 30.0079 74.8854 31.8188L72.2391 36.6479C71.245 38.4714 71.8361 40.735 73.5555 41.7159L79.7751 45.212C78.0556 49.7141 76.8869 54.4929 76.3765 59.4604L68.9211 59.8628C66.9196 59.976 65.2808 61.7491 65.2808 63.8241V69.3575C65.2808 71.4325 66.9196 73.017 68.9211 72.8787L76.578 72.3757C77.2228 77.167 78.4989 81.6943 80.3124 85.8569L73.5555 90.4722C71.8361 91.6543 71.245 93.9934 72.2391 95.6912L74.8854 100.206C75.8795 101.904 78.0556 102.306 79.7616 101.111L86.5991 96.3451C89.326 99.7908 92.5096 102.771 96.0291 105.198L92.0932 112.819C91.1394 114.681 91.7036 116.869 93.3693 117.699L97.7619 119.9C99.4008 120.717 101.496 119.887 102.437 118.038L106.346 110.38C110.201 111.688 114.285 112.43 118.503 112.53V120.83C118.503 122.805 119.98 124.238 121.794 124.012L126.589 123.433C128.376 123.22 129.827 121.459 129.827 119.51V111.285C133.924 110.292 137.819 108.72 141.433 106.682L145.046 113.247C145.906 114.819 147.814 115.171 149.305 114.039L153.241 111.059C154.718 109.939 155.215 107.776 154.369 106.217L150.863 99.7531C154.006 96.823 156.8 93.4778 159.178 89.8183L165.035 93.1131C166.472 93.918 168.299 93.1886 169.132 91.4908L171.321 86.9761C172.141 85.2784 171.657 83.2537 170.233 82.4237L164.578 79.1666C166.109 75.092 167.184 70.7785 167.721 66.3141L174.035 65.8991C175.66 65.786 176.977 64.1888 176.977 62.3276V57.3728C176.95 55.4864 175.634 54.0528 174.008 54.1408ZM124.185 87.2402C111.343 88.3218 100.704 77.7455 100.704 63.6104C100.704 49.4626 111.356 37.6288 124.185 37.1887C136.704 36.7485 146.631 47.3625 146.631 60.8814C146.631 74.4004 136.704 86.1839 124.185 87.2402Z" fill="#D8DEE8"/>
<path d="M393.988 321.854L97.4526 319.452V326.557C97.4526 328.481 98.7422 330.129 100.502 330.418L184.351 344.402C185.345 344.566 186.353 344.616 187.36 344.528L390.764 328.582C392.577 328.443 393.988 326.796 393.988 324.822V321.854Z" fill="#BFC8D6"/>
<path d="M284.87 310.486L96.404 323.477C93.0323 323.703 90.292 321.238 90.292 317.956V186.564C90.292 183.282 93.0323 180.628 96.404 180.628H284.87C287.651 180.628 289.894 183.03 289.894 185.998V304.777C289.894 307.732 287.651 310.285 284.87 310.486Z" fill="#BFC8D6"/>
<path d="M287.866 310.484L99.3997 323.475C96.0279 323.701 93.2876 321.236 93.2876 317.954V186.563C93.2876 183.28 96.0279 180.627 99.3997 180.627H287.866C290.646 180.627 292.89 183.029 292.89 185.997V304.775C292.903 307.73 290.646 310.283 287.866 310.484Z" fill="white"/>
<path d="M281.996 302.11L106.452 313.39C103.712 313.566 101.482 311.542 101.482 308.863V193.832C101.482 191.153 103.712 188.978 106.452 188.965L281.996 188.261C284.293 188.248 286.146 190.223 286.146 192.663V297.431C286.146 299.859 284.293 301.959 281.996 302.11Z" fill="url(#paint5_linear)"/>
<path d="M200.295 184.212C200.295 185.432 199.328 186.425 198.133 186.425C196.937 186.425 195.957 185.444 195.957 184.212C195.957 182.992 196.924 181.999 198.133 181.999C199.328 182.011 200.295 182.992 200.295 184.212Z" fill="white"/>
<path opacity="0.48" d="M99.3984 323.464L286.911 310.536L287.865 310.473C289.141 310.385 290.296 309.794 291.182 308.901C277.682 308.209 269.313 303.732 263.9 299.092C253.046 289.786 254.927 280.618 243.213 274.494C228.611 266.86 217.126 276.531 206.044 266.998C199.327 261.214 202.618 256.9 194.357 248.261C185.196 238.69 179.245 241.91 170.043 233.295C158.41 222.405 164.226 213.929 154.205 206.107C142.048 196.625 128.938 205.402 117.358 196.298C112.361 192.374 109.621 186.665 108.197 180.603H99.385C96.0133 180.603 93.2729 183.257 93.2729 186.539V317.93C93.2864 321.225 96.0267 323.702 99.3984 323.464Z" fill="white"/>
<path d="M296.758 309.756L97.4648 323.425L184.363 337.913C185.357 338.076 186.365 338.127 187.372 338.038L394 321.841L299.928 309.831C298.867 309.718 297.806 309.68 296.758 309.756Z" fill="url(#paint6_linear)"/>
<path d="M126.535 323.551L292.461 311.994L343.802 318.496L179.314 330.845L126.535 323.551Z" fill="#D8DEE8"/>
<path d="M302.333 216.368C302.333 216.368 305.248 213.099 310.728 212.948C316.209 212.797 323.664 209.753 326.862 209.489C327.641 209.426 328.017 209.213 328.084 208.949C328.218 208.408 324.659 207.616 321.515 207.515C315.927 207.339 312.663 209.351 311.911 208.32C311.064 207.163 314.678 204.019 314.02 203.302C313.509 202.761 311.051 204.509 308.431 205.578C306.564 206.333 299.27 214.507 299.27 214.507L302.333 216.368Z" fill="#FDC3B1"/>
<path d="M302.507 210.445C303.864 213.011 305.221 215.576 306.578 218.142C305.234 225.046 302.494 235.245 296.382 246.412C289.8 258.434 274.795 285.85 248.359 288.34C228.209 290.239 211.297 276.732 204.903 271.564C198.979 266.785 193.673 262.572 191.093 255.844C187.023 245.23 191.134 232.151 200.98 219.839C205.829 213.778 215.918 215.086 218.779 222.166C223.306 233.346 230.922 241.105 239.694 242.614C249.541 244.324 260.516 238.074 265.19 235.421C272.135 231.472 273.908 228.441 282.546 222.191C290.525 216.394 297.765 212.659 302.507 210.445Z" fill="url(#paint7_linear)"/>
<g opacity="0.3">
<path opacity="0.3" d="M222.285 267.942C229.835 266.357 232.682 259.793 243.026 259.201C256.11 258.459 261.725 268.369 270.094 265.753C276.918 263.616 278.059 255.492 282.815 245.029C286.509 236.917 292.916 226.24 304.858 214.897C305.423 215.978 306 217.06 306.564 218.129C305.221 225.033 302.481 235.232 296.369 246.399C289.786 258.422 274.782 285.837 248.345 288.327C228.196 290.226 211.283 276.719 204.889 271.551C198.965 266.772 193.659 262.559 191.08 255.831C190.368 253.97 189.911 252.033 189.683 250.034C205.306 266.709 215.515 269.363 222.285 267.942Z" fill="url(#paint8_linear)"/>
</g>
<path d="M126.668 314.925C126.507 307.618 126.091 267.288 146.939 238.3C151.721 231.648 160.17 219.89 176.411 212.118C182.738 209.087 188.447 207.515 192.369 206.672C197.004 207.314 201.625 207.955 206.259 208.609C210.692 212.394 216.71 218.318 222.03 226.706C225.401 232.025 230.963 240.816 232.252 252.159C233.757 265.389 228.142 270.608 223.521 291.207C221.022 302.374 220.23 311.756 219.948 317.918C203.922 319.201 187.91 320.496 171.884 321.779C171.629 314.673 170.971 306.763 169.627 298.224C168.244 289.396 166.39 281.385 164.375 274.318C162.226 282.353 160.332 291.735 159.311 302.261C158.599 309.555 158.424 316.321 158.558 322.47C156.611 323.187 145.649 327.035 135.091 321.766C130.994 319.729 128.28 316.962 126.668 314.925Z" fill="url(#paint9_linear)"/>
<path d="M199.263 182.678C209.955 174.516 215.302 170.442 217.303 165.223C221.656 153.829 215.799 140.926 208.787 133.494C198.954 123.056 184.621 120.981 175.553 119.673C163.893 117.988 163.155 120.553 157.728 118.365C142.71 112.304 147.774 92.4467 133.817 77.1923C118.422 60.3659 90.7772 61.0827 83.792 61.5103C46.5958 63.8368 27.494 93.9935 25.5999 97.1123C7.98917 126.011 16.3714 160.884 34.318 180.967C39.4494 186.715 52.5736 201.403 67.7529 199.944C82.3816 198.536 86.5055 183.357 106.843 180.867C109.691 180.515 118.302 179.471 127.745 182.879C138.411 186.727 140.077 192.638 151.454 196.348C160.683 199.353 168.703 198.448 170.301 198.247C180.362 196.951 186.797 192.172 199.263 182.678Z" fill="url(#paint10_linear)"/>
<g opacity="0.3">
<path opacity="0.3" d="M21.9983 103.828C18.1833 136.211 22.0251 147.868 28.3118 150.245C37.097 153.565 48.5823 137.908 62.3244 142.209C74.6828 146.083 73.0574 161.148 84.3949 164.456C98.7414 168.644 108.386 146.623 125.54 148.007C145.945 149.654 148.511 182.15 171.226 187.884C178.104 189.62 187.574 189.079 200.578 181.672C200.148 181.999 199.704 182.339 199.261 182.678C186.809 192.185 180.361 196.964 170.286 198.234C168.687 198.436 160.668 199.354 151.439 196.335C140.062 192.626 138.396 186.715 127.73 182.867C118.287 179.459 109.676 180.515 106.828 180.855C86.4905 183.345 82.3665 198.536 67.7379 199.932C52.5451 201.391 39.4344 186.702 34.303 180.955C17.7265 162.418 9.31743 131.256 21.9983 103.828Z" fill="url(#paint11_linear)"/>
</g>
<path d="M203.975 187.092C203.975 187.092 204.365 196.486 203.975 202.786C203.693 207.401 207.952 210.03 207.952 210.03C207.952 210.03 210.289 213.79 197.635 214.419C184.981 215.047 172.649 214.419 172.649 214.419C172.649 214.419 185.021 206.71 187.856 204.66C190.69 202.61 192.195 187.293 190.395 177.597L203.975 187.092Z" fill="url(#paint12_linear)"/>
<path d="M207.213 156.784C207.213 156.784 213.661 171.334 213.621 180.112C213.581 188.903 207.025 193.946 202.042 191.77C197.058 189.594 189.562 180.464 189.562 180.464C189.562 180.464 188.555 182.929 184.74 180.464C180.925 177.999 178.09 164.191 185.505 168.102C185.505 168.102 184.337 164.229 186.164 158.608C187.991 153.011 205.037 146.95 207.213 156.784Z" fill="url(#paint13_linear)"/>
<g opacity="0.3">
<path opacity="0.3" d="M153.697 296.262C159.285 288.063 150.768 280.945 154.382 267.954C157.471 256.875 167.519 248.222 171.213 249.618C176.318 251.555 166.283 271.525 176.372 280.819C183.061 286.981 191.779 282.139 200.766 287.572C206.69 291.156 212.641 299.167 213.098 318.458C199.369 319.565 185.64 320.672 171.912 321.778C171.657 314.673 170.998 306.763 169.655 298.224C168.271 289.396 166.418 281.385 164.403 274.317C162.253 282.353 160.359 291.735 159.338 302.261C158.626 309.555 158.452 316.32 158.586 322.47C156.638 323.187 145.677 327.035 135.119 321.766C134.528 321.477 133.977 321.162 133.439 320.848C133.708 316.585 134.877 311.73 138.249 307.505C143.716 300.664 149.653 302.198 153.697 296.262Z" fill="url(#paint14_linear)"/>
</g>
<path d="M196.587 187.784C187.574 187.784 184.175 175.686 184.135 175.547C184.054 175.233 184.256 174.919 184.592 174.831C184.927 174.755 185.263 174.944 185.357 175.258C185.398 175.384 189.051 188.4 198.589 186.388C198.925 186.313 199.261 186.514 199.341 186.828C199.422 187.143 199.207 187.457 198.871 187.532C198.065 187.708 197.299 187.784 196.587 187.784Z" fill="white"/>
<path d="M201.865 188.205C203.595 187.784 204.798 186.723 204.551 185.836C204.305 184.949 202.702 184.571 200.972 184.992C199.242 185.414 198.039 186.474 198.285 187.362C198.532 188.249 200.134 188.627 201.865 188.205Z" fill="white"/>
<path d="M184.853 177.953C186.475 177.558 187.244 175.27 186.57 172.844C185.896 170.417 184.034 168.77 182.412 169.165C180.789 169.56 180.02 171.848 180.694 174.274C181.368 176.701 183.23 178.348 184.853 177.953Z" fill="white"/>
<path d="M182.094 171.171C182.094 171.171 182.013 170.995 181.879 170.68C181.744 170.366 181.556 169.901 181.341 169.297C180.911 168.102 180.374 166.367 180.011 164.229C179.635 162.091 179.461 159.538 179.85 156.834C180.038 155.489 180.401 154.106 180.952 152.773C181.503 151.439 182.255 150.144 183.168 148.962C184.082 147.767 185.197 146.749 186.379 145.843C186.674 145.63 186.983 145.403 187.279 145.189C187.588 145.001 187.91 144.8 188.219 144.611L188.689 144.322L189.173 144.07C189.495 143.907 189.818 143.743 190.127 143.58C190.462 143.404 190.771 143.29 191.094 143.152C191.43 143.026 191.765 142.888 192.101 142.8C192.773 142.599 193.431 142.423 194.089 142.322C195.406 142.096 196.682 142.058 197.851 142.159C198.133 142.171 198.415 142.209 198.697 142.259C198.979 142.297 199.248 142.335 199.503 142.41C199.758 142.473 200.013 142.523 200.255 142.586C200.497 142.662 200.725 142.737 200.954 142.813C201.182 142.875 201.384 142.989 201.585 143.077C201.787 143.165 201.988 143.24 202.163 143.341C202.512 143.555 202.848 143.718 203.116 143.919C203.385 144.12 203.627 144.309 203.828 144.46C204.03 144.636 204.178 144.8 204.298 144.913C204.554 145.164 204.688 145.303 204.688 145.303C204.809 145.428 204.809 145.63 204.675 145.743C204.54 145.856 204.339 145.856 204.204 145.73L204.178 145.705C204.178 145.705 204.057 145.579 203.815 145.353C203.694 145.24 203.56 145.089 203.372 144.938C203.184 144.8 202.955 144.623 202.7 144.447C202.445 144.271 202.136 144.12 201.813 143.919C201.652 143.831 201.464 143.768 201.276 143.68C201.088 143.605 200.9 143.504 200.685 143.441C200.47 143.378 200.255 143.303 200.027 143.24C199.798 143.177 199.557 143.14 199.315 143.077C199.073 143.014 198.818 142.989 198.563 142.951C198.307 142.913 198.039 142.875 197.757 142.863C196.655 142.775 195.446 142.825 194.21 143.051C193.592 143.152 192.961 143.328 192.33 143.529C192.021 143.63 191.712 143.756 191.403 143.869C191.094 144.007 190.758 144.146 190.476 144.296C190.167 144.46 189.871 144.623 189.562 144.787L189.106 145.038L188.662 145.315C188.367 145.504 188.071 145.692 187.762 145.881C187.48 146.095 187.198 146.309 186.916 146.51C185.801 147.39 184.74 148.371 183.894 149.503C183.034 150.622 182.349 151.854 181.838 153.125C181.328 154.395 181.006 155.715 180.831 156.998C180.482 159.576 180.683 162.041 181.073 164.091C181.449 166.153 182 167.826 182.416 168.983C182.631 169.561 182.819 170.001 182.94 170.303C183.074 170.592 183.141 170.756 183.141 170.756L183.155 170.781C183.276 171.058 183.141 171.385 182.846 171.498C182.564 171.573 182.228 171.447 182.094 171.171Z" fill="white"/>
<path d="M372.976 85.505V159.098C372.976 163.462 369.228 167.122 364.567 167.16L228.114 168.568L227.375 167.637C226.596 166.782 226.529 165.474 227.227 164.556L244.905 141.253C247.377 137.996 248.774 134.06 248.774 130.061V81.5688C248.774 78.6261 250.413 76.0858 252.938 74.715C254.282 73.9856 255.826 73.5832 257.492 73.6587L259.655 73.7341L364.89 77.5572C369.403 77.7332 372.976 81.2419 372.976 85.505Z" fill="url(#paint15_linear)"/>
<path d="M376.766 85.5041V159.097C376.766 163.461 373.018 167.008 368.357 167.045L228.075 168.378L228.102 168.341L248.682 141.227C251.153 137.97 252.55 134.059 252.55 130.06V81.5679C252.55 79.7696 253.128 78.1096 254.203 76.7891C255.506 75.1794 257.426 74.0476 259.656 73.7458C260.18 73.6703 260.704 73.6452 261.255 73.6703L368.666 77.5688C373.206 77.7323 376.766 81.2409 376.766 85.5041Z" fill="url(#paint16_linear)"/>
<g opacity="0.48">
<path opacity="0.48" d="M376.766 157.174V159.086C376.766 163.45 373.018 166.996 368.357 167.034L228.075 168.48L228.102 168.568L227.363 167.638C226.584 166.782 226.517 165.474 227.216 164.556L244.893 141.254C247.365 137.996 248.762 134.06 248.762 130.061V81.5691C248.762 78.6264 250.401 76.0861 252.926 74.7153C253.343 75.4447 253.732 76.1364 254.176 76.7903C254.713 77.5952 255.264 78.3372 255.855 79.0162C270.981 96.8612 298.854 84.21 319.246 103.338C324.444 108.217 326.728 112.87 328.259 117.485C329.28 120.541 329.952 123.585 330.946 126.653C332.652 131.998 335.271 137.431 342.109 143.228C353.151 152.584 362.621 152.232 372.991 155.703C374.241 156.143 375.812 156.621 376.766 157.174Z" fill="white"/>
</g>
<defs>
<linearGradient id="paint0_linear" x1="304.527" y1="159.088" x2="246.132" y2="317.528" gradientUnits="userSpaceOnUse">
<stop stop-color="#AA80F9"/>
<stop offset="0.9964" stop-color="#6165D7"/>
</linearGradient>
<linearGradient id="paint1_linear" x1="337.841" y1="198.266" x2="244.55" y2="326.022" gradientUnits="userSpaceOnUse">
<stop offset="0.00359712" stop-color="#E38DDD"/>
<stop offset="1" stop-color="#9571F6"/>
</linearGradient>
<linearGradient id="paint2_linear" x1="21.2824" y1="194.16" x2="148.572" y2="316.42" gradientUnits="userSpaceOnUse">
<stop stop-color="#AA80F9"/>
<stop offset="0.9964" stop-color="#6165D7"/>
</linearGradient>
<linearGradient id="paint3_linear" x1="81.3985" y1="117.386" x2="139.793" y2="275.826" gradientUnits="userSpaceOnUse">
<stop stop-color="#AA80F9"/>
<stop offset="0.9964" stop-color="#6165D7"/>
</linearGradient>
<linearGradient id="paint4_linear" x1="48.0846" y1="156.565" x2="141.376" y2="284.321" gradientUnits="userSpaceOnUse">
<stop offset="0.00359712" stop-color="#E38DDD"/>
<stop offset="1" stop-color="#9571F6"/>
</linearGradient>
<linearGradient id="paint5_linear" x1="201.192" y1="236.424" x2="-88.0826" y2="648.799" gradientUnits="userSpaceOnUse">
<stop stop-color="#FFC444"/>
<stop offset="0.9964" stop-color="#F36F56"/>
</linearGradient>
<linearGradient id="paint6_linear" x1="97.4611" y1="323.905" x2="393.99" y2="323.905" gradientUnits="userSpaceOnUse">
<stop offset="0.494" stop-color="#EBEFF2"/>
<stop offset="1" stop-color="white"/>
</linearGradient>
<linearGradient id="paint7_linear" x1="284.514" y1="265.845" x2="216.345" y2="203.101" gradientUnits="userSpaceOnUse">
<stop stop-color="#FF9085"/>
<stop offset="1" stop-color="#FB6FBB"/>
</linearGradient>
<linearGradient id="paint8_linear" x1="283.84" y1="266.577" x2="215.55" y2="203.723" gradientUnits="userSpaceOnUse">
<stop stop-color="#FF9085"/>
<stop offset="1" stop-color="#FB6FBB"/>
</linearGradient>
<linearGradient id="paint9_linear" x1="232.512" y1="265.586" x2="126.631" y2="265.586" gradientUnits="userSpaceOnUse">
<stop stop-color="#FF9085"/>
<stop offset="1" stop-color="#FB6FBB"/>
</linearGradient>
<linearGradient id="paint10_linear" x1="218.791" y1="130.694" x2="15.8664" y2="130.694" gradientUnits="userSpaceOnUse">
<stop stop-color="#311944"/>
<stop offset="1" stop-color="#6B3976"/>
</linearGradient>
<linearGradient id="paint11_linear" x1="218.789" y1="151.933" x2="15.8643" y2="151.933" gradientUnits="userSpaceOnUse">
<stop stop-color="#311944"/>
<stop offset="1" stop-color="#6B3976"/>
</linearGradient>
<linearGradient id="paint12_linear" x1="189.563" y1="237.383" x2="191.37" y2="175.143" gradientUnits="userSpaceOnUse">
<stop stop-color="#FDC3B1"/>
<stop offset="1" stop-color="#E6A2B0"/>
</linearGradient>
<linearGradient id="paint13_linear" x1="203.357" y1="192.739" x2="186.697" y2="134.474" gradientUnits="userSpaceOnUse">
<stop stop-color="#FDC3B1"/>
<stop offset="1" stop-color="#E0ACB7"/>
</linearGradient>
<linearGradient id="paint14_linear" x1="232.513" y1="286.993" x2="126.632" y2="286.993" gradientUnits="userSpaceOnUse">
<stop stop-color="#FF9085"/>
<stop offset="1" stop-color="#FB6FBB"/>
</linearGradient>
<linearGradient id="paint15_linear" x1="297.851" y1="123.301" x2="275.535" y2="110.51" gradientUnits="userSpaceOnUse">
<stop stop-color="#FF9085"/>
<stop offset="1" stop-color="#FB6FBB"/>
</linearGradient>
<linearGradient id="paint16_linear" x1="228.078" y1="121.01" x2="376.765" y2="121.01" gradientUnits="userSpaceOnUse">
<stop stop-color="#FF9085"/>
<stop offset="1" stop-color="#FB6FBB"/>
</linearGradient>
</defs>
</svg>
