<svg width="394" height="297" viewBox="0 0 394 297" fill="none" xmlns="http://www.w3.org/2000/svg">
<path d="M125.14 197.055C124.489 195.649 123.775 194.296 123.008 192.983C122.289 181.6 119.236 170.498 115.523 159.828C111.464 148.154 106.858 135.691 97.9228 127.309C94.2052 123.818 89.0463 120.546 83.9324 121.957C78.5894 123.425 74.7685 128.535 73.6326 133.839C70.7321 147.393 83.1331 159.571 91.9064 166.916C101.793 175.191 112.932 182.686 119.91 194.064C120.031 196.274 120.067 198.49 119.995 200.725C119.919 202.901 123.057 202.712 123.133 200.54C123.142 200.23 123.142 199.92 123.147 199.61C124.256 200.148 125.863 198.63 125.14 197.055Z" fill="#A5BA7A"/>
<path d="M128.14 210.076C127.116 209.319 126.061 208.631 124.988 207.996C120.067 199.837 113.516 192.929 106.642 186.641C99.117 179.762 90.8872 172.534 81.0005 170.294C76.8878 169.363 71.7783 169.242 68.5052 172.587C65.0884 176.078 64.2084 181.599 65.4072 186.064C68.4603 197.476 82.3923 200.986 91.7627 202.523C102.318 204.253 113.512 204.845 123.093 210.192C124.031 211.787 124.911 213.421 125.715 215.122C126.501 216.775 128.768 215.224 127.987 213.576C127.875 213.338 127.754 213.11 127.641 212.873C128.674 212.776 129.289 210.924 128.14 210.076Z" fill="#A5BA7A"/>
<path d="M78.3965 125.224C78.2797 125.335 78.1674 125.447 78.0552 125.558C93.3477 143.418 107.819 162.096 121.36 181.536C121.459 181.677 121.558 181.822 121.656 181.968C121.589 181.609 121.522 181.255 121.454 180.896C111.132 166.101 100.298 151.727 88.9477 137.833C85.477 133.586 81.9569 129.383 78.3965 125.224Z" fill="#1F2144"/>
<path d="M65.488 177.983C65.4431 178.143 65.4071 178.298 65.3667 178.458C83.4294 184.61 101.254 191.586 118.765 199.377C118.837 199.411 118.908 199.44 118.98 199.474C118.76 199.202 118.536 198.931 118.311 198.659C102.52 191.659 86.4871 185.303 70.2472 179.627C68.6623 179.074 67.0774 178.526 65.488 177.983Z" fill="#1F2144"/>
<path d="M118.316 230.035C118.204 227.659 118.064 225.288 117.903 222.923C117.791 221.289 118.064 218.468 117.126 217.091C116.26 215.816 114.32 216 113.049 215.888C110.746 215.699 108.438 215.559 106.13 215.481C101.506 215.326 96.8858 215.413 92.2702 215.714C92.0008 215.733 91.7763 215.83 91.5922 215.971C91.0804 216.053 90.6315 216.446 90.6225 217.173C90.5417 221.973 90.7482 226.767 91.2511 231.537C91.6507 235.28 91.8616 239.774 93.7922 243.046C95.8486 246.532 99.5035 246.59 102.97 246.794C107.477 247.056 111.999 246.973 116.497 246.59C116.83 246.561 117.095 246.416 117.297 246.212C117.979 246.362 118.742 245.984 118.733 245.024C118.693 240.021 118.558 235.023 118.316 230.035Z" fill="#1F2144"/>
<path d="M150.625 229.186C143.441 227.325 135.319 228.192 127.938 228.75C127.417 228.789 127.48 229.53 127.996 229.492C129.177 229.4 130.358 229.312 131.543 229.23C130.591 232.109 129.644 234.989 128.957 237.927C128.485 239.948 127.843 242.712 129.042 244.597C130.129 246.309 132.724 246.11 134.605 246.134C137.999 246.187 141.416 245.945 144.775 245.397C149.327 244.646 154.536 242.843 156.224 238.407C157.809 234.242 154.899 230.296 150.625 229.186Z" fill="#FAAC84"/>
<path d="M146.826 228.527C146.822 228.105 146.521 227.838 146.153 227.8C139.575 227.106 133.002 227.388 126.492 228.6C125.998 228.696 125.913 229.201 126.092 229.584C123.039 232.943 121.414 237.626 121.809 242.348C121.993 244.568 122.541 247.249 124 248.926C125.513 250.672 128.081 251.253 130.174 251.549C132.944 251.937 135.736 251.67 138.475 251.156C140.666 250.74 142.965 250.347 144.02 248.005C145.268 245.237 145.744 241.786 146.184 238.77C146.678 235.377 146.876 231.959 146.826 228.527Z" fill="#5F5FBB"/>
<path d="M148.061 240.205C141.061 237.655 132.899 237.728 125.5 237.568C124.979 237.558 124.979 238.305 125.5 238.315C126.68 238.339 127.866 238.363 129.051 238.397C127.861 241.17 126.68 243.953 125.756 246.808C125.118 248.776 124.247 251.472 125.284 253.459C126.227 255.268 128.827 255.321 130.699 255.534C134.071 255.912 137.497 256.004 140.886 255.781C145.484 255.476 150.822 254.182 152.87 249.93C154.796 245.935 152.228 241.723 148.061 240.205Z" fill="#FAAC84"/>
<path d="M139.759 235.576C135.539 233.423 131.103 231.872 126.55 230.902C126.55 230.544 126.335 230.204 125.908 230.253C125.298 230.321 124.673 230.374 124.04 230.432C122.231 230.132 120.408 229.918 118.572 229.797C117.894 229.753 117.75 230.636 118.136 231.048C114.809 231.562 111.595 232.526 109.049 234.829C109.071 234.209 109.098 233.583 109.134 232.963C109.188 232.032 107.841 232.032 107.787 232.963C107.576 236.695 107.598 240.433 107.935 244.156C108.178 246.832 108.564 249.552 110.198 251.69C114.077 256.761 121.095 256.252 126.564 256.451C128.279 256.514 129.989 256.577 131.7 256.635C133.155 256.693 134.892 257.047 136.32 256.693C138.579 256.131 138.915 252.819 139.468 250.837C140.482 247.196 141.457 243.536 142.296 239.847C142.916 237.122 142.022 236.729 139.759 235.576Z" fill="#5F5FBB"/>
<path d="M153.261 247.836C152.771 246.309 151.079 246.551 149.857 246.599C147.307 246.706 144.842 247.361 142.49 248.408C142.265 248.509 142.135 248.699 142.077 248.902C133.595 253.168 127.148 259.689 120.534 266.849C120.202 267.208 120.328 267.717 120.673 267.989C121.8 268.885 121.374 269.278 122.002 270.611C122.164 270.955 122.631 271.077 122.923 270.873C131.072 265.298 140.756 262.699 148.493 256.383C150.486 254.754 154.293 251.064 153.261 247.836Z" fill="#FAAC84"/>
<path d="M128.822 266.951C128.508 266.064 127.821 265.187 127.35 264.391C126.784 263.436 126.205 262.491 125.617 261.551C125.554 261.449 125.41 261.381 125.311 261.463C125.311 261.463 120.004 265.914 119.308 266.418C118.37 267.092 117.279 267.799 116.974 269.055C116.619 270.5 117.4 271.993 117.952 273.263C118.657 274.882 119.43 276.487 120.399 277.946C121.006 278.858 121.872 280.389 122.99 280.598C123.946 280.772 124.53 279.851 124.66 278.95C124.885 277.408 124.508 275.706 124.252 274.194C124.072 273.127 123.601 271.697 124.207 270.713C124.629 270.039 125.819 269.491 126.47 269.099C127.21 268.653 129.262 268.202 128.822 266.951Z" fill="#784338"/>
<path d="M135.234 234.713C133.321 233.99 131.359 233.656 129.334 233.704C129.042 233.709 129.042 234.194 129.334 234.189C131.319 234.141 133.24 234.47 135.117 235.183C135.387 235.285 135.508 234.819 135.234 234.713Z" fill="#1F2144"/>
<path d="M136.738 246.624C131.404 246.735 125.976 246.847 120.758 245.465C118.401 244.845 115.694 244.021 114.261 241.732C112.856 239.488 112.964 236.405 112.793 233.806C112.775 233.496 112.326 233.491 112.344 233.806C112.51 236.347 112.456 239.192 113.606 241.495C114.715 243.725 116.91 244.757 119.048 245.465C124.763 247.351 130.829 247.23 136.738 247.109C137.03 247.104 137.03 246.619 136.738 246.624Z" fill="#1F2144"/>
<path d="M162.523 188.333C160.144 207.453 159.021 226.2 156.327 245.431C156.255 245.945 156.772 246.406 157.225 246.401C158.15 246.386 157.18 246.41 158.105 246.401C158.509 246.396 158.851 246.1 158.967 245.688C161.661 236.424 168.787 200.181 171.368 188.062C171.472 187.582 162.595 187.751 162.523 188.333Z" fill="#1F2144"/>
<path d="M381.382 164.104C381.09 156.269 376.973 149.797 369.425 148.944C367.54 148.731 365.641 148.813 363.764 149.138C369.717 136.902 372.802 123.27 365.955 110.447C361.433 101.978 353.069 97.8671 344.516 96.0201C334.068 93.761 323.153 93.2665 312.539 92.709C289.138 91.4825 265.665 92.1078 242.268 93.1453C231.232 93.6349 220.191 94.4009 209.263 96.2092C199.462 97.8332 189.35 100.044 180.469 104.998C170.928 110.316 164.863 118.863 162.088 130.023C160.494 136.417 159.43 143.049 158.693 149.734C142.723 146.423 127.139 159.008 126.191 176.868C125.922 181.944 127.085 186.942 128.54 191.727C130.156 197.045 131.92 202.314 133.618 207.599C135.328 212.926 136.963 218.293 138.754 223.587C139.342 225.342 140.029 227.053 141.641 227.964C143.383 228.944 145.695 228.793 147.59 228.9C158.24 229.496 168.912 229.075 179.558 228.609C190.262 228.144 200.961 227.722 211.67 227.378C233.091 226.689 254.521 226.263 275.955 226.108C297.96 225.953 319.97 226.079 341.97 226.481C342.145 226.699 342.379 226.879 342.688 226.985C346.042 228.144 349.769 227.785 352.782 225.744C356.194 223.427 358.174 219.287 360.23 215.695C365.142 207.114 369.771 198.339 374.095 189.395C377.862 181.619 381.723 173.116 381.382 164.104Z" fill="#997777"/>
<path d="M339.698 174.192C336.42 171.981 332.474 171.302 328.716 170.692C317.9 168.922 307.003 167.72 296.088 166.959C274.06 165.432 251.966 165.693 229.925 166.673C219.028 167.158 208.136 167.817 197.252 168.525C186.472 169.232 175.625 169.683 164.916 171.264C160.354 171.938 155.434 172.539 151.168 174.521C149.561 175.268 148.03 176.305 146.903 177.774C145.511 179.592 144.995 181.861 144.824 184.169C144.397 189.933 144.613 195.833 144.662 201.611C144.716 207.608 144.869 213.61 145.116 219.602C145.237 222.559 145.385 225.511 145.556 228.469C145.574 228.774 146.023 228.788 146.005 228.478C145.345 216.901 145.035 205.301 145.098 193.704C145.111 190.888 145.102 188.062 145.215 185.25C145.322 182.52 145.771 179.772 147.558 177.706C150.468 174.332 155.232 173.523 159.228 172.728C169.725 170.643 180.433 170.129 191.07 169.422C201.657 168.714 212.248 168.035 222.844 167.492C244.086 166.411 265.368 165.892 286.619 166.896C297.179 167.395 307.725 168.268 318.218 169.635C323.184 170.284 328.253 170.832 333.138 172.025C336.86 172.931 340.928 174.56 342.881 178.371C345.342 183.151 343.653 189.521 342.45 194.446C341.13 199.847 339.334 205.097 337.601 210.352C335.845 215.69 334.086 221.022 332.33 226.355C332.487 226.36 332.644 226.36 332.801 226.365C333.798 223.344 334.79 220.324 335.787 217.304C337.597 211.806 339.482 206.333 341.162 200.787C342.737 195.595 344.39 190.025 344.525 184.518C344.628 180.252 343.101 176.485 339.698 174.192Z" fill="#755B5B"/>
<path d="M341.871 194.019C316.256 194.141 290.646 194.373 265.036 194.722C239.426 195.071 213.815 195.532 188.21 196.109C173.878 196.434 159.546 196.793 145.21 197.185C144.923 197.195 144.923 197.68 145.21 197.67C170.816 196.967 196.422 196.376 222.032 195.9C247.638 195.421 273.248 195.062 298.863 194.815C313.199 194.674 327.535 194.572 341.871 194.504C342.158 194.499 342.158 194.015 341.871 194.019Z" fill="#755B5B"/>
<path d="M354.537 155.818C357.042 153.133 359.947 150.864 363.216 149.39C363.409 149.303 363.606 149.235 363.799 149.153C363.786 149.153 363.773 149.157 363.764 149.157C363.862 148.949 363.966 148.736 364.064 148.522C363.966 148.566 363.862 148.595 363.764 148.639C360.275 150.064 357.168 152.381 354.505 155.174C351.744 158.063 349.463 161.432 347.456 164.961C346.37 166.867 345.364 168.825 344.385 170.798C343.424 172.737 342.419 174.672 341.75 176.751C341.655 177.047 342.077 177.202 342.176 176.907C343.465 172.902 345.678 169.034 347.721 165.422C349.67 161.97 351.874 158.669 354.537 155.818Z" fill="#755B5B"/>
<path d="M156.754 149.409C159.43 150.655 161.859 152.386 163.673 154.994C166.784 159.464 167.718 165.499 166.048 170.798C165.953 171.094 166.389 171.22 166.479 170.924C168.189 165.509 167.228 159.323 164.059 154.747C162.501 152.493 160.498 150.874 158.28 149.657C157.768 149.555 157.261 149.477 156.754 149.409Z" fill="#755B5B"/>
<path d="M147.514 217.125C141.573 211.487 137.313 204.249 135.122 196.041C135.009 195.61 134.524 195.629 134.327 195.896C132.881 194.34 130.749 197.791 130.223 199.091C128.773 202.688 130.3 206.905 132.109 209.998C134.058 213.324 136.778 216.029 139.715 218.322C140.64 219.044 142.431 220.95 143.59 220.969C144.923 220.993 146.571 218.661 147.514 217.808C147.689 217.648 147.684 217.285 147.514 217.125Z" fill="#FAAC84"/>
<path d="M296.784 253.673C296.056 253.159 295.383 254.414 296.101 254.928C296.873 255.481 297.601 256.131 298.256 256.848C298.184 256.911 298.117 256.974 298.054 257.042C297.964 257.052 297.87 257.086 297.776 257.144C290.861 261.623 283.152 261.231 275.403 262.132C271.928 262.539 269.499 263.664 266.05 264.294C262.683 264.91 258.207 263.034 255.329 265.143C254.92 265.443 254.929 267.989 255.387 268.275C265.871 274.776 278.999 277.117 290.956 275.474C295.607 274.834 300.829 272.55 302.423 267.315C304.093 261.807 300.91 256.615 296.784 253.673Z" fill="#FAAC84"/>
<path d="M309.014 247.23C307.398 244.874 304.596 244.239 302.077 243.754C298.265 243.022 294.404 242.702 290.534 242.721C289.824 242.726 289.555 243.453 289.712 244.016C285.339 245.615 282.245 251.447 285.114 256.087C286.645 258.564 289.999 258.584 292.473 258.874C296.294 259.316 300.2 259.282 304.003 258.661C306.459 258.259 308.089 257.255 309.104 254.72C310.074 252.296 310.559 249.479 309.014 247.23Z" fill="#1F2144"/>
<path d="M136.415 196.051C136.024 194.495 135.629 192.934 135.153 191.407C133.694 186.743 130.605 181.915 125.491 182.375C124.633 182.453 124.629 183.912 125.491 183.83C127.709 183.631 129.451 184.566 130.802 186.045C130.757 186.137 130.721 186.239 130.712 186.35L130.623 187.233C130.587 187.611 130.784 187.829 131.04 187.902C131.426 191.378 131.646 194.858 131.691 198.363C131.696 198.596 131.79 198.775 131.925 198.897C131.386 199.444 130.802 199.944 130.138 200.39C129.527 200.807 129.918 202.038 130.659 201.718C131.92 201.175 133.168 200.603 134.39 199.953C135.059 199.6 136.208 199.202 136.585 198.412C136.944 197.67 136.599 196.773 136.415 196.051Z" fill="#F5E4D5"/>
<path d="M14.4695 52.7579C10.0021 59.4576 5.43593 66.4143 3.46488 74.5151C2.57588 78.1558 2.20773 81.9663 2.62978 85.7137C2.97101 88.7387 3.72078 92.4571 6.09592 94.4398C8.04004 96.059 10.7385 96.1415 12.4671 94.1102C14.6132 91.5796 14.016 87.8419 13.8948 84.7247C13.5356 75.2762 14.2451 65.8325 15.9422 56.5586C16.0814 55.812 15.4842 55.3272 14.9454 55.3466C15.3046 54.8085 15.6638 54.2704 16.0185 53.7371C16.6965 52.719 15.1385 51.7495 14.4695 52.7579Z" fill="#FAAC84"/>
<path d="M240.207 70.9618C239.762 69.7692 238.999 68.9208 238.16 68.0725C237.675 67.578 237.58 67.7428 237.14 67.0108C236.718 66.3127 237.167 66.3709 236.543 65.7164C235.901 65.0426 235.12 65.2801 234.451 64.7177C233.679 64.0729 233.445 63.0695 232.381 62.5556C230.284 61.5472 228.075 62.3519 226.19 63.5057C224.304 64.6595 221.929 64.4705 220.856 66.8654C220.613 67.4035 220.564 67.9901 220.375 68.5427C220.083 69.3765 219.495 69.9583 219.154 70.7388C218.754 71.6502 218.754 72.2416 219.145 73.1385C219.338 73.5845 219.854 73.3712 219.944 72.9882C222.333 74.1323 224.793 73.8463 227.375 73.8366C230.608 73.8269 233.863 74.811 237.091 74.3165C238.883 74.045 241.056 73.2694 240.207 70.9618Z" fill="#1F2144"/>
<path d="M233.944 71.2961C228.255 68.8382 221.215 71.7566 215.638 73.5988C212.733 74.5587 207.795 83.5273 204.09 90.004C203.489 91.056 205.303 91.6765 205.675 90.5227C205.702 90.4452 205.729 90.3676 205.752 90.29C208.441 91.4729 211.342 91.8413 214.184 92.2049C217.686 92.6557 221.206 92.8739 224.726 92.8691C226.423 92.8642 228.116 92.8061 229.808 92.6946C231.012 92.617 232.547 92.7673 233.661 92.1128C235.659 90.9396 237.315 86.9159 238.119 84.6374C239.969 79.3872 238.748 73.371 233.944 71.2961Z" fill="#784338"/>
<path d="M200.086 130.294C199.646 131.22 199.219 132.151 198.797 133.087C198.738 133.155 198.689 133.242 198.658 133.348C198.635 133.416 198.617 133.484 198.595 133.547C198.388 134.008 198.195 134.473 197.998 134.934C198.343 133.508 198.68 132.078 199.008 130.648C199.25 129.582 199.834 128.113 198.739 127.415C198.352 127.167 197.899 127.298 197.719 127.754C197.495 128.316 197.279 128.879 197.073 129.446C197.181 129.044 197.284 128.641 197.396 128.234C197.638 127.342 196.377 126.833 196.13 127.73C194.428 133.988 192.736 140.257 191.241 146.578C190.536 149.55 189.911 152.556 189.637 155.615C189.539 156.696 189.202 158.858 190.603 159.265C191.963 159.658 192.727 157.694 193.203 156.735C194.437 154.257 195.322 151.596 196.247 148.973C198.357 142.976 200.341 136.941 201.388 130.609C201.536 129.732 200.4 129.63 200.086 130.294Z" fill="#FAAC84"/>
<path d="M243.668 98.7494C243.085 97.3774 241.814 96.9266 240.543 96.6018C238.061 95.9667 235.519 95.7485 232.978 95.8116C232.17 95.8309 231.927 96.786 232.251 97.3484C230.774 98.4973 229.395 100.01 229.629 102.128C229.732 103.093 230.176 103.83 230.814 104.489C232.282 106.012 233.27 106.147 232.529 108.925C231.609 112.372 229.548 115.64 227.99 118.781C226.544 121.695 225.224 124.647 224.326 127.817C224.173 128.36 224.515 128.816 224.955 129.01C228.434 130.537 229.202 125.316 230.899 122.829C233.912 118.408 238.276 114.238 240.912 109.546C242.501 106.71 245.155 102.216 243.668 98.7494Z" fill="#FAAC84"/>
<path d="M232.111 118.606C231.335 117.807 230.504 117.06 229.656 116.347C229.664 116.333 229.287 116.115 229.13 116.372C228.021 118.228 227.078 119.77 225.974 121.622C225.004 123.246 223.707 124.923 223.051 126.727C222.782 127.463 222.75 128.21 222.71 128.991C222.651 130.149 222.4 131.162 221.942 132.21C221.291 133.688 220.191 135.181 219.984 136.844C219.886 137.654 220.236 138.633 221.138 138.541C222.234 138.424 223.132 136.791 223.698 135.918C225.902 132.51 228.044 129.039 230.118 125.539C230.738 124.501 231.339 123.454 231.932 122.397C232.273 121.777 232.87 121.026 232.974 120.289C233.081 119.542 232.569 119.077 232.111 118.606Z" fill="#F5E4D5"/>
<path d="M196.484 148.901C196.592 148.779 196.601 148.566 196.417 148.513C195.362 148.217 194.303 147.95 193.238 147.718C192.578 147.572 191.51 147.112 190.863 147.398C190.791 147.432 190.755 147.49 190.742 147.553C190.72 147.582 190.702 147.611 190.688 147.655C190.203 149.788 189.714 151.916 189.224 154.044C188.816 155.819 188.214 157.724 188.506 159.571C188.757 161.146 189.507 162.853 190.239 164.23C190.872 165.427 191.761 166.649 192.987 167.172C193.777 167.512 194.832 167.429 194.989 166.338C195.07 165.781 194.823 165.272 194.522 164.836C194.24 164.424 193.858 164.084 193.66 163.604C193.427 163.027 193.108 160.841 193.144 160.235C193.409 155.794 194.823 152.992 196.48 148.93C196.485 148.915 196.484 148.91 196.484 148.901Z" fill="#F5E4D5"/>
<path d="M254.453 107.349C254.404 107.325 254.354 107.311 254.305 107.301C254.803 105.657 255.383 104.043 256.097 102.468C256.604 101.353 255.055 100.368 254.543 101.488C250.879 109.565 250.511 118.601 248.149 127.109C246.933 131.501 245.123 135.7 242.142 139.03C239.071 142.458 235.829 145.492 232.974 149.162C232.237 150.112 230.706 151.392 230.76 152.75C230.805 153.879 231.703 154.519 232.682 154.694C235.793 155.251 239.439 152.328 241.926 150.709C244.935 148.755 247.952 146.607 250.309 143.762C252.868 140.669 254.143 137.067 254.92 133.048C255.98 127.584 256.9 122.063 257.663 116.546C258.166 112.905 257.996 108.959 254.453 107.349Z" fill="#FAAC84"/>
<path d="M280.818 76.2796C280.499 72.4013 279.52 68.2031 278.061 64.6448C277.096 62.2741 275.52 60.2914 273.261 59.4915C273.086 59.06 272.588 58.8031 272.228 59.2297C271.77 59.2346 271.492 59.7242 271.546 60.1314C269.755 62.5408 268.255 65.0083 267.932 68.2079C267.698 70.5543 267.81 72.828 266.818 75.0095C266.167 76.4445 265.247 77.7195 264.748 79.2368C264.012 81.4862 264.223 84.4095 266.508 85.5148C267.671 86.0772 268.619 85.7572 269.71 86.5571C270.639 87.2407 271.29 87.837 272.493 87.9194C275.614 88.1375 276.4 84.9913 278.609 83.406C280.979 81.7044 281.065 79.295 280.818 76.2796Z" fill="#784338"/>
<path d="M269.925 85.9074C266.917 86.6249 263.886 87.4005 261.116 88.8985C258.44 90.3529 256.478 92.5441 254.677 95.0941C252.442 98.2694 250.488 101.673 248.872 105.26C248.23 106.681 245.63 110.806 247.399 112.105C248.329 112.789 249.972 112.59 251.023 112.648C252.944 112.745 254.893 112.769 256.81 112.585C259.064 112.367 262.441 112.003 263.819 109.739C264.676 108.338 264.838 106.254 265.17 104.664C265.561 102.802 265.893 100.926 266.122 99.0306C266.356 97.0672 266.481 95.0892 266.432 93.1065C266.396 91.7297 266.481 89.7857 265.88 88.501C267.321 88.0356 268.807 87.6623 270.28 87.3084C271.128 87.1048 270.769 85.7038 269.925 85.9074Z" fill="#F5E4D5"/>
<path d="M39.7701 228.667C40.6276 236.584 43.9367 256.45 43.9367 256.45C43.9367 256.45 43.793 257.522 44.7628 257.231C46.5408 256.693 45.9661 256.678 47.6274 255.825C48.0674 255.597 48.3098 254.938 48.2873 254.443C48.0898 250.405 49.0552 227.16 49.0552 227.16C49.0552 227.16 39.6668 227.693 39.7701 228.667Z" fill="#FAAC84"/>
<path d="M44.9738 254.565C44.6146 254.371 44.4575 253.217 43.784 253.3C43.2542 254.337 42.4101 255.52 41.0632 256.48C39.7117 257.445 37.6328 258.385 35.4912 259.059C33.2552 259.767 32.9051 259.883 33.1835 261.366C33.3945 262.486 35.4194 262.617 37.2782 262.389C40.8431 261.948 44.3722 261.483 47.9371 261.042C50.0339 260.78 48.202 254.836 48.2155 254.075C47.542 254.206 46.7294 255.53 44.9738 254.565Z" fill="#F5E4D5"/>
<path d="M49.9935 259.669C49.7241 259.029 48.9833 259.277 48.5029 259.369C46.0828 259.82 44.5204 260.111 42.1003 260.591C41.7367 259.282 41.0811 258.089 40.1293 257.158C39.8195 256.853 39.4647 256.494 39.0382 256.45C38.2929 256.368 37.2019 257.085 36.5284 257.405C35.415 257.944 33.601 258.68 33.0442 259.999C32.5997 261.037 33.17 261.895 33.9512 262.394C33.9782 262.442 34.014 262.486 34.0769 262.51C34.1308 262.525 34.1802 262.539 34.2341 262.554C34.3238 262.598 34.4092 262.641 34.499 262.675C34.5573 262.699 34.6067 262.69 34.6516 262.665C35.6529 262.888 36.6586 262.806 37.6958 262.699C39.182 262.544 40.6636 262.355 42.1408 262.137C43.5461 261.933 44.9514 261.71 46.3522 261.468C47.1559 261.332 48.8486 261.027 49.2886 260.77C49.6792 260.537 50.209 260.174 49.9935 259.669Z" fill="#5F5FBB"/>
<path d="M43.097 251.157C43.6089 254.322 43.9636 256.47 43.9636 256.47C43.9636 256.47 43.82 257.541 44.7943 257.25C46.5678 256.712 45.993 256.698 47.6543 255.844C48.0943 255.616 48.3413 254.957 48.3143 254.463C48.2784 253.716 48.2829 252.305 48.3143 250.512C46.5723 250.73 44.8346 250.943 43.097 251.157Z" fill="#F5E4D5"/>
<path d="M6.88171 224.949C7.73927 232.866 11.0483 252.732 11.0483 252.732C11.0483 252.732 10.9046 253.808 11.8744 253.513C13.6524 252.974 13.0777 252.965 14.739 252.107C15.179 251.879 15.4214 251.22 15.399 250.725C15.2014 246.687 16.1668 223.441 16.1668 223.441C16.1668 223.441 6.77844 223.975 6.88171 224.949Z" fill="#FAAC84"/>
<path d="M12.0855 250.851C11.7263 250.652 11.5691 249.498 10.8956 249.581C10.3658 250.618 9.52177 251.806 8.17481 252.761C6.82336 253.726 4.74448 254.666 2.60281 255.345C0.366852 256.048 0.0167118 256.169 0.295084 257.648C0.506108 258.768 2.531 258.903 4.38981 258.671C7.95477 258.229 11.4838 257.764 15.0488 257.323C17.1455 257.061 15.3136 251.118 15.3271 250.357C14.6536 250.487 13.841 251.811 12.0855 250.851Z" fill="#F5E4D5"/>
<path d="M57.2895 156.706C57.4421 151.325 58.6679 140.175 58.4883 134.798C58.3985 132.205 57.0425 135.128 56.6115 132.573C56.3825 131.23 55.7495 130.319 54.6046 129.742C52.8176 128.836 50.5772 128.613 48.6375 128.288C46.3657 127.91 44.0489 127.706 41.7591 128.021C39.6399 128.312 37.5969 129.034 35.8414 130.246C34.4765 126.974 30.4311 126.101 27.6249 125.219C23.0767 123.784 18.3848 123.149 13.675 123.236C13.9668 121.923 14.2586 120.614 14.555 119.305C14.8243 118.098 13.2125 117.579 12.9431 118.791L6.1589 149.007C3.71192 163.076 2.60287 172.369 3.1192 177.033C3.68044 182.114 3.84661 186.961 3.26293 192.047C2.72864 196.725 1.86655 201.35 1.47593 206.047C1.0898 210.638 1.62864 209.097 2.45028 213.586C2.9307 216.204 3.16415 218.71 3.03844 221.381C2.91721 223.873 2.71066 226.331 2.88576 228.827C3.07883 231.596 3.04293 235.823 6.04665 236.123C6.48666 236.167 6.93112 236.187 7.38011 236.191C7.42949 236.919 7.48339 237.646 7.55523 238.368C7.63156 239.134 7.63606 241.456 8.17934 242.062C9.3467 243.371 12.6063 242.668 14.0251 242.474C15.8435 242.227 16.7639 242.145 16.8582 240.104C16.9435 238.295 16.8852 236.473 16.7325 234.664C19.3995 232.89 19.7182 228.813 19.8664 225.623C20.0909 220.639 19.4444 215.685 19.1705 210.726C18.8786 205.5 19.3097 206.634 20.2616 201.549C21.1012 197.064 20.7375 192.706 20.8183 188.168C21.0069 178.129 25.3127 169.029 28.8552 160.25C30.6107 155.887 32.3797 149.89 32.4471 149.744C31.3246 169.378 35.0916 176.025 35.8683 184.285C36.7528 193.705 35.3655 203.139 35.0781 212.544C35.0153 214.609 34.9793 216.674 35.2622 218.725C35.5765 221.003 36.4835 223.112 36.7978 225.39C37.13 227.771 36.883 230.156 36.7663 232.541C36.6765 234.339 36.4116 236.55 37.1165 238.252C37.7496 239.769 39.092 240.307 40.5827 240.438C40.6725 241.466 40.7668 242.498 40.8611 243.526C40.924 244.19 40.8566 245.446 41.2472 246.033C42.1676 247.409 45.5934 246.575 46.8505 246.377C49.4322 245.974 49.6432 245.674 49.7689 243.318C49.8318 242.149 49.8363 240.966 49.8049 239.793C50.7837 239.357 51.5918 238.155 52.0094 236.87C53.2037 233.22 52.8086 228.638 52.5706 224.857C52.2833 220.266 52.7099 201.99 54.2634 197.539C55.7001 193.419 57.1548 161.384 57.2895 156.706Z" fill="#5F5FBB"/>
<path d="M70.2203 57.4167C69.9015 54.6486 69.5468 51.4199 68.0741 49.0978C66.588 46.7514 64.0377 45.2776 61.8601 43.9396C59.1842 42.2865 56.4005 40.8322 53.6212 39.4263C48.386 36.7842 42.8231 34.6366 37.0805 36.1976C36.9279 36.2412 36.8156 36.3237 36.7438 36.4352C36.5687 36.2994 36.3442 36.2655 36.1063 36.4206C28.4016 41.5206 16.2431 41.4721 12.6512 50.4406C11.6095 53.0488 6.13637 62.3324 5.35513 64.9842C4.81634 66.8167 2.61631 69.803 3.49183 71.65C4.23715 73.2255 5.91187 73.371 7.26332 73.9527C13.2618 75.538 18.1692 76.0131 17.8145 79.649C17.4957 82.9358 15.7491 91.5068 15.3765 94.784C14.6222 101.372 13.8724 107.96 13.1181 114.549C12.723 118.039 12.3773 121.539 11.8924 125.015C11.4568 128.137 10.4781 131.065 9.95725 134.149C9.71479 135.598 9.89437 136.471 11.174 137.014C13.4593 137.978 16.5215 137.804 18.9056 137.872C30.3727 138.177 41.7051 139.733 53.1094 141.1C54.8155 141.304 56.9572 141.881 58.4883 140.635C59.9609 139.428 60.1271 137.217 60.3067 135.332C60.9577 128.632 61.5548 121.922 62.1789 115.218C63.3777 102.376 64.572 89.5337 65.7663 76.6918C67.3064 76.4639 70.0407 77.5596 70.9072 76.3815C72.2273 74.5878 70.6154 60.8538 70.2203 57.4167Z" fill="#1F2144"/>
<path d="M47.5331 23.6512C47.4657 22.9725 47.4657 22.2696 47.5376 21.5084C47.6812 19.9717 47.8114 18.7209 47.2547 17.2666C46.24 14.6003 43.9052 12.7096 41.9073 10.9401C41.0856 10.2129 40.7579 9.2773 40.7758 8.36106C38.8272 7.85203 36.8247 7.59513 34.8357 7.38183C33.5292 7.24124 32.0655 6.93579 30.6961 6.96488C30.4043 6.99397 30.1124 7.01821 29.8206 7.0376C29.7532 7.04729 29.6903 7.05214 29.6275 7.06184C29.6275 7.05699 29.6275 7.05215 29.6275 7.0473C29.4613 7.057 29.2997 7.0667 29.1336 7.07154C29.0079 7.07154 29.394 6.72252 29.2863 6.70312C27.1805 9.64577 27.5666 14.4015 27.8764 17.8241C28.267 22.1435 28.4602 24.7129 29.9283 29.2699C30.7994 31.975 32.5144 33.7541 35.4014 34.0499C36.8876 34.2001 44.1881 31.4029 47.5241 28.9111C47.2996 28.4409 47.1874 27.8834 47.2457 27.2532C47.3535 26.0509 47.4478 24.8535 47.5331 23.6512Z" fill="#FAAC84"/>
<path d="M37.7182 37.9962C38.917 38.3646 40.1697 38.4664 41.4089 38.5343C43.5191 38.6409 45.5171 38.51 47.3848 37.715C47.4971 33.1725 47.6094 28.6301 47.7171 24.0876C47.7485 22.8563 45.8448 22.7108 45.7505 23.8937C41.9701 23.6222 39.8194 23.2974 36.1782 22.1873C35.4194 21.9546 34.8986 22.5605 34.9165 23.2877C35.0647 28.6398 35.2084 32.5568 35.5227 37.2011C36.0704 37.5356 37.386 37.8944 37.7182 37.9962Z" fill="#FAAC84"/>
<path d="M17.1051 255.951C16.8357 255.316 16.0949 255.563 15.6145 255.651C13.1944 256.106 11.632 256.397 9.21193 256.872C8.84826 255.563 8.19272 254.376 7.24086 253.44C6.93106 253.135 6.57633 252.776 6.14979 252.732C5.40447 252.655 4.3135 253.367 3.64002 253.692C2.52653 254.225 0.712555 254.967 0.155811 256.281C-0.288686 257.318 0.28158 258.181 1.06282 258.681C1.08976 258.729 1.12562 258.768 1.18848 258.792C1.24236 258.812 1.29175 258.821 1.34563 258.841C1.43542 258.879 1.52075 258.923 1.61055 258.957C1.66892 258.981 1.71832 258.972 1.76322 258.952C2.76446 259.175 3.77023 259.088 4.80739 258.981C6.29354 258.831 7.77519 258.637 9.25236 258.424C10.6577 258.22 12.063 257.992 13.4638 257.755C14.2675 257.619 15.9602 257.314 16.4002 257.052C16.7908 256.819 17.3206 256.46 17.1051 255.951Z" fill="#5F5FBB"/>
<path d="M10.2087 247.443C10.7206 250.609 11.0753 252.756 11.0753 252.756C11.0753 252.756 10.9316 253.828 11.9059 253.532C13.6794 252.999 13.1047 252.984 14.766 252.126C15.206 251.898 15.453 251.239 15.426 250.745C15.3901 249.998 15.3946 248.592 15.426 246.793C13.684 247.012 11.9463 247.225 10.2087 247.443Z" fill="#F5E4D5"/>
<path d="M31.1406 20.7384C31.2753 21.4508 31.1001 22.0856 30.7454 22.168C30.3907 22.2455 29.9956 21.7366 29.8564 21.0243C29.7217 20.3167 29.8968 19.677 30.2515 19.5947C30.6062 19.5171 31.0059 20.0308 31.1406 20.7384Z" fill="#1F2144"/>
<path d="M38.9798 20.6509C39.0203 21.3778 38.7643 21.9836 38.4051 22.0078C38.0414 22.032 37.7136 21.4699 37.6687 20.743C37.6283 20.021 37.8843 19.4152 38.2435 19.391C38.6072 19.3619 38.9349 19.9289 38.9798 20.6509Z" fill="#1F2144"/>
<path d="M35.334 25.3381C34.9434 25.5853 34.3463 25.9053 33.8704 25.8035C33.0846 25.6435 33.17 24.8824 33.143 24.2571C33.0936 23.2197 33.1206 22.1774 33.143 21.14C33.1475 20.8298 32.6985 20.8298 32.694 21.14C32.6716 22.1774 32.6581 23.2197 32.694 24.2571C32.7075 24.7661 32.7075 25.3769 32.9634 25.8278C33.4843 26.7537 34.8985 26.1768 35.5585 25.755C35.8055 25.5951 35.581 25.1781 35.334 25.3381Z" fill="#DB745E"/>
<path d="M36.9907 27.9424C35.8548 28.7857 34.5034 29.0619 33.4303 28.6209C33.327 28.5821 32.9947 28.8583 33.0351 28.9892C33.6592 30.9179 37.3903 30.3945 37.2736 28.175C37.2646 28.02 37.1164 27.8504 36.9907 27.9424Z" fill="#DB745E"/>
<path d="M41.0317 16.9134C39.77 16.4288 36.8157 15.9394 35.9132 18.1636C35.8683 18.2847 35.8729 18.3962 35.9223 18.5028C36.048 18.7693 36.0973 18.7209 36.3128 18.7742C36.5643 18.8372 36.8831 18.6385 37.139 18.5755C37.6329 18.4543 38.1268 18.3817 38.6251 18.3768C39.3121 18.372 39.9856 18.4834 40.6636 18.5852C41.0452 18.6433 41.4313 18.7887 41.6872 18.3429C41.988 17.8292 41.5795 17.1217 41.0317 16.9134Z" fill="#784338"/>
<path d="M27.7147 16.9329C27.8089 17.5386 27.9077 18.1201 28.002 18.6677C28.002 18.6774 28.0065 18.687 28.0065 18.6967C28.5543 18.6143 29.102 18.5465 29.6543 18.5514C30.1526 18.5514 30.6421 18.624 31.1405 18.7452C31.3964 18.8082 31.7106 19.0069 31.9665 18.9439C32.1821 18.8906 32.2315 18.939 32.3572 18.6774C32.4066 18.5708 32.4111 18.4545 32.3617 18.3382C31.5625 16.3563 29.129 16.5308 27.7147 16.9329Z" fill="#784338"/>
<path d="M51.8838 10.3778C52.0634 8.94767 51.9332 7.11516 51.1205 5.96137C50.7658 5.4572 50.3078 5.18574 49.8094 4.92396C48.7857 4.37615 48.3906 3.83317 47.6992 2.81027C46.8147 1.5062 45.4542 0.895393 44.1028 0.623913C43.3754 0.473631 42.6166 0.38637 41.8578 0.381521C41.6019 0.279716 41.3325 0.20216 41.0541 0.148834C38.8945 -0.263233 36.6541 0.163359 34.8401 1.63226C33.6458 2.60667 32.7659 3.25142 31.3202 3.65864C30.4177 3.91558 29.6454 4.24524 28.9405 4.97727C28.1503 5.79655 27.6833 6.81459 27.4947 7.92475C27.0862 9.45182 27.0413 11.231 27.9841 11.6576C28.4825 11.8806 29.2009 11.4346 29.6454 11.2165C31.392 10.339 32.7209 9.42274 34.5708 11.0128C35.3071 11.6431 35.6842 12.7629 36.2994 13.5531C36.5598 13.8925 36.937 14.2173 37.2962 14.479C38.2749 15.2014 39.1864 14.1543 40.0125 15.2014C40.8117 16.2146 41.1485 18.7306 42.7469 18.6288C42.8008 18.624 43.4069 18.1295 43.6449 18.0131C44.2734 17.698 45.4228 18.1683 45.6922 19.0312C45.9302 19.802 45.9526 21.8235 45.8583 22.5992C45.544 25.1492 46.5723 25.8279 47.6857 27.9027C47.7755 28.0676 48.0179 28.0579 48.0583 27.8446C48.3188 26.4775 50.6041 16.7575 50.5996 15.5213C50.5861 13.8973 51.3135 12.6708 51.6547 11.2552C51.7625 10.9983 51.8434 10.7268 51.8838 10.3778Z" fill="#784338"/>
<path d="M27.414 62.4342C27.396 62.1821 27.3332 61.9446 27.2209 61.7361C26.9964 61.3046 26.6821 61.1447 26.3454 61.1447C26.4082 60.563 26.2511 60.02 25.7303 59.7631C25.4789 59.6419 25.169 59.6564 24.8906 59.7534C24.7425 59.3607 24.4686 59.0261 24.042 58.8274C23.5661 58.5995 23.0453 58.6432 22.5739 58.8613C22.3359 58.9777 22.0486 59.2152 21.7568 59.414C21.6221 59.0116 21.3796 58.7062 20.9755 58.6092C19.1885 58.1778 18.4117 61.0913 17.9583 62.3275C17.9358 62.3954 17.9403 62.4536 17.9583 62.5069C17.5227 63.7286 17.1726 64.9745 16.7057 66.1865C11.888 71.5239 8.97405 74.6265 6.57197 82.1068C5.48093 85.51 4.93318 88.3023 5.66952 91.8897C6.19034 94.4155 8.20182 96.6988 10.7386 95.579C13.9129 94.1731 17.3657 84.3756 20.6612 70.2392C21.4425 69.6672 21.7253 69.9774 22.6502 69.5411C23.0273 68.9255 24.9805 66.1234 25.5776 65.5805C25.4968 66.041 25.434 66.5016 25.4429 66.9379C25.4474 67.2384 25.4339 67.5826 25.7617 67.6893C26.4262 67.9123 27.0592 66.201 27.2074 65.7792C27.4319 65.1442 27.9169 63.205 27.414 62.4342Z" fill="#FAAC84"/>
<path d="M233.809 170.377C233.126 169.456 232.138 169.019 231.169 168.564C229.458 167.764 227.73 167.012 226.01 166.246C226.481 165.514 226.953 164.782 227.429 164.055C227.927 163.289 226.76 162.557 226.266 163.323C222.62 168.932 218.961 174.57 216.078 180.693C213.223 186.758 211.508 193.234 209.932 199.789C206.596 213.678 204.261 227.824 202.869 242.091C202.838 242.392 203.098 242.726 203.363 242.789C204.746 243.129 205.451 243.235 206.834 243.575C207.202 243.662 207.543 243.453 207.664 243.066C212.414 227.567 216.595 212.238 223.451 197.694C226.549 191.13 232.094 185.08 233.939 177.949C234.55 175.593 235.398 172.519 233.809 170.377Z" fill="#FAAC84"/>
<path d="M252.069 173.445C251.387 172.529 250.399 172.088 249.425 171.637C247.718 170.837 245.99 170.086 244.266 169.315C244.737 168.583 245.213 167.856 245.684 167.124C246.183 166.358 245.016 165.631 244.522 166.392C240.88 172.006 237.217 177.644 234.334 183.766C231.483 189.826 229.768 196.303 228.192 202.862C224.852 216.746 222.521 230.897 221.125 245.16C221.098 245.46 221.354 245.795 221.619 245.863C223.002 246.202 223.585 246.323 224.968 246.658C225.336 246.75 225.678 246.541 225.794 246.153C230.549 230.655 235.34 215.835 242.196 201.291C245.294 194.727 250.35 188.149 252.199 181.023C252.805 178.662 253.658 175.588 252.069 173.445Z" fill="#FAAC84"/>
<path d="M203.749 245.034C203.39 244.835 203.233 243.681 202.559 243.763C202.03 244.801 201.181 245.989 199.839 246.944C198.483 247.909 196.404 248.849 194.262 249.528C192.031 250.231 191.681 250.352 191.959 251.831C192.17 252.95 194.195 253.086 196.049 252.854C199.618 252.412 203.148 251.947 206.712 251.506C208.805 251.244 206.973 245.3 206.991 244.539C206.313 244.67 205.5 245.994 203.749 245.034Z" fill="#F5E4D5"/>
<path d="M208.764 250.133C208.495 249.498 207.754 249.746 207.274 249.833C204.854 250.289 203.291 250.58 200.876 251.055C200.507 249.746 199.852 248.558 198.9 247.622C198.59 247.317 198.24 246.958 197.814 246.915C197.064 246.837 195.977 247.55 195.304 247.874C194.186 248.408 192.376 249.149 191.815 250.463C191.375 251.501 191.941 252.364 192.726 252.863C192.749 252.911 192.789 252.95 192.852 252.974C192.902 252.994 192.956 253.003 193.009 253.023C193.095 253.062 193.185 253.105 193.27 253.139C193.333 253.163 193.382 253.154 193.422 253.134C194.424 253.357 195.434 253.27 196.467 253.163C197.953 253.013 199.434 252.819 200.912 252.606C202.321 252.402 203.722 252.174 205.123 251.937C205.931 251.801 207.624 251.496 208.059 251.234C208.45 251.001 208.98 250.643 208.764 250.133Z" fill="#D95F5F"/>
<path d="M203.026 240.763C202.389 243.899 201.967 246.033 201.967 246.033C201.967 246.033 201.455 246.968 202.46 247.094C204.292 247.322 203.767 247.075 205.603 246.963C206.088 246.934 206.546 246.42 206.699 245.955C206.928 245.247 207.426 243.948 208.082 242.295C206.398 241.786 204.714 241.272 203.026 240.763Z" fill="#F5E4D5"/>
<path d="M222.045 247.337C221.686 247.138 221.529 245.984 220.855 246.066C220.326 247.104 219.477 248.292 218.135 249.247C216.779 250.211 214.7 251.152 212.558 251.83C210.327 252.533 209.977 252.655 210.255 254.133C210.466 255.253 212.491 255.389 214.345 255.156C217.915 254.715 221.444 254.249 225.009 253.808C227.101 253.547 225.269 247.603 225.287 246.842C224.609 246.973 223.796 248.296 222.045 247.337Z" fill="#F5E4D5"/>
<path d="M227.061 252.436C226.791 251.801 226.05 252.049 225.57 252.136C223.15 252.591 221.588 252.882 219.172 253.357C218.804 252.049 218.148 250.861 217.196 249.925C216.887 249.62 216.536 249.261 216.11 249.218C215.36 249.14 214.274 249.853 213.6 250.177C212.482 250.711 210.673 251.452 210.111 252.766C209.671 253.803 210.237 254.666 211.023 255.166C211.045 255.214 211.086 255.253 211.149 255.277C211.198 255.297 211.252 255.306 211.306 255.326C211.391 255.364 211.481 255.408 211.566 255.442C211.629 255.466 211.678 255.456 211.719 255.437C212.72 255.66 213.73 255.573 214.763 255.466C216.249 255.316 217.731 255.122 219.208 254.909C220.618 254.705 222.019 254.477 223.419 254.24C224.228 254.104 225.92 253.799 226.356 253.537C226.746 253.304 227.276 252.945 227.061 252.436Z" fill="#D95F5F"/>
<path d="M221.322 243.065C220.685 246.202 220.263 248.335 220.263 248.335C220.263 248.335 219.751 249.271 220.757 249.397C222.588 249.625 222.063 249.378 223.899 249.266C224.384 249.237 224.842 248.723 224.995 248.258C225.224 247.55 225.722 246.251 226.378 244.597C224.694 244.088 223.011 243.574 221.322 243.065Z" fill="#F5E4D5"/>
<path d="M292.32 61.7264C291.961 60.0684 291.45 58.4492 290.857 56.8639C290.763 56.7524 290.668 56.6458 290.569 56.5391C289.025 54.8472 287.252 53.4074 285.469 52.0209C284.818 51.5071 284.144 50.9156 283.444 50.3678C283.233 50.5326 282.955 50.6296 282.604 50.6102C282.016 50.5859 281.428 50.5763 280.84 50.5423C280.458 50.5375 280.072 50.5326 279.686 50.5326C279.385 50.5326 279.138 50.4454 278.936 50.3048C278.667 50.2466 278.402 50.169 278.142 50.0769C276.795 51.6185 275.524 52.9856 274.599 55.1672C272.924 59.1133 271.717 63.8158 271.003 68.0625C270.531 70.8791 270.383 73.1237 272.74 74.9465C273.953 75.8869 282.362 77.86 286.407 77.5158C286.434 76.9874 286.591 76.4445 286.937 75.9306C288.836 73.0946 290.646 70.1955 292.37 67.2383C292.585 66.8699 292.815 66.4869 293.048 66.0943C292.725 64.6642 292.626 63.1419 292.32 61.7264Z" fill="#FAAC84"/>
<path d="M277.271 70.1664C277.275 75.5426 277.316 79.4645 277.509 84.1427C277.563 85.4371 277.801 86.1303 278.923 86.8478C280.84 88.0646 283.287 88.8209 285.366 89.7517C286.206 90.1298 287.638 93.31 288.576 92.578C289.551 91.8169 289.218 87.5217 289.272 86.5085C289.533 81.4619 289.789 76.4152 290.049 71.3686C290.112 70.1421 288.213 69.9337 288.087 71.1117C284.315 70.7239 282.174 70.3312 278.564 69.1047C277.81 68.8526 277.271 69.444 277.271 70.1664Z" fill="#FAAC84"/>
<path d="M279.871 83.9153C279.749 83.639 279.475 83.4451 279.112 83.542C275.677 84.4922 272.238 85.4424 268.803 86.3877C266.266 87.0858 263.321 87.6288 261.336 89.5728C259.428 91.4392 258.889 94.251 258.238 96.7767C257.345 100.253 256.523 103.748 255.814 107.272C254.395 114.35 253.421 121.554 253.264 128.792C253.201 131.696 253.057 134.818 253.524 137.693C253.959 140.374 255.481 140.941 257.875 141.256C265.157 142.211 272.516 142.196 279.844 142.114C281.873 142.09 286.722 142.671 288.442 141.338C290.745 139.559 291.122 135.889 292.635 133.422C295.944 128.021 295.931 121.675 298.319 115.766C300.712 109.861 301.687 104.01 305.449 97.5814C312.965 84.7395 290.453 82.3591 279.871 83.9153Z" fill="#F5E4D5"/>
<path d="M286.646 140.553C286.623 139.375 283.952 138.371 283.898 134.129C283.871 132.248 280.454 137.61 278.771 137.624C276.162 137.649 273.549 137.595 270.94 137.455C265.629 137.178 260.344 136.548 255.095 135.617C255.167 135.525 255.244 135.438 255.311 135.346C256.038 134.391 254.777 133.009 254.04 133.979C249.128 140.431 241.994 143.82 235.578 148.173C229.521 152.284 223.936 157.22 218.988 162.799C213.964 168.471 209.568 174.817 205.981 181.648C205.163 183.199 204.391 184.775 203.659 186.375C202.945 187.941 201.787 189.817 201.54 191.562C201.073 194.897 206.286 195.363 208.302 195.983C216.572 198.538 225.058 200.298 233.611 201.272C237.993 201.772 242.393 202.062 246.794 202.135C250.067 202.193 253.56 203.008 255.365 199.527C257.327 195.75 259.231 192.022 261.956 188.799C264.6 185.667 267.73 183.616 271.209 181.76C274.168 180.179 277.073 178.439 278.968 175.418C281.069 172.078 282.255 170.42 283.054 166.547C284.095 161.515 284.998 155.557 285.523 150.428C285.802 147.723 286.704 143.282 286.646 140.553Z" fill="#D69B60"/>
<path d="M289.344 83.2896C289.335 82.9357 289.12 82.5914 288.693 82.5914H285.86C285.618 82.5914 285.442 82.7078 285.339 82.8726C282.96 82.8047 280.589 82.8969 278.223 83.1732C277.801 83.2217 277.585 83.6046 277.581 83.9634C276.005 84.3997 274.433 84.836 272.857 85.2675C272.952 86.8528 273.261 88.4332 274.227 89.6646C275.614 91.4292 278.079 91.8995 280.113 91.7637C285.065 91.4389 288.729 87.6236 291.342 83.3913C290.682 83.338 290.013 83.3089 289.344 83.2896Z" fill="#FAAC84"/>
<path d="M295.563 77.4723C295.621 73.7152 296.519 60.02 295.482 56.4325C293.906 50.9544 284.414 48.8213 279.426 48.865C277.756 48.4238 276.072 48.5547 274.703 50.0915C274.016 50.8672 273.643 51.7834 272.812 52.4378C272.094 53.0002 271.173 53.2911 270.379 53.7177C269.104 54.4013 268.686 55.4678 267.86 56.7573C266.742 58.5123 267.155 60.8199 269.135 61.5325C271.667 62.4487 272.83 60.0054 274.379 58.2117C275.152 57.3148 275.515 56.9318 276.647 56.7912C277.163 56.7282 277.486 56.7719 277.994 56.5683C279.134 56.1029 282.434 54.7018 284.024 56.5537C285.64 58.4395 283.381 60.4611 282.465 61.6343C281.81 62.473 281.41 63.1614 281.365 64.2909C281.312 65.5853 281.577 66.7585 281.419 68.0626C281.352 68.6346 281.222 69.0758 281.334 69.6575C281.612 71.1313 282.775 71.9506 284.006 71.999C282.991 74.3115 282.174 76.7257 281.967 79.2806C281.779 81.6318 282.111 84.7296 284.544 85.5973C285.797 86.0433 288.406 84.9914 289.64 84.9429C290.803 84.8992 291.544 85.1659 292.676 84.4775C294.992 83.0668 295.522 80.1144 295.563 77.4723Z" fill="#784338"/>
<path d="M306.383 62.1969C303.635 60.4808 300.546 59.4143 297.565 58.2848C294.076 56.9661 278.923 53.3884 275.196 53.432C272.045 53.4708 274.42 53.9702 273.068 56.8934C272.866 57.3249 272.996 57.8048 273.432 57.9793C280.665 60.8638 284.472 63.2732 291.468 66.7636C294.593 68.3246 298.714 70.1232 300.551 73.4779C302.701 77.4095 296.977 82.0101 295.122 85.3745C295.06 85.486 295.033 85.5975 295.028 85.709C295.019 85.6896 295.01 85.6702 295.006 85.6509C294.745 84.7637 293.43 85.0933 293.695 85.9853C294.485 88.671 296.465 90.0527 298.674 91.3325C299.329 91.7203 300.007 92.0791 300.632 92.5251C301.094 92.8547 301.619 93.5528 302.172 93.6886C302.674 93.8146 302.917 93.737 303.298 93.3443C304.192 92.4281 304.758 90.392 305.319 89.1994C306.087 87.5657 307.205 89.8103 307.901 88.1329C309.319 84.7055 312.013 78.4469 312.637 74.7335C313.648 68.7076 311.282 65.2608 306.383 62.1969Z" fill="#FAAC84"/>
<path d="M309.158 82.8194C306.522 79.7992 303.613 77.002 300.78 74.2C300.376 73.7976 299.576 73.6667 299.19 74.2C296.757 77.5789 294.171 80.8221 291.414 83.9005C288.872 86.7365 285.73 90.9977 281.877 91.5261C280.463 91.7249 280.535 93.9452 281.967 93.7465C282.753 93.6398 283.489 93.4362 284.19 93.155C288.15 98.6864 292.11 104.218 296.07 109.744C296.415 110.224 297.313 110.21 297.659 109.744C302.136 103.689 306.028 97.169 309.153 90.1881C310.415 87.3764 311.344 85.3258 309.158 82.8194Z" fill="#F5E4D5"/>
<path d="M295.36 79.0283C293.798 83.2654 291.836 92.6654 290.417 96.9606C290.323 96.8831 290.215 96.8055 290.094 96.7425C288.953 96.1413 287.243 96.2964 286.003 96.1656C284.019 95.9522 282.03 95.7923 280.041 95.6759C276.575 95.4772 272.911 95.1475 269.467 95.7535C268.282 95.9619 267.406 96.3643 266.697 96.9509C268.583 92.8593 270.994 89.0635 273.903 85.6506C274.294 85.19 273.661 84.5064 273.27 84.967C268.996 89.9797 265.749 95.8213 263.675 102.191C262.692 104.79 262.023 107.51 261.453 110.244C260.604 114.326 259.98 118.471 258.831 122.47C257.511 127.056 255.49 131.322 252.931 135.239C252.599 135.753 253.375 136.238 253.708 135.729C253.788 135.608 253.86 135.482 253.941 135.356C263.056 140.247 274.141 141.566 284.185 142.07C284.504 142.089 284.665 141.75 284.62 141.459C283.264 132.588 284.688 123.692 286.735 115.082C287.723 110.942 288.85 106.841 289.995 102.749C290.318 101.6 291.283 99.5106 291.014 98.0465C292.514 93.475 294.561 83.7938 296.227 79.2853C296.438 78.7084 295.571 78.4563 295.36 79.0283Z" fill="#D69B60"/>
<path d="M276.144 53.4414C275.996 53.4123 275.848 53.3639 275.713 53.2912C275.708 53.2863 275.704 53.2863 275.699 53.2863C275.08 52.9421 274.375 52.8257 273.684 52.9227C272.516 53.0778 271.349 53.2814 270.249 53.6402C269.795 53.7905 269.521 53.9165 269.346 54.1298C268.83 54.7552 268.188 55.2448 267.425 55.3951C267.353 55.4096 267.276 55.4242 267.2 55.4387C265.709 55.7151 266.343 54.7649 266.648 53.8341C266.783 53.4269 266.823 53.1506 266.845 52.724C266.859 52.3992 266.545 52.1907 266.275 52.2585C264.282 52.7627 263.788 56.1223 263.653 57.9547C263.644 58.0323 263.658 58.1051 263.68 58.1632C263.505 58.5947 263.411 59.0795 263.357 59.4722C263.249 60.272 263.056 62.2402 263.68 62.885C264.372 63.6025 266.392 62.9626 267.205 62.8414C268.044 62.7105 271.537 62.0124 271.946 61.8088C272.835 61.3628 273.724 60.912 274.613 60.466C275.502 60.02 276.391 59.5739 277.28 59.1279C277.814 58.8613 278.941 58.5656 279.318 57.9984C280.513 56.2095 277.608 54.4352 276.144 53.4414Z" fill="#FAAC84"/>
<path d="M237.688 93.8145C236.916 92.1372 234.195 91.8221 232.763 91.3858C231.847 91.1094 226.679 89.7036 225.107 89.4224C220.963 88.6758 216.595 88.1183 212.392 88.2686C209.77 88.3656 206.537 88.1959 204.072 89.8732C201.437 93.4897 198.936 98.1291 197.167 102.308C192.538 113.235 189.615 125.088 187.824 136.912C187.765 137.29 187.909 137.707 188.29 137.809C192.12 138.812 196.026 139.103 199.942 138.526C202.73 138.114 204.813 137.702 206.048 134.832C209.141 127.653 210.322 119.721 213.277 112.479C215.144 112.891 217.035 113.191 218.938 113.347C221.448 113.55 224.865 113.996 227.312 113.153C229.094 112.532 230.136 109.827 231.106 108.276C232.848 105.483 234.518 102.638 235.968 99.6562C236.66 98.2261 238.483 95.5452 237.688 93.8145Z" fill="#1F2144"/>
<path d="M247.88 91.3371C247.148 89.0004 245.792 86.8044 244.76 84.5841C243.417 81.7044 242.223 78.6212 240.485 75.984C237.845 71.9796 233.512 69.9144 229 70.3895C228.143 70.4768 228.138 71.9311 229 71.8439C230.203 71.713 231.344 71.7809 232.421 72.0136C231.065 74.486 232.04 77.2056 233.319 79.6489C235.681 84.1526 237.661 88.7726 239.12 93.7125C239.259 94.1925 239.708 94.3525 240.108 94.1489C241.195 93.5962 242.708 93.6592 243.888 93.4071C245.105 93.1454 246.264 92.7284 247.413 92.234C247.732 92.0934 248.01 91.7443 247.88 91.3371Z" fill="#784338"/>
<path d="M125.598 154.645C124.629 154.214 123.529 154.098 122.384 154.204C122.213 154.471 121.988 154.713 121.697 154.912C118.742 156.968 113.723 159.488 113.642 163.9C113.601 165.965 114.962 168.016 115.927 169.693C117.301 172.078 118.742 174.415 120.255 176.703C120.529 177.115 120.655 177.552 120.673 177.978C123.919 178.274 130.681 176.728 131.66 175.981C133.559 174.531 133.698 172.66 133.083 170.464C132.145 167.124 131.013 163.852 129.684 160.676C128.629 158.15 128.176 155.78 125.598 154.645Z" fill="#FAAC84"/>
<path d="M126.891 173.222C123.856 173.266 122.123 173.033 119.142 172.398C119.295 171.458 117.79 171.148 117.575 172.103C116.699 176.049 115.819 180 114.939 183.946C114.764 184.736 114.019 186.312 114.607 187.141C115.173 187.936 116.529 187.495 117.256 187.412C119.052 187.213 121.095 187.242 122.832 186.782C123.847 186.51 124.179 186.035 124.494 185.051C125.643 181.503 126.51 178.492 127.659 174.362C127.816 173.804 127.529 173.213 126.891 173.222Z" fill="#FAAC84"/>
<path d="M130.811 165.485C130.753 165.374 130.699 165.257 130.654 165.141C130.43 165.097 130.376 164.821 130.506 164.646C130.497 164.603 130.488 164.564 130.479 164.52C130.452 164.355 130.438 164.152 130.519 163.997C130.371 163.696 130.156 162.591 130.479 162.843C131.036 163.284 133.213 165.693 133.379 166.164C133.59 166.775 132.885 167.507 131.911 168.054C131.794 168.117 131.583 167.681 131.516 167.579C131.175 167.031 131.081 166.227 130.914 165.592C130.874 165.567 130.838 165.534 130.811 165.485Z" fill="#FAAC84"/>
<path d="M129.76 164.119C129.927 164.821 129.774 165.466 129.419 165.563C129.069 165.655 128.656 165.16 128.49 164.458C128.328 163.755 128.481 163.111 128.831 163.014C129.181 162.917 129.599 163.411 129.76 164.119Z" fill="#1F2144"/>
<path d="M129.482 157.113C128.472 154.665 125.985 154.17 123.866 154.049C122.402 153.967 121.082 153.186 119.627 153.181C118.352 153.172 117.099 153.7 116.076 154.49C114.123 155.993 113.135 158.388 112.479 160.797C110.598 161.999 109.238 164.37 109.318 166.716C109.44 170.236 112.699 171.913 114.993 173.93C115.371 175.443 116.116 177.023 117.71 176.412C118.653 176.053 119.645 174.832 119.986 173.843C120.413 172.592 119.874 171.414 120.004 170.163C120.422 166.29 122.932 168.99 124.566 167.802C125.356 167.225 125.397 166.27 125.603 165.378C125.886 164.171 126.411 163.26 127.053 162.305C127.242 162.029 127.448 161.83 127.543 161.505C127.691 160.986 127.624 160.54 127.426 160.148C128.786 159.794 130.214 158.892 129.482 157.113Z" fill="#784338"/>
<path d="M134.699 221.085L133.397 201.689C132.998 195.716 132.881 189.744 130.218 184.338C129.289 182.443 127.803 182.21 125.684 182.06C125.5 182.05 125.297 182.04 125.086 182.031C123.38 182.86 121.764 183.432 119.631 183.475C118.289 183.505 116.803 183.538 115.483 183.117C110.423 185.366 106.076 188.294 104.366 193.845C103.728 195.561 103.504 197.316 103.463 199.178C103.392 202.203 102.763 204.801 101.941 207.671C101.214 210.216 100.814 212.65 100.967 215.321C101.142 218.458 101.735 221.541 101.86 224.687C101.973 227.562 101.865 230.432 101.869 233.307C101.874 234.683 101.824 236.54 103.504 236.705C104.285 236.778 105.003 236.264 105.735 236.046C107.172 235.614 108.64 235.624 110.117 235.687C112.605 235.794 114.993 235.973 117.431 235.318C122.258 234.029 126.407 230.897 131.422 230.282C132.603 230.136 133.945 230.029 134.659 228.837C135.79 226.932 134.839 223.17 134.699 221.085Z" fill="#F5E4D5"/>
<path d="M148.151 158.184C147.707 157.569 146.503 156.221 145.709 156.74C145.695 156.725 145.686 156.706 145.677 156.696C145.354 156.284 144.258 155.12 143.827 155.809C143.5 155.421 143.118 155.111 142.655 155.062C142.534 155.053 142.431 155.183 142.431 155.305C142.435 156.192 142.754 156.9 143.149 157.661C143.585 158.499 143.886 159.333 144.083 160.23C144.088 160.482 144.11 160.783 144.133 161.132C144.191 162.092 144.106 163.74 143.796 163.842C143.675 163.585 143.495 163.013 143.365 162.504C143.235 161.98 143.131 159.459 142.229 159.779C141.421 160.06 141.753 161.893 141.865 162.543C142.148 164.191 143.154 165.209 143.823 166.6C142.849 169.94 141.111 175.869 139.939 177.779C134.125 187.286 120.637 183.354 111.891 186.195C111.065 186.467 111.419 187.868 112.25 187.596C112.425 187.543 112.6 187.494 112.775 187.441C112.762 189.778 110.221 187.887 110.481 190.2C110.652 191.727 111.312 192.517 112.6 193.137C116.48 195.004 121.329 194.131 125.401 193.734C129.374 193.351 133.712 193.234 137.353 191.276C140.559 189.55 143.19 186.525 144.694 183.112C146.252 179.563 147.006 171.278 147.532 167.618C148.102 166.683 148.456 165.626 148.645 164.496C148.721 164.06 148.816 163.498 148.879 162.916C148.896 162.892 148.91 162.867 148.919 162.833C149.323 161.403 149.009 159.367 148.151 158.184Z" fill="#FAAC84"/>
<path d="M121.962 183.965C121.944 184.014 121.93 184.067 121.912 184.12C121.252 183.432 119.901 183.96 119.119 184.072C117.683 184.275 116.219 184.416 114.805 184.755C113.727 185.012 112.775 185.458 111.972 186.084C111.922 186.035 111.859 186.006 111.779 186.021C111.19 186.127 110.723 186.602 110.575 187.223C110.557 187.31 110.589 187.402 110.647 187.465C110.126 188.192 109.722 189.046 109.457 190.035C108.82 192.415 108.411 196.487 110.261 198.397C112.407 200.608 115.842 198.858 118.118 200.773C118.235 200.87 118.459 200.865 118.491 200.661C119.348 195.028 120.65 189.487 122.393 184.096C122.491 183.8 122.056 183.669 121.962 183.965Z" fill="#F5E4D5"/>
<path d="M261.287 263.964C261.224 263.921 261.148 263.887 261.053 263.887C258.499 263.843 255.755 263.485 253.223 263.877C251.297 264.173 249.707 265.482 248.105 266.568C246.618 267.576 241.415 270.446 243.893 272.972C245.042 274.14 246.811 273.466 248.069 272.923C250.435 271.891 252.554 270.412 255.185 270.33C256.86 270.276 259.073 271.445 260.312 269.874C261.439 268.439 261.776 266.219 261.83 264.415C261.844 264.052 261.543 263.906 261.287 263.964Z" fill="#1F2144"/>
<path d="M129.464 161.389C129.41 159.852 125.89 161.049 125.778 162.513C125.666 163.992 128.732 162.489 129.379 161.626C129.419 161.573 129.469 161.486 129.464 161.389Z" fill="#784338"/>
<path d="M133.204 170.905C133.168 170.76 133.133 170.609 133.092 170.464C132.872 169.683 132.639 168.908 132.401 168.132C131.799 168.481 131.184 168.782 130.555 169.077C130.313 169.194 129.85 169.32 129.752 169.625C129.545 170.285 130.542 170.794 130.973 170.949C131.593 171.167 132.517 171.215 133.204 170.905Z" fill="white"/>
<path d="M140.819 154.369C140.473 154.49 140.208 154.67 140.002 154.883C139.454 155.251 139.037 155.76 139.086 156.536C139.144 157.52 139.8 158.548 140.393 159.26C140.765 159.711 141.546 160.661 142.197 160.472C143.019 160.235 143.015 158.877 143.01 158.189C143.006 156.623 143.167 153.535 140.819 154.369Z" fill="#D95F5F"/>
<path d="M153.045 212.025C148.546 211.002 144.011 210.192 139.441 209.625C134.879 209.053 129.981 208.001 125.374 208.394C124.561 208.423 124.373 208.699 124.404 209.32C124.831 217.037 127.031 229.186 135.768 230.194C145.183 231.285 150.248 220.877 153.445 213.091C153.611 212.694 153.507 212.131 153.045 212.025Z" fill="#D69B60"/>
<path d="M151.716 219.054C151.968 218.865 152.192 218.589 152.134 218.24C152.071 217.871 151.743 217.711 151.424 217.755C151.2 217.784 150.98 217.886 150.773 218.017C150.598 218.075 150.427 218.152 150.266 218.254C150.001 218.419 149.534 218.734 149.467 219.088C149.435 219.267 149.467 219.389 149.538 219.476C149.251 219.65 149.036 219.873 149.098 220.145C148.789 220.31 148.528 220.533 148.605 220.819C148.326 220.964 148.084 221.207 148.12 221.556C148.182 222.162 148.955 222.166 149.372 222.157C149.772 222.147 150.598 222.026 150.67 221.473C150.679 221.367 150.661 221.279 150.63 221.202C150.773 221.158 150.912 221.11 151.052 221.047C151.276 220.94 151.563 220.785 151.55 220.475C151.545 220.3 151.447 220.184 151.321 220.106C151.676 219.912 152.174 219.316 151.716 219.054Z" fill="#FAAC84"/>
<path d="M299.419 256.489C292.384 254.327 286.425 249.324 279.502 246.745C273.108 244.365 265.866 241.994 259.069 243.453C258.939 242.862 258.09 242.527 257.704 243.206C255.014 247.986 252.006 253.876 254.368 259.529C256.653 264.997 263.24 265.875 268.062 266.757C274.716 267.974 281.46 268.391 288.19 268.706C290.39 268.813 292.002 269.317 293.506 267.46C295.899 264.503 297.875 260.94 299.859 257.658C300.124 257.221 299.859 256.625 299.419 256.489Z" fill="#1F2144"/>
<path d="M316.458 221.139C315.978 218.245 313.935 215.442 312.418 213.086C310.864 210.672 309.117 208.539 306.917 206.799C306.522 206.484 306.136 206.61 305.889 206.905C295.159 206.605 285.047 211.438 276.629 218.371C272.139 222.065 268.067 226.307 264.205 230.747C262.391 232.827 260.591 234.931 258.894 237.122C257.547 238.863 255.275 241.33 254.736 243.536C253.681 247.846 262.055 249.736 264.529 250.27C270.069 251.457 275.744 251.506 281.37 251.283C283.853 251.181 287.104 251.535 289.443 250.449C291.558 249.47 293.259 247.036 294.894 245.373C299.087 241.131 303.447 237.083 307.964 233.244C311.389 230.34 317.401 226.801 316.458 221.139Z" fill="#5F5FBB"/>
<path d="M329.218 198.034C328.792 197.001 328.078 196.09 327.184 195.309C326.893 195.372 326.574 195.377 326.233 195.304C322.784 194.567 317.554 192.619 314.658 195.736C313.302 197.195 312.961 199.687 312.579 201.621C312.031 204.37 311.569 207.128 311.187 209.911C311.12 210.41 310.931 210.822 310.671 211.142C312.817 213.784 318.676 217.74 319.862 217.939C322.16 218.317 323.463 217.076 324.432 215.03C325.905 211.928 327.194 208.723 328.28 205.441C329.142 202.833 330.341 200.782 329.218 198.034Z" fill="#FAAC84"/>
<path d="M393.868 255.151C393.226 248.684 391.969 242.047 388.754 236.438C385.436 230.655 380.071 227.252 374.117 225.41C367.207 223.272 359.902 223.34 352.79 223.771C348.655 224.018 344.524 224.401 340.38 224.527C337.624 224.61 333.708 224.964 331.113 223.335C330.265 221.701 329.385 220.091 328.505 218.501C327.782 217.183 325.842 218.453 326.727 219.781C326.749 219.965 326.776 220.174 326.803 220.358C326.713 220.576 326.695 220.833 326.803 221.134C326.906 221.429 327.027 221.706 327.153 221.972C322.645 223.296 317.32 224.072 313.32 226.854C313.194 225.385 311.057 225.376 311.178 226.859C311.34 228.861 311.506 230.868 311.668 232.875C311.587 233.021 311.524 233.19 311.506 233.394C311.187 237.02 311.681 240.651 311.407 244.273C311.026 249.28 308.408 252.01 304.259 253.794C297.43 256.732 289.744 259.034 283.53 263.407C282.183 264.352 280.934 265.807 281.527 267.649C282.551 270.815 285.64 268.88 287.714 268.051C294.961 265.147 302.526 262.675 309.849 259.999C311.295 259.471 315.982 258.2 316.292 258.133C316.409 259.165 313.719 261.25 313.015 261.696C309.988 263.591 306.621 264.716 303.272 265.739C300.838 266.481 289.173 271.018 290.3 273.418C291.194 275.323 293.407 275.391 295.001 275.26C298.719 274.95 302.41 274.029 305.979 272.89C312.745 270.727 319.215 267.639 325.905 265.22C334.763 262.011 343.424 261.395 352.705 261.196C356.252 261.119 359.794 261.041 363.341 260.964C361.972 261.72 360.989 262.854 361.164 264.58C361.604 268.861 369.65 267.198 372.007 267.164C375.096 267.121 378.185 267.096 381.274 267.024C382.819 266.99 384.403 266.922 385.917 266.539C386.554 269.743 386.729 273.025 384.475 275.294C382.536 277.253 380.74 275.73 378.638 276.521C377.687 276.874 377.274 277.514 377.036 278.508C377.134 278.998 377.049 279.458 376.775 279.885C376.111 280.035 375.451 280.011 374.795 279.822C373.843 279.594 372.963 279.109 372.079 278.692C370.849 278.111 369.605 277.461 368.244 277.34C365.308 277.083 365.501 279.24 365.703 281.611C363.553 280.496 361.034 279.701 358.995 281.499C358.174 282.222 357.846 283.094 357.684 284.204C357.451 285.799 357.388 287.099 355.484 287.186C354.604 287.225 353.729 286.963 352.844 287.026C348.098 287.365 347.259 297.363 352.714 295.966C356.988 294.872 361.24 293.794 365.542 292.822C369.515 291.927 373.475 290.899 377.233 289.207C383.537 286.376 388.88 281.776 391.533 274.829C393.747 269.045 394.29 259.383 393.868 255.151Z" fill="#784338"/>
<path d="M347.578 223.776C345.378 223.058 342.8 222.094 340.547 223.039C339.545 223.461 338.674 224.149 337.758 224.736C336.564 225.502 335.293 226.035 333.942 226.365C333.659 226.433 333.776 226.903 334.059 226.83C334.117 226.82 334.171 226.801 334.225 226.787C334.13 227.674 334.225 228.697 335.24 228.774C335.926 228.832 336.694 228.566 337.372 228.445C338.311 228.28 339.276 228.163 340.165 227.785C340.838 227.504 341.444 227.087 342.068 226.704C343.016 226.132 343.891 225.87 344.969 225.759C346.141 225.638 347.254 225.347 347.735 224.072C347.78 223.95 347.681 223.81 347.578 223.776Z" fill="#FAAC84"/>
<path d="M319.987 212.8C318.461 209.959 317.805 208.219 316.853 205.097C317.693 204.787 317.204 203.216 316.328 203.483C312.709 204.588 309.09 205.698 305.476 206.803C304.749 207.026 303.11 207.099 302.733 208.054C302.369 208.975 303.388 210.037 303.81 210.682C304.852 212.272 305.831 214.211 307.052 215.622C307.766 216.446 308.314 216.524 309.261 216.339C312.691 215.68 315.542 215.021 319.444 214.08C319.974 213.954 320.306 213.392 319.987 212.8Z" fill="#FAAC84"/>
<path d="M338.095 231.508C337.772 229.123 337.444 227.475 336.869 225.138C336.766 224.711 336.398 224.45 336.003 224.425C333.583 224.304 331.239 224.988 328.864 225.371C326.098 225.812 323.31 226.069 320.517 226.161C318.066 226.243 315.255 226.626 313.109 225.148C311.084 223.756 309.418 221.715 307.905 219.728C306.527 217.924 305.256 216.029 303.891 214.211C303.106 213.169 301.938 210.958 300.519 210.953C298.912 210.948 296.609 213.222 295.369 214.153C293.565 215.515 291.84 216.994 290.175 218.555C289.42 217.91 288.347 219.18 289.043 220.072C292.101 223.979 295.226 227.867 298.602 231.46C301.471 234.514 304.78 237.258 308.821 238.116C313.064 239.017 317.401 238.009 321.545 237.015C326.718 235.774 332.182 234.257 337.421 233.045C338.041 232.899 338.18 232.167 338.095 231.508Z" fill="#5F5FBB"/>
<path d="M329.519 196.516C327.89 192.643 322.776 190.995 319.188 190.602C316.647 190.326 314.276 191.033 312.359 192.551C310.473 194.044 308.35 195.149 306.06 195.649C302.926 196.332 299.675 196.735 297.08 198.95C294.611 201.069 292.927 203.633 289.838 204.821C287.463 205.737 284.877 206.072 282.677 207.487C281.213 208.428 278.676 210.919 278.447 212.878C278.223 214.773 280.593 216.354 281.608 217.575C283.656 220.062 284.199 223.301 285.936 225.991C287.306 228.12 289.102 229.802 291.172 231.091C291.715 231.431 292.262 230.873 292.164 230.272C291.67 227.368 294.647 226.142 296.281 224.653C297.255 223.766 298.046 222.695 298.759 221.565C300.609 218.632 301.826 214.856 304.695 212.844C306.24 211.758 307.946 211.777 309.67 211.244C309.674 211.244 309.674 211.239 309.679 211.239C310.631 209.843 311.74 208.602 312.521 207.08C313.028 206.091 313.378 204.578 314.505 204.191C315.381 203.885 316.081 204.607 316.921 204.738C319.471 205.136 319.714 203.1 321.056 201.713C321.846 200.516 322.74 199.459 324.212 199.091C324.221 199.091 324.226 199.081 324.235 199.081C325.532 199.396 328.693 200.642 329.663 199.847C330.516 199.154 329.843 197.287 329.519 196.516Z" fill="#1F2144"/>
<path d="M331.85 210.396C331.051 209.693 329.968 209.61 328.985 209.475C327.243 209.237 325.488 209.068 323.732 208.903C322.821 208.597 321.698 208.423 320.257 208.437C319.112 208.452 317.967 208.486 316.867 208.631C313.751 208.282 310.473 208.05 307.519 209.349C304.466 210.696 304.098 213.615 303.353 216.858C302.935 218.666 302.589 221.711 304.717 222.506C305.907 222.947 307.29 222.225 308.538 221.206C308.516 221.643 308.489 222.074 308.462 222.506C308.264 225.424 307.685 227.712 306.469 230.325C305.674 232.022 303.653 236.021 304.277 236.69C306.352 238.891 308.444 239.589 310.851 238.935C312.772 238.416 313.679 236.647 314.887 235.129C316.297 233.36 317.994 231.877 319.898 230.771C323.126 228.9 325.95 227.974 327.692 224.551C328.559 224.857 329.407 225.061 330.121 225.153C332.514 225.468 333.399 223.437 333.668 221.187C334.018 218.298 334.193 212.461 331.85 210.396Z" fill="#784338"/>
<path d="M312.328 222.869C311.91 222.981 311.484 223.015 311.062 222.927C310.761 222.864 310.029 222.685 309.988 222.258C309.962 221.948 309.513 221.948 309.539 222.258C309.656 223.538 311.605 223.562 312.449 223.339C312.727 223.262 312.611 222.796 312.328 222.869Z" fill="#1F2144"/>
<path d="M320.306 223.737C319.785 224.198 318.416 224.363 317.954 223.679C317.783 223.432 317.392 223.674 317.563 223.926C318.218 224.886 319.844 224.77 320.621 224.081C320.845 223.883 320.526 223.538 320.306 223.737Z" fill="#1F2144"/>
<path d="M306.72 237.272C307.932 235.595 306.994 233.399 305.261 232.929C304.533 234.567 303.9 236.274 304.286 236.691C304.811 237.248 305.337 237.709 305.871 238.072C306.185 237.985 306.504 237.573 306.72 237.272Z" fill="#1F2144"/>
<path d="M326.242 222.714C325.887 220.993 325.645 219.253 325.55 217.498C325.465 215.951 325.227 213.935 326.192 212.65C326.372 212.408 326.053 212.063 325.874 212.306C324.962 213.523 325.025 215.074 325.065 216.567C325.119 218.686 325.384 220.775 325.811 222.84C325.874 223.145 326.305 223.019 326.242 222.714Z" fill="#1F2144"/>
<path d="M312.983 210.556C312.036 211.579 311.757 212.893 311.457 214.26C311.017 216.267 310.186 217.847 308.489 218.904C308.242 219.059 308.466 219.476 308.718 219.321C309.952 218.55 310.931 217.425 311.461 215.981C312.09 214.264 312.022 212.287 313.297 210.895C313.504 210.677 313.185 210.333 312.983 210.556Z" fill="#1F2144"/>
<path d="M372.007 238.32C368.119 237.748 364.289 240.438 363.557 244.685C363.198 246.774 363.593 248.995 364.706 250.749C365.362 251.782 366.237 252.655 366.799 253.76C367.432 255.02 367.531 257.11 366.017 257.701C365.748 257.808 365.865 258.273 366.139 258.167C367.387 257.682 367.845 256.257 367.652 254.909C367.342 252.708 365.312 251.321 364.495 249.368C362.214 243.948 366.511 237.995 371.89 238.79C372.173 238.833 372.294 238.363 372.007 238.32Z" fill="#1F2144"/>
<path d="M320.8 206.421C320.607 207.119 320.172 207.589 319.826 207.477C319.48 207.371 319.354 206.716 319.543 206.019C319.736 205.326 320.171 204.851 320.517 204.962C320.863 205.074 320.989 205.728 320.8 206.421Z" fill="#1F2144"/>
<path d="M326.664 207.139C326.471 207.836 326.035 208.307 325.69 208.195C325.344 208.084 325.218 207.434 325.407 206.736C325.6 206.043 326.035 205.568 326.381 205.68C326.727 205.791 326.852 206.446 326.664 207.139Z" fill="#1F2144"/>
<path d="M322.281 204.176C322.955 202.823 319.363 201.921 318.577 203.124C317.783 204.336 321.132 204.724 322.098 204.336C322.156 204.312 322.241 204.263 322.281 204.176Z" fill="#1F2144"/>
<path d="M328.747 204.128C327.786 203.658 326.246 203.6 325.761 204.336C325.169 205.243 326.884 205.689 328.19 205.693C328.222 205.611 328.253 205.529 328.28 205.441C328.428 204.991 328.59 204.555 328.747 204.128Z" fill="#1F2144"/>
<path d="M277.204 68.8041C276.472 67.2196 274.415 67.1033 273.001 67.4667C272.947 67.4812 272.911 67.5151 272.884 67.5539C272.813 67.6024 272.759 67.6702 272.741 67.7671C272.637 68.3389 273.693 68.3825 273.989 68.4455C274.514 68.557 275.044 68.6442 275.556 68.8186C276.059 68.9931 276.472 69.2354 277.01 69.1675C277.181 69.1481 277.284 68.9834 277.204 68.8041Z" fill="#DB745E"/>
<path d="M280.548 60.9749C279.219 60.9555 277.98 60.3348 276.651 60.3057C275.376 60.2766 274.137 60.713 272.938 61.1349C272.664 61.2318 272.781 61.6973 273.055 61.6052C274.348 61.1494 275.69 60.6742 277.069 60.8148C278.25 60.936 279.35 61.4403 280.548 61.4597C280.836 61.4597 280.836 60.9749 280.548 60.9749Z" fill="#DB745E"/>
<path d="M275.143 56.67C274.132 54.314 270.567 55.9089 269.422 57.3196C268.852 58.0274 268.367 58.7061 267.505 59.0357C267.133 59.1763 266.414 59.4381 266.042 59.1812C265.687 58.9339 265.943 58.5315 265.889 58.0613C265.795 57.276 265.323 56.6991 264.56 56.8591C264.277 56.9172 264.394 57.3875 264.677 57.3244C265.763 57.0966 265.085 59.2684 265.696 59.6514C266.27 60.0198 267.451 59.6175 267.99 59.3411C268.955 58.8564 269.413 57.9062 270.186 57.1887C271.2 56.2531 273.998 55.1575 274.756 56.9173C274.878 57.1984 275.264 56.9512 275.143 56.67Z" fill="#DB745E"/>
<path d="M115.698 195.925C114.369 196.007 113.04 196.032 111.711 195.983C110.773 195.949 107.742 196.167 107.257 195.154C107.123 194.873 106.736 195.12 106.867 195.396C107.383 196.473 109.111 196.298 110.032 196.371C111.918 196.521 113.808 196.526 115.698 196.41C115.986 196.395 115.986 195.91 115.698 195.925Z" fill="#D1BEAE"/>
<path d="M299.985 101.721C299.293 100.049 298.602 98.3713 297.91 96.6987C297.794 96.4175 297.408 96.66 297.524 96.946C298.216 98.6185 298.907 100.291 299.599 101.964C299.715 102.25 300.102 102.002 299.985 101.721Z" fill="#D1BEAE"/>
<path d="M260.505 98.2067C259.221 101.038 258.292 104.01 257.735 107.107C257.681 107.413 258.112 107.544 258.166 107.233C258.718 104.179 259.625 101.246 260.896 98.4491C261.022 98.1727 260.636 97.9255 260.505 98.2067Z" fill="#D1BEAE"/>
<path d="M60.1765 49.1949C59.1214 50.6638 58.1561 52.22 57.523 53.9603C56.8809 55.7104 56.6384 57.572 56.5037 59.4384C56.176 63.8984 56.3152 68.3875 56.8271 72.8233C56.863 73.1287 57.312 73.1336 57.2761 72.8233C56.8136 68.8335 56.6654 64.8098 56.872 60.7909C56.9707 58.8033 57.1144 56.7818 57.6891 54.8766C58.2818 52.9132 59.3324 51.1583 60.4953 49.5343C60.6704 49.2919 60.3561 48.9477 60.1765 49.1949Z" fill="#5F5FBB"/>
<path d="M21.1551 46.9694C21.1237 48.0747 21.0922 49.1752 21.0563 50.2805C21.0473 50.5907 21.4963 50.5907 21.5053 50.2805C21.5412 49.1752 21.5727 48.0747 21.6041 46.9694C21.6131 46.6591 21.1641 46.6591 21.1551 46.9694Z" fill="#5F5FBB"/>
<path d="M23.2473 47.4687C22.8433 48.7388 22.3089 49.9266 21.6355 51.0561C21.4783 51.3179 21.8689 51.5603 22.0216 51.2985C22.713 50.1399 23.2653 48.9037 23.6784 47.5996C23.7726 47.299 23.3371 47.1729 23.2473 47.4687Z" fill="#5F5FBB"/>
<path d="M51.7804 38.5001C49.7106 39.9206 47.4611 40.9677 45.0096 41.3653C42.5357 41.7677 39.9675 41.5592 37.5744 40.7738C35.9446 40.2357 34.1981 39.4115 32.7658 38.2286C32.5952 38.3062 32.4246 38.3886 32.2495 38.4613C35.4732 41.375 40.4749 42.393 44.381 41.9373C47.2591 41.6028 49.8811 40.4005 52.2608 38.728C52.0991 38.6552 51.942 38.5777 51.7804 38.5001Z" fill="#5F5FBB"/>
<path d="M24.5044 60.742C24.5089 60.4317 24.0599 60.4317 24.0554 60.742C24.0285 62.1624 24.4595 65.3863 23.1619 66.2977C22.9958 66.6806 22.7983 66.7097 22.5738 66.3897C22.5962 66.2492 22.6231 66.1086 22.6456 65.968C22.6456 65.6723 22.713 65.362 22.722 65.0615C22.7399 64.3634 22.6321 63.6895 22.4705 63.0205C22.5288 62.0655 22.273 60.839 22.1877 60.3736C22.1338 60.0682 21.7028 60.1991 21.7566 60.5045C21.8734 61.1638 21.9586 61.8328 21.9766 62.5018C21.9811 62.6812 22.0305 63.3647 21.9272 63.4907C21.3839 64.1743 21.3077 63.0205 21.2852 62.9042C21.1011 61.8134 20.7509 60.7857 20.266 59.8113C20.1268 59.5398 19.7407 59.7822 19.8754 60.0585C20.3962 61.1056 20.688 62.1673 20.899 63.3211C20.9798 63.7671 21.1235 64.3004 21.6309 64.2955C21.8823 64.2907 22.0664 64.184 22.1966 64.0046C22.2639 64.4943 22.2909 64.9839 22.2505 65.4832C22.2191 65.8662 21.9497 66.5061 22.1697 66.8891C22.3897 67.2672 22.7713 67.1945 23.099 67.0248C24.9444 66.0553 24.473 62.4533 24.5044 60.742Z" fill="#DB745E"/>
<path d="M25.6315 65.338C24.6437 65.3429 24.0197 67.0057 23.5797 67.7281C23.5303 67.8008 23.5168 67.8783 23.5168 67.951C23.4943 67.9753 23.4674 67.9947 23.445 68.0189C23.3058 68.082 23.1666 68.145 23.0184 68.1934C22.6548 68.3146 22.6368 68.7606 22.8253 68.9933C22.4123 69.0612 21.9992 69.134 21.6175 69.3133C21.0922 69.5654 21.5458 70.4041 22.0711 70.152C23.1172 69.6527 24.2487 69.9872 25.196 69.163C25.8336 68.6055 26.6553 67.7135 26.6957 66.7585C26.7226 66.0943 26.314 65.3332 25.6315 65.338Z" fill="#FAAC84"/>
<path d="M214.857 168.21C214.166 166.658 212.536 166.702 211.157 166.92C209.685 167.148 208.32 167.769 207.121 168.68C207.09 168.69 207.063 168.709 207.036 168.738C207.018 168.758 206.995 168.777 206.977 168.796C206.659 169.048 206.344 169.32 206.052 169.616C206.008 169.659 205.99 169.713 205.985 169.761C201.024 174.318 194.406 176.601 191.038 183.03C189.067 186.792 187.913 191.106 186.616 195.173C185.889 197.447 185.139 199.73 184.582 202.062C184.191 203.706 183.706 205.853 184.2 207.526C184.524 208.631 185.489 209.13 186.481 208.597C187.114 208.258 187.491 207.613 187.837 206.973C188.335 206.057 188.82 205.141 189.382 204.268C189.66 203.837 190.122 202.916 190.504 202.659C190.72 202.508 191.573 202.305 191.86 202.382C192.035 202.431 192.237 202.649 192.412 202.731C192.96 202.993 193.535 203.032 194.114 202.848C195.546 202.397 196.368 201.001 197.014 199.658C197.463 198.722 197.876 197.733 198.599 196.991C199.363 196.206 200.314 195.726 201.194 195.13C202.546 194.209 203.507 192.929 204.288 191.441C206.308 187.582 207.996 183.529 210.066 179.689C211.256 177.474 212.504 175.302 213.789 173.15C214.651 171.71 215.634 169.945 214.857 168.21Z" fill="#F5E4D5"/>
<path d="M29.2278 85.2385L22.8522 86.2516C22.3852 86.3244 21.9497 85.9753 21.8824 85.4712L19.8979 70.9132C19.8306 70.409 20.1538 69.9387 20.6208 69.8612L26.9964 68.8528C27.4633 68.7753 27.8988 69.1243 27.9662 69.6333L29.9508 84.1913C30.0181 84.6955 29.6948 85.1658 29.2278 85.2385Z" fill="#997777"/>
<path d="M62.381 75.5429C61.8332 75.5138 61.2764 75.4847 60.7242 75.4362C60.5625 75.8386 60.4189 76.4785 60.2438 77.5111C59.4177 82.3881 56.7058 86.6542 52.6155 88.9376C48.4758 91.2452 43.4966 91.7396 39.0561 90.1786C35.5989 88.9666 33.0577 86.596 30.9385 83.7212C30.9609 80.9531 32.2001 76.5851 29.1559 75.378C28.5498 75.1405 28.3792 75.4313 28.3657 76.2264C28.3567 76.8954 29.0617 77.865 29.147 78.5291C29.2053 78.9752 29.2053 79.4454 29.1784 79.9253C28.8192 79.4115 27.8 78.597 27.378 78.1413C26.911 77.6323 25.3171 76.7548 24.8996 76.4494C24.1183 75.8773 23.4987 75.1162 22.7444 74.5151C22.4885 74.3163 22.0306 73.8897 21.6669 73.9867C20.3873 74.3163 22.8252 77.0069 24.464 78.6406C24.4236 78.7134 24.3787 78.7812 24.3338 78.8588C24.3158 78.8927 24.2934 78.9315 24.2755 78.9703C23.5795 78.1946 22.8701 77.4384 22.1337 76.716C21.6444 76.2312 21.182 75.6398 20.4771 75.6689C20.3693 75.6737 20.293 75.7465 20.257 75.8483C19.9338 76.8082 20.9844 78.214 21.6578 79.0382C21.2089 78.6503 20.7554 78.2868 20.284 77.9716C19.7811 77.642 19.3501 77.7632 19.3411 78.4564C19.3321 79.0042 19.6239 79.5666 19.9921 80.0708C19.8035 80.1047 19.6464 80.2356 19.5836 80.541C19.4444 81.2391 20.2121 82.1069 20.6027 82.5626C21.0786 83.125 22.5514 84.4145 22.5648 84.4387C22.924 85.0205 26.7763 86.2324 27.6384 86.3488C33.0667 95.6858 39.8868 104.208 51.1204 102.08C56.6654 101.028 61.5683 98.2213 65.0524 93.3879C68.6174 88.4382 70.1934 82.3444 70.7187 76.1876C67.935 76.0325 65.1737 75.698 62.381 75.5429Z" fill="#FAAC84"/>
<path d="M26.2644 66.618C26.1656 66.904 26.0714 67.2095 25.8918 67.4519C25.811 67.5585 25.7122 67.6555 25.5955 67.7185C25.5641 67.7379 25.1555 67.8979 25.1914 67.7137C25.1959 67.6797 25.1959 67.6506 25.1914 67.6167C25.7347 66.9574 25.8244 65.8666 25.9636 65.0473C26.1791 63.7432 26.3003 62.4293 26.3542 61.1058C26.3632 60.7907 25.9142 60.7907 25.9052 61.1058C25.8513 62.3857 25.7392 63.6559 25.5281 64.9164C25.4473 65.4157 25.3755 65.9393 25.2363 66.4192C25.1375 67.2386 24.6481 67.5391 23.7636 67.3161C23.786 67.0883 23.813 66.8556 23.8354 66.6229C23.8668 66.3174 23.4179 66.3174 23.3864 66.6229C23.3191 67.2676 23.1574 67.8494 23.8399 68.1015C24.1587 68.2227 24.5044 68.1402 24.7918 67.9657C24.94 68.2808 25.3844 68.3439 25.7167 68.1888C26.2734 67.9415 26.5069 67.3161 26.6955 66.7489C26.7943 66.4532 26.3587 66.3271 26.2644 66.618Z" fill="#DB745E"/>
<path d="M19.0045 179.156C17.4734 176.32 15.9423 173.489 14.4113 170.653C14.2676 170.386 13.877 170.629 14.0252 170.9C15.5562 173.732 17.0873 176.568 18.6184 179.399C18.762 179.67 19.1526 179.423 19.0045 179.156Z" fill="#1F2144"/>
<path d="M18.6542 182.744C17.4868 181.027 16.2252 179.394 14.8693 177.847C14.6717 177.619 14.3574 177.964 14.555 178.191C15.8795 179.709 17.1186 181.304 18.268 182.986C18.4342 183.233 18.8248 182.991 18.6542 182.744Z" fill="#1F2144"/>
<path d="M210.569 113.191C207.866 114.84 205.195 116.551 202.564 118.325C202.317 118.49 202.541 118.912 202.788 118.747C205.424 116.968 208.091 115.257 210.798 113.608C211.049 113.453 210.821 113.036 210.569 113.191Z" fill="#5F5FBB"/>
<path d="M205.177 118.698C203.453 120.56 201.791 122.48 200.193 124.463C200.004 124.7 200.319 125.044 200.507 124.807C202.11 122.824 203.772 120.904 205.496 119.043C205.698 118.82 205.383 118.48 205.177 118.698Z" fill="#5F5FBB"/>
<path d="M327.921 122.145C326.731 122.092 325.735 123.818 326.606 124.855C326.655 124.918 326.709 124.967 326.767 125.015C326.888 125.204 327.05 125.369 327.239 125.476C327.795 125.805 328.46 125.616 328.886 125.132C329.789 124.099 329.344 122.204 327.921 122.145Z" fill="#755B5B"/>
<path d="M301.579 142.182C300.394 142.133 299.392 143.859 300.268 144.896C300.313 144.955 300.371 145.008 300.425 145.052C300.546 145.245 300.708 145.405 300.896 145.517C301.453 145.842 302.122 145.658 302.544 145.173C303.447 144.135 303.002 142.24 301.579 142.182Z" fill="#755B5B"/>
<path d="M239.022 123.599C237.832 123.546 236.835 125.272 237.706 126.309C237.756 126.373 237.809 126.421 237.868 126.47C237.989 126.659 238.151 126.823 238.339 126.93C238.896 127.26 239.56 127.071 239.987 126.586C240.889 125.553 240.445 123.658 239.022 123.599Z" fill="#755B5B"/>
<path d="M212.679 143.636C211.494 143.587 210.493 145.313 211.368 146.351C211.413 146.409 211.472 146.462 211.525 146.506C211.647 146.7 211.808 146.86 211.997 146.971C212.554 147.296 213.223 147.112 213.645 146.627C214.547 145.59 214.103 143.694 212.679 143.636Z" fill="#755B5B"/>
<path d="M139.773 210.905C139.822 210.968 139.876 211.016 139.93 211.065C140.051 211.254 140.213 211.419 140.401 211.525C140.963 211.855 141.627 211.666 142.049 211.181C142.328 210.866 142.476 210.463 142.512 210.061C141.501 209.911 140.491 209.77 139.481 209.644C139.391 210.076 139.459 210.536 139.773 210.905ZM131.435 212.393C130.245 212.344 129.244 214.07 130.12 215.108C130.169 215.166 130.223 215.219 130.277 215.268C130.398 215.457 130.56 215.617 130.748 215.728C131.309 216.053 131.974 215.869 132.396 215.384C133.298 214.351 132.859 212.456 131.435 212.393ZM139.234 217.726C138.044 217.677 137.047 219.403 137.919 220.44C137.968 220.499 138.022 220.552 138.08 220.6C138.201 220.79 138.363 220.949 138.552 221.061C139.108 221.386 139.773 221.202 140.199 220.717C141.102 219.684 140.657 217.789 139.234 217.726ZM145.542 216.64C145.664 216.829 145.825 216.994 146.014 217.1C146.575 217.43 147.239 217.241 147.662 216.756C148.564 215.723 148.124 213.828 146.701 213.77C145.511 213.716 144.51 215.442 145.385 216.48C145.435 216.543 145.488 216.591 145.542 216.64ZM131.17 221.342C129.985 221.294 128.984 223.02 129.855 224.057C129.904 224.115 129.958 224.169 130.016 224.217C130.138 224.406 130.299 224.566 130.488 224.678C131.045 225.002 131.713 224.818 132.136 224.333C133.038 223.296 132.594 221.405 131.17 221.342ZM138.619 227.504C137.429 227.455 136.428 229.181 137.303 230.219C137.326 230.243 137.348 230.262 137.375 230.287C138.26 230.272 139.104 230.151 139.912 229.938C140.312 228.895 139.813 227.557 138.619 227.504ZM146.997 222.254C145.812 222.2 144.81 223.926 145.681 224.964C145.731 225.027 145.785 225.075 145.843 225.124C145.964 225.313 146.126 225.477 146.315 225.584C146.351 225.608 146.386 225.618 146.422 225.637C147.087 224.891 147.711 224.081 148.299 223.233C148.093 222.695 147.648 222.278 146.997 222.254ZM125.414 208.413C124.602 208.442 124.408 208.718 124.444 209.344C124.471 209.833 124.503 210.347 124.548 210.871C124.983 210.924 125.428 210.73 125.737 210.376C126.227 209.814 126.317 209.004 126.074 208.369C125.854 208.384 125.634 208.393 125.414 208.413Z" fill="#F5E4D5"/>
<path d="M184.169 125.456C182.983 125.408 181.982 127.134 182.858 128.171C182.902 128.229 182.961 128.283 183.015 128.326C183.136 128.52 183.298 128.68 183.486 128.792C184.043 129.116 184.712 128.932 185.134 128.447C186.037 127.41 185.592 125.514 184.169 125.456Z" fill="#755B5B"/>
<path d="M278.95 175.419C281.047 172.078 282.237 170.42 283.036 166.547C284.077 161.515 284.98 155.557 285.505 150.428C285.694 148.59 286.17 145.953 286.439 143.597C283.202 143.432 281.603 148.164 280.382 150.665C277.976 155.601 275.304 160.4 272.354 164.976C269.319 169.688 265.404 174.294 259.576 172.844C256.905 172.18 254.431 170.731 251.889 169.654C249.299 168.549 246.645 167.613 243.947 166.848C235.254 164.375 226.23 163.696 217.322 164.714C212.98 169.887 209.15 175.574 205.963 181.648C205.145 183.199 204.373 184.775 203.641 186.375C202.927 187.941 201.769 189.817 201.522 191.562C201.055 194.897 206.268 195.363 208.284 195.983C216.554 198.538 225.035 200.298 233.593 201.272C237.975 201.772 242.375 202.062 246.775 202.135C250.049 202.193 253.537 203.008 255.347 199.527C257.304 195.751 259.212 192.022 261.938 188.799C264.582 185.667 267.712 183.616 271.191 181.76C274.15 180.179 277.055 178.439 278.95 175.419Z" fill="#1F2144"/>
<path d="M280.647 137.692C277.589 135.908 274.249 134.9 270.778 134.711C270.491 134.696 270.491 135.181 270.778 135.196C274.173 135.38 277.428 136.369 280.422 138.109C280.674 138.26 280.903 137.838 280.647 137.692Z" fill="#AD7E4E"/>
<path d="M280.485 140.625C278.734 139.54 276.84 138.939 274.824 138.827C274.536 138.813 274.536 139.297 274.824 139.312C276.763 139.419 278.573 139.995 280.261 141.042C280.512 141.197 280.737 140.78 280.485 140.625Z" fill="#AD7E4E"/>
</svg>
