<svg width="386" height="278" viewBox="0 0 386 278" fill="none" xmlns="http://www.w3.org/2000/svg">
<path d="M183.201 45.0823H142.749V74.7068H183.201V45.0823Z" fill="#C2C4B5"/>
<path d="M174.551 51.4253H151.435V68.3643H174.551V51.4253Z" fill="#D9DDC7"/>
<path d="M160.983 91.1521H132.089V112.307H160.983V91.1521Z" fill="#C2C4B5"/>
<path d="M154.773 95.7097H138.262V107.787H154.773V95.7097Z" fill="#D9DDC7"/>
<path d="M220.925 84.2017H193.826V104.065H220.925V84.2017Z" fill="#C2C4B5"/>
<path d="M215.146 88.4556H199.64V99.8113H215.146V88.4556Z" fill="#D9DDC7"/>
<path d="M386 269.392C386 269.848 385.103 270.304 383.38 270.759C379.396 271.785 370.925 272.772 358.865 273.646C357.967 273.722 357.034 273.76 356.065 273.836C355.024 273.912 353.947 273.988 352.87 274.026C343.43 274.633 332.196 275.165 319.489 275.621C286.97 276.836 244.902 277.558 198.887 277.596C198.528 277.596 198.169 277.596 197.81 277.596C197.02 277.596 196.231 277.596 195.477 277.596C133.704 277.596 78.7867 276.305 43.9699 274.368C41.3497 274.216 38.8372 274.064 36.4682 273.912C16.5832 272.62 4.9895 271.063 4.9895 269.392C4.9895 268.025 12.8143 266.733 26.6334 265.594C30.5817 265.252 35.0325 264.948 39.914 264.644C41.4574 264.569 43.0367 264.455 44.6519 264.379C44.9391 264.379 45.2262 264.341 45.5134 264.341C49.2822 264.151 53.2664 263.923 57.466 263.733C58.3633 263.695 59.2607 263.657 60.158 263.619C61.7373 263.543 63.3525 263.467 64.9677 263.429C69.1673 263.277 73.5463 263.087 78.1048 262.935C79.2175 262.897 80.3661 262.859 81.5147 262.821C85.4271 262.707 89.483 262.556 93.6467 262.442C95.2619 262.404 96.8771 262.366 98.4923 262.328C99.5332 262.29 100.574 262.29 101.615 262.252C103.23 262.214 104.881 262.176 106.497 262.138C107.322 262.138 108.148 262.1 109.009 262.1C110.014 262.062 111.019 262.062 112.024 262.024C112.383 262.024 112.742 262.024 113.101 261.986C114.537 261.948 116.008 261.91 117.48 261.91C118.27 261.91 119.023 261.872 119.813 261.872C124.946 261.758 130.186 261.682 135.535 261.606C135.822 261.606 136.145 261.606 136.432 261.606C136.97 261.606 137.545 261.606 138.083 261.568C156.173 261.34 175.412 261.188 195.369 261.188C197.559 261.188 199.748 261.188 201.902 261.188C202.763 261.188 203.589 261.188 204.45 261.188C212.562 261.188 220.566 261.226 228.391 261.302C228.75 261.302 229.109 261.302 229.432 261.302C229.827 261.302 230.186 261.302 230.581 261.302C230.688 261.302 230.796 261.302 230.904 261.302C231.622 261.302 232.304 261.302 233.022 261.302C240.739 261.378 248.276 261.454 255.635 261.568C255.922 261.568 256.245 261.568 256.532 261.568C257.034 261.568 257.501 261.568 258.004 261.606C265.792 261.72 273.366 261.872 280.652 262.024C281.406 262.024 282.196 262.062 282.95 262.062C288.621 262.176 294.148 262.328 299.461 262.48C299.748 262.48 300.071 262.48 300.358 262.518C300.789 262.518 301.184 262.556 301.614 262.556C308.47 262.745 315.038 262.973 321.212 263.201C335.605 263.733 348.061 264.379 358.111 265.1C359.08 265.176 360.013 265.252 360.946 265.29C362.562 265.404 364.141 265.556 365.613 265.67C366.402 265.746 367.156 265.822 367.874 265.86C379.539 266.961 386 268.139 386 269.392Z" fill="#7F6F63"/>
<path d="M27.9255 267.417C58.1121 268.177 106.425 268.67 160.84 268.67C252.296 268.67 326.453 267.303 326.453 265.594C326.453 263.885 252.296 262.518 160.84 262.518C138.514 262.518 117.229 262.594 97.8104 262.746C76.2742 263.695 57.6096 264.835 42.5701 266.05C38.5501 266.392 34.8171 266.733 31.3354 267.075C30.1509 267.189 29.0023 267.303 27.9255 267.417Z" fill="#564A41"/>
<path d="M303.696 251.731L303.517 255.036H246.482L246.302 251.731H303.696Z" fill="#9B7873"/>
<path d="M281.693 264.568L278.319 254.959H281.945L283.488 264.568H281.693Z" fill="#705049"/>
<path d="M300.322 264.569L296.841 254.58H300.466L302.081 264.569H300.322Z" fill="#9B7873"/>
<path d="M255.276 264.567L256.855 255.034H260.48L257.106 264.567H255.276Z" fill="#9B7873"/>
<path d="M230.186 264.567L231.765 255.034H235.391L232.017 264.567H230.186Z" fill="#705049"/>
<path d="M258.291 256.098L255.814 264.567H255.276L256.855 255.034H260.48L260.157 255.87L258.291 256.098Z" fill="#705049"/>
<path d="M301.04 264.569H300.322L296.841 254.58H300.466L300.574 255.301L298.743 255.719L301.04 264.569Z" fill="#705049"/>
<path d="M259.044 251.731L246.302 251.997V251.731H259.044Z" fill="#705049"/>
<path d="M257.573 251.731L258.183 255.036H229.684L229.109 251.731H257.573Z" fill="#705049"/>
<path d="M303.05 183.025H229.719V252.073H303.05V183.025Z" fill="#9B7873"/>
<path d="M262.311 183.025H229.719V252.073H262.311V183.025Z" fill="#705049"/>
<path d="M299.999 185.874H266.115V200.648H299.999V185.874Z" fill="#705049"/>
<path d="M299.999 202.547H266.115V217.322H299.999V202.547Z" fill="#705049"/>
<path d="M299.999 219.22H266.115V233.995H299.999V219.22Z" fill="#705049"/>
<path d="M299.999 235.894H266.115V250.668H299.999V235.894Z" fill="#705049"/>
<path d="M284.17 194.457C284.17 195.103 284.673 195.634 285.283 195.634C285.893 195.634 286.396 195.103 286.396 194.457C286.396 193.812 285.893 193.28 285.283 193.28C284.673 193.318 284.17 193.812 284.17 194.457Z" fill="#9B7873"/>
<path d="M284.17 212.194C284.17 212.84 284.672 213.371 285.283 213.371C285.893 213.371 286.395 212.84 286.395 212.194C286.395 211.549 285.893 211.017 285.283 211.017C284.672 211.017 284.17 211.549 284.17 212.194Z" fill="#9B7873"/>
<path d="M284.17 229.931C284.17 230.576 284.672 231.108 285.283 231.108C285.893 231.108 286.395 230.576 286.395 229.931C286.395 229.285 285.893 228.754 285.283 228.754C284.672 228.754 284.17 229.285 284.17 229.931Z" fill="#9B7873"/>
<path d="M284.17 247.667C284.17 248.313 284.672 248.844 285.283 248.844C285.893 248.844 286.395 248.313 286.395 247.667C286.395 247.022 285.893 246.49 285.283 246.49C284.672 246.49 284.17 247.022 284.17 247.667Z" fill="#9B7873"/>
<path d="M243.108 182.797C243.108 182.304 243.467 181.886 243.897 181.886L251.184 180.671L258.829 181.886C259.26 181.886 259.619 182.304 259.619 182.797H243.108Z" fill="#4C403D"/>
<path d="M250.609 181.354H252.189L251.614 144.476H251.148L250.609 181.354Z" fill="#4C403D"/>
<path d="M241.528 156.362H261.27L259.511 142.348L257.788 128.523H244.436L242.174 149.944L241.528 156.362Z" fill="#EDD25F"/>
<path d="M242.174 149.945C247.235 151.464 252.835 149.527 256.998 145.539C257.967 144.59 258.793 143.526 259.511 142.349L257.788 128.486H244.436L242.174 149.945Z" fill="#FFED9F"/>
<path d="M255.706 182.797H255.742H273.15C273.94 182.797 274.55 181.885 274.55 180.746C274.55 180.176 274.407 179.644 274.155 179.302C273.904 178.923 273.545 178.695 273.15 178.695H255.742H255.706C256.065 178.733 256.388 178.961 256.639 179.302C256.891 179.682 257.034 180.176 257.034 180.746C257.034 181.847 256.46 182.721 255.706 182.797Z" fill="#FFFEE9"/>
<path d="M256.46 179.303C256.496 179.341 256.496 179.379 256.532 179.379C256.568 179.417 256.568 179.455 256.604 179.492H270.207V179.303H256.46Z" fill="#B7B59E"/>
<path d="M256.855 180.176C256.855 180.252 256.891 180.29 256.891 180.365H270.136V180.176H256.855Z" fill="#B7B59E"/>
<path d="M256.855 181.277H270.064V181.088H256.855C256.891 181.126 256.855 181.201 256.855 181.277Z" fill="#B7B59E"/>
<path d="M256.46 182.152H269.992V181.962H256.568C256.568 182.038 256.532 182.076 256.46 182.152Z" fill="#B7B59E"/>
<path d="M274.263 179.152C274.012 178.772 273.689 178.544 273.33 178.506C273.294 178.506 273.222 178.506 273.151 178.506H255.742H255.67V178.886C255.958 178.924 256.209 179.076 256.424 179.342C256.46 179.38 256.46 179.418 256.496 179.418C256.532 179.456 256.532 179.494 256.568 179.531C256.675 179.721 256.783 179.949 256.819 180.215C256.819 180.291 256.855 180.329 256.855 180.405C256.855 180.519 256.891 180.633 256.891 180.747C256.891 180.861 256.891 180.975 256.855 181.089C256.855 181.165 256.855 181.24 256.819 181.278C256.783 181.392 256.783 181.506 256.747 181.582C256.711 181.696 256.64 181.848 256.568 181.962C256.532 182.038 256.496 182.114 256.424 182.152C256.209 182.418 255.958 182.57 255.67 182.608V182.836V183.025C255.706 183.025 255.706 183.025 255.742 183.025H273.151C273.222 183.025 273.258 183.025 273.33 183.025C274.084 182.911 274.694 181.924 274.694 180.785C274.73 180.139 274.55 179.569 274.263 179.152ZM273.186 182.608H256.496C256.64 182.494 256.747 182.342 256.819 182.152C256.855 182.076 256.891 182.038 256.927 181.962C256.963 181.848 256.998 181.734 257.034 181.62C257.07 181.506 257.106 181.392 257.106 181.278C257.106 181.202 257.142 181.165 257.142 181.089C257.142 180.975 257.142 180.861 257.142 180.747C257.142 180.633 257.142 180.519 257.142 180.405C257.142 180.329 257.142 180.291 257.106 180.215C257.07 179.987 256.998 179.759 256.891 179.531C256.855 179.456 256.819 179.418 256.783 179.342C256.747 179.266 256.711 179.228 256.675 179.152C256.604 179.038 256.532 178.962 256.46 178.886H273.151C273.474 178.886 273.797 179.076 274.048 179.418C274.299 179.759 274.407 180.253 274.407 180.747C274.443 181.772 273.868 182.608 273.186 182.608Z" fill="#736DE8"/>
<path d="M269.059 182.988H269.094H284.959C285.677 182.988 286.252 182 286.252 180.747C286.252 180.139 286.108 179.569 285.893 179.152C285.677 178.734 285.354 178.506 284.995 178.506H269.13H269.094C269.418 178.544 269.705 178.772 269.92 179.152C270.135 179.569 270.279 180.101 270.279 180.747C270.279 181.924 269.741 182.912 269.059 182.988Z" fill="#736DE8"/>
<path d="M221.643 185.76C210.732 182.912 200 181.848 188.909 181.962C188.837 181.355 188.729 180.785 188.621 180.177C207.035 177.899 223.653 179.911 241.708 185.266C241.708 185.304 241.708 185.342 241.708 185.342C234.386 184.241 229.109 184.241 221.643 185.76Z" fill="#E5804E"/>
<path d="M221.643 185.759C221.356 197.153 220.423 208.509 218.844 219.713C210.229 218.802 201.615 218.118 193 217.586C191.959 205.736 190.667 193.887 188.908 181.961C200 181.847 210.732 182.91 221.643 185.759Z" fill="#ED7D2B"/>
<path d="M241.744 185.267C241.026 202.282 240.667 218.917 235.965 235.058C235.211 237.603 234.386 240.223 232.77 242.16C231.371 243.832 229.54 244.895 227.602 245.465C227.099 245.655 226.525 245.769 226.023 245.844C223.546 246.262 220.997 245.996 218.485 245.769C223.582 237.527 224.874 226.323 221.787 216.828C220.818 216.714 219.849 216.638 218.88 216.524C220.459 206.307 221.428 195.977 221.679 185.646C229.109 184.279 234.386 184.279 241.744 185.267Z" fill="#FFB278"/>
<path d="M117.229 137.526C119.203 137.45 121.141 137.412 123.115 137.374C120.89 137.412 119.49 138.627 118.593 140.906C117.66 143.261 117.588 146.071 117.552 148.73C117.516 159.364 118.521 169.999 120.531 180.253C116.296 179.759 112.276 181.43 108.04 181.544C106.568 172.923 105.492 162.251 105.348 153.401C105.276 149.527 105.384 145.35 107.071 142.311C109.368 138.171 113.532 137.64 117.229 137.526Z" fill="#ED7D2B"/>
<path d="M194.974 153.135C196.195 157.465 196.984 162.175 197.882 166.58C199.856 176.493 201.435 186.558 202.548 196.774C203.194 202.623 203.697 208.51 204.091 214.397C187.76 214.397 171.464 214.435 155.132 214.435C150 214.435 144.867 214.435 139.734 214.435C138.801 204.18 138.083 193.85 137.652 183.975C132.161 182.152 126.382 180.899 120.531 180.215C118.521 169.96 117.516 159.326 117.552 148.692C117.552 145.995 117.66 143.223 118.593 140.868C119.49 138.627 120.854 137.374 123.115 137.336C123.187 137.336 123.295 137.336 123.367 137.336C141.278 137.032 159.224 138.057 177.063 140.184C180.832 140.64 184.709 141.172 188.155 143.374C190.775 145.046 193.431 148.008 194.58 151.806C194.759 152.3 194.867 152.718 194.974 153.135Z" fill="#E5804E"/>
<path d="M162.347 210.94C163.208 222.79 161.486 234.906 157.322 245.692C154.63 245.692 151.974 245.654 149.282 245.616C147.631 234.906 146.015 222.98 144.723 210.94C150.61 210.94 156.496 210.94 162.347 210.94Z" fill="#ED7D2B"/>
<path d="M235.57 241.362C236.144 238.286 236.611 235.134 236.862 231.981C236.934 231.146 237.006 230.272 237.042 229.437C237.042 229.171 237.078 228.715 237.078 228.563C237.078 228.145 237.114 227.69 237.114 227.272C237.149 225.525 237.114 223.778 236.97 222.03C236.898 221.157 236.826 220.283 236.719 219.41C236.683 219.03 236.611 218.65 236.575 218.27C236.539 218.119 236.539 218.005 236.503 217.853C236.216 216.296 235.857 214.776 235.355 213.295C235.247 212.953 235.103 212.573 234.996 212.232C234.924 212.08 234.888 211.966 234.816 211.814C234.673 211.51 234.529 211.206 234.386 210.902H218.413C199.748 210.902 181.048 210.94 162.383 210.94C163.244 222.79 161.522 234.906 157.358 245.692C183.309 245.958 209.009 246.072 234.601 246.034C234.96 244.477 235.283 242.92 235.57 241.362Z" fill="#E5804E"/>
<path d="M237.006 227.12C237.006 227.538 236.97 227.994 236.97 228.412C236.97 228.564 236.934 229.019 236.934 229.285C236.898 230.121 236.826 230.994 236.754 231.83C236.575 233.691 236.359 235.552 236.036 237.375C236.108 235.058 236.036 232.703 236.144 230.918C236.431 224.88 236.036 218.195 233.237 212.802C233.237 212.802 197.164 211.815 187.724 210.713C197.415 210.713 207.106 210.713 216.797 210.675H234.062C234.206 210.979 234.385 211.283 234.529 211.587C234.601 211.739 234.637 211.853 234.708 212.005C234.852 212.346 234.995 212.688 235.103 213.068C235.642 214.549 236.036 216.068 236.359 217.626C236.395 217.777 236.431 217.891 236.431 218.043C236.503 218.423 236.539 218.803 236.611 219.183C236.718 220.056 236.826 220.93 236.898 221.803C237.006 223.626 237.041 225.373 237.006 227.12Z" fill="#FFB278"/>
<path d="M203.158 251.314L205.096 264.759H203.158L198.994 251.314H203.158Z" fill="#44413F"/>
<path d="M229.612 251.314L231.55 264.759H229.612L225.448 251.314H229.612Z" fill="#7C7674"/>
<path d="M229.755 252.225L227.638 252.795L230.401 264.759H229.612L225.448 251.314H229.612L229.755 252.225Z" fill="#44413F"/>
<path d="M232.339 245.73L231.909 251.883H133.955L133.489 245.73H232.339Z" fill="#7C7674"/>
<path d="M232.339 245.73L232.304 246.452L133.632 247.932L133.489 245.73H232.339Z" fill="#44413F"/>
<path d="M141.242 251.883L137.078 265.328H135.14L137.078 251.883H141.242Z" fill="#7C7674"/>
<path d="M112.276 251.883L108.076 265.328H106.138L108.076 251.883H112.276Z" fill="#44413F"/>
<path d="M133.489 245.73L134.422 251.883H103.661L102.764 245.73H133.489Z" fill="#44413F"/>
<path d="M135.606 265.328L138.765 253.289L140.919 252.985L141.242 251.883H137.078L135.14 265.328H135.606Z" fill="#44413F"/>
<path d="M130.832 177.48C137.509 178.126 144.113 179.341 150.43 181.126C143.646 179.759 136.611 180.101 129.756 180.671C118.341 179.759 105.922 179.569 92.8212 179.835C100.359 178.05 108.291 177.101 116.26 176.911C121.141 176.797 125.987 176.987 130.832 177.48Z" fill="#E5804E"/>
<path d="M134.888 226.892C136.575 234.185 139.124 243.794 145.333 245.882C144.221 245.882 143.108 245.92 141.995 245.92C130.797 246.034 105.922 248.275 102.764 245.731C99.1025 242.768 93.4672 230.007 92.4263 225.601C88.9446 210.903 89.3753 194.534 92.7852 179.835C105.886 179.569 118.27 179.759 129.72 180.671C128.786 196.243 131.658 212.726 134.888 226.892Z" fill="#ED7D2B"/>
<path d="M152.799 210.675C154.092 222.829 155.707 234.83 157.358 245.616C153.266 245.73 149.282 245.806 145.334 245.882C139.124 243.755 136.576 234.184 134.889 226.892C131.658 212.726 128.787 196.243 129.72 180.671C136.576 180.101 143.611 179.759 150.395 181.127C150.897 190.697 151.723 200.724 152.799 210.675Z" fill="#FFB278"/>
<path d="M53.1228 223.474C52.2972 221.803 52.2613 219.752 52.2972 217.891C52.369 215.384 52.7279 212.916 53.0869 210.447C53.5176 207.523 54.0201 204.636 54.415 201.712C55.2046 195.825 56.1019 189.976 57.071 184.127C60.0502 166.01 63.6396 147.97 68.6647 130.347C70.567 123.625 72.7206 116.978 75.2691 110.56C77.4227 105.129 79.9352 99.7734 83.2016 94.9879C83.4169 94.6841 83.8835 94.9879 83.6682 95.2918C79.3251 101.558 76.3459 108.851 73.7615 116.067C70.6029 124.878 68.0904 133.955 65.865 143.109C61.809 159.744 58.6863 176.607 56.1378 193.546C55.6353 196.964 55.1328 200.42 54.6662 203.839C54.3073 206.725 53.733 209.574 53.3382 212.46C53.051 214.435 52.8356 216.448 52.8356 218.461C52.7997 220.018 52.8715 221.765 53.5894 223.17C53.733 223.512 53.2663 223.816 53.1228 223.474Z" fill="#586825"/>
<path d="M40.9908 94.4563C42.283 100.267 43.5751 106.078 44.6878 111.965C45.9082 118.498 46.7697 125.03 47.4158 131.639C48.8874 146.565 49.7129 161.567 50.036 176.569C50.3231 190.622 50.1077 204.712 49.7129 218.765C49.7129 219.145 49.1745 219.145 49.1745 218.765C50.036 188.799 49.7129 158.794 46.6261 128.942C45.4416 117.32 43.0009 106.002 40.4883 94.6082C40.3806 94.2284 40.919 94.0765 40.9908 94.4563Z" fill="#586825"/>
<path d="M52.5843 106.914C54.9533 112.003 57.3223 117.13 58.5786 122.675C60.0143 128.98 61.0193 135.627 61.3424 142.121C61.8808 152.604 59.8708 163.048 59.2606 173.455C59.2247 173.834 58.6863 173.834 58.7222 173.455C59.3324 163.314 61.127 153.173 60.8399 142.957C60.7681 140.146 60.3733 137.336 60.0502 134.563C59.5836 130.917 59.0093 127.309 58.2556 123.701C56.9993 117.89 54.5944 112.535 52.1178 107.218C51.9383 106.876 52.4049 106.572 52.5843 106.914Z" fill="#586825"/>
<path d="M24.731 125.22C27.3871 128.183 30.0433 131.145 32.3046 134.449C34.9607 138.323 36.9348 142.843 38.7295 147.211C42.5702 156.478 45.1186 166.049 47.021 175.961C47.0927 176.341 46.5543 176.493 46.4825 176.113C44.6161 166.39 42.1394 157.009 38.4065 147.894C36.6477 143.564 34.7095 139.197 32.1969 135.323C29.9356 131.791 27.0641 128.714 24.3362 125.638C24.1208 125.372 24.4798 124.954 24.731 125.22Z" fill="#586825"/>
<path d="M77.3151 150.135C74.6231 153.135 71.8952 156.174 69.6339 159.554C67.0495 163.352 65.1831 167.758 63.3884 172.049C59.5478 181.241 57.0352 190.812 55.1329 200.649C55.0611 201.028 54.5227 200.877 54.5945 200.497C56.4968 190.736 58.9735 181.279 62.7423 172.125C64.537 167.72 66.547 163.2 69.1314 159.25C71.3927 155.794 74.1924 152.755 76.8844 149.717C77.1715 149.451 77.5305 149.869 77.3151 150.135Z" fill="#586825"/>
<path d="M22.1108 139.88C25.2335 143.792 28.3563 147.704 31.0483 151.958C34.171 156.971 36.54 162.554 38.8372 168.061C43.611 179.493 47.1286 191.343 50.036 203.459C50.1078 203.801 49.6053 203.953 49.4976 203.611C46.6261 191.685 43.1803 180.025 38.5142 168.745C36.2888 163.352 33.8839 157.883 30.9406 152.869C28.2845 148.388 24.9464 144.324 21.7159 140.26C21.5006 140.032 21.8596 139.614 22.1108 139.88Z" fill="#586825"/>
<path d="M31.2635 99.3177C33.0582 104.977 34.8529 110.636 36.4681 116.371C38.2986 122.865 39.7344 129.398 40.9907 136.044C43.6827 150.591 45.8004 165.327 47.4156 180.063C48.959 194.078 49.9281 208.13 50.7537 222.221C50.7896 222.601 50.2153 222.601 50.2153 222.221C48.4565 192.331 45.5492 162.478 39.878 133.12C37.6526 121.65 34.2786 110.56 30.761 99.4696C30.6174 99.0898 31.1558 98.9379 31.2635 99.3177Z" fill="#586825"/>
<path d="M77.782 105.053L78.2845 104.521C78.2845 104.521 78.2845 104.521 78.3204 104.521C82.7712 102.09 113.532 91.9116 100.79 81.1253C90.5242 72.4658 81.7303 94.4563 78.4999 103.192C78.1768 103.913 77.9615 104.521 77.782 105.053Z" fill="#7F9939"/>
<path d="M77.7816 105.053L78.2841 104.521C78.2841 104.521 78.2841 104.521 78.32 104.521C78.6072 104.103 78.8943 103.685 79.2174 103.268C79.3609 103.078 79.4686 102.888 79.6122 102.698C79.7558 102.508 79.8993 102.318 80.0429 102.128C80.33 101.749 80.6172 101.331 80.9402 100.913C81.5504 100.115 82.1965 99.2798 82.8785 98.4443C83.2015 98.0265 83.5246 97.6087 83.8835 97.191C84.2425 96.7732 84.6014 96.3934 84.9245 95.9756C85.2834 95.5578 85.6423 95.1781 86.0013 94.7603C86.1807 94.5704 86.3602 94.3805 86.5397 94.1526C86.7192 93.9627 86.8986 93.7728 87.0781 93.5829C87.437 93.2031 87.796 92.8233 88.1549 92.4435C88.5138 92.0637 88.8728 91.7219 89.2317 91.3801C89.4112 91.1902 89.5906 91.0383 89.7701 90.8484C89.9496 90.6965 90.1291 90.5066 90.3085 90.3546C90.6675 90.0128 90.9905 89.709 91.3494 89.4052C91.7083 89.1013 92.0314 88.8355 92.3544 88.5316C92.5339 88.3797 92.6775 88.2658 92.8211 88.1139C93.0005 87.9999 93.1441 87.848 93.2877 87.7341C93.6107 87.4682 93.8979 87.2403 94.185 87.0124C94.3286 86.8985 94.4722 86.7846 94.6158 86.7086C94.7593 86.5947 94.9029 86.5187 95.0106 86.4048C95.549 86.025 95.9797 85.6832 96.3745 85.4553C96.7693 85.1894 97.0565 84.9995 97.2719 84.8476C97.4513 84.7337 97.559 84.6577 97.5949 84.6577C97.559 84.6577 97.4513 84.7337 97.2719 84.8096C97.0565 84.9236 96.7335 85.0755 96.3027 85.3034C95.872 85.4933 95.4054 85.7971 94.8311 86.1389C94.6875 86.2149 94.5439 86.2908 94.4004 86.4048C94.2568 86.4807 94.1132 86.5947 93.9338 86.7086C93.6466 86.8985 93.3236 87.1264 92.9646 87.3543C92.7851 87.4682 92.6416 87.5821 92.4621 87.6961C92.2827 87.81 92.1391 87.9619 91.9596 88.0759C91.6007 88.3417 91.2417 88.6076 90.8828 88.9114C90.5239 89.2153 90.1649 89.5191 89.7701 89.8229C89.4112 90.1268 89.0163 90.4686 88.6574 90.8104C88.2984 91.1522 87.9036 91.494 87.5088 91.8738C87.1499 92.2536 86.755 92.6334 86.3961 93.0132C86.2166 93.2031 86.0013 93.393 85.8218 93.5829C85.6423 93.7728 85.4629 93.9627 85.2834 94.1906C84.9245 94.6084 84.5296 94.9882 84.1707 95.4059C83.8117 95.8237 83.4528 96.2415 83.1298 96.6593C82.7708 97.077 82.4478 97.4948 82.1247 97.9126C81.9453 98.1405 81.8017 98.3304 81.6222 98.5582C81.4428 98.7481 81.2992 98.976 81.1556 99.2039C80.8326 99.6217 80.5454 100.039 80.2224 100.457C79.9352 100.875 79.6481 101.293 79.3609 101.711C79.2174 101.9 79.0738 102.128 78.9661 102.318C78.8225 102.508 78.7148 102.736 78.5713 102.926C78.4995 103.04 78.4277 103.154 78.3559 103.268C78.1764 103.913 77.9611 104.521 77.7816 105.053Z" fill="#586825"/>
<path d="M64.6086 169.087L65.1112 168.555C65.1112 168.555 65.1112 168.555 65.147 168.555C69.5978 166.124 100.359 155.946 87.6164 145.159C77.3509 136.5 68.5569 158.49 65.3265 167.226C65.0394 167.948 64.7881 168.555 64.6086 169.087Z" fill="#7F9939"/>
<path d="M64.6086 169.087L65.1112 168.555C65.1112 168.555 65.1112 168.555 65.147 168.555C65.4342 168.137 65.7213 167.72 66.0444 167.302C66.188 167.112 66.2957 166.922 66.4393 166.732C66.5828 166.542 66.7264 166.352 66.87 166.162C67.1571 165.783 67.4443 165.365 67.7673 164.947C68.3775 164.15 69.0236 163.314 69.7056 162.478C70.0286 162.061 70.3516 161.643 70.7106 161.225C71.0695 160.807 71.4284 160.427 71.7515 160.01C72.1104 159.592 72.4693 159.212 72.8283 158.794C73.0078 158.604 73.1872 158.415 73.3667 158.187C73.5462 157.997 73.7256 157.807 73.9051 157.617C74.264 157.237 74.623 156.857 74.9819 156.478C75.3408 156.098 75.6998 155.756 76.0587 155.414C76.2382 155.224 76.4176 155.072 76.5971 154.882C76.7766 154.73 76.956 154.541 77.1355 154.389C77.4945 154.047 77.8175 153.743 78.1764 153.439C78.5354 153.135 78.8584 152.869 79.1815 152.566C79.3609 152.414 79.5045 152.3 79.6481 152.148C79.8275 152.034 79.9711 151.882 80.1147 151.768C80.4377 151.502 80.7249 151.274 81.012 151.046C81.1556 150.932 81.2992 150.819 81.4428 150.743C81.5863 150.629 81.7299 150.553 81.8376 150.439C82.376 150.059 82.8067 149.717 83.2015 149.489C83.5964 149.223 83.9194 149.033 84.0989 148.882C84.2784 148.768 84.386 148.692 84.4219 148.692C84.386 148.692 84.2784 148.768 84.0989 148.844C83.8835 148.958 83.5605 149.109 83.1298 149.337C82.6991 149.527 82.2324 149.831 81.6581 150.173C81.5145 150.249 81.371 150.325 81.2274 150.439C81.0838 150.515 80.9402 150.629 80.7608 150.743C80.4736 150.932 80.1506 151.16 79.7917 151.388C79.6122 151.502 79.4686 151.616 79.2891 151.73C79.1097 151.844 78.9661 151.996 78.7866 152.11C78.4277 152.376 78.0687 152.642 77.7098 152.945C77.3509 153.249 76.9919 153.553 76.5971 153.857C76.2382 154.161 75.8434 154.503 75.4844 154.844C75.1255 155.186 74.7307 155.528 74.3358 155.908C73.9769 156.288 73.582 156.667 73.2231 157.047C73.0436 157.237 72.8283 157.427 72.6488 157.617C72.4693 157.807 72.2899 157.997 72.1104 158.225C71.7515 158.642 71.3567 159.022 70.9977 159.44C70.6388 159.858 70.2798 160.276 69.9568 160.693C69.5979 161.111 69.2748 161.529 68.9518 161.947C68.7723 162.175 68.6288 162.364 68.4493 162.592C68.2698 162.782 68.1262 163.01 67.9826 163.238C67.6596 163.656 67.3725 164.074 67.0494 164.491C66.7623 164.909 66.4751 165.327 66.188 165.745C66.0444 165.935 65.9008 166.162 65.7931 166.352C65.6496 166.542 65.5419 166.77 65.3983 166.96C65.3265 167.074 65.2548 167.188 65.183 167.302C65.0394 167.948 64.7881 168.555 64.6086 169.087Z" fill="#586825"/>
<path d="M49.8206 187.925L49.9642 187.203C49.9642 187.203 49.9642 187.203 49.9642 187.165C52.3691 182.494 72.5413 155.908 56.2815 154.503C43.1803 153.363 47.5234 176.797 49.4258 185.988C49.5694 186.71 49.7129 187.393 49.8206 187.925Z" fill="#7F9939"/>
<path d="M49.8206 187.925L49.9642 187.203C49.9642 187.203 49.9642 187.203 49.9642 187.165C50.0001 186.672 50.0001 186.14 50.036 185.608C50.036 185.38 50.036 185.115 50.0719 184.887C50.0719 184.659 50.1078 184.393 50.1078 184.165C50.1437 183.671 50.1796 183.178 50.2155 182.646C50.3231 181.62 50.3949 180.557 50.5385 179.456C50.6103 178.924 50.6462 178.354 50.718 177.822C50.7898 177.291 50.8615 176.721 50.9333 176.189C51.0051 175.657 51.1128 175.088 51.1846 174.556C51.2205 174.29 51.2564 174.024 51.3281 173.759C51.364 173.493 51.4358 173.227 51.4717 172.961C51.5794 172.429 51.6871 171.897 51.7589 171.366C51.8666 170.834 51.9743 170.34 52.1178 169.847C52.1896 169.581 52.2255 169.353 52.2973 169.087C52.3691 168.859 52.4409 168.593 52.4768 168.365C52.5844 167.872 52.728 167.416 52.8357 166.96C52.9793 166.504 53.0869 166.049 53.2305 165.631C53.3023 165.403 53.3382 165.213 53.41 164.985C53.4818 164.795 53.5536 164.567 53.6253 164.377C53.7689 163.998 53.8766 163.618 53.9843 163.238C54.0561 163.048 54.092 162.896 54.1637 162.706C54.2355 162.554 54.2714 162.364 54.3432 162.213C54.5945 161.605 54.774 161.035 54.9893 160.579C55.1688 160.124 55.3123 159.782 55.42 159.554C55.4918 159.364 55.5636 159.212 55.5636 159.212C55.5636 159.25 55.4918 159.364 55.3841 159.554C55.2406 159.782 55.0611 160.124 54.8457 160.541C54.5945 160.959 54.3432 161.491 54.0561 162.099C53.9843 162.251 53.9125 162.402 53.8407 162.554C53.7689 162.706 53.6971 162.896 53.6253 163.048C53.4818 163.39 53.3382 163.77 53.1588 164.15C53.087 164.339 53.0152 164.529 52.9075 164.757C52.8357 164.947 52.7639 165.175 52.6921 165.365C52.5485 165.783 52.405 166.238 52.2255 166.694C52.0819 167.15 51.9384 167.606 51.7948 168.099C51.6512 168.593 51.5076 169.087 51.4 169.581C51.2564 170.074 51.1487 170.606 51.0051 171.138C50.8975 171.67 50.7898 172.201 50.6821 172.733C50.6462 172.999 50.5744 173.265 50.5026 173.531C50.4667 173.796 50.3949 174.062 50.359 174.366C50.2873 174.898 50.1796 175.468 50.0719 175.999C50.0001 176.569 49.9283 177.101 49.8565 177.67C49.7847 178.202 49.7488 178.772 49.6771 179.304C49.6412 179.569 49.6053 179.835 49.6053 180.101C49.5694 180.367 49.5694 180.633 49.5335 180.899C49.4976 181.43 49.4617 181.962 49.4258 182.494C49.3899 183.026 49.3899 183.519 49.3899 184.051C49.3899 184.317 49.3899 184.545 49.354 184.811C49.354 185.039 49.354 185.304 49.354 185.532C49.354 185.684 49.354 185.798 49.354 185.95C49.5694 186.71 49.713 187.393 49.8206 187.925Z" fill="#586825"/>
<path d="M44.4006 112.952L44.257 112.23C44.257 112.23 44.257 112.23 44.257 112.192C41.8522 107.521 21.68 80.9344 37.9398 79.5291C51.0409 78.3897 46.6978 101.823 44.7954 111.015C44.6519 111.774 44.5083 112.42 44.4006 112.952Z" fill="#7F9939"/>
<path d="M44.4006 112.953L44.257 112.231C44.257 112.231 44.257 112.231 44.257 112.193C44.2211 111.699 44.2211 111.168 44.1852 110.636C44.1852 110.408 44.1852 110.142 44.1493 109.914C44.1493 109.686 44.1134 109.42 44.1134 109.193C44.0775 108.699 44.0417 108.205 44.0058 107.673C43.8981 106.648 43.8263 105.584 43.6827 104.483C43.6109 103.951 43.575 103.382 43.5033 102.85C43.4315 102.318 43.3597 101.748 43.2879 101.217C43.2161 100.685 43.1084 100.115 43.0366 99.5836C43.0007 99.3177 42.9648 99.0518 42.893 98.786C42.8571 98.5201 42.7854 98.2542 42.7495 97.9884C42.6418 97.4567 42.5341 96.9249 42.4623 96.3932C42.3546 95.8615 42.247 95.3677 42.1034 94.874C42.0316 94.6081 41.9957 94.3803 41.9239 94.1144C41.8521 93.8865 41.7803 93.6206 41.7444 93.3928C41.6368 92.899 41.4932 92.4433 41.3855 91.9875C41.2419 91.5317 41.1343 91.076 40.9907 90.6582C40.9189 90.4303 40.883 90.2404 40.8112 90.0125C40.7394 89.8226 40.6677 89.5947 40.5959 89.4048C40.4523 89.025 40.3446 88.6452 40.2369 88.2654C40.1651 88.0755 40.1292 87.9236 40.0575 87.7337C39.9857 87.5818 39.9498 87.3919 39.878 87.2399C39.6267 86.6323 39.4472 86.0626 39.2319 85.6068C39.0524 85.151 38.9089 84.8092 38.8012 84.5813C38.7294 84.3914 38.6576 84.2395 38.6576 84.2395C38.6576 84.2775 38.7294 84.3914 38.8371 84.5813C38.9806 84.8092 39.1601 85.151 39.3755 85.5688C39.6267 85.9866 39.878 86.5183 40.1651 87.126C40.2369 87.2779 40.3087 87.4298 40.3805 87.5818C40.4523 87.7337 40.5241 87.9236 40.5959 88.0755C40.7394 88.4173 40.883 88.7971 41.0625 89.1769C41.1342 89.3668 41.2061 89.5568 41.3137 89.7846C41.3855 89.9745 41.4573 90.2024 41.5291 90.3923C41.6727 90.8101 41.8162 91.2659 41.9957 91.7216C42.1393 92.1774 42.2829 92.6332 42.4264 93.1269C42.57 93.6206 42.7136 94.1144 42.8213 94.6081C42.9648 95.1019 43.0725 95.6336 43.2161 96.1653C43.3238 96.697 43.4315 97.2288 43.5391 97.7605C43.6109 98.0264 43.6468 98.2922 43.7186 98.5581C43.7545 98.824 43.8263 99.0898 43.8622 99.3937C43.934 99.9254 44.0416 100.495 44.1493 101.027C44.2211 101.597 44.2929 102.128 44.3647 102.698C44.4365 103.23 44.4724 103.799 44.5442 104.331C44.5801 104.597 44.6159 104.863 44.6159 105.129C44.6518 105.395 44.6518 105.66 44.6877 105.926C44.7236 106.458 44.7595 106.99 44.7954 107.521C44.8313 108.053 44.8313 108.547 44.8313 109.079C44.8313 109.344 44.8313 109.572 44.8672 109.838C44.8672 110.066 44.8672 110.332 44.8672 110.56C44.8672 110.712 44.8672 110.826 44.8672 110.978C44.6518 111.775 44.5083 112.421 44.4006 112.953Z" fill="#586825"/>
<path d="M61.2347 145.577L60.9834 145.007C58.1478 141.817 36.8989 124.84 49.6411 120.207C59.9066 116.485 60.9475 136.196 61.1988 143.944C61.2346 144.59 61.2347 145.121 61.2347 145.577Z" fill="#7F9939"/>
<path d="M61.2346 145.577L60.9833 145.007C60.8756 144.59 60.7679 144.21 60.6243 143.754C60.5526 143.564 60.5167 143.374 60.4449 143.184C60.3731 142.995 60.3372 142.805 60.2654 142.615C60.1577 142.235 60.0142 141.817 59.9065 141.399C59.6193 140.602 59.3681 139.766 59.045 138.931C58.9014 138.513 58.7579 138.095 58.5784 137.677C58.399 137.26 58.2554 136.842 58.0759 136.424C57.9323 136.006 57.717 135.589 57.5734 135.171C57.5016 134.981 57.3939 134.753 57.3222 134.563C57.2504 134.373 57.1427 134.145 57.035 133.955C56.8555 133.538 56.6761 133.158 56.4966 132.74C56.3171 132.36 56.1018 131.981 55.9223 131.601C55.8146 131.411 55.7428 131.221 55.6351 131.031C55.5274 130.841 55.4557 130.651 55.348 130.499C55.1685 130.157 54.9891 129.778 54.7737 129.436C54.5943 129.094 54.3789 128.79 54.1994 128.448C54.0917 128.296 54.0199 128.145 53.9481 127.993C53.8405 127.841 53.7687 127.689 53.661 127.575C53.4815 127.271 53.3021 127.005 53.1585 126.739C53.0867 126.587 52.979 126.473 52.9072 126.36C52.8354 126.246 52.7278 126.132 52.656 126.018C52.3329 125.562 52.0817 125.182 51.8304 124.878C51.5792 124.575 51.3997 124.309 51.292 124.157C51.1843 124.005 51.1125 123.929 51.1125 123.891C51.1125 123.891 51.2202 124.005 51.3279 124.119C51.4715 124.271 51.6869 124.499 51.9381 124.764C52.2253 125.03 52.5124 125.41 52.8713 125.828C52.9431 125.942 53.0508 126.056 53.1585 126.17C53.2662 126.284 53.3379 126.398 53.4456 126.511C53.6251 126.777 53.8046 127.043 54.0199 127.309C54.1276 127.461 54.2353 127.575 54.343 127.727C54.4506 127.879 54.5225 128.031 54.6301 128.183C54.8455 128.486 55.0249 128.79 55.2403 129.132C55.4557 129.474 55.6352 129.816 55.8505 130.157C56.0659 130.499 56.2812 130.879 56.4607 131.259C56.6761 131.639 56.8555 132.018 57.0709 132.398C57.2503 132.778 57.4657 133.196 57.6452 133.614C57.7529 133.804 57.8246 134.031 57.9323 134.221C58.04 134.449 58.1118 134.639 58.2195 134.829C58.399 135.247 58.5784 135.665 58.7579 136.082C58.9374 136.5 59.0809 136.956 59.2604 137.374C59.4399 137.791 59.5834 138.247 59.727 138.665C59.7988 138.893 59.8706 139.083 59.9424 139.311C60.0141 139.538 60.086 139.728 60.1578 139.956C60.3013 140.374 60.409 140.792 60.5526 141.21C60.6603 141.627 60.7679 142.045 60.8756 142.425C60.9115 142.615 60.9833 142.843 61.0192 143.033C61.0551 143.222 61.1269 143.412 61.1627 143.602C61.1986 143.716 61.2346 143.83 61.2346 143.944C61.2346 144.59 61.2346 145.121 61.2346 145.577Z" fill="#586825"/>
<path d="M45.4414 188.115L45.0465 187.659C41.4213 185.532 16.2958 176.227 27.0998 167.682C35.8219 160.807 42.4981 179.227 44.9389 186.558C45.1184 187.165 45.2978 187.697 45.4414 188.115Z" fill="#7F9939"/>
<path d="M45.4417 188.115L45.0468 187.659C44.8314 187.317 44.5802 186.975 44.3648 186.596C44.2572 186.444 44.1495 186.254 44.0418 186.102C43.9341 185.95 43.8264 185.76 43.6829 185.608C43.4675 185.266 43.2162 184.924 42.965 184.583C42.4625 183.899 41.9599 183.177 41.4215 182.494C41.1703 182.152 40.8832 181.772 40.596 181.43C40.3089 181.089 40.0217 180.747 39.7704 180.405C39.4833 180.063 39.1961 179.721 38.909 179.379C38.7654 179.228 38.6219 179.038 38.4783 178.886C38.3347 178.734 38.1911 178.544 38.0475 178.392C37.7604 178.05 37.4733 177.746 37.1861 177.442C36.899 177.139 36.6118 176.835 36.3247 176.531C36.1811 176.379 36.0375 176.227 35.8939 176.075C35.7503 175.923 35.6068 175.809 35.4632 175.657C35.1761 175.392 34.8889 175.088 34.6376 174.822C34.3505 174.556 34.0993 174.328 33.8121 174.062C33.6685 173.948 33.5609 173.834 33.4173 173.72C33.2737 173.607 33.166 173.493 33.0224 173.379C32.7712 173.151 32.5199 172.961 32.3046 172.771C32.1969 172.657 32.0892 172.581 31.9456 172.505C31.8379 172.429 31.7303 172.353 31.6226 172.239C31.1919 171.935 30.8329 171.632 30.5099 171.404C30.1868 171.176 29.9356 171.024 29.7561 170.872C29.6125 170.758 29.5049 170.72 29.5049 170.682C29.5408 170.682 29.6125 170.758 29.792 170.834C29.9715 170.948 30.2586 171.062 30.5817 171.252C30.9406 171.442 31.2995 171.708 31.7662 171.973C31.8738 172.049 31.9815 172.125 32.1251 172.201C32.2328 172.277 32.3763 172.353 32.484 172.467C32.7353 172.657 32.9866 172.847 33.2737 173.037C33.4173 173.151 33.5609 173.227 33.6685 173.341C33.8121 173.455 33.9557 173.569 34.0992 173.683C34.3864 173.91 34.6735 174.138 34.9607 174.404C35.2478 174.67 35.535 174.936 35.858 175.202C36.1452 175.468 36.4682 175.733 36.7554 176.037C37.0425 176.341 37.3656 176.645 37.6527 176.949C37.9399 177.253 38.2629 177.594 38.5501 177.898C38.6936 178.05 38.8372 178.24 39.0167 178.392C39.1603 178.544 39.3038 178.734 39.4474 178.886C39.7345 179.228 40.0576 179.569 40.3088 179.911C40.596 180.253 40.8832 180.633 41.1344 180.975C41.4216 181.316 41.6728 181.696 41.9241 182.038C42.0676 182.228 42.1753 182.38 42.3189 182.57C42.4625 182.76 42.5701 182.95 42.6778 183.101C42.9291 183.443 43.1803 183.823 43.3957 184.165C43.6111 184.507 43.8623 184.886 44.0777 185.228C44.1854 185.418 44.293 185.57 44.4007 185.76C44.5084 185.912 44.6161 186.102 44.6878 186.254C44.7596 186.368 44.7955 186.444 44.8673 186.558C45.1186 187.165 45.2981 187.697 45.4417 188.115Z" fill="#586825"/>
<path d="M34.9247 110.825L34.5657 110.256C31.0482 107.217 5.52783 92.0635 18.7367 85.0372C29.3971 79.3783 33.3095 100.647 34.6375 109.078C34.7452 109.762 34.8529 110.332 34.9247 110.825Z" fill="#7F9939"/>
<path d="M34.9247 110.825L34.5657 110.256C34.3863 109.838 34.2068 109.42 33.9915 108.964C33.9197 108.775 33.812 108.585 33.7402 108.357C33.6325 108.167 33.5607 107.939 33.4531 107.749C33.2736 107.331 33.0582 106.914 32.8788 106.496C32.448 105.66 32.0532 104.787 31.5866 103.913C31.3712 103.495 31.1559 103.04 30.9046 102.622C30.6534 102.204 30.438 101.748 30.1867 101.33C29.9355 100.913 29.6842 100.457 29.4329 100.039C29.3253 99.8113 29.1817 99.6214 29.074 99.3935C28.9663 99.1656 28.8228 98.9757 28.6792 98.7858C28.4279 98.3681 28.1767 97.9503 27.9254 97.5705C27.6742 97.1907 27.387 96.7729 27.1358 96.3931C26.9922 96.2032 26.8845 96.0133 26.7409 95.8234C26.5973 95.6335 26.4897 95.4436 26.3461 95.2917C26.0948 94.9499 25.8436 94.5701 25.5923 94.2283C25.3411 93.8864 25.0898 93.5826 24.8386 93.2408C24.7309 93.0889 24.5873 92.937 24.4797 92.785C24.372 92.6331 24.2284 92.4812 24.1207 92.3673C23.8695 92.1014 23.6541 91.7976 23.4387 91.5697C23.331 91.4178 23.2234 91.3038 23.1157 91.1899C23.008 91.0759 22.9003 90.962 22.7926 90.8481C22.3978 90.4303 22.0389 90.0125 21.7517 89.7087C21.4287 89.4048 21.2133 89.177 21.0339 88.9871C20.8903 88.8351 20.8185 88.7592 20.7826 88.7212C20.8185 88.7212 20.8903 88.7972 21.0698 88.9491C21.2492 89.101 21.5005 89.2909 21.8594 89.5568C22.1824 89.8226 22.5773 90.1644 23.008 90.5822C23.1157 90.6962 23.2234 90.7721 23.367 90.886C23.4746 91 23.6182 91.1139 23.7259 91.2279C23.9772 91.4557 24.1925 91.7216 24.4438 91.9875C24.5873 92.1394 24.695 92.2533 24.8386 92.4052C24.9822 92.5572 25.0898 92.7091 25.2334 92.861C25.4847 93.1648 25.7718 93.4687 26.0231 93.8105C26.3102 94.1523 26.5615 94.4941 26.8486 94.8359C27.1358 95.1778 27.4229 95.5576 27.6742 95.9374C27.9613 96.3172 28.2126 96.697 28.4997 97.1147C28.751 97.5325 29.0381 97.9123 29.2894 98.3301C29.433 98.52 29.5765 98.7479 29.6842 98.9378C29.8278 99.1656 29.9355 99.3555 30.079 99.5834C30.3303 100.001 30.5815 100.419 30.8328 100.875C31.0841 101.33 31.2994 101.748 31.5507 102.204C31.8019 102.622 32.0173 103.078 32.2327 103.533C32.3403 103.761 32.448 103.989 32.5557 104.179C32.6634 104.407 32.7711 104.635 32.8788 104.825C33.0941 105.28 33.2736 105.698 33.4889 106.116C33.6684 106.534 33.8479 106.989 34.0273 107.407C34.0991 107.635 34.2068 107.825 34.2786 108.015C34.3504 108.205 34.4222 108.433 34.5299 108.623C34.5658 108.737 34.6376 108.85 34.6734 108.964C34.7452 109.762 34.8529 110.332 34.9247 110.825Z" fill="#586825"/>
<path d="M55.3842 195.711L55.779 195.255C59.4042 193.128 84.5298 183.823 73.7258 175.277C65.0036 168.403 58.3274 186.823 55.8867 194.154C55.7072 194.761 55.5277 195.293 55.3842 195.711Z" fill="#7F9939"/>
<path d="M55.3843 195.711L55.7791 195.255C55.9945 194.913 56.2457 194.571 56.4611 194.192C56.5688 194.04 56.6765 193.85 56.7841 193.698C56.8918 193.546 56.9995 193.356 57.1431 193.204C57.3584 192.862 57.6097 192.52 57.8609 192.179C58.3635 191.495 58.8659 190.773 59.4043 190.09C59.6556 189.748 59.9428 189.368 60.194 189.026C60.4812 188.684 60.7683 188.343 61.0196 188.001C61.3067 187.659 61.5939 187.317 61.881 186.975C62.0246 186.823 62.1682 186.634 62.3118 186.482C62.4553 186.33 62.5989 186.14 62.7425 185.988C63.0296 185.646 63.3168 185.342 63.6039 185.038C63.8911 184.735 64.1782 184.431 64.4654 184.127C64.6089 183.975 64.7525 183.823 64.8961 183.671C65.0397 183.519 65.1832 183.405 65.3268 183.253C65.6139 182.988 65.9011 182.684 66.1524 182.418C66.4395 182.152 66.6908 181.924 66.9779 181.658C67.1215 181.544 67.2292 181.43 67.3727 181.316C67.5163 181.203 67.624 181.089 67.7676 180.975C68.0188 180.747 68.2701 180.557 68.4854 180.367C68.5931 180.253 68.7008 180.177 68.8444 180.101C68.9521 180.025 69.0597 179.949 69.1674 179.835C69.5981 179.531 69.9571 179.228 70.2801 179C70.6032 178.772 70.8544 178.62 71.0339 178.468C71.1774 178.354 71.2852 178.316 71.2852 178.278C71.2493 178.278 71.1775 178.354 70.998 178.43C70.8185 178.544 70.5314 178.658 70.2083 178.848C69.8494 179.038 69.4905 179.304 69.0238 179.569C68.9162 179.645 68.8085 179.721 68.6649 179.797C68.5572 179.873 68.4137 179.949 68.306 180.063C68.0547 180.253 67.8035 180.443 67.5163 180.633C67.3728 180.747 67.2292 180.823 67.0856 180.937C66.942 181.051 66.7984 181.165 66.6549 181.278C66.3677 181.506 66.0806 181.734 65.7934 182C65.5063 182.266 65.2191 182.532 64.8961 182.798C64.6089 183.064 64.2859 183.329 63.9987 183.633C63.7116 183.937 63.3885 184.241 63.1014 184.545C62.8143 184.849 62.4912 185.19 62.2041 185.494C62.0605 185.646 61.9169 185.836 61.7374 185.988C61.5939 186.14 61.4503 186.33 61.3067 186.482C61.0196 186.823 60.6965 187.165 60.4453 187.507C60.1581 187.849 59.871 188.229 59.6197 188.571C59.3326 188.912 59.0813 189.292 58.8301 189.634C58.6865 189.824 58.5788 189.976 58.4352 190.166C58.2917 190.356 58.184 190.545 58.0763 190.697C57.825 191.039 57.5738 191.419 57.3584 191.761C57.1431 192.103 56.8918 192.482 56.6764 192.824C56.5688 193.014 56.4611 193.166 56.3534 193.356C56.2457 193.508 56.1381 193.698 56.0663 193.85C55.9945 193.964 55.9586 194.04 55.8868 194.154C55.7073 194.761 55.5279 195.293 55.3843 195.711Z" fill="#586825"/>
<path d="M68.234 133.728L68.0904 132.778C68.0904 132.778 68.0904 132.778 68.0904 132.74C65.1471 126.549 40.1652 90.6964 61.4501 89.7469C78.6072 88.9873 71.7874 119.371 68.8442 131.221C68.5929 132.208 68.4135 133.044 68.234 133.728Z" fill="#7F9939"/>
<path d="M68.2337 133.728L68.0902 132.778C68.0902 132.778 68.0902 132.778 68.0902 132.74C68.0902 132.094 68.0902 131.411 68.0902 130.689C68.0902 130.385 68.0902 130.081 68.0902 129.74C68.0902 129.436 68.0543 129.094 68.0543 128.79C68.0543 128.144 68.0184 127.461 67.9825 126.815C67.9107 125.448 67.8389 124.081 67.7312 122.637C67.6594 121.916 67.6235 121.232 67.5518 120.51C67.48 119.789 67.4082 119.067 67.3364 118.346C67.2646 117.624 67.1569 116.902 67.0851 116.181C67.0492 115.839 67.0133 115.459 66.9415 115.117C66.9056 114.775 66.8339 114.396 66.798 114.054C66.6903 113.37 66.5826 112.649 66.4749 111.965C66.3673 111.281 66.2237 110.598 66.116 109.952C66.0442 109.61 66.0083 109.306 65.9365 108.965C65.8648 108.623 65.793 108.319 65.7212 108.015C65.5776 107.369 65.4699 106.762 65.3263 106.154C65.1828 105.546 65.0392 104.977 64.8956 104.407C64.8238 104.141 64.7521 103.837 64.6803 103.571C64.6085 103.305 64.5367 103.04 64.4649 102.774C64.3213 102.242 64.1777 101.748 64.0342 101.293C63.9624 101.065 63.8906 100.837 63.8188 100.609C63.747 100.381 63.6752 100.191 63.6035 99.9633C63.3163 99.1277 63.101 98.4061 62.8497 97.8364C62.5985 97.2667 62.4549 96.7729 62.3113 96.4691C62.2036 96.2032 62.1318 96.0133 62.1318 95.9753C62.1677 96.0133 62.2395 96.1652 62.3831 96.4311C62.5266 96.7349 62.7779 97.1527 63.0651 97.7224C63.3522 98.2921 63.6393 98.9758 63.9983 99.8113C64.0701 100.001 64.1778 100.229 64.2854 100.457C64.3931 100.685 64.4649 100.913 64.5726 101.141C64.752 101.596 64.9315 102.09 65.111 102.622C65.2187 102.888 65.2905 103.154 65.3981 103.419C65.4699 103.685 65.5776 103.951 65.6494 104.255C65.8288 104.825 66.0083 105.394 66.1878 106.002C66.3672 106.61 66.5108 107.217 66.6903 107.863C66.8698 108.509 67.0134 109.154 67.1569 109.838C67.3005 110.522 67.4441 111.205 67.5876 111.889C67.7312 112.573 67.8389 113.294 67.9466 113.978C68.0184 114.32 68.0543 114.7 68.126 115.041C68.1619 115.383 68.2337 115.763 68.2696 116.105C68.3414 116.826 68.485 117.548 68.5567 118.27C68.6285 118.991 68.7004 119.713 68.7721 120.435C68.8439 121.156 68.8798 121.878 68.9157 122.599C68.9516 122.941 68.9516 123.321 68.9875 123.663C69.0234 124.005 69.0234 124.384 69.0234 124.726C69.0234 125.448 69.0593 126.132 69.0593 126.815C69.0593 127.499 69.0593 128.182 69.0593 128.828C69.0593 129.17 69.0593 129.474 69.0593 129.816C69.0593 130.119 69.0234 130.461 69.0234 130.765C69.0234 130.955 69.0234 131.145 68.9875 131.297C68.5927 132.208 68.4132 133.044 68.2337 133.728Z" fill="#586825"/>
<path d="M41.9958 141.931L41.4933 141.134C41.4933 141.134 41.4933 141.134 41.4574 141.096C36.3246 136.766 -0.64579 115.497 18.2701 105.128C33.5249 96.7729 39.4833 127.309 41.5651 139.386C41.7446 140.374 41.8881 141.248 41.9958 141.931Z" fill="#7F9939"/>
<path d="M41.9957 141.931L41.4933 141.134C41.4933 141.134 41.4932 141.134 41.4573 141.096C41.2061 140.488 40.9189 139.88 40.6318 139.235C40.4882 138.969 40.3806 138.665 40.237 138.399C40.0934 138.133 39.9498 137.829 39.8062 137.525C39.5191 136.956 39.2319 136.348 38.9448 135.74C38.3346 134.563 37.7244 133.31 37.0424 132.056C36.7194 131.449 36.3963 130.803 36.0374 130.195C35.6785 129.588 35.3195 128.98 34.9965 128.334C34.6375 127.727 34.2786 127.119 33.9197 126.511C33.7402 126.208 33.5607 125.904 33.3813 125.6C33.2018 125.296 32.9864 124.992 32.807 124.726C32.448 124.157 32.0532 123.549 31.6943 122.979C31.2995 122.41 30.9405 121.878 30.5457 121.308C30.3662 121.042 30.1867 120.738 29.9714 120.511C29.7919 120.245 29.5766 119.979 29.3971 119.713C29.0023 119.219 28.6433 118.688 28.2844 118.194C27.8896 117.7 27.5306 117.244 27.1717 116.827C26.9922 116.599 26.8128 116.371 26.6333 116.181C26.4538 115.991 26.2744 115.763 26.0949 115.573C25.736 115.155 25.4129 114.776 25.0899 114.434C24.9463 114.244 24.7668 114.092 24.6233 113.902C24.4797 113.75 24.3002 113.56 24.1566 113.408C23.5823 112.801 23.0798 112.231 22.6132 111.813C22.1825 111.395 21.8236 111.054 21.5723 110.826C21.357 110.636 21.2493 110.484 21.2134 110.484C21.2493 110.522 21.3928 110.598 21.6082 110.788C21.8595 110.978 22.2543 111.281 22.7209 111.661C23.2234 112.041 23.7618 112.535 24.4079 113.104C24.5873 113.256 24.7309 113.408 24.9104 113.56C25.0899 113.712 25.2693 113.864 25.4129 114.054C25.736 114.396 26.0949 114.776 26.4897 115.155C26.6692 115.345 26.8845 115.535 27.064 115.725C27.2435 115.915 27.4229 116.143 27.6383 116.371C28.0331 116.789 28.428 117.244 28.8228 117.7C29.2176 118.156 29.6125 118.65 30.0073 119.181C30.4021 119.675 30.8328 120.207 31.2277 120.738C31.6225 121.27 32.0173 121.84 32.448 122.41C32.8429 122.979 33.2377 123.549 33.6325 124.157C33.812 124.46 34.0274 124.764 34.2068 125.03C34.3863 125.334 34.5658 125.638 34.7811 125.942C35.1401 126.549 35.5349 127.157 35.8938 127.803C36.2528 128.448 36.6117 129.056 36.9347 129.702C37.2937 130.309 37.6167 130.955 37.9398 131.601C38.1192 131.904 38.2628 132.208 38.4423 132.55C38.6218 132.854 38.7653 133.196 38.9089 133.5C39.196 134.145 39.4832 134.753 39.8062 135.361C40.0934 135.968 40.3447 136.576 40.5959 137.184C40.7395 137.488 40.8472 137.791 40.9907 138.057C41.0984 138.361 41.242 138.627 41.3497 138.931C41.4215 139.121 41.4932 139.273 41.565 139.424C41.7445 140.374 41.888 141.248 41.9957 141.931Z" fill="#586825"/>
<path d="M36.0733 161.529L35.3554 160.921C35.3554 160.921 35.3554 160.921 35.3195 160.921C29.2176 158.339 -11.9524 149.072 3.41011 133.424C15.7575 120.814 29.7201 148.274 34.9965 159.25C35.3913 160.086 35.7862 160.883 36.0733 161.529Z" fill="#7F9939"/>
<path d="M36.0732 161.529L35.3554 160.921C35.3554 160.921 35.3554 160.921 35.3195 160.921C34.9247 160.428 34.458 159.934 34.0273 159.402C33.812 159.174 33.6325 158.946 33.4171 158.719C33.2018 158.491 32.9864 158.263 32.771 158.035C32.3403 157.541 31.9096 157.085 31.4789 156.592C30.5815 155.642 29.6483 154.617 28.6792 153.629C28.1766 153.135 27.71 152.642 27.2075 152.148C26.705 151.654 26.2025 151.161 25.7 150.705C25.1975 150.211 24.6591 149.755 24.1566 149.262C23.9053 149.034 23.6541 148.806 23.4028 148.54C23.1515 148.312 22.8644 148.084 22.6131 147.856C22.1106 147.401 21.5722 146.945 21.0697 146.527C20.5313 146.109 20.0288 145.691 19.5263 145.274C19.275 145.084 19.0238 144.856 18.7725 144.666C18.5213 144.476 18.27 144.286 18.0188 144.096C17.5162 143.716 17.0496 143.337 16.5471 142.995C16.0446 142.653 15.578 142.311 15.1114 142.007C14.896 141.855 14.6447 141.703 14.4294 141.514C14.214 141.362 13.9628 141.21 13.7474 141.096C13.3167 140.83 12.886 140.564 12.4911 140.298C12.3117 140.146 12.0963 140.032 11.9168 139.918C11.7374 139.805 11.522 139.691 11.3425 139.577C10.6247 139.159 9.97856 138.779 9.44016 138.513C8.90175 138.247 8.47103 138.019 8.18388 137.868C7.93262 137.754 7.78907 137.64 7.75317 137.64C7.78907 137.64 7.93262 137.716 8.21977 137.83C8.50691 137.943 8.97356 138.095 9.54786 138.323C10.1222 138.513 10.7682 138.855 11.5579 139.235C11.7374 139.311 11.9527 139.425 12.1681 139.501C12.3834 139.615 12.5988 139.691 12.7783 139.805C13.209 140.032 13.6397 140.26 14.1063 140.526C14.3217 140.64 14.573 140.792 14.8242 140.906C15.0396 141.058 15.2908 141.21 15.5421 141.324C16.0087 141.628 16.5112 141.931 17.0137 142.235C17.5162 142.577 18.0188 142.919 18.5572 143.299C19.0956 143.64 19.5981 144.02 20.1365 144.438C20.6749 144.856 21.2133 145.236 21.7517 145.653C22.2901 146.071 22.7926 146.527 23.331 146.983C23.5822 147.211 23.8694 147.438 24.1207 147.666C24.3719 147.894 24.6591 148.122 24.9103 148.388C25.4128 148.882 25.9512 149.337 26.4897 149.831C26.9922 150.325 27.4947 150.819 27.9972 151.312C28.4997 151.806 28.9663 152.338 29.4688 152.832C29.7201 153.097 29.9355 153.325 30.1867 153.591C30.438 153.857 30.6533 154.123 30.8687 154.351C31.3353 154.883 31.766 155.376 32.2326 155.87C32.6634 156.364 33.0941 156.895 33.4889 157.389C33.7043 157.655 33.8837 157.883 34.0991 158.111C34.3145 158.339 34.494 158.605 34.6734 158.832C34.7811 158.984 34.8888 159.136 34.9964 159.25C35.3913 160.086 35.7861 160.883 36.0732 161.529Z" fill="#586825"/>
<path d="M63.6396 150.743L64.3216 150.097C64.3216 150.097 64.3216 150.097 64.3575 150.097C70.3876 147.324 111.306 136.88 95.549 121.688C82.8786 109.42 69.6339 137.298 64.6447 148.426C64.2499 149.299 63.9268 150.097 63.6396 150.743Z" fill="#7F9939"/>
<path d="M63.6395 150.743L64.3215 150.097C64.3215 150.097 64.3215 150.097 64.3574 150.097C64.7522 149.603 65.183 149.072 65.6137 148.54C65.7931 148.312 66.0085 148.046 66.188 147.818C66.4033 147.59 66.5828 147.324 66.7982 147.097C67.193 146.603 67.6237 146.109 68.0545 145.615C68.9159 144.628 69.8132 143.602 70.7824 142.577C71.249 142.083 71.7156 141.552 72.2181 141.058C72.7206 140.564 73.1872 140.07 73.6897 139.577C74.1922 139.083 74.6947 138.589 75.1972 138.095C75.4485 137.867 75.6998 137.602 75.951 137.374C76.2023 137.146 76.4535 136.918 76.7048 136.69C77.2073 136.234 77.7098 135.779 78.2123 135.323C78.7148 134.867 79.2174 134.449 79.7199 134.031C79.9711 133.804 80.2224 133.614 80.4736 133.386C80.7249 133.196 80.9761 133.006 81.2274 132.778C81.7299 132.398 82.1965 131.981 82.6631 131.639C83.1297 131.297 83.5964 130.955 84.063 130.613C84.2783 130.461 84.4937 130.271 84.745 130.12C84.9603 129.968 85.1757 129.816 85.391 129.664C85.8218 129.36 86.2525 129.094 86.6114 128.828C86.7909 128.676 87.0062 128.562 87.1857 128.448C87.3652 128.334 87.5446 128.221 87.7241 128.107C88.442 127.689 89.0522 127.271 89.5906 126.967C90.129 126.663 90.5238 126.435 90.8109 126.284C91.0622 126.132 91.2058 126.056 91.2417 126.056C91.2058 126.056 91.0622 126.132 90.7751 126.246C90.4879 126.36 90.0213 126.549 89.4829 126.777C88.9086 127.005 88.2625 127.347 87.5088 127.727C87.3293 127.803 87.1139 127.917 86.9345 128.031C86.7191 128.145 86.5396 128.221 86.3243 128.372C85.8935 128.6 85.4628 128.866 85.0321 129.132C84.8167 129.284 84.5655 129.398 84.3501 129.55C84.1347 129.702 83.8835 129.854 83.6322 130.006C83.1656 130.309 82.6631 130.651 82.1606 130.993C81.6581 131.335 81.1556 131.715 80.6531 132.094C80.1506 132.474 79.6122 132.854 79.1097 133.272C78.6071 133.69 78.0687 134.107 77.5303 134.525C77.0278 134.981 76.4894 135.437 75.9869 135.892C75.7357 136.12 75.4485 136.348 75.1972 136.576C74.946 136.804 74.6947 137.07 74.4435 137.298C73.941 137.791 73.4026 138.247 72.9001 138.779C72.3976 139.273 71.895 139.804 71.4284 140.298C70.9259 140.792 70.4593 141.324 69.9927 141.855C69.7414 142.121 69.5261 142.387 69.2748 142.615C69.0235 142.881 68.8082 143.147 68.5929 143.413C68.1621 143.944 67.7314 144.476 67.3007 144.97C66.8699 145.501 66.4751 145.995 66.0803 146.527C65.9008 146.793 65.6854 147.021 65.506 147.286C65.3265 147.552 65.147 147.78 64.9676 148.046C64.8599 148.198 64.7522 148.35 64.6446 148.464C64.2497 149.299 63.9267 150.097 63.6395 150.743Z" fill="#586825"/>
<path d="M37.5809 235.362C37.5809 248.997 41.278 260.619 46.4466 265.176H56.102C57.8967 263.619 59.5119 261.188 60.84 258.15C63.3884 252.377 64.9677 244.287 64.9677 235.4C64.9677 222.525 61.6655 211.435 56.9635 206.421H45.6211C40.8832 211.397 37.5809 222.487 37.5809 235.362Z" fill="#91847A"/>
<path d="M44.5442 219.866C44.5442 240.147 51.7588 256.783 60.8758 258.15C63.4242 252.377 65.0035 244.287 65.0035 235.4C65.0035 222.525 61.7013 211.435 56.9993 206.421H45.6928C44.9031 210.599 44.5442 215.119 44.5442 219.866Z" fill="#B5A499"/>
<path d="M90.8468 239.654C92.3902 239.995 94.2207 244.059 94.9386 245.389C96.159 247.629 96.7333 250.136 96.6974 252.719C96.6615 255.377 94.0054 256.859 94.6874 259.783C92.6414 259.555 90.4519 255.074 89.6264 253.289C88.2265 250.326 87.2215 247.288 85.032 245.047L90.8468 239.654Z" fill="#F7A46B"/>
<path d="M92.0312 247.478C92.2824 246.87 92.3901 246.338 92.8568 245.882C95.2616 248.313 98.0254 250.592 101.758 249.642C105.814 248.617 109.547 246.794 113.173 244.781L117.767 262.518C118.305 266.657 112.024 266.885 109.619 266.999C105.886 267.227 102.189 266.771 98.7792 265.556C95.2257 264.303 92.3542 261.91 91.0621 258.112C89.734 254.39 90.5595 251.01 92.0312 247.478Z" fill="#5F5FBB"/>
<path d="M88.5855 234.337L91.5647 244.363C91.5647 244.363 91.6005 244.667 91.7082 245.161C92.0313 246.756 92.785 250.326 92.9645 251.048C93.5388 253.478 95.3694 257.808 96.5898 259.973C98.3845 263.087 101.902 264.72 105.24 264.948C105.312 264.948 105.384 264.948 105.455 264.948C114.896 265.366 116.331 252.909 112.168 246.87C108.578 241.629 102.62 234.982 97.8819 230.956C95.9796 229.323 89.1598 225.563 88.2624 230.045C87.9394 231.64 88.7291 232.893 88.5855 234.337Z" fill="#FFB278"/>
<path d="M97.2359 227.994C98.4204 224.348 101.22 221.537 103.087 218.385C103.158 218.233 103.266 218.081 103.338 217.929L105.348 215.574C105.635 215.536 105.24 213.144 107.143 212.992C111.486 212.65 113.783 214.359 114.86 215.46C117.623 218.309 118.234 221.157 119.454 224.803C121.033 229.589 122.038 235.286 121.787 240.413C121.572 244.781 121.895 249.225 121.715 253.516C121.608 255.833 121.213 257.96 120.495 260.125C119.992 261.606 119.31 264.417 117.803 265.138C114.86 266.468 111.593 259.138 110.696 256.973C109.224 253.403 108.506 249.642 107.824 246.072C107.071 242.312 104.415 239.768 102.153 236.843C100.502 234.754 96.2668 230.88 97.2359 227.994Z" fill="#5F5FBB"/>
<path d="M95.8719 226.437C96.1232 224.576 97.6666 222.373 99.3536 221.689C99.892 221.461 103.912 220.702 104.486 220.664L109.619 235.21C109.368 238.172 100.143 233.007 99.0305 231.982C97.5948 230.728 95.5848 228.601 95.8719 226.437Z" fill="#5F5FBB"/>
<path d="M78.1046 219.031C79.5403 221.006 80.9043 220.816 81.8734 221.12C82.1605 221.195 82.3759 221.347 82.5913 221.537C82.7348 221.689 82.8784 221.841 83.022 221.993C86.0011 224.842 88.765 223.322 91.9236 222.867C93.6465 222.601 95.2258 222.069 96.4462 220.778C97.3435 219.828 99.9637 221.727 101.22 220.512C102.512 219.259 103.122 218.385 104.127 217.094C104.809 216.22 105.455 216.22 106.209 215.347C106.389 215.119 107.501 213.524 107.824 213.03C102.692 211.776 98.9228 207.789 95.9436 203.345L75.3049 209.802C74.7306 210.713 77.4226 218.157 78.1046 219.031Z" fill="#FFB278"/>
<path d="M76.0587 201.256C76.7765 199.471 77.9252 197.724 79.2173 196.319C80.5454 194.875 81.2633 193.584 83.1656 193.47C83.1656 192.938 82.9144 192.293 82.6631 191.799C83.381 192.027 83.8476 192.445 84.3142 193.052C84.9962 192.445 85.5346 191.799 86.3602 191.495C86.3243 191.951 86.1448 192.369 86.1448 192.824C89.4111 192.445 92.5338 192.407 95.2617 195.027C96.8769 196.584 98.205 198.673 98.8152 200.876C99.1741 202.205 99.4613 203.535 99.6048 204.902C99.6766 205.624 99.6407 207.219 100.143 207.599L100.036 208.624C99.1024 210.789 97.9179 209.991 96.1591 210.333C94.1849 210.751 94.1131 212.65 93.7901 214.397C93.1799 213.523 92.7133 212.308 91.816 211.738C90.8827 211.131 89.8059 211.245 88.6932 211.207C86.1448 211.131 84.3142 210.561 82.6631 208.434C81.2274 209.649 81.9093 211.89 82.2683 213.485C81.2274 213.371 80.1865 212.916 79.2173 212.536C78.6789 213.637 78.0687 215.308 77.3868 216.22C76.956 215.65 76.4535 215.005 76.4176 214.245C75.951 214.929 75.8792 215.84 75.4844 216.486C74.6588 215.46 74.4794 213.979 74.2999 212.65C73.6897 208.776 74.6229 204.826 76.0587 201.256Z" fill="#4F3224"/>
<path d="M96.1949 206.687C98.2408 206.725 99.1023 208.32 99.2818 210.333C99.3535 211.245 97.9896 215.232 97.3435 214.397L96.1949 214.245C95.4411 212.954 93.3952 211.435 93.2157 209.839C93.0003 208.13 94.6873 206.687 96.1949 206.687Z" fill="#FFB278"/>
<path d="M97.8099 208.927C97.2715 208.054 96.1588 208.358 95.8357 209.155C97.8458 209.307 98.3483 212.345 96.8408 213.485L97.0202 212.801C97.0202 212.497 97.2356 211.51 96.6972 210.864C96.1588 210.257 95.082 210.371 94.8666 209.535C94.3641 207.864 97.1997 207.142 97.8099 208.927Z" fill="#E5804E"/>
<path d="M85.2474 219.107C85.7499 218.917 87.8317 219.448 86.6832 220.778C88.0471 221.613 89.8777 221.461 91.3853 221.385C92.6415 221.309 95.2617 221.12 96.195 220.664L98.0974 221.727C95.1541 220.702 92.2826 222.829 89.2675 222.677C86.8268 222.563 84.6372 221.537 82.5913 220.208C83.4169 219.79 84.386 219.448 85.2474 219.107Z" fill="#E5804E"/>
<path d="M81.8374 221.119C82.1246 221.195 82.3399 221.347 82.5553 221.537C82.6989 221.689 82.8425 221.841 82.986 221.993C83.3809 221.879 83.6321 221.575 83.8834 220.74C84.2064 219.714 84.7089 218.65 85.9652 218.688C84.4577 217.701 83.0937 220.398 81.8374 221.119Z" fill="#4F3224"/>
<path d="M79.1814 231.792C78.8942 231.868 78.4635 230.767 78.5353 230.007C78.643 228.944 79.0737 227.804 79.9351 227.197L82.9502 231.108C82.2682 231.488 81.6221 231.526 81.0119 232.058C80.5812 232.438 80.2223 233.577 79.7916 233.843C78.3558 234.754 78.8225 232.969 79.1814 231.792Z" fill="#E5804E"/>
<path d="M60.9116 263.201C62.1678 262.669 63.3882 262.48 64.6086 261.72C65.7213 261.036 66.5827 259.859 67.6236 258.985C69.9926 257.01 72.2898 254.921 73.7256 251.769C75.2331 248.389 76.274 244.477 77.1713 240.717C77.7456 238.362 78.4994 236.121 79.1096 233.767C79.4685 232.399 79.4685 229.779 80.3659 228.829L85.9653 228.411C89.6623 232.019 88.2984 238.894 86.2883 243.034C84.6731 246.376 82.6272 249.832 80.4377 252.643C79.4327 253.934 78.3559 255.035 78.1046 256.896C77.8892 258.606 78.8943 260.429 78.4635 262.138C78.0687 263.847 76.3099 264.037 75.1613 264.341C73.6897 264.758 72.218 264.91 70.7105 265.29C69.4901 265.594 68.5569 266.733 67.3724 267.151C66.7263 267.379 66.3674 266.885 65.7213 266.885C65.4701 266.885 65.2547 267.151 64.9316 267.151C64.7163 267.151 64.3932 266.847 64.2138 266.733C63.6036 267.189 63.0293 266.771 62.455 266.505C61.8807 266.24 61.414 266.012 60.8397 265.784C59.404 265.176 59.1887 263.923 60.9116 263.201Z" fill="#F7A46B"/>
<path d="M62.6344 264.417L62.5985 264.569C62.1319 264.834 61.3064 265.214 61.0551 265.897C60.4449 264.91 62.1319 264.455 62.6344 264.417Z" fill="#E5804E"/>
<path d="M63.9984 264.948L63.9625 265.1C63.46 265.366 62.6704 265.746 62.4191 266.429C61.8089 265.442 63.4959 264.986 63.9984 264.948Z" fill="#E5804E"/>
<path d="M65.7213 265.252L65.6853 265.404C65.1828 265.67 64.3932 266.049 64.142 266.733C63.4959 265.746 65.2188 265.29 65.7213 265.252Z" fill="#F7A46B"/>
<path d="M67.3365 265.556L67.3006 265.708C66.7981 265.974 66.0085 266.353 65.7573 267.037C65.1471 266.05 66.834 265.594 67.3365 265.556Z" fill="#F7A46B"/>
<path d="M62.5269 264.037C63.8908 263.619 65.2548 263.505 66.6187 262.822C67.875 262.214 68.88 261.112 70.0645 260.353C72.7565 258.568 75.3409 256.669 77.0996 253.63C78.9661 250.364 80.366 246.528 81.6222 242.882C82.4119 240.565 83.381 238.4 84.2066 236.122C84.7091 234.792 84.8886 232.172 85.8936 231.298L91.2417 231.526C94.9388 235.4 93.6466 241.933 91.2058 245.92C89.2317 249.149 86.7909 252.453 84.2425 255.036C83.058 256.251 81.8376 257.276 81.4428 259.1C81.0838 260.809 82.0171 262.708 81.4428 264.379C80.8685 266.05 79.002 266.126 77.7457 266.354C76.1305 266.658 74.5512 266.696 72.936 266.961C71.6079 267.189 70.5311 268.253 69.2389 268.557C68.557 268.746 68.1622 268.215 67.5161 268.177C67.2648 268.139 66.9777 268.405 66.6546 268.367C66.4034 268.329 66.0803 268.025 65.9009 267.873C65.2189 268.253 64.6446 267.835 64.0344 267.493C63.4601 267.189 62.9576 266.923 62.3833 266.62C60.7681 265.898 60.6245 264.607 62.5269 264.037Z" fill="#FFB278"/>
<path d="M64.2857 265.366L64.2139 265.518C63.6755 265.746 62.7782 266.05 62.491 266.695C61.8808 265.708 63.7473 265.366 64.2857 265.366Z" fill="#E5804E"/>
<path d="M65.6854 266.012L65.6137 266.164C65.0752 266.391 64.1779 266.695 63.8907 267.34C63.3164 266.353 65.147 266.012 65.6854 266.012Z" fill="#E5804E"/>
<path d="M67.4801 266.43L67.4083 266.582C66.8699 266.809 65.9726 267.113 65.6854 267.758C65.1111 266.771 66.9417 266.43 67.4801 266.43Z" fill="#E5804E"/>
<path d="M69.2032 266.885L69.1315 267.037C68.5931 267.265 67.6957 267.569 67.4086 268.214C66.8343 267.189 68.6648 266.885 69.2032 266.885Z" fill="#E5804E"/>
<path d="M91.7083 245.161C92.0313 246.756 92.7851 250.326 92.9645 251.048C93.5388 253.478 95.3694 257.808 96.5898 259.973C98.3845 263.087 101.902 264.72 105.24 264.948C105.312 264.948 105.384 264.948 105.456 264.948C104.881 264.606 104.343 264.265 103.804 263.923C100.789 261.91 98.887 259.213 97.0564 256.061C95.5489 253.478 94.7233 250.212 94.0054 247.287C93.5747 245.578 93.5388 244.211 93.6824 242.502C93.9695 239.502 94.2567 235.552 92.3902 232.969C92.5338 235.134 92.9645 237.375 92.7851 239.654C92.6774 241.211 92.462 243.565 91.7083 245.161Z" fill="#E5804E"/>
<path d="M86.9345 223.93C89.447 223.626 92.5697 223.474 94.9028 222.487C95.872 222.069 96.9847 221.727 97.9538 221.613C100.538 221.347 102.548 222.639 104.738 223.968L104.845 227.424C103.517 228.108 96.7334 231.754 94.9746 232.02C92.0314 232.475 89.77 232.286 87.0062 231.26C85.3551 230.652 82.2324 229.551 81.6581 227.386C80.7607 223.854 85.0321 224.158 86.9345 223.93Z" fill="#E5804E"/>
<path d="M87.0421 223.246C89.5546 222.98 92.6774 222.791 95.0105 221.803C95.9796 221.385 97.0923 221.044 98.0614 220.93C100.646 220.664 102.656 221.955 104.845 223.284L105.132 227.386C103.804 228.07 102.333 228.526 100.933 229.095C99.2459 229.779 96.8051 231.07 95.0463 231.336C92.1031 231.792 89.8418 231.602 87.078 230.576C85.4269 229.969 82.3041 228.867 81.7298 226.703C80.8325 223.17 85.1038 223.474 87.0421 223.246Z" fill="#FFB278"/>
<path d="M97.523 219.714C101.22 216.638 105.563 213.751 110.265 215.536C114.537 217.17 116.044 222.031 115.829 226.475C115.721 228.943 115.326 230.387 113.137 231.412C111.665 232.096 109.296 233.349 109.583 235.4C107.896 232.058 106.676 229.247 103.84 226.702C102.44 225.449 101.112 224.234 99.3894 223.398C98.4921 222.943 97.5589 222.601 96.5898 222.411C96.0514 222.297 92.9645 222.107 92.8927 221.955L97.523 219.714Z" fill="#5F5FBB"/>
<path d="M86.3601 221.726C86.4315 221.688 86.4672 221.651 86.5386 221.651L86.3601 221.726Z" fill="#E5804E"/>
<path d="M80.1506 223.966L86.3961 221.726C86.1089 221.915 85.9654 222.447 86.0371 222.789C86.1448 223.207 85.9653 223.511 86.2525 223.739C86.8268 224.194 90.3803 225.03 89.9495 226.359C90.0213 227.347 89.6983 227.157 88.8368 227.423C87.7241 227.765 85.1757 226.663 85.8218 227.195C86.432 227.689 90.2726 230.423 89.3034 231.563C88.8368 232.094 87.2216 230.917 86.9345 231.411C86.6473 231.904 88.5497 233.31 87.2575 233.234C86.8986 233.234 86.3602 232.892 86.0371 232.778C85.6064 232.626 85.2116 232.474 84.8168 232.246C84.4937 232.056 83.9553 231.563 83.6322 231.563C83.0579 231.563 83.4528 232.018 83.6322 232.398C83.8117 232.778 84.0989 233.538 83.6322 233.803C83.3451 233.652 83.2015 233.234 83.0221 233.006C82.7349 232.626 82.4837 232.36 82.1247 232.094C81.4069 231.563 80.9761 231.145 80.5813 230.271C79.6122 228.22 79.8275 226.093 80.1506 223.966Z" fill="#E5804E"/>
<path d="M79.1098 221.993H81.1198C82.3761 221.765 83.4529 221.119 84.6733 220.702C86.2167 220.17 86.7551 220.702 88.2985 220.626C88.6216 222.335 86.1808 221.993 85.6065 222.904C84.8887 224.082 86.8987 224.31 87.5089 224.576C88.4421 224.955 91.9597 226.589 89.483 227.196C88.3345 227.462 85.7142 225.753 84.6733 226.437C85.3194 228.564 87.9755 228.981 89.1959 230.766C91.0265 233.425 85.6066 230.994 84.0631 229.817C84.8528 230.614 86.8269 231.716 87.6166 232.589C88.7293 233.767 88.3704 234.298 86.9346 233.919C84.6374 233.349 83.4171 231.488 81.5147 230.235C82.1249 231.032 84.8169 233.197 83.7042 234.26C81.3352 233.539 79.8277 231.45 78.9662 229.133C78.4996 227.88 78.033 226.702 77.5664 225.411C77.0639 224.158 77.6382 222.145 79.1098 221.993Z" fill="#FFB278"/>
<path d="M80.1149 222.106L81.2276 228.487C80.4021 227.955 79.1817 229.284 78.1049 229.095C76.8486 228.867 76.4179 227.575 76.2025 226.36C75.8077 223.929 77.6742 221.46 80.1149 222.106Z" fill="#FFB278"/>
<path d="M268.772 91.6456C271.571 97.3426 266.187 103.078 261.126 104.179C260.731 104.255 260.875 104.863 261.27 104.787C266.726 103.609 272.289 97.3806 269.31 91.3418C269.131 90.962 268.592 91.2658 268.772 91.6456Z" fill="white"/>
<path d="M273.904 101.672C271.248 105.129 267.802 106.99 263.711 107.863C263.316 107.939 263.459 108.547 263.854 108.471C268.126 107.521 271.643 105.584 274.407 101.976C274.658 101.71 274.156 101.369 273.904 101.672Z" fill="white"/>
<path d="M241.744 84.8474C241.385 78.4667 248.528 75.5422 253.589 76.7196C253.983 76.7955 254.091 76.1878 253.696 76.1119C248.276 74.8205 240.775 78.0869 241.134 84.8854C241.169 85.3032 241.78 85.2652 241.744 84.8474Z" fill="white"/>
<path d="M240.954 73.4907C244.723 71.5164 248.564 71.2885 252.655 72.2377C253.05 72.3137 253.158 71.7062 252.763 71.6303C248.528 70.6431 244.543 70.9089 240.595 72.9591C240.272 73.149 240.631 73.6426 240.954 73.4907Z" fill="white"/>
<path d="M190.703 134.373C190.201 134.449 189.626 134.335 188.98 133.993C188.549 133.803 188.083 133.499 187.616 133.082C185.534 131.411 184.458 128.6 183.919 125.676C183.417 122.903 183.345 119.941 183.345 117.624C183.309 110.522 184.852 103.875 185.642 96.9628L199.569 94.9119C199.497 96.3171 198.277 97.6464 197.846 99.0897C197.307 100.913 197.128 102.888 196.697 104.787C195.836 108.737 195.513 112.724 194.974 116.788C194.831 117.89 194.831 120.282 194.651 122.941C194.4 127.954 193.682 134.069 190.703 134.373Z" fill="#FFB278"/>
<path d="M201.04 173.379C202.01 173.341 201.902 166.732 202.44 165.061C202.62 165.745 203.661 173.682 204.989 172.923C205.85 172.429 204.881 169.467 204.773 168.669C204.594 167.112 203.948 164.529 204.666 163.2C206.066 165.327 207.645 169.353 208.47 169.505C209.834 168.023 207.86 163.808 207.286 162.212C206.927 161.187 204.666 156.591 204.594 155.262L205.132 154.996C206.604 154.844 207.537 154.275 208.076 152.755C208.219 152.338 208.722 151.122 208.219 150.742C207.681 150.325 207.322 151.122 206.927 151.35C204.845 152.452 201.866 152.11 199.928 150.856C199.461 152.11 198.205 153.591 197.272 154.389C198.205 156.743 197.989 170.834 198.6 171.29C199.605 171.935 199.641 167.15 200.287 166.086C200.358 167.454 199.712 173.075 201.04 173.379Z" fill="#FFB278"/>
<path d="M197.918 157.009C197.882 156.743 184.637 133.196 185.499 128.866C186.037 126.132 187.078 123.549 189.016 121.346C191.062 121.65 193.287 122.828 194.687 124.195C196.195 125.6 201.615 153.705 202.261 153.895L197.918 157.009Z" fill="#FFB278"/>
<path d="M193.144 192.103C191.852 196.357 190.99 200.876 190.416 205.548C190.308 206.269 190.236 206.953 190.165 207.675C189.411 214.359 189.052 221.195 188.406 227.842C187.365 238.818 185.391 249.946 184.529 260.884C184.457 261.568 184.422 262.214 184.386 262.897L183.309 262.821L179.54 262.517C179.504 262.062 179.468 261.606 179.432 261.112C179.432 261.074 179.432 260.998 179.432 260.96C179.432 260.808 179.396 260.618 179.396 260.429C178.75 253.478 177.817 246.262 177.279 239.16C177.063 236.159 176.92 233.197 176.884 230.273C176.812 223.17 177.422 216.714 179.038 210.029C179.073 209.915 179.109 209.801 179.109 209.687C179.289 208.89 179.504 208.092 179.72 207.295C179.899 206.611 180.114 205.889 180.33 205.168C180.509 204.598 180.689 204.028 180.868 203.421C182.34 198.597 183.955 193.47 184.206 189.482L189.052 190.887L193.144 192.103Z" fill="#F9A66E"/>
<path d="M186.145 264.036L179.325 261.112C178.284 264.112 176.992 268.898 177.961 271.291C178.715 273.152 181.945 273.152 183.453 273.455C186.863 274.177 192.534 275.962 195.441 272.848C194.544 268.48 187.652 266.125 186.145 264.036Z" fill="#E2C033"/>
<path d="M184.099 259.669L179.361 259.593C179.038 264.607 176.166 270.417 192.462 269.126C191.421 266.657 184.852 263.809 184.099 259.669Z" fill="#F9A66E"/>
<path d="M178.643 247.098C178.607 247.477 178.571 247.857 178.535 248.237C178.571 247.857 178.607 247.477 178.643 247.098Z" fill="#E5804E"/>
<path d="M181.945 216.6C179.684 226.589 179.432 236.843 178.607 247.098C179.325 236.843 177.171 226.437 178.427 215.992C178.858 212.346 179.612 208.738 180.258 205.168C180.437 204.598 180.617 204.028 180.796 203.421C182.268 198.597 183.883 193.47 184.134 189.482L188.98 190.887C187.114 199.623 183.919 207.902 181.945 216.6Z" fill="#E5804E"/>
<path d="M182.842 192.749C182.053 196.319 181.622 200.041 181.371 203.877C181.263 205.434 181.191 206.991 181.155 208.548C181.155 209.08 181.119 209.612 181.119 210.143C180.976 216.372 181.155 222.677 181.119 228.829C181.084 232.476 180.94 236.16 180.761 239.844C180.438 247.288 179.971 254.77 180.007 262.1C180.007 262.784 180.007 263.429 180.007 264.113L178.93 264.151L175.125 264.227C175.053 263.771 174.982 263.315 174.874 262.86C174.874 262.822 174.838 262.746 174.838 262.708C174.802 262.556 174.766 262.366 174.73 262.214C172.972 252.491 170.639 242.274 169.741 232.4C169.095 225.335 169.167 218.841 170.208 212.004C170.351 211.093 170.495 210.143 170.674 209.194C170.674 209.156 170.674 209.156 170.674 209.118C171.249 206.117 172.003 202.889 172.613 199.737C173.223 196.622 173.654 193.584 173.618 191.077L178.069 191.913L182.842 192.749Z" fill="#FFB278"/>
<path d="M181.909 265.062L174.874 262.783C174.084 265.859 173.223 270.759 174.336 273.037C175.233 274.822 178.463 274.518 179.971 274.708C183.417 275.088 189.232 276.379 191.888 272.999C190.631 268.67 183.56 266.999 181.909 265.062Z" fill="#F9DD50"/>
<path d="M179.504 260.885L174.766 261.264C174.874 266.278 172.505 272.355 188.585 269.544C187.365 267.151 180.581 264.948 179.504 260.885Z" fill="#FFB278"/>
<path d="M211.378 70.2631L196.625 66.1992C196.949 67.6804 194.974 71.1746 194.185 72.6938C193.108 74.7827 191.995 76.8716 190.452 78.5807C189.124 80.0619 187.652 81.3532 186.396 82.9104C185.355 84.2017 184.386 87.1642 185.822 88.4935C188.729 86.1007 194.723 86.7843 197.989 88.1516C200.717 89.329 201.363 98.0644 204.127 95.2159C202.871 92.9371 204.881 85.531 205.742 83.0243C208.076 76.2259 209.045 74.0231 211.378 70.2631Z" fill="#FFB278"/>
<path d="M214.07 115.269C213.783 119.447 208.686 119.751 204.199 130.727C203.05 133.5 201.974 136.994 201.004 141.4C200.107 145.425 204.953 195.863 202.979 198.256C196.051 200.686 187.58 202.661 181.299 202.661C173.725 202.661 161.701 201.218 156.389 195.825C158.219 180.215 160.552 153.857 171.177 136.044C173.977 131.373 176.381 126.549 177.351 121.308C179.289 110.826 180.15 94.9121 184.457 85.0373C184.637 84.6575 184.781 84.2777 184.96 83.9359C186.791 80.0239 189.016 76.7956 192.534 75.7322L203.553 86.4805C204.953 87.2781 215.003 102.584 214.07 115.269Z" fill="#E77EBB"/>
<path d="M203.014 198.256C196.087 200.686 187.616 202.661 181.335 202.661C173.761 202.661 161.737 201.218 156.425 195.825C158.255 180.215 160.588 153.857 171.213 136.044C174.012 131.373 176.417 126.549 177.386 121.308C179.325 110.825 180.186 94.9118 184.493 85.037C184.673 84.6572 184.816 84.2774 184.996 83.9355C184.565 87.0879 184.493 90.3922 184.17 93.1647C183.381 100.305 183.452 106.951 185.714 113.826C188.011 120.814 196.159 129.208 204.235 130.765C203.086 133.538 202.009 137.032 201.04 141.437C200.143 145.425 204.953 195.863 203.014 198.256Z" fill="#EF8EC7"/>
<path d="M234.026 121.802C233.811 122.296 233.416 122.751 232.806 123.169C232.411 123.435 231.945 123.701 231.37 123.929C228.929 124.916 226.13 124.422 223.474 123.397C220.961 122.409 218.556 120.928 216.654 119.713C210.911 116.067 206.388 111.167 201.22 106.838L206.855 93.165C207.968 93.9626 208.398 95.7856 209.296 96.8871C210.48 98.3303 211.988 99.5456 213.28 100.875C216.044 103.723 219.059 106.116 222.038 108.699C222.828 109.382 224.766 110.674 226.848 112.193C230.796 115.117 235.283 118.953 234.026 121.802Z" fill="#FFB278"/>
<path d="M264.249 91.6458C263.854 90.6963 258.111 93.3549 256.46 93.4688C256.998 93.051 263.531 88.9492 262.346 87.9617C261.593 87.3161 259.367 89.405 258.721 89.7848C257.465 90.5823 255.455 92.1775 253.983 91.9876C255.275 89.8227 258.183 86.7084 258.039 85.8728C256.244 85.0753 253.301 88.6454 252.117 89.8227C251.363 90.5823 248.204 94.5322 247.092 95.1399L246.625 94.7221C245.943 93.3169 245.082 92.6712 243.538 92.7092C243.107 92.7092 241.851 92.7092 241.708 93.3549C241.564 94.0385 242.39 94.0765 242.713 94.3803C244.471 95.9755 245.333 99.0518 244.974 101.407C246.23 101.407 248.025 102.014 249.066 102.66C250.789 100.837 263.136 95.6336 263.28 94.8741C263.459 93.6587 259.26 95.4437 258.111 95.2159C259.331 94.5702 264.5 93.051 264.249 91.6458Z" fill="#FFB278"/>
<path d="M251.148 100.989C250.932 101.103 235.462 123.093 231.334 123.929C228.75 124.46 226.094 124.422 223.438 123.397C222.935 121.27 223.115 118.649 223.725 116.75C224.371 114.738 226.166 115.193 227.53 114.092C227.673 113.978 227.817 113.864 228.032 113.674C230.904 111.319 240.774 103.42 244.902 99.7735C246.051 98.748 246.769 98.1024 246.733 97.9504L251.148 100.989Z" fill="#FFB278"/>
<path d="M229.36 114.548C229.289 116.371 228.14 117.662 227.422 119.143C227.422 117.434 228.104 115.535 228.032 113.674C230.904 111.32 240.775 103.42 244.902 99.7737C244.615 100.761 231.909 112.877 229.36 114.548Z" fill="#E5804E"/>
<path d="M202.117 113.37C204.307 111.889 206.46 109.268 208.039 107.977C210.265 106.192 215.828 99.7734 213.962 97.9503C209.942 93.9624 207.142 84.5054 199.604 82.4544C193.108 79.2641 190.846 91.4937 190.846 99.4316C190.846 103.647 194.113 114.396 199.174 114.472C200.143 114.472 201.148 114.054 202.117 113.37Z" fill="#E77EBB"/>
<path d="M222.864 42.8029C221.033 41.1318 218.592 40.2203 216.295 39.8405C213.747 39.4227 211.485 40.1823 209.081 40.3343L213.244 47.5124C216.367 47.2846 220.71 49.0316 222.612 51.7282C223.833 53.4373 222.971 56.3238 222.971 58.4127C222.936 58.4886 223.869 56.8935 223.976 56.7415C227.925 50.8167 226.776 46.373 222.864 42.8029Z" fill="#141119"/>
<path d="M222.469 67.0347L217.803 69.9211C218.772 69.8832 220.208 69.6553 221.356 69.5413C222.11 69.4654 222.397 69.6553 222.541 68.8197C222.649 68.4019 222.613 67.2246 222.469 67.0347Z" fill="white"/>
<path d="M223.079 65.705C222.72 66.6925 223.223 67.4141 223.043 68.4396C220.603 68.2877 218.27 68.9333 218.162 71.7059C218.126 72.2756 219.275 74.2885 219.239 74.7822C219.131 75.8077 217.947 75.7697 217.408 76.7192C216.977 77.4408 217.013 78.4663 216.618 79.074C216.439 79.3778 216.152 79.5677 215.721 79.6437C214.788 79.7956 212.706 79.1119 211.845 78.6942C209.906 77.8206 207.968 77.099 206.317 75.7697C205.133 74.8202 204.235 73.7568 203.517 72.5794C201.328 68.9333 201.184 64.2998 201.902 59.8182C202.799 54.1971 205.061 44.7401 210.983 44.0945C212.814 43.9046 216.152 43.7527 218.593 44.3224L223.295 46.943C225.915 49.6775 222.936 55.5644 223.761 58.6788C224.084 59.9321 225.735 62.5527 226.058 63.882C226.525 66.1228 224.982 64.8315 223.079 65.705Z" fill="#FFB278"/>
<path d="M222.864 59.7789C222.146 59.5891 221.32 59.5511 220.638 59.5131C220.208 59.5131 219.813 60.0447 219.49 60.0447C219.49 60.0447 219.956 59.0575 220.602 58.5259C221.392 57.8805 222.361 57.1211 222.864 57.0452C223.079 58.0323 222.828 58.8297 222.864 59.7789Z" fill="#E5804E"/>
<path d="M222.864 60.3481C222.146 60.1583 221.32 60.1203 220.638 60.0824C220.208 60.0824 219.813 60.0824 219.49 60.0824C219.49 60.0824 219.956 59.6268 220.602 59.0952C221.392 58.4498 222.361 57.6904 222.864 57.6145C223.079 58.6016 222.828 59.361 222.864 60.3481Z" fill="white"/>
<path d="M222.864 60.3481C222.146 60.1583 221.32 60.1203 220.638 60.0824C220.603 59.8546 220.603 59.6268 220.603 59.361C220.603 59.2851 220.603 59.1712 220.603 59.0952C221.392 58.4498 222.361 57.6904 222.864 57.6145C223.079 58.6016 222.828 59.361 222.864 60.3481Z" fill="#141119"/>
<path d="M221.5 59.4006C221.5 59.6284 221.428 59.7803 221.356 59.7803C221.284 59.7803 221.213 59.5904 221.213 59.4006C221.213 59.1728 221.284 59.021 221.356 59.021C221.428 58.983 221.5 59.1728 221.5 59.4006Z" fill="white"/>
<path d="M223.725 56.324C223.725 56.324 222.11 55.6785 221.249 55.5646C220.854 55.5266 220.423 55.4506 220.028 55.6405C219.705 55.8303 219.49 56.21 219.203 56.4758C220.244 55.7544 221.105 56.286 222.11 56.8555C222.577 57.1213 223.079 57.539 223.618 57.4251C224.048 57.2732 224.192 56.5138 223.725 56.324Z" fill="#141119"/>
<path d="M216.582 79.1501C216.403 79.454 216.116 79.6439 215.685 79.7198C214.752 79.8717 212.67 79.1881 211.809 78.7703C209.87 77.8967 207.932 77.1751 206.281 75.8458C205.096 74.8962 204.199 73.8328 203.481 72.6554C204.199 72.1996 204.989 71.9717 205.886 72.2756C206.676 72.5414 207.071 73.1871 207.609 73.7568C208.327 74.5164 209.117 74.9722 209.906 75.5799C211.019 76.4535 214.572 79.4919 216.582 79.1501Z" fill="#E5804E"/>
<path d="M203.84 40.145C197.236 43.2593 195.19 46.4876 193.539 53.7797C192.426 58.7171 191.205 72.6177 186.432 75.0105C190.236 75.922 207.752 79.8339 209.08 78.9604C211.019 77.745 212.813 74.7446 213.783 72.7317C215.182 69.8072 216.259 66.8828 217.192 63.7684C218.09 60.73 218.233 57.7676 218.736 54.6912C219.095 52.4504 219.597 49.2222 220.854 47.703L222.684 46.1078C219.956 39.7272 210.014 37.2205 203.84 40.145Z" fill="#141119"/>
<path d="M293.036 78.0488C292.533 76.1878 291.851 74.4407 290.882 72.6557C290.128 71.2504 290.236 70.3389 288.513 70.3769C286.36 70.4528 283.021 72.01 281.083 72.7696C277.673 74.0989 273.833 74.7825 270.602 76.4157L269.49 86.2144C276.919 87.6197 284.134 86.7841 290.846 84.8472C292.174 84.4674 293.179 84.2015 293.538 83.1761C294.041 81.8468 293.431 79.454 293.036 78.0488Z" fill="#FFB278"/>
<path d="M276.525 79.1882C276.058 81.3151 275.484 83.3281 274.299 85.1891C273.258 86.8602 269.884 86.6703 268.233 85.5689C262.382 81.619 266.869 54.0074 265.864 48.8422L272.253 45.9937C272.253 46.4114 272.325 47.1331 272.433 48.1205C273.079 53.5137 275.232 66.313 276.13 73.7571C276.524 76.5296 276.668 78.5426 276.525 79.1882Z" fill="#FFB278"/>
<path d="M272.074 46.6395C271.751 47.779 271.177 49.4122 270.136 49.83C270.064 49.868 269.992 49.868 269.92 49.9059C269.633 49.9819 269.346 50.0199 269.023 50.0579C268.843 50.0579 268.664 50.0579 268.485 50.0579C267.731 50.0579 266.977 49.9819 266.403 50.0579C265.793 48.2727 263.998 47.779 263.495 45.8039C263.388 45.4241 263.388 44.9304 263.424 44.3986C263.495 42.9553 263.783 41.1322 263.424 40.2207C263.388 40.1447 263.352 40.0687 263.316 39.9928L263.567 39.9548L263.854 39.8788L265.075 39.613L265.9 39.4231L266.367 39.3091L267.803 39.0053L269.346 38.6634L269.741 38.5875L270.315 38.4735L271.751 38.1697C272.146 38.8913 272.433 39.613 272.576 40.3346C272.72 40.8664 272.792 41.4361 272.828 41.9678C272.828 43.4491 272.541 44.9684 272.074 46.6395Z" fill="#FFB278"/>
<path d="M273.187 32.6239C272.899 31.2946 271.428 24.6102 270.315 28.2182C269.884 29.6615 270.494 31.5225 270.459 33.0037C270.423 34.5988 270.207 36.2699 269.884 37.7132C269.454 39.5742 267.12 44.7774 268.772 46.5624C270.064 47.9677 271.5 45.1192 272.181 43.9038L272.54 42.2327C273.904 40.2198 273.689 34.9786 273.187 32.6239Z" fill="#FFB278"/>
<path d="M270.315 38.5498C269.454 37.6382 268.592 37.5623 267.444 37.9421C265.649 38.5878 264.07 39.4993 262.598 40.8286L262.957 43.981C263.316 44.8166 263.818 44.1709 263.89 43.6392C264.249 44.9685 264.895 44.7026 265.541 43.2214C266.151 44.1709 267.228 43.0695 267.731 40.4108C267.731 46.4877 271.141 39.3853 270.315 38.5498Z" fill="#E5804E"/>
<path d="M270.746 34.4859C269.741 34.41 268.377 33.9542 267.659 35.1316C267.049 36.1191 267.336 38.7399 267.515 39.9173C268.269 45.0068 270.315 39.1956 270.1 37.4485L270.746 34.4859Z" fill="#FFB278"/>
<path d="M268.413 35.3592C267.408 35.2833 266.044 34.8275 265.326 36.0049C264.716 36.9923 265.003 39.6129 265.182 40.7902C265.936 45.8794 267.982 40.0686 267.767 38.3216L268.413 35.3592Z" fill="#FFB278"/>
<path d="M266.941 36.1183C265.936 36.0423 264.572 35.5865 263.854 36.7639C263.244 37.7514 263.531 40.372 263.711 41.5494C264.464 46.6388 266.51 40.8278 266.295 39.0807L266.941 36.1183Z" fill="#FFB278"/>
<path d="M265.577 37.6004C264.572 37.5245 263.208 37.0687 262.49 38.2461C261.88 39.2336 262.024 41.8922 262.347 43.0317C263.172 46.1081 264.716 41.9682 264.5 40.2591L265.577 37.6004Z" fill="#FFB278"/>
<path d="M268.987 50.0579C268.808 50.0579 268.628 50.0579 268.449 50.0579C267.803 48.8045 266.977 47.5891 266.833 46.1459C266.654 44.4367 267.444 42.9935 267.479 41.6262C267.479 41.4743 267.479 41.3223 267.444 41.1704C267.444 41.0185 267.408 40.8666 267.372 40.7146C267.336 40.5627 267.264 40.3728 267.156 40.2209L267.515 39.4993C267.515 39.6132 267.551 39.7272 267.587 39.8791C267.623 40.107 267.695 40.3348 267.731 40.5247C267.731 40.5627 267.731 40.5627 267.767 40.6007C267.874 41.0565 268.018 41.5122 268.09 42.006C268.126 42.1579 268.126 42.3478 268.126 42.5377C268.126 42.6137 268.126 42.6517 268.126 42.7276C268.126 42.7656 268.126 42.8036 268.126 42.8795C268.09 43.7911 267.803 44.6646 267.731 45.5382C267.623 46.7156 268.197 47.4372 268.628 48.4247C268.843 48.8805 268.915 49.2982 268.987 49.754C268.987 49.83 268.987 49.9439 268.987 50.0579Z" fill="#E5804E"/>
<path d="M269.848 38.9297C269.059 38.6638 266.044 36.7649 265.254 37.0687C263.818 37.6764 266.798 40.4869 267.659 41.3604C268.879 42.5757 267.623 43.5252 267.48 44.0189C266.833 45.8799 267.767 49.7538 269.49 49.9058C271.356 50.0577 271.966 48.0448 272.756 45.3862C274.012 41.2085 273.258 40.0691 269.848 38.9297Z" fill="#FFB278"/>
<path d="M276.166 73.7572C274.299 75.5043 272.612 77.5172 271.248 79.4922C271.212 76.7576 273.545 75.0865 273.509 72.4659C273.474 69.7693 273.043 67.1107 272.828 64.3761C272.361 58.831 272.146 52.3364 272.146 47.2471L272.469 48.1206C273.115 53.5518 275.268 66.3131 276.166 73.7572Z" fill="#E5804E"/>
<path d="M319.705 248.009C319.454 251.959 318.807 257.162 318.592 261.568C318.449 264.151 317.767 269.012 319.382 270.683C323.976 275.431 326.453 254.2 327.063 251.807L319.705 248.009Z" fill="#FFB278"/>
<path d="M325.125 269.544C325.197 268.329 325.197 267.683 325.017 266.392C324.874 265.556 324.766 264.721 324.73 263.885L318.269 264.075C316.797 266.392 316.474 263.695 314.608 265.632C313.029 267.265 310.193 267.911 307.429 268.101C306.065 268.177 305.132 268.595 304.594 269.126C304.378 269.354 304.235 269.582 304.127 269.81C303.912 270.456 304.127 271.101 304.737 271.481C308.039 273.494 319.597 273.38 324.694 272.848C324.874 271.747 325.053 270.645 325.125 269.544Z" fill="#18181E"/>
<path d="M324.981 270.873C319.92 271.405 308.291 271.519 304.989 269.506C304.809 269.392 304.666 269.278 304.558 269.126C304.342 269.354 304.199 269.582 304.091 269.81C304.091 270.228 304.342 270.645 304.773 270.911C308.075 272.924 319.669 272.81 324.73 272.278C324.874 271.823 324.945 271.329 324.981 270.873Z" fill="white"/>
<path d="M315.075 263.011C315.721 261.796 316.367 261.378 318.197 261.644C319.669 261.834 320.854 263.429 320.566 264.721C320.315 265.822 320.782 266.468 320.315 267.379L312.131 267.151C313.639 265.708 314.465 264.227 315.075 263.011Z" fill="#18181E"/>
<path d="M323.904 195.065C322.828 187.507 323.079 179.607 322.899 171.821C322.612 158.756 323.797 145.501 324.981 132.398L305.132 131.031C306.568 134.601 308.111 172.467 308.255 176.949C308.721 190.128 310.229 201.37 312.06 214.055C313.388 223.322 312.993 227.424 315.11 236.653C316.869 244.287 316.977 251.123 318.305 258.492L328.176 259.555C326.919 245.236 329.396 229.741 327.924 215.232C327.207 208.358 324.874 201.787 323.904 195.065Z" fill="#24404F"/>
<path d="M284.493 74.7442C284.708 75.5797 284.924 76.4153 285.175 77.2508C285.283 77.6686 285.426 78.0864 285.534 78.5042C285.57 78.5801 285.677 78.922 285.713 79.0739C286.216 80.5171 286.718 81.9603 287.329 83.4036C287.652 84.1632 287.975 84.8848 288.334 85.6064C288.513 85.6064 288.657 85.6444 288.872 85.6824C293.861 86.29 298.456 85.1127 303.517 84.6189L303.086 60.8056C302.906 60.1599 293.107 65.2112 291.097 66.1987C288.118 67.6799 285.211 68.8573 283.703 70.9082C283.883 72.1995 284.17 73.4529 284.493 74.7442Z" fill="#A29DAA"/>
<path d="M322.828 248.161C322.935 252.149 322.756 257.352 322.935 261.796C323.043 264.379 322.756 269.278 324.515 270.797C329.54 275.089 330.042 253.706 330.473 251.2L322.828 248.161Z" fill="#FFB278"/>
<path d="M330.185 269.05C330.15 267.835 330.114 267.189 329.791 265.936C329.575 265.1 329.396 264.302 329.288 263.467L322.899 264.302C321.643 266.733 321.068 264.112 319.381 266.239C317.946 268.024 315.182 268.974 312.454 269.43C311.09 269.658 310.193 270.151 309.726 270.759C309.511 270.987 309.403 271.253 309.331 271.481C309.152 272.126 309.439 272.772 310.085 273.076C313.567 274.709 325.053 273.456 330.078 272.43C330.114 271.291 330.185 270.151 330.185 269.05Z" fill="#18181E"/>
<path d="M330.15 270.379C325.16 271.405 313.603 272.696 310.121 271.063C309.941 270.987 309.798 270.873 309.654 270.721C309.439 270.949 309.331 271.215 309.26 271.443C309.331 271.861 309.583 272.24 310.049 272.468C313.531 274.139 325.053 272.848 330.042 271.823C330.114 271.329 330.15 270.873 330.15 270.379Z" fill="white"/>
<path d="M319.561 263.543C320.064 262.251 320.674 261.796 322.54 261.872C324.048 261.91 325.34 263.391 325.16 264.72C325.017 265.822 325.519 266.429 325.16 267.379L316.977 267.987C318.377 266.391 319.058 264.834 319.561 263.543Z" fill="#18181E"/>
<path d="M334.063 159.706C334.529 151.35 339.662 140.07 339.77 130.689L310.193 131.981C310.552 136.044 311.414 141.438 312.096 146.071C314.931 165.783 316.008 184.469 318.413 204.522C320.279 220.208 320.782 241.401 321.248 258.302L331.263 257.884C332.447 250.478 334.242 238.742 334.493 234.223C335.606 215.347 331.047 212.194 331.514 202.471C332.16 189.178 333.309 172.657 334.063 159.706Z" fill="#2C4B60"/>
<path d="M330.258 148.881C324.263 147.096 321.32 141.74 321.284 132.473H322.684C322.72 141.095 325.233 145.88 330.617 147.475L330.258 148.881Z" fill="#24404F"/>
<path d="M340.2 138.589C336.395 138.855 334.098 133.879 329.576 135.284C324.55 136.842 317.695 142.69 312.598 144.058C311.055 144.476 307.25 145.881 305.993 144.172C305.06 142.918 305.563 137.107 305.455 135.398C304.881 127.84 303.732 120.206 302.907 112.648C302.584 109.686 302.081 106.761 301.471 103.913C300.968 101.52 300.322 99.1654 299.64 96.8486C298.169 92.0631 296.266 88.6449 296.123 83.2518C295.979 77.7826 292.569 74.7822 291.744 69.6929C291.277 66.8444 296.015 60.6916 298.492 60.6916L315.218 57.0076C319.095 60.1979 324.335 60.4637 328.678 61.793C333.667 63.3122 335.965 63.806 336.108 70.4905C336.216 74.5164 336.072 78.5422 335.929 82.6441C335.678 89.5185 335.426 96.4688 336.288 103.419C337.616 114.319 341.815 129.056 340.2 138.589Z" fill="#A29DAA"/>
<path d="M283.955 53.7415C284.206 54.5391 284.063 55.5267 284.314 56.3623C285.606 55.7546 287.616 56.3623 289.052 56.2484L283.955 53.7415Z" fill="white"/>
<path d="M311.449 49.9814C309.87 49.9814 308.111 49.2598 306.711 48.4622C306.245 48.1963 305.706 47.5507 305.204 47.7786C304.306 48.2343 303.588 51.2348 302.942 51.9944L296.374 61.2616C298.097 61.9452 299.82 61.4135 300.502 63.8062C301.004 65.5153 302.619 72.0859 302.009 73.7191C305.742 74.2128 313.818 66.7307 316.187 57.3876C313.064 56.4001 312.418 52.5641 311.449 49.9814Z" fill="#FFB278"/>
<path d="M306.891 53.9692C306.891 54.8048 305.742 56.3619 304.091 58.109C300.645 61.793 295.046 66.3126 293.754 66.8823C293.538 66.9963 293.323 67.0343 293.143 67.0722C291.205 67.3761 290.99 64.1858 289.913 62.9704C289.518 63.2743 289.375 63.2363 288.908 63.2743C287.329 59.97 290.344 59.3623 288.334 56.8937C287.436 55.7922 285.965 55.1086 284.852 55.0327C282.124 54.8428 284.565 54.463 283.596 52.7918C283.201 52.1082 280.94 52.3361 280.437 51.5765C279.899 50.8169 281.119 49.3357 281.622 48.5761C282.16 47.8165 283.237 47.0569 283.56 46.2213C284.062 44.8921 282.95 44.1325 282.878 42.9171C282.734 41.0561 284.457 37.5999 285.283 35.8909C286.252 33.9539 288.585 30.3458 290.2 30.1179L293.502 29.2064C294.112 28.7886 295.369 28.4848 296.23 28.4468C308.901 27.7252 306.891 45.1199 306.891 53.9692Z" fill="#FFB278"/>
<path d="M312.669 40.7146C312.454 36.3469 310.049 33.1186 307.537 29.5485C303.696 24.1553 297.845 23.2058 292.174 25.1808C290.308 25.8265 275.771 27.8014 275.663 28.561C273.079 43.9429 287.795 39.4613 291.097 38.094C292.246 37.6003 296.804 39.4993 296.84 41.93C296.984 47.5511 302.44 49.8299 303.911 48.0068C304.88 46.7915 306.352 51.9567 308.936 53.324C311.377 53.4759 311.952 53.4759 312.669 52.9822C311.198 49.488 312.849 44.6646 312.669 40.7146Z" fill="#260F0E"/>
<path d="M300.322 49.2599C300.179 48.2345 300.179 46.8672 300.179 46.8672C300.143 44.5125 302.189 42.2717 303.589 43.2592C304.988 44.2466 305.455 46.4874 305.311 47.9686C305.168 49.4118 304.271 52.1084 302.44 52.0704C300.897 52.0324 300.466 50.3613 300.322 49.2599Z" fill="#FFB278"/>
<path d="M300.968 46.9426C300.932 46.6768 301.291 45.7653 301.363 45.4994C302.009 43.6384 303.768 43.8283 304.199 45.6134C303.265 44.1701 302.512 45.6513 302.045 46.6008C302.583 46.4869 303.05 47.5503 303.014 48.006C302.978 48.8416 302.404 49.1074 301.794 49.3733V49.2973C301.794 48.6897 302.26 47.8161 301.722 47.1705C301.399 46.8287 301.004 47.3984 300.968 46.9426Z" fill="#E5804E"/>
<path d="M304.306 57.5395C304.234 57.7294 304.199 57.9193 304.091 58.0712C300.645 61.7552 295.046 66.2748 293.754 66.8445C293.538 66.9585 293.323 66.9964 293.143 67.0344L292.713 66.9585C294.328 65.7431 300.753 60.274 301.83 58.8308C304.127 55.8304 302.619 51.9564 303.481 48.5002C304.091 49.7156 304.055 51.5766 304.163 52.9819C304.342 54.5011 304.773 56.0962 304.306 57.5395Z" fill="#E5804E"/>
<path d="M284.385 44.8159C284.636 44.3983 285.031 44.0946 285.39 44.2085C285.856 44.3224 286.323 44.702 286.61 45.0817C286.754 45.2336 286.933 45.6133 287.041 45.879C287.292 46.4865 287.149 46.8282 287.149 46.8282C287.041 46.8662 287.005 46.3726 286.861 46.4106C286.108 46.4865 285.139 46.4865 284.349 46.2967C284.205 46.2587 284.062 46.2208 283.918 46.1448C283.954 45.7272 284.134 45.1956 284.385 44.8159Z" fill="#E5804E"/>
<path d="M287.185 46.8281C287.078 46.8281 286.934 46.8661 286.791 46.8661C286.575 46.8661 286.324 46.9041 286.073 46.9041C285.498 46.9041 284.852 46.8661 284.314 46.7522C284.17 46.7142 284.027 46.6763 283.883 46.6383C283.847 46.3346 283.991 45.9171 284.242 45.6134C284.493 45.2717 284.852 45.0439 285.247 45.1199C285.642 45.1958 286.037 45.4235 286.324 45.6893C286.396 45.7272 286.432 45.8032 286.503 45.8411C286.647 45.993 286.826 46.2587 286.97 46.4865C287.114 46.6763 287.185 46.8281 287.185 46.8281Z" fill="white"/>
<path d="M286.324 45.6513C286.252 45.955 286.144 46.4865 286.073 46.9041C285.498 46.9041 284.852 46.8661 284.314 46.7522C284.17 46.7142 284.027 46.6763 283.883 46.6383C283.847 46.3346 283.991 45.9171 284.242 45.6134C284.493 45.2717 284.852 45.0439 285.247 45.1199C285.642 45.1958 286.037 45.4235 286.324 45.6513Z" fill="#260F0E"/>
<path d="M285.355 46.1443C285.355 46.2581 285.427 46.3718 285.498 46.3718C285.606 46.3718 285.678 46.296 285.714 46.1822C285.714 46.0685 285.642 45.9547 285.57 45.9547C285.463 45.9168 285.355 46.0305 285.355 46.1443Z" fill="white"/>
<path d="M282.339 43.7147C282.806 43.0311 286.108 41.7778 288.011 41.5879L288.728 43.3349C288.298 43.5628 285.247 44.854 283.308 46.1453C283.093 45.8035 282.124 44.0185 282.339 43.7147Z" fill="#260F0E"/>
<path d="M340.2 138.589C336.395 138.855 334.098 133.879 329.575 135.284C324.55 136.842 317.695 142.69 312.598 144.058C311.054 144.476 307.25 145.881 305.993 144.172C305.06 142.918 305.563 137.107 305.455 135.398C304.881 127.84 303.732 120.206 302.906 112.648C302.583 109.686 302.081 106.761 301.471 103.913C306.747 103.381 315.649 102.28 318.735 99.2414C321.786 96.241 325.519 81.125 324.981 77.4409L332.267 78.2005C333.344 80.1755 334.6 81.4288 335.929 82.6062C335.677 89.4806 335.426 96.4309 336.287 103.381C337.616 114.319 341.815 129.056 340.2 138.589Z" fill="#8C8793"/>
<path d="M347.809 142.577L353.624 142.007C353.696 133.727 353.588 125.448 353.588 117.092C353.588 110.104 352.691 103.723 350.825 97.1527C348.958 90.6202 346.876 82.2266 343.215 76.6436L328.929 80.0617C332.268 90.3543 341.205 100.343 342.964 111.661C344.723 122.485 346.517 132.474 347.809 142.577Z" fill="#FFB278"/>
<path d="M333.416 91.4556C336.18 89.6325 338.944 87.8095 341.708 85.9865C343.323 84.923 344.902 83.8596 346.445 82.7582C346.445 82.6442 346.481 82.4923 346.41 82.3784C344.077 77.8587 341.42 71.7819 338.262 68.2118C335.283 64.8316 331.298 59.9322 326.812 63.6163C316.869 71.8199 333.416 91.4556 333.416 91.4556Z" fill="#A29DAA"/>
<path d="M356.998 152.641C356.926 152.983 356.89 153.249 356.819 153.515C356.424 154.92 355.778 155.11 354.27 154.464C353.875 155.794 352.404 156.06 351.722 154.882C350.932 155.908 349.425 156.515 348.743 154.92C347.666 155.946 346.84 156.705 346.517 154.768C346.481 154.464 346.445 154.123 346.445 153.819C346.445 152.679 346.697 151.502 346.625 150.325C345.799 152.11 344.363 154.464 343.574 152.983C343.251 152.414 344.292 150.704 344.435 150.173C344.651 149.375 344.471 148.615 344.579 147.78C344.974 145.045 348.096 143.716 347.953 140.336L353.516 139.766C354.378 142.159 355.814 144.134 356.711 147.058C357.142 148.615 357.285 150.97 356.998 152.641Z" fill="#FFB278"/>
<path d="M356.783 153.477C356.388 154.882 355.742 155.072 354.234 154.426C353.84 155.756 352.368 156.022 351.686 154.844C350.896 155.87 349.389 156.477 348.707 154.882C347.63 155.908 346.804 156.667 346.481 154.73C346.445 154.426 346.41 154.085 346.41 153.781C347.056 153.287 348.025 153.287 348.743 154.009C349.209 152.755 350.573 153.325 351.255 153.895C352.045 152.793 353.193 152.565 354.055 153.629C354.557 152.376 355.885 152.641 356.783 153.477Z" fill="#E5804E"/>
<path d="M226.561 17.9265L229.863 40.6007L238.621 34.22L242.964 48.9563L239.662 27.4215L231.119 35.3974L226.561 17.9265Z" fill="#EFAD2B"/>
<path d="M254.234 0L255.383 22.7121L246.338 18.8382L245.118 34.1821L244.184 12.5714L253.301 18.0026L254.234 0Z" fill="#EFAD2B"/>
<path d="M262.562 14.4705L258.721 36.8785L250.789 30.9157L246.23 45.5378L250.035 24.2692L257.716 31.7892L262.562 14.4705Z" fill="#EFAD2B"/>
</svg>
