<svg width="303" height="277" viewBox="0 0 303 277" fill="none" xmlns="http://www.w3.org/2000/svg">
<path d="M211.611 186.527C188.377 186.527 167.171 190.355 151.046 196.657C145.187 196.067 139.113 195.723 132.885 195.655C120.432 192.851 106.33 191.267 91.3891 191.267C40.9163 191.267 0 209.322 0 231.595C0 253.527 39.68 271.371 89.0905 271.91C101.543 274.715 115.646 276.298 130.586 276.298C153.822 276.298 175.028 272.47 191.153 266.166C197.73 266.831 204.577 267.183 211.611 267.183C262.085 267.183 303 249.128 303 226.855C303 204.582 262.085 186.527 211.611 186.527Z" fill="#FAF3F0"/>
<path d="M101.357 157.43C99.8711 154.71 97.9002 153.405 95.7784 153.079C97.6335 149.812 99.5682 146.306 99.7503 142.438C99.9469 138.265 98.1336 133.938 94.624 131.941C90.9486 129.851 86.5901 130.462 83.2942 133.084C81.9578 134.15 80.8806 135.479 79.941 136.926C79.9831 129.428 79.6701 119.622 72.3895 117.439C61.3416 114.125 59.9054 129.613 60.7609 143.587C59.9739 143.155 59.1111 142.829 58.1635 142.64C54.5128 141.91 50.8374 143.692 48.9808 147.214C45.9305 152.999 49.236 160.701 51.947 165.871C55.0936 171.874 59.5636 176.76 64.8044 180.643C66.3999 181.824 68.4246 181.878 70.2051 181.174C70.4702 182.019 70.9087 182.751 71.527 183.372C72.7676 184.602 74.3965 185.514 76.1304 185.43L76.6467 185.355C77.208 185.419 77.7691 185.374 78.3302 185.228C80.1 186.607 82.4688 186.941 84.9018 185.203C89.307 182.06 93.45 178.43 96.9802 174.178C100.809 169.567 104.795 163.722 101.357 157.43Z" fill="#A5BA7A"/>
<path d="M106.248 181.899L100.656 225.042C100.422 227.385 98.5926 229.163 96.4117 229.163H57.2081C55.0272 229.163 53.198 227.385 52.9636 225.042L47.3714 181.899C47.1045 179.171 49.077 176.795 51.616 176.795H102.01C103.325 176.795 104.491 177.435 105.259 178.433C105.259 178.433 105.265 178.433 105.272 178.441C105.994 179.36 106.378 180.592 106.248 181.899Z" fill="#C5785E"/>
<path d="M106.248 181.899L100.656 225.042C100.422 227.385 98.5926 229.163 96.4117 229.163H57.2082C55.0273 229.163 53.198 227.385 52.9636 225.042C52.9636 225.042 69.9186 219.126 81.8419 209.049C94.3739 198.456 105.259 178.433 105.259 178.433C105.259 178.433 105.265 178.433 105.272 178.441C105.994 179.36 106.379 180.592 106.248 181.899Z" fill="#BA6E54"/>
<path d="M71.7464 171.448C69.5868 162.619 66.6463 154.088 62.9517 145.875C62.4941 144.856 61.0902 145.747 61.5464 146.76C65.1806 154.841 68.053 163.232 70.1769 171.915C70.4441 173.008 72.0145 172.544 71.7464 171.448Z" fill="#8AA15C"/>
<path d="M78.9723 138.036C74.064 147.916 71.9013 158.92 72.7216 170.098C72.8036 171.218 74.4319 171.227 74.349 170.098C73.5509 159.223 75.5992 148.541 80.3774 138.924C80.8727 137.926 79.468 137.038 78.9723 138.036Z" fill="#8AA15C"/>
<path d="M92.2165 155.9C87.0992 160.56 82.8413 166.066 79.4928 172.323C78.9678 173.304 80.3736 174.189 80.8981 173.21C84.1807 167.075 88.3537 161.708 93.3673 157.143C94.1689 156.413 93.0127 155.174 92.2165 155.9Z" fill="#8AA15C"/>
<path d="M61.9781 174.122C61.2162 173.246 60.4543 172.369 59.6925 171.493C58.9739 170.668 57.8249 171.913 58.5415 172.736C59.3034 173.613 60.0654 174.489 60.8273 175.365C61.5457 176.191 62.6949 174.948 61.9781 174.122Z" fill="#8AA15C"/>
<path d="M62.1627 161.942C61.6742 160.888 61.1861 159.834 60.6977 158.78C60.2292 157.767 58.8249 158.656 59.2925 159.665C59.7808 160.721 60.2691 161.775 60.7573 162.829C61.2258 163.84 62.6303 162.951 62.1627 161.942Z" fill="#8AA15C"/>
<path d="M71.3726 123.132C71.2133 124.128 71.0539 125.126 70.8946 126.122C70.7176 127.228 72.2857 127.704 72.4638 126.59C72.6233 125.592 72.7826 124.596 72.942 123.6C73.119 122.494 71.5509 122.018 71.3726 123.132Z" fill="#8AA15C"/>
<path d="M66.801 144.051C66.6382 143.467 66.4755 142.881 66.3127 142.295C66.0124 141.215 64.4411 141.674 64.7434 142.762C64.906 143.347 65.0688 143.933 65.2315 144.519C65.5318 145.6 67.103 145.139 66.801 144.051Z" fill="#8AA15C"/>
<path d="M86.9285 138.571C86.0605 139.685 85.1925 140.797 84.3247 141.911C83.654 142.771 84.7996 144.021 85.4753 143.155C86.3434 142.041 87.2113 140.929 88.0793 139.815C88.7498 138.955 87.6042 137.706 86.9285 138.571Z" fill="#8AA15C"/>
<path d="M83.3726 158.355C82.1987 158.68 81.2879 159.652 80.9304 160.895C80.6191 161.977 82.1897 162.44 82.4997 161.361C82.6913 160.697 83.185 160.221 83.8052 160.049C84.8186 159.766 84.389 158.072 83.3726 158.355Z" fill="#8AA15C"/>
<path d="M98.3119 161.987C98.0735 161.547 97.5977 161.468 97.1984 161.672C96.3859 162.084 95.5732 162.496 94.7605 162.91C94.3627 163.11 94.2608 163.728 94.4687 164.112C94.7067 164.551 95.1827 164.628 95.5818 164.426C96.3945 164.014 97.2072 163.6 98.0199 163.189C98.4175 162.986 98.5194 162.37 98.3119 161.987Z" fill="#8AA15C"/>
<path d="M94.6674 171.987C93.745 171.872 92.8223 171.756 91.9001 171.64C91.4598 171.586 91.0905 172.084 91.0864 172.518C91.0812 173.038 91.4652 173.343 91.9001 173.398C92.8223 173.514 93.745 173.628 94.6674 173.744C95.1076 173.798 95.4768 173.3 95.4811 172.866C95.4862 172.346 95.1021 172.043 94.6674 171.987Z" fill="#8AA15C"/>
<path d="M58.6981 191.005C57.809 191.022 57.3845 189.702 57.8125 188.996C57.8641 188.912 57.8985 188.828 57.925 188.744C58.4727 188.408 59.3123 188.466 59.6469 189.037C60.0563 189.732 59.4805 190.99 58.6981 191.005ZM59.6388 186.587C58.0507 186.076 56.1542 186.907 55.6049 188.656C54.9075 190.876 56.6541 193.242 58.7361 193.308C59.0715 193.317 59.3142 193.173 59.4708 192.958C60.3254 192.666 61.0658 191.941 61.4445 190.988C62.1526 189.206 61.4065 187.154 59.6388 186.587Z" fill="#FFEADB"/>
<path d="M77.9334 190.084C77.774 190.166 77.6197 190.189 77.4694 190.187C77.4028 190.147 77.3301 190.114 77.248 190.089C76.5674 189.882 76.1001 188.906 76.4717 188.199C76.8306 187.515 77.9292 187.495 78.3936 188.054C78.8851 188.648 78.5659 189.751 77.9334 190.084ZM79.8986 186.718C78.6236 185.113 76.0035 185.186 74.8886 186.963C74.6976 187.266 74.5713 187.594 74.4928 187.929C74.3728 188.086 74.2917 188.29 74.2752 188.539C74.1143 190.99 76.6219 193.1 78.7507 191.993C80.5061 191.08 81.2054 188.361 79.8986 186.718Z" fill="#FFEADB"/>
<path d="M94.7886 187.764C94.628 188.586 93.5062 188.58 93.4315 187.717C93.4219 187.609 93.3977 187.506 93.3659 187.407C93.4155 187.363 93.4644 187.317 93.5111 187.26C93.956 186.719 94.9575 186.899 94.7886 187.764ZM95.4596 185.184C94.3872 184.557 92.9458 184.776 92.1302 185.77C91.8519 186.109 91.8245 186.5 91.9379 186.835C91.6554 187.025 91.4467 187.352 91.4784 187.717C91.5986 189.105 92.5104 190.243 93.8091 190.462C95.0934 190.679 96.248 189.794 96.6312 188.479C96.9967 187.223 96.5485 185.823 95.4596 185.184Z" fill="#FFEADB"/>
<path d="M149.484 199.635C149.484 199.635 147.96 214.553 157.701 226.087C169.474 240.029 181.793 236.075 181.793 236.075L165.465 202.601L158.93 192.896L149.484 199.635Z" fill="#5F5FBB"/>
<path d="M115.529 181.586C115.529 181.586 108.349 209.603 107.412 211.499C106.476 213.394 77.5144 224.34 76.9526 227.078C76.3909 229.816 77.3272 232.975 82.7579 233.817C88.1885 234.66 119.461 235.293 122.645 231.923C125.828 228.553 126.015 215.408 128.637 208.038C131.259 200.665 135.379 190.853 135.379 190.853L115.529 181.586Z" fill="#ED9D74"/>
<path d="M128.136 95.0105C128.136 95.0105 107.412 191.329 107.412 193.014C107.412 194.699 107.662 196.384 113.654 198.63C119.647 200.877 120.618 199.894 125.875 202.07C131.132 204.247 136.875 200.315 136.875 200.315L157.354 115.75V92.2023L128.136 95.0105Z" fill="#5F5FBB"/>
<path d="M131.658 186.501C131.658 186.501 123.16 213.243 122.223 215.137C121.287 217.034 93.6425 229.255 93.0807 231.992C92.5189 234.731 93.4552 237.889 98.886 238.732C104.317 239.574 135.588 240.207 138.774 236.837C141.957 233.467 142.144 220.323 144.766 212.951C147.388 205.58 151.507 195.768 151.507 195.768L131.658 186.501Z" fill="#FAAC84"/>
<path d="M244.744 175.773C243.741 194.109 243.494 201.656 238.497 204.082C233.502 206.508 231.007 206.241 231.007 206.241L230.917 206.128C229.666 204.623 216.258 188.424 210.783 182.519C205.038 176.316 192.303 169.846 190.055 167.152C187.808 164.451 173.576 102.653 173.576 102.653L174.228 98.1222L174.521 96.134V96.1172L175.824 87.0822L179.981 86.8968L212.326 85.4403L216.184 85.2624L223.764 84.9236L226.07 87.3742L238.041 100.056L242.423 104.699C242.423 104.699 242.49 105.791 242.603 107.708C243.284 119.143 245.599 160.085 244.744 175.773Z" fill="#FAE8DE"/>
<path d="M244.744 175.773C243.74 194.109 244.739 197.734 238.497 204.082C234.511 208.137 231.007 206.241 231.007 206.241L230.917 206.128C229.666 204.623 216.258 188.423 210.782 182.519C205.038 176.316 192.303 169.846 190.055 167.152C187.808 164.45 173.576 102.653 173.576 102.653L174.228 98.1219L174.521 96.1337V96.1169L177.644 97.9534L179.765 97.8617C179.765 97.8617 180.259 99.4811 180.266 99.4905C180.437 99.9342 186.274 114.234 199.547 129.52C213.03 145.04 222.76 143.157 228.13 140.73C231.719 139.103 233.914 126.195 234.977 117.817C235.501 113.659 235.749 110.619 235.749 110.619L238.041 100.056L239.749 92.2022C239.749 92.2022 241.36 92.0243 243.63 91.839C243.323 98.1875 247.857 106.58 247.491 110.22C248.172 121.657 245.599 160.085 244.744 175.773Z" fill="#EBDAD1"/>
<path d="M231.007 206.24C231.007 206.24 230.58 209.071 229.066 212.93C226.16 220.386 220.198 237.095 204.639 239.402C194.234 240.946 181.918 239.402 173.576 233.244C164.262 226.368 157.449 216.65 155.353 206.24C155.083 204.898 154.753 203.176 154.372 201.137C154.124 199.795 153.853 198.323 153.562 196.722C151.802 186.91 149.404 172.562 147.202 157.658C145.42 145.622 143.772 133.225 142.694 122.531C142.663 122.233 142.633 121.941 142.604 121.649C142.155 117.089 141.817 112.859 141.614 109.123C141.442 105.854 141.374 102.967 141.442 100.565C141.449 100.443 141.449 100.323 141.458 100.202V100.104C141.465 99.9509 141.471 99.8049 141.48 99.6588C141.607 96.7551 141.959 94.6696 142.581 93.6174C142.737 93.3422 142.918 93.14 143.12 93.0108C149.862 88.6992 167.09 89.2347 172.333 93.0108C172.827 93.3665 173.563 94.443 174.499 96.0999V96.1092C174.506 96.1167 174.506 96.1242 174.521 96.1336C174.835 96.699 175.18 97.3467 175.539 98.0488C185.45 117.12 210.782 182.518 210.782 182.518L230.917 206.128L231.007 206.24Z" fill="#736DE8"/>
<path d="M135.377 44.0803C135.377 44.0803 128.885 52.3028 133.754 63.0864C138.623 73.87 155.102 76.8354 155.102 76.8354L163.842 72.3872L150.607 37.4753L135.377 44.0803Z" fill="#5E3128"/>
<path d="M139.247 40.6413C139.247 40.6413 141.432 52.7036 145.364 59.3759C149.297 66.0483 155.913 71.983 155.913 71.983L178.573 78.251L195.427 64.5019L201.045 65.5129L191.682 53.2465C191.682 53.2465 165.652 36.8015 165.091 36.8015C164.529 36.8015 139.247 40.6413 139.247 40.6413Z" fill="#FAAC84"/>
<path d="M205.165 63.6259C205.165 63.6259 157.13 71.6162 147.892 72.1553C138.654 72.6945 113.273 72.6571 113.28 87.6192C113.285 98.6855 132.63 100.425 139.247 100.29C145.863 100.155 183.154 97.0548 187.917 97.8636C192.681 98.6724 207.072 102.849 211.424 102.649C215.776 102.447 217.898 66.187 217.898 66.187L205.914 61.8118L205.165 63.6259Z" fill="#FAAC84"/>
<path d="M206.85 64.0037C206.85 64.0037 185.689 63.5095 181.944 65.2188C181.906 65.2356 181.87 65.2525 181.833 65.2693C179.492 66.3495 178.65 69.4554 180.032 71.7619C180.618 72.7392 181.259 73.9729 181.92 75.5212C184.379 81.2837 180.259 83.5078 179.51 88.967C178.761 94.4262 179.884 98.8744 180.259 99.4809C180.633 100.088 210.033 108.58 210.595 108.58C211.157 108.58 220.146 108.377 220.895 106.558C221.644 104.738 230.258 74.8135 227.636 72.3872C225.014 69.9609 206.85 64.0037 206.85 64.0037Z" fill="#FAE8DE"/>
<path d="M160.496 56.7024C157.886 59.6585 156.217 60.3719 152.692 61.4259C152.022 61.6262 152.041 62.6503 152.478 63.0135C152.471 63.5096 152.796 64.0975 153.326 63.9926C156.437 63.3804 158.374 62.4499 160.853 59.4545C161.016 59.2392 161.666 57.9923 161.637 57.7209C161.89 56.9832 161.073 56.0471 160.496 56.7024Z" fill="#784338"/>
<path d="M231.487 51.3424C230.521 50.5262 229.562 49.635 228.633 48.6653C227.794 47.791 224.477 43.9418 223.889 42.5883C221.547 38.7279 220.737 35.637 215.78 30.468C215.11 29.7696 211.186 26.7386 210.789 26.5177C204.899 23.2564 200.436 21.6389 199.08 19.383C194.976 12.559 186.964 -1.54955 170.147 0.13913C149.981 2.16105 144.619 19.1695 142.866 22.4608C141.119 25.7445 133.473 35.1184 131.51 40.0365C130.829 41.7177 129.638 48.1486 132.37 50.9624C132.566 51.1646 132.776 51.3425 133.008 51.5035C136.835 54.1413 140.176 54.8452 143.12 54.6187C148.116 54.2218 151.858 50.4382 155.031 50.324C164.437 49.9814 167.887 48.025 172.002 46.2221C173.323 45.404 174.709 45.0726 176.373 44.9154C176.796 44.8742 177.212 44.8985 177.618 44.9603C177.918 44.9603 178.216 44.9547 178.528 44.9771C178.716 44.9846 178.91 45.0015 179.097 45.009C179.6 45.0576 180.108 45.1138 180.611 45.1868C185.554 45.9001 190.31 47.922 190.31 47.922C190.31 47.922 190.191 49.8223 190.206 52.3122C190.206 52.4339 190.213 52.5556 190.213 52.6773C190.258 56.4534 190.633 61.4109 192.183 63.2231C192.438 63.5227 192.693 63.7979 192.954 64.0412C193.471 64.5336 193.99 64.9305 194.513 65.2451C194.572 65.2769 194.633 65.3181 194.685 65.3424C198.61 67.5834 202.708 65.5371 205.787 66.9918C208.619 68.3341 213.501 70.0827 212.655 82.0439C212.626 82.5381 212.581 83.0473 212.529 83.5715C212.461 84.195 212.393 84.8184 212.326 85.4399C211.651 91.4495 210.798 97.4105 211.427 102.653C211.674 104.723 212.154 106.68 212.955 108.482C214.446 111.79 217.045 114.589 221.397 116.604C227.307 119.345 232.831 116.862 236.068 115.544C240.15 113.895 241.225 112.77 241.996 111.347C242.199 110.957 242.409 109.656 242.603 107.707C242.971 104.068 243.323 98.1874 243.63 91.839C244.236 79.0597 244.24 67.4898 244.307 65.4997C244.418 62.4424 238.034 56.9158 231.487 51.3424Z" fill="#784338"/>
<path d="M179.557 51.5073C176.703 47.8623 176.385 43.0827 178.851 40.8324C181.315 38.584 185.627 39.7166 188.483 43.3635C191.337 47.0105 191.654 51.79 189.188 54.0385C186.724 56.2888 182.412 55.1543 179.557 51.5073Z" fill="#FAAC84"/>
<path d="M163.376 61.8752C163.15 61.8752 162.928 61.9782 162.79 62.2646C162.734 62.377 162.679 62.4893 162.625 62.6016C162.504 62.6877 162.4 62.8094 162.334 62.9798C161.739 64.515 160.65 65.7282 159.303 66.507C158.661 66.8796 158.935 67.7632 159.475 67.9654C159.594 68.484 160.244 68.8884 160.745 68.4166C162.386 66.8721 163.589 64.9643 164.383 62.7813C164.645 62.0606 163.912 61.6468 163.376 61.8752Z" fill="#332D2D"/>
<path d="M141.418 100.535C141.418 100.535 121.63 190.681 122.237 197.702C122.546 201.281 125.4 201.809 130.009 204.488C135.394 207.619 142.898 207.049 147.892 207.049C152.886 207.049 156.926 195.541 156.926 195.541L158.93 121.125L141.418 100.535Z" fill="#736DE8"/>
<path d="M149.794 105.766L145.39 118.367L144.161 121.878C144.161 121.878 143.053 121.732 141.187 121.415H141.18C134.895 120.356 120.101 117.388 110.521 111.727C99.5173 105.223 104.079 90.4236 113.015 87.5685C113.262 87.4862 113.51 87.415 113.764 87.357C115.322 86.9863 116.992 86.9694 118.731 87.4225C125.712 89.2348 135.479 95.4616 142.191 100.161C144.109 101.503 145.772 102.716 147.053 103.678C148.768 104.957 149.794 105.766 149.794 105.766Z" fill="#FAAC84"/>
<path d="M176.618 125.863C175.981 132.236 172.559 134.648 170.303 134.923C168.049 135.205 162.018 135.14 157.937 133.273C156.865 132.779 153.39 130.345 149.794 127.749C146.378 125.281 142.865 122.66 141.187 121.415H141.18C140.551 120.938 140.183 120.663 140.183 120.663L139.412 111.508L141.464 109.284L145.817 104.553C145.817 104.553 146.259 104.197 147.053 103.678C148.138 102.96 149.884 101.915 152.071 101.001C155.922 99.4006 160.116 101.795 162.767 105.054C165.427 108.321 172.671 111.152 173.105 113.069C173.54 114.994 172.139 116.061 170.521 115.907C168.903 115.746 162.85 113.87 162.85 113.87C162.85 113.885 162.932 114.144 166.799 116.594C170.835 119.142 176.791 124.158 176.618 125.863Z" fill="#FAAC84"/>
<path d="M188.108 49.7121C184.457 51.7396 180.429 48.8397 180.593 44.4757C180.633 43.433 179.135 43.4367 179.095 44.4757C178.88 50.1371 184.25 53.6698 188.864 51.1106C189.722 50.6332 188.965 49.2384 188.108 49.7121Z" fill="#ED9D74"/>
<path d="M177.067 67.8605C170.53 68.6843 163.993 69.5081 157.456 70.3319C156.51 70.4517 156.499 72.0693 157.456 71.9495C163.993 71.1257 170.53 70.3019 177.067 69.4781C178.013 69.3583 178.024 67.7388 177.067 67.8605Z" fill="#ED9D74"/>
<path d="M174.95 126.736C171.695 125.395 168.583 123.763 165.587 121.846C164.754 121.314 164 122.711 164.831 123.242C167.938 125.23 171.177 126.906 174.551 128.297C175.453 128.668 175.843 127.105 174.95 126.736Z" fill="#ED9D74"/>
<path d="M173.422 130.675C170.01 129.992 166.825 128.747 163.804 126.897C162.965 126.382 162.209 127.779 163.048 128.293C166.169 130.207 169.491 131.527 173.023 132.234C173.965 132.423 174.369 130.864 173.422 130.675Z" fill="#ED9D74"/>
<path d="M166.143 133.056C164.44 132.193 162.739 131.33 161.037 130.467C160.17 130.027 159.409 131.42 160.281 131.864C161.983 132.727 163.684 133.59 165.387 134.453C166.254 134.893 167.015 133.5 166.143 133.056Z" fill="#ED9D74"/>
<path d="M149.794 127.749C146.378 125.281 142.865 122.66 141.187 121.415H141.18C134.895 120.356 120.101 117.388 110.521 111.727C99.5173 105.223 104.079 90.4238 113.015 87.5687L113.278 87.6155C113.278 87.6155 112.566 92.2023 116.775 95.4374C120.985 98.6724 142.191 100.161 142.191 100.161C142.191 100.161 141.418 104.688 142.191 111.411C143.287 120.925 149.794 127.749 149.794 127.749Z" fill="#ED9D74"/>
<path d="M208.922 106.271C199.713 104.933 190.74 102.522 182.022 99.047C181.117 98.6857 180.725 100.249 181.625 100.608C190.342 104.081 199.314 106.492 208.523 107.833C209.466 107.969 209.874 106.412 208.922 106.271Z" fill="#EBDAD1"/>
<path d="M246.444 64.4848C246.631 64.7319 246.811 64.9847 246.99 65.2393C255.708 77.8164 257.535 96.3096 247.482 108.728C240.822 116.954 231.003 121.059 221.397 116.604C217.045 114.589 214.446 111.79 212.955 108.482C212.154 106.679 211.674 104.723 211.427 102.652C210.798 97.4104 211.651 91.4495 212.326 85.4398C212.393 84.8183 212.461 84.1949 212.529 83.5714C212.581 83.0472 212.626 82.538 212.655 82.0438C215.24 85.4736 218.715 88.7086 223.27 90.3168C235.501 94.6284 241.741 76.6651 239 67.8491C237.247 62.2364 233.779 55.491 231.487 51.3423C236.456 55.5734 242.43 59.1342 246.444 64.4848Z" fill="#5E3128"/>
<path d="M211.608 185.647C211.544 185.48 211.445 185.384 211.339 185.317C211.266 184.931 211.199 184.546 211.119 184.16C210.911 183.144 209.466 183.574 209.674 184.591C211.859 195.27 211.533 206.087 208.738 216.597C208.471 217.599 209.917 218.028 210.183 217.028C212.345 208.901 213.05 200.575 212.308 192.278C213.685 196.895 214.611 201.633 215.067 206.506C215.164 207.532 216.662 207.543 216.565 206.506C215.887 199.272 214.236 192.34 211.608 185.647Z" fill="#5F5FBB"/>
<path d="M145.617 198.299C140.006 200.167 134.29 199.712 129.017 196.91C128.155 196.451 127.396 197.846 128.261 198.306C133.889 201.296 140.017 201.856 146.016 199.858C146.933 199.553 146.541 197.99 145.617 198.299Z" fill="#5F5FBB"/>
<path d="M182.516 133.785C179.331 136.095 175.822 137.418 172.006 137.718C175.212 135.114 177.752 131.78 179.461 127.818C179.865 126.882 178.575 126.058 178.168 127.002C176.406 131.079 173.764 134.489 170.332 137.033C170.02 136.325 168.853 136.419 168.912 137.342C170.284 158.978 154.387 175.958 152.376 196.96C152.277 197.996 153.775 197.988 153.874 196.96C155.844 176.397 171.107 159.798 170.464 138.721C170.598 138.731 170.743 138.691 170.891 138.585C170.906 138.574 170.918 138.562 170.934 138.551C170.91 138.974 171.142 139.401 171.647 139.369C175.853 139.115 179.772 137.722 183.272 135.181C184.068 134.605 183.319 133.202 182.516 133.785Z" fill="#5F5FBB"/>
</svg>
