<svg width="270" height="315" viewBox="0 0 270 315" fill="none" xmlns="http://www.w3.org/2000/svg">
<path d="M213.529 197.974C212.769 200.324 211.763 202.699 210.468 205.109C198.572 227.242 175.191 235.303 153 236.916C134.829 238.237 97.5699 236.817 82.9463 225.19C61.3748 208.04 91.8589 189.142 80.5432 168.116C70.5383 149.525 52.1233 132.575 49.3581 110.224C46.5646 87.6441 58.0424 67.5189 72.9703 53.0809C97.1357 29.7082 125.195 14.9243 157.998 15.5168C184.861 16.0007 215.344 27.0845 221.301 59.1141C223.639 71.6937 219.812 83.9956 216.685 95.9993C215.258 101.479 214.614 107.757 212.397 112.912C210.765 116.706 208.224 119.286 207.067 123.429C199.862 149.236 221.983 171.825 213.529 197.974Z" fill="#FAF3F0"/>
<path d="M37.3554 26.3299C37.6626 26.1294 37.9745 25.9197 38.2885 25.7007C45.8505 20.4256 54.3391 12.2581 60.4022 24.9813C68.4622 41.894 65.7937 66.0303 73.211 84.4168C76.9444 93.6735 80.1709 103.041 87.9203 109.23C71.0497 115.387 61.1024 106.858 45.5695 102.054C33.915 98.4518 23.4683 98.2273 13.3403 89.5575C0.295038 78.3891 -8.38479 41.9216 12.7538 33.5278C21.8533 29.9142 28.0958 32.3539 37.3554 26.3299Z" fill="#5F5FBB"/>
<path d="M35.5134 69.5999C33.7565 65.2613 27.029 32.8617 39.149 37.8093C46.3544 40.7514 37.978 67.6734 37.8316 73.771L35.5134 69.5999Z" fill="white"/>
<path d="M37.0593 83.7837C35.0486 88.1721 38.6086 94.6175 42.1713 89.4674C45.206 85.0827 42.1561 81.1691 37.8317 82.9502L37.0593 83.7837Z" fill="white"/>
<path d="M202.643 42.3892C198.153 56.2366 195.37 71.2045 194.956 85.2542C194.561 98.7723 201.692 111.184 199.112 125.025C198.099 130.454 197.321 136.3 195.208 141.313C208.004 139.669 215.037 126.465 220.812 115.554C227.553 102.82 242.513 99.7143 250.137 87.5266C258.208 74.6231 275.654 67.2817 267.999 48.5788C265.499 42.4702 259.085 32.2953 252.639 32.6118C244.429 33.0147 239.408 48.5051 230.195 36.9283C225.474 30.9963 230.336 20.4829 225.844 14.9741C217.663 4.94279 212.806 17.8831 209.361 25.252C206.839 30.6467 204.581 36.4131 202.643 42.3892Z" fill="#E77EBB"/>
<path d="M213.183 99.8101C211.765 93.1771 211.685 84.8845 217.644 77.7989C221.703 72.9709 239.073 66.7961 229.477 57.3369C223.586 51.5282 218.206 63.7565 214.294 59.4105C210.772 55.5007 219.922 50.2863 222.68 49.6478C232.848 47.2909 243.895 59.6828 237.44 69.9607C234.458 74.7096 226.904 75.6664 222.753 79.5045C217.361 84.4889 214.555 92.5497 213.183 99.8101Z" fill="white"/>
<path d="M214.999 110.643C216.654 105.398 209.678 105.272 208.072 108.744C205.845 113.569 213.432 115.607 214.999 110.643Z" fill="white"/>
<path d="M154.278 248.962C155.994 255.338 156.55 257.362 155.042 266.904C154.082 272.972 152.056 281.147 150.436 287.066C149.277 291.303 147.237 296.941 148.607 301.336C149.522 304.265 152.136 305.618 153.581 307.594C154.447 308.779 155.328 311.597 154.471 312.339C152.75 312.952 150.214 312.389 148.595 311.607C146.641 310.661 145.521 309.075 144.185 307.452C143.265 306.337 141.09 303.995 140.771 304.254C139.956 304.922 138.733 308.155 137.511 310.263C135.289 314.1 127.961 318.275 129.546 309.919C130.344 305.708 133.784 302.587 134.017 300.028C134.434 295.454 131.586 288.254 130.329 283.814C127.319 273.183 122.043 259.708 124.234 251.855C125.631 246.848 127.379 242.508 136.346 242.287C152.891 241.879 154.278 248.962 154.278 248.962Z" fill="#E6916E"/>
<path d="M153.581 307.594C152.951 306.731 152.097 305.986 151.259 305.178C151.318 306.635 150.65 307.871 148.653 307.906C147.067 307.934 145.259 306.446 144.257 305.395C143.526 304.628 142.786 303.857 142.176 302.996C141.614 302.201 141.18 301.305 141.005 300.359C140.535 302.699 139.374 305.811 138.367 307.527C137.855 308.4 137.112 308.63 136.315 308.902C134.705 309.456 133.082 308.484 132.658 306.935C132.321 305.706 132.419 304.457 132.674 303.231C131.543 305.126 130.04 307.314 129.546 309.919C128.284 316.569 132.67 315.279 135.633 312.539L135.655 312.519C135.894 312.298 136.123 312.067 136.339 311.829L136.379 311.787C136.591 311.551 136.789 311.312 136.972 311.069L137.004 311.027C137.192 310.773 137.363 310.517 137.511 310.263C137.596 310.116 137.681 309.962 137.766 309.805C137.802 309.739 137.837 309.673 137.872 309.607C137.92 309.518 137.967 309.428 138.015 309.336C138.063 309.242 138.11 309.15 138.158 309.055C138.186 309.001 138.213 308.948 138.24 308.893C138.736 307.903 139.22 306.85 139.659 305.984C140.075 305.165 140.454 304.515 140.771 304.254C140.846 304.193 141.028 304.28 141.27 304.46L141.273 304.416C141.308 304.46 141.343 304.499 141.378 304.543C142.176 305.176 143.514 306.639 144.185 307.452C145.521 309.075 146.641 310.661 148.595 311.607C150.214 312.389 152.75 312.952 154.471 312.339C155.328 311.597 154.447 308.779 153.581 307.594Z" fill="#784338"/>
<path d="M105.741 84.2163C101.327 96.5844 92.1453 108.332 90.796 121.725C90.157 128.066 91.5361 136.428 94.7629 141.884C98.2566 147.793 99.5723 148.601 98.0933 156.165C95.8518 167.622 109.317 178.806 118.121 181.437C128.079 184.416 139.042 181.742 148.94 179.816C156.013 178.439 162.341 176.123 169.019 173.393C175.406 170.782 176.205 168.403 178.236 161.063C179.543 156.344 181.429 154.563 183.827 150.798C189.331 142.152 191.103 128.095 187.653 118.239C183.982 107.753 176.934 98.0527 170.593 89.2762C164.716 81.14 164.096 69.7342 157.235 62.1279C148.35 52.2787 136.439 50.2585 126.652 59.4692C122.446 63.4269 115.867 63.736 112.617 68.9302C109.884 73.2982 107.514 79.2504 105.741 84.2163Z" fill="#784338"/>
<path d="M128.812 109.004C127.714 110.962 124.953 112.408 123.402 113.843C118.681 118.209 124.842 120.597 128.483 123.284C134.533 127.747 139.476 140.044 147.474 124.986C150.172 119.906 156.364 114.997 151.223 111.173C144.267 105.999 145.925 101.585 145.194 95.8209C143.734 97.4069 140.286 98.176 138.305 98.3398C135.466 98.5753 132.591 98.9617 129.739 98.9911C129.739 98.9911 130.198 106.529 128.812 109.004Z" fill="#E6916E"/>
<path d="M126.532 95.9552C127.007 95.4437 124.174 77.1308 118.92 86.141C116.128 90.9303 124.484 98.1558 126.532 95.9552Z" fill="#E6916E"/>
<path d="M129.497 103.302C136.812 110.342 142.319 106.566 146.513 99.7823C149.572 94.8347 150.466 85.6423 150.245 78.3083C149.945 68.3192 146.745 60.7184 136.487 62.1683C130.933 62.9539 122.048 65.4599 121.528 72.8068C121.138 78.3083 121.34 90.8494 124.43 96.8494C125.522 98.9709 127.844 101.711 129.497 103.302Z" fill="#FFA580"/>
<path d="M128.751 104.665C136.066 111.705 143.067 108.112 147.261 101.328C150.316 96.3802 150.466 85.6423 150.245 78.3083C149.945 68.3193 146.745 60.7185 136.487 62.1684C130.933 62.954 122.048 65.46 121.528 72.8069C120.773 83.4859 120.899 97.1089 128.751 104.665Z" fill="#E6916E"/>
<path d="M151.678 85.1086C151.315 86.0856 150.317 89.3699 148.747 88.0819C147.924 87.4067 148.698 85.1012 148.851 84.2622C149.122 82.7792 149.122 80.8031 148.904 79.2981C148.626 77.3753 152.477 77.7856 153.285 78.8436C154.226 80.0764 152.138 83.863 151.678 85.1086Z" fill="#E6916E"/>
<path d="M129.738 72.2972C129.392 76.0489 144.741 75.3718 147.05 78.2954C152.842 85.6312 147.895 109.331 161.996 111.311C168.487 112.222 167.858 99.7031 167.616 95.4694C167.076 86.0526 164.005 79.8023 158.032 73.2356C152.482 67.1344 149.412 58.1169 139.94 57.9384C133.67 57.8188 125.527 61.8391 120.774 66.2825C117.664 69.1896 113.865 75.3534 114.592 79.9661C115.056 82.9118 113.923 87.99 116.447 87.3093C121.391 85.9735 129.509 74.634 129.738 72.2972Z" fill="#784338"/>
<path d="M168.461 217.98C168.437 217.73 168.412 217.479 168.39 217.229C167.214 204.488 166.936 199.119 161.579 181.762C158.138 170.616 155.809 171.972 160.677 149.904C162.405 142.071 169.426 115.492 157.179 112.89C154.343 112.29 152.034 111.344 149.522 109.838C150.604 117.013 140.625 131.593 140.558 131.532C135.891 127.317 128.657 117.681 126.213 111.488C126.195 111.444 122.008 114.669 120.156 115.847C117.751 117.376 115.307 118.402 113.207 120.397C109.958 123.488 110.455 127.122 111.668 131.254C113.904 138.872 116.669 146.143 118.564 153.83C119.854 159.065 122.59 164.612 122.487 169.994C122.378 175.656 120.4 181.707 118.405 186.905C113.881 198.695 112.989 212.057 111.781 224.874C110.685 236.523 104.7 245.846 107.482 257.862C109.955 268.543 130.74 265.456 134.78 266.615C141.396 268.512 144.436 266.479 150.451 265.402C155.182 264.556 161.021 268.293 165.554 266.685C170.387 264.968 171.467 258.598 171.737 253.824C172.416 241.746 169.632 229.906 168.461 217.98Z" fill="#E77EBB"/>
<path d="M126.109 87.5649C125.755 87.1674 124.377 85.9936 123.814 86.6854C123.412 87.1803 125.071 89.8887 125.189 90.4425C125.543 92.0966 125.218 93.5262 125.957 95.1178C127.317 98.0414 130.754 102.148 130.666 105.666C130.357 118.016 127.485 122.139 126.957 127.361C126.458 132.286 126.533 132.387 126.582 135.031C126.594 135.629 122.832 129.762 121.238 127.861C119.705 126.032 113.905 133.685 113.886 137.672C113.867 141.679 116.142 144.873 118.473 147.764C121.412 151.411 125.197 153.808 128.812 156.732C130.757 158.307 134.941 161.565 136.385 158.568C138.394 154.395 139.286 151.085 139.632 147.596C140.074 143.14 139.284 138.662 139.012 134.202C138.416 124.437 139.109 114.698 138.703 104.788C138.595 102.178 138.926 99.7655 138.156 97.2926C136.971 93.4802 137.235 91.7526 136.245 88.023C135.814 86.3983 135.313 83.9586 135.303 82.1352C135.288 79.3422 133.912 81.6348 133.888 83.2723C132.754 82.9577 133.971 79.4489 132.99 78.5713C132.849 78.4462 132.112 77.8592 132.088 78.4425C132.203 75.4894 130.82 76.1297 129.589 79.0717C128.648 77.4544 127.405 81.1858 126.964 82.1831C126.146 84.0359 126.14 85.8004 126.311 87.8004C126.246 87.7213 126.18 87.644 126.109 87.5649Z" fill="#FFA580"/>
<path d="M147.168 95.4087C147.404 94.6893 147.554 93.9312 147.542 93.1106C147.51 90.796 148.149 88.842 148.766 86.8088C148.084 85.5448 146.605 86.301 146.138 87.3277C146.135 85.2651 146.075 84.7095 145.504 82.7481C145.25 81.8741 142.309 76.9192 141.795 78.715C141.447 78.1317 140.712 76.7131 139.94 76.6285C139.32 76.5622 139.087 77.9716 139.18 78.7444C137.659 79.0333 138.375 81.6846 138.246 82.7665C137.953 82.0839 137.707 81.2633 137.001 82.0508C136.41 82.7113 136.867 83.5945 136.859 84.3084C136.833 86.7739 136.196 89.2026 136.243 91.7141C136.293 94.3673 137.206 96.2367 137.976 98.7132C138.805 101.379 138.395 107.171 138.394 110.005C138.393 115.183 137.939 119.849 138.085 125.024C138.432 137.28 136.414 147.549 145.968 157.065C148.202 159.291 150.141 158.068 152.304 155.231C155.768 150.69 160.643 145.575 163.433 140.544C166.703 134.649 161.473 121.657 155.086 129.53C154.34 130.45 152.627 132.355 151.995 133.368C151.687 127.694 149.543 121.677 147.977 116.68C146.406 111.665 144.69 108.513 144.489 103.188C144.371 100.088 146.324 97.9625 147.168 95.4087Z" fill="#FFA580"/>
<path d="M122.246 115.012C117.976 116.217 111.882 117.017 109.493 121.311C106.718 126.298 108.23 132.905 109.556 138.081C110.326 141.082 110.754 147.991 113.49 150.025C115.144 151.256 117.038 150.971 118.871 150.342C117.156 150.931 118.881 141.875 119.594 140.842C120.017 140.232 127.445 129.738 126.339 132.368C124.808 129.72 123.886 129.168 123.476 126.215C123.329 125.153 122.484 114.953 123.067 114.767C122.803 114.851 122.528 114.932 122.246 115.012Z" fill="#E77EBB"/>
<path d="M155.971 120.518C155.879 120.776 155.797 120.973 155.739 121.087C154.989 122.568 153.406 123.803 152.596 125.446C150.005 130.704 155.451 132.138 157.387 136.355C158.948 139.759 158.81 144.39 158.486 148.053C160.035 148.156 162.889 147.889 164.28 146.662C166.236 144.905 167.258 135.805 168.092 133.212C169.743 128.084 172.174 119.322 167.054 115.49C163.951 113.168 159.902 113.9 156.477 112.675C158.121 113.197 156.674 118.584 155.971 120.518Z" fill="#E77EBB"/>
<path d="M131.439 86.7241C131.335 86.7241 131.241 86.6505 131.214 86.5365C130.573 83.8079 130.826 82.8088 131.21 81.2964C131.36 80.7058 131.53 80.0361 131.674 79.1437C131.696 79.0076 131.82 78.9156 131.942 78.9413C132.069 78.9653 132.153 79.0941 132.131 79.2302C131.982 80.1465 131.81 80.8272 131.657 81.4289C131.28 82.9155 131.053 83.8116 131.664 86.4132C131.695 86.5475 131.62 86.6837 131.495 86.7168C131.477 86.7223 131.458 86.7241 131.439 86.7241Z" fill="#BC4B42"/>
<path d="M128.503 85.668C128.391 85.668 128.293 85.5815 128.273 85.4601C127.887 82.9577 127.899 82.8657 128.873 80.553L129.115 79.9752C129.167 79.8482 129.307 79.7931 129.421 79.8501C129.538 79.9071 129.59 80.0543 129.538 80.1813L129.295 80.759C128.36 82.978 128.36 82.978 128.731 85.3773C128.752 85.5134 128.667 85.6422 128.54 85.6643L128.503 85.668Z" fill="#BC4B42"/>
<path d="M138.909 88.2271L138.872 88.2234C138.746 88.2013 138.659 88.0743 138.68 87.9382C138.975 85.9345 138.615 84.6043 138.234 83.1986C138.161 82.9244 138.086 82.6503 138.016 82.3669C137.982 82.2344 138.055 82.0965 138.179 82.0615C138.302 82.0265 138.43 82.1038 138.463 82.2363C138.533 82.516 138.607 82.7883 138.679 83.0569C139.075 84.5196 139.449 85.9014 139.138 88.0155C139.12 88.1387 139.021 88.2271 138.909 88.2271Z" fill="#BC4B42"/>
<path d="M141.485 85.7788C141.357 85.7788 141.253 85.6684 141.253 85.5286C141.253 83.661 140.615 82.3123 139.876 80.752C139.625 80.2239 139.366 79.6775 139.11 79.0685C139.057 78.9433 139.109 78.7943 139.226 78.7373C139.343 78.6802 139.48 78.7373 139.533 78.8624C139.784 79.4585 140.04 80.0013 140.288 80.5257C141.056 82.143 141.718 83.5396 141.718 85.5286C141.718 85.6684 141.614 85.7788 141.485 85.7788Z" fill="#BC4B42"/>
<path d="M144.01 87.3369H143.991C143.863 87.3259 143.768 87.2044 143.778 87.0664C143.979 84.358 143.018 82.0048 141.951 79.8631C141.89 79.7416 141.932 79.5889 142.045 79.5227C142.156 79.4601 142.299 79.5024 142.358 79.6257C143.461 81.8336 144.451 84.2679 144.241 87.1069C144.231 87.2376 144.129 87.3369 144.01 87.3369Z" fill="#BC4B42"/>
<path d="M126.235 91.8979C126.127 91.8979 126.029 91.8152 126.008 91.6956C125.793 90.5107 125.795 89.3 125.797 88.1298V87.4214C125.797 87.2834 125.892 87.1565 126.029 87.1694C126.157 87.1694 126.261 87.2816 126.261 87.4196V88.1316C126.259 89.3294 126.257 90.4628 126.463 91.5999C126.488 91.736 126.406 91.8667 126.28 91.8943L126.235 91.8979Z" fill="#BC4B42"/>
<path d="M139.94 148.638C139.859 148.638 139.781 148.594 139.738 148.513C135.508 140.572 136.164 132.548 136.859 124.055C137.222 119.609 137.598 115.013 137.236 110.36C137.225 110.222 137.32 110.101 137.448 110.09C137.586 110.08 137.687 110.18 137.698 110.318C138.063 115.015 137.686 119.633 137.32 124.097C136.633 132.511 135.982 140.459 140.141 148.263C140.205 148.382 140.166 148.537 140.055 148.605C140.019 148.627 139.979 148.638 139.94 148.638Z" fill="#BC4B42"/>
<path d="M126.957 142.296H126.944C126.817 142.289 126.719 142.171 126.726 142.033C126.789 140.739 126.667 139.072 126.558 137.602C126.486 136.631 126.418 135.713 126.416 135.037C126.415 134.899 126.519 134.787 126.647 134.787H126.648C126.775 134.787 126.879 134.899 126.88 135.037C126.882 135.69 126.949 136.601 127.02 137.562C127.13 139.048 127.254 140.732 127.188 142.06C127.181 142.193 127.08 142.296 126.957 142.296Z" fill="#BC4B42"/>
<path d="M153.541 140.962C153.416 140.962 153.312 140.855 153.309 140.719C153.227 137.718 152.746 135.53 151.797 133.83C151.731 133.713 151.765 133.56 151.876 133.488C151.985 133.418 152.128 133.453 152.194 133.573C153.186 135.348 153.687 137.613 153.772 140.704C153.776 140.842 153.675 140.958 153.547 140.962H153.541Z" fill="#BC4B42"/>
<path d="M137.776 105.249C137.671 105.249 137.577 105.173 137.551 105.059C136.402 100.051 136.307 95.3847 136.307 90.6468C136.307 90.5088 136.411 90.3966 136.539 90.3966C136.667 90.3966 136.771 90.5088 136.771 90.6468C136.771 95.3515 136.865 99.9863 138.001 104.939C138.032 105.072 137.956 105.208 137.831 105.241C137.813 105.247 137.794 105.249 137.776 105.249Z" fill="#BC4B42"/>
<path d="M141.117 295.938H141.115C140.988 295.936 140.884 295.824 140.885 295.686C140.917 291.367 140.665 287.005 140.421 282.784C140.194 278.858 139.96 274.797 139.953 270.765C139.953 270.627 140.056 270.515 140.184 270.515H140.185C140.313 270.515 140.416 270.627 140.416 270.765C140.423 274.78 140.658 278.834 140.884 282.755C141.129 286.981 141.381 291.354 141.349 295.689C141.347 295.826 141.244 295.938 141.117 295.938Z" fill="#BC4B42"/>
<path d="M152.099 174.892C151.974 174.892 151.872 174.785 151.867 174.651C151.862 174.513 151.963 174.397 152.09 174.392C154.481 174.299 157.806 173.889 159.305 173.032C159.42 172.965 159.559 173.011 159.619 173.135C159.68 173.256 159.636 173.407 159.524 173.473C157.499 174.631 152.99 174.859 152.107 174.892H152.099Z" fill="#7A3C3C"/>
<path d="M133.317 170.646C128.759 170.646 124.789 170.064 122.494 168.281C122.391 168.202 122.367 168.044 122.441 167.931C122.517 167.819 122.662 167.795 122.765 167.874C127.308 171.404 139.387 169.987 148.204 168.953C151.821 168.528 154.945 168.161 157.082 168.161C157.216 168.165 157.329 168.27 157.329 168.412C157.329 168.55 157.225 168.662 157.095 168.662H157.082C154.97 168.662 151.859 169.028 148.255 169.449C143.461 170.013 138.07 170.646 133.317 170.646Z" fill="#7A3C3C"/>
<path d="M141.022 183.013H140.996C140.781 182.986 140.525 182.982 140.256 182.977C139.34 182.958 138.199 182.936 137.883 182.051C137.859 181.985 137.862 181.911 137.892 181.847C137.923 181.784 137.977 181.737 138.041 181.72L138.379 181.628C139.107 181.435 139.919 181.218 140.432 180.747C139.749 180.563 138.955 180.598 138.185 180.633C137.69 180.653 137.178 180.677 136.71 180.64C136.596 180.631 136.506 180.533 136.496 180.412C136.486 180.29 136.559 180.178 136.669 180.147C137.279 179.978 138.02 179.847 138.804 179.709C140.803 179.356 143.049 178.96 144.265 177.766C141.393 177.052 138.19 177.288 135.091 177.512C130.543 177.847 125.838 178.193 121.892 175.635C121.783 175.564 121.747 175.411 121.813 175.293C121.879 175.174 122.022 175.137 122.131 175.207C125.951 177.681 130.581 177.343 135.059 177.013C138.337 176.772 141.726 176.524 144.772 177.387C144.848 177.407 144.91 177.472 144.933 177.553C144.957 177.635 144.94 177.724 144.889 177.79C143.747 179.236 141.504 179.731 139.409 180.108C139.944 180.125 140.464 180.196 140.938 180.395C141.006 180.423 141.058 180.484 141.078 180.559C141.098 180.634 141.084 180.715 141.04 180.78C140.473 181.586 139.419 181.865 138.489 182.116L138.478 182.117C138.832 182.447 139.585 182.463 140.264 182.476C140.549 182.482 140.82 182.487 141.048 182.515C141.175 182.53 141.266 182.655 141.253 182.793C141.24 182.92 141.139 183.013 141.022 183.013Z" fill="#7A3C3C"/>
<path d="M143.282 195.291C141.936 195.293 140.303 194.697 138.42 192.933C138.353 192.868 138.325 192.769 138.349 192.677C138.555 191.886 138.934 191.225 139.301 190.585C139.552 190.149 139.811 189.698 140.003 189.22C140.307 188.465 140.422 187.685 140.544 186.859C140.644 186.189 140.747 185.496 140.96 184.822C141.667 182.585 143.216 179.948 144.727 178.41C144.821 178.316 144.967 178.318 145.054 178.421C145.143 178.52 145.138 178.679 145.044 178.774C143.606 180.239 142.072 182.852 141.399 184.984C141.198 185.617 141.099 186.29 141.002 186.938C140.881 187.759 140.756 188.607 140.428 189.42C140.223 189.932 139.955 190.399 139.696 190.85C139.356 191.442 139.033 192.004 138.838 192.66C141.287 194.903 143.642 195.382 145.658 194.046C148.715 192.016 150.499 185.873 149.401 181.157C149.371 181.023 149.446 180.887 149.568 180.853C149.696 180.818 149.821 180.899 149.851 181.034C151.012 186.025 149.166 192.305 145.899 194.473C145.214 194.927 144.335 195.291 143.282 195.291Z" fill="#7A3C3C"/>
<path d="M146.271 189.335C146.138 189.335 146.01 189.297 145.893 189.205C145.06 188.552 145.835 185.61 146.109 184.918C147.174 182.217 148.018 179.948 148.365 177.387C148.384 177.251 148.497 177.151 148.63 177.175C148.756 177.196 148.844 177.324 148.825 177.461C148.468 180.081 147.614 182.38 146.535 185.115C146.15 186.088 145.728 188.458 146.165 188.8C146.222 188.844 146.472 188.942 147.207 188.25C147.304 188.158 147.449 188.169 147.534 188.274C147.617 188.377 147.607 188.535 147.512 188.625C147.304 188.822 146.76 189.335 146.271 189.335Z" fill="#7A3C3C"/>
<path d="M155.253 199.023C154.65 199.023 154.041 198.936 153.454 198.754C150.434 197.827 150.337 193.788 150.265 190.841C150.253 190.349 150.241 189.88 150.219 189.455C150.211 189.315 150.308 189.198 150.436 189.19C150.579 189.168 150.674 189.286 150.681 189.424C150.705 189.856 150.717 190.329 150.729 190.828C150.8 193.777 150.889 197.446 153.581 198.274C155.568 198.883 157.796 198.353 159.253 196.918C160.447 195.741 160.936 194.121 160.628 192.361C160.43 191.231 159.747 190.151 159.087 189.106C158.752 188.576 158.435 188.077 158.174 187.566C156.645 184.568 155.21 181.761 153.355 179.076C153.278 178.966 153.3 178.808 153.402 178.725C153.506 178.644 153.651 178.666 153.728 178.776C155.602 181.488 157.042 184.313 158.569 187.301C158.832 187.814 159.142 188.305 159.469 188.824C160.156 189.91 160.868 191.034 161.083 192.269C161.422 194.206 160.883 195.989 159.564 197.288C158.424 198.412 156.848 199.023 155.253 199.023Z" fill="#7A3C3C"/>
<path d="M156.247 194.408C156.167 194.408 156.088 194.397 156.012 194.377C155.09 194.134 154.526 192.465 154.238 189.129C154.226 188.991 154.319 188.868 154.447 188.857C154.584 188.844 154.687 188.945 154.699 189.081C155.023 192.831 155.652 193.766 156.122 193.891C156.463 193.981 157.09 193.724 158.138 191.974C158.206 191.856 158.351 191.823 158.459 191.898C158.566 191.974 158.597 192.13 158.527 192.246C157.658 193.696 156.908 194.408 156.247 194.408Z" fill="#7A3C3C"/>
<path d="M154.422 217.674C154.388 217.674 154.354 217.667 154.323 217.65C153.27 217.111 152.276 216.802 151.399 216.528C149.117 215.818 147.314 215.258 146.811 211.246C146.336 207.439 146.591 203.4 146.839 199.496C146.98 197.269 147.125 194.968 147.127 192.776C147.127 192.638 147.23 192.526 147.36 192.526C147.486 192.526 147.592 192.638 147.592 192.776C147.588 194.984 147.443 197.295 147.302 199.531C147.057 203.409 146.803 207.422 147.271 211.179C147.731 214.868 149.241 215.338 151.526 216.048C152.324 216.296 153.215 216.572 154.169 217.025C154.163 216.631 154.185 216.226 154.207 215.803C154.236 215.271 154.263 214.719 154.236 214.151C154.231 214.013 154.33 213.895 154.456 213.888C154.602 213.893 154.694 213.987 154.699 214.125C154.728 214.721 154.698 215.286 154.67 215.833C154.64 216.388 154.613 216.916 154.652 217.4C154.66 217.49 154.623 217.579 154.555 217.63C154.515 217.66 154.468 217.674 154.422 217.674Z" fill="#7A3C3C"/>
<path d="M157.695 224.068C156.771 224.068 155.889 223.856 155.028 223.652C153.984 223.404 152.997 223.168 152.08 223.359C152.005 223.376 151.93 223.352 151.876 223.295C151.821 223.238 151.796 223.157 151.806 223.078C151.978 221.819 152.181 220.43 152.385 219.104C152.406 218.966 152.522 218.874 152.651 218.898C152.779 218.92 152.864 219.049 152.844 219.185C152.658 220.394 152.472 221.652 152.31 222.817C153.222 222.706 154.149 222.929 155.129 223.163C156.131 223.402 157.167 223.648 158.232 223.54C158.689 219.137 158.278 214.401 157.879 209.818C157.61 206.715 157.33 203.508 157.329 200.454C157.329 200.314 157.431 200.202 157.56 200.202C157.688 200.202 157.792 200.314 157.792 200.454C157.794 203.484 158.072 206.68 158.341 209.77C158.748 214.449 159.167 219.284 158.67 223.796C158.658 223.91 158.574 224 158.47 224.015C158.208 224.051 157.949 224.068 157.695 224.068Z" fill="#7A3C3C"/>
<path d="M155.396 208.381L155.381 208.379C155.253 208.37 155.156 208.252 155.165 208.114C155.255 206.638 155.129 205.181 155.006 203.77C154.95 203.119 154.892 202.464 154.856 201.803C154.848 201.665 154.945 201.547 155.073 201.538C155.212 201.518 155.311 201.636 155.318 201.774C155.355 202.429 155.412 203.078 155.468 203.724C155.592 205.154 155.72 206.633 155.628 208.147C155.62 208.28 155.517 208.381 155.396 208.381Z" fill="#7A3C3C"/>
<path d="M117.89 243.426L117.85 243.422C117.724 243.398 117.64 243.269 117.662 243.133C118.687 236.682 119.19 230.009 119.675 223.556C120.141 217.374 120.623 210.98 121.563 204.758C122.115 201.104 122.786 197.414 123.434 193.845C124.037 190.531 124.659 187.103 125.183 183.723C125.204 183.587 125.326 183.501 125.45 183.517C125.577 183.541 125.662 183.67 125.641 183.806C125.115 187.194 124.492 190.623 123.888 193.942C123.241 197.506 122.572 201.192 122.021 204.837C121.083 211.041 120.603 217.424 120.138 223.597C119.65 230.06 119.148 236.745 118.118 243.218C118.099 243.339 118.001 243.426 117.89 243.426Z" fill="#7A3C3C"/>
<path d="M122.217 232.523L122.184 232.521C122.057 232.501 121.969 232.374 121.988 232.236C122.564 227.997 122.755 223.651 122.941 219.446C123.095 215.94 123.254 212.315 123.636 208.769C123.947 205.881 124.415 203.139 124.91 200.237C125.624 196.053 126.362 191.726 126.726 186.418C126.736 186.28 126.848 186.175 126.974 186.186C127.102 186.197 127.199 186.317 127.189 186.455C126.823 191.79 126.082 196.131 125.366 200.329C124.872 203.222 124.406 205.954 124.097 208.826C123.717 212.355 123.557 215.973 123.404 219.47C123.219 223.686 123.026 228.046 122.447 232.31C122.43 232.435 122.331 232.523 122.217 232.523Z" fill="#7A3C3C"/>
<path d="M141.794 170.666C141.684 170.666 141.585 170.58 141.566 170.456C141.27 168.583 141.22 166.486 141.171 164.456C141.105 161.68 141.036 158.808 140.338 156.475C140.298 156.342 140.365 156.202 140.487 156.158C140.609 156.116 140.74 156.189 140.779 156.32C141.498 158.721 141.567 161.63 141.636 164.443C141.684 166.454 141.733 168.534 142.024 170.372C142.045 170.51 141.96 170.638 141.834 170.662L141.794 170.666Z" fill="#7A3C3C"/>
<path d="M143.87 160.68C143.688 161.409 143.63 161.757 143.778 162.38C143.964 161.906 144.044 161.451 144.039 160.899C143.957 160.828 143.92 160.723 143.901 160.625C143.891 160.644 143.88 160.66 143.87 160.68ZM143.727 163.295H143.707C143.616 163.286 143.538 163.221 143.509 163.127C143.238 162.298 143.185 161.841 143.262 161.304C143.231 161.293 143.204 161.275 143.178 161.249C143.086 161.151 143.085 160.993 143.175 160.894C143.284 160.774 143.349 160.653 143.419 160.522L143.439 160.483C143.454 160.423 143.47 160.36 143.487 160.296C143.5 160.242 143.529 160.193 143.572 160.16C143.679 160.077 143.793 159.992 143.908 159.955C143.977 159.915 144.058 159.88 144.151 159.852C144.218 159.834 144.286 159.845 144.342 159.886C144.398 159.926 144.436 159.99 144.444 160.062C144.47 160.285 144.487 160.495 144.496 160.691C144.501 160.713 144.501 160.736 144.499 160.758C144.528 161.672 144.357 162.358 143.928 163.17C143.887 163.247 143.81 163.295 143.727 163.295Z" fill="#7A3C3C"/>
<path d="M124.897 128.833C124.816 128.833 124.737 128.787 124.694 128.704C124.206 127.758 123.416 126.871 122.578 125.929C121.034 124.194 119.437 122.402 119.721 120.095C119.738 119.959 119.843 119.863 119.982 119.88C120.109 119.898 120.198 120.023 120.181 120.161C119.926 122.227 121.444 123.933 122.913 125.583C123.734 126.505 124.582 127.458 125.099 128.461C125.162 128.581 125.122 128.733 125.01 128.801C124.974 128.822 124.936 128.833 124.897 128.833Z" fill="#7A3C3C"/>
<path d="M154.365 126.608C154.299 126.608 154.232 126.577 154.186 126.516C154.106 126.41 154.12 126.251 154.219 126.165C156.293 124.329 157.804 120.853 158.891 118.031C158.941 117.902 159.077 117.841 159.195 117.895C159.312 117.948 159.368 118.093 159.319 118.22C158.145 121.278 156.654 124.656 154.512 126.551C154.469 126.59 154.418 126.608 154.365 126.608Z" fill="#7A3C3C"/>
<path d="M150.862 122.826C150.829 122.826 150.797 122.818 150.766 122.804C150.649 122.745 150.598 122.596 150.652 122.471C151.518 120.436 152.01 118.147 152.486 115.933C152.682 115.015 152.886 114.068 153.111 113.164C153.145 113.032 153.271 112.953 153.396 112.988C153.52 113.024 153.592 113.162 153.559 113.295C153.336 114.189 153.133 115.133 152.937 116.046C152.457 118.285 151.959 120.599 151.073 122.68C151.034 122.772 150.95 122.826 150.862 122.826Z" fill="#7A3C3C"/>
<path d="M126.339 126.386C126.223 126.386 126.124 126.294 126.109 126.167C126.052 125.672 125.997 125.168 125.941 124.658C125.573 121.313 125.193 117.852 124.265 114.868C124.224 114.737 124.289 114.596 124.41 114.551C124.531 114.505 124.663 114.577 124.704 114.708C125.649 117.744 126.031 121.228 126.402 124.599C126.457 125.107 126.512 125.611 126.569 126.104C126.585 126.242 126.495 126.367 126.367 126.384L126.339 126.386Z" fill="#7A3C3C"/>
<path d="M186.363 146.322L185.943 146.112C190.033 136.574 187.494 127.674 185.229 121.81C182.51 114.772 175.918 110.119 170.102 106.012L169.24 105.403C163.342 101.229 163.053 96.292 162.685 90.0455C162.616 88.8789 162.545 87.6738 162.434 86.4116C161.419 74.8421 154.318 74.0546 146.798 73.2192C140.623 72.5329 134.237 71.8227 131.28 64.8273L131.702 64.6194C134.549 71.3554 140.8 72.049 146.845 72.7206C154.219 73.5394 161.845 74.3876 162.896 86.3656C163.007 87.6333 163.078 88.844 163.146 90.0123C163.506 96.1209 163.791 100.947 169.496 104.986L170.356 105.593C176.229 109.738 182.883 114.438 185.655 121.619C187.956 127.569 190.531 136.605 186.363 146.322Z" fill="#FAF3F0"/>
<path d="M165.777 171.319L165.622 170.846C169.692 169.295 173.599 164.85 173.095 160.097C173.006 159.254 172.854 158.395 172.708 157.563C172.34 155.484 171.961 153.333 172.488 151.186C173.03 148.991 174.374 147.705 175.676 146.463C176.47 145.705 177.292 144.921 177.941 143.928C180.981 139.28 179.354 134.493 177.779 129.861C177.171 128.073 176.542 126.224 176.189 124.408L176.643 124.305C176.988 126.086 177.612 127.918 178.214 129.69C179.829 134.441 181.501 139.354 178.321 144.217C177.639 145.258 176.798 146.06 175.985 146.839C174.676 148.086 173.441 149.265 172.936 151.315C172.435 153.352 172.805 155.446 173.163 157.47C173.311 158.31 173.463 159.181 173.556 160.04C174.105 165.231 169.959 169.724 165.777 171.319Z" fill="#FAF3F0"/>
<path d="M97.9743 178.408L97.2497 177.871C92.6869 174.485 87.9687 170.986 88.4344 164.342C88.5789 162.292 89.1891 160.303 89.7801 158.377C90.4191 156.296 91.079 154.143 91.1578 151.897C91.2991 147.871 89.9926 144.579 88.6094 141.093C87.6291 138.622 86.6146 136.066 86.1665 133.231C84.4663 122.465 88.4561 111.884 97.1118 104.202C98.7515 102.745 100.535 101.473 102.259 100.244C107.704 96.3601 112.846 92.6913 112.499 83.9921C112.316 79.3941 112.088 73.6738 116.012 70.0454C117.572 68.6048 119.552 67.8541 121.467 67.131C124.033 66.1595 126.457 65.2432 128.002 62.8035L128.385 63.085C126.754 65.6609 124.145 66.6489 121.62 67.6039C119.746 68.3122 117.808 69.0445 116.313 70.4281C112.561 73.8964 112.774 79.2488 112.963 83.97C113.32 92.9526 108.072 96.6968 102.515 100.662C100.801 101.884 99.0277 103.148 97.4063 104.588C88.8821 112.154 84.9528 122.563 86.6245 133.146C87.0623 135.924 88.0655 138.45 89.0354 140.896C90.3784 144.279 91.7662 147.779 91.621 151.915C91.5397 154.233 90.8693 156.419 90.2201 158.535C89.6385 160.43 89.0361 162.392 88.8967 164.381C88.4513 170.736 93.0577 174.152 97.5125 177.459L98.2377 177.996L97.9743 178.408Z" fill="#FAF3F0"/>
<path d="M147.05 247.43H147.046C146.919 247.428 146.816 247.316 146.818 247.178C146.878 242.153 146.75 237.071 146.627 232.156C146.47 225.862 146.307 219.356 146.533 212.896C146.629 210.184 146.622 207.735 146.615 205.141L146.612 203.902C146.612 203.764 146.716 203.652 146.844 203.652C146.971 203.652 147.075 203.764 147.075 203.902L147.079 205.141C147.086 207.739 147.092 210.193 146.997 212.914C146.77 219.358 146.934 225.857 147.091 232.144C147.213 237.062 147.341 242.149 147.282 247.183C147.28 247.319 147.176 247.43 147.05 247.43Z" fill="#7A3C3C"/>
<path d="M149.522 228.407C149.395 228.407 149.291 228.295 149.291 228.157C149.291 225.932 149.265 223.869 149.24 221.873C149.214 219.877 149.188 217.811 149.188 215.584C149.188 215.446 149.291 215.334 149.42 215.334C149.548 215.334 149.652 215.446 149.652 215.584C149.652 217.809 149.678 219.871 149.703 221.866C149.729 223.864 149.754 225.928 149.754 228.157C149.754 228.295 149.65 228.407 149.522 228.407Z" fill="#7A3C3C"/>
<path d="M113.449 50.6818C121.9 38.599 146.041 54.7849 144.34 29.1767C143.843 21.6753 144.569 6.41849 137.837 1.39915C130.097 -4.35064 125.444 9.25753 120.77 12.6725C111.893 19.1527 90.191 14.7276 90.9149 32.0488C91.3651 42.84 104.464 49.5135 111.532 54.8438C112.013 53.1731 112.663 51.8042 113.449 50.6818Z" fill="#FED190"/>
<path d="M130.531 27.2315C129.354 25.4081 129.77 22.8984 131.459 21.6307C133.148 20.3593 135.471 20.8082 136.647 22.6335C137.823 24.4569 137.407 26.9647 135.718 28.2342C134.029 29.5038 131.706 29.0549 130.531 27.2315Z" fill="white"/>
<path d="M116.478 31.2574C115.303 29.4358 115.718 26.9262 117.407 25.6566C119.096 24.3871 121.419 24.836 122.594 26.6594C123.771 28.4827 123.356 30.9906 121.666 32.2619C119.977 33.5315 117.655 33.0826 116.478 31.2574Z" fill="white"/>
<path d="M101.008 33.0827C99.8311 31.2592 100.247 28.7532 101.936 27.4818C103.625 26.214 105.948 26.6611 107.124 28.4846C108.299 30.3098 107.882 32.8177 106.195 34.0855C104.506 35.3569 102.183 34.9079 101.008 33.0827Z" fill="white"/>
</svg>
