<svg width="292" height="300" viewBox="0 0 292 300" fill="none" xmlns="http://www.w3.org/2000/svg">
<path d="M27.4109 50.7934C33.8108 41.9883 51.4004 18.453 83.1214 6.65437C135.591 -12.8655 185.469 15.0569 216.984 32.6981C246.186 49.0489 289.159 73.1107 289.345 105.781C289.51 135.903 253.133 141.632 247.373 179.587C241.231 220.134 278.857 239.375 269.082 265.698C257.686 296.356 194.532 302.766 154.76 298.255C139.482 296.521 55.8081 287.034 17.2845 211.422C-9.14117 159.582 -4.87799 95.1802 27.4109 50.7934Z" fill="#F4F7FA"/>
<path d="M123.472 148.95C123.472 148.95 125.681 149.281 125.908 150.354C126.135 151.428 126.362 152.563 125.474 155.495C124.587 158.426 124.69 159.675 123.616 159.871C122.553 160.057 120.458 152.253 123.472 148.95Z" fill="#26264F"/>
<path d="M123.637 145.854C123.658 146.07 124.452 148.475 124.907 149.838C125.092 150.395 124.886 151.004 124.401 151.345C123.688 151.83 122.728 151.686 122.202 151.004C121.314 149.859 120.034 148.135 119.384 146.958L123.637 145.854Z" fill="url(#paint0_linear)"/>
<path d="M173.505 115.071C175.394 111.314 164.969 102.633 163.575 101.477C160.85 99.2057 134.517 77.7348 119.188 88.2225C106.285 97.0483 110.703 121.998 111.56 126.88C113.377 137.131 117.526 144.893 120.623 149.672C122.306 148.733 123.988 147.804 125.671 146.865C126.755 141.425 127.415 136.831 127.839 133.476C128.448 128.501 129.005 124.011 129.139 118.086C129.356 108.702 128.262 106.844 129.769 105.678C133.093 103.118 139.988 110.984 154.419 114.875C160.458 116.496 171.781 118.498 173.505 115.071Z" fill="url(#paint1_linear)"/>
<path opacity="0.3" d="M163.575 101.477C162.759 100.795 159.807 98.3901 155.688 95.634C154.429 97.3888 153.118 98.2146 152.014 98.5862C146.935 100.32 143.353 94.2611 134.434 94.0856C132.153 94.0443 125.898 93.9205 122.739 97.7914C118.971 102.426 123.792 107.639 120.612 118.003C118.961 123.381 117.258 123.298 117.031 127.303C116.68 133.631 120.809 136.067 120.561 141.61C120.499 143.076 120.086 144.872 118.961 146.916C119.529 147.907 120.096 148.836 120.623 149.652C122.305 148.712 123.988 147.783 125.671 146.844C126.754 141.404 127.415 136.811 127.838 133.456C128.447 128.48 129.005 123.99 129.139 118.065C129.356 108.682 128.261 106.824 129.769 105.657C133.092 103.097 139.988 110.963 154.419 114.855C160.468 116.485 171.792 118.488 173.515 115.061C175.384 111.314 164.958 102.633 163.575 101.477Z" fill="url(#paint2_linear)"/>
<path d="M101.805 191.344C101.805 191.344 78.5172 226.492 109.34 273.222C112.21 277.578 118.734 277.134 121.025 272.448L135.58 242.595C137.913 237.805 138.119 232.262 136.148 227.318L126.011 201.924L101.805 191.344Z" fill="url(#paint3_linear)"/>
<path d="M156.773 133.384C156.773 133.384 190.641 108.269 238.94 136.563C243.44 139.195 243.348 145.74 238.785 148.269L209.748 164.393C205.092 166.973 199.559 167.479 194.522 165.766L168.633 156.991L156.773 133.384Z" fill="url(#paint4_linear)"/>
<path d="M98.5739 188.279C98.5739 188.279 75.2863 223.427 106.109 270.157C108.979 274.514 115.503 274.07 117.794 269.383L132.349 239.531C134.682 234.741 134.888 229.198 132.917 224.253L122.78 198.86L98.5739 188.279Z" fill="url(#paint5_linear)"/>
<path d="M153.531 130.318C153.531 130.318 187.4 105.203 235.699 133.497C240.199 136.129 240.106 142.674 235.544 145.203L206.507 161.326C201.851 163.907 196.318 164.413 191.281 162.699L165.392 153.925L153.531 130.318Z" fill="url(#paint6_linear)"/>
<path d="M113.325 55.9646C68.763 22.2203 6.30139 45.6317 6.27042 45.7143C6.18784 45.7453 -13.8791 109.363 22.1878 152.067C54.8998 190.797 118.528 213.238 130.708 217.275C132.019 217.708 134.125 218.255 134.683 216.996C145.604 192.469 162.522 175.541 184.2 164.805C185.397 164.206 184.705 162.173 184.22 160.934C179.616 149.146 153.82 86.6328 113.325 55.9646Z" fill="url(#paint7_linear)"/>
<g opacity="0.3">
<path opacity="0.3" d="M96.747 119.004C71.8388 100.3 52.6802 112.171 28.9178 96.1605C20.2365 90.3179 10.2237 80.2638 2.71921 61.5078C-0.842056 83.1231 -2.71043 122.576 22.1978 152.067C54.9098 190.797 118.538 213.238 130.718 217.275C132.029 217.708 134.135 218.255 134.693 216.996C140.205 204.609 147.255 194.152 155.678 185.461C146.791 181.765 140.133 177.172 135.033 172.588C114.491 154.132 119.436 136.057 96.747 119.004Z" fill="url(#paint8_linear)"/>
</g>
<path d="M36.6085 74.4835C49.9039 60.4552 66.8328 47.0565 82.874 41.3172C49.78 32.5431 16.397 42.2772 8.1906 45.0333C6.97254 45.4462 6.04351 46.4269 5.70287 47.6656C3.39062 56.0165 -4.56802 89.864 5.95062 122.442C9.90414 107.908 23.3131 88.5117 36.6085 74.4835Z" fill="url(#paint9_linear)"/>
<path opacity="0.3" d="M2.71944 61.5186C2.6988 61.6218 2.68847 61.725 2.66783 61.8179C2.63686 61.9934 2.61621 62.1585 2.58524 62.334C2.55428 62.5095 2.53363 62.685 2.50266 62.8605C2.47169 63.0256 2.45107 63.1908 2.4201 63.3663C2.38913 63.5521 2.35816 63.7379 2.33751 63.934C2.31687 64.0992 2.28591 64.254 2.26526 64.4192C2.23429 64.6153 2.20332 64.8218 2.18268 65.0179C2.16203 65.1727 2.14138 65.3379 2.12073 65.4927C2.08976 65.7095 2.05879 65.9159 2.03815 66.1327C2.0175 66.2876 1.99687 66.4424 1.97622 66.5869C1.94526 66.814 1.91428 67.0411 1.88331 67.2682C1.86266 67.4127 1.84202 67.5675 1.8317 67.7121C1.80073 67.9495 1.76978 68.1869 1.74914 68.4243C1.72849 68.5688 1.71817 68.7134 1.69752 68.8579C1.66656 69.1056 1.63558 69.3533 1.61494 69.6011C1.59429 69.7456 1.58397 69.8798 1.56333 70.0243C1.53236 70.2824 1.51171 70.5404 1.48074 70.7985C1.47042 70.9327 1.44978 71.0669 1.43946 71.2114C1.40849 71.4798 1.38784 71.7482 1.35687 72.0166C1.34655 72.1507 1.33622 72.2849 1.31557 72.4191C1.2846 72.6978 1.26396 72.9766 1.24332 73.2553C1.23299 73.3791 1.22267 73.5133 1.21235 73.6372C1.1917 73.9262 1.16074 74.2153 1.14009 74.5043C1.12977 74.6282 1.11944 74.752 1.10912 74.8759C1.08847 75.1752 1.06783 75.4746 1.03687 75.774C1.02654 75.8978 1.01622 76.0217 1.0059 76.1456C0.98525 76.4552 0.964621 76.7546 0.943975 77.0643C0.933653 77.1881 0.933657 77.3017 0.923334 77.4256C0.902689 77.7456 0.882046 78.0552 0.871723 78.3752C0.861401 78.4888 0.86138 78.6023 0.851057 78.7262C0.830412 79.0462 0.820089 79.3765 0.799444 79.7068C0.789122 79.8204 0.789137 79.9339 0.789137 80.0475C0.778814 80.3778 0.758154 80.7184 0.747831 81.0488C0.747831 81.1623 0.737524 81.2655 0.737524 81.3791C0.727201 81.7197 0.716875 82.0604 0.706553 82.4113C0.706553 82.5146 0.69622 82.6178 0.69622 82.721C0.685898 83.072 0.675579 83.4229 0.675579 83.7739C0.675579 83.8771 0.675579 83.97 0.675579 84.0732C0.665257 84.4345 0.665272 84.7958 0.665272 85.1571C0.665272 85.25 0.665272 85.3532 0.665272 85.4461C0.665272 85.8074 0.665272 86.179 0.665272 86.5507C0.665272 86.6436 0.665272 86.7468 0.665272 86.8397C0.665272 87.2113 0.665257 87.5829 0.675579 87.9648C0.675579 88.0577 0.675579 88.1506 0.675579 88.2435C0.675579 88.6255 0.685898 89.0074 0.69622 89.3893C0.69622 89.4823 0.69623 89.5648 0.706553 89.6577C0.716875 90.05 0.727201 90.4319 0.737524 90.8242C0.737524 90.9068 0.747831 90.9893 0.747831 91.0719C0.758154 91.4642 0.778814 91.8668 0.789137 92.259C0.789137 92.3416 0.799444 92.4242 0.799444 92.4964C0.820089 92.899 0.840744 93.3016 0.861389 93.7145C0.861389 93.7867 0.871723 93.8693 0.871723 93.9416C0.892368 94.3545 0.92333 94.7674 0.943975 95.1803C0.943975 95.2525 0.954283 95.3248 0.954283 95.3971C0.98525 95.8203 1.01623 96.2332 1.0472 96.6564C1.0472 96.7183 1.05752 96.7906 1.06784 96.8525C1.09881 97.2758 1.1401 97.699 1.17106 98.1325C1.18139 98.1945 1.18138 98.2564 1.19171 98.3287C1.23299 98.7622 1.27428 99.1957 1.31557 99.6293C1.32589 99.6912 1.32591 99.7428 1.33624 99.8048C1.37753 100.249 1.42913 100.682 1.48074 101.126C1.49106 101.178 1.49106 101.229 1.50138 101.281C1.55299 101.725 1.60462 102.179 1.66655 102.623C1.67687 102.674 1.67687 102.716 1.68719 102.767C1.74912 103.222 1.80073 103.676 1.86267 104.14C1.87299 104.182 1.87299 104.223 1.88331 104.254C1.94524 104.718 2.0175 105.183 2.08976 105.647C2.08976 105.678 2.10009 105.709 2.10009 105.74C2.17235 106.215 2.2446 106.69 2.32718 107.165C2.32718 107.185 2.33751 107.206 2.33751 107.237C2.42009 107.722 2.50266 108.207 2.58524 108.692C2.58524 108.703 2.58525 108.713 2.59558 108.723C3.41105 113.276 4.52588 117.869 6.002 122.442C8.53102 113.152 14.9206 101.88 22.6729 91.2887C15.6639 85.1158 8.45875 75.8669 2.71944 61.5186Z" fill="url(#paint10_linear)"/>
<path d="M111.581 83.4643C127.849 98.8861 127.147 126.034 110.022 144.099C92.8971 162.163 65.8212 164.3 49.5529 148.878C33.2846 133.456 33.9865 106.308 51.1116 88.2436C68.2366 70.1689 95.3126 68.0321 111.581 83.4643Z" fill="url(#paint11_linear)"/>
<path d="M96.7473 119.005C76.4223 103.738 59.9269 108.837 41.6354 102.53C34.6368 118.654 37.2071 137.142 49.5631 148.868C65.8314 164.29 92.897 162.153 110.032 144.089C111.436 142.613 112.727 141.075 113.903 139.485C110.29 132.527 105.635 125.694 96.7473 119.005Z" fill="url(#paint12_linear)"/>
<path d="M108.989 86.1894C123.895 100.331 123.255 125.209 107.565 141.766C91.8643 158.323 67.049 160.284 52.1433 146.143C37.2376 132.001 37.8776 107.124 53.5678 90.5662C69.2684 74.0089 94.0837 72.0476 108.989 86.1894Z" fill="url(#paint13_linear)"/>
<path d="M105.325 90.0499C118.311 102.365 117.753 124.042 104.076 138.462C90.3985 152.883 68.7831 154.586 55.7974 142.271C42.8117 129.957 43.3691 108.279 57.0465 93.8589C70.7238 79.4383 92.3391 77.7351 105.325 90.0499Z" fill="url(#paint14_linear)"/>
<path d="M185.407 163.722C189.846 167.934 181.898 183.521 167.653 198.54C153.407 213.559 138.264 222.323 133.826 218.122C129.387 213.91 137.335 198.323 151.58 183.304C165.825 168.274 180.969 159.51 185.407 163.722Z" fill="url(#paint15_linear)"/>
<path d="M161.109 181.456L150.043 193.131C144.149 199.345 142.621 208.501 146.162 216.294L149.527 223.685C150.765 226.41 154.358 227.009 156.422 224.841L193.129 186.132C195.183 183.964 194.388 180.403 191.612 179.309L184.045 176.346C176.066 173.229 167.003 175.252 161.109 181.456Z" fill="url(#paint16_linear)"/>
<path d="M194.501 181.569C198.692 185.544 192.55 198.808 180.803 211.205C169.046 223.603 156.122 230.436 151.931 226.462C147.74 222.488 153.882 209.224 165.629 196.826C177.397 184.429 190.32 177.595 194.501 181.569Z" fill="url(#paint17_linear)"/>
<path d="M189.402 186.957C192.581 189.972 187.926 200.057 178.986 209.481C170.047 218.906 160.23 224.098 157.051 221.073C153.872 218.059 158.527 207.974 167.466 198.55C176.395 189.125 186.212 183.933 189.402 186.957Z" fill="url(#paint18_linear)"/>
<g opacity="0.3">
<path opacity="0.3" d="M96.7471 119.005C79.4569 106.02 64.9434 107.764 49.7383 104.698C43.8339 117.705 45.7952 132.775 55.808 142.272C68.7937 154.587 90.409 152.884 104.086 138.463C106.089 136.357 107.802 134.097 109.237 131.723C106.213 127.428 102.311 123.186 96.7471 119.005Z" fill="url(#paint19_linear)"/>
</g>
<path d="M178.037 200.522C175.983 204.681 199.043 221.156 219.544 231.881C223.116 233.75 232.602 238.57 245.846 243.153C267.668 250.71 280.715 256.026 285.701 250.648C288.953 247.128 288.065 239.933 285.381 235.308C279.91 225.884 268.968 230.55 257.283 220.568C247.838 212.506 250.512 205.631 242.274 201.709C234.388 197.951 229.072 202.875 214.816 204.341C192.716 206.601 179.586 197.394 178.037 200.522Z" fill="url(#paint20_linear)"/>
<path d="M167.849 210.885C186.708 217.367 197.113 226.523 203.152 233.78C210.326 242.389 210.945 247.829 219.957 254.033C228.834 260.144 235.492 259.855 241.325 267.586C242.625 269.31 248.334 276.877 245.939 282.213C241.882 291.256 215.394 292.133 196.504 281.408C192.798 279.302 178.43 271.148 176.117 257.398C174.982 250.678 177.624 247.922 177.82 239.788C178.027 231.344 175.467 221.661 167.849 210.885Z" fill="url(#paint21_linear)"/>
<path d="M179.729 67.93C178.449 65.7726 176.23 61.912 177.417 57.8862C178.553 54.0152 182.496 51.0733 186.501 50.4953C187.482 50.3507 190.62 50.0411 195.647 53.0449C202.852 57.3391 201.758 63.739 207.363 65.5558C210.645 66.619 211.574 64.699 216.932 65.8345C221.009 66.7016 221.577 68.0435 224.777 69.0655C232.054 71.3777 234.728 66.1752 242.686 67.4242C248.395 68.3222 254.619 72.1932 255.59 77.0138C256.157 79.8422 254.402 80.4409 254.237 84.9931C254.041 90.2886 256.312 92.0743 257.086 96.9259C257.85 101.705 256.808 107.3 254.217 111.243C247.775 121.07 232.374 119.821 230.702 119.656C222.527 118.882 217.138 115.032 210.047 109.829C200.343 102.717 193.469 91.1247 179.729 67.93Z" fill="#26264F"/>
<path d="M126.807 40.7085L123.669 37.6736C122.853 36.9098 121.986 36.1356 121.067 35.3614C119.725 34.2259 118.404 33.1937 117.134 32.2646C117.134 32.2646 116.866 32.8014 117.589 33.5859C118.311 34.3704 119.725 35.5369 120.076 35.8362C120.427 36.1356 119.178 37.2607 119.911 38.6027C120.644 39.9446 122.43 40.0375 123.07 39.4181L125.372 41.6581L126.807 40.7085Z" fill="url(#paint22_linear)"/>
<path d="M125.444 39.0264C124.515 39.9864 123.586 40.9567 122.657 41.9167C122.863 43.5476 123.4 46.1179 124.98 48.7192C128.675 54.8198 134.053 54.4585 142.249 60.6933C145.924 63.4907 144.489 63.2946 152.561 70.8094C159.261 77.0545 162.667 80.1823 165.32 80.4713C173.784 81.4106 181.454 67.6713 182.775 65.2352C174.352 60.8585 167.168 57.8959 162.027 55.9759C150.445 51.6405 140.856 49.3799 128.84 41.4005C127.395 40.4302 126.229 39.5941 125.444 39.0264Z" fill="url(#paint23_linear)"/>
<path d="M143.519 170.607C143.56 170.618 143.643 170.628 143.766 170.638C144.303 170.69 145.542 170.835 146.295 172.001C147.214 173.425 146.894 176.512 146.378 180.197C145.862 183.882 144.066 180.527 143.89 179.96C143.725 179.392 141.939 171.65 141.939 171.65L143.519 170.607Z" fill="#26264F"/>
<path d="M140.525 169.988L143.498 173.157C143.498 173.157 144.509 173.075 144.344 171.712L143.931 168.285L140.525 169.988Z" fill="url(#paint24_linear)"/>
<path opacity="0.3" d="M160.138 67.2685C159.446 65.9782 157.794 62.1692 153.944 60.4453C150.878 59.0724 149.485 60.3937 146.285 59.1653C142.352 57.6479 142.672 54.9538 138.233 51.1035C133.103 46.6648 130.14 48.048 127.374 44.5074C126.466 43.3409 125.609 41.6584 125.258 39.2119C124.391 40.11 123.513 41.0184 122.646 41.9164C122.853 43.5474 123.39 46.1177 124.969 48.719C128.664 54.8196 134.042 54.4583 142.238 60.6931C145.913 63.4905 144.478 63.2943 152.551 70.8091C159.25 77.0543 162.656 80.182 165.309 80.471C168.767 80.853 172.091 78.7885 174.909 76.0427C165.619 73.5137 161.727 70.2311 160.138 67.2685Z" fill="url(#paint25_linear)"/>
<path d="M177.666 105.689C172.432 104.399 153.965 100.538 138.533 111.459C136.778 112.698 133.372 115.155 130.812 118.974C122.533 131.341 127.189 152.068 140.567 171.413C142.094 170.556 143.622 169.699 145.15 168.842C146.275 164.951 147.421 159.118 146.564 152.275C145.408 143.057 141.537 139.134 143.56 133.787C145.893 127.624 153.872 125.343 155.38 124.951C166.518 122.019 172.856 130.463 182.765 127.563C187.906 126.055 191.426 122.267 193.707 119.005C188.35 114.566 183.013 110.128 177.666 105.689Z" fill="url(#paint26_linear)"/>
<path d="M238.712 79.6561C237.463 81.3387 234.976 84.1464 231.063 85.2922C224.942 87.0883 219.182 83.6922 214.609 80.9051C207.982 76.869 209.376 75.2897 203.017 71.0058C195.606 66.0097 183.208 63.6769 181.701 63.4085C177.335 62.6446 175.115 62.273 173.526 62.7375C167.58 64.4923 163.069 71.8936 163.028 78.5C163.017 80.358 163.73 83.909 165.164 91.0109C165.918 94.7476 166.455 96.936 165.35 97.8341C163.389 99.4237 158.269 95.367 157.103 96.6883C156.39 97.5037 157.712 99.7437 157.959 100.146C161.841 106.711 168.395 107.558 174.857 111.976C184.994 118.902 181.722 125.591 191.002 129.71C196.855 132.301 200.117 130.515 204.4 134.376C208.643 138.216 207.476 141.829 211.255 144.069C217.066 147.516 227.027 143.191 227.048 140.394C227.069 138.371 221.845 138.876 217.737 133.983C214.165 129.741 216.209 127.109 212.473 121.462C209.799 117.426 208.519 118.417 204.256 113.132C201.5 109.705 198.826 106.402 198.31 101.643C197.856 97.4934 199.239 94.0767 200.178 92.2083C201.18 93.5812 209.427 104.482 222.651 104.327C225.231 104.296 234.718 104.182 240.127 96.5231C244.772 89.9373 243.182 82.3503 242.852 80.9051C241.469 80.5129 240.085 80.0897 238.712 79.6561Z" fill="url(#paint27_linear)"/>
<path d="M185.356 58.3604C185.356 58.3604 185.924 63.0158 187.637 64.079C189.351 65.1526 192.117 66.5461 192.427 66.9281C192.726 67.31 181.795 68.4455 176.386 65.6893C176.386 65.6893 176.21 64.8016 178.45 64.4919C179.049 64.4094 180.412 64.2442 180.959 64.2958C182.321 64.4094 183.498 63.3358 183.488 61.9732L183.477 59.4029L185.356 58.3604Z" fill="url(#paint28_linear)"/>
<path opacity="0.3" d="M214.475 141.652C213.526 139.918 214.124 138.329 212.297 135.5C210.284 132.383 208.158 132.135 204.979 128.636C202.728 126.158 203.12 125.539 201.231 123.185C196.122 116.806 191.394 118.995 187.544 113.73C184.168 109.116 186.336 105.42 182.723 103.005C179.389 100.765 175.91 102.829 174.372 100.641C172.721 98.2979 176.354 95.4386 175.466 91.3096C174.393 86.3548 168.22 86.2206 165.309 81.3793C164.205 79.5316 163.43 76.7548 164.236 72.4297C163.472 74.4116 163.038 76.5071 163.028 78.5303C163.017 80.3883 163.73 83.9393 165.165 91.0412C165.918 94.7779 166.455 96.9663 165.35 97.8644C163.389 99.454 158.269 95.3973 157.103 96.7186C156.39 97.534 157.712 99.774 157.959 100.177C161.841 106.742 168.396 107.588 174.857 112.006C184.994 118.933 181.722 125.622 191.002 129.74C196.855 132.331 200.117 130.545 204.4 134.406C208.643 138.246 207.477 141.859 211.255 144.099C213.804 145.616 217.159 145.627 220.111 144.935C216.818 144.264 215.218 143.015 214.475 141.652Z" fill="url(#paint29_linear)"/>
<path d="M185.604 60.0013C185.604 60.0013 184.479 61.5291 182.724 60.8891C181.155 60.311 182.105 56.2542 183.354 55.8001C183.767 55.6452 184.53 55.7175 185.047 56.0375C185.408 56.2646 186.358 57.4517 185.8 58.7936C186.192 58.68 186.543 58.7833 186.636 58.9794C186.75 59.2271 186.409 59.5678 186.337 59.64C186.068 59.9084 185.759 59.9807 185.604 60.0013Z" fill="url(#paint30_linear)"/>
<path d="M239.146 14.0462C249.108 9.10175 258.604 10.4437 263.353 12.5391C268.958 15.0166 270.816 16.8849 275.781 17.814C280.189 18.6501 284.772 13.2308 288.209 17.0604C288.436 17.3185 288.725 17.6385 289.045 18.1959C291.513 22.4488 288.602 27.5997 289.407 36.5803C289.82 41.1738 290.811 42.4538 291.74 51.2899C292.091 54.6447 292.018 55.1402 291.915 55.5324C290.408 61.4988 278.455 60.3633 270.042 57.793C258.439 54.2421 254.713 48.2963 247.095 51.0008C243.585 52.2499 240.912 54.7479 239.208 56.6576C239.983 42.526 238.362 28.1984 239.146 14.0462Z" fill="url(#paint31_linear)"/>
<path d="M239.178 95.1081C238.724 95.1081 238.362 94.7365 238.362 94.2926V10.1641C238.362 9.70992 238.734 9.34863 239.178 9.34863C239.632 9.34863 239.993 9.72025 239.993 10.1641V94.2926C239.993 94.7365 239.632 95.1081 239.178 95.1081Z" fill="#A2A7AE"/>
<path d="M241.83 80.6265C241.83 80.6265 242.532 77.7775 242.532 76.3736C242.532 74.9697 238.661 74.9697 237.959 74.9697C237.257 74.9697 237.608 77.4368 239.012 77.6123C240.034 77.7362 240.127 79.0781 240.106 79.8213C240.096 80.1 240.292 80.3374 240.561 80.3891L241.83 80.6265Z" fill="url(#paint32_linear)"/>
<defs>
<linearGradient id="paint0_linear" x1="124.856" y1="143.275" x2="120.704" y2="151.748" gradientUnits="userSpaceOnUse">
<stop stop-color="#311944"/>
<stop offset="1" stop-color="#A03976"/>
</linearGradient>
<linearGradient id="paint1_linear" x1="125.069" y1="76.2177" x2="139.768" y2="114.228" gradientUnits="userSpaceOnUse">
<stop stop-color="#444B8C"/>
<stop offset="0.9964" stop-color="#3E4177"/>
</linearGradient>
<linearGradient id="paint2_linear" x1="125.435" y1="76.0757" x2="140.134" y2="114.086" gradientUnits="userSpaceOnUse">
<stop stop-color="#444B8C"/>
<stop offset="0.9964" stop-color="#3E4177"/>
</linearGradient>
<linearGradient id="paint3_linear" x1="89.7891" y1="254.938" x2="133.403" y2="208.947" gradientUnits="userSpaceOnUse">
<stop stop-color="#444B8C"/>
<stop offset="0.9964" stop-color="#26264F"/>
</linearGradient>
<linearGradient id="paint4_linear" x1="176.021" y1="164.003" x2="219.636" y2="118.011" gradientUnits="userSpaceOnUse">
<stop stop-color="#444B8C"/>
<stop offset="0.9964" stop-color="#26264F"/>
</linearGradient>
<linearGradient id="paint5_linear" x1="86.5535" y1="251.871" x2="130.167" y2="205.88" gradientUnits="userSpaceOnUse">
<stop stop-color="#AA80F9"/>
<stop offset="0.9964" stop-color="#6165D7"/>
</linearGradient>
<linearGradient id="paint6_linear" x1="216.589" y1="146.271" x2="94.8564" y2="119.033" gradientUnits="userSpaceOnUse">
<stop stop-color="#AA80F9"/>
<stop offset="0.9964" stop-color="#6165D7"/>
</linearGradient>
<linearGradient id="paint7_linear" x1="95.6043" y1="181.374" x2="85.3692" y2="-14.9811" gradientUnits="userSpaceOnUse">
<stop stop-color="#FFC444"/>
<stop offset="0.9964" stop-color="#F36F56"/>
</linearGradient>
<linearGradient id="paint8_linear" x1="80.4702" y1="182.163" x2="70.2351" y2="-14.1915" gradientUnits="userSpaceOnUse">
<stop stop-color="#FFC444"/>
<stop offset="0.9964" stop-color="#F36F56"/>
</linearGradient>
<linearGradient id="paint9_linear" x1="-12.9476" y1="104.522" x2="63.9809" y2="23.401" gradientUnits="userSpaceOnUse">
<stop stop-color="#AA80F9"/>
<stop offset="0.9964" stop-color="#6165D7"/>
</linearGradient>
<linearGradient id="paint10_linear" x1="12.5212" y1="107.725" x2="8.68644" y2="34.1588" gradientUnits="userSpaceOnUse">
<stop stop-color="#AA80F9"/>
<stop offset="0.9964" stop-color="#6165D7"/>
</linearGradient>
<linearGradient id="paint11_linear" x1="49.5536" y1="148.868" x2="111.579" y2="83.4618" gradientUnits="userSpaceOnUse">
<stop offset="0.00359712" stop-color="#EBEFF2"/>
<stop offset="1" stop-color="white"/>
</linearGradient>
<linearGradient id="paint12_linear" x1="50.6255" y1="149.885" x2="112.652" y2="84.4779" gradientUnits="userSpaceOnUse">
<stop offset="0.00359712" stop-color="#EBEFF2"/>
<stop offset="1" stop-color="white"/>
</linearGradient>
<linearGradient id="paint13_linear" x1="69.3009" y1="86.1765" x2="87.1173" y2="133.605" gradientUnits="userSpaceOnUse">
<stop offset="0.00359712" stop-color="#EBEFF2"/>
<stop offset="1" stop-color="white"/>
</linearGradient>
<linearGradient id="paint14_linear" x1="95.1227" y1="184.076" x2="70.2382" y2="67.983" gradientUnits="userSpaceOnUse">
<stop stop-color="#444B8C"/>
<stop offset="0.9964" stop-color="#26264F"/>
</linearGradient>
<linearGradient id="paint15_linear" x1="182.294" y1="215.986" x2="157.822" y2="188.938" gradientUnits="userSpaceOnUse">
<stop stop-color="#FFC444"/>
<stop offset="0.9964" stop-color="#F36F56"/>
</linearGradient>
<linearGradient id="paint16_linear" x1="143.915" y1="218.808" x2="186.429" y2="173.977" gradientUnits="userSpaceOnUse">
<stop stop-color="#AA80F9"/>
<stop offset="0.9964" stop-color="#6165D7"/>
</linearGradient>
<linearGradient id="paint17_linear" x1="167.093" y1="192.555" x2="189.806" y2="235.028" gradientUnits="userSpaceOnUse">
<stop stop-color="#AA80F9"/>
<stop offset="0.9964" stop-color="#6165D7"/>
</linearGradient>
<linearGradient id="paint18_linear" x1="168.563" y1="195.305" x2="185.826" y2="227.584" gradientUnits="userSpaceOnUse">
<stop stop-color="#444B8C"/>
<stop offset="0.9964" stop-color="#26264F"/>
</linearGradient>
<linearGradient id="paint19_linear" x1="90.1767" y1="185.136" x2="65.2927" y2="69.0455" gradientUnits="userSpaceOnUse">
<stop stop-color="#444B8C"/>
<stop offset="0.9964" stop-color="#26264F"/>
</linearGradient>
<linearGradient id="paint20_linear" x1="206.591" y1="190.47" x2="304.542" y2="300.758" gradientUnits="userSpaceOnUse">
<stop stop-color="#FFC444"/>
<stop offset="0.9964" stop-color="#F36F56"/>
</linearGradient>
<linearGradient id="paint21_linear" x1="166.268" y1="234.71" x2="291.255" y2="313.044" gradientUnits="userSpaceOnUse">
<stop stop-color="#FFC444"/>
<stop offset="0.9964" stop-color="#F36F56"/>
</linearGradient>
<linearGradient id="paint22_linear" x1="121.183" y1="30.5865" x2="122.652" y2="42.1535" gradientUnits="userSpaceOnUse">
<stop stop-color="#311944"/>
<stop offset="1" stop-color="#A03976"/>
</linearGradient>
<linearGradient id="paint23_linear" x1="130.044" y1="34.2706" x2="174.126" y2="76.875" gradientUnits="userSpaceOnUse">
<stop stop-color="#FFC444"/>
<stop offset="0.9964" stop-color="#F36F56"/>
</linearGradient>
<linearGradient id="paint24_linear" x1="156.229" y1="156.331" x2="145.965" y2="167.452" gradientUnits="userSpaceOnUse">
<stop stop-color="#311944"/>
<stop offset="1" stop-color="#A03976"/>
</linearGradient>
<linearGradient id="paint25_linear" x1="125.446" y1="39.0275" x2="169.518" y2="81.6226" gradientUnits="userSpaceOnUse">
<stop stop-color="#FFC444"/>
<stop offset="0.9964" stop-color="#F36F56"/>
</linearGradient>
<linearGradient id="paint26_linear" x1="129.512" y1="121.112" x2="176.236" y2="148.643" gradientUnits="userSpaceOnUse">
<stop stop-color="#444B8C"/>
<stop offset="0.9964" stop-color="#3E4177"/>
</linearGradient>
<linearGradient id="paint27_linear" x1="162.652" y1="74.576" x2="239.408" y2="119.801" gradientUnits="userSpaceOnUse">
<stop stop-color="#FFC444"/>
<stop offset="0.9964" stop-color="#F36F56"/>
</linearGradient>
<linearGradient id="paint28_linear" x1="190.274" y1="61.2917" x2="185.624" y2="65.0485" gradientUnits="userSpaceOnUse">
<stop stop-color="#311944"/>
<stop offset="1" stop-color="#A03976"/>
</linearGradient>
<linearGradient id="paint29_linear" x1="154.387" y1="88.6034" x2="231.143" y2="133.828" gradientUnits="userSpaceOnUse">
<stop stop-color="#FFC444"/>
<stop offset="0.9964" stop-color="#F36F56"/>
</linearGradient>
<linearGradient id="paint30_linear" x1="193.254" y1="54.8255" x2="182.676" y2="58.8009" gradientUnits="userSpaceOnUse">
<stop stop-color="#311944"/>
<stop offset="1" stop-color="#A03976"/>
</linearGradient>
<linearGradient id="paint31_linear" x1="314.63" y1="-19.2086" x2="216.68" y2="89.2896" gradientUnits="userSpaceOnUse">
<stop stop-color="#FF9085"/>
<stop offset="1" stop-color="#FB6FBB"/>
</linearGradient>
<linearGradient id="paint32_linear" x1="241.745" y1="84.9446" x2="240.807" y2="79.9804" gradientUnits="userSpaceOnUse">
<stop stop-color="#311944"/>
<stop offset="1" stop-color="#A03976"/>
</linearGradient>
</defs>
</svg>
