<svg width="50" height="50" viewBox="0 0 50 50" fill="none" xmlns="http://www.w3.org/2000/svg">
<g clip-path="url(#clip0)">
<path d="M35.6565 16.7708C35.0592 16.9295 34.5224 17.2617 34.1139 17.7255C33.7054 18.1893 33.4436 18.7638 33.3616 19.3763C33.2796 19.9889 33.3811 20.612 33.6532 21.1669C33.9253 21.7218 34.3558 22.1836 34.8903 22.4938C35.4249 22.804 36.0394 22.9488 36.6562 22.9098C37.273 22.8708 37.8643 22.6498 38.3555 22.2747C38.8467 21.8996 39.2157 21.3873 39.4157 20.8026C39.6158 20.2178 39.638 19.5869 39.4795 18.9895C39.3742 18.5928 39.1918 18.2207 38.9427 17.8945C38.6936 17.5682 38.3826 17.2943 38.0276 17.0882C37.6726 16.8822 37.2805 16.7481 36.8737 16.6937C36.4668 16.6392 36.0533 16.6654 35.6565 16.7708Z" fill="#F2994A"/>
<path d="M25.2396 10.5208C24.6423 10.6795 24.1054 11.0117 23.6969 11.4755C23.2884 11.9393 23.0266 12.5138 22.9446 13.1263C22.8626 13.7389 22.9641 14.362 23.2362 14.9169C23.5083 15.4718 23.9388 15.9336 24.4734 16.2438C25.0079 16.554 25.6224 16.6988 26.2392 16.6598C26.856 16.6208 27.4473 16.3998 27.9385 16.0247C28.4297 15.6496 28.7987 15.1373 28.9987 14.5526C29.1988 13.9678 29.221 13.3369 29.0625 12.7395C28.9572 12.3428 28.7748 11.9707 28.5257 11.6445C28.2766 11.3182 27.9656 11.0443 27.6106 10.8382C27.2556 10.6322 26.8635 10.4981 26.4567 10.4437C26.0498 10.3892 25.6363 10.4154 25.2396 10.5208Z" fill="#F2994A"/>
<path d="M14.823 16.7708C14.2257 16.9295 13.6889 17.2617 13.2804 17.7255C12.8719 18.1893 12.6101 18.7638 12.5281 19.3763C12.4461 19.9889 12.5476 20.612 12.8197 21.1669C13.0918 21.7218 13.5223 22.1836 14.0568 22.4938C14.5914 22.804 15.2059 22.9488 15.8227 22.9098C16.4395 22.8708 17.0308 22.6498 17.522 22.2747C18.0132 21.8996 18.3822 21.3873 18.5822 20.8026C18.7823 20.2178 18.8045 19.5869 18.646 18.9895C18.5407 18.5928 18.3583 18.2207 18.1092 17.8945C17.8601 17.5682 17.5491 17.2943 17.1941 17.0882C16.8391 16.8822 16.447 16.7481 16.0402 16.6937C15.6333 16.6392 15.2197 16.6654 14.823 16.7708Z" fill="#F2994A"/>
<path d="M14.823 29.2708C14.2257 29.4295 13.6889 29.7617 13.2804 30.2255C12.8719 30.6893 12.6101 31.2638 12.5281 31.8763C12.4461 32.4889 12.5476 33.112 12.8197 33.6669C13.0918 34.2218 13.5223 34.6836 14.0568 34.9938C14.5914 35.304 15.2059 35.4488 15.8227 35.4098C16.4395 35.3708 17.0308 35.1498 17.522 34.7747C18.0132 34.3996 18.3822 33.8873 18.5822 33.3026C18.7823 32.7178 18.8045 32.0869 18.646 31.4895C18.5407 31.0928 18.3583 30.7207 18.1092 30.3945C17.8601 30.0682 17.5491 29.7943 17.1941 29.5882C16.8391 29.3822 16.447 29.2481 16.0402 29.1937C15.6333 29.1392 15.2197 29.1654 14.823 29.2708Z" fill="#F2994A"/>
<path d="M26.0416 0.0146117C22.6874 -0.102017 19.3441 0.457924 16.2109 1.66105C13.0778 2.86418 10.2189 4.68586 7.80486 7.0175C5.3908 9.34913 3.47093 12.143 2.15971 15.2325C0.848498 18.3219 0.172782 21.6438 0.172852 25C0.180571 31.6281 2.81697 37.9824 7.50371 42.6692C12.1904 47.3559 18.5448 49.9923 25.1729 50C25.877 50 26.5687 49.9542 27.2562 49.8959C27.7778 49.8519 28.2638 49.6131 28.6174 49.2271C28.9711 48.8411 29.1664 48.336 29.1645 47.8125L29.0979 40.3375C29.081 38.8604 29.5047 37.4117 30.315 36.1765C31.1253 34.9414 32.2853 33.9757 33.647 33.4029C35.0086 32.83 36.5101 32.676 37.9597 32.9605C39.4093 33.245 40.7412 33.9551 41.7853 35L41.9937 35.2084C42.4666 35.6853 43.0525 36.035 43.6969 36.2248C44.3412 36.4145 45.0231 36.4383 45.6791 36.2938C46.3245 36.1583 46.9255 35.8627 47.4268 35.4343C47.9281 35.0058 48.3136 34.4581 48.5478 33.8417C49.6981 30.8215 50.2479 27.6058 50.1666 24.375C49.9321 18.0292 47.3221 12.0031 42.8537 7.49113C38.3853 2.97916 32.3848 0.310679 26.0416 0.0146117ZM44.7541 32.0979L44.7249 32.0688C43.0965 30.443 41.0212 29.3384 38.7632 28.8955C36.5052 28.4526 34.1664 28.6914 32.0445 29.5815C29.9226 30.4716 28.1134 31.9728 26.847 33.8941C25.5807 35.8153 24.9146 38.0699 24.9333 40.3709L24.9833 45.8334C19.4579 45.8085 14.1688 43.5897 10.2793 39.6651C6.38991 35.7405 4.21882 30.4316 4.24368 24.9063C4.26855 19.3809 6.48733 14.0918 10.4119 10.2023C14.3365 6.31292 19.6454 4.14183 25.1708 4.16669C25.4145 4.16669 25.6604 4.1667 25.9062 4.17919C31.1903 4.42739 36.1884 6.65157 39.91 10.411C43.6316 14.1704 45.8052 19.1907 45.9999 24.4771C46.0687 27.0679 45.6482 29.6484 44.7603 32.0834L44.7541 32.0979Z" fill="#F2994A"/>
</g>
<defs>
<clipPath id="clip0">
<rect width="50" height="50" fill="white"/>
</clipPath>
</defs>
</svg>
