<svg width="38" height="50" viewBox="0 0 38 50" fill="none" xmlns="http://www.w3.org/2000/svg">
<path d="M34.4479 6.50421L30.9979 3.05004C30.0326 2.07986 28.8845 1.31075 27.6201 0.787217C26.3556 0.263686 24.9998 -0.00386665 23.6313 4.22197e-05H10.4167C7.65501 0.00335026 5.00741 1.10188 3.05463 3.05467C1.10184 5.00745 0.00330804 7.65505 0 10.4167V39.5834C0.00330804 42.345 1.10184 44.9926 3.05463 46.9454C5.00741 48.8982 7.65501 49.9967 10.4167 50H27.0833C29.845 49.9967 32.4926 48.8982 34.4454 46.9454C36.3982 44.9926 37.4967 42.345 37.5 39.5834V13.8688C37.5034 12.5004 37.2353 11.145 36.7115 9.88086C36.1876 8.61674 35.4182 7.46906 34.4479 6.50421ZM31.5021 9.45004C31.7976 9.74446 32.0622 10.0684 32.2917 10.4167H27.0833V5.20838C27.4311 5.44029 27.7556 5.70542 28.0521 6.00004L31.5021 9.45004ZM33.3333 39.5834C33.3333 41.241 32.6749 42.8307 31.5028 44.0028C30.3307 45.1749 28.7409 45.8334 27.0833 45.8334H10.4167C8.75906 45.8334 7.16935 45.1749 5.99725 44.0028C4.82515 42.8307 4.16667 41.241 4.16667 39.5834V10.4167C4.16667 8.75911 4.82515 7.16939 5.99725 5.99729C7.16935 4.82519 8.75906 4.16671 10.4167 4.16671H22.9167V10.4167C22.9167 11.5218 23.3557 12.5816 24.1371 13.363C24.9185 14.1444 25.9783 14.5834 27.0833 14.5834H33.3333V39.5834ZM27.0833 18.75C27.6359 18.75 28.1658 18.9695 28.5565 19.3602C28.9472 19.7509 29.1667 20.2808 29.1667 20.8334C29.1667 21.3859 28.9472 21.9158 28.5565 22.3065C28.1658 22.6972 27.6359 22.9167 27.0833 22.9167H10.4167C9.86413 22.9167 9.33423 22.6972 8.94353 22.3065C8.55283 21.9158 8.33333 21.3859 8.33333 20.8334C8.33333 20.2808 8.55283 19.7509 8.94353 19.3602C9.33423 18.9695 9.86413 18.75 10.4167 18.75H27.0833ZM29.1667 29.1667C29.1667 29.7192 28.9472 30.2491 28.5565 30.6398C28.1658 31.0306 27.6359 31.25 27.0833 31.25H10.4167C9.86413 31.25 9.33423 31.0306 8.94353 30.6398C8.55283 30.2491 8.33333 29.7192 8.33333 29.1667C8.33333 28.6142 8.55283 28.0843 8.94353 27.6936C9.33423 27.3029 9.86413 27.0834 10.4167 27.0834H27.0833C27.6359 27.0834 28.1658 27.3029 28.5565 27.6936C28.9472 28.0843 29.1667 28.6142 29.1667 29.1667ZM28.7667 36.2771C29.0905 36.7227 29.2248 37.2783 29.14 37.8225C29.0553 38.3668 28.7585 38.8553 28.3146 39.1813C26.2038 40.6854 23.7038 41.5484 21.1146 41.6667C19.6018 41.6594 18.135 41.146 16.9479 40.2084C16.2646 39.7396 16.0042 39.5834 15.4896 39.5834C14.0967 39.7989 12.7825 40.3685 11.6729 41.2375C11.2328 41.5513 10.688 41.6817 10.1535 41.6013C9.61906 41.5208 9.13677 41.2358 8.80851 40.8064C8.48025 40.377 8.33171 39.8369 8.39427 39.3C8.45682 38.7632 8.72556 38.2716 9.14375 37.9292C10.9795 36.5041 13.1839 35.6324 15.4979 35.4167C16.8857 35.4389 18.2273 35.9186 19.3146 36.7813C19.8102 37.2271 20.4483 37.4818 21.1146 37.5C22.8181 37.3724 24.4562 36.7904 25.8583 35.8146C26.3054 35.4906 26.8629 35.3572 27.4082 35.4439C27.9536 35.5307 28.4422 35.8303 28.7667 36.2771Z" fill="#F2994A"/>
</svg>
