<svg width="124" height="18" viewBox="0 0 124 18" fill="none" xmlns="http://www.w3.org/2000/svg">
<path d="M49.4304 0C47.2421 0 45.2557 0.808011 43.909 2.1547C42.7643 0.774344 41.081 0 39.0273 0C37.2429 0 35.6606 0.606009 34.4822 1.64969C34.0782 0.639675 33.1355 0 31.9572 0C30.3412 0 29.1292 1.24568 29.1292 2.92904V14.7125C29.1292 16.3959 30.3748 17.6416 32.0245 17.6416C33.6742 17.6416 34.9199 16.3959 34.9199 14.7125V7.70978C34.9199 6.19475 35.8289 5.21841 37.2429 5.21841C38.6906 5.21841 39.6333 6.19475 39.6333 7.70978V14.7125C39.6333 16.3959 40.879 17.6416 42.5287 17.6416C44.1784 17.6416 45.424 16.3959 45.424 14.7125V7.70978C45.424 6.19475 46.3331 5.21841 47.7471 5.21841C49.1948 5.21841 50.1374 6.19475 50.1374 7.70978V14.7125C50.1374 16.3959 51.3831 17.6416 53.0328 17.6416C54.6825 17.6416 55.9282 16.3959 55.9282 14.7125V6.8681C55.9282 2.6597 53.4032 0 49.4304 0Z" fill="white"/>
<path d="M67.3995 0C65.5815 0 63.9318 0.639675 62.7534 1.68336C62.3158 0.673343 61.3731 0 60.1947 0C58.5787 0 57.3667 1.24568 57.3667 2.92904V14.7125C57.3667 16.3959 58.6124 17.6416 60.2621 17.6416C61.9118 17.6416 63.1574 16.3959 63.1574 14.7125V7.70978C63.1574 6.22842 64.1338 5.21841 65.5815 5.21841C67.0292 5.21841 68.0392 6.22842 68.0392 7.70978V14.7125C68.0392 16.3959 69.2849 17.6416 70.9346 17.6416C72.5842 17.6416 73.8299 16.3959 73.8299 14.7125V6.8681C73.8299 2.69337 71.3049 0 67.3995 0Z" fill="white"/>
<path d="M10.5052 4.5113C9.73334 3.04243 10.2844 1.21855 11.736 0.437538C13.1876 -0.343471 14.9901 0.214146 15.7619 1.68301L20.8373 11.3419C21.262 12.1503 22.1991 12.5334 23.0595 12.2505C23.3071 12.1691 23.5378 12.4122 23.4455 12.6584C23.1177 13.5327 22.5268 15.0923 22.2974 15.5926C21.9725 16.3013 21.5938 17.2083 20.7788 17.6468C19.3272 18.4278 17.5248 17.8702 16.7529 16.4013L10.5052 4.5113Z" fill="white"/>
<path d="M0.349032 4.5113C-0.422798 3.04243 0.128266 1.21855 1.57987 0.437538C3.03147 -0.343471 4.83392 0.214146 5.60575 1.68301L11.8535 13.5731C12.6253 15.0419 12.0743 16.8658 10.6227 17.6468C9.17106 18.4278 7.36861 17.8702 6.59678 16.4013L0.349032 4.5113Z" fill="white"/>
<path d="M27 3.0122C27 4.67579 25.6672 6.0244 24.0232 6.0244C22.3792 6.0244 21.0464 4.67579 21.0464 3.0122C21.0464 1.34861 22.3792 0 24.0232 0C25.6672 0 27 1.34861 27 3.0122Z" fill="white"/>
<path fill-rule="evenodd" clip-rule="evenodd" d="M81.9348 0C78.6075 0 75.9102 2.69732 75.9102 6.02464V14.8844C75.9102 16.4502 77.1795 17.7195 78.7453 17.7195H120.563C122.129 17.7195 123.399 16.4502 123.399 14.8844V2.83513C123.399 1.26933 122.129 0 120.563 0H81.9348ZM112.298 4.3456C112.298 3.4775 112.942 2.8351 113.796 2.8351C114.667 2.8351 115.294 3.4775 115.294 4.3456V9.13418C115.351 9.05837 115.414 8.97885 115.486 8.89447L117.838 6.25543C118.116 5.94292 118.465 5.78666 118.866 5.78666C119.632 5.80402 120.207 6.37697 120.207 7.12354C120.207 7.47078 120.05 7.83538 119.771 8.13054L118.012 10.0404L119.876 12.6447C120.102 12.9572 120.207 13.235 120.207 13.5302C120.207 14.2941 119.615 14.8844 118.866 14.8844C118.395 14.8844 118.064 14.7281 117.803 14.3809L115.399 11.0821C115.361 11.031 115.326 10.9819 115.294 10.9345V13.3739C115.294 14.242 114.65 14.8844 113.796 14.8844C112.942 14.8844 112.298 14.242 112.298 13.3739V4.3456ZM94.7979 5.78666C94.2405 5.78666 93.7527 6.08181 93.5088 6.56795L91.7492 10.1793L90.4078 6.93256C90.0942 6.16862 89.6064 5.78666 88.9619 5.78666C88.3173 5.78666 87.8295 6.16862 87.5159 6.93256L86.1745 10.1793L84.4149 6.56795C84.171 6.08181 83.6832 5.78666 83.1258 5.78666C82.3244 5.78666 81.6798 6.42906 81.6798 7.22771C81.6798 7.48814 81.7495 7.74857 81.8714 8.02637L84.7459 13.9468C85.0421 14.5545 85.5125 14.8844 86.1048 14.8844C86.6971 14.8844 87.1675 14.5545 87.4636 13.9468L88.9619 10.7349L90.4601 13.9468C90.7562 14.5545 91.2266 14.8844 91.8189 14.8844C92.4112 14.8844 92.8816 14.5545 93.1778 13.9468L96.0523 8.02637C96.1742 7.74857 96.2439 7.48814 96.2439 7.22771C96.2439 6.42906 95.5993 5.78666 94.7979 5.78666ZM81.0837 14.8844C82.1986 14.8844 83.0174 14.0337 83.0174 12.9398C83.0174 11.8634 82.1986 10.9953 81.0837 10.9953C79.9165 10.9953 79.0977 11.8634 79.0977 12.9398C79.0977 14.0337 79.9165 14.8844 81.0837 14.8844ZM95.962 10.3355C95.962 7.7833 98.0352 5.78666 100.701 5.78666C103.366 5.78666 105.457 7.80066 105.457 10.3355C105.457 12.8704 103.366 14.8844 100.701 14.8844C98.0352 14.8844 95.962 12.8878 95.962 10.3355ZM102.39 10.3355C102.39 9.2938 101.676 8.52987 100.718 8.52987C99.725 8.52987 99.0282 9.25908 99.0282 10.3355C99.0282 11.412 99.7076 12.1412 100.718 12.1412C101.694 12.1412 102.39 11.3773 102.39 10.3355ZM110.603 5.85611C109.906 5.85611 109.262 6.20335 108.774 6.79366C108.582 6.18599 108.06 5.78666 107.398 5.78666C106.561 5.78666 105.934 6.42906 105.934 7.29716V13.3739C105.934 14.242 106.579 14.8844 107.433 14.8844C108.286 14.8844 108.931 14.242 108.931 13.3739V10.7175C108.931 9.46742 109.453 8.80766 110.533 8.6514C111.387 8.52987 111.91 7.99164 111.91 7.19299C111.91 6.39433 111.37 5.85611 110.603 5.85611Z" fill="white"/>
<path fill-rule="evenodd" clip-rule="evenodd" d="M81.9348 0C78.6075 0 75.9102 2.69732 75.9102 6.02464V14.8844C75.9102 16.4502 77.1795 17.7195 78.7453 17.7195H120.563C122.129 17.7195 123.399 16.4502 123.399 14.8844V2.83513C123.399 1.26933 122.129 0 120.563 0H81.9348ZM112.298 4.3456C112.298 3.4775 112.942 2.8351 113.796 2.8351C114.667 2.8351 115.294 3.4775 115.294 4.3456V9.13418C115.351 9.05837 115.414 8.97885 115.486 8.89447L117.838 6.25543C118.116 5.94292 118.465 5.78666 118.866 5.78666C119.632 5.80402 120.207 6.37697 120.207 7.12354C120.207 7.47078 120.05 7.83538 119.771 8.13054L118.012 10.0404L119.876 12.6447C120.102 12.9572 120.207 13.235 120.207 13.5302C120.207 14.2941 119.615 14.8844 118.866 14.8844C118.395 14.8844 118.064 14.7281 117.803 14.3809L115.399 11.0821C115.361 11.031 115.326 10.9819 115.294 10.9345V13.3739C115.294 14.242 114.65 14.8844 113.796 14.8844C112.942 14.8844 112.298 14.242 112.298 13.3739V4.3456ZM94.7979 5.78666C94.2405 5.78666 93.7527 6.08181 93.5088 6.56795L91.7492 10.1793L90.4078 6.93256C90.0942 6.16862 89.6064 5.78666 88.9619 5.78666C88.3173 5.78666 87.8295 6.16862 87.5159 6.93256L86.1745 10.1793L84.4149 6.56795C84.171 6.08181 83.6832 5.78666 83.1258 5.78666C82.3244 5.78666 81.6798 6.42906 81.6798 7.22771C81.6798 7.48814 81.7495 7.74857 81.8714 8.02637L84.7459 13.9468C85.0421 14.5545 85.5125 14.8844 86.1048 14.8844C86.6971 14.8844 87.1675 14.5545 87.4636 13.9468L88.9619 10.7349L90.4601 13.9468C90.7562 14.5545 91.2266 14.8844 91.8189 14.8844C92.4112 14.8844 92.8816 14.5545 93.1778 13.9468L96.0523 8.02637C96.1742 7.74857 96.2439 7.48814 96.2439 7.22771C96.2439 6.42906 95.5993 5.78666 94.7979 5.78666ZM81.0837 14.8844C82.1986 14.8844 83.0174 14.0337 83.0174 12.9398C83.0174 11.8634 82.1986 10.9953 81.0837 10.9953C79.9165 10.9953 79.0977 11.8634 79.0977 12.9398C79.0977 14.0337 79.9165 14.8844 81.0837 14.8844ZM95.962 10.3355C95.962 7.7833 98.0352 5.78666 100.701 5.78666C103.366 5.78666 105.457 7.80066 105.457 10.3355C105.457 12.8704 103.366 14.8844 100.701 14.8844C98.0352 14.8844 95.962 12.8878 95.962 10.3355ZM102.39 10.3355C102.39 9.2938 101.676 8.52987 100.718 8.52987C99.725 8.52987 99.0282 9.25908 99.0282 10.3355C99.0282 11.412 99.7076 12.1412 100.718 12.1412C101.694 12.1412 102.39 11.3773 102.39 10.3355ZM110.603 5.85611C109.906 5.85611 109.262 6.20335 108.774 6.79366C108.582 6.18599 108.06 5.78666 107.398 5.78666C106.561 5.78666 105.934 6.42906 105.934 7.29716V13.3739C105.934 14.242 106.579 14.8844 107.433 14.8844C108.286 14.8844 108.931 14.242 108.931 13.3739V10.7175C108.931 9.46742 109.453 8.80766 110.533 8.6514C111.387 8.52987 111.91 7.99164 111.91 7.19299C111.91 6.39433 111.37 5.85611 110.603 5.85611Z" fill="white"/>
</svg>
