<svg width="24" height="24" viewBox="0 0 24 24" fill="none" xmlns="http://www.w3.org/2000/svg">
<path fill-rule="evenodd" clip-rule="evenodd" d="M2.40002 11.6009C2.51849 6.41343 6.81171 2.29948 12 2.40177C17.1883 2.29948 21.4816 6.41343 21.6 11.6009C21.4816 16.7883 17.1883 20.9023 12 20.8C10.7838 20.8024 9.57756 20.5809 8.44161 20.1465L6.21201 21.5391C6.14845 21.5788 6.07499 21.5999 6.00002 21.5999C5.77911 21.5999 5.60001 21.4208 5.60001 21.1999V18.4482C3.58292 16.7437 2.41356 14.2415 2.40002 11.6009ZM17.808 8.84912C17.9828 8.75388 18.201 8.80161 18.32 8.96112C18.4397 9.1198 18.4247 9.34227 18.2848 9.48344L13.4848 14.283C13.337 14.4308 13.1003 14.4398 12.9416 14.3038L10.3513 12.084L6.19127 14.3518C6.03599 14.436 5.84387 14.4084 5.71859 14.2839C5.56187 14.1282 5.56112 13.8749 5.71686 13.7182L10.5169 8.91871C10.6646 8.7709 10.9013 8.76186 11.06 8.8979L13.648 11.1169L17.808 8.84912Z" fill="#1C77ED"/>
</svg>
