<svg width="24" height="24" viewBox="0 0 24 24" fill="none" xmlns="http://www.w3.org/2000/svg">
<path d="M2.73928 11.6555L7.16335 13.3149L8.87573 18.8494C8.9853 19.2038 9.4166 19.3348 9.70287 19.0996L12.1689 17.0793C12.4274 16.8676 12.7956 16.857 13.0658 17.0541L17.5136 20.2994C17.8199 20.5231 18.2537 20.3545 18.3305 19.9826L21.5888 4.23156C21.6727 3.82533 21.2755 3.48643 20.8906 3.63604L2.73409 10.6751C2.28603 10.8488 2.28993 11.4863 2.73928 11.6555ZM8.59976 12.4316L17.246 7.07984C17.4014 6.98395 17.5613 7.1951 17.4279 7.3195L10.2922 13.9855C10.0414 14.2201 9.87957 14.5341 9.83375 14.8749L9.59068 16.6852C9.55848 16.9269 9.22063 16.9509 9.15426 16.717L8.21941 13.4159C8.11234 13.0393 8.26837 12.6372 8.59976 12.4316Z" fill="#1686D3"/>
</svg>
