<svg width="24" height="24" viewBox="0 0 24 24" fill="none" xmlns="http://www.w3.org/2000/svg">
<path d="M18.8238 10.4569C18.8468 7.74995 16.5413 5.26838 13.6844 4.92522C13.6275 4.91848 13.5657 4.90823 13.5001 4.89738C13.3587 4.87394 13.2124 4.84985 13.0648 4.84985C12.4793 4.84985 12.3228 5.26116 12.2816 5.50647C12.2415 5.74498 12.2797 5.94527 12.395 6.10203C12.5889 6.3657 12.9301 6.41251 13.2041 6.45001C13.2844 6.4611 13.3602 6.47142 13.4237 6.48567C15.9905 7.05923 16.8548 7.96097 17.2772 10.506C17.2875 10.5682 17.2922 10.6448 17.2971 10.7261C17.3156 11.0303 17.354 11.6632 18.0344 11.6632H18.0345C18.0911 11.6632 18.152 11.6583 18.2154 11.6487C18.8491 11.5524 18.8292 10.9738 18.8197 10.6958C18.817 10.6175 18.8144 10.5435 18.821 10.4942C18.8228 10.4818 18.8237 10.4694 18.8238 10.4569Z" fill="#7360ED"/>
<path d="M12.8986 3.93161C12.9746 3.9371 13.0466 3.94234 13.1065 3.95153C17.3215 4.59974 19.26 6.59678 19.7972 10.8447C19.8063 10.917 19.8077 11.005 19.8092 11.0983C19.8146 11.4302 19.8256 12.1206 20.5671 12.1349L20.5901 12.1351C20.8226 12.1351 21.0076 12.065 21.1399 11.9266C21.3707 11.6851 21.3546 11.3265 21.3416 11.0382C21.3385 10.9675 21.3354 10.9009 21.3362 10.8426C21.3898 6.49803 17.6291 2.55839 13.2884 2.41189C13.2704 2.41129 13.2532 2.41225 13.2359 2.41469C13.2273 2.41594 13.2115 2.41749 13.1845 2.41749C13.1412 2.41749 13.0879 2.41374 13.0315 2.40992C12.9632 2.40527 12.8858 2.3999 12.8073 2.3999C12.1161 2.3999 11.9846 2.89123 11.9678 3.18412C11.9291 3.86101 12.5839 3.90865 12.8986 3.93161Z" fill="#7360ED"/>
<path d="M19.5938 16.335C19.5041 16.2666 19.4115 16.1957 19.3247 16.1258C18.8645 15.7555 18.3749 15.4141 17.9014 15.084C17.8032 15.0155 17.7049 14.947 17.607 14.8783C17.0005 14.4523 16.4552 14.2453 15.94 14.2453C15.2461 14.2453 14.6411 14.6287 14.1418 15.3847C13.9206 15.7198 13.6522 15.8828 13.3214 15.8828C13.1259 15.8828 12.9036 15.827 12.661 15.7169C10.7033 14.8291 9.30531 13.4679 8.50588 11.6711C8.11944 10.8027 8.24471 10.2351 8.92482 9.77308C9.31103 9.51096 10.0299 9.02297 9.97898 8.08849C9.92132 7.0273 7.57987 3.83431 6.59334 3.47166C6.17565 3.31806 5.73679 3.31663 5.2866 3.46808C4.15249 3.84934 3.33864 4.5189 2.93281 5.40424C2.54064 6.25972 2.55835 7.2642 2.98403 8.30911C4.21462 11.3302 5.94477 13.9642 8.12659 16.1378C10.2622 18.2655 12.8871 20.0084 15.9282 21.3179C16.2023 21.4358 16.4898 21.5002 16.6998 21.5471C16.7713 21.5632 16.8331 21.5769 16.8781 21.5893C16.9028 21.596 16.9284 21.5996 16.9539 21.5999L16.978 21.6C16.978 21.6 16.978 21.6 16.9781 21.6C18.4084 21.6 20.1259 20.293 20.6533 18.8029C21.1155 17.4981 20.2717 16.8532 19.5938 16.335Z" fill="#7360ED"/>
<path d="M13.5312 7.3826C13.2863 7.3888 12.7767 7.40144 12.5979 7.9205C12.5142 8.16306 12.5242 8.37367 12.6277 8.54647C12.7795 8.8 13.0704 8.8777 13.3349 8.92033C14.2944 9.07429 14.7871 9.60486 14.8857 10.5899C14.9315 11.0492 15.2408 11.3699 15.6379 11.3699H15.638C15.6673 11.3699 15.6973 11.3682 15.7272 11.3646C16.2048 11.3078 16.4363 10.9568 16.4154 10.3217C16.423 9.65882 16.0761 8.90626 15.4861 8.30683C14.8941 7.70554 14.1804 7.36692 13.5312 7.3826Z" fill="#7360ED"/>
</svg>
