<svg width="24" height="24" viewBox="0 0 24 24" fill="none" xmlns="http://www.w3.org/2000/svg">
<g clip-path="url(#clip0)">
<path fill-rule="evenodd" clip-rule="evenodd" d="M20.6553 13.8448C21.4514 14.622 22.2917 15.3533 23.0057 16.209C23.3211 16.5892 23.6197 16.9816 23.8482 17.4228C24.1719 18.0501 23.8787 18.7404 23.3162 18.7779L19.8198 18.7763C18.9181 18.8511 18.1987 18.4881 17.5938 17.8715C17.1097 17.3784 16.6614 16.8537 16.1959 16.344C16.0051 16.1356 15.8054 15.9396 15.5668 15.7846C15.0895 15.4748 14.6752 15.5697 14.4024 16.0675C14.1246 16.5738 14.0616 17.1345 14.0343 17.6987C13.9969 18.5221 13.748 18.7385 12.921 18.7762C11.1535 18.8596 9.47616 18.5922 7.91793 17.7006C6.54414 16.9145 5.47882 15.8049 4.55158 14.5487C2.74621 12.1026 1.36367 9.41466 0.121086 6.65146C-0.158609 6.02891 0.0459382 5.69472 0.732835 5.68289C1.87346 5.66074 3.01392 5.66231 4.15589 5.68132C4.61947 5.6881 4.92637 5.95399 5.10537 6.39195C5.72248 7.90934 6.47758 9.353 7.42541 10.6911C7.67782 11.0474 7.9352 11.4037 8.30171 11.6544C8.70718 11.9321 9.01589 11.8401 9.20664 11.3884C9.32768 11.102 9.38067 10.7935 9.40796 10.4868C9.49832 9.43146 9.51023 8.37797 9.35173 7.32637C9.25443 6.67007 8.88476 6.2452 8.22988 6.12101C7.89569 6.05769 7.94545 5.93334 8.10726 5.74259C8.3883 5.41361 8.65261 5.20882 9.17952 5.20882H13.131C13.753 5.3316 13.8912 5.61106 13.9764 6.237L13.9798 10.6263C13.973 10.8686 14.1008 11.5876 14.5372 11.748C14.8866 11.8622 15.1168 11.5827 15.3264 11.3612C16.2725 10.3571 16.9477 9.17045 17.551 7.94167C17.8187 7.40136 18.0489 6.84023 18.2719 6.27958C18.4372 5.86355 18.6966 5.65884 19.1652 5.66791L22.9682 5.6713C23.081 5.6713 23.1951 5.67296 23.3043 5.69165C23.9452 5.80086 24.1208 6.07653 23.9228 6.70232C23.611 7.68413 23.0042 8.50232 22.4109 9.32429C21.7767 10.2019 21.0984 11.0494 20.4694 11.9322C19.8916 12.7383 19.9375 13.1446 20.6553 13.8448Z" fill="#2A87F0"/>
</g>
<defs>
<clipPath id="clip0">
<rect width="24" height="24" fill="white"/>
</clipPath>
</defs>
</svg>
