<svg width="108" height="16" viewBox="0 0 108 16" fill="none" xmlns="http://www.w3.org/2000/svg">
<g opacity="0.6">
<path d="M43.2632 0C41.3479 0 39.6094 0.707198 38.4307 1.88586C37.4288 0.677731 35.9555 0 34.158 0C32.5963 0 31.2114 0.530399 30.1801 1.44386C29.8265 0.559865 29.0014 0 27.9701 0C26.5557 0 25.4949 1.09026 25.4949 2.56359V12.8769C25.4949 14.3502 26.5851 15.4405 28.029 15.4405C29.4729 15.4405 30.5631 14.3502 30.5631 12.8769V6.74785C30.5631 5.42185 31.3587 4.56732 32.5963 4.56732C33.8634 4.56732 34.6884 5.42185 34.6884 6.74785V12.8769C34.6884 14.3502 35.7787 15.4405 37.2226 15.4405C38.6664 15.4405 39.7567 14.3502 39.7567 12.8769V6.74785C39.7567 5.42185 40.5523 4.56732 41.7899 4.56732C43.057 4.56732 43.882 5.42185 43.882 6.74785V12.8769C43.882 14.3502 44.9723 15.4405 46.4161 15.4405C47.86 15.4405 48.9503 14.3502 48.9503 12.8769V6.01118C48.9503 2.32786 46.7403 0 43.2632 0Z" fill="#ABAFBA"/>
<path d="M58.9917 0C57.4005 0 55.9567 0.559865 54.9253 1.47333C54.5423 0.589332 53.7172 0 52.6859 0C51.2715 0 50.2107 1.09026 50.2107 2.56359V12.8769C50.2107 14.3502 51.301 15.4405 52.7448 15.4405C54.1887 15.4405 55.2789 14.3502 55.2789 12.8769V6.74785C55.2789 5.45132 56.1335 4.56732 57.4005 4.56732C58.6676 4.56732 59.5516 5.45132 59.5516 6.74785V12.8769C59.5516 14.3502 60.6419 15.4405 62.0857 15.4405C63.5296 15.4405 64.6199 14.3502 64.6199 12.8769V6.01118C64.6199 2.35733 62.4099 0 58.9917 0Z" fill="#ABAFBA"/>
<path d="M9.19447 3.94843C8.51894 2.66284 9.00125 1.06651 10.2717 0.382948C11.5422 -0.300617 13.1198 0.187427 13.7953 1.47303L18.2375 9.92684C18.6092 10.6343 19.4293 10.9696 20.1825 10.722C20.3991 10.6508 20.6011 10.8635 20.5203 11.0791C20.2334 11.8442 19.7162 13.2093 19.5154 13.6471C19.2311 14.2675 18.8996 15.0613 18.1863 15.4451C16.9158 16.1286 15.3382 15.6406 14.6627 14.355L9.19447 3.94843Z" fill="#ABAFBA"/>
<path d="M0.305485 3.94843C-0.370047 2.66284 0.112262 1.06651 1.38275 0.382948C2.65324 -0.300617 4.2308 0.187427 4.90634 1.47303L10.3746 11.8796C11.0501 13.1652 10.5678 14.7615 9.2973 15.4451C8.02681 16.1286 6.44925 15.6406 5.77372 14.355L0.305485 3.94843Z" fill="#ABAFBA"/>
<path d="M23.6313 2.63638C23.6313 4.09241 22.4648 5.27275 21.0259 5.27275C19.587 5.27275 18.4205 4.09241 18.4205 2.63638C18.4205 1.18035 19.587 0 21.0259 0C22.4648 0 23.6313 1.18035 23.6313 2.63638Z" fill="#ABAFBA"/>
<path fill-rule="evenodd" clip-rule="evenodd" d="M71.7095 0C68.7973 0 66.4365 2.36078 66.4365 5.27296V13.0273C66.4365 14.3978 67.5475 15.5087 68.9179 15.5087H105.519C106.889 15.5087 108 14.3978 108 13.0273V2.4814C108 1.11096 106.889 0 105.519 0H71.7095ZM98.2843 3.80352C98.2843 3.04373 98.8484 2.48148 99.5955 2.48148C100.358 2.48148 100.907 3.04373 100.907 3.80352V7.99464C100.956 7.92829 101.012 7.85869 101.075 7.78484L103.133 5.47507C103.377 5.20154 103.682 5.06478 104.033 5.06478C104.703 5.07998 105.207 5.58144 105.207 6.23486C105.207 6.53878 105.069 6.85789 104.825 7.11622L103.285 8.78777L104.917 11.0672C105.115 11.3407 105.207 11.5838 105.207 11.8421C105.207 12.5108 104.688 13.0274 104.033 13.0274C103.621 13.0274 103.331 12.8907 103.102 12.5867L100.998 9.69952C100.966 9.65479 100.935 9.6118 100.907 9.57033V11.7054C100.907 12.4652 100.343 13.0274 99.5955 13.0274C98.8484 13.0274 98.2843 12.4652 98.2843 11.7054V3.80352ZM82.9678 5.06478C82.4799 5.06478 82.053 5.32311 81.8395 5.7486L80.2995 8.90934L79.1254 6.06771C78.851 5.39909 78.424 5.06478 77.8599 5.06478C77.2957 5.06478 76.8688 5.39909 76.5943 6.06771L75.4203 8.90934L73.8803 5.7486C73.6668 5.32311 73.2399 5.06478 72.7519 5.06478C72.0506 5.06478 71.4864 5.62703 71.4864 6.32604C71.4864 6.55398 71.5474 6.78191 71.6541 7.02505L74.17 12.2068C74.4292 12.7387 74.8409 13.0274 75.3593 13.0274C75.8777 13.0274 76.2894 12.7387 76.5486 12.2068L77.8599 9.3956L79.1712 12.2068C79.4304 12.7387 79.8421 13.0274 80.3605 13.0274C80.8789 13.0274 81.2906 12.7387 81.5498 12.2068L84.0656 7.02505C84.1724 6.78191 84.2334 6.55398 84.2334 6.32604C84.2334 5.62703 83.6692 5.06478 82.9678 5.06478ZM70.9646 13.0274C71.9405 13.0274 72.6571 12.2828 72.6571 11.3255C72.6571 10.3833 71.9405 9.62354 70.9646 9.62354C69.943 9.62354 69.2264 10.3833 69.2264 11.3255C69.2264 12.2828 69.943 13.0274 70.9646 13.0274ZM83.9867 9.0461C83.9867 6.81231 85.8011 5.06478 88.134 5.06478C90.4669 5.06478 92.2966 6.8275 92.2966 9.0461C92.2966 11.2647 90.4669 13.0274 88.134 13.0274C85.8011 13.0274 83.9867 11.2799 83.9867 9.0461ZM89.613 9.0461C89.613 8.13435 88.9879 7.46573 88.1493 7.46573C87.2801 7.46573 86.6702 8.10396 86.6702 9.0461C86.6702 9.98824 87.2649 10.6265 88.1493 10.6265C89.0031 10.6265 89.613 9.95785 89.613 9.0461ZM96.8011 5.12557C96.1912 5.12557 95.627 5.42948 95.2001 5.94614C95.0324 5.41429 94.5749 5.06478 93.9955 5.06478C93.2636 5.06478 92.7147 5.62703 92.7147 6.38682V11.7054C92.7147 12.4652 93.2789 13.0274 94.026 13.0274C94.7731 13.0274 95.3373 12.4652 95.3373 11.7054V9.38041C95.3373 8.28631 95.7947 7.70886 96.7401 7.5721C97.4872 7.46573 97.9446 6.99466 97.9446 6.29565C97.9446 5.59664 97.472 5.12557 96.8011 5.12557Z" fill="#ABAFBA"/>
</g>
</svg>
