<svg width="93" height="36" viewBox="0 0 93 36" fill="none" xmlns="http://www.w3.org/2000/svg">
<path d="M40.8374 9.70453H47.1294C48.6331 9.70453 49.9588 9.99473 51.1063 10.5751C52.2671 11.1423 53.1641 11.9469 53.7972 12.989C54.4436 14.0311 54.7667 15.2446 54.7667 16.6296C54.7667 18.0146 54.4436 19.2282 53.7972 20.2702C53.1641 21.3123 52.2671 22.1235 51.1063 22.7039C49.9588 23.2711 48.6331 23.5547 47.1294 23.5547H40.8374V9.70453ZM46.9711 20.9231C48.3561 20.9231 49.4575 20.5406 50.2753 19.7756C51.1063 18.9973 51.5218 17.9487 51.5218 16.6296C51.5218 15.3105 51.1063 14.2685 50.2753 13.5034C49.4575 12.7252 48.3561 12.3361 46.9711 12.3361H44.0428V20.9231H46.9711Z" fill="#2E3238"/>
<path d="M63.8123 23.7921C62.4009 23.7921 61.1214 23.4887 59.9738 22.8819C58.8394 22.262 57.9425 21.4112 57.2829 20.3296C56.6366 19.2347 56.3134 18.0014 56.3134 16.6296C56.3134 15.2578 56.6366 14.0311 57.2829 12.9494C57.9425 11.8546 58.8394 11.0038 59.9738 10.397C61.1214 9.77708 62.4075 9.4671 63.8321 9.4671C65.0324 9.4671 66.1141 9.67815 67.077 10.1003C68.0531 10.5224 68.8709 11.1291 69.5304 11.9206L67.4727 13.82C66.5361 12.7384 65.3754 12.1976 63.9904 12.1976C63.133 12.1976 62.3679 12.3888 61.6952 12.7713C61.0225 13.1407 60.4949 13.6617 60.1123 14.3344C59.743 15.0072 59.5583 15.7722 59.5583 16.6296C59.5583 17.487 59.743 18.252 60.1123 18.9248C60.4949 19.5975 61.0225 20.1251 61.6952 20.5076C62.3679 20.877 63.133 21.0616 63.9904 21.0616C65.3754 21.0616 66.5361 20.5142 67.4727 19.4194L69.5304 21.3189C68.8709 22.1235 68.0531 22.7369 67.077 23.159C66.1009 23.5811 65.0126 23.7921 63.8123 23.7921Z" fill="#2E3238"/>
<path d="M71.695 9.70453H74.9003V23.5547H71.695V9.70453Z" fill="#2E3238"/>
<path d="M46.3438 31.0469H47.4292V34.1335C47.0372 34.4576 46.5812 34.7064 46.0611 34.8797C45.5411 35.0531 44.9984 35.1398 44.433 35.1398C43.6341 35.1398 42.9142 34.9664 42.2736 34.6197C41.6329 34.2654 41.1279 33.783 40.7585 33.1725C40.3967 32.5544 40.2158 31.861 40.2158 31.0922C40.2158 30.3233 40.3967 29.6299 40.7585 29.0118C41.1279 28.3937 41.6329 27.9113 42.2736 27.5646C42.9218 27.2179 43.6491 27.0445 44.4557 27.0445C45.0888 27.0445 45.6617 27.1501 46.1742 27.3611C46.6943 27.5646 47.1352 27.8661 47.497 28.2656L46.796 28.9666C46.1629 28.3561 45.3978 28.0508 44.5009 28.0508C43.8979 28.0508 43.3552 28.1827 42.8728 28.4465C42.3979 28.7028 42.0248 29.0646 41.7535 29.5319C41.4821 29.9917 41.3464 30.5118 41.3464 31.0922C41.3464 31.665 41.4821 32.1851 41.7535 32.6524C42.0248 33.1122 42.3979 33.474 42.8728 33.7378C43.3552 34.0016 43.8941 34.1335 44.4896 34.1335C45.1981 34.1335 45.8162 33.9639 46.3438 33.6248V31.0469Z" fill="#2E3238"/>
<path d="M50.6115 27.135H51.7421V34.0657H56.0271V35.0493H50.6115V27.135Z" fill="#2E3238"/>
<path d="M61.7713 35.1398C60.9724 35.1398 60.2525 34.9664 59.6118 34.6197C58.9712 34.2654 58.4661 33.7793 58.0968 33.1612C57.735 32.5431 57.5541 31.8534 57.5541 31.0922C57.5541 30.3309 57.735 29.6412 58.0968 29.0231C58.4661 28.405 58.9712 27.9226 59.6118 27.5759C60.2525 27.2217 60.9724 27.0445 61.7713 27.0445C62.5628 27.0445 63.2788 27.2217 63.9195 27.5759C64.5602 27.9226 65.0614 28.405 65.4232 29.0231C65.785 29.6337 65.9659 30.3233 65.9659 31.0922C65.9659 31.861 65.785 32.5544 65.4232 33.1725C65.0614 33.783 64.5602 34.2654 63.9195 34.6197C63.2788 34.9664 62.5628 35.1398 61.7713 35.1398ZM61.7713 34.1335C62.3517 34.1335 62.8718 34.0016 63.3316 33.7378C63.7989 33.474 64.1645 33.1122 64.4283 32.6524C64.6996 32.1851 64.8353 31.665 64.8353 31.0922C64.8353 30.5193 64.6996 30.003 64.4283 29.5432C64.1645 29.0759 63.7989 28.7103 63.3316 28.4465C62.8718 28.1827 62.3517 28.0508 61.7713 28.0508C61.1909 28.0508 60.6633 28.1827 60.1885 28.4465C59.7211 28.7103 59.3518 29.0759 59.0804 29.5432C58.8166 30.003 58.6847 30.5193 58.6847 31.0922C58.6847 31.665 58.8166 32.1851 59.0804 32.6524C59.3518 33.1122 59.7211 33.474 60.1885 33.7378C60.6633 34.0016 61.1909 34.1335 61.7713 34.1335Z" fill="#2E3238"/>
<path d="M74.0368 30.9452C74.4966 31.0733 74.8584 31.307 75.1222 31.6462C75.386 31.9778 75.5179 32.3999 75.5179 32.9125C75.5179 33.5984 75.2579 34.126 74.7378 34.4953C74.2253 34.8647 73.4753 35.0493 72.4879 35.0493H68.7116V27.135H72.2617C73.1662 27.135 73.8635 27.3159 74.3534 27.6777C74.8509 28.0395 75.0996 28.5407 75.0996 29.1814C75.0996 29.596 75.0016 29.954 74.8057 30.2555C74.6172 30.557 74.3609 30.7869 74.0368 30.9452ZM69.8422 28.0508V30.5834H72.16C72.7404 30.5834 73.1851 30.4779 73.4941 30.2668C73.8107 30.0482 73.969 29.7316 73.969 29.3171C73.969 28.9025 73.8107 28.5897 73.4941 28.3787C73.1851 28.1601 72.7404 28.0508 72.16 28.0508H69.8422ZM72.4426 34.1335C73.0833 34.1335 73.5657 34.028 73.8898 33.817C74.214 33.6059 74.376 33.2743 74.376 32.822C74.376 31.9401 73.7316 31.4992 72.4426 31.4992H69.8422V34.1335H72.4426Z" fill="#2E3238"/>
<path d="M83.3287 33.0708H79.1228L78.2522 35.0493H77.0877L80.6717 27.135H81.791L85.3864 35.0493H84.1993L83.3287 33.0708ZM82.933 32.1663L81.2257 28.2882L79.5185 32.1663H82.933Z" fill="#2E3238"/>
<path d="M87.5846 27.135H88.7152V34.0657H93.0003V35.0493H87.5846V27.135Z" fill="#2E3238"/>
<path d="M20.1008 3.82465C17.9529 5.13119 18.8885 8.09124 17.9881 10.0742C17.1437 7.47073 18.3765 3.85302 15.7778 2.05708C13.7327 0.64379 11.1511 0.161592 9.87618 0.00281323C9.58647 -0.033239 9.3851 0.284657 9.54337 0.530009C9.96082 1.17719 10.5278 2.32947 10.6114 3.90316C10.6946 5.476 10.7912 8.38227 16.4071 8.81645C17.2413 10.3409 17.5906 20.7281 17.5906 20.7281H18.1559C18.1559 20.7281 18.3734 10.0801 19.3126 9.00058C23.6563 8.91855 23.861 6.68524 23.9962 5.47804C24.1197 4.37041 24.5404 3.55395 24.8795 3.05634C25.0419 2.8182 24.8547 2.49773 24.5674 2.5206C23.5316 2.60308 21.6502 2.88245 20.1008 3.82465Z" fill="#2E3238"/>
<path d="M7.01407 9.79874H11.3638C11.9208 9.79874 12.2838 10.3864 12.0363 10.8874L9.38899 16.2457L17.8828 35.0493L0.435569 17.3923C-0.177106 16.7722 -0.138396 15.7608 0.519863 15.1898L6.52328 9.98212C6.65965 9.86383 6.83385 9.79874 7.01407 9.79874Z" fill="#2E3238"/>
<path d="M28.4071 9.79874H24.2247C23.6716 9.79874 23.3084 10.3788 23.5482 10.8792L26.1192 16.2457L17.8828 35.0493L34.8183 17.3745C35.4088 16.7582 35.3711 15.7726 34.7351 15.2037L28.9065 9.9897C28.769 9.8667 28.5913 9.79874 28.4071 9.79874Z" fill="#2E3238"/>
<path d="M19.6634 23.6489C19.6634 26.6149 17.8733 29.0193 17.8733 29.0193C17.8733 29.0193 16.0831 26.6149 16.0831 23.6489C16.0831 20.6828 17.8733 18.2784 17.8733 18.2784C17.8733 18.2784 19.6634 20.6828 19.6634 23.6489Z" fill="#2E3238"/>
<path d="M19.6634 23.6489C19.6634 26.6149 17.8733 29.0193 17.8733 29.0193C17.8733 29.0193 16.0831 26.6149 16.0831 23.6489C16.0831 20.6828 17.8733 18.2784 17.8733 18.2784C17.8733 18.2784 19.6634 20.6828 19.6634 23.6489Z" fill="#2E3238"/>
</svg>
