<svg width="30" height="30" viewBox="0 0 30 30" fill="none" xmlns="http://www.w3.org/2000/svg">
<path d="M15.1648 3.94978C12.9398 3.94972 10.7647 4.60945 8.9147 5.84554C7.06467 7.08163 5.62272 8.83855 4.7712 10.8941C3.91969 12.9497 3.69685 15.2117 4.13086 17.3939C4.56488 19.5762 5.63626 21.5807 7.20952 23.154C8.78278 24.7274 10.7873 25.7989 12.9695 26.233C15.1517 26.6671 17.4137 26.4444 19.4693 25.593C21.5249 24.7416 23.2819 23.2997 24.5181 21.4497C25.7543 19.5998 26.4141 17.4248 26.4142 15.1998C26.4142 13.7224 26.1233 12.2596 25.558 10.8947C24.9926 9.52978 24.164 8.2896 23.1194 7.24494C22.0748 6.20029 20.8347 5.37161 19.4698 4.80622C18.105 4.24084 16.6421 3.94982 15.1648 3.94978ZM15.1647 7.32469C15.8322 7.32471 16.4847 7.52266 17.0397 7.89352C17.5947 8.26437 18.0272 8.79147 18.2826 9.40816C18.5381 10.0249 18.6049 10.7034 18.4746 11.3581C18.3444 12.0128 18.023 12.6141 17.551 13.0861C17.079 13.5581 16.4776 13.8795 15.8229 14.0097C15.1682 14.1399 14.4897 14.073 13.873 13.8176C13.2563 13.5621 12.7292 13.1295 12.3584 12.5745C11.9876 12.0195 11.7897 11.367 11.7897 10.6995C11.7897 9.80444 12.1453 8.94602 12.7782 8.31312C13.4112 7.68022 14.2696 7.32467 15.1647 7.32469ZM21.4867 19.8795C20.754 20.8661 19.8007 21.6676 18.7028 22.2197C17.605 22.7719 16.3932 23.0595 15.1643 23.0594C13.9354 23.0594 12.7236 22.7718 11.6258 22.2196C10.528 21.6673 9.57461 20.8658 8.84202 19.8792C8.73105 19.7152 8.66533 19.5248 8.65151 19.3273C8.63769 19.1298 8.67625 18.9321 8.7633 18.7542L8.99955 18.2593C9.27231 17.6811 9.70366 17.1923 10.2434 16.8498C10.7831 16.5073 11.409 16.3251 12.0483 16.3244L18.2806 16.3245C18.9112 16.3254 19.529 16.5029 20.0639 16.837C20.5987 17.171 21.0293 17.6483 21.3067 18.2146L21.5655 18.7433C21.6546 18.9226 21.6943 19.1224 21.6805 19.3221C21.6667 19.5219 21.5997 19.7143 21.4867 19.8795Z" fill="white"/>
</svg>
