<svg width="29" height="28" viewBox="0 0 29 28" fill="none" xmlns="http://www.w3.org/2000/svg">
<path d="M15.5885 18.7516L23.0861 12.7832L23.2707 12.6371C24.0284 12.0371 24.1563 10.9365 23.5563 10.1787C23.4732 10.0738 23.3784 9.97878 23.2736 9.89548L15.589 3.78345C14.9513 3.27629 14.0481 3.27627 13.4104 3.78339L5.72017 9.89923C4.96372 10.5008 4.83818 11.6017 5.43977 12.3582C5.52198 12.4615 5.61563 12.5553 5.71894 12.6376L5.90114 12.7828L13.4095 18.7523C14.0474 19.2594 14.9509 19.2592 15.5885 18.7516Z" fill="white"/>
<path fill-rule="evenodd" clip-rule="evenodd" d="M13.3981 21.7829L6.72436 16.4769C6.26892 16.1148 5.60616 16.1905 5.24406 16.646C5.24127 16.6495 5.23851 16.653 5.23577 16.6565C4.87709 17.1197 4.96177 17.7859 5.42491 18.1445C5.42659 18.1458 5.42827 18.1471 5.42996 18.1484L13.4341 24.2707C14.0615 24.7506 14.9326 24.7507 15.5601 24.271L23.5615 18.1538C24.0299 17.7956 24.1194 17.1255 23.7612 16.657C23.7597 16.655 23.7582 16.653 23.7566 16.651C23.3969 16.1874 22.7295 16.1031 22.2659 16.4628C22.2625 16.4654 22.2592 16.4681 22.2558 16.4707L15.5764 21.7827C14.9388 22.2898 14.0357 22.2898 13.3981 21.7829Z" fill="white"/>
</svg>
