<svg width="30" height="30" viewBox="0 0 30 30" fill="none" xmlns="http://www.w3.org/2000/svg">
<path d="M26.2502 13.0876C26.255 13.1716 26.2431 13.2557 26.2152 13.3351C26.1873 13.4145 26.144 13.4876 26.0877 13.5501C26.0278 13.6126 25.9561 13.6624 25.8766 13.6968C25.7972 13.7311 25.7117 13.7493 25.6252 13.7501H16.2502V4.40013C16.2511 4.31361 16.2692 4.22813 16.3036 4.14871C16.3379 4.06929 16.3878 3.99753 16.4502 3.93763C16.5103 3.87628 16.5824 3.82797 16.6619 3.79571C16.7415 3.76345 16.8269 3.74793 16.9127 3.75013C19.338 3.90612 21.6234 4.93997 23.3419 6.65844C25.0604 8.3769 26.0942 10.6624 26.2502 13.0876ZM23.1002 16.2501H13.7502V6.90013C13.7503 6.8159 13.7333 6.73254 13.7004 6.65503C13.6674 6.57753 13.6191 6.50748 13.5584 6.44911C13.4977 6.39073 13.4258 6.34523 13.3471 6.31533C13.2683 6.28543 13.1844 6.27176 13.1002 6.27513C11.1814 6.39932 9.33913 7.07406 7.79402 8.21852C6.24892 9.36299 5.06652 10.9286 4.38848 12.7279C3.71044 14.5272 3.5655 16.4838 3.97105 18.3634C4.37659 20.2429 5.3154 21.9657 6.67503 23.3253C8.03465 24.6849 9.75743 25.6238 11.637 26.0293C13.5165 26.4348 15.4731 26.2899 17.2724 25.6119C19.0717 24.9338 20.6374 23.7514 21.7818 22.2063C22.9263 20.6612 23.601 18.8189 23.7252 16.9001C23.7286 16.816 23.7149 16.732 23.685 16.6533C23.6551 16.5745 23.6096 16.5026 23.5512 16.4419C23.4929 16.3812 23.4228 16.3329 23.3453 16.3C23.2678 16.267 23.1844 16.2501 23.1002 16.2501Z" fill="white"/>
</svg>
