<svg width="24" height="24" viewBox="0 0 24 24" fill="none" xmlns="http://www.w3.org/2000/svg">
<path fill-rule="evenodd" clip-rule="evenodd" d="M5.15185 20.9849C5.92995 21.026 6.75503 20.8408 7.49767 20.5973C8.25216 20.3499 8.99077 20.0188 9.61436 19.714C9.80754 19.6195 9.99867 19.5229 10.1788 19.4305C10.2108 19.5235 10.243 19.6113 10.2724 19.69C10.2037 19.749 10.1204 19.8365 10.0516 19.9573C9.97112 20.0983 9.89246 20.3179 9.92316 20.5866C9.95383 20.8551 10.0795 21.0493 10.1886 21.1666C10.3651 21.3565 10.5649 21.4203 10.6065 21.4335L10.6094 21.4344C10.6801 21.4571 10.7395 21.4673 10.7698 21.472C10.8755 21.4883 10.988 21.4887 11.0482 21.4887C11.257 21.4887 11.5499 21.4535 11.8231 21.2756C12.0767 21.2208 12.3831 21.1524 12.7004 21.072C13.2506 20.9325 13.895 20.743 14.4449 20.4916C14.7196 20.366 15.0048 20.2098 15.2518 20.0133L15.2616 20.0054C15.3469 20.2398 15.4157 20.4802 15.4496 20.6682C15.5037 20.9675 15.6866 21.2254 15.9467 21.3694C16.2069 21.5134 16.5164 21.5279 16.7882 21.409L16.7907 21.4079L16.7986 21.4045L16.8302 21.3907L16.9519 21.3379C17.0572 21.2922 17.2085 21.2268 17.3919 21.1484C17.759 20.9913 18.2528 20.7824 18.7618 20.5739C19.2728 20.3646 19.7905 20.1593 20.2083 20.0076C20.4182 19.9315 20.5918 19.8729 20.7212 19.8345C20.7932 19.8132 20.8336 19.8038 20.8494 19.8001C20.8514 19.7996 20.8545 19.7989 20.8545 19.7989C21.3638 19.766 21.7669 19.3296 21.7669 18.7962C21.7669 18.2413 21.3307 17.7914 20.7925 17.7914C20.5688 17.7914 20.3231 17.8617 20.1838 17.9029C20.0012 17.957 19.7869 18.0302 19.561 18.1122C19.1071 18.277 18.5616 18.4936 18.0424 18.7064C17.6815 18.8541 17.3291 19.0017 17.0228 19.1315C16.9023 18.824 16.7597 18.5246 16.6044 18.2755C16.5099 18.1238 16.39 17.957 16.2424 17.8118C16.1068 17.6784 15.866 17.4819 15.5256 17.4201C15.1178 17.3461 14.7452 17.4954 14.4834 17.7543C14.2842 17.9514 14.1658 18.1921 14.0902 18.3979C14.0828 18.4045 14.0733 18.4127 14.0611 18.4224C13.983 18.4845 13.8512 18.5648 13.655 18.6545C13.2631 18.8336 12.7505 18.99 12.2354 19.1205L12.1555 19.1405L12.1113 19.021C12.0211 18.778 11.9584 18.6091 11.9256 18.4561C11.9236 18.4463 11.9218 18.4374 11.9202 18.4292C11.9367 18.3987 11.9535 18.3647 11.9691 18.3277L11.9699 18.3261C11.997 18.2618 12.1514 17.8964 11.9631 17.4774C11.7302 16.9588 11.246 16.894 11.1124 16.8866C10.9528 16.8776 10.8245 16.9099 10.7762 16.9227C10.5895 16.9721 10.3671 17.0844 10.2262 17.1558C10.0856 17.2269 9.93656 17.3051 9.77446 17.3901C9.4909 17.5388 9.16729 17.7086 8.7795 17.8982C8.19318 18.1848 7.54323 18.4736 6.90714 18.6822C6.2592 18.8947 5.69168 19.0012 5.25177 18.978C4.71432 18.9495 4.25626 19.3758 4.22868 19.9299C4.20108 20.4841 4.61439 20.9564 5.15185 20.9849ZM14.1106 18.3775C14.1106 18.3775 14.11 18.3783 14.1086 18.3797L14.1106 18.3775ZM11.9113 18.3562C11.9113 18.3562 11.9118 18.3606 11.9114 18.3682C11.9109 18.3599 11.9113 18.3562 11.9113 18.3562Z" fill="white"/>
<path d="M3.60784 11.8083C3.38085 12.0423 3.21344 12.3306 3.12049 12.6474L2.31561 15.3908C2.10754 16.1 2.29481 16.8697 2.80288 17.3936C3.31095 17.9176 4.05739 18.1107 4.74516 17.8962L7.40573 17.0664C7.71298 16.9705 7.99252 16.7979 8.2195 16.5639L15.6464 8.90611L17.0175 7.47389C18.0914 6.15279 18.0262 4.18092 16.8217 2.93888C15.5483 1.62567 13.4834 1.62562 12.2099 2.93876L3.60784 11.8083Z" fill="white"/>
</svg>
