<svg width="118" height="98" viewBox="0 0 118 98" fill="none" xmlns="http://www.w3.org/2000/svg">
<path fill-rule="evenodd" clip-rule="evenodd" d="M36.387 80.5224C39.0747 80.6645 41.9247 80.0245 44.4899 79.1835C47.096 78.3289 49.6473 77.1853 51.8013 76.1324C52.4686 75.8061 53.1288 75.4725 53.7509 75.1533C53.8615 75.4745 53.9729 75.7778 54.0744 76.0497C53.8369 76.2535 53.5494 76.5558 53.3116 76.9728C53.0336 77.46 52.7619 78.2184 52.868 79.1466C52.9739 80.0741 53.408 80.7448 53.7848 81.15C54.3944 81.8059 55.0847 82.0262 55.2285 82.0721L55.2382 82.0751C55.4825 82.1534 55.6876 82.1889 55.7926 82.2051C56.1576 82.2614 56.5463 82.2628 56.7541 82.2628C57.4754 82.2628 58.4869 82.141 59.4306 81.5267C60.3068 81.3374 61.3652 81.1009 62.461 80.8233C64.3615 80.3415 66.5873 79.6867 68.4868 78.8184C69.4358 78.3845 70.421 77.8451 71.274 77.1663L71.308 77.1389C71.6025 77.9487 71.84 78.779 71.9574 79.4284C72.1443 80.4622 72.7759 81.3533 73.6743 81.8506C74.5731 82.3479 75.6423 82.3982 76.5812 81.9873L76.5897 81.9836L76.617 81.9718L76.7263 81.9242L77.1464 81.7417C77.5104 81.5838 78.033 81.3581 78.6663 81.0872C79.9346 80.5447 81.6401 79.8231 83.3982 79.1028C85.1634 78.3798 86.9516 77.6707 88.3946 77.1468C89.1196 76.8836 89.7195 76.6812 90.1665 76.5486C90.4152 76.4751 90.5545 76.4427 90.6092 76.4299C90.6163 76.4282 90.6267 76.4258 90.6267 76.4258C92.3859 76.3122 93.7783 74.8048 93.7783 72.9623C93.7784 71.0456 92.2717 69.4916 90.4127 69.4916C89.6401 69.4915 88.7912 69.7344 88.3101 69.8768C87.6795 70.0634 86.9393 70.3164 86.1589 70.5994C84.591 71.1689 82.7067 71.9172 80.9132 72.6519C79.6669 73.1624 78.4496 73.6721 77.3915 74.1205C76.9752 73.0584 76.4826 72.024 75.9462 71.1636C75.6196 70.6396 75.2057 70.0634 74.6959 69.562C74.2273 69.1011 73.3957 68.4223 72.2199 68.209C70.8113 67.9533 69.5242 68.4691 68.6199 69.3635C67.9317 70.0443 67.5227 70.8756 67.2616 71.5865C67.2363 71.6094 67.2032 71.6378 67.161 71.6711C66.8915 71.8857 66.436 72.163 65.7585 72.4727C64.4049 73.0915 62.6343 73.6316 60.8549 74.0823L60.5789 74.1514L60.4261 73.7388C60.1147 72.8994 59.8981 72.3161 59.7848 71.7874C59.7777 71.7536 59.7716 71.7229 59.7662 71.6946C59.8232 71.5893 59.8813 71.4719 59.9349 71.344L59.9376 71.3383C60.0314 71.1163 60.5649 69.8542 59.9144 68.4068C59.1098 66.6156 57.4374 66.3918 56.9758 66.3662C56.4245 66.3351 55.9812 66.4468 55.8145 66.491C55.1695 66.6614 54.4016 67.0493 53.9147 67.2959C53.4292 67.5415 52.9142 67.8118 52.3543 68.1053C51.3748 68.6191 50.257 69.2054 48.9176 69.8603C46.8923 70.8505 44.6473 71.848 42.4501 72.5686C40.212 73.3024 38.2516 73.6704 36.7321 73.5901C34.8757 73.4919 33.2935 74.9642 33.1982 76.8782C33.1028 78.7925 34.5305 80.4241 36.387 80.5224ZM67.3321 71.516C67.3321 71.516 67.3301 71.5187 67.3253 71.5237L67.3321 71.516ZM59.7355 71.4426C59.7355 71.4426 59.7372 71.4577 59.7359 71.4837C59.7338 71.455 59.7355 71.4426 59.7355 71.4426Z" fill="white"/>
<path d="M31.0537 48.8249C30.2696 49.6332 29.6914 50.6288 29.3703 51.7233L26.5901 61.1994C25.8714 63.6491 26.5182 66.3077 28.2732 68.1175C30.0282 69.9273 32.6065 70.5944 34.9822 69.8535L44.1723 66.9873C45.2336 66.656 46.1992 66.0599 46.9832 65.2515L72.6369 38.8001L77.373 33.8529C81.0826 29.2896 80.8574 22.4784 76.6969 18.1881C72.2982 13.6521 65.1658 13.6519 60.7669 18.1877L31.0537 48.8249Z" fill="white"/>
</svg>
