<svg width="118" height="98" viewBox="0 0 118 98" fill="none" xmlns="http://www.w3.org/2000/svg">
<path d="M61.5812 62.0541L83.2634 44.7941L83.797 44.3716C85.9882 42.6365 86.3581 39.4536 84.623 37.2624C84.3828 36.9589 84.1085 36.6841 83.8056 36.4432L61.5826 18.7679C59.7386 17.3013 57.1264 17.3012 55.2824 18.7678L33.0432 36.454C30.8556 38.1937 30.4926 41.3774 32.2323 43.565C32.47 43.8639 32.7409 44.135 33.0396 44.373L33.5665 44.7928L55.2799 62.056C57.1246 63.5226 59.7374 63.5218 61.5812 62.0541Z" fill="white"/>
<path fill-rule="evenodd" clip-rule="evenodd" d="M55.2466 70.8202L35.9471 55.4761C34.63 54.429 32.7134 54.6478 31.6663 55.9649C31.6582 55.975 31.6502 55.9852 31.6423 55.9954C30.605 57.3348 30.8499 59.2614 32.1892 60.2986C32.1941 60.3024 32.199 60.3061 32.2038 60.3098L55.3507 78.0147C57.1651 79.4025 59.6844 79.4028 61.4991 78.0154L84.6379 60.3253C85.9927 59.2895 86.2513 57.3516 85.2156 55.9969C85.2111 55.9911 85.2067 55.9853 85.2022 55.9796C84.1621 54.6388 82.232 54.3951 80.8913 55.4353C80.8815 55.4429 80.8718 55.4505 80.8622 55.4581L61.5461 70.8197C59.7023 72.2861 57.0906 72.2862 55.2466 70.8202Z" fill="white"/>
</svg>
