<svg width="118" height="98" viewBox="0 0 118 98" fill="none" xmlns="http://www.w3.org/2000/svg">
<path d="M59.9877 18.6978C53.9822 18.6976 48.1114 20.4783 43.1179 23.8147C38.1244 27.1511 34.2323 31.8933 31.934 37.4417C29.6356 42.9901 29.0341 49.0954 30.2056 54.9856C31.3771 60.8758 34.2689 66.2863 38.5154 70.533C42.7618 74.7797 48.1722 77.6718 54.0624 78.8436C59.9525 80.0153 66.0579 79.4142 71.6063 77.1161C77.1548 74.818 81.8972 70.9262 85.2339 65.9328C88.5705 60.9395 90.3515 55.0688 90.3517 49.0632C90.3518 45.0757 89.5665 41.1272 88.0406 37.4431C86.5147 33.7591 84.2781 30.4116 81.4586 27.5919C78.639 24.7723 75.2917 22.5355 71.6078 21.0095C67.9238 19.4834 63.9753 18.6979 59.9877 18.6978ZM59.9875 27.8072C61.7892 27.8072 63.5504 28.3415 65.0484 29.3425C66.5464 30.3435 67.7139 31.7663 68.4034 33.4308C69.0928 35.0953 69.2731 36.9269 68.9216 38.694C68.5701 40.461 67.7025 42.0841 66.4284 43.3581C65.1544 44.632 63.5313 45.4996 61.7642 45.851C59.9972 46.2025 58.1656 46.022 56.5011 45.3325C54.8365 44.643 53.4139 43.4754 52.413 41.9773C51.412 40.4793 50.8778 38.718 50.8779 36.9164C50.8779 34.5004 51.8377 32.1834 53.5461 30.4751C55.2545 28.7668 57.5716 27.8071 59.9875 27.8072ZM77.0516 61.6946C75.0741 64.3576 72.5008 66.5208 69.5375 68.0112C66.5743 69.5016 63.3034 70.2778 59.9864 70.2777C56.6695 70.2776 53.3986 69.5012 50.4355 68.0107C47.4723 66.5202 44.8991 64.3568 42.9217 61.6938C42.6222 61.2511 42.4448 60.7372 42.4075 60.2041C42.3702 59.6709 42.4743 59.1373 42.7092 58.6573L43.3469 57.3212C44.0831 55.7608 45.2474 54.4415 46.7042 53.5169C48.161 52.5924 49.8505 52.1005 51.5759 52.0987L68.3979 52.0992C70.1 52.1015 71.7675 52.5806 73.2112 53.4823C74.6548 54.384 75.817 55.6721 76.5659 57.2006L77.2642 58.6278C77.5049 59.1116 77.6121 59.651 77.5747 60.1901C77.5373 60.7292 77.3568 61.2486 77.0516 61.6946Z" fill="white"/>
</svg>
