<svg width="118" height="98" viewBox="0 0 118 98" fill="none" xmlns="http://www.w3.org/2000/svg">
<path d="M89.6526 43.6566C89.6655 43.8833 89.6334 44.1104 89.5581 44.3246C89.4828 44.5389 89.3659 44.7361 89.214 44.9049C89.0524 45.0735 88.8587 45.208 88.6443 45.3007C88.4299 45.3934 88.1992 45.4424 87.9657 45.4448H62.6618V20.2083C62.6641 19.9748 62.7131 19.7441 62.8058 19.5297C62.8985 19.3154 63.0331 19.1217 63.2016 18.96C63.3638 18.7944 63.5583 18.664 63.7731 18.577C63.9878 18.4899 64.2182 18.448 64.4499 18.4539C70.9959 18.875 77.1646 21.6654 81.8028 26.3037C86.4411 30.942 89.2316 37.1106 89.6526 43.6566ZM81.1505 52.1925H55.9141V26.956C55.9143 26.7287 55.8685 26.5037 55.7795 26.2945C55.6906 26.0853 55.5602 25.8963 55.3964 25.7387C55.2325 25.5811 55.0385 25.4583 54.826 25.3776C54.6135 25.2969 54.3868 25.26 54.1597 25.2691C48.9807 25.6043 44.0082 27.4255 39.8378 30.5145C35.6674 33.6035 32.476 37.8293 30.646 42.6857C28.8159 47.5422 28.4247 52.8232 29.5193 57.8963C30.6139 62.9693 33.1478 67.6193 36.8175 71.289C40.4873 74.9587 45.1372 77.4927 50.2103 78.5873C55.2833 79.6819 60.5644 79.2907 65.4208 77.4606C70.2772 75.6305 74.503 72.4391 77.592 68.2687C80.6811 64.0984 82.5022 59.1258 82.8374 53.9469C82.8465 53.7197 82.8096 53.4931 82.7289 53.2806C82.6482 53.0681 82.5254 52.874 82.3679 52.7102C82.2103 52.5463 82.0212 52.416 81.812 52.327C81.6029 52.2381 81.3778 52.1923 81.1505 52.1925Z" fill="white"/>
</svg>
