<svg width="185" height="28" viewBox="0 0 185 28" fill="none" xmlns="http://www.w3.org/2000/svg">
<path d="M74.0712 0.403198C70.7899 0.403198 67.8115 1.61476 65.7923 3.63402C64.0759 1.56427 61.5518 0.403198 58.4724 0.403198C55.7969 0.403198 53.4243 1.31187 51.6574 2.87679C51.0516 1.36235 49.6382 0.403198 47.8713 0.403198C45.4482 0.403198 43.6309 2.27102 43.6309 4.79509V22.4636C43.6309 24.9877 45.4987 26.8555 47.9723 26.8555C50.4459 26.8555 52.3137 24.9877 52.3137 22.4636V11.9635C52.3137 9.69181 53.6767 8.22784 55.7969 8.22784C57.9676 8.22784 59.3811 9.69181 59.3811 11.9635V22.4636C59.3811 24.9877 61.2489 26.8555 63.7225 26.8555C66.1961 26.8555 68.0639 24.9877 68.0639 22.4636V11.9635C68.0639 9.69181 69.4269 8.22784 71.5472 8.22784C73.7179 8.22784 75.1313 9.69181 75.1313 11.9635V22.4636C75.1313 24.9877 76.9992 26.8555 79.4728 26.8555C81.9464 26.8555 83.8142 24.9877 83.8142 22.4636V10.7014C83.8142 4.39124 80.0281 0.403198 74.0712 0.403198Z" fill="white"/>
<path d="M74.0712 0.403198C70.7899 0.403198 67.8115 1.61476 65.7923 3.63402C64.0759 1.56427 61.5518 0.403198 58.4724 0.403198C55.7969 0.403198 53.4243 1.31187 51.6574 2.87679C51.0516 1.36235 49.6382 0.403198 47.8713 0.403198C45.4482 0.403198 43.6309 2.27102 43.6309 4.79509V22.4636C43.6309 24.9877 45.4987 26.8555 47.9723 26.8555C50.4459 26.8555 52.3137 24.9877 52.3137 22.4636V11.9635C52.3137 9.69181 53.6767 8.22784 55.7969 8.22784C57.9676 8.22784 59.3811 9.69181 59.3811 11.9635V22.4636C59.3811 24.9877 61.2489 26.8555 63.7225 26.8555C66.1961 26.8555 68.0639 24.9877 68.0639 22.4636V11.9635C68.0639 9.69181 69.4269 8.22784 71.5472 8.22784C73.7179 8.22784 75.1313 9.69181 75.1313 11.9635V22.4636C75.1313 24.9877 76.9992 26.8555 79.4728 26.8555C81.9464 26.8555 83.8142 24.9877 83.8142 22.4636V10.7014C83.8142 4.39124 80.0281 0.403198 74.0712 0.403198Z" stroke="white"/>
<path d="M101.014 0.403198C98.2882 0.403198 95.8146 1.36235 94.0478 2.92728C93.3915 1.41283 91.978 0.403198 90.2112 0.403198C87.788 0.403198 85.9707 2.27102 85.9707 4.79509V22.4636C85.9707 24.9877 87.8385 26.8555 90.3121 26.8555C92.7857 26.8555 94.6535 24.9877 94.6535 22.4636V11.9635C94.6535 9.74229 96.1175 8.22784 98.2882 8.22784C100.459 8.22784 101.973 9.74229 101.973 11.9635V22.4636C101.973 24.9877 103.841 26.8555 106.315 26.8555C108.788 26.8555 110.656 24.9877 110.656 22.4636V10.7014C110.656 4.44172 106.87 0.403198 101.014 0.403198Z" fill="white"/>
<path d="M16.4769 7.16758C15.3057 4.96503 16.1419 2.23013 18.3444 1.05901C20.547 -0.112103 23.2819 0.72404 24.453 2.92659L31.0223 15.2817L32.154 17.4101C32.7985 18.6222 34.2203 19.1966 35.5259 18.7724C35.9015 18.6504 36.2516 19.0149 36.1115 19.3841C35.6141 20.6951 34.7175 23.0337 34.3695 23.7839C34.3433 23.8405 34.3168 23.8979 34.29 23.956C33.8135 24.9894 33.236 26.2417 32.0653 26.8642C29.8627 28.0353 27.1278 27.1992 25.9567 24.9966L16.4769 7.16758Z" fill="white"/>
<path d="M16.4769 7.16758C15.3057 4.96503 16.1419 2.23013 18.3444 1.05901C20.547 -0.112103 23.2819 0.72404 24.453 2.92659L31.0223 15.2817L32.154 17.4101C32.7985 18.6222 34.2203 19.1966 35.5259 18.7724C35.9015 18.6504 36.2516 19.0149 36.1115 19.3841C35.6141 20.6951 34.7175 23.0337 34.3695 23.7839C34.3433 23.8405 34.3168 23.8979 34.29 23.956C33.8135 24.9894 33.236 26.2417 32.0653 26.8642C29.8627 28.0353 27.1278 27.1992 25.9567 24.9966L16.4769 7.16758Z" stroke="white"/>
<path d="M1.06475 7.16685C-0.106366 4.9643 0.729777 2.2294 2.93233 1.05828C5.13488 -0.112835 7.86978 0.723307 9.0409 2.92586L18.5208 20.7549C19.6919 22.9574 18.8557 25.6923 16.6532 26.8635C14.4506 28.0346 11.7157 27.1984 10.5446 24.9959L1.06475 7.16685Z" fill="white"/>
<path d="M1.06475 7.16685C-0.106366 4.9643 0.729777 2.2294 2.93233 1.05828C5.13488 -0.112835 7.86978 0.723307 9.0409 2.92586L18.5208 20.7549C19.6919 22.9574 18.8557 25.6923 16.6532 26.8635C14.4506 28.0346 11.7157 27.1984 10.5446 24.9959L1.06475 7.16685Z" stroke="white"/>
<path fill-rule="evenodd" clip-rule="evenodd" d="M122.805 0.403198C117.816 0.403198 113.771 4.44766 113.771 9.43675V22.7214C113.771 25.0692 115.675 26.9724 118.023 26.9724H180.726C183.074 26.9724 184.977 25.0692 184.977 22.7214V4.65428C184.977 2.30647 183.074 0.403198 180.726 0.403198H122.805ZM168.335 6.91921C168.335 5.61755 169.302 4.65432 170.582 4.65432C171.888 4.65432 172.828 5.61755 172.828 6.91921V14.0994C172.913 13.9857 173.008 13.8664 173.116 13.7399L176.642 9.78287C177.06 9.31427 177.583 9.07997 178.183 9.07997C179.333 9.10601 180.195 9.96511 180.195 11.0845C180.195 11.6052 179.96 12.1519 179.542 12.5945L176.903 15.4581L179.698 19.3631C180.038 19.8317 180.195 20.2482 180.195 20.6908C180.195 21.8363 179.307 22.7214 178.183 22.7214C177.478 22.7214 176.982 22.4871 176.59 21.9664L172.985 17.0201C172.929 16.9435 172.877 16.8698 172.828 16.7988V20.4565C172.828 21.7582 171.862 22.7214 170.582 22.7214C169.302 22.7214 168.335 21.7582 168.335 20.4565V6.91921ZM142.096 9.07997C141.26 9.07997 140.528 9.52254 140.163 10.2515L137.524 15.6664L135.513 10.7982C135.043 9.65271 134.311 9.07997 133.345 9.07997C132.378 9.07997 131.647 9.65271 131.177 10.7982L129.165 15.6664L126.527 10.2515C126.161 9.52254 125.43 9.07997 124.594 9.07997C123.392 9.07997 122.426 10.0432 122.426 11.2407C122.426 11.6312 122.53 12.0217 122.713 12.4383L127.023 21.3156C127.467 22.2268 128.173 22.7214 129.061 22.7214C129.949 22.7214 130.654 22.2268 131.098 21.3156L133.345 16.4995L135.591 21.3156C136.035 22.2268 136.741 22.7214 137.629 22.7214C138.517 22.7214 139.222 22.2268 139.666 21.3156L143.976 12.4383C144.159 12.0217 144.264 11.6312 144.264 11.2407C144.264 10.0432 143.297 9.07997 142.096 9.07997ZM121.532 22.7214C123.204 22.7214 124.431 21.4458 124.431 19.8057C124.431 18.1916 123.204 16.89 121.532 16.89C119.782 16.89 118.554 18.1916 118.554 19.8057C118.554 21.4458 119.782 22.7214 121.532 22.7214ZM143.841 15.9007C143.841 12.0738 146.95 9.07997 150.946 9.07997C154.943 9.07997 158.077 12.0998 158.077 15.9007C158.077 19.7015 154.943 22.7214 150.946 22.7214C146.95 22.7214 143.841 19.7276 143.841 15.9007ZM153.48 15.9007C153.48 14.3387 152.409 13.1932 150.972 13.1932C149.483 13.1932 148.438 14.2866 148.438 15.9007C148.438 17.5147 149.457 18.6081 150.972 18.6081C152.435 18.6081 153.48 17.4627 153.48 15.9007ZM165.794 9.18411C164.75 9.18411 163.783 9.70477 163.052 10.5899C162.764 9.67874 161.981 9.07997 160.988 9.07997C159.734 9.07997 158.794 10.0432 158.794 11.3449V20.4565C158.794 21.7582 159.76 22.7214 161.04 22.7214C162.32 22.7214 163.287 21.7582 163.287 20.4565V16.4734C163.287 14.599 164.07 13.6098 165.69 13.3755C166.97 13.1932 167.754 12.3862 167.754 11.1887C167.754 9.99114 166.944 9.18411 165.794 9.18411Z" fill="white"/>
<circle cx="35.9269" cy="4.91997" r="4.51677" fill="white"/>
</svg>
