<svg width="48" height="48" viewBox="0 0 48 48" fill="none" xmlns="http://www.w3.org/2000/svg">
<path d="M40.24 14.7795L33.22 7.75951C32.0959 6.63397 30.5708 6.00091 28.98 5.99951H18.98C17.3892 6.00091 15.8641 6.63397 14.74 7.75951L7.76 14.7795C6.63446 15.9037 6.0014 17.4287 6 19.0195V29.0195C6.0014 30.6103 6.63446 32.1354 7.76 33.2595L14.78 40.2795C15.9107 41.3904 17.435 42.0087 19.02 41.9995H29.02C30.6108 41.9981 32.1359 41.3651 33.26 40.2395L40.28 33.2195C41.3909 32.0889 42.0092 30.5646 42 28.9795V18.9795C41.9881 17.4026 41.3558 15.8938 40.24 14.7795ZM38 28.9795C37.9978 29.5042 37.7895 30.007 37.42 30.3795L30.38 37.4195C30.0075 37.789 29.5047 37.9973 28.98 37.9995H18.98C18.4553 37.9973 17.9525 37.789 17.58 37.4195L10.58 30.3795C10.2105 30.007 10.0022 29.5042 10 28.9795V18.9795C10.0022 18.4548 10.2105 17.952 10.58 17.5795L17.62 10.5795C17.9925 10.21 18.4953 10.0017 19.02 9.99951H29.02C29.5447 10.0017 30.0475 10.21 30.42 10.5795L37.46 17.6195C37.8295 17.992 38.0378 18.4948 38.04 19.0195L38 28.9795ZM25 27.9995H23C22.7348 27.9995 22.4804 28.1049 22.2929 28.2924C22.1054 28.4799 22 28.7343 22 28.9995V30.9995C22 31.2647 22.1054 31.5191 22.2929 31.7066C22.4804 31.8942 22.7348 31.9995 23 31.9995H25C25.2652 31.9995 25.5196 31.8942 25.7071 31.7066C25.8946 31.5191 26 31.2647 26 30.9995V28.9995C26 28.7343 25.8946 28.4799 25.7071 28.2924C25.5196 28.1049 25.2652 27.9995 25 27.9995ZM25.36 15.9995H22.64C22.4979 15.9985 22.3573 16.0277 22.2274 16.0853C22.0976 16.1429 21.9814 16.2275 21.8868 16.3335C21.7922 16.4394 21.7213 16.5644 21.6787 16.6999C21.6361 16.8354 21.6229 16.9785 21.64 17.1195L22.44 23.5595C22.4547 23.6815 22.5139 23.7937 22.6061 23.8749C22.6983 23.956 22.8172 24.0004 22.94 23.9995H25.06C25.1828 24.0004 25.3017 23.956 25.3939 23.8749C25.4861 23.7937 25.5453 23.6815 25.56 23.5595L26.36 17.1195C26.3771 16.9785 26.3639 16.8354 26.3213 16.6999C26.2787 16.5644 26.2078 16.4394 26.1132 16.3335C26.0186 16.2275 25.9024 16.1429 25.7726 16.0853C25.6427 16.0277 25.5021 15.9985 25.36 15.9995Z" fill="#738AFF"/>
</svg>
