<svg width="48" height="48" viewBox="0 0 48 48" fill="none" xmlns="http://www.w3.org/2000/svg">
<path d="M24 3.99951C20.0444 3.99951 16.1776 5.17249 12.8886 7.37012C9.59962 9.56775 7.03617 12.6913 5.52242 16.3458C4.00867 20.0004 3.6126 24.0217 4.3843 27.9013C5.15601 31.7809 7.06082 35.3446 9.85787 38.1416C12.6549 40.9387 16.2186 42.8435 20.0982 43.6152C23.9778 44.3869 27.9992 43.9909 31.6537 42.4771C35.3082 40.9633 38.4318 38.3999 40.6294 35.1109C42.827 31.8219 44 27.9551 44 23.9995C44 21.3731 43.4827 18.7724 42.4776 16.3458C41.4725 13.9193 39.9993 11.7145 38.1421 9.85738C36.285 8.0002 34.0802 6.52701 31.6537 5.52192C29.2272 4.51683 26.6264 3.99951 24 3.99951ZM24 39.9995C20.8355 39.9995 17.7421 39.0611 15.1109 37.303C12.4797 35.5449 10.4289 33.0461 9.21794 30.1224C8.00693 27.1988 7.69008 23.9818 8.30744 20.8781C8.92481 17.7744 10.4487 14.9234 12.6863 12.6858C14.9239 10.4482 17.7749 8.92431 20.8786 8.30695C23.9823 7.68958 27.1993 8.00644 30.1229 9.21744C33.0466 10.4284 35.5454 12.4792 37.3035 15.1104C39.0616 17.7416 40 20.835 40 23.9995C40 28.243 38.3143 32.3126 35.3137 35.3132C32.3131 38.3138 28.2435 39.9995 24 39.9995ZM30 15.9995C28.9391 15.9995 27.9217 16.4209 27.1716 17.1711C26.4214 17.9212 26 18.9386 26 19.9995V20.9995C26 21.2647 26.1054 21.5191 26.2929 21.7066C26.4804 21.8942 26.7348 21.9995 27 21.9995H33C33.2652 21.9995 33.5196 21.8942 33.7071 21.7066C33.8946 21.5191 34 21.2647 34 20.9995V19.9995C34 18.9386 33.5786 17.9212 32.8284 17.1711C32.0783 16.4209 31.0609 15.9995 30 15.9995ZM21 21.9995C21.2652 21.9995 21.5196 21.8942 21.7071 21.7066C21.8947 21.5191 22 21.2647 22 20.9995V19.9995C22 18.9386 21.5786 17.9212 20.8284 17.1711C20.0783 16.4209 19.0609 15.9995 18 15.9995C16.9391 15.9995 15.9217 16.4209 15.1716 17.1711C14.4214 17.9212 14 18.9386 14 19.9995V20.9995C14 21.2647 14.1054 21.5191 14.2929 21.7066C14.4804 21.8942 14.7348 21.9995 15 21.9995H21ZM24 25.9995C22.2569 26.0031 20.5395 26.42 18.9889 27.2162C17.4383 28.0124 16.0986 29.165 15.08 30.5795C15.0002 30.6911 14.9448 30.8182 14.9172 30.9525C14.8897 31.0869 14.8906 31.2255 14.92 31.3595C14.9528 31.493 15.0122 31.6185 15.0946 31.7285C15.1771 31.8385 15.281 31.9307 15.4 31.9995L17.14 33.0195C17.3521 33.1382 17.5997 33.1772 17.838 33.1295C18.0764 33.0818 18.2898 32.9506 18.44 32.7595C19.0861 31.8945 19.9252 31.1922 20.8904 30.7085C21.8556 30.2247 22.9204 29.9728 24 29.9728C25.0797 29.9728 26.1444 30.2247 27.1096 30.7085C28.0748 31.1922 28.9139 31.8945 29.56 32.7595C29.7102 32.9506 29.9237 33.0818 30.162 33.1295C30.4003 33.1772 30.6479 33.1382 30.86 33.0195L32.6 31.9995C32.7211 31.9285 32.8263 31.8332 32.9089 31.7196C32.9915 31.606 33.0497 31.4766 33.08 31.3395C33.1094 31.2055 33.1104 31.0669 33.0828 30.9325C33.0552 30.7982 32.9998 30.6711 32.92 30.5595C31.8992 29.1487 30.5586 27.9999 29.0081 27.2073C27.4576 26.4147 25.7414 26.0008 24 25.9995Z" fill="#738AFF"/>
</svg>
