<svg width="48" height="48" viewBox="0 0 48 48" fill="none" xmlns="http://www.w3.org/2000/svg">
<path d="M5.31999 16.8594C5.3747 16.7129 5.46585 16.5828 5.58483 16.4813C5.70381 16.3798 5.8467 16.3104 5.99999 16.2794C6.12856 16.2202 6.26844 16.1896 6.40999 16.1896C6.55155 16.1896 6.69142 16.2202 6.81999 16.2794L8.59999 17.2994C8.80939 17.4143 8.96965 17.6016 9.05067 17.8262C9.13169 18.0509 9.12789 18.2974 9.03999 18.5194C8.71159 19.4361 8.46398 20.3797 8.29999 21.3394C8.2622 21.5727 8.14305 21.785 7.96366 21.9387C7.78428 22.0925 7.55625 22.1778 7.31999 22.1794H5.31999C5.16918 22.2171 5.01185 22.2205 4.85956 22.1893C4.70727 22.1582 4.5639 22.0933 4.43999 21.9994C4.35039 21.8883 4.28461 21.76 4.24676 21.6223C4.20891 21.4847 4.1998 21.3407 4.21999 21.1994C4.41057 19.7138 4.77991 18.2565 5.31999 16.8594ZM8.47999 11.3994C8.38932 11.5096 8.32432 11.6385 8.28972 11.7769C8.25512 11.9153 8.2518 12.0596 8.27999 12.1994C8.30242 12.342 8.35739 12.4775 8.44063 12.5955C8.52387 12.7134 8.63315 12.8106 8.75999 12.8794L10.54 13.9994C10.7404 14.124 10.9796 14.1704 11.212 14.1298C11.4444 14.0893 11.6537 13.9645 11.8 13.7794C12.3656 13.0946 12.9951 12.4651 13.68 11.8994C13.7932 11.8339 13.8919 11.7459 13.9699 11.6408C14.0478 11.5358 14.1035 11.4159 14.1335 11.2885C14.1635 11.1611 14.1671 11.029 14.1441 10.9002C14.1212 10.7714 14.0721 10.6486 14 10.5394L12.98 8.75944C12.9111 8.6326 12.8139 8.52332 12.696 8.44008C12.5781 8.35684 12.4426 8.30187 12.3 8.27944C12.1602 8.25125 12.0158 8.25458 11.8774 8.28917C11.739 8.32377 11.6101 8.38877 11.5 8.47944C10.3847 9.33376 9.37137 10.3135 8.47999 11.3994ZM17.36 8.51944C17.4779 8.72579 17.6654 8.88341 17.889 8.96404C18.1126 9.04466 18.3575 9.04304 18.58 8.95944C19.4966 8.63104 20.4402 8.38343 21.4 8.21944C21.6332 8.18165 21.8455 8.0625 21.9993 7.88311C22.153 7.70373 22.2383 7.4757 22.24 7.23944V5.23944C22.2575 5.09675 22.2451 4.95199 22.2038 4.81429C22.1625 4.6766 22.0931 4.54896 22 4.43944C21.8889 4.34984 21.7605 4.28406 21.6229 4.24621C21.4852 4.20836 21.3413 4.19925 21.2 4.21944C19.7483 4.41783 18.3251 4.78705 16.96 5.31944C16.8229 5.36666 16.6988 5.44563 16.5981 5.5499C16.4973 5.65417 16.4225 5.7808 16.38 5.91944C16.3208 6.04801 16.2901 6.18789 16.2901 6.32944C16.2901 6.471 16.3208 6.61087 16.38 6.73944L17.36 8.51944ZM26.9 4.21944C26.7574 4.19928 26.6122 4.21014 26.4742 4.25128C26.3362 4.29242 26.2087 4.36288 26.1005 4.45783C25.9923 4.55278 25.9058 4.66998 25.847 4.80143C25.7883 4.93288 25.7586 5.07546 25.76 5.21944V7.21944C25.7561 7.45623 25.8364 7.68671 25.9866 7.86983C26.1368 8.05296 26.347 8.17685 26.58 8.21944C29.4871 8.69203 32.2073 9.95784 34.441 11.8774C36.6747 13.797 38.3352 16.2959 39.2396 19.0989C40.144 21.9018 40.2572 24.9 39.5668 27.7631C38.8763 30.6262 37.409 33.2432 35.3264 35.3258C33.2438 37.4084 30.6268 38.8758 27.7636 39.5662C24.9005 40.2567 21.9023 40.1435 19.0994 39.2391C16.2965 38.3347 13.7976 36.6741 11.878 34.4404C9.95839 32.2067 8.69258 29.4865 8.21999 26.5794C8.1774 26.3465 8.05351 26.1362 7.87038 25.986C7.68726 25.8359 7.45678 25.7556 7.21999 25.7594H5.21999C5.07601 25.758 4.93343 25.7877 4.80198 25.8465C4.67053 25.9053 4.55333 25.9917 4.45838 26.1C4.36343 26.2082 4.29297 26.3357 4.25183 26.4737C4.21069 26.6116 4.19983 26.7569 4.21999 26.8994C4.75592 30.5695 6.30182 34.0182 8.68495 36.8602C11.0681 39.7022 14.1946 41.8256 17.715 42.993C21.2355 44.1604 25.0112 44.3259 28.6203 43.471C32.2294 42.616 35.5296 40.7743 38.1522 38.1517C40.7749 35.5291 42.6166 32.2288 43.4715 28.6197C44.3265 25.0106 44.161 21.2349 42.9936 17.7145C41.8262 14.194 39.7028 11.0675 36.8608 8.68441C34.0188 6.30127 30.57 4.75537 26.9 4.21944ZM13 22.2194C12.7348 22.2194 12.4804 22.3248 12.2929 22.5123C12.1054 22.6999 12 22.9542 12 23.2194V24.7394C12 25.0047 12.1054 25.259 12.2929 25.4466C12.4804 25.6341 12.7348 25.7394 13 25.7394H24.76C25.0236 25.7343 25.275 25.6273 25.4614 25.4409C25.6479 25.2544 25.7549 25.0031 25.76 24.7394V12.9994C25.76 12.7342 25.6546 12.4799 25.4671 12.2923C25.2796 12.1048 25.0252 11.9994 24.76 11.9994H23.24C22.9748 11.9994 22.7204 12.1048 22.5329 12.2923C22.3454 12.4799 22.24 12.7342 22.24 12.9994V22.2394L13 22.2194Z" fill="#738AFF"/>
</svg>
