<svg width="1440" height="681" viewBox="0 0 1440 681" fill="none" xmlns="http://www.w3.org/2000/svg">
<path d="M1611.06 542.356C1619.31 547.519 1630.18 545.021 1635.34 536.775C1640.5 528.529 1638 517.659 1629.76 512.495L1611.06 542.356ZM914.067 587.59L926.567 600.003L914.067 587.59ZM725.096 415.375L731.302 431.861L725.096 415.375ZM613.961 612.617L603.754 626.975C604.351 627.399 604.975 627.787 605.62 628.134L613.961 612.617ZM793.895 475.288L810.632 480.785L793.895 475.288ZM-207.958 50.1913C-217.065 53.6151 -221.672 63.7732 -218.248 72.8801C-214.824 81.9869 -204.666 86.5939 -195.559 83.1701L-207.958 50.1913ZM901.567 575.177C893.22 583.584 876.312 604.914 858.005 631.705C839.502 658.781 818.768 692.604 803.054 726.427C787.649 759.585 775.777 795.408 777.952 825.535C779.075 841.101 784.035 856.243 795.244 868.311C806.452 880.379 822.212 887.547 841.472 890.383L846.605 855.526C833.02 853.526 825.439 849.051 821.059 844.334C816.679 839.618 813.803 832.834 813.093 822.998C811.6 802.318 820.068 773.426 835.006 741.272C849.636 709.783 869.249 677.697 887.094 651.583C905.134 625.183 920.573 606.04 926.567 600.003L901.567 575.177ZM1629.76 512.495C1506.78 435.481 1353.02 422.934 1217.27 442.993C1082.05 462.976 960.333 515.998 901.567 575.177L926.567 600.003C977.866 548.344 1091.1 497.253 1222.42 477.847C1353.23 458.518 1497.6 471.307 1611.06 542.356L1629.76 512.495ZM841.472 890.383C865.412 893.908 886.4 882.764 902.945 866.055C919.428 849.408 933.319 825.617 944.425 798.514C966.697 744.161 979.582 672.014 977.431 603.439C975.297 535.429 958.22 467.129 916.566 423.998C895.39 402.071 868.18 387.037 834.626 382.09C801.339 377.182 762.848 382.34 718.89 398.888L731.302 431.861C771.337 416.79 803.663 413.138 829.487 416.945C855.042 420.713 875.235 431.919 891.222 448.473C923.895 482.304 940.188 539.932 942.215 604.544C944.225 668.593 932.062 735.764 911.823 785.155C901.674 809.924 889.943 829.111 877.909 841.265C865.936 853.358 855.508 856.837 846.605 855.526L841.472 890.383ZM605.62 628.134C633.656 643.205 661.1 643.4 685.877 634.15C709.908 625.178 730.597 607.685 747.473 588.621C781.133 550.594 803.836 501.473 810.632 480.785L777.159 469.79C771.54 486.894 750.955 531.531 721.091 565.268C706.205 582.085 690.073 594.975 673.554 601.143C657.78 607.032 640.946 607.123 622.303 597.101L605.62 628.134ZM718.89 398.888C681.438 412.986 631.082 450.327 600.014 491.798C584.471 512.545 572.268 536.274 570.56 560.247C568.745 585.708 578.973 609.357 603.754 626.975L624.169 598.26C609.103 587.549 604.789 575.58 605.703 562.752C606.723 548.435 614.519 531.199 628.212 512.922C655.614 476.344 700.672 443.392 731.302 431.861L718.89 398.888ZM810.632 480.785C869.098 302.796 833.561 110.727 668.471 6.05148C505.014 -97.588 220.842 -111.02 -207.958 50.1913L-195.559 83.1701C230.035 -76.8362 500.452 -58.7626 649.604 35.807C797.123 129.341 832.215 302.184 777.159 469.79L810.632 480.785Z" fill="url(#paint0_radial)"/>
<defs>
<radialGradient id="paint0_radial" cx="0" cy="0" r="1" gradientUnits="userSpaceOnUse" gradientTransform="translate(634.391 399.973) rotate(-69.8154) scale(373.436 899.799)">
<stop stop-color="#FFB673"/>
<stop offset="1" stop-color="#FF73E9"/>
</radialGradient>
</defs>
</svg>
