<svg width="375" height="535" viewBox="0 0 375 535" fill="none" xmlns="http://www.w3.org/2000/svg">
<path d="M-150.863 -19.0886C-155.781 -21.6023 -161.805 -19.6535 -164.319 -14.7359C-166.833 -9.81832 -164.884 -3.79401 -159.966 -1.28029L-150.863 -19.0886ZM168.462 -66.4154L160.781 -72.819L168.462 -66.4154ZM262.691 5.53259L258.369 -3.48502L262.691 5.53259ZM306.09 -90.059L311.154 -98.6815C310.796 -98.8922 310.424 -99.0804 310.042 -99.2448L306.09 -90.059ZM228.497 -19.3747L218.761 -21.6588L228.497 -19.3747ZM709.214 138.318C714.195 135.933 716.3 129.961 713.915 124.98C711.53 119.999 705.558 117.894 700.577 120.279L709.214 138.318ZM176.142 -60.0119C179.771 -64.3645 186.789 -75.019 194.18 -88.1535C201.667 -101.459 209.934 -118.013 215.877 -134.397C221.678 -150.388 225.865 -167.789 223.569 -182.105C222.376 -189.546 219.33 -196.764 213.28 -202.238C207.229 -207.711 199.224 -210.49 189.916 -211.043L188.731 -191.078C194.789 -190.718 198.035 -189.059 199.862 -187.406C201.689 -185.754 203.145 -183.159 203.822 -178.939C205.266 -169.932 202.662 -156.618 197.076 -141.217C191.631 -126.207 183.912 -110.69 176.75 -97.9611C169.491 -85.0604 163.196 -75.7157 160.781 -72.819L176.142 -60.0119ZM-159.966 -1.28029C-99.5334 29.6112 -27.5122 29.1621 34.6395 14.3706C96.5017 -0.351967 151.025 -29.8846 176.142 -60.0119L160.781 -72.819C139.516 -47.3125 89.6932 -19.2902 30.0091 -5.08597C-29.3855 9.04935 -96.1113 8.89896 -150.863 -19.0886L-159.966 -1.28029ZM189.916 -211.043C177.926 -211.754 168.167 -205.317 160.98 -196.672C153.826 -188.065 148.276 -176.268 144.198 -163.175C136.014 -136.904 132.952 -102.795 136.734 -70.9698C140.479 -39.4622 151.206 -8.04938 172.692 10.6393C183.65 20.1705 197.206 26.187 213.325 27.1464C229.29 28.0966 247.177 24.0585 267.014 14.5502L258.369 -3.48502C240.678 4.99475 226.204 7.87755 214.513 7.1817C202.975 6.49498 193.577 2.29817 185.818 -4.45095C169.869 -18.323 160.111 -43.7395 156.594 -73.3302C153.115 -102.603 156.015 -133.862 163.293 -157.227C166.945 -168.953 171.5 -178.041 176.36 -183.887C181.189 -189.696 185.353 -191.278 188.731 -191.078L189.916 -211.043ZM310.042 -99.2448C295.975 -105.297 282.738 -104.25 271.214 -98.7644C260.098 -93.4732 251.029 -84.3005 243.908 -74.6887C229.712 -55.5278 221.113 -31.6803 218.761 -21.6588L238.233 -17.0905C240.095 -25.0274 247.718 -46.2347 259.978 -62.7827C266.085 -71.0254 272.803 -77.3707 279.81 -80.7057C286.408 -83.8466 293.631 -84.5333 302.137 -80.8732L310.042 -99.2448ZM267.014 14.5502C284.089 6.36573 306.102 -13.1622 318.952 -33.8409C325.382 -44.1873 330.263 -55.9963 330.079 -67.6427C329.881 -80.1359 323.846 -91.2266 311.154 -98.6815L301.025 -81.4366C307.881 -77.4089 309.997 -72.6319 310.081 -67.3269C310.178 -61.175 307.47 -53.2553 301.965 -44.3971C290.947 -26.6664 271.713 -9.88113 258.369 -3.48502L267.014 14.5502ZM218.761 -21.6588C198.788 63.4713 223.048 151.761 304.487 193.968C384.951 235.669 517.457 230.131 709.214 138.318L700.577 120.279C510.574 211.252 385.617 213.488 313.689 176.211C242.737 139.439 219.677 61.9995 238.233 -17.0905L218.761 -21.6588Z" fill="url(#paint0_radial)"/>
<path d="M498.359 321.487C503.74 320.244 507.094 314.873 505.851 309.492C504.608 304.111 499.237 300.757 493.856 302L498.359 321.487ZM284.522 563.318L294.522 563.271L284.522 563.318ZM166.099 568.948L175.213 573.064L166.099 568.948ZM194.449 670.029L196.127 679.888C196.537 679.818 196.942 679.723 197.341 679.602L194.449 670.029ZM208.299 565.986L217.219 561.464L208.299 565.986ZM-261.034 754.883C-263.309 759.916 -261.074 765.84 -256.042 768.115C-251.009 770.39 -245.085 768.155 -242.81 763.123L-261.034 754.883ZM274.522 563.364C274.549 569.031 276.04 581.702 278.843 596.51C281.683 611.511 286.018 629.5 292.02 645.861C297.88 661.832 305.881 677.841 316.856 687.316C322.56 692.24 329.539 695.802 337.692 696.093C345.846 696.385 353.76 693.357 361.237 687.785L349.288 671.747C344.421 675.373 340.869 676.194 338.407 676.106C335.946 676.018 333.161 674.971 329.925 672.177C323.02 666.216 316.439 654.353 310.797 638.973C305.297 623.983 301.211 607.141 298.494 592.79C295.741 578.246 294.54 567.043 294.522 563.271L274.522 563.364ZM493.856 302C427.728 317.28 372.915 364 334.888 415.338C297.038 466.437 274.34 524.141 274.522 563.364L294.522 563.271C294.368 530.063 314.442 476.542 350.959 427.242C387.299 378.182 438.447 335.33 498.359 321.487L493.856 302ZM361.237 687.785C370.869 680.609 374.19 669.4 374.122 658.158C374.053 646.966 370.703 634.366 365.392 621.723C354.736 596.354 335.116 568.286 311.729 546.372C288.576 524.677 260.141 507.551 231.668 507.088C217.147 506.852 202.902 510.978 189.951 520.623C177.124 530.177 166.04 544.784 156.985 564.832L175.213 573.064C183.288 555.185 192.505 543.659 201.898 536.663C211.167 529.759 221.06 526.918 231.343 527.086C252.477 527.429 276.309 540.592 298.054 560.967C319.566 581.123 337.476 606.906 346.953 629.468C351.709 640.791 354.076 650.678 354.122 658.28C354.168 665.833 352.001 669.726 349.288 671.747L361.237 687.785ZM197.341 679.602C212 675.175 221.453 665.85 226.738 654.232C231.836 643.026 232.867 630.169 232.127 618.23C230.649 594.429 221.873 570.646 217.219 561.464L199.38 570.507C203.066 577.779 210.889 598.913 212.165 619.468C212.8 629.707 211.746 638.888 208.533 645.951C205.507 652.603 200.424 657.779 191.558 660.457L197.341 679.602ZM156.985 564.832C149.192 582.089 144.924 611.205 148.408 635.3C150.151 647.356 154.021 659.534 161.661 668.326C169.857 677.758 181.616 682.356 196.127 679.888L192.772 660.171C184.933 661.505 180.238 659.213 176.758 655.208C172.722 650.564 169.695 642.76 168.202 632.438C165.215 611.778 169.122 586.55 175.213 573.064L156.985 564.832ZM217.219 561.464C177.682 483.471 102.269 431.543 12.7837 451.692C-75.6308 471.6 -173.444 561.161 -261.034 754.883L-242.81 763.123C-156.021 571.172 -61.8574 488.999 17.1769 471.203C95.1402 453.649 162.648 498.048 199.38 570.507L217.219 561.464Z" fill="url(#paint1_radial)"/>
<defs>
<radialGradient id="paint0_radial" cx="0" cy="0" r="1" gradientUnits="userSpaceOnUse" gradientTransform="translate(305.213 8.99568) rotate(105.204) scale(173.165 417.243)">
<stop stop-color="#FFB673"/>
<stop offset="1" stop-color="#FF73E9"/>
</radialGradient>
<radialGradient id="paint1_radial" cx="0" cy="0" r="1" gradientUnits="userSpaceOnUse" gradientTransform="translate(131.336 593.68) rotate(-114.881) scale(173.165 417.243)">
<stop stop-color="#FFB673"/>
<stop offset="1" stop-color="#FF73E9"/>
</radialGradient>
</defs>
</svg>
