<svg width="32" height="33" viewBox="0 0 32 33" fill="none" xmlns="http://www.w3.org/2000/svg">
<path d="M16.1733 3.36675C15.9611 3.23525 15.7162 3.16595 15.4666 3.16675L15.3333 3.16675C15.1564 3.16675 14.9869 3.23699 14.8618 3.36202C14.7368 3.48704 14.6666 3.65661 14.6666 3.83342L14.6666 9.99342C14.6662 10.1372 14.6194 10.277 14.5331 10.3919C14.4468 10.5069 14.3256 10.5909 14.1877 10.6314C14.0497 10.6719 13.9024 10.6667 13.7676 10.6166C13.6329 10.5665 13.5179 10.4742 13.4399 10.3534C12.5323 9.35474 11.4236 8.55953 10.1866 8.02009C10.0979 7.97447 9.99964 7.95068 9.89992 7.95068C9.8002 7.95068 9.70192 7.97447 9.61325 8.02009C9.52535 8.08128 9.45383 8.16314 9.40501 8.25847C9.35618 8.35379 9.33154 8.45966 9.33325 8.56675C8.91992 12.3401 5.33325 13.9001 5.33325 19.2334C5.33325 22.0624 6.45706 24.7755 8.45745 26.7759C10.4578 28.7763 13.1709 29.9001 15.9999 29.9001C18.8289 29.9001 21.542 28.7763 23.5424 26.7759C25.5428 24.7755 26.6666 22.0624 26.6666 19.2334C26.6666 10.8601 19.3866 5.38009 16.1733 3.36675ZM15.9999 27.1668C14.5854 27.1668 13.2289 26.6049 12.2287 25.6047C11.2285 24.6045 10.6666 23.2479 10.6666 21.8334C10.6666 18.2334 14.2933 16.1534 14.6666 14.1268C14.6828 14.043 14.7306 13.9686 14.8001 13.919C14.8695 13.8694 14.9554 13.8483 15.0399 13.8601C16.7853 14.3739 18.3282 15.417 19.4555 16.8452C20.5828 18.2734 21.2389 20.0164 21.3333 21.8334C21.3333 23.2479 20.7713 24.6045 19.7712 25.6047C18.771 26.6049 17.4144 27.1668 15.9999 27.1668Z" fill="white"/>
</svg>
