<svg width="110" height="24" viewBox="0 0 110 24" fill="none" xmlns="http://www.w3.org/2000/svg">
<path d="M49.5521 3.16968C47.2093 3.16968 45.0827 4.03393 43.641 5.47435C42.4155 3.99792 40.6133 3.16968 38.4147 3.16968C36.5044 3.16968 34.8103 3.81787 33.5488 4.93419C33.1163 3.85388 32.1071 3.16968 30.8455 3.16968C29.1154 3.16968 27.8179 4.50207 27.8179 6.30259V18.9063C27.8179 20.7068 29.1515 22.0392 30.9176 22.0392C32.6837 22.0392 34.0174 20.7068 34.0174 18.9063V11.4161C34.0174 9.7956 34.9905 8.7513 36.5044 8.7513C38.0542 8.7513 39.0635 9.7956 39.0635 11.4161V18.9063C39.0635 20.7068 40.3971 22.0392 42.1632 22.0392C43.9293 22.0392 45.2629 20.7068 45.2629 18.9063V11.4161C45.2629 9.7956 46.2361 8.7513 47.7499 8.7513C49.2998 8.7513 50.309 9.7956 50.309 11.4161V18.9063C50.309 20.7068 51.6426 22.0392 53.4088 22.0392C55.1749 22.0392 56.5085 20.7068 56.5085 18.9063V10.5158C56.5085 6.0145 53.8053 3.16968 49.5521 3.16968Z" fill="white"/>
<path fill-rule="evenodd" clip-rule="evenodd" d="M74.3703 5.87548C73.0604 8.01951 72.379 10.5762 72.5631 13.2738C72.7469 15.9674 73.7666 18.4049 75.3516 20.3501C74.8532 21.3747 73.8216 22.0392 72.5744 22.0392C70.8082 22.0392 69.4746 20.7068 69.4746 18.9063V11.4161C69.4746 9.83161 68.3933 8.7513 66.8435 8.7513C65.2936 8.7513 64.2483 9.83161 64.2483 11.4161V18.9063C64.2483 20.7068 62.9147 22.0392 61.1486 22.0392C59.3824 22.0392 58.0488 20.7068 58.0488 18.9063V6.30259C58.0488 4.50207 59.3464 3.16968 61.0765 3.16968C62.338 3.16968 63.3472 3.88989 63.8158 4.9702C65.0773 3.85388 66.8435 3.16968 68.7898 3.16968C71.2394 3.16968 73.1817 4.15851 74.3703 5.87548Z" fill="white"/>
<path d="M0.307872 8.15448C-0.426978 6.6492 0.198703 4.83376 1.70537 4.09958C3.21203 3.36541 5.02914 3.99051 5.76399 5.4958L11.7515 17.7608C12.4864 19.2661 11.8607 21.0815 10.354 21.8157C8.84737 22.5499 7.03026 21.9248 6.29541 20.4195L0.307872 8.15448Z" fill="white"/>
<path d="M8.47438 8.15448C7.73953 6.6492 8.36521 4.83376 9.87188 4.09958C11.3785 3.36541 13.1957 3.99051 13.9305 5.4958L19.918 17.7608C20.6529 19.2661 20.0272 21.0815 18.5205 21.8157C17.0139 22.5499 15.1968 21.9248 14.4619 20.4195L8.47438 8.15448Z" fill="white"/>
<path d="M25.9051 8.15448C26.6399 6.6492 26.0142 4.83376 24.5076 4.09958C23.0009 3.36541 21.1838 3.99051 20.4489 5.4958L14.4614 17.7608C13.7266 19.2661 14.3522 21.0815 15.8589 21.8157C17.3656 22.5499 19.1827 21.9248 19.9175 20.4195L25.9051 8.15448Z" fill="white"/>
<path fill-rule="evenodd" clip-rule="evenodd" d="M84.7601 0.904698C78.3898 1.33859 73.5779 6.85449 74.0126 13.2248C74.4473 19.5951 79.9639 24.4076 86.3343 23.9737L99.2252 23.0957C105.596 22.6618 110.407 17.1459 109.973 10.7755C109.538 4.40523 104.021 -0.407198 97.651 0.0266917L84.7601 0.904698ZM94.607 7.03665C94.6749 7.03203 94.7321 7.03367 94.7814 7.03509C94.8186 7.03616 94.8513 7.0371 94.8807 7.03511C95.4939 6.99334 95.8601 6.59225 95.8218 6.03066C95.7928 5.60521 95.5481 5.27993 95.1799 5.15113C94.8629 5.01885 94.5176 4.97398 94.0747 5.00415C92.1158 5.13758 91.0206 6.39189 91.1565 8.383L91.2505 9.76147L90.8758 9.78699C90.3137 9.82528 89.9157 10.2627 89.954 10.8243C89.9924 11.3859 90.4461 11.7653 91.0082 11.7271L91.3829 11.7015L91.7592 17.2154C91.8045 17.8791 92.3333 18.356 92.9976 18.3107C93.6449 18.2666 94.1052 17.7395 94.0588 17.0588L93.6825 11.5449L94.7386 11.473C95.3007 11.4347 95.6816 10.9984 95.6433 10.4368C95.605 9.87519 95.1683 9.49461 94.6062 9.5329L93.5501 9.60483L93.47 8.43058C93.4131 7.5967 93.8234 7.09002 94.607 7.03665ZM86.467 7.0098C86.4136 6.22697 87.0191 5.57023 87.8197 5.5157C88.5862 5.46349 89.2923 6.03089 89.3457 6.81372C89.398 7.57953 88.7755 8.23743 88.009 8.28965C87.2084 8.34418 86.5193 7.77562 86.467 7.0098ZM89.7738 17.3506C89.8191 18.0143 89.36 18.5585 88.6957 18.6038C88.0484 18.6479 87.5196 18.171 87.4743 17.5073L87.0318 11.0234C86.9865 10.3597 87.4468 9.83249 88.1112 9.78724C88.7584 9.74315 89.2861 10.203 89.3314 10.8667L89.7738 17.3506ZM84.8196 18.8678C85.4669 18.8237 85.926 18.2795 85.8807 17.6158L85.1421 6.7923C85.0968 6.1286 84.568 5.6517 83.9207 5.69579C83.2564 5.74104 82.7973 6.28523 82.8426 6.94894L83.5812 17.7724C83.6265 18.4361 84.1553 18.913 84.8196 18.8678ZM80.9269 19.1329C81.8296 19.0714 82.4463 18.3285 82.386 17.4435C82.3267 16.5756 81.6136 15.9061 80.7108 15.9676C79.791 16.0302 79.1585 16.7914 79.2177 17.6593C79.2781 18.5443 80.007 19.1956 80.9269 19.1329ZM95.8106 13.691C95.6398 11.1893 97.4005 9.15449 99.8874 8.98509C102.187 8.82846 104.004 10.3802 104.16 12.6606L104.163 12.7117C104.212 13.4264 103.732 13.9207 102.983 13.9718L98.1794 14.299C98.5239 15.3355 99.4174 15.8902 100.661 15.8055C101.274 15.7637 101.893 15.5506 102.382 15.1924C102.545 15.0787 102.695 15.0172 102.865 15.0056C103.393 14.9697 103.829 15.3332 103.865 15.8608C103.89 16.2352 103.739 16.5191 103.348 16.8192C102.617 17.382 101.715 17.7169 100.727 17.7842C98.0702 17.9652 95.9824 16.2096 95.8106 13.691ZM101.902 12.4212C101.799 11.4195 101.036 10.7704 99.9629 10.8435C98.9579 10.912 98.2537 11.6268 98.0691 12.6823L101.902 12.4212Z" fill="white"/>
</svg>
