<svg width="32" height="33" viewBox="0 0 32 33" fill="none" xmlns="http://www.w3.org/2000/svg">
<path d="M24.12 14.1267L14.7867 29.3533C14.6966 29.4989 14.5711 29.6193 14.4218 29.7032C14.2726 29.7872 14.1046 29.8319 13.9333 29.8333L13.6667 29.8333C13.5743 29.8332 13.4829 29.8142 13.398 29.7775C13.3132 29.7408 13.2368 29.6872 13.1733 29.62C13.1103 29.5526 13.0623 29.4726 13.0324 29.3852C13.0025 29.2979 12.9915 29.2052 13 29.1133L13.7467 20.5L8.98668 20.5C8.81066 20.4981 8.63816 20.4504 8.48619 20.3615C8.33423 20.2727 8.20802 20.1458 8.12001 19.9933L7.86668 19.5533C7.80426 19.4509 7.77124 19.3333 7.77124 19.2133C7.77124 19.0934 7.80426 18.9758 7.86668 18.8733L17.2 3.64667C17.2925 3.49722 17.4222 3.37439 17.5765 3.29024C17.7308 3.20608 17.9043 3.1635 18.08 3.16667L18.3467 3.16667C18.4391 3.16684 18.5305 3.18585 18.6153 3.22252C18.7001 3.2592 18.7766 3.31279 18.84 3.38C18.9031 3.44742 18.9511 3.52743 18.981 3.61476C19.0109 3.70209 19.0219 3.79476 19.0134 3.88667L18.2533 12.5L23.0134 12.5C23.1894 12.5019 23.3619 12.5496 23.5138 12.6385C23.6658 12.7273 23.792 12.8542 23.88 13.0067L24.1334 13.4467C24.1938 13.5503 24.2245 13.6686 24.2221 13.7885C24.2198 13.9085 24.1845 14.0255 24.12 14.1267Z" fill="white"/>
</svg>
