<svg width="134" height="144" viewBox="0 0 134 144" fill="none" xmlns="http://www.w3.org/2000/svg">
<circle cx="62" cy="77" r="62" fill="#FF597B"/>
<g clip-path="url(#clip0)">
<path d="M123.167 105.43C124.794 106.562 126.357 107.552 127.794 108.699C128.963 109.642 130.084 110.695 131.031 111.843C135.027 116.652 134.979 122.059 130.952 126.853C127.794 130.593 123.673 132.998 119.283 134.994C110.676 138.908 101.549 140.998 92.232 142.302C74.8299 144.723 57.4436 144.597 40.1047 141.721C31.4036 140.275 22.9079 138.09 14.9648 134.145C11.4118 132.369 8.06401 130.263 5.41106 127.261C0.910522 122.169 0.784191 116.338 5.45843 111.403C7.55868 109.171 10.2906 107.52 12.7856 105.65C13.4331 105.163 14.2226 104.849 15.0122 104.408C14.8859 104.078 14.8069 103.811 14.6964 103.575C11.9803 97.8859 10.2906 91.9448 10.3064 85.5951C10.3064 85.1236 10.0221 84.5892 9.7221 84.1963C8.00084 81.9645 6.21642 79.7641 4.47937 77.5323C2.56862 75.0804 2.88444 72.9114 5.36369 71.0097C6.13746 70.4124 6.89545 69.8152 7.68502 69.2336C9.78527 67.7091 12.2013 68.0706 13.7173 70.1609C15.1227 72.0941 16.6229 73.9802 17.7915 76.0391C18.8811 77.9881 20.4129 78.4596 22.6552 78.1767C22.6552 77.6108 22.6552 76.9979 22.6552 76.4006C22.6552 51.6462 22.6552 26.8918 22.6552 2.12162C22.6552 -0.188796 22.371 -0.000191037 24.7713 -0.000191037C53.6537 -0.000191037 82.5361 -0.000191037 111.418 -0.000191037C112.034 -0.000191037 112.65 0.0469603 113.408 0.0941116C113.408 28.8564 113.408 57.4772 113.408 86.1767C115.366 85.768 117.151 85.3122 118.967 85.0136C125.741 83.8977 129.215 87.4497 127.968 94.1609C127.21 98.2474 125.378 101.878 123.167 105.43ZM67.6448 76.4478C61.8652 76.9036 56.7014 75.8191 52.7851 71.544C48.8847 67.3004 47.9846 62.0823 48.3478 56.4242C59.2122 55.3711 66.65 59.5676 70.3293 70.0195C72.856 66.9861 75.8879 65.3358 79.741 64.9586C79.8042 65.9016 79.82 66.7189 79.8989 67.5205C79.9937 68.3063 79.7094 68.6364 78.9041 68.7935C72.8086 69.9723 70.7873 75.8662 71.2295 80.5185C71.7032 80.4399 72.1611 80.3613 72.6191 80.267C75.8721 79.6069 79.0936 78.7425 82.3782 78.3338C91.4108 77.1865 98.0906 80.4085 101.707 89.1315C101.88 89.5558 102.102 89.9645 102.307 90.4203C104.454 89.5873 106.428 88.7543 108.45 88.0627C109.397 87.7326 109.697 87.2769 109.681 86.2867C109.634 81.3829 109.65 76.4635 109.65 71.5598C109.65 49.5244 109.65 27.5047 109.65 5.46936C109.65 4.90354 109.65 4.35345 109.65 3.83478C81.7307 3.83478 54.0642 3.83478 26.3188 3.83478C26.3188 4.54205 26.3188 5.12358 26.3188 5.70512C26.3188 23.3083 26.3188 40.9114 26.3188 58.5146C26.3188 65.0214 26.3504 71.544 26.303 78.0509C26.303 78.9939 26.6504 79.3554 27.4558 79.7484C30.7878 81.3672 34.0566 83.0961 37.357 84.7935C37.8149 85.0293 38.2729 85.2965 38.794 85.5794C40.7995 82.4831 43.3893 80.2827 46.8002 79.1197C51.0165 77.6737 55.2644 77.9723 59.5281 78.8053C62.102 79.3083 64.6445 79.9527 67.2974 80.5499C67.4395 79.1511 67.5343 77.9095 67.6448 76.4478ZM100.601 103.953C100.617 98.8604 100.001 94.5067 98.2485 90.3574C95.5955 84.0548 90.8107 81.0843 84.0047 81.8387C80.5306 82.2317 77.0723 83.0175 73.6771 83.8348C70.7557 84.5421 67.9291 84.5264 65.0077 83.8191C61.502 82.9861 57.9489 82.1845 54.3801 81.823C47.9056 81.1629 43.184 84.0863 40.6416 90.0116C37.9255 96.3771 37.4991 103.041 38.715 109.768C40.8153 121.446 47.1476 129.603 58.9596 132.809C66.192 134.774 73.4718 134.664 80.6727 132.558C88.1736 130.357 93.7479 125.768 97.1904 118.711C99.5592 113.87 100.554 108.699 100.601 103.953ZM121.035 108.621C120.799 108.841 120.672 108.919 120.577 109.029C114.308 116.904 106.365 122.562 97.1273 126.491C96.5746 126.727 96.0535 127.151 95.6271 127.591C92.6899 130.735 89.2474 133.155 85.268 134.837C78.7619 137.587 71.9401 138.169 64.9919 137.587C56.7014 136.896 49.311 134.098 43.4367 127.953C42.9945 127.481 42.3313 127.183 41.6996 126.947C32.5406 123.505 24.6923 118.271 18.8179 110.35C18.1547 109.469 17.5388 108.558 16.9072 107.678C13.5436 109.108 10.0221 111.591 8.01663 113.933C5.03207 117.391 4.88995 121.21 7.95347 124.589C9.53261 126.334 11.4276 127.89 13.4331 129.131C20.0497 133.281 27.4558 135.481 35.0357 137.053C54.4274 141.092 73.9298 141.297 93.4795 138.436C102.149 137.163 110.645 135.104 118.604 131.316C122.188 129.603 125.599 127.607 128.189 124.495C130.921 121.21 130.984 117.721 128.363 114.389C126.42 111.89 123.846 110.145 121.035 108.621ZM37.0412 88.7385C34.3566 87.2768 31.7195 85.8152 29.0507 84.4163C25.5924 82.6089 21.9762 81.4144 17.981 81.8387C17.6494 81.8702 17.1598 81.4144 16.9072 81.0686C15.4228 79.0254 14.0016 76.935 12.533 74.8603C11.8381 73.8859 11.1275 72.9114 10.3222 71.8112C9.09045 72.77 8.00084 73.6187 6.8007 74.5303C7.24286 75.1118 7.59027 75.5833 7.93768 76.0391C9.86422 78.4281 11.7908 80.8171 13.6699 83.2376C13.97 83.6305 14.2226 84.1492 14.2542 84.6207C14.4753 87.4497 14.2384 90.3888 14.8543 93.1236C17.7441 106.027 25.6398 115.065 37.3254 121.021C37.7202 121.226 38.1465 121.383 38.8256 121.682C33.5986 110.805 33.0775 99.9448 37.0412 88.7385ZM100.633 120.691C101.044 120.487 101.501 120.33 101.88 120.078C105.181 117.752 108.655 115.631 111.703 112.99C117.182 108.243 121.572 102.601 123.783 95.5912C124.288 94.0195 124.32 92.2592 124.383 90.5932C124.415 89.4458 123.609 88.6442 122.441 88.5971C121.051 88.5499 119.551 88.4714 118.256 88.8643C113.74 90.2631 109.302 91.8977 104.818 93.3594C103.586 93.768 103.333 94.3495 103.57 95.5755C104.707 101.234 104.612 106.892 103.223 112.487C102.528 115.238 101.517 117.909 100.633 120.691ZM52.1061 60.1334C51.9798 68.2592 58.928 74.1059 67.0605 72.7071C66.65 65.8073 58.4858 58.9389 52.1061 60.1334Z" fill="black"/>
<path d="M62.7814 43.2848C62.7814 42.0903 62.7814 41.0373 62.7814 39.8428C74.0248 39.8428 85.2051 39.8428 96.5275 39.8428C96.5275 40.9273 96.5275 42.0589 96.5275 43.2848C85.3156 43.2848 74.1354 43.2848 62.7814 43.2848Z" fill="black"/>
<path d="M62.8281 19.7561C74.1505 19.7561 85.3308 19.7561 96.5901 19.7561C96.5901 20.9349 96.5901 22.0194 96.5901 23.2139C85.315 23.2139 74.1189 23.2139 62.8281 23.2139C62.8281 22.0665 62.8281 20.9663 62.8281 19.7561Z" fill="black"/>
<path d="M45.7103 26.5301C43.5943 24.424 41.4467 22.2708 39.2201 20.0704C39.9149 19.3788 40.7045 18.6087 41.7625 17.5714C42.9469 19.0173 44.0996 20.4319 45.3945 22.0036C48.6002 18.7187 51.4426 15.811 54.2377 12.9348C55.2957 13.8778 56.1642 14.6323 56.9538 15.3395C53.0849 19.1902 49.3423 22.9152 45.7103 26.5301Z" fill="black"/>
<path d="M39.3779 40.0785C39.978 39.4341 40.736 38.6325 41.7308 37.5794C43.0099 39.0568 44.1943 40.44 45.5681 42.0431C48.679 38.8525 51.5215 35.9449 54.3797 33.0215C55.2798 33.9331 56.0694 34.7189 56.7958 35.4576C53.0375 39.1197 49.2633 42.7975 45.5839 46.381C43.689 44.4478 41.5571 42.2946 39.3779 40.0785Z" fill="black"/>
<path d="M85.6627 89.0371C85.6627 87.7483 85.6627 86.6481 85.6627 85.4378C88.9947 85.3121 91.6319 86.4123 93.4794 89.1471C95.5481 92.2119 96.4008 95.7011 96.7167 99.3003C96.9062 101.501 96.7483 103.717 96.7483 106.059C95.6113 105.964 94.5059 105.886 93.4163 105.791C93.2742 103.387 93.2426 101.061 92.9425 98.7659C92.7215 97.0528 92.2477 95.3396 91.695 93.6893C90.7317 90.8917 89.0737 88.8013 85.6627 89.0371Z" fill="black"/>
</g>
<defs>
<clipPath id="clip0">
<rect width="132" height="144" fill="white" transform="translate(2)"/>
</clipPath>
</defs>
</svg>
