<svg width="126" height="124" viewBox="0 0 126 124" fill="none" xmlns="http://www.w3.org/2000/svg">
<circle cx="64" cy="62" r="62" fill="#FFCB8D"/>
<g clip-path="url(#clip0)">
<path d="M66.5951 66.7325C69.3067 69.149 71.9785 71.5455 74.6702 73.9221C83.7423 81.9705 92.8542 89.979 101.847 98.1073C105.037 101.003 105.974 104.818 104.817 108.952C103.641 113.146 100.81 115.802 96.5429 116.7C92.4555 117.559 88.9064 116.381 86.115 113.225C76.1058 101.982 66.1365 90.6979 56.1672 79.4342C56.0475 79.3143 55.9478 79.1945 55.7484 78.9748C54.4524 80.4327 53.1763 81.8507 51.9003 83.2886C44.0843 92.1159 36.2484 100.943 28.4325 109.77C27.1963 111.168 26.0199 112.606 24.684 113.904C20.3574 118.158 13.3988 117.939 9.15184 113.485C5.04448 109.171 5.24386 101.982 9.71012 97.9874C18.0046 90.5581 26.3389 83.1888 34.6733 75.7994C35.75 74.8408 37.0261 74.8408 37.8635 75.7794C38.681 76.6981 38.5613 77.9763 37.4846 78.9349C31.1242 84.6267 24.7239 90.2985 18.3635 95.9703C16.4693 97.6479 14.5751 99.3055 12.7009 101.003C9.76993 103.659 9.6503 107.993 12.362 110.729C15.1135 113.525 19.4801 113.465 22.112 110.529C30.546 101.043 38.9601 91.5367 47.3742 82.0504C55.1303 73.303 62.8865 64.5356 70.6426 55.7683C71.9785 54.2704 72.457 54.1506 74.3711 54.8896C78.638 56.5671 83.2438 55.5885 86.4739 52.3332C95.3266 43.446 104.179 34.5788 113.032 25.7116C114.528 24.2138 116.442 24.5333 116.94 26.3307C117.199 27.2494 116.821 27.9284 116.182 28.5475C110.42 34.2992 104.658 40.0709 98.9156 45.8426C95.7454 49.018 92.615 52.2334 89.4049 55.3689C85.1181 59.5428 80.0337 60.7611 74.2714 59.3232C73.5935 59.1434 73.1947 59.2233 72.7362 59.7625C70.7224 62.0992 68.6687 64.3958 66.5951 66.7325ZM58.5598 75.7994C58.7991 76.079 58.9586 76.2787 59.138 76.4784C63.5644 81.4712 67.9908 86.484 72.4371 91.4768C78.0398 97.7877 83.6426 104.119 89.2454 110.429C90.5015 111.847 92.0567 112.646 93.9309 112.766C96.7622 112.946 99.4739 111.208 100.511 108.652C101.667 105.796 100.949 102.96 98.5368 100.823C88.707 92.0759 78.8773 83.3286 69.0276 74.6011C67.2929 73.0634 65.5582 71.5256 63.7638 69.9478C62.0092 71.905 60.3144 73.8023 58.5598 75.7994Z" fill="black"/>
<path d="M55.7287 57.0671C58.4005 54.6905 61.0324 52.3738 63.6443 49.9973C63.8238 49.8375 63.9035 49.4181 63.8238 49.1585C62.129 42.8276 63.744 37.4953 68.3897 32.9019C77.083 24.2943 85.6965 15.6068 94.3299 6.93933C94.9081 6.36017 95.5262 5.88086 96.4035 6.00069C97.2609 6.12051 97.8591 6.57985 98.1581 7.41864C98.4572 8.31735 98.198 9.05628 97.56 9.69536C95.606 11.6525 93.6719 13.6097 91.718 15.5469C84.7793 22.4969 77.8606 29.4269 70.922 36.3769C67.3131 39.9917 66.4358 44.4253 68.3698 49.1784C68.8683 50.3767 68.7088 51.1556 67.7118 52.0343C61.6106 57.4665 55.5094 62.8987 49.4082 68.3308C48.2716 69.3494 47.1351 69.2895 46.0983 68.1311C43.6858 65.435 41.2931 62.7189 38.8805 60.0028C38.7011 59.8031 38.5217 59.6234 38.3223 59.4037C35.4511 60.7418 32.4802 61.5806 29.31 61.6405C23.5876 61.7603 18.583 59.9429 14.4358 56.0485C9.2916 51.1955 5.1643 45.5437 2.45264 38.9532C0.797736 34.9589 -0.159319 30.8249 0.0201286 26.4512C0.319208 18.303 6.02166 12.3116 14.1367 11.6525C19.4603 11.2132 24.3852 12.5912 29.1306 14.828C35.152 17.6639 40.5155 21.4784 44.8223 26.5511C50.5447 33.2814 51.5216 40.9303 48.1321 49.0786C47.833 49.7976 47.8928 50.1371 48.471 50.6563C50.6643 52.5336 52.7977 54.4908 54.9511 56.408C55.1904 56.6477 55.4496 56.8474 55.7287 57.0671ZM52.5186 59.923C49.6674 57.3866 46.9158 54.9302 44.1643 52.4737C42.6689 51.1356 42.5692 50.5565 43.5661 48.779C47.1551 42.4282 46.4373 34.6394 41.5324 29.2072C37.3253 24.5539 32.3207 20.8992 26.5784 18.3229C22.7103 16.5854 18.6827 15.5469 14.356 15.8864C9.47105 16.2659 5.66277 19.4813 4.58608 24.2743C3.70878 28.1887 4.42657 31.9433 5.70264 35.618C7.85602 41.7891 11.6045 46.9217 15.971 51.6948C21.5339 57.7661 30.3667 59.3638 37.6244 54.9901C38.721 54.331 39.6781 54.5507 40.5554 55.5293C42.7287 57.9858 44.902 60.4622 47.0953 62.9186C47.3943 63.2582 47.7134 63.5777 48.0324 63.9172C49.5677 62.5592 51.0032 61.281 52.5186 59.923Z" fill="black"/>
<path d="M84.3802 41.8483C84.6793 41.329 84.8787 40.69 85.2775 40.2706C92.4354 33.061 99.6333 25.8713 106.811 18.6817C107.748 17.743 109.044 17.7231 109.902 18.6018C110.779 19.4805 110.679 20.7587 109.662 21.7772C102.784 28.6673 95.9048 35.5574 89.0259 42.4474C88.667 42.8069 88.348 43.1864 87.9692 43.5059C87.3112 44.0651 86.5336 44.2049 85.7361 43.8255C84.9983 43.466 84.5398 42.8469 84.3802 41.8483Z" fill="black"/>
<path d="M80.8116 38.2935C79.8146 38.1537 79.1766 37.7543 78.7978 36.9554C78.3591 36.0368 78.5784 35.198 79.2564 34.499C81.0708 32.6616 82.9051 30.8243 84.7395 28.9869C90.0631 23.6546 95.3867 18.3223 100.71 12.99C101.628 12.0713 102.545 11.8916 103.482 12.3908C104.259 12.8102 104.738 13.7489 104.459 14.6875C104.299 15.2467 103.881 15.8059 103.462 16.2253C97.7594 21.977 92.0171 27.7088 86.2947 33.4405C84.9787 34.7586 83.6827 36.0967 82.3468 37.3748C81.9281 37.7743 81.33 37.9939 80.8116 38.2935Z" fill="black"/>
</g>
<defs>
<clipPath id="clip0">
<rect width="117" height="111" fill="white" transform="translate(0 6)"/>
</clipPath>
</defs>
</svg>
