<svg width="134" height="134" viewBox="0 0 134 134" fill="none" xmlns="http://www.w3.org/2000/svg">
<g clip-path="url(#clip0)">
<circle cx="68" cy="67" r="62" fill="#FFCB8D"/>
<path d="M66.9564 95.8901C66.0337 98.3517 65.199 100.549 64.3862 102.747C60.7836 112.527 57.2029 122.308 53.6003 132.066C53.0731 133.517 52.4141 133.956 50.8983 133.956C46.7685 133.956 42.6167 133.956 38.4869 133.956C36.3121 133.956 35.3895 132.681 35.9606 130.571C40.2662 114.813 44.5718 99.0549 48.8554 83.2747C49.0311 82.6154 49.141 81.9121 49.141 81.2308C49.1629 75.5165 49.1629 69.8022 49.141 64.0879C49.141 63.4725 48.9432 62.7692 48.6357 62.2418C40.8154 48.6813 32.9731 35.1209 25.1308 21.5824C24.2301 20.022 24.4278 19.011 25.8996 17.8901C28.5796 15.8681 31.2816 13.8462 33.9836 11.8462C35.5872 10.6593 36.8393 10.8791 37.9157 12.5934C40.7714 17.1429 43.6052 21.7143 46.461 26.2857C50.5908 32.9011 54.6987 39.5165 58.8724 46.1099C59.0921 46.4615 59.6632 46.7692 60.0587 46.7692C64.6718 46.8132 69.2849 46.8132 73.898 46.7692C74.3154 46.7692 74.8865 46.4615 75.1062 46.1099C82.0259 35.1209 88.8796 24.0879 95.7774 13.0769C96.0849 12.5934 96.4144 12.0879 96.8318 11.6703C97.6006 10.9231 98.677 10.8791 99.6436 11.5824C102.565 13.7363 105.465 15.8901 108.343 18.1099C109.617 19.0769 109.727 20.1099 108.87 21.5824C104.323 29.4286 99.7974 37.2967 95.2501 45.1429C91.9111 50.9011 88.5721 56.6593 85.2551 62.4396C84.9915 62.8791 84.8596 63.4725 84.8596 63.978C84.8377 69.8022 84.7278 75.6264 84.9036 81.4506C84.9695 83.3846 85.6944 85.2967 86.1996 87.1868C90.1098 101.604 94.0639 116.044 97.996 130.462C98.6111 132.725 97.7105 133.956 95.4039 133.978C91.34 133.978 87.276 133.978 83.2121 133.978C81.5426 133.978 80.9495 133.56 80.3564 131.978C76.0728 120.352 71.7672 108.725 67.4836 97.0989C67.3518 96.7692 67.198 96.4615 66.9564 95.8901ZM98.8747 16.5714C98.677 16.8571 98.5452 17.033 98.4354 17.2088C91.6695 28.044 84.9036 38.8571 78.1596 49.7143C77.5006 50.7912 76.6659 51.3187 75.3918 51.2967C69.7901 51.2747 64.1885 51.2747 58.5869 51.2967C57.3567 51.2967 56.5219 50.8352 55.8849 49.7802C49.141 38.9451 42.3531 28.1099 35.5872 17.2967C35.4334 17.0549 35.2577 16.8571 35.06 16.5934C33.2587 17.956 31.5013 19.2747 29.7439 20.5934C29.9855 21.0549 30.1613 21.4066 30.359 21.7582C37.8498 34.7033 45.3626 47.6484 52.8314 60.6154C53.2708 61.4066 53.5344 62.3956 53.5564 63.2967C53.6223 69.3407 53.6003 75.3846 53.5783 81.4286C53.5783 82.3297 53.4465 83.2527 53.2269 84.1319C49.6682 97.2527 46.0875 110.374 42.5069 123.495C41.9796 125.451 41.4524 127.407 40.8813 129.516C43.4954 129.516 45.9557 129.451 48.3941 129.538C49.5144 129.582 49.9537 129.187 50.3272 128.154C55.0721 115.143 59.861 102.132 64.6498 89.1429C65.199 87.6264 65.836 87.0769 67.0003 87.0769C68.1646 87.0769 68.7796 87.6264 69.3508 89.1648C72.1846 96.8791 75.0403 104.593 77.8741 112.33C79.8511 117.714 81.8282 123.099 83.8272 128.484C83.981 128.879 84.3544 129.473 84.64 129.473C87.4078 129.538 90.1757 129.516 93.0534 129.516C92.9656 129.033 92.8996 128.681 92.8118 128.352C88.8577 113.868 84.8816 99.3626 80.9495 84.8571C80.598 83.5604 80.4223 82.1978 80.4223 80.8571C80.3564 74.989 80.3564 69.1429 80.4223 63.2747C80.4223 62.3736 80.7078 61.3626 81.1472 60.5934C88.616 47.6264 96.1288 34.6813 103.62 21.7363C103.839 21.3626 104.015 20.989 104.213 20.5714C102.411 19.2308 100.676 17.9341 98.8747 16.5714Z" fill="black"/>
<path d="M118.359 53.1429C121.764 51.3407 125.323 51.3187 128.86 51.3187C130.924 51.3187 131.825 52.1319 131.737 54.1538C131.627 56.7033 131.474 59.2747 131.078 61.7802C130.485 65.4725 127.607 68 123.368 68.6813C122.006 68.9011 120.6 68.9451 119.238 69.1429C118.93 69.1868 118.403 69.5604 118.403 69.8022C118.337 72.7033 118.359 75.5824 118.359 78.4835C118.359 78.7692 118.381 79.055 118.403 79.4286C119.436 78.8132 120.358 78.1758 121.325 77.6703C124.664 75.9121 128.288 75.8462 131.913 75.9561C133.011 76 133.846 76.7033 133.912 77.8022C134.154 81.6044 133.934 85.3626 132.111 88.8132C129.892 93.011 126.223 95.0549 121.654 95.7363C120.622 95.8901 119.545 95.956 118.425 96.0659C118.425 98.7473 118.425 101.429 118.425 104.176C119.26 103.582 120.007 103.011 120.82 102.527C124.29 100.484 128.113 100.33 131.979 100.527C133.055 100.593 133.89 101.407 133.934 102.44C134.088 107.275 133.912 112.044 131.408 116.396C129.277 120.066 125.938 121.868 121.874 122.527C120.754 122.703 119.633 122.769 118.381 122.879C118.381 126.527 118.381 130.176 118.381 133.89C116.844 133.89 115.438 133.89 113.878 133.89C113.878 130.264 113.878 126.593 113.878 123.055C111.703 122.659 109.66 122.484 107.705 121.912C100.961 119.978 97.3586 115.231 96.2822 108.462C95.9966 106.659 96.0186 104.813 95.9966 102.989C95.9746 101.582 96.7435 100.615 97.9956 100.527C102.675 100.264 107.222 100.725 111.242 103.429C112.077 104 112.845 104.681 113.724 105.363C113.724 102.22 113.724 99.1429 113.724 96.0879C112.274 95.8901 110.868 95.7802 109.484 95.5165C103.136 94.2857 98.8963 89.5385 98.391 83.0769C98.2812 81.5824 98.2153 80.0879 98.2373 78.5714C98.2592 76.7033 99.094 75.8901 100.939 75.8901C104.476 75.8901 107.969 76.022 111.176 77.7802C112.033 78.2418 112.823 78.8352 113.746 79.4286C113.768 79.0989 113.834 78.7912 113.834 78.4835C113.834 75.7802 113.79 73.055 113.856 70.3517C113.878 69.3626 113.548 69.1429 112.626 69.0989C110.912 68.989 109.177 68.8571 107.529 68.4396C103.927 67.5165 101.708 65.0989 101.093 61.4506C100.676 59.011 100.61 56.5055 100.5 54.022C100.434 52.1758 101.335 51.2528 103.18 51.3407C105.838 51.4725 108.496 51.7363 111.132 52.0659C112.011 52.1758 112.824 52.6593 113.834 53.0549C113.834 51.7143 113.856 50.3956 113.812 49.1209C113.812 48.9011 113.461 48.5934 113.197 48.4835C109.221 46.7033 107.398 43.4725 107.222 39.2747C107.09 36.3297 108.76 34.1319 110.824 32.2857C112.033 31.1868 113.439 30.2637 114.844 29.4506C115.394 29.1209 116.36 28.989 116.887 29.2308C120.029 30.7033 122.621 32.8352 124.29 35.978C126.267 39.7363 124.181 46.2637 119.458 48.2637C118.623 48.6154 118.271 49.033 118.359 49.956C118.403 50.9451 118.359 51.956 118.359 53.1429ZM113.724 118.242C114.098 109.582 108.518 104.703 100.61 105.077C100.368 113.099 104.981 118.33 113.724 118.242ZM118.381 118.286C120.688 118.264 122.841 118.022 124.796 116.923C126.553 115.934 127.695 114.418 128.376 112.505C129.255 110.066 129.453 107.56 129.497 104.945C125.828 105.055 122.445 105.56 120.38 108.901C118.623 111.736 118.425 114.945 118.381 118.286ZM129.475 80.4615C122.094 80.1539 118.03 84.8132 118.535 91.4506C125.389 91.5165 129.453 87.9561 129.475 80.4615ZM113.702 91.4945C114.185 84.5714 109.814 80.1099 102.872 80.4835C102.477 86.5275 105.772 91.4945 113.702 91.4945ZM111.571 39.2308C111.747 40.8571 112.23 42.2857 113.395 43.4286C115.086 45.0769 117.656 44.989 119.106 43.1209C120.995 40.6593 121.347 38.1978 118.777 35.9341C115.767 33.2747 116.536 33.2747 113.504 35.9121C112.977 36.3517 112.538 36.9231 112.186 37.5165C111.879 38.022 111.769 38.6374 111.571 39.2308ZM118.162 64.5275C124.686 65.4286 128.574 61.4725 127.014 55.6484C125.455 55.8462 123.851 55.956 122.291 56.2637C120.71 56.5934 119.436 57.5385 119.062 59.1868C118.645 60.9451 118.447 62.7253 118.162 64.5275ZM104.718 55.6264C105.069 57.7802 105.267 59.6484 105.706 61.4506C105.992 62.6374 106.87 63.5824 108.035 63.8681C109.88 64.3297 111.769 64.5495 113.988 64.9451C113.768 62.967 113.658 61.3846 113.373 59.8242C112.977 57.7143 111.549 56.5275 109.506 56.1758C108.079 55.9121 106.629 55.8462 104.718 55.6264Z" fill="black"/>
<path d="M15.6189 66.945C14.257 66.945 12.917 66.945 11.555 66.945C9.97335 66.923 9.22647 66.3296 8.89696 64.7472C8.65532 63.6044 8.43565 62.4615 8.25991 61.2967C8.15008 60.5274 7.84254 60.1538 7.00778 59.978C0.834995 58.6153 -1.95484 51.6483 1.51598 46.3736C2.54844 44.7912 3.95434 43.6483 5.73368 43.0109C6.48057 42.7472 6.74417 42.3956 6.81008 41.6044C7.07368 37.1208 10.8301 33.5824 15.4432 33.4505C19.9025 33.3186 23.8786 36.7032 24.4058 41.1428C24.5376 42.1538 24.8012 42.7472 25.8996 43.1868C29.656 44.7252 31.6111 48.3956 31.1497 52.6153C30.7983 56.0219 27.8547 59.1868 24.2301 59.978C23.4393 60.1538 23.0878 60.4395 22.9999 61.2967C22.8681 62.5274 22.5825 63.7582 22.297 64.967C21.9675 66.3736 21.2425 66.923 19.8147 66.945C18.3868 66.945 17.0029 66.945 15.6189 66.945ZM18.1012 62.5054C18.1891 62.3076 18.233 62.1978 18.255 62.0879C18.5186 60.7692 18.7822 59.4285 19.0458 58.1098C19.4193 56.1978 20.0563 55.6923 22.0334 55.7142C24.6255 55.7582 26.6245 53.978 26.7343 51.5164C26.8661 49.0109 24.977 46.945 22.3848 46.7912C19.9684 46.6373 19.3314 45.7582 19.9025 43.3626C20.3199 41.5384 19.6389 39.7142 18.1012 38.6373C16.6075 37.6044 14.5645 37.6043 13.0488 38.6593C11.533 39.7142 10.8301 41.6043 11.2694 43.3846C11.8406 45.7362 11.2035 46.6153 8.76516 46.7692C6.28286 46.923 4.30581 49.0329 4.41565 51.4065C4.52549 53.8681 6.54647 55.7142 9.0727 55.6923C11.1816 55.6703 11.8845 56.2637 12.236 58.3296C12.4337 59.4505 12.5875 60.5714 12.8511 61.6703C12.917 61.978 13.2684 62.4175 13.532 62.4395C15.0697 62.5494 16.6075 62.5054 18.1012 62.5054Z" fill="black"/>
<path d="M17.047 134C10.8743 133.627 5.8877 130.835 3.2077 124.923C0.395898 118.77 1.36246 112.923 5.8218 107.759C7.11786 106.242 8.34803 106.22 9.75393 107.627C15.8388 113.693 21.9238 119.781 28.0087 125.89C29.3926 127.275 29.3048 128.506 27.8549 129.824C24.8674 132.572 21.3087 133.89 17.047 134ZM12.2802 128.264C12.9392 125.868 13.5543 123.605 14.2133 121.121C11.687 121.539 9.35852 121.912 6.92016 122.33C8.06245 125.011 9.71 126.923 12.2802 128.264ZM23.2418 127.781C21.5943 126.154 19.9687 124.572 18.3651 122.989C17.8159 125.011 17.2447 127.143 16.6297 129.407C19.09 129.583 21.1988 128.989 23.2418 127.781ZM12.368 116.901C10.8523 115.385 9.38049 113.89 7.88672 112.418C6.85426 114 6.28311 115.802 6.23918 117.912C8.41393 117.539 10.4129 117.209 12.368 116.901Z" fill="black"/>
<path d="M27.2617 70.1099C28.4699 71.011 29.6122 71.8681 30.6446 72.6593C29.6341 74.6154 28.6895 76.4615 27.679 78.4395C28.2282 78.6593 28.6236 78.8351 29.019 78.989C37.6741 81.9121 40.7935 92.989 34.8843 99.956C29.6341 106.154 21.001 106.637 15.1577 101.077C9.05085 95.2747 10.1053 84.7692 17.3105 80.3736C18.7823 79.4725 20.4958 78.989 22.1433 78.4395C22.8682 78.1978 23.3076 77.978 23.5492 77.1868C24.362 74.6593 25.5482 72.3296 27.2617 70.1099ZM22.2971 83.011C17.7279 84.2417 15.0479 88.4835 15.7728 93.0329C16.4538 97.3187 20.4958 100.637 24.8013 100.44C29.5682 100.22 33.1489 96.7033 33.4564 91.8901C33.72 87.8461 30.6886 83.7582 26.7784 83.0549C26.7784 84.2857 26.7784 85.5165 26.7784 86.8351C25.2627 86.989 23.8568 87.1209 22.319 87.2747C22.2971 85.7802 22.2971 84.4395 22.2971 83.011Z" fill="black"/>
<path d="M66.9785 42.3296C59.6195 42.3296 53.5786 36.2637 53.6005 28.901C53.6225 21.6263 59.6635 15.5823 66.9566 15.5384C74.3156 15.5164 80.4005 21.6483 80.3785 29.0329C80.3346 36.3296 74.2717 42.3516 66.9785 42.3296ZM67.0225 20.0659C62.1018 20.0439 58.0599 24.0439 58.0599 28.945C58.0599 33.8021 62.1677 37.912 67.0005 37.89C71.8113 37.8681 75.8313 33.8681 75.8972 29.0109C75.9851 24.1538 71.9431 20.0878 67.0225 20.0659Z" fill="black"/>
<path d="M13.4445 20.0439C13.4445 18.4835 13.4445 17.0769 13.4445 15.5604C15.5314 15.5604 17.5744 15.5384 19.5953 15.5824C19.7711 15.5824 20.0786 16 20.0786 16.2198C20.1226 17.2747 20.1226 18.3297 20.0786 19.3846C20.0567 19.6044 19.7491 20 19.5514 20C17.5304 20.0659 15.5094 20.0439 13.4445 20.0439Z" fill="black"/>
<path d="M113.857 15.6262C116.185 15.6262 118.316 15.6262 120.535 15.6262C120.535 17.0987 120.535 18.5053 120.535 20.0658C118.47 20.0658 116.427 20.0878 114.406 20.0438C114.23 20.0438 113.901 19.7141 113.901 19.5383C113.835 18.2416 113.857 16.9669 113.857 15.6262Z" fill="black"/>
<path d="M33.4126 6.57143C31.8749 6.57143 30.5129 6.57143 29.085 6.57143C29.085 4.37363 29.085 2.24176 29.085 0C30.5129 0 31.9408 0 33.4126 0C33.4126 2.1978 33.4126 4.35165 33.4126 6.57143Z" fill="black"/>
<path d="M104.894 6.57143C103.444 6.57143 102.06 6.57143 100.588 6.57143C100.588 4.43956 100.588 2.26374 100.588 0C101.972 0 103.4 0 104.894 0C104.894 2.15385 104.894 4.28571 104.894 6.57143Z" fill="black"/>
<path d="M20.6496 10.1101C19.3316 8.79145 17.9037 7.36287 16.4539 5.91232C17.4204 4.96727 18.4309 3.95628 19.3535 3.0332C20.7375 4.41782 22.1653 5.84639 23.5493 7.20903C22.6486 8.15408 21.6162 9.16507 20.6496 10.1101Z" fill="black"/>
<path d="M113.175 10.1975C112.209 9.25247 111.22 8.30742 110.298 7.40632C111.791 5.95577 113.263 4.50522 114.691 3.12061C115.526 3.95577 116.514 4.96676 117.481 5.93379C116.053 7.34039 114.603 8.79094 113.175 10.1975Z" fill="black"/>
</g>
<defs>
<clipPath id="clip0">
<rect width="134" height="134" fill="white"/>
</clipPath>
</defs>
</svg>
