<svg width="134" height="125" viewBox="0 0 134 125" fill="none" xmlns="http://www.w3.org/2000/svg">
<circle cx="72" cy="63" r="62" fill="#D32929" fill-opacity="0.54"/>
<g clip-path="url(#clip0)">
<path d="M29.8999 64.8032C26.7514 64.5328 23.7697 63.9089 20.9549 62.7443C9.54957 58.0442 2.58543 49.6422 0.458657 37.4968C-0.104312 34.2733 0.0624938 30.925 0.041643 27.6183C-0.0209091 22.1279 0.0207923 16.6583 0.041643 11.1679C0.041643 9.12979 1.08418 8.11074 3.12755 8.11074C5.73389 8.11074 8.34023 8.11074 10.9466 8.13153C11.4053 8.13153 11.6972 8.00675 11.9682 7.61161C13.4904 5.55272 16.1592 4.82482 18.4528 5.80228C20.8089 6.82133 22.1017 9.21297 21.6638 11.771C21.2468 14.225 19.1617 16.0968 16.618 16.2007C14.6997 16.2839 13.1359 15.5144 11.9474 13.9755C11.7806 13.7675 11.5304 13.5179 11.301 13.5179C9.40361 13.4763 7.5062 13.4971 5.52538 13.4971C5.50453 13.8299 5.48368 14.1003 5.48368 14.3914C5.48368 20.5473 5.46283 26.7032 5.48368 32.8799C5.52538 45.566 14.8248 56.5884 27.5229 59.0216C41.3469 61.6836 54.8999 53.3856 58.7572 39.9092C59.4453 37.476 59.7998 34.9804 59.8206 32.4431C59.8206 26.4328 59.8206 20.4433 59.8206 14.433C59.8206 14.1626 59.8206 13.8715 59.8206 13.4971C57.7981 13.4971 55.859 13.4763 53.899 13.5179C53.7114 13.5179 53.482 13.7883 53.3361 13.9755C51.8974 15.7848 50.0208 16.5751 47.7481 16.0552C45.5796 15.556 44.2034 14.1626 43.6613 11.9998C43.0567 9.52493 44.2868 7.0085 46.6847 5.86467C48.9157 4.80403 51.7514 5.46953 53.211 7.46603C53.5654 7.94436 53.9199 8.11074 54.4828 8.11074C57.0892 8.08994 59.6955 8.08994 62.3019 8.08994C64.1159 8.08994 65.2418 9.17138 65.2627 10.9807C65.2835 18.3012 65.3878 25.6425 65.2418 32.9631C64.9499 48.5608 53.6905 61.642 38.3235 64.3872C37.3853 64.5536 36.4261 64.6576 35.4253 64.7824C35.4253 66.051 35.3836 67.2988 35.4253 68.5258C35.5921 72.5812 36.03 76.595 37.281 80.5048C39.658 87.9709 44.5371 93.0454 52.0433 95.3538C60.321 97.8911 68.7239 98.1614 77.1476 95.9361C78.2526 95.645 79.2952 95.1667 80.3794 94.7923C80.7964 94.6467 80.9215 94.418 80.9007 93.9812C80.6713 89.9258 80.4837 85.8912 80.2335 81.8358C80.2126 81.5863 79.8582 81.2535 79.5662 81.1495C76.8139 80.0265 74.0617 78.9451 71.3094 77.8428C70.9341 77.6972 70.6421 77.5725 70.6421 77.0525C70.663 69.8776 70.4962 62.7027 70.7464 55.5277C71.0383 47.0426 74.854 40.2212 81.6096 35.1259C96.6638 23.7708 118.828 31.2577 123.937 49.3718C124.625 51.8051 124.979 54.3007 125 56.8379C125 63.4929 125 70.148 125.021 76.803C125.021 77.3853 124.854 77.6765 124.291 77.8844C121.622 78.9035 118.974 80.0057 116.305 81.0248C115.701 81.2535 115.409 81.5447 115.367 82.231C115.221 85.7665 115.012 89.2811 114.825 92.8166C114.533 98.2446 114.241 103.652 113.949 109.08C113.782 112.199 113.615 115.298 113.449 118.418C113.449 118.605 113.428 118.771 113.407 119C103.023 119 92.6605 119 82.2143 119C82.1517 118.168 82.0892 117.315 82.0475 116.463C81.8807 113.198 81.7139 109.932 81.5262 106.647C81.5054 106.168 81.6305 105.939 82.11 105.752C83.507 105.191 84.8832 104.567 86.2593 103.964C86.4261 103.901 86.5929 103.839 86.8014 103.756C86.9891 107.063 87.1768 110.286 87.3644 113.572C94.3285 113.572 101.251 113.572 108.257 113.572C108.361 111.763 108.465 109.953 108.57 108.144C108.861 102.591 109.153 97.0384 109.445 91.4856C109.675 87.1598 109.904 82.8133 110.113 78.4875C110.133 77.8636 110.321 77.5933 110.905 77.3645C113.595 76.3247 116.263 75.2224 118.953 74.1618C119.391 73.9954 119.537 73.7874 119.537 73.3299C119.516 67.4652 119.746 61.5588 119.454 55.7149C119.057 47.7913 115.221 41.7186 108.236 37.8503C95.1834 30.6546 78.9199 38.4742 76.3969 53.1361C76.0425 55.1326 76.0842 57.2331 76.0633 59.2712C76.0216 63.9297 76.0633 68.5674 76.0425 73.2259C76.0425 73.7458 76.2093 73.9954 76.6888 74.1826C79.3994 75.2432 82.0892 76.3455 84.8206 77.4061C85.2793 77.5725 85.4461 77.822 85.467 78.3004C85.6338 81.9398 85.8423 85.5585 86.0508 89.1979C86.0925 89.7803 86.1342 90.3834 86.1551 90.9657C86.2176 91.0073 86.2802 91.0489 86.3636 91.0905C87.0099 90.425 87.6563 89.7595 88.261 89.094C91.6805 85.2881 93.4945 80.7336 94.4954 75.7839C95.2043 72.2277 95.1 68.6506 95.1209 65.0735C95.1209 64.5536 94.8081 64.4912 94.4537 64.3664C90.4295 62.9106 87.9274 60.1238 87.0934 55.9021C85.9674 50.1621 90.3044 44.2142 96.1426 43.4239C102.043 42.6336 107.298 46.3355 108.486 52.1586C109.529 57.2331 106.464 62.5155 101.418 64.2624C100.667 64.512 100.5 64.8655 100.5 65.5726C100.459 68.3178 100.563 71.1046 100.25 73.829C99.0825 84.0195 94.8498 92.4631 85.8006 97.995C81.9224 100.366 77.6897 101.738 73.2068 102.342C66.0341 103.34 58.9032 102.924 51.9182 100.969C45.7673 99.2429 40.4712 96.1441 36.5512 90.9865C33.4862 86.9727 31.7764 82.3766 30.8381 77.4685C30.1084 73.5795 29.879 69.628 29.879 65.6766C29.8999 65.4063 29.8999 65.1567 29.8999 64.8032ZM97.7689 59.4583C100.813 59.4583 103.232 57.1291 103.253 54.1551C103.274 51.1396 100.834 48.7063 97.8106 48.7063C94.7664 48.7063 92.4103 51.0564 92.3894 54.0719C92.3686 57.0875 94.7247 59.4583 97.7689 59.4583Z" fill="black"/>
<path d="M97.8106 0C105.296 0 111.364 6.0727 111.364 13.518C111.364 20.9633 105.254 27.036 97.7689 27.0152C90.3043 27.0152 84.1742 20.9009 84.1742 13.4764C84.2159 6.0727 90.346 0 97.8106 0ZM105.942 13.5388C105.963 9.00507 102.398 5.428 97.8523 5.3864C93.3485 5.34481 89.6788 8.96348 89.6579 13.4764C89.6371 17.9893 93.2442 21.5872 97.7689 21.6288C102.314 21.6288 105.921 18.0725 105.942 13.5388Z" fill="black"/>
</g>
<defs>
<clipPath id="clip0">
<rect width="125" height="119" fill="white"/>
</clipPath>
</defs>
</svg>
