<svg width="142" height="142" viewBox="0 0 142 142" fill="none" xmlns="http://www.w3.org/2000/svg">
<circle cx="74" cy="79" r="62" fill="#4A2199" fill-opacity="0.5"/>
<path d="M48.2869 104.375C48.2869 105.318 48.2869 106.183 48.2869 107.048C48.2869 115.451 48.2869 123.854 48.3023 132.273C48.3023 136.922 45.0862 140.568 40.4698 140.969C38.4847 141.155 36.6228 140.583 34.9917 139.378C34.7608 139.208 34.5454 139.038 34.3608 138.884C33.4682 139.394 32.6527 139.981 31.7448 140.367C27.0361 142.375 21.3425 139.378 20.45 134.265C20.0653 132.056 20.2346 129.755 20.2346 127.499C20.2038 122.047 20.2192 116.594 20.2192 111.126C20.2192 109.148 20.2192 107.156 20.2192 105.179C20.2192 104.931 20.2192 104.669 20.2192 104.298C19.5729 104.298 18.9881 104.298 18.4034 104.298C16.403 104.283 14.4025 104.344 12.4175 104.252C9.75534 104.144 7.58563 101.749 7.46253 99.0925C7.38559 97.4242 8.00111 95.9877 8.49353 94.4739C8.63202 94.0259 8.7859 93.5625 8.87823 93.269C7.58563 92.8519 6.29304 92.6357 5.18511 92.0641C2.46143 90.6739 1.16884 88.3414 0.999571 85.2829C0.891855 83.0277 1.7382 81.0041 2.39988 78.9497C5.86218 68.2295 9.2937 57.4938 12.8637 46.8045C14.4333 42.1086 17.4493 38.6485 22.3427 37.1656C24.2508 36.5786 26.2359 36.6095 28.2056 36.625C32.9143 36.625 37.623 36.5632 42.3317 36.6404C48.3946 36.7485 52.6109 39.8225 54.9961 45.2907C56.3656 48.4419 57.3042 51.7939 58.3814 55.0841C60.905 62.7767 63.3825 70.4693 65.8754 78.1773C66.4139 79.8301 67.0141 81.483 67.3526 83.1821C68.4144 88.465 64.9521 92.7901 59.9818 93.0373C59.8894 93.0373 59.7817 93.0682 59.5971 93.1145C59.9356 94.134 60.228 95.1381 60.6127 96.1112C61.1205 97.347 61.1974 98.6291 60.982 99.8958C60.5357 102.445 58.4122 104.236 55.8116 104.314C53.765 104.36 51.7184 104.329 49.6718 104.344C49.2256 104.314 48.7947 104.344 48.2869 104.375ZM55.5346 98.66C55.4115 98.2738 55.3346 97.9803 55.2269 97.6868C53.9804 93.9487 52.7494 90.1951 51.503 86.4569C50.1181 82.3017 48.7331 78.1464 47.3482 74.0066C46.1172 70.3148 44.8861 66.623 43.6705 62.9157C43.0088 60.8921 44.3937 59.0849 46.5173 59.1466C47.7791 59.1775 48.6408 59.9653 49.1948 61.6182C51.7492 69.3571 54.3036 77.0806 56.8734 84.8195C57.0273 85.2984 57.1965 85.7927 57.4581 86.2252C58.0737 87.2756 59.3662 87.6772 60.5511 87.2601C61.5513 86.9049 62.1207 85.839 61.9207 84.6187C61.8283 84.0626 61.6898 83.5065 61.5206 82.9813C57.889 71.7514 54.2574 60.506 50.5797 49.2915C50.1796 48.0557 49.5949 46.8663 48.9024 45.7696C47.5329 43.607 45.5324 42.3403 42.9165 42.3249C37.1768 42.294 31.4216 42.294 25.6819 42.3558C24.7125 42.3712 23.6815 42.6184 22.8044 43.02C20.2807 44.1785 18.9574 46.4029 18.1264 48.9362C14.5872 59.7491 11.0787 70.562 7.57025 81.3748C7.21632 82.4407 6.87779 83.522 6.66235 84.6341C6.4777 85.5301 6.72391 86.4105 7.47792 86.9821C8.21654 87.5382 9.09366 87.6 9.95539 87.2447C10.8017 86.8894 11.248 86.2097 11.525 85.3601C13.1561 80.4171 14.7872 75.4895 16.4183 70.562C17.434 67.4726 18.4649 64.3986 19.4806 61.3092C19.7729 60.4133 20.2961 59.6873 21.204 59.3629C22.2658 58.9767 23.2968 59.1312 24.1277 59.9344C24.9741 60.7377 25.2664 61.7417 24.8817 62.8848C24.02 65.5108 23.1275 68.1368 22.2658 70.7628C19.8037 78.2237 17.3262 85.6691 14.8642 93.13C14.2486 94.9682 13.6177 96.8064 12.9868 98.7063C27.1899 98.66 41.3161 98.66 55.5346 98.66ZM37.0536 104.344C37.0536 104.715 37.0536 104.993 37.0536 105.271C37.0536 110.601 37.0536 115.93 37.0536 121.259C37.0536 124.935 37.0536 128.612 37.0536 132.303C37.0536 134.203 38.3462 135.455 40.1466 135.316C41.6393 135.208 42.701 133.972 42.701 132.288C42.701 123.174 42.701 114.076 42.701 104.962C42.701 104.762 42.6549 104.576 42.6395 104.344C40.7775 104.344 38.9771 104.344 37.0536 104.344ZM25.8204 104.344C25.8204 104.715 25.8204 105.024 25.8204 105.318C25.8204 110.554 25.805 115.806 25.805 121.043C25.805 124.765 25.805 128.488 25.8204 132.226C25.8204 133.169 26.0358 134.018 26.7899 134.636C27.7285 135.393 28.7595 135.578 29.8675 135.038C30.9754 134.497 31.4678 133.555 31.4678 132.365C31.4678 123.205 31.4678 114.061 31.4678 104.901C31.4678 104.731 31.437 104.561 31.4216 104.344C29.5905 104.344 27.7747 104.344 25.8204 104.344Z" fill="black"/>
<path d="M127.982 113.304C136.63 116.054 140.046 124.858 137.23 131.964C134.26 139.425 125.981 142.978 118.764 139.904C111.686 136.892 107.793 128.457 111.655 120.564C107.916 121.213 104.207 121.475 100.452 120.981C104.253 130.157 98.5751 138.035 92.1891 140.228C85.4953 142.53 77.7859 139.224 74.893 132.829C71.8 125.986 74.3544 117.614 81.8945 114.03C80.5557 112.856 79.1708 111.728 77.909 110.477C72.7233 105.38 69.4456 99.2627 68.3377 92.0335C68.1069 90.5197 68.0299 88.9595 67.9991 87.4303C67.953 85.7311 69.1686 84.6035 70.8459 84.6035C76.0778 84.6035 81.2944 84.5726 86.5263 84.5726C88.8807 84.5726 91.235 84.5726 93.6048 84.6189C94.1434 84.6344 94.4049 84.449 94.6512 83.9702C99.3753 74.4548 104.115 64.9395 108.839 55.4241C109.639 53.8022 110.732 53.277 112.47 53.725C119.734 55.6095 126.089 59.1314 131.367 64.507C136.153 69.3728 139.292 75.1654 140.554 81.9312C141.338 86.21 141.077 90.4733 140.077 94.6749C138.338 101.92 134.445 107.82 128.766 112.563C128.536 112.763 128.289 112.964 128.059 113.165C128.028 113.196 128.028 113.211 127.982 113.304ZM74.2928 90.2571C74.2928 90.5197 74.2621 90.7514 74.2928 90.9831C75.0161 95.7717 76.8165 100.112 79.8171 103.912C85.4184 110.987 92.8354 114.725 101.699 115.482C109.101 116.115 116.056 114.493 122.288 110.292C128.351 106.198 132.398 100.637 134.183 93.4855C134.445 92.4351 134.598 91.3538 134.798 90.2416C114.548 90.2571 94.4203 90.2571 74.2928 90.2571ZM134.768 84.5726C134.798 84.4799 134.845 84.4336 134.829 84.3872C134.306 80.3092 132.952 76.5247 130.674 73.0955C126.458 66.7313 120.549 62.6224 113.409 60.1664C112.84 59.9655 112.747 60.3054 112.578 60.6452C109.224 67.3646 105.869 74.0841 102.514 80.8035C101.899 82.0238 101.299 83.2596 100.637 84.588C112.117 84.5726 123.458 84.5726 134.768 84.5726ZM87.6342 118.448C82.9101 118.463 79.1708 122.201 79.1862 126.913C79.2016 131.593 82.9409 135.331 87.5881 135.331C92.3122 135.331 96.0361 131.624 96.0515 126.913C96.0669 122.171 92.343 118.432 87.6342 118.448ZM124.135 135.331C128.797 135.347 132.567 131.609 132.583 126.975C132.598 122.186 128.889 118.463 124.135 118.448C119.457 118.448 115.794 122.109 115.733 126.851C115.656 131.501 119.426 135.316 124.135 135.331Z" fill="black"/>
<path d="M51.1334 16.9454C51.0564 26.5844 43.1316 34.1843 33.6372 33.829C24.6968 33.4892 17.4029 26.0746 17.4337 16.8991C17.4645 7.41465 25.0815 -0.0771313 34.6067 0.000103545C43.6241 0.0773384 51.1949 7.84717 51.1334 16.9454ZM45.5014 16.9763C45.5014 10.6122 40.6234 5.63825 34.222 5.63825C27.8667 5.63825 23.0657 10.6585 23.0349 16.9145C23.0041 23.1397 28.0206 28.1599 34.2374 28.1908C40.408 28.2372 45.486 23.186 45.5014 16.9763Z" fill="black"/>
</svg>
