<svg width="124" height="164" viewBox="0 0 124 164" fill="none" xmlns="http://www.w3.org/2000/svg">
<circle cx="62" cy="84" r="62" fill="#FF597B"/>
<path d="M85.0577 159.186C86.5892 159.186 88.0219 159.186 89.4792 159.186C90.4179 159.186 91.3318 159.186 92.2704 159.186C93.7772 159.211 94.7899 160.172 94.7899 161.578C94.7899 163.008 93.7772 163.945 92.2457 163.945C79.6729 163.945 67.1001 163.945 54.5026 163.945C44.6222 163.945 34.7665 163.945 24.8861 163.945C23.7992 163.945 22.9347 163.55 22.4901 162.564C22.0701 161.652 22.1937 160.739 22.8853 159.975C23.404 159.383 24.0709 159.161 24.8614 159.161C27.208 159.161 29.5546 159.161 32.0247 159.161C32.0247 158.668 32.0247 158.224 32.0247 157.756C32.0247 150.014 32.0247 142.248 32.0247 134.506C32.0247 132.533 32.8645 131.67 34.8653 131.646C36.1744 131.621 37.4836 131.646 38.9162 131.646C38.9162 130.117 38.9162 128.687 38.9162 127.257C38.9162 124.964 39.5585 122.819 41.1887 121.216C42.1768 120.255 42.3003 119.318 42.2015 118.036C41.6334 111.33 41.164 104.623 40.6453 97.917C40.2254 92.5914 39.7808 87.2658 39.3856 81.9402C39.3362 81.3978 39.1138 81.2745 38.6692 81.1512C34.4454 80.0664 31.8764 77.1077 31.4565 72.793C30.8884 66.8017 30.3697 60.8104 29.8016 54.7944C29.4063 50.3811 28.8382 45.9431 28.6159 41.5297C28.4183 37.3629 30.1227 33.9111 33.3832 31.2483C35.7545 29.3006 38.521 28.4623 41.5839 28.4623C44.1282 28.4623 46.6724 28.4623 49.3401 28.4623C48.8708 27.6486 48.4508 26.9829 48.0556 26.2679C46.203 22.8901 45.5608 19.2904 45.8325 15.4688C46.1042 11.9184 47.1911 8.68851 49.3401 5.85312C51.6867 2.79584 54.7249 0.897357 58.7018 0.971324C62.2587 1.04529 65.0499 2.74652 67.273 5.43398C68.8292 7.3078 69.916 9.45284 70.4841 11.8198C70.83 13.2498 71.1017 14.7291 71.1758 16.1838C71.3487 20.4739 70.3606 24.4434 67.8658 27.9938C67.8164 28.0678 67.767 28.1911 67.6435 28.3883C67.9893 28.413 68.261 28.4376 68.5575 28.4376C70.9288 28.4376 73.3248 28.4376 75.696 28.4376C82.2665 28.4376 87.7995 33.3687 88.2936 39.9025C88.4665 42.2201 88.096 44.5624 87.8984 46.9046C87.7254 49.1236 87.5031 51.3673 87.2808 53.5863C87.2561 53.8822 86.7374 59.8488 86.5892 61.4021C86.2681 64.8539 85.8976 68.281 85.6753 71.7328C85.4283 75.8256 83.7239 78.9322 79.8705 80.6581C79.5494 80.806 79.2036 80.9786 78.8578 81.0033C77.7956 81.0526 77.5733 81.6443 77.5239 82.5812C77.2028 87.3891 76.8323 92.1969 76.4618 97.0047C76.0419 102.306 75.6219 107.607 75.202 112.883C75.0291 115.028 74.8562 117.173 74.7327 119.318C74.708 119.663 74.8809 120.132 75.1279 120.354C77.0793 122.227 78.0673 124.52 78.0921 127.208C78.0921 128.613 78.0921 130.043 78.0921 131.596C79.5494 131.596 80.9327 131.596 82.3159 131.596C84.0697 131.596 84.9836 132.509 84.9836 134.284C84.9836 142.026 84.9836 149.792 84.9836 157.534C85.0577 158.101 85.0577 158.57 85.0577 159.186ZM47.0182 117.913C49.8094 117.913 52.4524 117.913 55.0954 117.913C56.1328 117.913 56.1328 117.913 56.1328 116.828C56.1328 105.683 56.1328 94.5638 56.1328 83.4195C56.1328 82.9264 56.1328 82.4579 56.1328 81.9155C56.0587 80.4608 56.1081 77.3542 56.9233 77.1077C58.1583 76.7379 59.0229 75.8996 60.3073 77.3296C61.1966 77.2556 60.9742 80.7567 60.9742 81.4471C60.9495 93.2817 60.9742 105.141 60.9495 116.976C60.9495 117.666 61.0978 117.937 61.8388 117.913C63.6173 117.863 65.3957 117.913 67.1742 117.913C68.1128 117.913 69.0762 117.913 70.0889 117.913C70.1877 116.754 70.3112 115.694 70.3853 114.633C70.6323 111.33 70.8794 108.001 71.1264 104.697C71.5216 99.3963 71.9415 94.0954 72.3614 88.7944C72.6331 85.4166 72.9048 82.0635 73.1766 78.6856C73.2507 77.872 73.6706 77.2556 74.3869 76.9598C74.955 76.7132 75.6467 76.6639 76.2889 76.6392C78.8331 76.5653 80.7351 74.7901 80.908 72.2505C81.0562 70.2041 81.2044 68.1824 81.4514 66.136C81.5996 64.9525 81.9207 63.8183 82.0936 62.6349C82.143 62.265 82.0689 61.8952 82.0442 61.5254C82.0195 61.2542 81.9701 60.9583 81.9454 60.6378C82.2912 60.9336 81.8713 59.4297 82.4888 58.7146C82.5135 58.6653 82.4641 58.5667 82.4641 58.4927C82.4147 58.0243 82.2665 57.5312 82.2912 57.0874C82.6864 52.6247 83.1311 48.1867 83.5016 43.7241C83.6251 42.3927 83.8227 41.0366 83.6004 39.7299C82.9334 35.8343 79.6235 33.2208 75.6219 33.2208C64.2595 33.2208 52.8723 33.2208 41.5098 33.2208C36.5202 33.2208 32.9139 37.3136 33.4573 42.2694C34.0007 47.3238 34.4207 52.4028 34.89 57.4819C35.3346 62.4869 35.7792 67.4674 36.2485 72.4724C36.372 73.8038 37.0143 74.9133 38.0764 75.727C39.0397 76.4666 40.1513 76.6146 41.3369 76.6146C42.9178 76.6146 43.807 77.3789 43.9552 78.9075C44.1035 80.2636 44.1776 81.6197 44.2764 82.9757C44.7457 88.9177 45.2397 94.8597 45.6843 100.826C46.0548 105.585 46.4007 110.343 46.7465 115.102C46.8206 116.039 46.9194 116.926 47.0182 117.913ZM36.8661 159.112C51.3656 159.112 65.8156 159.112 80.2163 159.112C80.2163 156.104 80.2163 153.195 80.2163 150.187C77.8203 150.187 75.4984 150.187 73.1766 150.187C71.5216 150.187 70.5582 149.25 70.5582 147.721C70.5582 146.34 71.5957 145.428 73.1766 145.428C75.202 145.428 77.2275 145.428 79.253 145.428C79.5741 145.428 79.8952 145.404 80.2163 145.379C80.2163 142.371 80.2163 139.437 80.2163 136.503C65.7415 136.503 51.3162 136.503 36.8661 136.503C36.8661 144.048 36.8661 151.567 36.8661 159.112ZM50.5998 16.8495C50.6492 20.4739 51.5138 23.6051 53.8357 26.194C55.2436 27.7719 56.9974 28.7335 59.1958 28.4623C61.1225 28.2404 62.5798 27.1555 63.7408 25.6515C67.2977 21.0409 67.4706 13.9401 64.136 9.083C61.2213 4.81759 56.5281 4.62035 53.3416 8.66386C51.3903 11.1294 50.6492 13.9895 50.5998 16.8495ZM43.7082 131.621C53.6874 131.621 63.4938 131.621 73.3248 131.621C73.3248 129.846 73.473 128.071 73.2754 126.369C73.0283 124.224 71.2252 122.72 69.1009 122.72C62.0364 122.696 54.9966 122.671 47.9321 122.72C46.0795 122.745 44.721 123.781 44.0541 125.507C43.313 127.504 43.8811 129.55 43.7082 131.621Z" fill="black"/>
<path d="M87.8 16.1097C87.2566 16.1097 86.7132 16.1343 86.1698 16.1097C84.7618 16.0603 83.7738 15.0741 83.7244 13.7427C83.6997 12.4606 84.6136 11.4004 85.9969 11.3265C87.2319 11.2525 88.467 11.2525 89.6773 11.3265C91.0112 11.4004 91.9745 12.4853 91.9498 13.7427C91.9251 15.0248 90.9371 16.011 89.5785 16.085C88.9857 16.1343 88.3929 16.1097 87.8 16.1097Z" fill="black"/>
<path d="M111.932 119.269C111.364 119.269 110.771 119.294 110.203 119.269C108.844 119.17 107.832 118.184 107.807 116.927C107.782 115.595 108.721 114.56 110.129 114.486C111.315 114.412 112.525 114.412 113.735 114.461C115.069 114.535 116.057 115.62 116.057 116.877C116.032 118.184 115.02 119.195 113.636 119.269C113.093 119.294 112.525 119.269 111.932 119.269Z" fill="black"/>
<path d="M16.1424 84.2083C16.1424 84.8 16.1671 85.4164 16.1424 86.0081C16.093 87.2655 15.0802 88.2764 13.8205 88.3011C12.536 88.3504 11.4245 87.3642 11.3751 86.0574C11.3257 84.8 11.3257 83.5426 11.3751 82.3098C11.4245 81.077 12.536 80.0661 13.7711 80.0908C15.0308 80.0908 16.1177 81.151 16.1424 82.4331C16.1671 83.0248 16.1671 83.6165 16.1424 84.2083Z" fill="black"/>
<path d="M11.3754 101.418C11.3754 100.826 11.3507 100.21 11.3754 99.6182C11.4495 98.2374 12.487 97.2759 13.8208 97.2759C15.1053 97.2759 16.118 98.3361 16.1427 99.7168C16.1674 100.826 16.1674 101.936 16.1427 103.07C16.118 104.426 15.0559 105.511 13.7961 105.511C12.4623 105.511 11.4001 104.451 11.3754 103.045C11.3754 102.503 11.3754 101.96 11.3754 101.418Z" fill="black"/>
<path d="M105.733 108.272C105.733 108.839 105.733 109.406 105.733 109.998C105.708 111.33 104.621 112.414 103.337 112.414C102.027 112.414 100.965 111.33 100.965 109.998C100.965 108.889 100.965 107.779 100.965 106.645C100.99 105.215 102.003 104.179 103.361 104.179C104.72 104.179 105.733 105.215 105.757 106.645C105.733 107.187 105.733 107.73 105.733 108.272Z" fill="black"/>
<path d="M94.7162 119.269C94.148 119.269 93.5799 119.293 92.9871 119.269C91.6285 119.195 90.6405 118.208 90.5911 116.951C90.5664 115.669 91.5544 114.559 92.9377 114.485C94.0986 114.436 95.2843 114.436 96.4452 114.485C97.8285 114.535 98.8165 115.57 98.8412 116.902C98.8659 118.11 97.8285 119.17 96.4946 119.269C95.9018 119.318 95.309 119.269 94.7162 119.269Z" fill="black"/>
<path d="M105.042 16.1345C104.301 16.0852 103.559 16.1098 102.843 15.9866C101.682 15.7893 100.941 14.8278 100.966 13.6689C100.991 12.5594 101.707 11.5239 102.818 11.4253C104.276 11.302 105.758 11.2774 107.215 11.4006C108.426 11.4993 109.265 12.6827 109.191 13.8169C109.093 15.0743 108.154 16.0112 106.845 16.0852C106.252 16.1098 105.634 16.0852 105.042 16.0852C105.042 16.1098 105.042 16.1345 105.042 16.1345Z" fill="black"/>
<path d="M5.10082 90.3479C5.91596 90.3972 6.73109 90.3726 7.52152 90.5451C8.68247 90.8164 9.3988 91.9505 9.25059 93.06C9.10239 94.1942 8.13905 95.1064 6.9781 95.1557C5.74305 95.205 4.5327 95.205 3.29765 95.1557C1.96379 95.1064 0.975752 93.9969 1.00045 92.7395C1.02515 91.4327 2.0873 90.4219 3.44585 90.3972C3.98928 90.3972 4.5327 90.3972 5.07612 90.3972C5.10082 90.3972 5.10082 90.3726 5.10082 90.3479Z" fill="black"/>
<path d="M22.4406 90.4218C22.9841 90.4218 23.5275 90.4218 24.0709 90.4218C25.4048 90.4465 26.4916 91.5067 26.4916 92.7888C26.4916 94.0955 25.4789 95.1557 24.0956 95.1803C22.9594 95.205 21.7984 95.205 20.6622 95.1803C19.3283 95.1557 18.2909 94.1448 18.2415 92.912C18.1921 91.5806 19.1801 90.5204 20.5387 90.4218C21.1809 90.3725 21.8231 90.4218 22.4406 90.4218Z" fill="black"/>
<path d="M98.8409 5.21219C98.8409 5.70531 98.8409 6.19842 98.8409 6.69153C98.8656 8.12155 97.8035 9.23105 96.4202 9.23105C95.1605 9.23105 94.0736 8.17086 94.0489 6.81481C94.0242 5.70531 94.0242 4.59581 94.0489 3.46165C94.0736 2.00697 95.0617 0.996094 96.4449 0.996094C97.7047 0.996094 98.7421 2.03163 98.8162 3.41234C98.8656 4.00407 98.8409 4.62046 98.8409 5.21219Z" fill="black"/>
<path d="M98.8417 22.2736C98.8417 22.8407 98.8664 23.4325 98.8417 23.9995C98.7676 25.4049 97.7055 26.4404 96.4457 26.4158C95.0378 26.3665 94.0991 25.4049 94.0744 23.9256C94.0497 22.8407 94.0497 21.7312 94.0744 20.6464C94.0991 19.241 95.186 18.1562 96.4951 18.2055C97.8537 18.2548 98.8664 19.3396 98.8417 20.745C98.8417 21.2381 98.8417 21.7559 98.8417 22.2736Z" fill="black"/>
<path d="M105.732 125.457C105.732 126.024 105.757 126.591 105.732 127.183C105.683 128.564 104.646 129.575 103.336 129.575C102.027 129.575 101.014 128.564 100.965 127.134C100.94 126.024 100.94 124.89 100.965 123.781C100.99 122.375 102.003 121.364 103.312 121.34C104.621 121.315 105.658 122.351 105.708 123.731C105.757 124.298 105.732 124.89 105.732 125.457Z" fill="black"/>
<path d="M13.3262 159.186C13.8449 159.186 14.3636 159.162 14.8823 159.186C16.1915 159.236 17.2289 160.197 17.2783 161.405C17.3277 162.786 16.4385 163.871 15.0552 163.945C13.8696 164.019 12.6592 164.019 11.4489 163.945C10.2138 163.871 9.20108 162.737 9.22578 161.529C9.25049 160.32 10.2632 159.26 11.523 159.186C12.1158 159.162 12.7086 159.186 13.3262 159.186Z" fill="black"/>
<path d="M103.831 163.969C103.287 163.969 102.744 163.994 102.201 163.969C100.768 163.895 99.854 162.909 99.8787 161.454C99.9034 160.172 100.916 159.211 102.275 159.186C103.312 159.161 104.35 159.161 105.387 159.186C106.795 159.211 107.907 160.295 107.907 161.578C107.907 162.884 106.795 163.945 105.387 163.969C104.868 163.969 104.35 163.969 103.831 163.969Z" fill="black"/>
<path d="M61.468 150.187C60.8752 150.187 60.2577 150.236 59.6649 150.187C58.3804 150.088 57.4171 149.003 57.4665 147.77C57.4912 146.513 58.578 145.477 59.8625 145.453C60.8999 145.428 61.9374 145.428 62.9748 145.453C64.4816 145.477 65.4202 146.39 65.4449 147.82C65.4696 149.225 64.5804 150.137 63.0983 150.211C62.5796 150.211 62.0115 150.187 61.468 150.187Z" fill="black"/>
</svg>
