<svg width="1440" height="631" viewBox="0 0 1440 631" fill="none" xmlns="http://www.w3.org/2000/svg">
<path opacity="0.5" d="M1454.72 171.349C1459.01 172.407 1463.35 169.787 1464.4 165.497C1465.46 161.208 1462.84 156.872 1458.55 155.814L1454.72 171.349ZM933.242 386.301L940.394 389.885L933.242 386.301ZM746.028 302.408L751.041 308.642L746.028 302.408ZM710.732 480.52L708.365 488.162C708.683 488.261 709.007 488.339 709.334 488.397L710.732 480.52ZM813.489 330.829L821.489 330.827L813.489 330.829ZM-52.9361 262.595C-56.3802 265.362 -56.9287 270.398 -54.1613 273.842C-51.3938 277.286 -46.3582 277.835 -42.9141 275.067L-52.9361 262.595ZM926.09 382.717C922.093 390.693 914.673 410.738 907.453 435.656C900.189 460.724 892.949 491.339 889.497 520.6C886.085 549.53 886.197 578.468 894.779 599.354C899.157 610.009 905.933 619.036 915.972 624.579C926.01 630.122 938.32 631.636 952.728 629.144L950.002 613.378C938.159 615.426 929.758 613.914 923.706 610.572C917.655 607.231 912.964 601.514 909.578 593.273C902.632 576.368 902.034 550.905 905.387 522.474C908.702 494.374 915.704 464.669 922.821 440.108C929.981 415.397 937.077 396.505 940.394 389.885L926.09 382.717ZM1458.55 155.814C1347.4 128.402 1228.58 156.796 1130.9 205.682C1033.44 254.461 955.234 324.559 926.09 382.717L940.394 389.885C967.382 336.031 1042.2 267.968 1138.06 219.99C1233.71 172.118 1348.52 145.158 1454.72 171.349L1458.55 155.814ZM952.728 629.144C969.252 626.287 981.13 614.382 989.051 598.518C996.954 582.69 1001.47 561.962 1003.12 538.968C1006.41 492.908 998.305 435.572 979.751 384.603C961.284 333.874 931.86 287.833 891.289 266.452C870.803 255.655 847.663 251.266 822.232 255.659C796.922 260.031 769.81 273.016 741.014 296.174L751.041 308.642C778.354 286.677 803.02 275.215 824.956 271.425C846.77 267.657 866.342 271.39 883.829 280.606C919.207 299.251 946.778 340.8 964.716 390.076C982.567 439.112 990.278 494.198 987.159 537.827C985.597 559.678 981.356 578.113 974.736 591.37C968.134 604.592 959.727 611.696 950.002 613.378L952.728 629.144ZM709.334 488.397C732.653 492.535 751.852 486.341 767.115 474.134C782.097 462.152 792.982 444.652 800.863 426.379C816.601 389.892 821.493 347.636 821.489 330.827L805.489 330.83C805.492 345.925 800.878 385.945 786.172 420.042C778.831 437.062 769.26 451.931 757.122 461.639C745.266 471.121 730.684 475.936 712.13 472.643L709.334 488.397ZM741.014 296.174C716.985 315.5 688.591 355.547 675.639 393.917C669.16 413.109 666.179 432.932 670.473 449.994C674.933 467.713 687.044 481.559 708.365 488.162L713.099 472.879C696.945 467.876 689.045 458.227 685.989 446.088C682.769 433.293 684.769 416.897 690.798 399.034C702.862 363.296 729.591 325.893 751.041 308.642L741.014 296.174ZM821.489 330.827C821.459 182.471 747.354 48.1844 598.785 10.6596C451.068 -26.65 233.092 32.7602 -52.9361 262.595L-42.9141 275.067C241.901 46.2075 454.603 -9.25469 594.867 26.1725C734.279 61.3844 805.46 187.444 805.489 330.83L821.489 330.827Z" fill="url(#paint0_linear)" fill-opacity="0.6"/>
<defs>
<linearGradient id="paint0_linear" x1="690.548" y1="613.677" x2="711.344" y2="15.0383" gradientUnits="userSpaceOnUse">
<stop stop-color="#D6D2FF"/>
<stop offset="1" stop-color="#FFD0EC"/>
</linearGradient>
</defs>
</svg>
