<svg width="33" height="33" viewBox="0 0 33 33" fill="none" xmlns="http://www.w3.org/2000/svg">
<g clip-path="url(#clip0)">
<path d="M24.0126 9.59092L29.3026 18.7535C29.3689 18.8683 29.3869 19.0048 29.3526 19.1329C29.3183 19.261 29.2345 19.3702 29.1196 19.4365L28.4701 19.8115C28.3553 19.8778 28.2188 19.8958 28.0907 19.8614C27.9626 19.8271 27.8534 19.7433 27.7871 19.6285L23.3371 11.9208L19.7237 19.9422C19.5939 20.2125 19.3857 20.4373 19.1262 20.5874L18.6585 20.8574C18.3988 21.0071 18.1 21.075 17.8011 21.0522L7.16764 19.9746C7.08657 19.9697 7.00798 19.9447 6.93894 19.902C6.86989 19.8592 6.81257 19.7999 6.77212 19.7295L6.69212 19.5909C6.65135 19.5207 6.62868 19.4414 6.62616 19.3602C6.62363 19.279 6.64132 19.1985 6.67764 19.1258L11.0611 9.37819C11.1908 9.10793 11.399 8.88308 11.6585 8.73302L12.1262 8.46302C12.3859 8.3133 12.6847 8.2454 12.9837 8.26819L23.6171 9.34585C23.6982 9.35072 23.7768 9.37566 23.8458 9.41844C23.9149 9.46122 23.9722 9.52049 24.0126 9.59092ZM20.0012 22.1029L19.5335 22.3729C18.9524 22.7032 18.2853 22.851 17.6191 22.797L12.8812 22.3108L13.6962 23.7224C14.8012 25.6363 18.0258 25.8415 20.8924 24.1865C23.7589 22.5315 25.1935 19.6363 24.0885 17.7224L23.2735 16.3108L21.301 20.6943C21.0192 21.2838 20.5662 21.7747 20.0012 22.1029Z" fill="#FFE4F4"/>
</g>
<defs>
<clipPath id="clip0">
<rect width="24" height="24" fill="white" transform="translate(6.10352e-05 12) rotate(-30)"/>
</clipPath>
</defs>
</svg>
