<svg width="253" height="58" viewBox="0 0 253 58" fill="none" xmlns="http://www.w3.org/2000/svg">
<path d="M251.282 24.338C251.341 25.9357 250.675 27.6106 249.174 29.3624C247.667 31.1197 245.367 32.8942 242.3 34.6479C236.169 38.1542 227.167 41.4703 215.915 44.4025C193.429 50.2628 162.174 54.5355 127.491 55.8139C92.8082 57.0924 61.3241 55.1323 38.467 50.9435C27.0303 48.8475 17.8082 46.2032 11.4355 43.1578C8.24809 41.6346 5.82343 40.0343 4.19163 38.3927C2.56491 36.7562 1.77812 35.1348 1.71923 33.5371C1.66034 31.9394 2.32562 30.2645 3.82744 28.5127C5.33396 26.7554 7.63422 24.9809 10.7008 23.2272C16.832 19.7209 25.8344 16.4048 37.0858 13.4726C59.5725 7.61227 90.8268 3.33961 125.51 2.06116C160.193 0.782706 191.677 2.74276 214.534 6.93163C225.971 9.02756 235.193 11.6719 241.566 14.7173C244.753 16.2405 247.178 17.8408 248.809 19.4824C250.436 21.1189 251.223 22.7403 251.282 24.338Z" stroke="#E6E6E6" stroke-width="2"/>
</svg>
