<svg width="126" height="28" viewBox="0 0 126 28" fill="none" xmlns="http://www.w3.org/2000/svg">
<path d="M56.7602 3.63406C54.0765 3.63406 51.6406 4.62494 49.9891 6.27641C48.5854 4.58366 46.521 3.63406 44.0026 3.63406C41.8144 3.63406 39.8739 4.37723 38.4288 5.65711C37.9334 4.41851 36.7774 3.63406 35.3323 3.63406C33.3506 3.63406 31.8643 5.16167 31.8643 7.22601V21.6764C31.8643 23.7407 33.3919 25.2683 35.4149 25.2683C37.438 25.2683 38.9656 23.7407 38.9656 21.6764V13.0887C38.9656 11.2308 40.0803 10.0335 41.8144 10.0335C43.5897 10.0335 44.7457 11.2308 44.7457 13.0887V21.6764C44.7457 23.7407 46.2733 25.2683 48.2964 25.2683C50.3194 25.2683 51.847 23.7407 51.847 21.6764V13.0887C51.847 11.2308 52.9618 10.0335 54.6958 10.0335C56.4711 10.0335 57.6272 11.2308 57.6272 13.0887V21.6764C57.6272 23.7407 59.1548 25.2683 61.1778 25.2683C63.2009 25.2683 64.7285 23.7407 64.7285 21.6764V12.0566C64.7285 6.89571 61.632 3.63406 56.7602 3.63406Z" fill="white"/>
<path fill-rule="evenodd" clip-rule="evenodd" d="M85.1901 6.738C83.6889 9.1959 82.9079 12.1265 83.1187 15.2186C83.3292 18.3061 84.4976 21.1 86.3139 23.3298C85.7433 24.5056 84.5612 25.2683 83.1317 25.2683C81.1087 25.2683 79.5811 23.7407 79.5811 21.6764V13.0887C79.5811 11.2721 78.3425 10.0335 76.5671 10.0335C74.7918 10.0335 73.5945 11.2721 73.5945 13.0887V21.6764C73.5945 23.7407 72.0669 25.2683 70.0438 25.2683C68.0208 25.2683 66.4932 23.7407 66.4932 21.6764V7.22601C66.4932 5.16167 67.9795 3.63406 69.9612 3.63406C71.4063 3.63406 72.5623 4.4598 73.099 5.6984C74.5441 4.41851 76.5671 3.63406 78.7966 3.63406C81.6033 3.63406 83.8286 4.76843 85.1901 6.738Z" fill="white"/>
<path d="M0.352658 9.34855C-0.489089 7.62271 0.227608 5.54127 1.95345 4.69952C3.67928 3.85777 5.76072 4.57447 6.60247 6.30031L13.461 20.3624C14.3028 22.0882 13.5861 24.1697 11.8602 25.0114C10.1344 25.8532 8.05294 25.1365 7.21119 23.4106L0.352658 9.34855Z" fill="white"/>
<path d="M9.70714 9.34855C8.86539 7.62271 9.58209 5.54127 11.3079 4.69952C13.0338 3.85777 15.1152 4.57447 15.957 6.30031L22.8155 20.3624C23.6572 22.0882 22.9405 24.1697 21.2147 25.0114C19.4889 25.8532 17.4074 25.1365 16.5657 23.4106L9.70714 9.34855Z" fill="white"/>
<path d="M29.6734 9.34855C30.5152 7.62271 29.7985 5.54127 28.0726 4.69952C26.3468 3.85777 24.2654 4.57447 23.4236 6.30031L16.5651 20.3624C15.7233 22.0882 16.44 24.1697 18.1659 25.0114C19.8917 25.8532 21.9732 25.1365 22.8149 23.4106L29.6734 9.34855Z" fill="white"/>
<path fill-rule="evenodd" clip-rule="evenodd" d="M97.1013 1.03626C89.7976 1.53418 84.2804 7.85864 84.7783 15.1623C85.2762 22.466 91.6007 27.9832 98.9044 27.4853L113.646 26.4803C120.95 25.9824 126.467 19.6579 125.969 12.3542C125.471 5.05051 119.147 -0.466667 111.843 0.0312494L97.1013 1.03626ZM94.3694 19.9992C94.4386 21.0138 93.7322 21.8657 92.6981 21.9362C91.6444 22.008 90.8094 21.2612 90.7403 20.2466C90.6724 19.2515 91.397 18.3789 92.4506 18.307C93.4848 18.2365 94.3016 19.0041 94.3694 19.9992ZM98.3726 20.1967C98.4244 20.9577 97.8985 21.5816 97.1571 21.6322C96.3961 21.684 95.7904 21.1373 95.7385 20.3763L94.8925 7.96696C94.8406 7.20601 95.3665 6.58209 96.1274 6.53021C96.8689 6.47966 97.4746 7.02643 97.5265 7.78738L98.3726 20.1967ZM99.0442 8.03675C98.983 7.13922 99.6765 6.38625 100.594 6.32373C101.472 6.26387 102.28 6.9144 102.342 7.81193C102.401 8.68995 101.688 9.44425 100.81 9.50411C99.8934 9.56664 99.104 8.91477 99.0442 8.03675ZM102.832 19.8927C102.884 20.6537 102.358 21.2776 101.597 21.3295C100.856 21.38 100.25 20.8332 100.198 20.0723L99.6911 12.6384C99.6392 11.8774 100.167 11.273 100.927 11.2211C101.669 11.1706 102.273 11.6978 102.325 12.4588L102.832 19.8927ZM108.568 8.06574C108.512 8.06412 108.446 8.06223 108.368 8.06753C107.471 8.12872 107.001 8.70963 107.066 9.6657L107.158 11.012L108.367 10.9295C109.011 10.8856 109.511 11.322 109.555 11.9659C109.599 12.6097 109.163 13.1099 108.519 13.1538L107.309 13.2363L107.74 19.5581C107.793 20.3385 107.266 20.9429 106.525 20.9935C105.764 21.0454 105.158 20.4986 105.106 19.7377L104.675 13.4159L104.246 13.4452C103.602 13.4891 103.082 13.054 103.038 12.4102C102.995 11.7663 103.45 11.2647 104.094 11.2208L104.524 11.1916L104.416 9.61115C104.26 7.32829 105.515 5.89021 107.758 5.73723C108.266 5.70264 108.661 5.75408 109.025 5.90574C109.446 6.05341 109.726 6.42635 109.76 6.91414C109.804 7.55802 109.384 8.01787 108.682 8.06576C108.648 8.06805 108.611 8.06697 108.568 8.06574ZM109.747 15.6968C109.551 12.8286 111.568 10.4957 114.417 10.3015C117.051 10.1219 119.132 11.901 119.311 14.5155L119.315 14.5741C119.371 15.3936 118.821 15.9603 117.963 16.0188L112.46 16.3939C112.855 17.5824 113.878 18.2183 115.303 18.1212C116.005 18.0733 116.714 17.8289 117.274 17.4183C117.461 17.2879 117.633 17.2174 117.828 17.2041C118.433 17.1629 118.931 17.5797 118.973 18.1846C119.002 18.6138 118.828 18.9393 118.381 19.2834C117.543 19.9287 116.511 20.3127 115.379 20.3898C112.335 20.5973 109.944 18.5845 109.747 15.6968ZM116.724 14.241C116.607 13.0925 115.733 12.3484 114.503 12.4322C113.352 12.5107 112.545 13.3302 112.334 14.5403L116.724 14.241Z" fill="white"/>
</svg>
