<svg width="25" height="25" viewBox="0 0 25 25" fill="none" xmlns="http://www.w3.org/2000/svg">
<g clip-path="url(#clip0)">
<path d="M6.71848 7.22181C6.68742 7.15187 6.67897 7.07397 6.69432 6.99899C6.70966 6.92401 6.74803 6.8557 6.80407 6.80357L6.94978 6.67119C7.00449 6.61926 7.07386 6.58542 7.14847 6.57427C7.22308 6.56311 7.29931 6.57519 7.36682 6.60886L11.7085 8.67386L15.5086 5.76694C15.5723 5.71665 15.6504 5.68793 15.7315 5.68495C15.8126 5.68196 15.8926 5.70487 15.9598 5.75035L16.1287 5.84785C16.1957 5.88465 16.2495 5.94143 16.2827 6.01027C16.3159 6.07912 16.3269 6.1566 16.314 6.23194L15.703 10.9801L19.6622 13.7076C19.7251 13.7492 19.7737 13.8092 19.8013 13.8794C19.829 13.9496 19.8344 14.0266 19.8168 14.0999L19.775 14.2923C19.7611 14.3662 19.7249 14.434 19.6713 14.4867C19.6176 14.5393 19.5491 14.5743 19.475 14.5868L14.7919 15.4683L13.4244 20.0568C13.4034 20.1289 13.3617 20.1933 13.3044 20.2418C13.2471 20.2904 13.1768 20.321 13.1022 20.3298L12.8539 20.325C12.7792 20.3303 12.7047 20.3131 12.6398 20.2757C12.575 20.2383 12.5229 20.1823 12.4901 20.115L10.1943 15.9316L5.39264 16.0432C5.31798 16.0485 5.24344 16.0314 5.17862 15.9939C5.11379 15.9565 5.06165 15.9005 5.02891 15.8332L4.94226 15.6533C4.91265 15.5843 4.904 15.5081 4.9174 15.4342C4.9308 15.3603 4.96565 15.292 5.01761 15.2378L8.29666 11.7183L6.71848 7.22181Z" fill="#FFE4F4"/>
</g>
<defs>
<clipPath id="clip0">
<rect width="18" height="18" fill="white" transform="translate(9) rotate(30)"/>
</clipPath>
</defs>
</svg>
