<svg width="24" height="24" viewBox="0 0 24 24" fill="none" xmlns="http://www.w3.org/2000/svg">
<rect x="3.75" y="4.75" width="16.5" height="14.5" rx="3.25" stroke="white" stroke-width="1.5"/>
<path d="M9.75 3C9.75 2.58579 9.41421 2.25 9 2.25C8.58579 2.25 8.25 2.58579 8.25 3H9.75ZM8.25 3V5H9.75V3H8.25Z" fill="white"/>
<path d="M15.75 3C15.75 2.58579 15.4142 2.25 15 2.25C14.5858 2.25 14.25 2.58579 14.25 3H15.75ZM14.25 3V5H15.75V3H14.25Z" fill="white"/>
<path opacity="0.6" d="M11.9989 15.0909C13.6609 15.0909 15.0046 13.7472 14.9989 12.0909C14.9933 10.4347 13.6609 9.09091 11.9989 9.09091C10.3484 9.09091 9.00462 10.4347 8.99893 12.0909C8.99325 13.7472 10.3484 15.0909 11.9989 15.0909Z" fill="white"/>
</svg>
