<svg width="110" height="25" viewBox="0 0 110 25" fill="none" xmlns="http://www.w3.org/2000/svg">
<path d="M49.5521 3.17029C47.2093 3.17029 45.0827 4.03454 43.641 5.47496C42.4155 3.99853 40.6133 3.17029 38.4146 3.17029C36.5043 3.17029 34.8103 3.81848 33.5488 4.9348C33.1162 3.85449 32.107 3.17029 30.8455 3.17029C29.1154 3.17029 27.8178 4.50268 27.8178 6.3032V18.9069C27.8178 20.7074 29.1515 22.0398 30.9176 22.0398C32.6837 22.0398 34.0173 20.7074 34.0173 18.9069V11.4167C34.0173 9.79621 34.9905 8.75191 36.5043 8.75191C38.0542 8.75191 39.0634 9.79621 39.0634 11.4167V18.9069C39.0634 20.7074 40.397 22.0398 42.1632 22.0398C43.9293 22.0398 45.2629 20.7074 45.2629 18.9069V11.4167C45.2629 9.79621 46.2361 8.75191 47.7499 8.75191C49.2998 8.75191 50.309 9.79621 50.309 11.4167V18.9069C50.309 20.7074 51.6426 22.0398 53.4088 22.0398C55.1749 22.0398 56.5085 20.7074 56.5085 18.9069V10.5164C56.5085 6.01511 53.8052 3.17029 49.5521 3.17029Z" fill="white"/>
<path fill-rule="evenodd" clip-rule="evenodd" d="M74.3704 5.87609C73.0605 8.02012 72.3791 10.5768 72.5632 13.2744C72.747 15.968 73.7667 18.4055 75.3517 20.3507C74.8533 21.3753 73.8217 22.0398 72.5745 22.0398C70.8083 22.0398 69.4747 20.7074 69.4747 18.9069V11.4167C69.4747 9.83222 68.3934 8.75191 66.8435 8.75191C65.2937 8.75191 64.2484 9.83222 64.2484 11.4167V18.9069C64.2484 20.7074 62.9148 22.0398 61.1487 22.0398C59.3825 22.0398 58.0489 20.7074 58.0489 18.9069V6.3032C58.0489 4.50268 59.3465 3.17029 61.0766 3.17029C62.3381 3.17029 63.3473 3.8905 63.8159 4.97081C65.0774 3.85449 66.8435 3.17029 68.7899 3.17029C71.2395 3.17029 73.1818 4.15912 74.3704 5.87609Z" fill="white"/>
<path d="M0.307872 8.15506C-0.426978 6.64978 0.198703 4.83434 1.70537 4.10016C3.21203 3.36599 5.02914 3.99109 5.76399 5.49638L11.7515 17.7614C12.4864 19.2667 11.8607 21.0821 10.354 21.8163C8.84737 22.5505 7.03026 21.9254 6.29541 20.4201L0.307872 8.15506Z" fill="white"/>
<path d="M8.47438 8.15506C7.73953 6.64978 8.36521 4.83434 9.87188 4.10016C11.3785 3.36599 13.1957 3.99109 13.9305 5.49638L19.918 17.7614C20.6529 19.2667 20.0272 21.0821 18.5205 21.8163C17.0139 22.5505 15.1968 21.9254 14.4619 20.4201L8.47438 8.15506Z" fill="white"/>
<path d="M25.9051 8.15506C26.6399 6.64978 26.0142 4.83434 24.5076 4.10016C23.0009 3.36599 21.1838 3.99109 20.4489 5.49638L14.4614 17.7614C13.7266 19.2667 14.3522 21.0821 15.8589 21.8163C17.3656 22.5505 19.1827 21.9254 19.9175 20.4201L25.9051 8.15506Z" fill="white"/>
<path fill-rule="evenodd" clip-rule="evenodd" d="M84.7601 0.905187C78.3897 1.33908 73.5779 6.85498 74.0126 13.2253C74.4473 19.5956 79.9639 24.408 86.3342 23.9741L99.2251 23.0961C105.596 22.6623 110.407 17.1464 109.973 10.776C109.538 4.40571 104.021 -0.40671 97.651 0.0271799L84.7601 0.905187ZM94.6069 7.03714C94.6748 7.03252 94.7321 7.03416 94.7813 7.03558C94.8186 7.03665 94.8513 7.03759 94.8806 7.03559C95.4938 6.99383 95.8601 6.59274 95.8218 6.03115C95.7927 5.60569 95.5481 5.28042 95.1799 5.15162C94.8628 5.01934 94.5175 4.97447 94.0746 5.00464C92.1158 5.13807 91.0206 6.39237 91.1564 8.38349L91.2505 9.76195L90.8758 9.78748C90.3137 9.82577 89.9157 10.2632 89.954 10.8248C89.9923 11.3864 90.446 11.7658 91.0082 11.7275L91.3829 11.702L91.7592 17.2159C91.8045 17.8796 92.3333 18.3565 92.9976 18.3112C93.6449 18.2671 94.1052 17.74 94.0587 17.0592L93.6824 11.5454L94.7385 11.4734C95.3007 11.4352 95.6816 10.9989 95.6433 10.4373C95.6049 9.87568 95.1683 9.49509 94.6061 9.53338L93.5501 9.60532L93.4699 8.43107C93.413 7.59719 93.8234 7.09051 94.6069 7.03714ZM86.467 7.01029C86.4136 6.22746 87.019 5.57072 87.8196 5.51619C88.5861 5.46398 89.2923 6.03138 89.3457 6.81421C89.3979 7.58002 88.7754 8.23792 88.0089 8.29013C87.2083 8.34467 86.5192 7.7761 86.467 7.01029ZM89.7738 17.3511C89.8191 18.0148 89.36 18.559 88.6957 18.6043C88.0484 18.6483 87.5196 18.1714 87.4743 17.5077L87.0318 11.0239C86.9865 10.3601 87.4468 9.83298 88.1111 9.78773C88.7584 9.74364 89.2861 10.2035 89.3313 10.8672L89.7738 17.3511ZM84.8195 18.8683C85.4668 18.8242 85.926 18.28 85.8807 17.6163L85.1421 6.79279C85.0968 6.12908 84.568 5.65219 83.9207 5.69628C83.2564 5.74153 82.7972 6.28572 82.8425 6.94942L83.5811 17.7729C83.6264 18.4366 84.1552 18.9135 84.8195 18.8683ZM80.9268 19.1334C81.8296 19.0719 82.4463 18.3289 82.3859 17.444C82.3267 16.5761 81.6136 15.9066 80.7108 15.9681C79.791 16.0307 79.1584 16.7919 79.2176 17.6598C79.278 18.5448 80.007 19.1961 80.9268 19.1334ZM95.8105 13.6914C95.6398 11.1898 97.4005 9.15498 99.8874 8.98558C102.187 8.82895 104.004 10.3807 104.16 12.6611L104.163 12.7122C104.212 13.4269 103.732 13.9212 102.983 13.9723L98.1794 14.2995C98.5239 15.336 99.4174 15.8907 100.661 15.806C101.274 15.7642 101.893 15.5511 102.382 15.1929C102.545 15.0792 102.695 15.0177 102.865 15.0061C103.393 14.9702 103.829 15.3337 103.865 15.8613C103.89 16.2357 103.739 16.5196 103.348 16.8197C102.617 17.3825 101.715 17.7174 100.727 17.7847C98.0702 17.9657 95.9824 16.2101 95.8105 13.6914ZM101.902 12.4217C101.799 11.4199 101.036 10.7709 99.9629 10.844C98.9579 10.9125 98.2537 11.6272 98.069 12.6827L101.902 12.4217Z" fill="white"/>
</svg>
